<?xml version="1.0" encoding="utf-8"?>
<!-- Generator: Adobe Illustrator 27.5.0, SVG Export Plug-In . SVG Version: 6.00 Build 0)  -->
<svg version="1.1" id="Capa_1" xmlns="http://www.w3.org/2000/svg" xmlns:xlink="http://www.w3.org/1999/xlink" x="0px" y="0px"
	 viewBox="0 0 542.7 266.7" style="enable-background:new 0 0 542.7 266.7;" xml:space="preserve">
<style type="text/css">
	.st0{fill:#FFFFFF;}
</style>
<path class="st0" d="M110.7,240.4h-5v0.6h0.1c0.4,0,0.7,0.1,0.8,0.2c0.1,0.3,0.2,0.7,0.1,1v5.8c0,0.4,0,0.7-0.1,1.1
	c-0.2,0.2-0.5,0.2-0.8,0.2h-0.1v0.6h5.1c1.2,0.1,2.4-0.4,3.2-1.3c0.9-1,1.3-2.3,1.2-3.6c0.1-1.2-0.4-2.5-1.2-3.4
	C113.1,240.7,111.9,240.3,110.7,240.4z M112.4,248.2c-0.5,0.7-1.4,1.1-2.3,1.1c-0.4,0-0.8,0-1.2-0.2c-0.2-0.3-0.3-0.6-0.2-1v-7h0.7
	c1.1-0.1,2.1,0.2,2.9,0.9c0.7,0.9,1,1.9,0.9,3C113.3,246.1,113,247.2,112.4,248.2z"/>
<path class="st0" d="M122.4,248.3c0,0.5-0.1,0.8-0.2,0.9c-0.3,0.1-0.7,0.1-1.1,0.1h-0.8c-0.3,0-0.7,0-1-0.1c-0.2,0-0.2-0.4-0.2-1.1
	v-2.8h1.4c0.3,0,0.5,0,0.8,0.1c0.1,0.1,0.2,0.2,0.2,0.6v0.1h0.7V244h-0.7v0.1c0,0.4,0,0.6-0.1,0.6c-0.3,0-0.6,0-0.9,0h-1.3V241h2
	c0.3,0,0.5,0,0.8,0.1c0.1,0.1,0.2,0.2,0.2,0.5c0,0,0,0.2,0,0.4v0.1h1v-1.7h-7v0.6h0.1c0.4,0,0.7,0.1,0.8,0.2c0.1,0.3,0.2,0.7,0.1,1
	v5.8c0,0.4,0,0.7-0.1,1.1c-0.2,0.2-0.5,0.2-0.8,0.2h-0.1v0.6h7.2V248h-1V248.3z"/>
<path class="st0" d="M32.3,247.4c0,0.4,0,0.8-0.2,1.2c-0.5,0.1-1,0.2-1.5,0.1h-1.1c-0.5,0-0.9,0-1.4-0.1c-0.2-0.1-0.3-0.6-0.3-1.5
	v-3.8h1.8c0.4,0,0.7,0,1.1,0.1c0.1,0.1,0.2,0.3,0.2,0.8v0.1h0.9v-2.7H31v0.1c0,0.5-0.1,0.8-0.2,0.8c-0.4,0.1-0.8,0.1-1.2,0.1h-1.8
	v-4.8h2.7c0.3,0,0.7,0,1,0.1c0.1,0.1,0.2,0.3,0.2,0.6c0,0,0,0.2,0,0.5v0.2H33V237h-9.2v0.8H24c0.6,0.1,0.9,0.1,1,0.3
	c0.2,0.4,0.2,0.9,0.2,1.4v7.7c0,0.5,0,0.9-0.2,1.4c-0.1,0.1-0.5,0.2-1,0.3h-0.2v0.8h9.7v-2.4L32.3,247.4L32.3,247.4z"/>
<path class="st0" d="M40.6,242.2l-0.8-0.5c-0.5-0.3-1-0.6-1.4-1c-0.2-0.3-0.4-0.7-0.3-1.1c0-0.5,0.2-1.1,0.6-1.4
	c0.4-0.4,0.9-0.6,1.4-0.6c0.6,0,1.2,0.2,1.6,0.6c0.2,0.5,0.4,1,0.3,1.5v0.1h1.3v-2.6c-1.1-0.3-2.3-0.5-3.4-0.6c-1.1,0-2.2,0.3-3.1,1
	c-0.8,0.6-1.2,1.6-1.1,2.6c0,1.4,1,2.7,3.2,3.8l0.8,0.5c0.5,0.3,1,0.6,1.4,1.1c0.3,0.4,0.4,0.8,0.4,1.3c0,0.6-0.2,1.2-0.6,1.6
	c-0.4,0.4-1,0.7-1.6,0.6c-0.7,0-1.3-0.2-1.9-0.6c-0.3-0.4-0.5-0.9-0.4-1.4v-0.2h-1.3v2.6c1.2,0.3,2.4,0.4,3.6,0.5
	c1.2,0.1,2.5-0.3,3.5-1c0.9-0.7,1.3-1.7,1.3-2.8c0-0.7-0.2-1.5-0.7-2.1C42.4,243.3,41.6,242.7,40.6,242.2z"/>
<path class="st0" d="M45.5,239.6h1.3v-0.2c-0.1-0.5,0-0.9,0.2-1.4c0.3-0.2,0.7-0.2,1-0.2h2.1v9.3c0.1,0.5,0,0.9-0.2,1.4
	c-0.1,0.1-0.5,0.2-1.2,0.3h-0.2v0.8h5.8v-0.8h-0.2c-0.4,0-0.8-0.1-1.2-0.2c-0.1-0.5-0.2-1-0.2-1.4v-9.3h2.1c0.3,0,0.7,0,1,0.2
	c0.2,0.4,0.3,0.9,0.2,1.4v0.2h1.3V237H45.5V239.6z"/>
<path class="st0" d="M70.6,248.6c-0.3-0.5-0.6-0.9-0.8-1.4L65,236.9h-0.9l-4.7,10.3c-0.2,0.5-0.5,1-0.8,1.5
	c-0.3,0.2-0.6,0.2-0.9,0.2h-0.2v0.8H61v-0.8h-0.2h-0.3c-0.3,0-0.5-0.1-0.5-0.3c0.1-0.5,0.2-0.9,0.5-1.4l0.6-1.4h5.3l0.6,1.3
	c0.2,0.4,0.4,0.9,0.5,1.4c0,0.2-0.4,0.3-1.1,0.3h-0.2v0.8h5.3v-0.8h-0.1C71.1,248.8,70.8,248.7,70.6,248.6z M61.6,244.9l2.2-4.9
	l2.3,4.9H61.6z"/>
<path class="st0" d="M78.6,236.9h-0.7h-1.8H72v0.8h0.2c0.6,0.1,0.9,0.1,1,0.3c0.2,0.4,0.2,0.9,0.2,1.4v7.7c0,0.5,0,0.9-0.2,1.4
	c-0.1,0.1-0.5,0.2-1,0.3H72v0.8h6.8c1.6,0.1,3.2-0.6,4.3-1.8c1.1-1.3,1.7-3,1.6-4.8c0.1-1.7-0.5-3.3-1.6-4.5
	C81.9,237.4,80.2,236.8,78.6,236.9z M80.9,247.3c-0.7,1-1.9,1.5-3.1,1.4c-0.5,0.1-1.1,0-1.5-0.3c-0.2-0.2-0.3-0.6-0.3-1.3v-9.3h1
	c1.8,0,3.1,0.4,3.8,1.2s1.1,2.1,1.1,4C82.1,244.5,81.7,246,80.9,247.3z"/>
<path class="st0" d="M92.6,236.6c-1.7-0.1-3.5,0.5-4.7,1.8c-2.3,2.8-2.3,6.9,0,9.7c2.7,2.4,6.7,2.4,9.4,0c2.3-2.8,2.3-6.9,0-9.7
	C96,237.2,94.3,236.5,92.6,236.6z M95.3,247.6c-1,1.5-3,1.9-4.5,0.9c-0.4-0.2-0.7-0.6-0.9-0.9c-1.2-2.8-1.2-5.9,0-8.7
	c1-1.5,3.1-1.9,4.6-0.9c0.3,0.2,0.6,0.5,0.9,0.9C96.5,241.7,96.5,244.9,95.3,247.6z"/>
<path class="st0" d="M134.9,242.2l-0.9-0.5c-0.5-0.3-1-0.6-1.4-1c-0.2-0.3-0.4-0.7-0.4-1.1c0-0.5,0.2-1.1,0.6-1.4
	c0.4-0.4,0.9-0.6,1.4-0.6c0.6,0,1.2,0.2,1.6,0.6c0.3,0.5,0.4,1,0.4,1.5v0.1h1.3v-2.6c-1.1-0.3-2.3-0.5-3.4-0.6
	c-1.1-0.1-2.2,0.3-3.1,1c-0.8,0.6-1.2,1.6-1.1,2.6c0,1.4,1.1,2.7,3.2,3.8l0.8,0.5c0.5,0.2,1,0.6,1.4,1.1c0.3,0.4,0.4,0.8,0.4,1.3
	c0,0.6-0.2,1.2-0.6,1.6c-0.4,0.4-1,0.7-1.6,0.6c-0.7,0-1.3-0.2-1.9-0.6c-0.3-0.4-0.5-0.9-0.4-1.4v-0.2h-1.3v2.6
	c1.2,0.3,2.4,0.4,3.6,0.5c1.2,0.1,2.5-0.3,3.5-1c0.9-0.7,1.3-1.7,1.3-2.8c0-0.7-0.2-1.5-0.7-2.1
	C136.7,243.3,135.8,242.7,134.9,242.2z"/>
<path class="st0" d="M145.8,236.6c-1.7-0.1-3.5,0.5-4.7,1.8c-2.3,2.8-2.3,6.9,0,9.7c2.7,2.4,6.7,2.4,9.4,0c2.3-2.8,2.3-6.9,0-9.7
	C149.2,237.2,147.5,236.5,145.8,236.6z M148.5,247.6c-0.6,1-1.6,1.5-2.7,1.5c-1.1,0-2.1-0.5-2.7-1.5c-1.2-2.8-1.2-5.9,0-8.7
	c0.6-0.9,1.6-1.5,2.7-1.4c1.1,0,2.1,0.5,2.7,1.4C149.7,241.7,149.7,244.9,148.5,247.6z"/>
<path class="st0" d="M162,237.8h0.2c0.6,0.1,0.9,0.1,1,0.3c0.1,0.4,0.2,0.9,0.2,1.4v7.1l-7-9.5h-3.2v0.8h0.2
	c0.6,0.1,0.9,0.1,1.1,0.3c0.2,0.4,0.2,0.9,0.2,1.4v7.7c0,0.5,0,0.9-0.2,1.4c-0.1,0.1-0.4,0.2-1,0.3h-0.2v0.8h4V249H157
	c-0.6,0-0.9-0.1-1-0.3c-0.2-0.4-0.2-0.9-0.2-1.4v-6.9l7,9.6h1.8v-10.4c-0.1-0.5,0-0.9,0.2-1.4c0.1-0.1,0.5-0.2,1.1-0.3h0.2V237h-4
	v0.8H162z"/>
<path class="st0" d="M173.7,236.6c-1.7-0.1-3.5,0.5-4.7,1.8c-2.3,2.8-2.3,6.9,0,9.7c2.7,2.4,6.7,2.4,9.4,0c2.3-2.8,2.3-6.9,0-9.7
	C177.2,237.2,175.5,236.5,173.7,236.6z M176.5,247.6c-0.6,1-1.6,1.5-2.7,1.5c-1.1,0-2.1-0.5-2.7-1.5c-1.2-2.8-1.2-5.9,0-8.7
	c0.6-0.9,1.6-1.5,2.7-1.4c1.1,0,2.1,0.5,2.7,1.4C177.7,241.7,177.7,244.9,176.5,247.6z"/>
<path class="st0" d="M206.3,248.6c-0.3-0.5-0.6-0.9-0.8-1.4l-4.7-10.3h-0.9l-4.7,10.3c-0.2,0.5-0.5,1-0.8,1.5
	c-0.3,0.2-0.6,0.2-0.9,0.2h-0.2h-0.1c-0.3,0-0.7-0.1-1-0.2c-0.4-0.5-0.8-0.9-1.2-1.4l-2.4-3.4c0.7-0.3,1.4-0.8,1.8-1.4
	c0.4-0.7,0.6-1.4,0.6-2.2c0-2.1-1.3-3.2-3.9-3.2h-0.8h-1.6H181v0.8h0.2c0.6,0.1,0.9,0.1,1,0.3c0.2,0.4,0.2,0.9,0.2,1.4v7.7
	c0,0.5,0,0.9-0.2,1.4c-0.1,0.1-0.5,0.2-1,0.3H181v0.8h5.1V249h-0.2c-0.5,0-0.8-0.1-0.8-0.3c-0.1-0.4-0.2-0.9-0.2-1.4V244h1.1
	l3.5,5.5h7.1v-0.8h-0.2h-0.3c-0.4,0-0.5-0.1-0.5-0.3c0.1-0.5,0.2-0.9,0.4-1.4l0.6-1.4h5.3l0.6,1.3c0.2,0.4,0.4,0.9,0.5,1.4
	c0,0.2-0.4,0.3-1.1,0.3h-0.1v0.8h5.3v-0.8H207C206.8,248.8,206.4,248.7,206.3,248.6z M187.7,242.4c-0.6,0.5-1.3,0.8-2.1,0.8h-0.5
	v-5.4h0.9c1.2-0.2,2.3,0.6,2.4,1.8c0,0.2,0,0.4,0,0.6C188.5,241.1,188.2,241.8,187.7,242.4z M197.3,244.9l2.2-4.9l2.3,4.9H197.3z"/>
<path class="st0" d="M146.8,197.4l0.1-0.1c-1.2,0.6,0.3,1.5,0.9,0.9S147.4,197,146.8,197.4z"/>
<path class="st0" d="M128.6,185.1c0.3,0.1,0.5,0.2,0.8,0.3c0.2,0.1,0.4,0.3,0.6,0.5c0.1,0.1,0.3,0.3,0.5,0.4
	c0.4,0.3,0.8,0.5,1.3,0.6l0.5,0.1c0.4,0.1,0.9,0.3,1.3,0.6c0.5,0.3,1,0.5,1.6,0.7c0.2,0.3,0.5,0.5,0.9,0.5h0.1
	c0.3,0,0.6-0.3,0.8-0.6h0.2c0.3,0,0.6,0,0.9-0.2h0.1c0.3-0.2,0.5-0.5,0.3-0.9V187c0-0.1,0-0.1,0-0.2c0-0.2-0.2-0.4-0.4-0.5
	c-0.1-0.2-0.1-0.5,0.2-1.2c0.1-0.1,0.1-0.2,0.2-0.3c0.1-0.2,0.3-0.5,0.3-0.7c0.1-0.3,0.1-0.6,0.1-0.9c0-0.1,0-0.3,0-0.4
	c0.1-0.4,0.2-0.8,0.4-1.2s0.3-0.9,0.4-1.3c0.1-0.3,0.1-0.5,0.2-0.8c0.3-0.7,0.4-1.4,0.3-2.2c-0.2-0.9-0.6-1.8-1.1-2.6
	c-0.2-0.3-0.4-0.6-0.7-0.9c-0.3-0.3-0.5-0.6-0.6-1c0-0.4,0-0.8,0-1.2c0-1,0.1-2.1-0.7-2.6c-0.7-0.3-1.4-0.2-2.1,0.2
	c-0.3,0.1-0.5,0.3-0.8,0.4c-0.3,0.2-0.7,0.4-1.1,0.5c-0.2,0.1-0.4,0.1-0.5,0.1c-0.6,0.1-1.2,0.4-1.7,0.8c-1,1-1.3,2.7-1.5,4
	l-0.1,0.6c0,0.2-0.1,0.5-0.2,0.7c-0.2,0.6-0.3,1.3-0.2,2c0.1,0.3,0.2,0.6,0.3,0.9c0.2,0.2,0.2,0.5,0.3,0.8c-0.1,0.9-1.5,2-2.8,2.7
	c-0.3,0.1-0.4,0.5-0.3,0.8C126.7,184.5,127.7,184.9,128.6,185.1z M130.8,180.1c0-0.5-0.1-1.1-0.4-1.5c-0.1-0.1-0.2-0.3-0.2-0.5
	c0-0.5,0.1-1,0.2-1.5c0.1-0.3,0.1-0.6,0.2-0.8s0.1-0.4,0.1-0.6c0-1.2,0.4-2.3,1.1-3.3c0.3-0.3,0.6-0.4,1-0.4c0.2,0,0.4-0.1,0.6-0.2
	c0.5-0.2,0.9-0.4,1.3-0.6c0.2-0.1,0.4-0.3,0.7-0.4c0.2-0.1,0.5-0.2,0.8-0.2l0,0c0.1,0.5,0.2,1,0.1,1.5c-0.1,0.5-0.1,1,0,1.5
	c0.1,0.6,0.5,1.2,1,1.7c0.2,0.2,0.4,0.4,0.5,0.6c0.4,0.7,0.7,1.4,0.9,2.2c0,0.5,0,1.1-0.2,1.5c-0.1,0.3-0.2,0.6-0.2,0.9
	c-0.1,0.4-0.2,0.8-0.3,1.1c-0.2,0.5-0.3,1-0.4,1.4c0,0.2,0,0.4,0,0.6c0,0.2,0,0.4,0,0.5c-0.1,0.2-0.1,0.3-0.2,0.4
	c-0.1,0.1-0.2,0.3-0.2,0.5c-0.4,0.7-0.5,1.6-0.2,2.3c-0.1,0-0.3,0-0.4,0.1c-0.2,0-0.3,0.2-0.5,0.3c-0.1-0.1-0.3-0.2-0.4-0.2
	c-0.5-0.1-1-0.3-1.4-0.6c-0.5-0.3-1-0.5-1.6-0.7l-0.6-0.1c-0.3,0-0.5-0.2-0.7-0.4l-0.4-0.3c-0.3-0.3-0.6-0.5-0.9-0.7
	c-0.3-0.1-0.6-0.3-0.9-0.4c-0.3-0.1-0.7-0.3-1-0.4C129.2,182.8,130.6,181.5,130.8,180.1L130.8,180.1z"/>
<path class="st0" d="M128.1,190.4c0.1-0.2,0-0.4-0.2-0.5c-0.3-0.3-0.8-0.5-1.2-0.5c-0.3,0-0.6,0.1-0.8,0.3c-0.1,0.1-0.1,0.1-0.2,0.2
	c-0.5,1.3-0.3,2.3,0.5,2.6c0.2,0.1,0.4,0.1,0.6,0.1c1,0,1.2-1.2,1.2-1.8C128.1,190.7,128.1,190.6,128.1,190.4z M127,190.7
	c0,0.3-0.1,0.6-0.2,0.8c0,0,0,0-0.2,0s-0.2-0.6,0-1.1c0.1,0,0.3,0,0.4,0.1L127,190.7z"/>
<path class="st0" d="M228.4,0H0.8C0.3,0,0,0.3,0,0.8l0,0v235.9c0,21.4,19.4,22,21.6,22H103c6.3,0,10.3,6.5,10.3,6.6l0.7,1
	c0.1,0.2,0.4,0.3,0.7,0.4c0.3,0,0.5-0.1,0.7-0.4l0.7-1.1c0-0.1,4-6.5,10.3-6.5h81.4c4.1,0,8.2-1.1,11.8-3c4.4-2.5,9.8-7.9,9.8-19
	V0.8C229.1,0.3,228.8,0,228.4,0z M227.6,236.7c0,8.3-3,14.2-9,17.6c-3.4,1.8-7.2,2.8-11,2.8h-81.4c-7.1,0-11.4,7-11.6,7.3l0,0l0,0
	c-0.2-0.3-4.5-7.3-11.6-7.3H21.6c-3.3,0-20-1-20-20.4V1.5h226V236.7z"/>
<path class="st0" d="M21,211.3c0,17.5,15.9,18,17.7,18H105c5,0,8.2,5.2,8.2,5.2l0.6,1c0.1,0.3,0.4,0.4,0.7,0.4
	c0.3,0,0.6-0.2,0.7-0.4l0.5-1c0,0,3.2-5.2,8.3-5.2h66.4c3.4,0,6.7-0.9,9.7-2.5c3.7-2.1,8-6.4,8-15.5V21.7c0-0.4-0.3-0.8-0.8-0.8
	H21.8c-0.4,0-0.8,0.3-0.8,0.8v110.7l-0.1,0.1l0.1,0.1V211.3z M190.4,227.7h-66.3c-4.3,0-7.3,3-8.7,4.8v-98.8h3.8c0,0.1,0,0.1,0,0.2
	c-0.1,0.6,0,1.3,0.3,1.8c0.1,0.2,0.3,0.5,0.4,0.7c0.2,0.3,0.3,0.6,0.3,1s-0.2,0.8-0.3,1.1c-0.2,0.4-0.3,0.9-0.3,1.4
	c0,1.5,0.7,1.8,1.5,1.9l0.5,0.1c1.7,0.4,2.5,2.6,3.2,4.7c0.4,1.2,0.9,2.3,1.5,3.4c0.4,0.6,0.8,1.1,1.3,1.8c0.6,0.8,1.2,1.7,1.8,2.5
	c0.4,0.5,0.8,0.9,1.1,1.3c0.9,0.8,1.5,1.8,1.9,2.9c0.1,0.8-0.1,1.7-0.4,2.5c-0.4,1.1-0.8,2.3-0.3,3.2c0.9,1.7,2.6,1.6,3.7,1.4
	c0.5-0.1,1-0.1,1.5,0.1c0.9,0.6,1.4,1.6,1.6,2.6c0.2,0.5,0.4,1,0.6,1.5c0.3,0.5,0.5,1.1,0.6,1.7c0.1,0.4,0.2,0.7,0.4,1.1
	c0.1,0.2,0.1,0.3,0.2,0.5c0.2,0.3,0.2,0.7,0,1.1c-0.2,0.2-0.3,0.5-0.3,0.8c0,0.6,0.1,1.1,0.3,1.7c0.1,0.3,0.2,0.6,0.2,0.9
	c0,0.2,0,0.4,0.1,0.6c0,0.8,0.2,1.7,0.8,2.3c0.3,0.2,0.5,0.3,0.9,0.4c0.2,0,0.3,0.1,0.5,0.2c0.2,0.1,0.3,0.3,0.4,0.5
	c0.1,0.1,0.2,0.2,0.2,0.3s0.3,0.4,0.6,0.6l0.5,0.5c-2.6,2.3-5.1,4.7-7.4,7.2c-0.9,1.1-1.8,2.2-2.6,3.4c-0.6,0.9-1.2,1.8-1.8,2.4
	c-1.3,1.6-2.5,3.2-3.6,4.9c-1,1.6-2.3,3.9,0,5.8c0.9,0.6,2,0.8,3.1,0.7h1.6c1.2-0.1,2.3-0.3,3.5-0.5l0.4-0.1
	c2.3-0.4,4.5-1.2,6.6-2.3h0.1c0.4-0.1,0.8-0.2,1.1-0.2c0.5,0,1-0.1,1.5-0.3l0.8-0.3h0.1c0.8-0.2,1.6-0.5,2-0.7
	c1-0.4,1.7-0.6,2.5-0.9c0.6-0.2,1.2-0.4,2-0.7s1.8-0.7,2.8-1.2c0.1,0.1,0.2,0.2,0.3,0.4c0.3,0.7,1,1.1,1.7,1.1c0.3,0,0.7,0,1,0h0.3
	v0.1c0.1,0.3,0.2,0.6,0.5,0.9c0.6,0.4,1.4,0.7,2.1,0.8c0.3,0.1,0.6,0.1,0.9,0.2c0.5,0.2,0.9,0.5,1.3,0.8c0.2,0.2,0.5,0.4,0.8,0.6
	c0.1,0,0.2,0.1,0.2,0.1c-0.1,1.1,0.3,2.2,1.2,2.8l0.6,0.6c0.2,0.3,0.4,0.6,0.6,0.9l0.2,0.4c0,0,0.1,0.2,0.1,0.3
	c0.1,0.3,0.2,0.7,0.4,0.9c0.3,0.2,0.6,0.3,1,0.3l0,0c0,0.2,0,0.3,0,0.5c-0.1,0.4,0,0.8,0.1,1.2c0.2,0.4,0.5,0.7,0.8,1
	c0.2,0.2,0.4,0.3,0.5,0.5c0.1,0.3,0.2,0.5,0.2,0.8s0.1,0.6,0.2,0.9c0.2,0.3,0.4,0.6,0.7,0.8l0.1,0.1c0,0.1,0,0.1,0,0.2
	c-0.1,0.4,0.2,0.7,0.5,0.8c0.1,0,0.2,0,0.3,0c0.7-0.2,0.8,0,1.2,0.8c0.2,0.6,0.6,1.1,1.1,1.5c0.4,0.3,0.9,0.5,1.3,0.6
	c0.3,0.1,0.6,0.2,0.9,0.4c0.1,0.1,0.3,0.2,0.4,0.3c0.4,0.3,0.8,0.6,1.3,0.7c0.4,0,0.8-0.1,1.1-0.3c0.1-0.1,0.2-0.1,0.2-0.1
	c0.3,0,0.6-0.1,0.9-0.1c0.4,0,0.8-0.1,1.2-0.1c0,0.2,0.1,0.4,0.1,0.6c0.1,1,0.7,1.9,1.5,2.4c0.9,0.6,2,0.7,3,0.2
	c0.6-0.4,0.9-1.3,0.7-2c0-0.2-0.1-0.3-0.3-0.4l-0.1-0.1l0.1-0.1l0.3-0.3c0,0.1,0,0.1,0.1,0.1c0.4,0.7,1.1,1.1,1.8,1.1l0.4,0.1
	c0.4,0.1,0.7,0.2,1.1,0.4c0.9,0.5,1.9,0.7,2.9,0.7c0.1,0.2,0.3,0.4,0.6,0.5s0.7,0.1,1,0.1c0.2,0,0.3,0,0.5,0c0.4,0.1,0.8,0.4,1,0.8
	l0.1,0.2C195.9,227.1,193.2,227.7,190.4,227.7z M161.1,175.6c0.7,0.6,7.7-4.5,7.9-2.7c-1.2,0-3.6,1.8-5.2,2.6
	c-1,0.5-4.3,2.4-3.9-0.1c0.5-1.8,1.3-3.5,2.4-5c1-1.7,2.3-3.1,3.8-4.4c-0.8,1.2-2.6,3.1-3.3,4.6
	C162.5,171.3,160.5,175.1,161.1,175.6L161.1,175.6z M187.4,156.8c0.6,1.8,2,3.2,3.9,3.8c0.7-0.7-0.2-3.2,1.1-2.9v0.1
	c-0.1,0.7,0.1,1.6-0.1,2.4c-0.2,0.6-0.3,1.2-0.2,1.9c-1.7-1.4-3.8-1.9-5-4.6c-1-2.1-1.2-5.6,0.2-7.7
	C186.7,152.1,186.8,154.5,187.4,156.8L187.4,156.8z M192.9,166.8c0.1,3.9-2.9,6.8-3.8,8.2c-2.1,3.4-5.2,5.3-8.2,7.4
	c-0.5-0.1-1-0.3-1.4-0.5c0.2-1,0.8-1.9,1.7-2.4c1.4-1.1,2.2-2.2,3.5-3.3c1.7-1.4,4.6-4,5.4-5.9c0,0-8.3,8.4-15,11.6
	c-4,2-7.7,4.3-11.2,7.1c0.6,0,2.1,0.3,2.8,0.2c1.7-0.2,2-0.2,3.7-0.4c1-0.1,1.9-0.4,2.9-0.8c-4.7,3.3-9.7,6.5-14.5,9.2
	c-0.8,0.5-1.6,0.9-2.5,1.2c-1.5,0.6-2.6,0.9-4.8,1.8c-1.1,0.4-4.2,2.3-5,1.3c-1.1-1.4-1.1-0.3-2.6,0.9c-2.5,2-5.1,2.5-8,3
	c-1,0.2-6,1.3-5.8-0.7l0.1-0.1c2-1.6,4.1-3.1,6.3-4.2c2.4-1.3,5.1-3,7.9-4.3c2.4-1.1,4.7-2.3,6.9-3.4c3.8-1.9,7.5-3.8,11.1-5.9
	c6.4-3.6,11.5-5.5,15.7-8.2c3-1.9,5.9-4,8.6-6.2C188.2,171,192.6,166.9,192.9,166.8L192.9,166.8z M183.6,185.2c-1.1,0.9-5.5,2-7.5,2
	s-7.4,0.8-7.4,0.8c0.6-0.6,3.9-1.6,6.9-1.5S184.7,184.3,183.6,185.2L183.6,185.2z M162,181.4c1.3-0.7,2.7-1.4,4-2.1
	c0.8-0.4,1.9-1.3,2.9-1.1c-0.3,0.5-0.8,0.8-1.3,1.1c-3.6,2.6-7.4,4.9-11.3,7.1c-2.2,1.2-4.6,2.3-7,3.6c-2.6,1.3-4.9,2.9-7.1,4.7
	c-0.1-0.4,0.2-0.9,0.5-1.2c1.6-1.9,3.4-3.5,5.5-4.8c2.2-1.4,4.5-2.7,6.7-4S159.7,182.6,162,181.4z M206.6,211.3c0,6.6-2.4,11.3-7,14
	c-0.1-0.1-0.2-0.2-0.2-0.3c-0.4-0.6-1-1.1-1.7-1.3c-0.3-0.1-0.6-0.1-0.9-0.1c-0.1,0-0.3,0-0.4,0l-0.1-0.2c-0.2-0.2-0.4-0.4-0.6-0.6
	c-0.2-0.1-0.4-0.1-0.6,0c-0.1,0-0.2,0.1-0.2,0.2c-0.7-0.1-1.4-0.3-2-0.6c-0.4-0.2-0.9-0.3-1.3-0.4l-0.5-0.1
	c-0.6-0.1-0.6-0.1-0.9-0.5c0-0.1,0-0.2,0-0.4c0-0.5-0.2-1-0.6-1.3c-0.4-0.2-0.9-0.1-1.2,0.1c-0.3,0.2-0.4,0.5-0.3,0.8
	c0.1,0.2,0.1,0.3-0.3,0.7c-0.4,0.4-0.7,1-0.7,1.6c0,0.2,0.1,0.4,0.3,0.5c0.1,0.1,0.2,0.1,0.4,0.1l-0.1,0.1c-0.5,0.2-1.1,0.1-1.5-0.2
	c-0.6-0.3-0.9-0.9-1-1.6c-0.1-0.5-0.2-0.9-0.4-1.3c-0.1-0.2-0.2-0.3-0.4-0.4c-0.2-0.1-0.3-0.1-0.5,0c-0.5,0.2-1,0.2-1.4,0.2
	s-0.7,0-1.1,0.1c-0.3,0.1-0.5,0.2-0.7,0.3c-0.1,0.1-0.1,0.1-0.2,0.1c-0.2-0.1-0.5-0.3-0.6-0.4c-0.2-0.2-0.4-0.3-0.6-0.4
	c-0.4-0.2-0.8-0.4-1.2-0.5s-0.7-0.2-1-0.4c-0.3-0.3-0.5-0.6-0.7-1c-0.3-0.7-0.8-1.6-2-1.7c-0.1-0.3-0.4-0.6-0.7-0.7
	c-0.2-0.1-0.2-0.1-0.3-0.2c-0.1-0.2-0.1-0.3-0.1-0.5c0-0.5-0.2-0.9-0.4-1.4c-0.2-0.3-0.5-0.6-0.7-0.8s-0.4-0.3-0.5-0.6
	c0-0.2,0-0.4,0-0.5c0.1-0.5,0-1.1-0.4-1.5c-0.3-0.3-0.7-0.4-1.1-0.3l-0.1-0.2c0-0.2-0.1-0.3-0.2-0.5c-0.1-0.1-0.1-0.3-0.2-0.4
	c-0.2-0.4-0.5-0.9-0.8-1.2c-0.2-0.2-0.4-0.4-0.6-0.6c-0.5-0.4-0.8-1-0.8-1.6c0.1-0.1,0.3-0.2,0.4-0.2l0.1-0.1
	c0.2-0.1,0.3-0.2,0.3-0.4s0-0.4-0.1-0.5c-0.4-0.6-1.1-0.9-1.8-0.8c-0.2,0-0.3,0.1-0.4,0.2l-0.2-0.2c-0.5-0.4-1.1-0.8-1.6-1
	c-0.4-0.1-0.7-0.2-1.1-0.3c-0.6-0.1-1.1-0.2-1.6-0.5c0-0.1-0.1-0.1-0.1-0.2c-0.1-0.5-0.4-0.8-0.9-1c-0.1-0.1-0.2,0-0.7,0
	c-0.2,0-0.7,0-0.8,0c-0.6-0.1-0.7-0.2-0.8-0.5c-0.1-0.1-0.1-0.2-0.2-0.3c0.8-0.4,1.5-0.8,2.4-1.2l0.9-0.5c4.1-2.1,8.1-4.5,11.8-7.2
	l2.8-2h0.7c2-0.2,3.9-0.8,5.8-1.5c1.9-0.7,5-2.6,5.1-4.6c0-0.1,0-0.3-0.1-0.4c-0.1-0.1-0.2-0.2-0.4-0.2h0c-0.7,0-1.3,0.1-2,0.1
	c0.5-0.4,1-0.7,1.6-1.2h0.1c0.8-0.6,1.5-1.3,2.1-2c0.5-0.6,0.9-1.1,1.2-1.4c0.7-0.8,1.4-1.7,1.9-2.7c1.9-3.1,2.8-6.7,2.8-10.4
	c0-0.2,0-0.5,0-0.9s0-0.9,0-1.2c0-0.6-0.1-1.2-0.1-1.7c-0.1-2.3-0.1-4.7-1.9-6.5c-1.3-1.2-2.4-2.6-3.2-4.1c-0.1-0.2-0.1-0.3-0.2-0.5
	c-0.2-0.8-0.6-1.4-1.2-1.9c-0.3-0.2-0.6-0.3-0.9-0.3c-1.3,0-1.8,1.6-2,2.4c-0.6,2.6-0.7,5.2-0.1,7.8c0.7,2.6,2.5,3.9,4.3,5.1l0,0
	c-0.3,0.1-0.5,0.3-0.8,0.5l-0.3,0.2c-1.2,0.8-2.2,1.9-2.9,3.1c-0.3,0.5-0.6,0.9-1,1.3c-0.7,1-1.8,1.8-3,2.2
	c-1.4,0.5-2.9,0.7-4.4,0.7h-6.7c-0.2-0.2-0.4-0.6-0.3-0.9c0-0.8,0-1.7-0.1-2.5s-0.2-1.5-0.1-2.3c0.1-0.5,0-1-0.3-1.4
	c-0.3-0.3-0.6-0.4-1-0.4c-0.3,0-1.2,0-3.5,2c-2.6,2.3-4.3,5.3-5.9,8.2l-0.8,1.4l0,0c-1.8,0.7-3.5,1.6-5.1,2.6l-1.6,0.9
	c-1.9,1.1-3.7,2.3-5.4,3.7l-0.7,0.6l-0.5-0.6l-0.5-0.6l-0.2-0.3c-0.2-0.3-0.4-0.5-0.7-0.8c-0.3-0.2-0.6-0.3-1-0.4
	c-0.1,0-0.2,0-0.3-0.1c-0.2-0.5-0.3-1-0.3-1.5c0-0.3-0.1-0.5-0.1-0.7c-0.1-0.4-0.2-0.8-0.3-1.1c-0.1-0.4-0.2-0.8-0.2-1.2
	c0-0.1,0.1-0.2,0.1-0.2c0.2-0.3,0.3-0.6,0.4-1c0-0.4-0.1-0.9-0.3-1.3c-0.1-0.1-0.1-0.2-0.2-0.4c-0.1-0.4-0.2-0.7-0.3-1
	c-0.2-0.7-0.4-1.3-0.7-1.9c-0.2-0.4-0.4-0.9-0.5-1.3c-0.3-1.3-1.1-2.5-2.2-3.3c-0.7-0.3-1.5-0.4-2.3-0.2c-1.2,0.1-1.9,0.2-2.4-0.8
	c-0.2-0.4,0.1-1.3,0.4-2.2c0.5-1,0.6-2.2,0.5-3.3c-0.4-1.3-1.2-2.5-2.2-3.4c-0.4-0.4-0.7-0.8-1.1-1.2c-0.6-0.8-1.2-1.6-1.8-2.5
	c-0.4-0.6-0.9-1.2-1.3-1.8c-0.6-0.9-1-1.9-1.4-3c-0.8-2.3-1.8-4.9-4.1-5.5l-0.6-0.1l-0.4-0.1c-0.1-0.2-0.1-0.4-0.1-0.6
	c0-0.3,0.1-0.7,0.3-1c0.2-0.5,0.3-1,0.4-1.5c0.1-0.7-0.1-1.3-0.6-1.9c-0.1-0.2-0.2-0.3-0.3-0.5c-0.2-0.4-0.2-0.8-0.2-1.1
	c0-0.1,0-0.2,0-0.3h86.2L206.6,211.3z M206.6,22.4v108.4L116.2,22.5L206.6,22.4z M205.6,132.1H23.2l91.4-109.3L205.6,132.1z
	 M62.5,46.8l0.5,0.6c0.2,0.2,0.2,0.4,0,0.6c0,0,0,0-0.1,0.1l-13.5,12c-0.1,0.1-0.2,0.1-0.2,0.2L49,60.4l-0.1,0.1L33.4,74.3
	c-0.1,0.1-0.2,0.1-0.3,0.1s-0.2,0-0.3-0.1l0,0l-0.5-0.6c-0.2-0.2-0.2-0.5,0-0.6l1.1-1l14.2-12.6l14.3-12.7c0.1-0.1,0.2-0.1,0.3-0.1
	C62.3,46.6,62.4,46.7,62.5,46.8z M62.4,46.1c0.8-0.4,1.6-0.7,2.5-0.9c-0.3,0.9-0.7,1.7-1.2,2.4c0-0.2-0.1-0.5-0.2-0.6L63,46.4
	C62.8,46.3,62.6,46.2,62.4,46.1z M50.1,60.6l14.2,12.9c0.2,0.2,0.2,0.4,0,0.6L64,74.4l-0.2,0.2c-0.1,0.1-0.2,0.1-0.3,0.1l0,0
	c-0.1,0-0.2,0-0.3-0.1L54.8,67L49,61.8c-0.2-0.2-0.2-0.4,0-0.6l0,0l0.2-0.3l0.1-0.1l0.2-0.2c0-0.1,0.1-0.1,0.2-0.1
	c0.1,0,0.1,0,0.2,0C49.9,60.5,50,60.5,50.1,60.6z M47.3,58.8L47.2,59l-0.3,0.4c-0.1,0.1-0.2,0.1-0.3,0.2c-0.1,0-0.2,0-0.3-0.1
	l-5.1-4.6l-2-1.9L38,52l-4.2-3.8c-0.2-0.2-0.2-0.4,0-0.6l0.5-0.6c0.1-0.1,0.2-0.1,0.3-0.1s0.2,0,0.3,0.1l4.1,3.7l1.2,1.1l1.5,1.4
	l4.1,3.7l1.5,1.4C47.5,58.4,47.5,58.6,47.3,58.8z M38.8,53.4l2.1,1.9l5,4.5c0.1,0.1,0.2,0.2,0.3,0.2L33.6,71.1l-1.7,1.5
	c-0.2,0.2-0.3,0.4-0.3,0.7c0,0.3,0.1,0.5,0.2,0.7l0.5,0.6c0.1,0.1,0.2,0.2,0.3,0.2c0.1,0.1,0.3,0.1,0.4,0.1c0.2,0,0.5-0.1,0.6-0.2
	l14.6-13c0,0.2,0.1,0.4,0.3,0.5l5,4.5l9.2,8.4c0.2,0.2,0.4,0.3,0.6,0.2c0.2,0,0.5-0.1,0.7-0.3h0.1l0.2-0.2l0.3-0.4
	c0.3-0.4,0.3-1-0.1-1.4l-14-12.8c-0.1-0.1-0.2-0.1-0.3-0.2l12.6-11.2c-0.8,1.1-0.5,1.7,0.9,3.2c0.8,1,1.5,1.4,2,1.4
	c0.2,0,0.4-0.1,0.5-0.2c6.9-6.3,4.6-11.7,4.2-12.7c0-0.1-0.1-0.1-0.1-0.2c-0.1-0.1-0.1-0.1-0.2-0.2c-1.3-0.8-2.8-1.2-4.3-1.2
	c-2.9,0-5.8,1.3-8.7,3.8c-0.1,0.1-0.2,0.3-0.3,0.5c-0.1,0.5,0.3,1.2,1.2,2.2s1.5,1.6,2.2,1.6c0.3,0,0.5-0.1,0.7-0.2L48,58.4
	c0-0.2-0.1-0.4-0.3-0.6l-2-1.8l-3.8-3.4l-1.3-1.2c0.4-0.5,0.8-0.9,1.3-1.3c0.6-0.4,1.8-1.5,2.5-1.2c0.6,0.4,1.1,0.9,1.3,1.6
	c0.3,1.1,0.1,3.1,0.8,4c1.2,1.5,1.8-2.5,1.9-3.2c0.1-1.5,0-3.1,0.1-4.6s0.4-3,0.8-4.5c0.2-1.3,0.6-2.6,1.1-3.8
	c0.7-1.3,1.6-2.4,2.8-3.3c1-1,1.7-2.2,2.3-3.5c0.6-1,2.1-2,3.3-1.2s-0.7,2.4-1.3,3.2c-0.8,1.2-1.5,2.5-1.9,3.8
	c-0.5,1.7-1,3.3-1.7,4.9c-0.3,0.6-0.6,1.2-0.9,1.9c-0.2,0.7,0,1.5,0.5,2.1c0.9,0.6,0.8-1.2,0.9-1.7c0.1-0.7,0.4-1.3,0.8-1.8
	c0.5-0.4,0.8-0.9,0.9-1.5c0.1-0.8-0.3-1.3-0.2-2.1c0.2-0.6,0.6-1.2,1-1.7c0.5-0.8,0.7-3.6,2-3.5c0.3,1.4-0.5,3.9,0.9,4.5
	c0.8-0.8,0.3-2.8,0.5-4c0.1-0.7,0.5-1,0.7-1.7s-0.2-1.8,0.7-1.6c0,0.6,0.1,1.2,0.4,1.8c0.2,0.2,0.4,0.2,0.6,0.4s0.1,0.8,0.3,0.9
	c0.6,0.5,0.9-0.4,1.2,0.7c0.1,0.7,0.2,1.3,0.3,2c0.1,0.4,0,1.4,0.6,1.6s0.9-1.2,1.2-1.7c0.4-0.5,0.7-0.9,1.2-1.3
	c0.4-0.5,0.8-0.8,1.2,0.2c0.2,0.6,0,1.2,0.4,1.8s1,0.8,1.4,1.3s0.7,1,0.9,1.6c0.4,0.5,0.6,1,0.7,1.6c0,0.8-0.1,1.7-0.3,2.5
	c-0.1,0.7,0,1.4-0.1,2.2c-0.2,1.6-1.5,2.5-1.7,4c-0.3,2.2-0.3,4.3-0.1,6.5c0.2,1.6,0.2,3.3,0.1,4.9c-0.1,1.4,0,2.9,0.3,4.3
	c0.2,0.5,0.6,0.7,1,1.1s0.4,0.7,0.8,1c0.1-1.4,0.6-2.3-0.1-3.6s-0.5-2.8-0.4-4.2c0-1.5-0.1-3-0.2-4.4c-0.1-1.5,0.7-2.6,0.8-4
	c0.1-1-0.4-2.7,0.1-3.6c0.8-1.5,1.9,1,1.9,1.8c0,2.5-0.8,6.6,1.3,8.4c0.4-0.6,0.1-1.3,0-1.9c-0.1-0.9-0.2-1.9-0.1-2.8
	c0.1-1.4,0-2.7-0.2-4.1c-0.2-0.6-0.7-3.8,0.4-2c0.3,0.7,0.5,1.3,0.7,2c0.3,0.8,0.8,1.4,1,2.2c0.6,2.2,0.8,4.4,0.7,6.6
	c0,1.9,0.4,3.2-0.4,5l-5.2,6.1c-1,1.2-2.1,2.4-3.1,3.6c-0.2,0.4-0.6,1.3-1,1.3c-0.7,0-0.7-1-0.7-1.5s0-0.9,0.1-1.4
	c0.1-1.4,0.4-2.9,0.5-4.3c0.2-1.6-1.3-2.3-1.5-3.6c0-0.7-0.1-1.5-0.2-2.2c-0.2-0.6-0.3-1.2-0.4-1.8c0-1.4-0.9-2.3-0.8-3.9
	c0.1-1,0.2-2.9-0.9-3.5c-0.8-0.4-1,0.1-1,0.9c0,0.7,0.3,1.4,0.8,1.9c0.4,0.6,0.6,1.3,0.6,2c-0.1,0.7,0,1.4,0.2,2.1
	c0.4,1.3,0.5,2.7,0.4,4c-0.1,0.6,0,1.3,0.4,1.8c0.3,0.4,1,0.9,1.1,1.4c0.4,1.2-0.3,2.8-0.4,3.9s0,2.5-0.1,3.7
	c-0.1-0.1-0.3-0.1-0.4-0.2c-0.2,0.5-0.7,0.7-1.2,0.7c-0.1,0.4-0.5,2-2.9,3c-2.7,1.2-12.4-0.1-12.4-0.1s-0.7-7.4-4.3-7.7
	S41,77.6,41,77.6c-0.9,1.1-3.7,0.7-4.8-0.1s-3.4-0.8-3.8-1.1c-0.1,0-0.3,0-0.4,0c-1,0.2-2-0.1-2.9-0.7c-0.9-0.9-0.5-2.6-0.2-3.7
	c0.7-2.6,1.7-5.1,3.2-7.4c0.8-1.3,1.6-2.5,2.4-3.7c0.8-1.4,1.5-2.8,2.1-4.3C37.1,55.6,37.9,54.4,38.8,53.4z M22.6,22.4h90.3
	L83.4,57.7c-0.4-0.7-0.7-1.4-1-2.1c-0.2-0.4-0.3-0.8-0.4-1.2c-0.2-0.7-0.5-1.4-0.8-2.1c-0.2-0.3-0.4-0.7-0.7-1
	c-0.4-0.6-0.8-1.2-1.1-1.8L79.2,49c-0.4-1.2-1.1-2.3-2-3.2c-0.3-0.3-0.7-0.5-1-0.7c-0.6-0.3-1.1-0.7-1.6-1.1
	c-0.4-0.6-0.7-1.4-0.8-2.1c-0.1-0.4-0.2-0.7-0.3-1.1l-0.1-0.4c-0.7-2.2-1.6-5-3.4-6.5c-0.5-0.4-1-0.7-1.6-1c-0.3-0.2-0.7-0.3-1-0.5
	c-0.4-0.3-0.9-0.6-1.2-1c-0.3-0.3-0.7-0.6-1.1-0.9c-1.9-1.3-4.1-2.1-6.4-2.3c-0.4,0-0.8,0-1.2,0.2c-1.8,0.5-2.9,2.1-3.9,3.5
	c-0.3,0.4-0.5,0.8-0.8,1.1c-0.4,0.4-0.7,0.8-1.2,1.1c-0.5,0.4-0.9,0.8-1.2,1.2c-0.6,0.9-1.1,1.9-1.4,2.9l-0.3,0.9
	c-0.8,2.3-2.2,4.4-4,6c-1.9,1.5-3.6,3.2-5.2,5l-4.1-3.7c-0.2-0.2-0.4-0.2-0.6-0.2c-0.1,0-0.2,0-0.2,0c1.3-1.4,4.8-4.9,8.1-5.7
	c0.2,0,0.4-0.2,0.4-0.4l0.1-0.4v-0.1c0-0.3-0.2-0.5-0.5-0.5l0,0l0,0c-3.6,0.4-7,1.9-9.6,4.5C32.9,43.2,32.4,43,32,43
	c-0.5,0-1,0.3-1.3,0.7c-0.5,0.4-0.7,1-0.5,1.6c0.1,0.4,0.4,0.6,0.8,0.8c-2.3,2.8-3.5,6.4-3.6,10c0,0.2,0.1,0.3,0.2,0.4
	c0.1,0.1,0.2,0.1,0.3,0.1H28l0.4-0.1c0.2,0,0.4-0.2,0.4-0.4c0.4-3.1,3.3-6.8,4.7-8.3c0,0.3,0.1,0.6,0.3,0.9l4.2,3.8
	c-2.9,4.1-5.6,8.4-7.9,12.9c-1.3,2.2-2.4,4.6-3.2,7c-0.8,2.5,0.1,4.2,2.9,5.4c1,0.4,2.1,0.6,3.1,0.7c1,0.1,1.9,0.4,2.8,0.9
	c1.3,0.6,2.8,1,4.3,1c1.3,0,2.6-0.2,3.9-0.6l0.8-0.2c1-0.4,2.1-0.6,3.2-0.8c0.1,0,0.2,0,0.3,0c0.1,0.1,0.1,0.3,0.2,0.4
	c0.1,0.5,0.4,0.8,0.9,0.9c0.3,0.1,0.6,0.1,0.9,0.1h0.6c0.4,0,0.8,0,1.1,0c1.5,0.2,3,0.3,4.5,0.3l0,0h1.3c1.6-0.1,3.2-0.3,4.8-0.7
	l1.4-0.3c0.3,0,0.7,0,1,0h0.8l-42.8,51.1L22.6,22.4z M22.6,133.7h91.2v98.8c-1.4-1.8-4.4-4.8-8.7-4.8H38.7
	c-2.7,0-16.2-0.8-16.2-16.5L22.6,133.7z"/>
<path class="st0" d="M63.9,69c-0.1-0.2-0.4-0.4-0.5-0.6c-0.2-0.4-0.1-0.6-0.4-0.9s-1.1-0.7-1.6-1.1c-0.5-0.5-0.9-1.1-1-1.8
	c-0.2-0.6-0.6-1.1-0.8-1.7c-0.4-1.4,0.4-2.9,0.1-4.3s-1.7-1.1-2.1-2.1c-0.2-0.4,0.2-1.3-0.3-1.5c-0.2-0.1-0.9,0.5-1.1,0.7
	c-0.3,0.4-0.5,0.9-0.7,1.3c-0.2,0.4-0.7,0.7-1,1c-0.5,1-0.7,2-0.8,3c0.6,0.1,1.5-0.3,2,0c0.8,0.4,0.1,1.4,0.6,1.9s1.1,0.1,1.6,0.5
	c0.5,0.6,0.8,1.2,1,1.9c0.3,0.7,0.5,1.4,0.7,2.2c0.3,0.9,0.5,0.9,1.3,1.3c0.7,0.3,1.2,0.8,1.5,1.6c0.3,0.7,0.8,0.6,1.2,1.2
	c0.5,0.5,0.1,1.1,1.1,1.1h0.1c-0.2-0.6-0.4-1.1-0.6-1.7S64.1,69.5,63.9,69z"/>
<path class="st0" d="M199.5,32.5h-0.1c0-0.2-0.1-0.3-0.1-0.5c0-0.1,0-0.3,0-0.4c-0.1-0.3-0.1-0.5-0.2-0.7c-0.2-0.3-0.2-0.7-0.3-1
	c0-0.1-0.1-0.2-0.2-0.3c-0.4,0-0.7,0.1-0.9,0.5c-0.1,0.1-0.2,0.3-0.4,0.3l0,0c-0.1,0-0.4-0.6-0.4-0.9c-0.1-0.2-0.1-0.4-0.2-0.5
	c-0.4-0.6-0.7-0.9-1.1-0.9s-0.7,0.3-1.1,0.7c-0.2,0.2-0.4,0.4-0.6,0.5c-0.7-0.9-1.7-1.5-2.9-1.6c-0.2,0-0.4,0-0.6,0.1
	c-0.4,0.3-0.7,0.7-0.9,1.1c-0.4,0.7-0.7,1-1.3,0.6c-0.2-0.1-0.3-0.3-0.5-0.4c-0.3-0.5-0.9-0.7-1.4-0.7c-0.5,0.1-0.9,0.3-1.1,0.7
	c-0.1,0.2-0.3,0.3-0.4,0.4c-0.1,0.1-0.3,0.2-0.5,0.3c-0.1,0-0.2-0.1-0.3-0.1c-0.2-0.1-0.5-0.2-0.8-0.3c-0.5-0.1-1,0.2-1.2,0.6
	c-0.1,0.2-0.3,0.4-0.6,0.5c-0.2,0.1-0.5,0.1-0.8,0c-0.1-0.1-0.3-0.1-0.4-0.1l-0.4-0.1c-0.3,0-0.5-0.1-0.7-0.2
	c-0.1-0.1-0.2-0.2-0.3-0.4c-0.1-0.2-0.3-0.6-1.1-0.4c-0.5,0.2-1,0.5-1.2,1c-0.3,0.4-0.5,0.8-1,0.8l0,0c-0.3,0-0.6-0.3-0.8-0.6
	c-0.3-0.5-0.8-0.7-1.4-0.7c-0.4,0.1-0.7,0.3-0.9,0.6c-0.1,0.2-0.3,0.3-0.4,0.4c-0.3,0.1-0.7,0-1.1-0.3c-0.1-0.1-0.2-0.1-0.3-0.2
	s-0.3-0.2-0.5-0.3c-0.4-0.3-0.9-0.5-1.4-0.6l0,0c-0.5,0-1,0.4-1.2,0.9c-0.1,0.2-0.2,0.3-0.3,0.5c-0.2,0.3-0.6,0.4-0.9,0.4
	c-0.3,0-0.5,0-0.8-0.1s-0.6-0.1-0.8-0.1c-0.5,0-0.9,0.2-1.2,0.6c-0.2,0.4-0.4,0.8-0.4,1.2c-0.1,0.6-0.2,0.7-0.4,0.7
	c-0.3,0-0.5-0.1-0.7-0.2c-0.1-0.1-0.2-0.1-0.3-0.2c-0.2-0.2-0.4-0.3-0.7-0.3s-0.5,0.2-0.7,0.4s-0.3,0.5-0.4,0.7
	c-0.1,0.3-0.2,0.5-0.5,0.6c-0.5,0.1-0.9,0-1.4-0.2s-1-0.3-1.3,0c-0.3,0.4-0.4,0.8-0.3,1.3c0,0.2,0,0.4,0.1,0.6
	c0.1,0.4,0.1,0.8,0,1.2c-0.1,0.2-0.3,0.2-0.7,0.2h-0.4c-0.2,0-0.3,0-0.5,0c-0.1,0-0.2,0.1-0.2,0.2c0,0.5,0.1,1,0.3,1.4
	c0.2,0.3,0.2,0.6,0.3,0.9c0,0.3-0.2,0.4-0.5,0.7c-0.4,0.2-0.6,0.6-0.6,1s0.2,0.7,0.5,0.8c0.2,0.1,0.3,0.2,0.1,0.7
	c0,0.1-0.1,0.2-0.2,0.3c-0.2,0.3-0.3,0.6-0.2,0.9c0.2,0.3,0.4,0.6,0.7,0.8s0.5,0.5,0.7,0.8c0,0,0,0.1,0.1,0.1s5.1,4,7.3,9H163
	c-0.6,0-1.1,0.4-1.3,1c-0.7,0.6-0.8,1.6-0.2,2.3l0,0c0.1,0.2,0.3,0.3,0.5,0.4c0.1,0,0.4,0.1,1,0.3c-0.4,1.3-0.8,2.6-1.3,3.8
	c-0.4,1.4-1.1,2.7-1.9,3.9c-0.1,0.1-0.3,0.3-0.4,0.4c-0.4,0.3-0.8,0.6-0.7,1.1s0.4,0.7,0.7,0.9s0.4,0.3,0.5,0.5c0,0.2,0,0.5-0.2,0.7
	c-0.2,0.3-0.3,0.7-0.2,1c0.1,0.4,0.6,0.7,1,0.9c0.2,0.1,0.3,0.2,0.4,0.3c0.1,0.1,0.2,0.2,0.3,0.3c0.3,0.4,0.8,0.6,1.2,0.7
	c0.2,0,0.4,0,0.6,0h0.1c0.1,0.1,0.2,0.2,0.3,0.4c0.1,0.2,0.3,0.5,0.4,0.7c0.3,0.9,1.1,1.5,2,1.4c0,0.1,0,0.2,0,0.3
	c-0.1,0.4,0,0.9,0.1,1.3c0.3,0.5,0.8,0.9,1.4,1.1c0.2,0.1,0.4,0.2,0.5,0.3c0.2,0.1,0.3,0.2,0.4,0.3c0.3,0.3,0.6,0.5,1,0.6
	c0.2,0,0.5,0,0.7,0c0.3-0.1,0.5,0,0.8,0.1c0,0.1,0.1,0.2,0.1,0.3c0,0.2,0.1,0.4,0.2,0.5c0.2,0.4,0.4,0.5,0.6,0.5
	c0.1,0,0.2,0.1,0.3,0.1c0.4,0.2,0.4,0.3,0.3,0.6c-0.1,0.2-0.2,0.4-0.2,0.7c0,1,0.8,1.2,1.4,1.4h0.1c0.5,0.2,1,0.1,1.4-0.2
	c0.1-0.1,0.3-0.2,0.4-0.3c0.5-0.3,0.6-0.3,1.1,0.2c0.1,0.1,0.2,0.2,0.4,0.4c0.2,0.3,0.5,0.4,0.9,0.4c0.1,0,0.3,0,0.4-0.1
	c0.1-0.1,0.3-0.1,0.5-0.1c0.2,0.1,0.4,0.2,0.6,0.3c0.3,0.3,0.7,0.4,1.2,0.5h0.1c0.5,0,1-0.1,1.4-0.2c0.3,0,0.6-0.1,0.9-0.1
	c0.5-0.1,1.1-0.2,1.6-0.3l0.4-0.1c0.3-0.1,0.6,0,0.8,0.2c0.3,0.2,0.6,0.4,0.9,0.4c0.2,0,0.4-0.1,0.5-0.2s0.2-0.1,0.4-0.2
	c0.3,0,0.5,0.1,0.7,0.3c0.2,0.1,0.3,0.2,0.4,0.3c0.4,0.3,0.9,0.5,1.4,0.5h0.2c0.9-0.1,1.6-0.7,1.9-1.5h0.9c0.4,0,0.7,0,1.1-0.1
	c0.4-0.1,0.7-0.6,0.7-1c0-0.2,0.1-0.4,0.2-0.6c0.2-0.1,0.3-0.3,0.5-0.3c0.3-0.1,0.6-0.3,0.9-0.6c0.4-0.6,0.6-1.3,0.5-2
	c-0.1-0.3-0.2-0.5-0.5-0.6c-1-3.1-2.1-6.8-3.2-10.3c0.2-0.3,0.4-0.6,0.4-0.9c0-0.5-0.2-1-0.5-1.3c-0.2-0.2-0.5-0.4-0.7-0.6
	c-0.6-2.2-1.2-4-1.6-5.5l0.9-0.2c0.3-0.1,0.5-0.3,0.6-0.5c0.4-0.7,0.5-1.5,0.3-2.2c-0.1-0.2-0.3-0.4-0.5-0.5c0-0.6-0.5-1.2-1.1-1.2
	l0,0h-0.2c1.1-3.1,2.6-6,4.4-8.8c0.8-1.3,1.6-2.7,2.3-4l0.2-0.3c0.8-1.5,1.6-3,2.5-4.4c0.1-0.2,0.2-0.3,0.3-0.5
	c0.3-0.4,0.5-0.8,0.7-1.2c0.2-1.5-0.2-3.1-1-4.3C199.9,32.6,199.7,32.5,199.5,32.5z M162.3,58.1c-0.6-0.9,0.2-0.8,0.3-1.3
	c0-0.2,0.2-0.3,0.3-0.3s0.2,0,0.2,0.1l0.4,0.1c1.4,0.2,2.7,0.4,4,0.5c0.1,0.3,0.2,0.5,0.3,0.8c0.1,0.2,0.3,0.3,0.5,0.3h0.1
	c0.2-0.1,0.4-0.2,0.4-0.5v-0.5c3.9,0.4,7.8,0.6,11.6,0.6h1.2c-0.1,0.5-0.2,1-0.4,1.4c-1,0-2,0-3-0.1c-1.5-0.2-3.1-0.3-4.6-0.3
	s-3.1-0.1-4.6,0l4.6,0.4c1.6,0.1,3.1,0.3,4.6,0.4c0.9,0.1,1.9,0.1,2.8,0.1c-0.1,0.1-0.1,0.3-0.2,0.4l-0.3,0.5
	c-0.1,0.1-0.1,0.3,0,0.5c-5.9-0.1-11.7-1-17.3-2.7L162.3,58.1z M168.9,56.1c0.3-3.6,3.5-6.2,7.1-5.8c3.3,0.3,5.8,3.1,5.9,6.4
	C177.5,56.8,173.2,56.6,168.9,56.1L168.9,56.1z M193.8,80.3c-0.1,1-0.9,3.6-2.1,2.2s-0.9-4.3-1.1-6c-0.3-1.8-0.7-3.6-1.4-5.3
	c-0.6-1.2-1.1-1.1-0.9,0.2c0.3,2.1,0.9,4.2,1.5,6.2c0.3,1.1,0.5,2.2,0.7,3.3c0.1,0.8,0.5,1.8,0.1,2.6c-0.4,0.5-1.1,0.7-1.7,0.6
	c-0.5-0.2-0.6-1.3-0.7-1.7c-0.5-2.1-0.9-4.2-1.1-6.3c-0.2-1.4-0.3-2.8-0.5-4.3c-0.2-1.2-0.4-3.7-1.3-4.5c0,0.3-0.1,0.5-0.1,0.8
	c0,1.9,0.4,3.7,0.9,5.5c0.5,2.3,0.2,4.9,0.4,7.3c0.1,0.7,0.4,1.9-0.4,2.2c-0.9,0.5-1.2-0.4-1.3-1c-0.1-1-0.1-2.1-0.2-3.1
	c-0.2-1.8,0-4-0.5-5.8c-1,2.2-0.4,5.1-0.2,7.5c0,0.8,0.5,2.6-0.5,3.1c-1.1,0.5-1.5-0.7-1.8-1.3c-0.5,0.5-0.8,1.4-1.6,1
	s-0.4-1.4-0.4-2.2c-0.1-1.2-0.1-2.5-0.2-3.8s0.3-3.2-0.3-4.4c-1.2,0.6-0.2-1.3-1.2-1.2c-0.1-0.3-0.2-0.3-0.4-0.5
	c-0.5,1.1-0.8,2.3-1,3.5c-0.5,1.5-0.9,3.1-1.2,4.6c0,0.7,0.2,1.7-0.2,2.3s-1.2,0.3-1.6-0.3c-0.2-0.3-0.1-2.2-0.4-2.2
	c-0.6,0.1,0,1.4-1.1,1.1c0-1.3-0.1-2.4,0-3.8c0-0.8,0.8-3.5,0.1-4c-1.2-0.9-2.6,3.9-2.8,4.6c-0.5-0.4-1.3-0.2-1.8-0.7
	c-0.4-0.4-0.5-1-0.4-1.6c0.2-0.8,0.4-1.5,0.8-2.2c0.4-1.1,0.8-2.2,1.2-3.3c0.5-1.5,0.6-2.3,1.1-3.8c0.1-0.2,1.9-3.9,0.6-3.5
	c-0.4,0.1-0.8,1.7-1,2c-0.5,1-0.9,2.2-1.4,3.2s-1.1,2.3-1.6,3.5c-0.4,1-0.5,2.2-0.9,3.2c-0.7-0.3-1.9-0.4-1.9-1.5
	c0-0.8,0.8-1.6,1.2-2.3c0.6-1.1,1.1-2.2,1.5-3.4c0.4-1.1,0.7-2.2,1-3.3c0.2-0.7,0.6-0.9,0.2-1.7c-1.1,0.7-1.2,2.7-1.8,3.8
	c-0.8,1.5-1.8,3-2.5,4.5c-0.2,0.5-0.3,1.5-0.8,1.8c-0.5,0.2-1.1-0.1-1.4-0.6c-0.4-1.1,1.4-1.7,1.2-2.8c-0.5,0.3-2.1,1.6-2,0.1
	c0.1-1,1.4-1.2,1.8-1.9c0.2-0.5,0.1-0.9,0.2-1.4c0.2-0.5,0.5-0.9,0.8-1.3c0.5-1.1,0-4.1,1.2-3.9s2.2,0.5,3.3,0.6
	c4.3,0.8,8.7,1.3,13.1,1.4h0.5l1.8,1.5c-0.1,0.3-0.1,0.6,0,0.8c0.2,0.8,1.3,1.2,2.3,1.5c0.9,0.6,1.7,1.3,2.4,2.2
	c0.7,0.8,1.4,1.5,2.3,2.2c0.2,0.1,0.4,0.2,0.6,0.2c0.5,1.5,1,3,1.6,4.5S194,78.7,193.8,80.3L193.8,80.3z M192.5,67.4L192.5,67.4
	c0.4,0.3,0.5,0.8,0.4,1.3c-0.1,0.2-0.3,0.5-0.5,0.6c0,0-0.3,0.8-1,0.8c-0.2,0-0.3,0-0.5-0.1l-0.2-0.1c-1.3-0.8-3.5-4-4.8-4.4
	c-1-0.3-2.1-0.8-1.9-1.5c0-0.1,0-0.2,0.1-0.2c0-0.1,0.1-0.2,0.1-0.2l0,0l0.4-0.4l0,0l0.3-0.5l0,0c0.1-0.1,0.1-0.1,0.2-0.2
	c0.1-0.1,0.1-0.1,0.2-0.2c0.1-0.1,0.2-0.1,0.3-0.1c0.6,0,1.2,0.8,1.6,1.6c0.8,0.9,1.8,1.5,2.9,2C190.9,66.3,191.7,66.8,192.5,67.4
	L192.5,67.4z M186.5,62c1.7-0.1,2.6-0.3,2.6-0.3c0.2,1.1,0.4,2.3,0.8,3.4c-0.8-0.4-1.6-0.9-2.2-1.6C187.4,63,186.9,62.4,186.5,62
	L186.5,62z M190.8,57.4c0.3,0-0.1,0.9,0.5,1s-0.1,1.4-0.1,1.4l-0.9,0.2c-2.1,0.5-4.3,0.8-6.4,1l-0.6-0.6l0.1-0.2
	c0.1-0.2,0.2-0.4,0.3-0.5c1.3-0.1,2.6-0.2,3.8-0.5l-2.3,0.1h-1.4c0.2-0.5,0.4-1,0.5-1.5c2.9-0.1,5-0.3,5.9-0.4H190.8z M199,36.7
	c-0.2,0.7-0.6,1.3-1,1.9c-1.5,2.4-2.6,5.1-3.9,7.6c-1.2,2.3-2.5,4.5-3.7,6.7c-0.6,1.1-1,3-2.3,3.5c0,0-1.4,0.1-3.6,0.2
	c0-0.3,0-0.6,0-0.8c0.2-4.8-3.6-8.8-8.4-9c-4.8-0.2-8.8,3.6-9,8.4c0,0.2,0,0.4,0,0.6v0.1c-0.6-0.1-1.2-0.2-1.8-0.3
	c-1.4-0.3-2.2-3.1-2.7-4.3c-0.7-1.3-1.6-2.4-2.7-3.3c-1-1.1-1.9-2.3-2.8-3.5c-1-1.3-1-1.8-0.3-3.3c1.2,1,2.1,2.1,2.9,3.4
	c0.4,0.6,0.7,1.6,1.2,2c1,0.6,0.8-0.4,0.6-1.1c-0.4-1.3-1.1-2.6-1.6-3.8s-1.9-2.4-1.4-3.9c0.2-0.6,0.5-1.1,0.8-1.6
	c0.5-0.6,0.9-1,1.4-0.6c1.3,1,1.3,3.3,2,4.7s0.6,2.8,1.1,4.2c0.6,1.6,1.3,2.9,1.9,4.5c0.2,0.8,1.5,4,1.6,1.5
	c0.1-1.5-0.9-2.6-1.1-4.1c-0.3-1.5-0.8-3-1.3-4.5c-0.3-1.4-0.7-2.8-1.2-4.2c-0.6-1.2-1.2-2.1,0-3.1c0.8-0.7,1.8-1,2.4-2
	c1,0.7,1.1,2.2,1.9,3.2c1.5,1.8,0.3-2,0.6-2.5c0.8-1.5,1,1,2,0.6c0.6-0.2,0.5-1,1.2-1s0.6,0.5,1.2,0.8c0,1,1,1.9,0.4,2.9
	c-0.3-0.3-0.3-0.6-0.6-0.7c-0.1,1.9,0,3.8,0.3,5.6c0.2,1.1,0.5,2.1,0.8,3.2c0.2,0.7,0.4,1.9,1,2.4c0.8-0.3,0.4-3.2,0.4-3.9
	c-0.1-1.5-0.4-2.9-0.6-4.4c-0.1-1-0.1-2,0.1-3c0.1-1-0.5-1.9-0.2-2.8c1-0.1,1,0.8,1.7-0.3c0.5-0.7,0.6-1.1,1.4-0.4
	c0.6,0.5,0.4,1,1.4,0.7s1.1-0.8,1.2,0.5c0.2,2.6-0.3,5.3-0.2,7.9c0,1.7,0.1,3.4,0.4,5.1c0.5-0.8,0.3-2.2,0.4-3.2
	c0.1-1.3,0.2-2.6,0.1-3.8c-0.2-1.9-0.2-3.8,0.1-5.6c0.2-0.9,0.4-2.7,1.6-1.8c0.2,0.2,0.4,0.6,0.6,0.7c0.5,0.2,0.2,0,0.7,0
	s0.2-0.4,0.6,0s0.1,2.3,0.1,2.8c-0.1,1.3-0.3,2.6-0.3,4c-0.2,1.7-0.3,3.4-0.2,5.1c0.7-0.2,0.6-2,0.8-2.6c0.2-1,0.4-1.9,0.6-2.8
	c0.3-1.8,0.6-3.6,0.7-5.4c0.1-1,0.6-3.6,1.7-1.9c1,1.6,0.4,4.2,0.2,6c-0.1,1.5-0.5,3-0.7,4.5c-0.1,0.9-0.7,2.2-0.5,3.2
	c0.6-0.1,0.9-2.8,1.1-3.6c0.3-1,0.6-1.9,0.8-2.8c0.2-1.6,0.4-3.2,0.8-4.7c0.3-0.8,1.1-3.2,1.9-3.4c2.4-0.6,1.3,3,1,4.1
	c-0.4,2.1-0.8,4.2-1.4,6.2c-0.4,1.3-1.3,2.9-1.2,4.3c0.7-0.5,1.3-3.2,1.6-4c0.5-1.4,0.7-2.8,1.1-4.2s0.7-4.7,2.4-5.3
	c0.5,0.9-0.1,2.6-0.2,3.6c-0.2,1.7-1.2,3.4-1,5.2c1-0.5,1.1-2.4,1.4-3.4c0.2-0.9,0.5-1.8,0.9-2.6c0.3-0.5,1-1.8,1.6-1.4
	c0.3,0.2,0.6,1.5,1,1.9s0.5,0,0.7,0.6C199.2,36,199.1,36.4,199,36.7z"/>
<path class="st0" d="M82.7,92c0.3,2.1,0.3,4.3,0.2,6.4c0,0.7-0.1,1.3-0.3,1.9c-0.1,0.4-0.2,0.9-0.2,1.3c-0.1,0.8-0.4,2.8,0.9,3.7
	c1.5,1,3.1,1.9,4.8,2.6c0,0.5,0,1-0.1,1.4c-0.2,1.5-0.1,3.1,0.2,4.6l0,0c0.3,0.7,0.4,1.6,0.3,2.4l-0.3,0.4c-0.4,0.6-0.9,1.3-0.7,2
	c0.1,0.2,0.2,0.3,0.3,0.5c0,0.2,0.1,0.4,0.2,0.5c-0.1,0.1-0.2,0.3-0.2,0.5c-0.1,0.4,0,0.9,0.3,1.2l0,0c0,0.2,0,0.5,0,0.7
	s-0.1,0.4-0.2,0.5c-0.3,0.7-0.3,1.5,0.2,2.1c0.3,0.4,0.6,0.8,1,1.1l0.4,0.3c0.5,0.5,1.1,1,1.8,1.4l0.6,0.4l0.3,0.2
	c0.3,0.3,0.6,0.5,1,0.6c0.2,0.1,0.5,0.1,0.7,0.1c0.3,0,0.5-0.1,0.8-0.2c0.1,0,0.2-0.1,0.3-0.1l0.4-0.1c0.4,0,0.8-0.1,1.1-0.3
	c0.1-0.1,0.3-0.1,0.4-0.1c0.3,0,0.6-0.1,0.9-0.2c0.5-0.1,0.9-0.5,1-1.1c0.1-1-0.9-1.7-1.8-2.4c-0.2-0.2-0.5-0.4-0.5-0.4
	c-0.1-0.2-0.2-0.3-0.3-0.5L96,123c-0.1-0.1-0.2-0.3-0.2-0.5c-0.2-0.5-0.5-1.1-0.8-1.5c0-0.1,0.1-0.1,0.1-0.2s0-0.3,0-0.4
	c0.1-0.1,0.1-0.2,0.2-0.3c0.1-0.3,0.1-0.7,0.1-1l0,0c0-0.1,0-0.2,0-0.3c0-0.1,0-0.3,0-0.4c0-0.4-0.1-0.8-0.2-1.2
	c0-0.1-0.1-0.3-0.1-0.4c0-0.3,0.1-0.6,0.2-0.8l0.1-0.3c0.4-1.2,0.6-2.4,0.6-3.7c0-0.1,0-0.1,0-0.2c0.1,0.1,0.1,0.2,0.1,0.3
	c0.1,0.4,0.1,0.7,0,1.1c0,0.3-0.1,0.6-0.1,0.9c0,0.7,0,1.4,0,2.2c0,0.5,0.2,1,0.5,1.3c0.2,0.2,0.5,0.4,0.8,0.4s0.6-0.1,0.8-0.3
	c0.2,0.4,0.6,0.8,1.1,0.8c0.4,0,0.8-0.2,1-0.5l0.1-0.1c0.3,0.6,0.9,1.1,1.5,1.2c0.1,0,0.2,0,0.3,0c0.1,0,0.3-0.1,0.4-0.2
	c0.2,0.2,0.5,0.4,0.8,0.5c0.2,0,0.3,0.1,0.5,0.1c0.3,0,0.6-0.1,0.9-0.3c0.2,0.2,0.5,0.4,0.7,0.4c0.3,0,0.6-0.2,0.8-0.4
	c-0.3,0.5-0.3,1.2,0.2,1.6c0.1,0.2,0.3,0.3,0.5,0.4v0.1c0,0.2-0.1,0.4-0.1,0.6c-0.2,0.9-0.1,1.9,0.2,2.8v0.1c0.4,1.1,1,2,1.9,2.7
	c0.5,0.3,1,0.7,1.5,1.1l0.7,0.6c0.3,0.3,0.8,0.5,1.3,0.5c0.2,0,0.5,0,0.7-0.1c0.5-0.1,0.9-0.4,1.1-0.8h0.3l0,0
	c0.3,0,0.6-0.2,0.7-0.4c0.2-0.8,0.2-1.7-0.2-2.5v-0.2c-0.2-0.8-0.6-1.4-1.1-2c-0.3-0.5-0.6-1-0.8-1.5v-0.1c-0.1-0.4-0.2-0.7-0.3-1.1
	c0.2-0.2,0.4-0.4,0.5-0.7c0.1-0.4,0.1-0.8-0.1-1.1l0.1-0.2c0.1-0.3,0.1-0.7-0.1-1c0.1-0.1,0.1-0.2,0.2-0.3c0.1-0.6-0.1-1.1-0.4-1.6
	c-0.1-0.1-0.2-0.2-0.2-0.4c0.1-0.2,0.2-0.4,0.4-0.6l0.3-0.4c0.4-0.6,0.7-1.3,0.8-2c0-0.2,0-0.3,0-0.5s0-0.3,0.1-0.5
	c0.2,0.1,0.4,0.1,0.7,0.2c0.5,0.3,1.1,0.4,1.7,0.4c0.1,0,0.3,0,0.4,0c1.2-0.1,2.4-0.7,3.3-1.5c1.6-1.7,2.1-4.2,1.2-6.4
	c-0.5-0.8-1.2-1.6-2-2.1c-0.4-0.2-0.8-0.4-1.2-0.5c-0.3,0-0.5-0.1-0.8-0.3l0,0c0-0.1-0.1-0.3-0.2-0.4c-0.1-0.2-0.3-0.4-0.4-0.6
	c-0.1-0.1-0.2-0.2-0.2-0.3c0-0.3,0-0.7,0.1-1s0.1-0.7,0.1-1c0-0.9,0.1-1.9,0.2-2.8c0.1-0.6,0.1-1.3,0.2-1.9s0-1.3-0.2-1.9
	c-0.1-0.2-0.1-0.4-0.2-0.6s-0.2-0.4-0.2-0.7c-0.1-0.9,0-1.7,0.2-2.5c0-0.2,0.1-0.3,0.1-0.5c0.1-0.4,0.1-0.8,0.1-1.2
	c0.1-0.6,0.1-1.3,0.3-1.9c0.1-0.4,0.3-0.9,0.5-1.3c0.2-0.6,0.4-1.2,0.6-1.8c0.1-0.4,0.1-0.9,0.2-1.3c0.1-0.6,0.2-1.3,0.4-1.9
	c0.4-1.2,0.6-2.4,0.6-3.6c-0.1-0.9-0.3-1.8-0.7-2.6l-0.2-0.5l-0.2-0.5c-0.3-0.5-0.4-1.1-0.4-1.7c0.2-0.8,0.5-1.6,0.9-2.3l0.2-0.4
	c0.1-0.2,0.3-0.5,0.5-0.7c0.6-0.6,0.9-1.4,0.8-2.2c0-0.3-0.1-0.6-0.2-0.9c-0.1-0.2-0.1-0.5-0.2-0.7c0-0.2,0-0.4,0.1-0.5
	c0.1-0.3,0.2-0.6,0.2-0.9c-0.1-0.8-0.3-1.6-0.6-2.3c-0.1-0.3-0.2-0.6-0.3-0.9l-0.1-0.4c-0.1-0.4-0.2-0.8-0.4-1.1
	c-0.1-0.2-0.3-0.5-0.5-0.7c0.4-0.9,0.7-1.8,0.9-2.8V52c0-0.2,0.1-0.4,0.1-0.6c0.1-0.8,0.2-1.2,0.7-1.5s1-0.5,1.5-0.7l1-0.4l0.2-0.1
	c0.5-0.2,1.3-0.5,1.4-1.4c0.2-1.2-0.9-1.4-1.3-1.5h-0.2c-0.1,0-0.3-0.1-0.4-0.1c-0.3-0.1-0.6-0.2-0.9-0.3c0.6-0.5,0.8-0.7,0.8-1.2
	c0-0.2-0.2-0.5-0.4-0.6c0.1-0.2,0.3-0.5,0.5-0.7c0.1-0.2,0.3-0.4,0.4-0.6c0.1-0.1,0.1-0.2,0.1-0.3c0.1-0.3,0.3-0.5,0.5-0.7
	c0.1-0.1,0.2-0.2,0.4-0.2c0.4-0.2,0.8-0.6,1.1-1c0.2-0.3,0.2-0.6,0-0.8c-0.3-0.4-0.8-0.7-1.4-0.7c-0.4-0.1-0.5-0.1-0.6-0.2
	s-0.1-0.2,0.1-0.7c0.2-0.4,0.4-0.9,0.3-1.4c0-0.4-0.3-0.7-0.7-0.7h-0.1c-0.4,0-0.9,0.1-1.3,0.3c-0.2,0.1-0.4,0.1-0.6,0.2h-0.1
	c-0.2-0.2-0.4-0.3-0.7-0.5c-0.7-0.6-1-0.9-1.5-0.9c-0.1,0-0.3,0-0.4,0.1c-0.3,0.2-0.5,0.5-0.6,0.8c-0.1,0.8,0.7,1.6,1.7,2.5l0.2,0.2
	l0.2,0.2c0.6,0.7,0.8,1.1,0.7,1.7c0,0.4-0.2,0.7-0.3,1.1l-0.1-0.1c-0.2-0.3-0.5-0.4-0.9-0.5c-0.3,0-0.9,0.2-1,1.2
	c0,0.4,0.1,0.9,0.3,1.2c0.1,0.1,0.1,0.3,0.2,0.3c0.1,0.2,0.1,0.5,0,0.8c-0.1,0-0.1,0-0.2,0c-0.3-0.1-0.6-0.3-0.9-0.4
	c-0.6-0.4-1.3-0.7-2-0.7c-0.3,0-0.7,0-1.1,0c-0.8,0-1.7,0.1-2.4,0.4c-0.3,0.1-0.5,0.2-0.8,0.4L111,44c0-0.1,0.1-0.5,0.2-0.7
	c0.3-1.3,0.6-2.2-0.1-2.7c-0.2-0.1-0.4-0.2-0.6-0.2c-0.3,0-0.6,0.1-0.8,0.3c-0.1-0.1-0.2-0.3-0.3-0.5c-0.3-0.8-0.1-1.1,0.7-1.9
	l0.1-0.1c0.8-0.7,1.3-1.6,1.5-2.7c0-0.2-0.1-0.4-0.2-0.6l0,0c0-0.1-0.1-0.3-0.2-0.3l-0.1-0.1c-0.1-0.1-0.3-0.2-0.5-0.2l0,0
	c-0.2,0-0.4,0.1-0.5,0.2l-0.3,0.3c-0.3,0.4-0.8,0.9-1.1,0.9c-0.1-0.1-0.3-0.1-0.4-0.2c-0.4-0.2-0.8-0.4-1.2-0.4
	c-0.5,0-0.9,0.4-1,0.9c0,0.5,0.1,0.9,0.3,1.3l0.1,0.3v0.1c0.1,0.2,0.1,0.4,0.1,0.6c0,0.1-0.3,0.2-0.7,0.3c-0.4,0.1-0.7,0.2-1,0.4
	c-0.2,0.1-0.3,0.4-0.3,0.7c0,0.8,0.6,1.4,1.3,1.6c0.2,0.1,0.3,0.1,0.4,0.2c0.2,0.2,0.4,0.5,0.6,0.8s0.3,0.5,0.5,0.8
	c0.2,0.2,0.3,0.4,0.4,0.5c-0.2,0.2-0.3,0.6-0.2,0.9c0,0.2,0.1,0.3,0.2,0.4c-0.1,0-0.2,0-0.3,0H107h-0.3h-0.1
	c-0.6-0.1-1.2,0.2-1.6,0.7c-0.2,0.9,0.1,1.9,0.9,2.5c0.7,0.6,1.5,1.1,2.4,1.3l0.6,0.2c1.1,0.4,1.1,1.3,0.7,3.2
	c-0.1,0.5-0.2,1-0.2,1.5c0,0.3,0,0.7,0.1,1c0.1,0.2,0.1,0.4,0.1,0.6c0,0.2,0,0.2-0.1,0.3c-0.1,0.2-0.3,0.3-0.4,0.5
	c-0.5,1.2-0.8,2.4-1,3.6c0,0.1,0,0.1-0.1,0.2c-0.1,0.1-0.2,0.3-0.2,0.4c-0.2,0.8-0.2,1.6,0.1,2.3c0.1,0.3,0.2,0.6,0.2,0.9
	c0,0.5,0,0.5-0.8,0.7l-0.4,0.1c-0.5,0.1-1,0.2-1.5,0.1c-0.5,0-0.9,0-1.4,0.1c-0.8,0.1-1.6,0.3-2.4,0.6l-0.5,0.2
	c-1.7,0.6-3.2,1.6-4.4,2.8c-0.5,0.4-1,0.8-1.4,1.2c-0.2,0.1-0.3,0.3-0.5,0.4c-0.1,0.1-0.3,0.3-0.4,0.4c-0.2,0.1-0.3,0.2-0.5,0.3
	c-0.4,0.1-0.7,0.3-1,0.6c-0.5,0.4-1,0.7-1.6,1l-0.4,0.2c-0.6,0.2-1,0.5-1.4,1c-0.1,0.1-0.1,0.2-0.2,0.3v0.1l0,0l-0.1,0.1
	c-1,0.5-1.9,1.3-2.6,2.2c-0.2,0.3-0.3,0.5-0.3,0.8c0,0.2-0.1,0.3-0.2,0.4L85.8,78c-0.3,0.3-0.5,0.6-0.7,0.9
	c-0.2,0.6-0.4,1.1-0.6,1.7c-0.1,0.4-0.3,0.9-0.4,1.3c-0.1,0.2-0.2,0.4-0.3,0.6c-0.4,0.8-0.7,1.6-0.9,2.4c-0.4,2.1-0.3,4.3,0.1,6.4
	L82.7,92z M95,112C95,112,94.9,112,95,112c-0.2,0.5-0.3,0.9-0.4,1.3c0,0.1,0,0.3-0.1,0.4c0,0.2-0.1,0.5-0.2,0.7s-0.1,0.4-0.2,0.6
	c0,0.2-0.1,0.3-0.2,0.5c-0.1,0.4-0.2,0.8-0.2,1.3l0,0l0,0c0,0,0,0.1,0,0.2l0,0c0,0.1,0.1,0.2,0.2,0.2c0.2,0.2,0.3,0.5,0.4,0.7
	c0,0.1,0,0.2,0,0.3c-0.1,0.1-0.2,0.1-0.3,0.2c0,0,0,0-0.1,0l-0.1,0.1c0,0.1-0.1,0.1-0.1,0.2s0.1,0.2,0.1,0.2H94
	c0.1,0.2,0.2,0.4,0.2,0.6c0,0.1,0,0.1-0.1,0.2l0,0H94c0,0-0.1,0-0.2,0s-0.2,0-0.3,0.1c-0.1,0.1-0.1,0.4,0,0.5l0,0l0.1,0.1
	c0.1,0.1,0.1,0.2,0,0.4c-0.1,0.1-0.1,0.2-0.2,0.2h-0.1l0,0c-0.1-0.1-0.2-0.1-0.3-0.1l0,0c-0.2,0-0.3,0.2-0.3,0.4l0,0
	c0,0.1,0,0.1,0,0.2l-0.1,0.1h-0.1c-0.1,0-0.3-0.1-0.4-0.2c0-0.1-0.1-0.2-0.2-0.3l0,0c-0.1,0-0.3,0.1-0.3,0.2s0,0.1-0.1,0.2h-0.1
	c-0.1,0-0.1,0-0.2,0s-0.2-0.1-0.3-0.2c-0.1-0.1-0.1-0.2,0-0.4c0,0,0,0,0-0.1s-0.1-0.1-0.1-0.1l0,0h-0.1l0,0l0,0
	c-0.1,0.1-0.1,0.2-0.1,0.3c0,0.1,0,0.2,0,0.4c0.1,0.2,0.2,0.4,0.4,0.5c0.1,0.1,0.3,0.1,0.5,0.1h0.2c0.1,0,0.2-0.1,0.2-0.1l0.2,0.1
	c0.2,0.1,0.4,0.2,0.6,0.2c0.3,0,0.6-0.1,0.7-0.4c0,0,0.1-0.1,0.1-0.2c0.1,0,0.2,0,0.3-0.1c0.1,0,0.1-0.1,0.2-0.1
	c0.3,0.5,0.5,1,0.7,1.5l0.1,0.3c0.3,0.7,0.7,1.4,1.2,2c0.2,0.2,0.5,0.4,0.8,0.6l0.2,0.1l0,0c0.3,0.2,0.5,0.3,0.6,0.5
	c0,0.1,0,0.2,0,0.2c-0.1,0.1-0.2,0.1-0.3,0.1H97c-0.2,0-0.4,0-0.6-0.1h-0.1c-0.1,0-0.2,0.1-0.3,0.2c0,0.1,0,0.2-0.1,0.2
	c-0.1,0.1-0.1,0.2-0.2,0.4c-0.1,0-0.2,0-0.3,0c-0.1,0-0.2,0-0.3,0l0,0c-0.1,0-0.1,0-0.1,0.1v0.1v0.1h-0.2l-0.1-0.1
	c-0.8-0.1-1.7-0.3-2.4-0.8c-0.7-0.5-1.3-1.1-1.8-1.8c-0.2-0.3-0.5-0.5-0.8-0.8l-0.2-0.2c-0.2-0.1-0.3-0.3-0.4-0.4
	c0-0.1-0.1-0.1-0.1-0.2s-0.1-0.1-0.1-0.2c0-0.3,0.1-0.7,0.2-1l0.1-0.2c0.1-0.2,0.1-0.5,0.2-0.7c0-0.1,0-0.2,0-0.2
	c0.3,0,0.5-0.2,0.7-0.4l0,0l0,0c0-0.1-0.1-0.1-0.1-0.1l0,0h0c-0.1,0-0.1,0.1-0.2,0.1s-0.1,0-0.2,0h-0.1l-0.1-0.1
	c-0.1-0.1-0.2-0.2-0.2-0.3c0-0.2,0-0.3,0-0.3c0.1,0,0.2-0.1,0.3-0.1h0.2c0.2,0,0.3-0.1,0.4-0.3c0.1-0.2-0.1-0.4-0.3-0.5l0,0
	c-0.1,0-0.2-0.1-0.3-0.1c-0.1,0-0.1-0.1-0.2-0.2v-0.1c0.1-0.1,0.1-0.1,0.2-0.1l0,0l0.1-0.1c0.1-0.1,0.2-0.3,0.1-0.5
	c0-0.1-0.1-0.1-0.2-0.2c0,0-0.1,0-0.2,0c0,0-0.1,0-0.2,0l-0.2,0.1h-0.2c-0.1,0-0.2-0.2-0.2-0.3c0-0.2,0.1-0.3,0.2-0.4
	c0-0.1,0.1-0.1,0.2-0.2s0.2-0.2,0.3-0.4l0.4-0.1l0,0l0,0c0,0,0.1,0,0.1-0.1c0.2-0.6,0.2-1.2,0.1-1.8c-0.1-0.3-0.1-0.5-0.2-0.8
	s-0.2-0.5-0.2-0.8c-0.1-0.5-0.1-1-0.1-1.6c0-0.2,0-0.3,0-0.5c0-0.4,0-0.8,0-1.2c0,0,0-0.1-0.1-0.1l0,0c0.2,0.1,0.3,0.1,0.5,0.2
	c0.2,0,0.3,0.1,0.5,0.2c0.3,0.1,0.6,0.2,0.9,0.4s0.8,0.3,1.2,0.4c0.7,0.3,1.4,0.4,2.1,0.4h0.2c0.2,0,0.4-0.1,0.6-0.1
	C95,111.9,95,112,95,112L95,112z M94.1,121.6L94.1,121.6L94.1,121.6L94.1,121.6L94.1,121.6L94.1,121.6z M106.2,111.2
	c-0.4,0.4-0.8,0.6-1.2,0.8l-0.3,0.1c-0.4,0.1-0.8,0.2-1.2,0.3c-0.2,0-0.3,0-0.5,0h-0.1c-0.2,0-0.3,0-0.5,0c-1-0.1-2-0.6-2.7-1.3
	c-1.7-1.7-1.8-4.5-0.1-6.3c0.8-0.9,2-1.4,3.2-1.4h0.2c0.7,0,1.3,0.1,1.9,0.4l0.2,0.1c0.4,0.2,0.7,0.4,1.1,0.7
	c0.4,0.4,0.7,0.8,0.9,1.2c0.3,0.6,0.5,1.3,0.5,2C107.6,109.2,107.1,110.4,106.2,111.2L106.2,111.2z M110.9,88l0.1,0.4
	c0.1,0.8,0.1,1.7,0.1,2.6c0,0.2,0,0.4,0,0.6v0.7c-0.1,0.8-0.1,1.6,0,2.4s0.4,1.6,0.7,2.4l0.2,0.4c0.2,0.6,0.4,1.3,0.5,1.9l0.1,0.6
	c0.1,0.2,0.1,0.4,0.1,0.6l0,0c-0.4-0.2-0.7-0.5-1-0.8c-0.4-0.5-0.9-1-1.3-1.4c-0.2-0.2-0.5-0.4-0.7-0.7c-0.6-0.6-1.3-1.2-1.9-1.8
	c-0.9-0.7-1.8-1.6-2.5-2.5c-0.2-0.3-0.5-0.6-0.8-0.8c-0.9-0.7-1.4-1.9-1.3-3.1c0-0.3,0-0.5,0-0.8s0.1-0.4,0.5-0.8
	c0.4-0.3,0.7-0.7,0.9-1.2c0.1-0.3,0.3-0.6,0.4-0.9c0.4-0.6,0.7-1.4,0.9-2.1c0-0.1,0-0.2,0-0.2c0.1-0.5,0.2-0.9,0.4-1.3
	c0.4-0.2,0.8-0.4,1.2-0.4c0.2,0,0.4-0.1,0.6-0.2c0.6-0.2,1.1-0.5,1.7-0.8c0.4-0.3,0.8-0.5,1.3-0.7c0,0.2,0.1,0.3,0.1,0.5
	c0.1,0.5,0.2,0.9,0.1,1.4c-0.1,0.4-0.2,0.7-0.3,1.1c-0.2,0.7-0.4,1.4-0.4,2.1C110.5,86,110.6,87,110.9,88z M107.5,96.2
	c-0.1-0.1-0.2-0.2-0.4-0.4c0.1,0.1,0.1,0.1,0.2,0.2C107.4,96,107.5,96.1,107.5,96.2L107.5,96.2z M105.3,82.3c0,0.1-0.1,0.2-0.2,0.3
	c-0.1,0.3-0.2,0.6-0.2,0.9v0.2c0,0.3-0.1,0.5-0.3,0.7c-0.3,0.3-0.5,0.6-0.6,0.9c-0.1,0.2-0.2,0.5-0.3,0.8c0,0.1-0.1,0.2-0.1,0.2
	c-0.1,0.2-0.2,0.5-0.4,0.6c-0.1,0.1-0.2,0.1-0.3,0.2c-0.1,0.1-0.3,0.2-0.4,0.2c0.1-0.4,0.2-0.7,0.4-1c0.3-0.5,0.6-1.1,0.8-1.5
	c0.5-1.1,1-2.2,1.5-3.3c0.1,0,0.3,0,0.4,0s0.1,0.1,0.2,0.1C105.6,81.9,105.4,82.1,105.3,82.3z M102.5,88.6c0,0.2-0.1,0.5-0.1,0.8
	v0.1l0,0c0,0,0,0,0,0.1c-0.1,0.7,0.1,1.4,0.4,2s0.7,1.2,1.1,1.7c0.8,1,1.7,1.9,2.6,2.8l0.1,0.1c1,0.9,2,1.8,3,2.7l0.2,0.2
	c0.2,0.1,0.4,0.3,0.5,0.4c0.2,0.2,0.3,0.4,0.5,0.6l0.1,0.1l0.2,0.2c0.4,0.5,0.8,0.8,1.4,1.1h0.1h0.1l0,0l0,0
	c0.1,0.1,0.1,0.1,0.2,0.2l0,0v0.1c0.2,0.4,0,0.5,0.1,0.8c0,0.1,0,0.1,0.1,0.1c0.1,0.1,0.1,0.1,0.2,0.2c0,0,0,0.1,0.1,0.1v0.1v0.1
	l0,0c-0.1,0-0.1,0-0.2,0c-0.2,0.3-0.4,0.6-0.6,0.8c-0.6,0.9-0.9,1.9-0.9,2.9c0,0.2,0,0.4,0,0.6l-0.1,0.1c-0.3,0-0.7,0.1-0.9,0.3
	c-0.1,0.1-0.2,0.1-0.3,0.2c-0.3,0.2-0.6,0.5-0.9,0.8l-0.1,0.1c-0.2,0.3-0.5,0.6-0.9,0.8c-0.3,0.2-0.7,0.3-1.1,0.3
	c1.1-2,0.7-4.4-0.9-6c-0.9-0.9-2.2-1.5-3.5-1.5h-0.1c-0.9,0-1.8,0.2-2.5,0.7c0-0.1,0-0.2,0-0.3c0-0.2-0.1-0.3-0.1-0.5
	s-0.1-0.3-0.2-0.4s-0.2-0.2-0.3-0.3l0,0c-0.4-0.3-0.4-0.8-0.3-1.3c0-0.3,0.1-0.5,0.1-0.8c0.1-0.3,0.1-0.6,0.2-0.9
	c0.1-0.5,0.2-1.1,0.3-1.6c0.1-0.5,0.3-1.1,0.4-1.6c0.1-0.3,0.2-0.7,0.4-1l0.2-0.5c0.4-1.1,0.7-2.2,0.9-3.3c0-0.3,0-0.6,0.1-0.9
	s0-0.5,0-0.7s0.1-0.5,0.2-0.7c0-0.1,0.1-0.2,0.1-0.3v-0.1c0,0.1,0.1,0.2,0.2,0.3l0,0C102.3,88.6,102.3,88.6,102.5,88.6L102.5,88.6z
	 M112.8,99.6C112.8,99.7,112.8,99.7,112.8,99.6c0.1,0.3,0.2,0.5,0.2,0.8v0.1c0.1,0.2,0.1,0.4,0.1,0.6c0,0,0,0.1,0,0.2s0,0.2,0,0.3
	l0,0c-0.1-0.1-0.1-0.2-0.2-0.3l0,0v-0.1C112.8,100.7,112.9,100.2,112.8,99.6C112.8,99.7,112.8,99.7,112.8,99.6L112.8,99.6z
	 M111.6,108L111.6,108z M107.1,110.8L107.1,110.8L107.1,110.8z M113.7,111.9L113.7,111.9c0-0.2,0-0.2-0.1-0.2l0,0h-0.1
	c-0.2,0.3-0.3,0.6-0.3,0.9v0.1c0,0.3-0.1,0.6-0.2,0.8l-0.2,0.4c-0.1,0.2-0.2,0.3-0.3,0.5c-0.1,0.2-0.2,0.5-0.3,0.8
	c0,0.1,0,0.2,0,0.3c0,0.1,0,0.1,0.1,0.1l0,0c0,0.2-0.1,0.3-0.1,0.5l-0.1-0.1c0,0,0,0-0.1,0l0,0l0,0l0,0c0,0.1,0,0.1,0,0.2
	c0.1,0.1,0.1,0.1,0.2,0.2s0.1,0.2,0.2,0.3c0.1,0.2,0.2,0.4,0.2,0.6c0,0.1,0,0.2,0,0.3h-0.1h-0.2h-0.2H112c-0.1,0-0.3,0.1-0.3,0.2
	s0,0.1,0,0.2s0.1,0.1,0.2,0.1l0,0c0.2,0.1,0.4,0.3,0.4,0.5c0,0.1,0,0.2,0,0.2l0,0h-0.2c-0.1,0-0.1,0-0.2,0.1s-0.2,0.2-0.2,0.3
	c0,0.1,0,0.2,0.1,0.3l0.1,0.1c0.1,0,0.1,0,0.2,0h0.1c0.1,0,0.1,0,0.2,0.1c0,0.1,0,0.3,0,0.4s-0.1,0.2-0.3,0.3H112
	c-0.1,0-0.1-0.1-0.2-0.1c-0.1-0.1-0.2-0.1-0.2-0.1c-0.1,0-0.2,0-0.2,0.1c-0.1,0.1-0.1,0.2-0.1,0.3c0,0.1,0,0.2,0.1,0.3v0.1
	c0,0-0.1,0.1-0.2,0.1H111c-0.1,0-0.3,0-0.4-0.1c0-0.1-0.2-0.2-0.3-0.2l0,0c-0.2,0-0.3,0.2-0.3,0.4l0,0c0,0.2,0,0.2-0.2,0.2h-0.1
	v-0.1v-0.1l0,0l-0.1-0.1h-0.1h-0.1c-0.1,0-0.2,0-0.2,0.1L109,121h-0.1l0,0l-0.1,0.1c-0.1-0.1-0.2-0.3-0.2-0.5l0,0
	c0-0.1-0.1-0.1-0.1-0.1l0,0c0,0,0,0-0.1,0l0,0l0,0c0,0.1,0,0.3,0,0.4v0.1c0,0.1,0.1,0.2,0.2,0.3c0.1,0.1,0.3,0.1,0.5,0.1l0,0
	c0.2,0.1,0.5,0.2,0.7,0.2l0,0c0.2,0,0.4-0.1,0.6-0.3l0,0l0.2,0.1c0.1,0,0.3,0.1,0.4,0.1h0.2c0.3,0,0.6-0.2,0.7-0.4
	c0,0,0-0.1,0.1-0.1l0,0v0.1v0.2c-0.1,0.3-0.1,0.7,0,1s0.3,0.7,0.4,1c0.1,0.2,0.3,0.5,0.4,0.7c0.2,0.3,0.4,0.7,0.6,1
	c0,0.1,0.1,0.3,0.2,0.4c0.2,0.5,0.3,1,0.5,1.4c0.1,0.2,0.1,0.5,0.1,0.8l0,0c-0.1,0-0.3-0.1-0.4-0.2c-0.1,0-0.1,0-0.2,0s-0.1,0-0.2,0
	s-0.1,0.1-0.1,0.2s0,0.2,0,0.2c0,0.1,0.1,0.1,0.1,0.2h-0.1c-0.1,0-0.2,0.1-0.3,0.2l0,0l-0.2,0.1c-0.2,0.1-0.5,0.1-0.8,0.1
	c-0.5-0.6-1.2-1.2-1.9-1.6c-0.6-0.4-1.2-0.9-1.6-1.5c-0.2-0.3-0.4-0.7-0.6-1s-0.3-0.6-0.4-1c0-0.4,0-0.7,0-1.1
	c0.1-0.4,0.1-0.9,0-1.3c0,0,0-0.1-0.1-0.1c0-0.1,0-0.3,0-0.4l0,0c0.1,0,0.1-0.1,0.1-0.2l0,0v-0.1V120l0,0c0-0.1-0.1-0.1-0.1-0.1
	h-0.1l0,0l0,0c0,0,0,0,0,0.1l-0.1,0.1l0,0H107c-0.1-0.1-0.2-0.1-0.3-0.2l0,0c0-0.1,0-0.1,0-0.1c0-0.1,0.1-0.3,0.2-0.3l0.1-0.1
	c0.1,0,0.2,0,0.3,0c0.1,0,0.3-0.2,0.3-0.3V119l0,0c0-0.2-0.2-0.3-0.4-0.3l0,0H107l0,0c0,0,0-0.1-0.1-0.1l0,0c0-0.2,0.1-0.4,0.3-0.6
	c0.1-0.1,0.2-0.2,0.1-0.3c0-0.2-0.2-0.3-0.3-0.3l0,0c-0.1-0.1-0.2-0.1-0.2-0.2s0,0,0,0l0.1-0.1c0.1-0.2,0.2-0.3,0.3-0.6l0,0
	c0.1-0.2,0.2-0.3,0.4-0.5v-0.1h0.1c0-0.4,0.1-0.7,0.1-1c0,0.1,0.1,0.2,0.1,0.3l0.1,0.1l0,0c0.1,0,0.1,0,0.1-0.1
	c0.1-0.6,0.1-1.3,0-1.9c-0.1-0.3-0.1-0.6-0.2-0.9s-0.3-0.6-0.5-0.9h-0.1l0,0c0,0,0,0-0.1,0c0-0.3,0-0.6,0.1-0.8l0,0v0.3
	c0-0.1,0-0.2,0-0.3c0.1,0,0.2,0,0.3,0c0.3,0,0.5-0.1,0.8-0.2c0.4-0.2,0.8-0.5,1.2-0.9l0.3-0.4c0.2-0.2,0.3-0.4,0.5-0.6
	c0.3-0.3,0.6-0.5,1-0.7c0.2,0.9,0.7,1.8,1.4,2.4c0.2,0.2,0.5,0.4,0.7,0.5l0,0c0,0,0,0.1,0,0.2C113.9,111.5,113.8,111.7,113.7,111.9
	L113.7,111.9z M119.8,103.9c1.5,1.4,1.9,3.7,0.8,5.4c-0.4,0.6-0.9,1.1-1.5,1.5c-0.7,0.4-1.5,0.7-2.3,0.7h-0.1
	c-1.2,0-2.3-0.5-3.1-1.3c-1.7-1.7-1.7-4.4-0.1-6.1c0.8-0.8,1.9-1.3,3.1-1.4h0.2C117.9,102.7,118.9,103.1,119.8,103.9L119.8,103.9z
	 M119,42L119,42c0,0.2,0.1,0.3,0.2,0.4c0.1,0.1,0.2,0.2,0.3,0.3c0.1,0,0.2,0.1,0.3,0.1c0.1,0,0.1,0,0.2,0c0.5-0.2,0.8-0.5,1-1
	c0.2-0.4,0.3-0.8,0.4-1.2c0.1-0.5,0-0.9-0.3-1.3c-0.4-0.6-0.8-1-1.3-1.4l-0.4-0.3c-0.3-0.2-0.5-0.5-0.6-0.8c0-0.1-0.1-0.2-0.1-0.3
	c0.1,0.2,0.3,0.3,0.4,0.5l0.1,0.1c0.3,0.3,0.6,0.6,1,0.7c0.1,0,0.2,0,0.3,0c0.2,0,0.4,0,0.5-0.1l0,0c0.2-0.1,0.4-0.2,0.6-0.3h0.1
	l0.4-0.2l0,0l-0.1,0.2l-0.2,0.6c-0.1,0.2-0.1,0.4-0.2,0.6v0.1c-0.1,0.2-0.1,0.5,0,0.7c0,0.1,0.1,0.2,0.1,0.3
	c0.1,0.1,0.1,0.2,0.2,0.3c0.2,0.2,0.4,0.3,0.7,0.4c0.3,0.1,0.6,0.1,0.8,0.1h0.2l-0.1,0.1c-0.1,0.1-0.3,0.2-0.5,0.2l-0.2,0.1
	c-0.3,0.1-0.5,0.3-0.8,0.5c-0.2,0.1-0.3,0.3-0.3,0.5l-0.1,0.4c-0.1,0.4-0.3,0.7-0.5,1c-0.1,0.1-0.2,0.2-0.3,0.3l-0.1,0.1
	c-0.2,0.2-0.3,0.5-0.4,0.8c0,0.2,0,0.5,0.2,0.6h-0.1c-0.2,0.1-0.4,0.2-0.5,0.3s-0.1,0.2-0.2,0.4c0,0.1,0,0.1,0,0.2v0
	c0.1,0.1,0.1,0.3,0,0.4c-0.2,0.3-0.5,0.5-0.8,0.6s-0.6,0.2-0.9,0.2l0,0c0-0.1-0.1-0.2-0.1-0.3l0.2-0.2c0.2-0.2,0.4-0.4,0.6-0.7
	c0.1-0.2,0.2-0.4,0.3-0.6c0.1-0.3,0.2-0.6,0.2-0.9c0-0.5-0.1-1-0.3-1.5l0,0l0,0C119,42.7,119,42.3,119,42L119,42L119,42z
	 M107.7,41.8l-0.1-0.4c-0.1-0.2-0.2-0.4-0.3-0.5c-0.2-0.2-0.5-0.3-0.8-0.5l-0.2-0.1c-0.2-0.1-0.3-0.1-0.5-0.2h-0.1h0.1
	c0.3,0,0.6,0,0.9-0.2c0.2-0.1,0.5-0.3,0.6-0.5c0.1-0.1,0.1-0.2,0.2-0.3s0.1-0.2,0.1-0.3c0.1-0.2,0.1-0.5,0-0.7V38
	c-0.1-0.2-0.1-0.4-0.2-0.6l-0.2-0.6l-0.1-0.2l0,0c0.2,0.1,0.3,0.1,0.4,0.2h0.1c0.2,0.1,0.4,0.2,0.6,0.3l0,0c0.2,0.1,0.3,0.1,0.5,0.1
	c0.1,0,0.2,0,0.3,0c0.4-0.2,0.7-0.4,1-0.8l0.1-0.1c0.2-0.2,0.3-0.3,0.4-0.5c0,0.1,0,0.2-0.1,0.3c-0.1,0.3-0.3,0.6-0.6,0.8l-0.4,0.3
	c-0.5,0.4-1,0.9-1.3,1.5c-0.2,0.4-0.3,0.9-0.2,1.3c0.1,0.4,0.2,0.9,0.4,1.2c0.2,0.4,0.6,0.8,1,0.9h0.2c0.1,0,0.2,0,0.3-0.1
	c0.1-0.1,0.3-0.2,0.3-0.3c0.1-0.1,0.2-0.3,0.2-0.5l0,0l0,0c0,0.4-0.1,0.7-0.2,1.1l0,0v0.1c-0.2,0.5-0.3,1-0.3,1.5s0.2,1,0.4,1.4
	l0.1,0.1c0.2,0.2,0.4,0.4,0.6,0.7l0.2,0.2c0,0.1,0,0.2-0.1,0.3h-0.1c-0.3,0-0.6-0.1-0.9-0.2c-0.3-0.1-0.6-0.3-0.8-0.6
	c0-0.1,0-0.2,0-0.3v-0.1c0-0.1,0-0.2,0-0.4c0-0.1-0.1-0.3-0.2-0.4c-0.1-0.2-0.3-0.3-0.5-0.3h-0.1c0.2-0.1,0.3-0.4,0.2-0.6
	c-0.1-0.3-0.2-0.5-0.4-0.7l-0.1-0.1c-0.1-0.1-0.2-0.2-0.3-0.3C107.9,42.4,107.8,42.1,107.7,41.8L107.7,41.8z M110.4,43.9
	c0,0.1,0,0.2,0,0.3v-0.1C110.4,44,110.4,44,110.4,43.9L110.4,43.9z M108.4,44.1L108.4,44.1C108.4,44.1,108.3,44.1,108.4,44.1
	L108.4,44.1z M109.1,60.3c0.1-0.3,0.2-0.5,0.3-0.8c0.1-0.2,0.2-0.3,0.2-0.5c0.1-0.2,0.2-0.5,0.2-0.7c0-0.1,0-0.1,0-0.2
	c0-0.2,0.1-0.3,0.2-0.5v-0.1c0.1-0.2,0.2-0.3,0.3-0.5c0.1-0.1,0.1-0.1,0.2-0.2c0,0,0,0.1,0.1,0.1l0.1,0.1h0.1h0.1c0,0,0-0.1,0-0.2
	c-0.1-0.1-0.1-0.2-0.2-0.3c0,0,0-0.1,0.1-0.1l0,0c0,0,0,0,0-0.1s-0.1-0.1-0.1-0.1l0,0h-0.1l0,0c-0.1-0.4-0.2-0.8-0.2-1.3
	c0-0.6,0.1-1.2,0.2-1.7v-0.3c0.1-0.7,0.2-1.4,0.1-2.2c-0.1-0.4-0.2-0.8-0.4-1.1c-0.3-0.3-0.6-0.6-1-0.8l-0.4-0.1
	c-0.5-0.2-1-0.4-1.5-0.6c-0.6-0.3-1-0.7-1.3-1.2c-0.1-0.2-0.2-0.5-0.3-0.8l0,0c0,0,0.1-0.1,0.4-0.1h0.2c0.1,0,0.2,0,0.4,0
	c0.2,0,0.4,0,0.6,0l0,0c0.4,0,0.7-0.1,1-0.3l0.5-0.1c0,0.1,0,0.3,0.1,0.4c0.3,0.3,0.6,0.6,1.1,0.7c0.3,0.1,0.6,0.2,0.9,0.2h0.2l0,0
	c0,0,0.1,0,0.1-0.1s0.1-0.2,0.1-0.2h0.1h0.1c0-0.1,0-0.1,0-0.2l-0.2-0.2l0,0c0-0.1,0-0.1-0.1-0.1c0-0.1-0.1-0.1-0.1-0.2
	c-0.2-0.2-0.4-0.4-0.5-0.7l-0.1-0.1c0.2-0.1,0.4-0.2,0.5-0.3l0,0l0,0c0,0,0,0,0,0.1l0.1,0.1h0.1c0.6-0.3,1.2-0.5,1.8-0.6
	c0.4-0.1,0.7-0.1,1.1-0.1c0.2,0,0.5,0,0.7,0.1c0.5,0.1,0.9,0.2,1.4,0.3l0.4,0.1c0.2,0.1,0.4,0.1,0.6,0.2c0.4,0.2,0.8,0.3,1.2,0.3
	h0.1c0,0,0.1,0,0.1-0.1l0,0c0-0.1,0-0.1-0.1-0.1l-0.2-0.1l0.5,0.2l0.2,0.1c-0.1,0.2-0.1,0.4-0.2,0.5c-0.2,0.2-0.3,0.4-0.5,0.7
	l-0.2,0.2l0,0l0,0l0,0l0,0l0,0l-0.2,0.2c0,0.1,0,0.1,0,0.2c0,0,0,0,0.1,0h0.1c0,0.1,0.1,0.2,0.1,0.3l0.1,0.1c0.1,0,0.2,0,0.3,0
	c0.3,0,0.7-0.1,1-0.2c0.4-0.1,0.7-0.4,1-0.7c0.1-0.1,0.1-0.3,0.1-0.4l0,0l0.2,0.1h-0.1l0,0c0,0.1,0,0.1,0,0.2
	c0.4,0.2,0.8,0.4,1.3,0.4l0.3,0.1c0.3,0.1,0.5,0.1,0.7,0.2l0.1,0.1l0.1,0.1l0,0v0.1c-0.1,0.2-0.3,0.4-0.5,0.5s-0.4,0.3-0.6,0.3
	c-0.4,0.1-0.7,0.2-1.1,0.3l-0.4,0.1l-0.4,0.1l0.3-0.1l0,0l0.2-0.1c0.2-0.1,0.4-0.2,0.6-0.3c0.3-0.1,0.5-0.3,0.7-0.6v-0.1l-0.1-0.1
	l0,0l-0.6,0.1c-0.3,0.1-0.7,0.2-1,0.3s-0.6,0.3-0.8,0.5c-0.3,0.2-0.4,0.6-0.4,0.9v0.1l-0.1,0.1c-0.2,0.2-0.4,0.5-0.5,0.8
	s-0.2,0.5-0.3,0.8c-0.1,0.4-0.2,0.9-0.3,1.3c-0.1,0.6-0.3,1.2-0.5,1.8c-0.4,1-0.9,1.8-1.7,2.5c-0.2,0.2-0.4,0.3-0.6,0.5
	c-0.2,0.1-0.3,0.2-0.6,0.2c-0.4-0.1-0.8-0.4-1-0.7c-0.6-0.9-1.1-1.8-1.4-2.8c-0.1-0.4-0.3-0.9-0.3-1.3c-0.1-0.6-0.3-1.2-0.5-1.8
	l-0.1-0.1h-0.1c-0.1,0-0.1,0.1-0.1,0.2c0.2,0.5,0.3,1.1,0.3,1.7c0,0.5,0.1,1,0.3,1.5c0.3,1.1,0.7,2.2,1.4,3.2l0.1,0.2
	c0.1,0.2,0.3,0.3,0.5,0.5c0.3,0.2,0.6,0.4,1,0.4l0,0c0.3,0,0.7-0.1,0.9-0.3c0.2-0.2,0.5-0.3,0.7-0.5c0.5-0.4,0.9-0.9,1.2-1.4
	c0.2,0.2,0.4,0.4,0.5,0.6c0.2,0.4,0.4,0.8,0.5,1.3c0,0.2,0.1,0.4,0.1,0.6v0.1c0.1,0.2,0.1,0.5,0.2,0.7l0.1,0.2
	c0.2,0.3,0.3,0.7,0.3,1.1c0,0.2,0,0.3-0.1,0.5c-0.1,0.1-0.2,0.3-0.3,0.3c-0.3,0.1-0.6,0.2-0.9,0.2h-0.4c-0.1,0-0.3,0-0.4,0.1
	c-0.1,0-0.3,0.1-0.4,0.2l-0.4,0.3l-0.2,0.1c-0.2,0.1-0.3,0.2-0.5,0.2h-0.2l-0.3-0.1c-0.3-0.1-0.5-0.3-0.7-0.4l-0.4-0.3
	c-0.4-0.3-1-0.5-1.5-0.6c-0.3,0-0.7,0-1,0H111c-0.4,0-0.8,0-1.2-0.1c-0.2,0-0.3-0.1-0.4-0.2C109.1,60.6,109,60.4,109.1,60.3
	L109.1,60.3z M117.7,55.8L117.7,55.8l-0.1-0.2L117.7,55.8z M95.2,70.8c0.3,0,0.5-0.1,0.7-0.2c-0.1,0.1-0.1,0.2-0.2,0.3
	c0,0.1-0.1,0.1-0.1,0.2l0,0l0,0h-0.1h-0.1c-0.3,0.3-0.7,0.5-1.1,0.7l-0.2,0.1l-0.3,0.2C94.4,71.5,94.8,71.1,95.2,70.8L95.2,70.8z
	 M88.2,76.5c0.1-0.2,0.3-0.3,0.4-0.4s0.3-0.1,0.5-0.2h0.1c0.4-0.1,0.7-0.3,0.8-0.7c0-0.1,0-0.2,0.1-0.2c0-0.1,0-0.2,0.1-0.3
	c0.1-0.1,0.3-0.2,0.5-0.3l0.4-0.1c0.4,0,0.8-0.2,1.1-0.4c0.3-0.2,0.6-0.5,0.8-0.8l0.3-0.3c0.3-0.4,0.7-0.7,1.2-0.9
	c0.4-0.2,0.7-0.4,1-0.7c-0.2,0.4-0.3,0.8-0.3,1.2c0,0.5,0.1,1,0.2,1.5c0.3,0.9,0.8,1.8,1.4,2.5c0.5,0.5,1,0.9,1.5,1.2
	c0.2,0.2,0.5,0.3,0.7,0.5h0.1l0,0h0.1V78l0,0c-0.3-0.2-0.6-0.5-0.8-0.7c-0.5-0.3-0.9-0.7-1.2-1.1c-0.6-0.7-1-1.5-1.2-2.3
	c-0.1-0.4-0.2-0.8-0.1-1.3c0-0.4,0.2-0.8,0.4-1.1c0.5-0.7,1.2-1.3,1.9-1.8c0.7-0.6,1.4-1.1,2.2-1.6c0.7-0.5,1.6-0.8,2.4-1
	c0.7-0.1,1.4-0.2,2.1-0.2h0.6c0.9,0,1.9-0.2,2.8-0.6l0.1-0.1c0,0,0-0.1-0.1-0.1l0.4-0.2c0,0-0.1-0.1,0.3-0.3
	c0.1,0.1,0.1,0.2,0.2,0.3c0.1,0.1,0.2,0.1,0.4,0.1c0.1,0,0.2,0,0.3-0.1c0.1-0.1,0.3-0.2,0.3-0.3c0-0.1,0.1-0.2,0.1-0.3
	c0-0.3,0-0.7,0-1V64c0-0.6,0.1-1.2,0.4-1.7c0.1-0.2,0.2-0.3,0.3-0.4c0.5,0,0.9,0,1.4,0.1c0.4,0.1,0.8,0.2,1.2,0.5l0.3,0.2
	c0.3,0.2,0.6,0.4,1,0.6c0.1,0,0.3,0.1,0.4,0.1h0.3h0.2c0.3-0.1,0.5-0.2,0.8-0.3l0.2-0.2l0.4-0.2l0.2-0.1l0.3-0.1h0.4h0.2
	c0.1,0.1,0.2,0.2,0.2,0.3s0.1,0.2,0.1,0.2s0-0.1-0.1-0.1h-0.1h-0.1c0,0,0,0.1,0,0.2c0.2,0.4,0.3,0.9,0.2,1.4c0,0.2-0.1,0.4-0.1,0.6
	c-0.1,0.3-0.1,0.6-0.2,0.9l0,0c0,0.1,0,0.2,0.1,0.3c-0.1,0.5-0.2,0.9-0.4,1.3c-0.2,0.5-0.5,1-0.8,1.5s-0.6,0.9-1,1.3
	c-0.3,0.4-0.7,0.7-1.2,0.8c-0.2,0-0.4,0.1-0.6,0.1c-0.3,0-0.6-0.1-0.8-0.2c-0.3-0.2-0.5-0.4-0.8-0.6c-0.2-0.2-0.3-0.3-0.5-0.4
	l-0.5-0.4c-0.3-0.2-0.6-0.5-0.8-0.7c-0.4-0.4-0.7-0.9-0.9-1.4l-0.1-0.1l0,0c-0.1,0-0.1,0.1-0.1,0.2c0.1,0.6,0.4,1.1,0.7,1.6
	c0.2,0.3,0.5,0.6,0.8,0.8l0.4,0.4l0.3,0.3c0.3,0.3,0.6,0.7,1,0.9c0.3,0.2,0.6,0.3,1,0.3h0.5h0.2c0.1,0,0.2,0,0.3-0.1
	c0.6-0.2,1.2-0.6,1.6-1.1c0.2-0.3,0.5-0.6,0.7-0.9l0.2-0.2c0,0.4,0,0.8,0.2,1.2V71l0,0c0,0.4,0.1,0.7,0.3,1v0.1l0.2,0.4
	c0.1,0.2,0.2,0.3,0.2,0.5l0.1,0.3c0,0.1,0,0.1,0.1,0.2c0.1,0.5,0.2,0.9,0.2,1.4c0,0.7-0.1,1.3-0.3,1.9c-0.1,0.3-0.2,0.7-0.3,1
	s-0.2,0.6-0.3,0.9c-0.1,0.3-0.2,0.7-0.3,1c0,0.2,0,0.4-0.1,0.6s0,0.3,0,0.4c-0.1,0.7-0.2,1.3-0.4,1.9c-0.1,0.3-0.2,0.6-0.3,0.9
	c-0.3,1-0.6,2-0.8,3.1c-0.1,0.6-0.2,1.3-0.3,2c-0.1,0.7-0.1,1.4,0,2.1c0.1,0.3,0.2,0.7,0.3,1c0.1,0.3,0.2,0.6,0.3,0.9
	c0.1,0.6,0.2,1.3,0.1,1.9v0.2c0,0.6,0,1.2-0.1,1.8c0,0.3,0,0.5-0.1,0.8s-0.1,0.8-0.1,1.2c0,0.2,0,0.3,0,0.5s0,0.3,0,0.5v0.2
	c0,0.3,0,0.6,0,0.9l0,0c0,0.1,0,0.2,0.1,0.3c0,0.1,0.1,0.2,0.1,0.3c0.1,0.2,0.2,0.3,0.3,0.4c0.2,0.2,0.4,0.4,0.4,0.7h-0.3
	c-1,0-2,0.3-2.8,0.9h-0.1c-0.1-0.1-0.1-0.2-0.1-0.4v-0.1c0-0.2,0-0.4,0-0.6l0,0c0-0.1,0-0.2,0-0.2c0-0.1,0-0.2,0-0.2s0-0.2,0-0.3
	c0-0.2,0-0.5,0-0.7v-0.1c-0.1-0.4-0.2-0.8-0.3-1.2l-0.1-0.2l-0.4-1.4v-0.1c-0.3-0.9-0.5-1.8-0.6-2.8c-0.1-0.9-0.1-1.8,0-2.7V92
	c0.1-1,0.1-2-0.1-3c0-0.3-0.1-0.6-0.1-0.8c-0.1-0.7-0.2-1.4-0.3-2.1c0-0.5,0-0.9,0-1.4c0-0.3,0.1-0.7,0.2-1l0.1-0.4
	c0.1-0.5,0.2-1,0.2-1.5c0.1-0.5,0-1.1-0.2-1.5l-0.1-0.1l0,0l0,0c0,0,0,0-0.1,0.1c-0.1-0.2-0.2-0.4-0.3-0.5l0,0
	c-0.1,0-0.1-0.1-0.2-0.1s-0.2,0-0.3,0c0.1-0.1,0.1-0.2,0.2-0.3l0,0l0.2-0.4c0.2-0.4,0.5-0.7,0.7-1.1c0,0,0-0.1,0-0.2h-0.1H112
	c-0.5,0.3-1,0.7-1.3,1.2V79c-0.3,0.5-0.7,0.8-1.2,1.1c-1.1,0.6-2.3,0.9-3.6,0.9c-0.1,0-0.1,0.1-0.1,0.1c0,0.1,0,0.1,0.1,0.1l0,0
	c0.1,0,0.2,0.1,0.4,0.1c-0.2,0-0.4,0-0.6,0l0,0c-0.3,0-0.2-0.2-0.5-0.1l0.9-2l0.2-0.6c0-0.1,0-0.1-0.1-0.2l0,0c-0.1,0-0.1,0-0.1,0.1
	c-0.3,0.6-0.7,1.3-1,1.9l-0.6,1.1l0,0c-0.5,1-1,2-1.5,3c-0.3,0.5-0.6,1-0.8,1.4c-0.2,0.4-0.4,0.8-0.5,1.2c0,0.1,0,0.1,0,0.2
	s0,0.2-0.1,0.2s0,0,0,0c0,0.1-0.1,0.2-0.2,0.3c-0.1,0.1-0.1,0.2-0.2,0.4c-0.1,0.3-0.2,0.6-0.2,0.9s0,0.5-0.1,0.8
	c0,0.3,0,0.6-0.1,0.9c-0.1,1.1-0.4,2.1-0.8,3.2c-0.5,1-0.8,2.1-1,3.3c-0.1,0.6-0.2,1.1-0.2,1.7c0,0.3-0.1,0.5-0.1,0.8
	s-0.1,0.6-0.1,0.8c0,0.3,0,0.6,0,0.9c0,0.2,0.1,0.3,0.2,0.5c0.1,0.1,0.2,0.2,0.3,0.3c0.3,0.2,0.5,0.6,0.6,1c0,0.1,0.1,0.2,0.1,0.4
	l0,0c-0.3,0.2-0.6,0.4-0.8,0.7c-0.4,0.3-0.7,0.8-0.9,1.2c0,0,0,0-0.1,0l0,0l0,0l0,0l0,0c0,0.1-0.1,0.1-0.1,0.2c0,0-0.1,0.1-0.2,0.1
	s-0.2,0.1-0.3,0.1c0-0.1-0.1-0.2-0.1-0.2l-0.1-0.1c0-0.1-0.1-0.1-0.1-0.2s-0.1-0.1-0.2-0.1h-0.1c-0.1,0-0.1,0-0.2,0s-0.1,0-0.2-0.1
	s-0.1-0.3-0.2-0.5v-0.1c0-0.1-0.1-0.1-0.2-0.1h-0.1c-0.1,0-0.1,0-0.2,0h-0.1c-0.1-0.1-0.2-0.2-0.2-0.3c-0.1-0.3-0.2-0.6-0.2-0.9
	s0-0.7,0-1s0.1-0.6,0.2-0.9c0.1-0.2,0.1-0.3,0.2-0.5c0.2-0.5,0.4-1,0.4-1.5c0.1-0.6,0.1-1.2,0.1-1.8v-0.3v-0.3
	c0-2.6,0.3-5.2,1.1-7.7l0.2-0.8c0.2-0.6,0.4-1.2,0.5-1.7c0-0.1,0-0.1,0-0.2c0.1-0.4,0.2-0.9,0.3-1.3c0.1-0.6,0.1-1.1,0.2-1.7v-0.4
	c0.1-0.8,0.1-1.4,0.2-2c0.1-0.7,0.2-1.3,0.4-2c0.1-0.4,0.3-0.9,0.4-1.3c0-0.1,0-0.1,0.1-0.2l0.2-0.4l0.7-1.9l0.1-0.2
	c0.3-0.6,0.5-1.2,0.6-1.8c0-0.1,0-0.1-0.1-0.1l0,0l0,0c-0.1,0-0.1,0-0.1,0.1c-0.1,0.5-0.3,1.1-0.6,1.6l-0.1,0.3l-0.8,1.9l-0.2,0.5
	c0,0.1-0.1,0.2-0.1,0.3c-0.1,0.3-0.3,0.7-0.4,1.1c-0.2,0.7-0.3,1.4-0.4,2s-0.2,1.3-0.3,2.1v0.3c-0.1,0-0.2,0-0.2,0
	c-0.2,0-0.4-0.1-0.6-0.2c-0.4-0.3-0.7-0.6-1-1c-0.1-0.1-0.2-0.2-0.3-0.3c-0.2-0.3-0.5-0.5-0.7-0.8c-0.2-0.2-0.4-0.4-0.7-0.5
	c-0.2-0.1-0.5-0.2-0.8-0.2l-0.5-0.1c-0.3-0.1-0.6-0.1-0.9-0.2c-0.4-0.2-0.8-0.4-1.2-0.7L90,78.8l-0.1-0.1c-0.4-0.3-0.7-0.6-1-0.8
	c-0.3-0.3-0.6-0.6-0.8-1C88.1,76.7,88.1,76.6,88.2,76.5L88.2,76.5z M83.5,84.6c0.3-0.9,0.6-1.8,1-2.7c0.1-0.2,0.1-0.8,0.2-1.2
	c0,0,0,0,0-0.1s0.1-0.2,0.1-0.2c0.1-0.1,0.3-0.1,0.4,0l0,0c0.1,0.4,0.4,0.7,0.7,0.9c0.6,0.3,1.2,0.5,1.8,0.6L88,82
	c0.4,0.1,0.8,0.2,1.2,0.3l0.1,0.1c0,0.2,0,0.3,0,0.4l0,0c-0.1,0-0.1,0-0.1,0.1L89.1,83c-0.1,0.2-0.2,0.4-0.4,0.6
	c-0.1,0.1-0.2,0.2-0.2,0.3c-0.1,0.2-0.3,0.4-0.3,0.6c-0.1,0.2-0.1,0.5,0,0.7c0,0.2,0.2,0.3,0.4,0.3c0.4,0,0.8-0.2,1-0.6
	c0.2-0.3,0.3-0.6,0.3-0.9s0-0.6,0-0.9c0-0.2-0.1-0.4-0.1-0.5l0.2,0.1c0.4,0.2,0.8,0.5,1.1,0.8l0.4,0.3l0.1,0.1
	c0.5,0.4,1,0.8,1.6,1.1l0,0l0.2,0.1c0.5,0.2,1,0.5,1.4,0.7l0,0l0.2,0.1c0,0.4,0.1,0.8,0.1,1.2v0.3c0,0.2,0,0.4,0,0.6s0,0.4-0.1,0.6
	l0,0h-0.1c0-0.1,0-0.3,0-0.4c0-0.2,0.1-0.4,0.1-0.6c0-0.6,0-0.9,0-1.2c0-0.1,0-0.1-0.1-0.1l0,0l0,0c0,0-0.1,0-0.1,0.1
	c-0.1,0.2-0.1,0.3-0.2,0.5c-0.2,0.3-0.3,0.7-0.4,1c0,0.2,0,0.3,0,0.5s0.1,0.4,0.3,0.6c0,0,0.1,0.1,0.2,0.1h0.1l0,0
	c0.1,0,0.2,0,0.3,0l0,0c0.3,0,0.5-0.2,0.6-0.4c0.1-0.3,0.2-0.6,0.2-0.9s0-0.6-0.1-0.8c-0.1-0.4-0.2-0.7-0.3-1.1
	c0.5,0.2,1.1,0.5,1.6,0.8c0,0,0,0,0.1,0h0.1l0,0v-0.1l0,0c-0.5-0.4-1.1-0.8-1.8-1.2L94.9,85c-0.4-0.2-0.8-0.4-1.2-0.7
	c-0.6-0.3-1.1-0.7-1.7-1.2s-1.1-0.9-1.8-1.3c-0.6-0.4-1.4-0.6-2.1-0.7s-1.3-0.3-1.9-0.5c-0.2-0.1-0.4-0.3-0.5-0.6
	c0-0.3,0.1-0.5,0.3-0.7l0.3-0.3c0.1-0.2,0.3-0.3,0.4-0.5c0.2-0.3,0.3-0.7,0.2-1.1c0,0,0-0.1-0.1-0.1l0,0c0-0.1,0-0.1,0-0.2
	c0.1-0.3,0.3-0.6,0.6-0.8c0,0.1,0,0.2-0.1,0.3c0,0.1,0,0.3,0,0.4c0.2,0.5,0.5,1,1,1.4c0.3,0.3,0.7,0.5,1,0.8l0.3,0.2l1.2,0.9
	c0.4,0.3,0.9,0.6,1.4,0.8c0.4,0.1,0.8,0.2,1.2,0.3h0.3c0.4,0.1,0.9,0.2,1.2,0.5c0.3,0.2,0.5,0.5,0.7,0.7l0.3,0.3
	c0.3,0.4,0.7,0.7,1.2,1c0.2,0.1,0.5,0.2,0.7,0.2h0.1H98c0,0.4-0.1,0.9-0.2,1.3s-0.2,0.8-0.3,1.1l-0.1,0.2c-0.2,0.6-0.4,1.2-0.6,1.8
	l-0.2,0.8c-0.2,0.7-0.4,1.3-0.6,2c-0.1,0.7-0.2,1.4-0.3,2.1c-0.1,1.4-0.2,2.8-0.2,4.1v0.8c0,0.4,0,0.8,0,1.2
	c-0.1,0.5-0.2,0.9-0.4,1.4c-0.1,0.2-0.1,0.3-0.2,0.5c-0.1,0.3-0.2,0.7-0.2,1.1s0,0.7,0,1.1s0.1,0.7,0.3,1.1c0.1,0.2,0.2,0.4,0.4,0.5
	c0.1,0,0.2,0.1,0.3,0.1h0.2c0,0.2,0.1,0.3,0.2,0.4s0.3,0.2,0.4,0.2s0.2,0,0.2,0L97,106l0,0c0.1,0.1,0.1,0.1,0.1,0.2s0.1,0.1,0.2,0.2
	l0,0c0.2,0,0.4,0,0.5-0.1l0.1-0.1c-0.2,0.6-0.4,1.3-0.4,1.9c0,1.1,0.4,2.1,1,2.9h-0.1h-0.1c-0.3-0.1-0.7-0.1-1-0.1h-0.6h-0.3
	c-0.1,0-0.2,0-0.4,0c-0.3,0.1-0.7,0.2-1,0.3c-0.2,0.1-0.5,0.1-0.7,0.1l0,0c-0.7,0-1.4-0.2-2-0.5c-0.4-0.1-0.8-0.3-1.1-0.5l-0.9-0.4
	c-0.2-0.1-0.4-0.1-0.5-0.2l-0.5-0.2l-0.1-0.1l0,0c0-0.1,0-0.3,0-0.4c0.1-0.7,0.2-1.5,0.2-2.3c0-1.2,0.1-2.8,0-4.5
	c-0.1-1.5-0.2-3-0.5-4.5c-0.2-1.5-0.7-3-1.2-4.4c-0.1-0.2-0.1-0.3-0.2-0.4c-0.2-0.5-0.5-1-0.6-1.6c-0.1-0.3-0.2-0.7-0.2-1
	c0-0.2,0-0.5-0.1-0.7v-0.4c-0.1-0.7-0.1-1.5,0-2.2c0-0.3,0.1-0.7,0.3-1c0.2-0.4,0.2-0.8,0.1-1.2l-0.1-0.1l0,0
	c-0.1,0-0.1,0.1-0.1,0.2c0.1,0.3,0,0.7-0.2,1s-0.3,0.7-0.3,1.1C86,87.9,86,88.6,86,89.3v0.2c0,0.3,0,0.6,0,1s0.1,0.8,0.2,1.2
	c0.2,0.6,0.4,1.1,0.6,1.7l0.2,0.5c0.5,1.4,0.9,2.8,1.1,4.3c0.3,1.4,0.4,2.9,0.5,4.4c0.1,1.3,0.1,2.7,0,4.4c0,0.2,0,0.4,0,0.5
	s0,0.1,0,0.1l0,0c0-0.1,0-0.1-0.1-0.1l-0.3-0.2c-0.9-0.5-1.9-1.1-2.7-1.8c-0.4-0.3-0.9-0.7-1.4-1.1c-0.4-0.3-0.6-0.8-0.6-1.3
	c0.1-0.4,0.1-0.7,0.2-1.1c0.1-0.2,0.1-0.4,0.2-0.6c0.1-0.5,0.2-1.1,0.2-1.6v-0.2c0.1-1.2,0.1-2.4,0-3.6s-0.2-2.4-0.3-3.6
	s-0.2-2.4-0.3-3.6c-0.1-1.2,0-2.3,0.2-3.5c0.1-0.5,0.3-1,0.5-1.5c0.3-0.6,0.5-1.2,0.6-1.9c0-0.1,0-0.1-0.1-0.1l0,0l0,0l0,0
	c0,0-0.1,0-0.1,0.1c-0.2,0.6-0.4,1.1-0.8,1.6c-0.2,0.4-0.4,0.9-0.6,1.3C83.4,84.8,83.4,84.7,83.5,84.6L83.5,84.6z"/>
<path class="st0" d="M110.9,48.5L110.9,48.5C110.9,48.5,110.9,48.4,110.9,48.5c0-0.2,0-0.3-0.1-0.3l0,0l0,0l-0.9-0.2
	c-0.4-0.1-0.7-0.2-1-0.2c-0.6-0.1-1.2-0.4-1.7-0.8h-0.1c0,0,0,0-0.1,0v0.1c0.1,0.4,0.4,0.7,0.7,0.9c0.3,0.2,0.6,0.4,1,0.5
	c0.3,0.1,0.7,0.2,1,0.2h0.4c0.2,0,0.4,0,0.5,0l0.1,0.1l0.1,0.1h0.1h0.1h0.1c0.1,0,0.1-0.1,0.1-0.1C111,48.6,111,48.5,110.9,48.5z"/>
<path class="st0" d="M113.9,55.4c0.2,0.2,0.4,0.3,0.7,0.4h0.1c0.1,0,0.2,0,0.2-0.1c0.1-0.1,0.2-0.3,0.3-0.4c0.1-0.1,0.2-0.3,0.2-0.5
	v-0.1c0-0.1-0.1-0.3-0.2-0.3h-0.1c-0.1,0-0.3-0.1-0.4-0.1h-0.1l-0.3-0.1c-0.1,0-0.3,0-0.4,0h-0.2c-0.1,0-0.2,0.1-0.2,0.2l0,0
	c0,0.2,0,0.3,0,0.5C113.7,55.2,113.8,55.3,113.9,55.4z M114.4,54.8h0.3l0,0l0,0l-0.2,0.2L114.4,54.8h-0.2H114.4z"/>
<path class="st0" d="M111.4,49.8L111.4,49.8L111.4,49.8c0.2,0,0.3,0,0.3,0l0,0l0.4,0.1l0.1,0.1l0,0v0.1c0.1,0.2,0.2,0.3,0.4,0.4
	c0.1,0,0.1,0,0.2,0s0.3,0,0.4-0.1s0.2-0.2,0.2-0.3l0,0c0-0.3-0.2-0.5-0.4-0.7c-0.2-0.1-0.4-0.2-0.6-0.2c-0.1,0-0.2,0-0.3,0h-0.2
	c-0.2,0-0.4,0.2-0.6,0.4v0.1C111.3,49.8,111.4,49.8,111.4,49.8z"/>
<path class="st0" d="M116.5,50.8L116.5,50.8c0.4,0,0.7-0.2,0.8-0.4l0,0c0-0.1-0.1-0.1-0.1-0.1h-0.1c-0.1,0-0.1,0-0.2,0l0,0h0.2h0.1
	h0.1c0.2,0,0.4-0.1,0.5-0.2l0.1-0.1c0,0,0-0.1-0.1-0.1c-0.2-0.1-0.4-0.2-0.7-0.2h-0.2c-0.2,0-0.5,0.1-0.6,0.3l0,0
	c-0.1,0.1-0.2,0.3-0.2,0.5s0.1,0.3,0.2,0.4C116.3,50.9,116.4,50.9,116.5,50.8z"/>
<path class="st0" d="M115.6,59.7c0.1,0,0.2,0,0.3,0h0.2c0.3,0,0.6-0.1,0.9-0.2l0.7-0.3h0.1h0.1c0.1,0,0.1,0,0.2-0.1c0,0,0,0,0.1,0.1
	c0,0.1,0.1,0.1,0.1,0.1l0,0c0.1,0,0.1,0,0.1-0.1s0-0.2,0-0.3s-0.1-0.3-0.3-0.3c-0.1,0-0.2-0.1-0.4-0.1h-0.2c-0.3,0-0.6,0.1-0.8,0.2
	l0,0l-0.8,0.3h-0.1c-0.1,0.1-0.3,0.1-0.4,0.1h-0.2l0,0h-0.1c0,0,0,0.1,0,0.2C115.2,59.6,115.4,59.7,115.6,59.7z"/>
<path class="st0" d="M110.4,59.1h0.2c0.4,0,0.7,0.1,1,0.3s0.5,0.4,0.7,0.6l0.3,0.3c0.4,0.4,0.8,0.7,1.2,0.9c0.4,0.2,0.8,0.3,1.2,0.3
	c0.1,0,0.3,0,0.4,0s0.1-0.1,0.1-0.2c0,0,0-0.1-0.1-0.1c-0.4-0.1-0.8-0.3-1.2-0.6c-0.4-0.3-0.7-0.6-1-0.9l-0.2-0.2
	c-0.3-0.3-0.6-0.6-1-0.8c-0.2-0.1-0.5-0.2-0.7-0.2h-0.1c-0.3,0-0.5,0.1-0.8,0.2c-0.1,0-0.1,0.1-0.1,0.2S110.3,59.1,110.4,59.1
	L110.4,59.1z"/>
<path class="st0" d="M111.1,56.7L111.1,56.7c0.1,0,0.2,0,0.3-0.1l0,0l0.1,0.1l0,0l0.1,0.1l0.1,0.1c0.1,0.1,0.2,0.2,0.3,0.3
	c0.1,0.1,0.3,0.1,0.4,0.1s0.3,0,0.4-0.1l0.1-0.1c0,0,0-0.1-0.1-0.1c-0.1-0.1-0.2-0.2-0.3-0.3l0,0c-0.1-0.1-0.2-0.3-0.3-0.4
	c-0.1-0.1-0.2-0.2-0.3-0.2h-0.1h-0.1h-0.2h-0.1c-0.1,0-0.2,0-0.3,0.1c-0.1,0.1-0.1,0.1-0.2,0.2l0,0c0,0-0.1,0-0.1,0.1v0.1l0,0
	C110.9,56.6,111,56.7,111.1,56.7z"/>
<path class="st0" d="M112.7,64.5l0.3,0.1h0.1l-0.1,0.1l-0.1,0.1c0,0,0,0.1,0.1,0.1c0.1,0.1,0.3,0.1,0.4,0.1h0.1
	c0.1,0,0.2-0.1,0.3-0.2c0.1-0.1,0.1-0.2,0.2-0.3c0.1-0.2,0-0.4-0.2-0.4l0,0c-0.1-0.1-0.3-0.1-0.4-0.2c-0.1,0-0.3-0.1-0.4,0l0,0
	c-0.3,0-0.6,0.1-0.8,0.2v0.1c0,0,0,0.1,0.1,0.1C112.5,64.4,112.6,64.5,112.7,64.5z"/>
<path class="st0" d="M116.6,65.2c0.1,0.1,0.2,0.1,0.4,0.1l0,0c0,0,0.1,0,0.1-0.1v-0.1c0-0.1,0-0.1,0-0.2c0,0,0,0,0-0.1l0,0h0.2h0.3
	c0,0,0.1,0,0.1-0.1v-0.1c-0.1-0.2-0.3-0.4-0.6-0.4c-0.1,0-0.1,0-0.2,0c-0.2,0-0.4,0.1-0.6,0.3l0,0c-0.1,0.1-0.1,0.3,0,0.4
	C116.4,65.1,116.5,65.2,116.6,65.2z"/>
<path class="st0" d="M115.4,67.9L115.4,67.9L115.4,67.9L115.4,67.9L115.4,67.9h0.2c0.1,0,0.2-0.1,0.2-0.2v-0.1
	c0.1-0.3,0.2-0.7,0.1-1c0-0.2,0-0.3-0.1-0.5V66c0-0.1-0.1-0.3-0.1-0.4c0,0,0-0.1-0.1-0.1l0,0h-0.1c-0.1,0.1-0.1,0.2-0.1,0.4
	c0,0.2,0,0.4,0,0.6c0,0.3-0.3,0.6-0.2,0.8l-0.1,0.1l0,0c0,0.1,0,0.1,0,0.2c0,0,0,0,0.1,0L115.4,67.9z"/>
<path class="st0" d="M113.9,68.7L113.9,68.7l0.1,0.2c0.1,0,0.2,0,0.2,0.1c0.1,0,0.2,0.1,0.3,0.1c0.1,0,0.2,0,0.3,0.1
	c0,0-0.1,0-0.1,0.1c0,0-0.1,0-0.2,0c0,0-0.1,0-0.1,0.1c-0.1,0.1-0.1,0.3,0,0.4s0.2,0.2,0.4,0.2l0,0c0.1,0,0.3-0.1,0.3-0.2
	c0.1-0.1,0.1-0.3,0-0.4l-0.1-0.1l-0.3-0.1h0.2h0.1c0.2,0,0.4,0,0.6-0.1c0.2,0,0.5-0.2,0.6-0.4v-0.1c0-0.1-0.1-0.1-0.1-0.1l0,0
	c-0.1,0-0.2,0-0.3,0h-0.2c-0.2,0-0.4,0-0.6,0h0c-0.2,0-0.3,0-0.5,0l-0.3,0.1h-0.1C114,68.5,114,68.6,113.9,68.7z"/>
<path class="st0" d="M112.2,75c0.4,0,0.7-0.1,1-0.4c0.3-0.2,0.5-0.5,0.6-0.8c0.1-0.2,0.2-0.3,0.2-0.5s0.1-0.2,0.1-0.3
	c0.1-0.3,0.3-0.5,0.4-0.7v-0.1l-0.1-0.1l0,0c-0.3,0.1-0.7,0.3-0.9,0.6c-0.2,0.2-0.3,0.5-0.4,0.7l-0.1,0.1c-0.1,0.2-0.2,0.5-0.4,0.7
	c-0.2,0.2-0.4,0.4-0.6,0.6C112.2,74.8,112.2,74.9,112.2,75C112.2,75,112.3,75,112.2,75L112.2,75z"/>
<path class="st0" d="M111.4,79.1c0,0,0,0.1,0,0.2l0.1,0.1l0,0l0.2-0.1c1-0.4,1.9-1.1,2.6-2c0.2-0.2,0.3-0.5,0.4-0.8s0.2-0.5,0.3-0.8
	l0.1-0.2c0.1-0.4,0.4-0.9,0.7-1.2c0,0,0-0.1,0-0.2l-0.1-0.1l0,0c-0.6,0.3-1,0.7-1.2,1.3l-0.2,0.4c-0.1,0.3-0.3,0.6-0.5,0.9
	C113,77.6,112.3,78.4,111.4,79.1L111.4,79.1z"/>
<path class="st0" d="M103.1,70c0.5-0.2,0.9-0.3,1.4-0.3h0.1c0.5,0,0.9,0.2,1.3,0.4c0.4,0.3,0.7,0.6,0.9,1c0.2,0.4,0.4,0.9,0.5,1.3
	c0,0.1,0.1,0.1,0.1,0.1l0,0c0.1,0,0.1,0,0.2-0.1c0.3-1.2-0.2-2.3-1.2-3c-0.5-0.3-1-0.5-1.6-0.5c-0.1,0-0.2,0-0.3,0
	c-0.6,0.1-1.2,0.3-1.7,0.8c0,0,0,0.1,0,0.2C102.9,69.9,103,69.9,103.1,70L103.1,70z"/>
<path class="st0" d="M93.4,79.6c-0.2,0-0.4,0-0.7,0.1c-0.1,0-0.1,0.1-0.1,0.1l0,0c0,0.1,0,0.1,0.1,0.1c0.5,0.1,0.9,0.2,1.3,0.4
	c0.4,0.2,0.8,0.5,1.1,0.8c0.3,0.2,0.5,0.4,0.8,0.7c0.5,0.5,1,0.9,1.5,1.2h0.1h0.1c0-0.1,0-0.1,0-0.2c-0.5-0.9-1.2-1.7-1.9-2.3
	c-0.4-0.4-0.9-0.6-1.4-0.8C94.1,79.6,93.8,79.6,93.4,79.6z"/>
<path class="st0" d="M91.2,77.2c0.5,0.4,1.1,0.7,1.8,0.8l0,0c0,0,0.1,0,0.1-0.1c0,0,0-0.1,0-0.2c-0.4-0.4-0.7-0.7-1.2-1l-0.2-0.2
	c-0.3-0.2-0.5-0.4-0.7-0.5l0,0c-0.2-0.2-0.3-0.3-0.2-0.5v-0.1h-0.1h-0.1c-0.2,0.1-0.3,0.4-0.2,0.6c0,0.2,0.1,0.4,0.2,0.5
	C90.8,76.8,91,77,91.2,77.2z"/>
<path class="st0" d="M93.5,75.9c0.2,0.3,0.5,0.5,0.8,0.6c0.2,0.1,0.5,0.2,0.8,0.2h0.2c0.1,0,0.1-0.1,0.1-0.1c0-0.1,0-0.1-0.1-0.1
	c-0.2-0.1-0.5-0.3-0.7-0.5s-0.4-0.4-0.6-0.6s-0.4-0.4-0.6-0.7c-0.2-0.2-0.3-0.5-0.5-0.7c0,0,0-0.1-0.1-0.1l0,0c-0.1,0-0.1,0-0.1,0.1
	c-0.1,0.3,0,0.7,0.1,1C93.1,75.3,93.3,75.6,93.5,75.9z"/>
<path class="st0" d="M85.7,95.4c0,0.2,0,0.3,0,0.6c0,0.4,0,0.8,0,1.2c0,0.8,0,1.6,0,2.4c0,0.2,0,0.5,0,0.8c0,1.4,0,2.8,0.1,4.1
	c0,0.1,0.1,0.1,0.1,0.1l0,0l0,0c0.1,0,0.1,0,0.1-0.1c0.2-1.6,0.4-3.3,0.4-4.9c0-0.8,0-1.7-0.1-2.5c0-0.4-0.1-0.8-0.1-1.2
	c0-0.2-0.1-0.4-0.2-0.6v-0.1c0-0.2-0.1-0.4-0.3-0.5h-0.1h-0.1c0,0,0,0.1,0,0.2C85.7,95.1,85.7,95.3,85.7,95.4L85.7,95.4z"/>
<path class="st0" d="M93.4,116.8L93.4,116.8c-0.5,0.1-1,0.2-1.5,0.2h-0.1c-0.4,0-0.9-0.1-1.3-0.3l0,0l0,0 M90.5,116.8
	c0.1,0.2,0.2,0.3,0.3,0.4l0.1,0.1c0.1,0.1,0.2,0.1,0.3,0.2c0.3,0.1,0.6,0.2,0.9,0.2s0.6-0.1,0.8-0.2c0.1-0.1,0.2-0.1,0.3-0.2
	c0.1-0.1,0.2-0.2,0.3-0.3l0,0c0,0,0,0,0-0.1L90.5,116.8z"/>
<path class="st0" d="M111.8,115.7L111.8,115.7c-0.3,0.1-0.6,0.2-0.9,0.3c-0.2,0-0.4,0.1-0.7,0.1H110c-0.3,0-0.6,0-0.9-0.1
	c-0.3,0-0.6-0.1-1-0.1l0,0c0,0,0,0-0.1,0c0,0,0,0,0,0.1c0.1,0.1,0.2,0.2,0.4,0.2c0.2,0.1,0.3,0.2,0.5,0.2c0.3,0.1,0.7,0.2,1,0.2h0.1
	c0.2,0,0.3,0,0.5,0h0.2h0.1l0.2-0.1c0.2-0.1,0.4-0.2,0.5-0.4C111.6,116,111.7,115.9,111.8,115.7
	C111.8,115.8,111.8,115.8,111.8,115.7C111.8,115.9,111.8,115.7,111.8,115.7z"/>
<path class="st0" d="M106,108.2c-0.1-0.1-0.2-0.2-0.4-0.2l0,0c-0.2,0-0.3,0.1-0.4,0.2l0,0c-0.2,0.2-0.3,0.4-0.5,0.5
	c-0.1,0.1-0.2,0.2-0.2,0.3c-0.3,0.5-0.9,0.8-1.5,0.9l0,0h-0.1c-0.1,0-0.1-0.1-0.2-0.1l-0.5-0.2l-0.1-0.1c-0.3-0.1-0.5-0.3-0.8-0.4
	c-0.3-0.2-0.7-0.3-1-0.4c-0.1,0-0.2,0-0.3,0c-0.1,0-0.3,0-0.4,0.1c-0.1,0.2-0.2,0.4-0.1,0.6c0,0.1,0.1,0.1,0.1,0.1h0.1
	c0.3,0.5,0.7,1,1.1,1.4c0.6,0.5,1.3,0.8,2,0.8h0.1c0.8,0,1.5-0.3,2.2-0.7c0.3-0.2,0.6-0.5,0.9-0.8s0.4-0.8,0.4-1.2
	c0-0.2-0.1-0.4-0.1-0.6C106.2,108.3,106.1,108.2,106,108.2z"/>
<path class="st0" d="M116,108.1c-0.3-0.1-0.5-0.3-0.8-0.4c-0.3-0.2-0.7-0.3-1-0.4h-0.3c-0.1,0-0.3,0-0.4,0.1
	c-0.1,0.2-0.2,0.4-0.1,0.6c0,0.1,0.1,0.1,0.1,0.1l0,0l0,0c0.3,0.5,0.7,1,1.1,1.4c0.6,0.5,1.3,0.8,2,0.8h0.1c0.8-0.1,1.5-0.3,2.1-0.7
	c0.3-0.2,0.6-0.5,0.9-0.8c0.4-0.5,0.5-1.2,0.3-1.9c0-0.1-0.1-0.2-0.2-0.2c-0.1-0.1-0.2-0.2-0.4-0.2l0,0c-0.2,0-0.3,0.1-0.4,0.2l0,0
	c-0.2,0.2-0.3,0.4-0.5,0.6c-0.1,0.1-0.2,0.2-0.2,0.3c-0.3,0.5-0.9,0.8-1.5,0.9l0,0h-0.1l-0.2-0.1l-0.5-0.2V108.1z"/>
<path class="st0" d="M92.5,88.4c0.1,0.1,0.2,0.1,0.4,0.1H93c0.1,0,0.1,0,0.2,0c0.2,0,0.4-0.1,0.6-0.3c0.2-0.2,0.3-0.4,0.4-0.6
	c0-0.2,0-0.4,0-0.6c-0.1-0.3-0.2-0.7-0.3-0.9c-0.2-0.4-0.4-0.8-0.7-1.2l0,0l-0.3-0.4h-0.1h-0.1c-0.1,0-0.1,0.1-0.1,0.2
	c0.1,0.3,0.2,0.5,0.3,0.8c-0.3,0.2-0.4,0.5-0.6,0.8c-0.1,0.3-0.2,0.7-0.2,1c0,0.2,0,0.4,0,0.6C92.2,88.1,92.3,88.3,92.5,88.4z
	 M92.8,86.4c0-0.2,0.1-0.4,0.2-0.6c0.1,0.2,0.2,0.4,0.2,0.6c0.1,0.3,0.2,0.5,0.2,0.8c0,0.2,0,0.4-0.1,0.5s-0.2,0.1-0.3,0.1l0,0l0,0
	c0,0-0.1-0.2-0.2-0.5C92.8,87,92.8,86.7,92.8,86.4L92.8,86.4z"/>
<path class="st0" d="M90.1,86.8c0,0.1,0.1,0.2,0.2,0.3c0.1,0.1,0.3,0.2,0.4,0.2h0.1c0.2,0,0.4-0.2,0.5-0.4c0,0,0,0,0-0.1
	c0.1-0.1,0.2-0.3,0.2-0.5c0.1-0.3,0.1-0.6,0.2-0.9c0.1-0.5,0-1-0.3-1.5c-0.1-0.1-0.1-0.2-0.2-0.2h-0.1c0,0,0,0-0.1,0v0.1l0,0l0,0
	c0-0.1-0.1-0.1-0.1-0.1l0,0c-0.1,0-0.1,0.1-0.1,0.1c-0.1,0.4-0.2,0.7-0.4,1.1c-0.1,0.1-0.1,0.3-0.2,0.4c-0.2,0.4-0.2,0.7-0.3,1
	c0,0.1,0,0.2,0,0.3C90,86.7,90,86.8,90.1,86.8z M90.8,85.6c0-0.1,0-0.1,0.1-0.2C91,85,91.1,84.5,91,84c0.1,0.5,0.1,1,0,1.4
	c0,0.2-0.1,0.5-0.2,0.7l-0.1,0.3l0,0v-0.1C90.7,86,90.7,85.8,90.8,85.6z"/>
<path class="st0" d="M77.8,164.5c0.3,0.3,0.7,0.4,1,0.6c0.1,0.1,0.2,0.2,0.3,0.3c0.3,0.4,0.6,0.9,0.9,1.4c0.5,0.9,0.8,1.9,0.8,2.9
	l0.7-0.2h0.2c0.2,0,0.3,0.1,0.5,0.1c0.3,0.1,0.6,0.1,0.9,0.1c0.2,0,0.4,0,0.6-0.1c-0.1-0.9,1.1-0.9,1.3-1.6s-0.7-0.8-0.7-1.5
	s1.5-1.1,1.3-1.9s-1.4-0.4-1-1.3c0.2-0.5,1.1-0.6,0.7-1.2s-1.1-0.4-1.3-0.8s0.6-1,0.8-1.5s-0.3-0.7-0.8-1c-1.8-0.9,0.9-1.4-0.3-2.4
	c-0.4-0.3-1.4-0.4-1-0.9s1.1-0.1,1.1-0.7c-1.2-0.6-2.9-2.6-4.4-2.5c-0.6,0.1-1.1,0.4-1.3,0.9c-0.3,0.4-0.6,0.8-0.9,1.2
	c-0.1,0.1-0.1,0.3-0.2,0.4c0,0.5,0,0.9-0.1,1.4c-0.2,0.4-0.3,0.8-0.4,1.3c0.1,0.4,0,0.8-0.1,1.2s-0.6,1.2-0.6,1.6s0.6,1,0.8,1.4
	C76.8,162.9,76.8,163.8,77.8,164.5z"/>
<path class="st0" d="M67.2,160.7c0.4,0.1,0.7,0.2,1.1,0.4s0.7,0.6,0.9,1c-0.1,0-0.2,0-0.4,0h-0.3c-0.6-0.2-1.2-0.1-1.8,0.3
	c-0.3,0.3-0.4,0.6-0.4,1c0,0.8,0.8,1.3,1.4,1.7l0.3,0.2l0.3,0.2c1.7,1.3,2.1,1.9,2.2,2.1h-0.2c-0.4-0.1-0.8,0-1.1,0.2
	c-0.3,0.3-0.4,0.6-0.4,1c0.1,0.7,0.5,1.4,1.2,1.6c0.2,0.1,0.4,0.2,0.5,0.4c0.1,0.1,0.1,0.2,0.2,0.3c-0.1,0.1-0.1,0.2-0.2,0.2
	c-0.1,0.1-0.2,0.2-0.3,0.4c-0.4,0.5-0.4,1.3,0,1.8c0.1,0.2,0.2,0.4,0.2,0.6c0,0.3,0.3,0.6,0.6,0.6h0.1c0.4,0,0.6-0.4,0.6-0.7
	c-0.1-0.4-0.2-0.8-0.4-1.1c-0.1-0.1-0.1-0.2-0.1-0.2c0-0.1,0-0.1,0.1-0.2l0.2-0.3c0.6-0.6,0.6-1.5,0.1-2.1c0,0,0,0-0.1-0.1
	c-0.2-0.3-0.6-0.6-0.9-0.8s-0.6-0.4-0.6-0.5l0,0h0.1c0.4,0.1,0.9,0,1.3-0.3c0.3-0.2,0.4-0.6,0.4-0.9c-0.1-0.9-1.1-1.9-2.7-3.1
	l-0.3-0.2c-0.1-0.1-0.2-0.2-0.4-0.3c-0.3-0.2-0.6-0.4-0.8-0.7c0.2,0,0.4,0,0.7,0.1h0.3c1.2,0.1,1.6-0.5,1.7-0.8
	c0.3-0.9-0.5-2-1.4-2.6c-0.4-0.2-0.9-0.4-1.4-0.5c-0.7-0.2-1.7-0.5-1.8-0.9c-0.1-0.4-0.4-0.6-0.8-0.5s-0.6,0.4-0.5,0.8l0,0
	C64.7,160,66.1,160.4,67.2,160.7z"/>
<path class="st0" d="M65,165.6c-1.1-0.1-2.3,0.3-3,1.2c-0.2,0.3-0.1,0.7,0.2,0.9s0.7,0.1,0.9-0.2l0,0c0.5-0.5,1.2-0.8,1.9-0.7
	c0.6,0,1.2,0.3,1.6,0.8c0.1,0.1,0.1,0.2,0.1,0.3c-0.2,0.1-0.5,0.1-0.7,0c-0.4-0.1-0.7-0.3-1-0.6c-0.2-0.3-0.6-0.4-0.9-0.3
	c-0.3,0.2-0.4,0.5-0.3,0.9l0,0c0.6,0.8,1.5,1.3,2.5,1.3h0.1c0.8,0.1,1.5-0.4,1.6-1.2c0.1-0.4-0.1-0.8-0.3-1.1
	C67.1,166.2,66.1,165.6,65,165.6z"/>
<path class="st0" d="M32.8,193.1c1.5,4.7,3.9,9.1,7,13c1.3,1.5,2.2,2.1,3.4,2.1c0.6,0,1.2-0.1,1.8-0.2l1.1-0.2
	c0.3-0.1,0.6-0.1,0.9-0.1c3.1,0,7.7,2,10,3.8c1.2,1.1,2.2,2.3,3,3.7c1.5,2.2,2.9,4.4,5.4,5c0.5,0.1,0.9,0.2,1.4,0.2
	c2.9,0,4.3-2.2,5.6-4.2c0.3-0.4,0.6-0.9,0.9-1.3l0.8-1.1c1.6-2,3-4.3,4-6.6l0.5-1.2c0.8-2.3,1.9-4.4,3.3-6.4c0.7-1,1.2-2.2,1.5-3.4
	s0.8-2.3,1.5-3.3c0.6-0.6,1.3-1,2.1-1.2c0.9-0.2,1.8-0.6,2.6-1.2c1.6-1.2,3.2-4.9,3.4-8c0.3-1.7-0.2-3.4-1.3-4.7l-0.1-0.1
	c-0.4-0.3-0.6-0.7-0.8-1.1c0-0.1-0.1-0.8-0.1-1.2c0-0.6-0.1-1-0.1-1.2c-0.2-1,0-2.1,0.5-3.1l0.1-0.3c0.9-2.3,1.4-4.7,1.5-7.1
	c1.2,0.2,2.4,0.3,3.6,0.3c3.9,0,6.8-0.9,8.8-2.9c0.7-0.5,1.1-1.2,1.2-2.1c0-0.8-0.6-1.3-1.4-2.1l-0.2-0.2c-1-0.9-2-1.8-3.1-2.6
	c-4.5-3.2-9.9-4.9-15.5-5c-2-0.2-4-0.7-5.8-1.6c-2.1-1-4.4-1.6-6.8-1.7c-0.6,0-1.1,0-1.7,0.1c-2.9,0.4-5.7,1-8.4,1.9l-1,0.4
	c-1.7,0.7-2,0.8-4.1,0.1c-0.7-0.2-1.4-0.4-2.1-0.4c-2.1,0.2-4.1,0.8-5.9,1.8c-0.6,0.3-1.2,0.6-1.8,0.8c-1,0.4-2,0.6-3.1,0.8
	c-2.2,0.4-4.5,0.8-6,2.7c-1.1,1.6-1.9,3.4-2.4,5.3c-0.3,1.2-0.7,2.3-1.1,3.4c-0.7,1.3-1.6,2.6-2.5,3.8c-1.3,1.7-2.4,3.5-3.2,5.5
	c-2.5,6.8-0.2,13.4,2,19.8L32.8,193.1z M78.9,199.2c-1.1,1.8-1.6,3.8-3,5.6c-2.2,2.9-7.9,5-11.2,3c-1.9-1.2-1.6-3.4-2.6-5.2
	c-1.2-2-2.7-2.8-3.1-5.2c-0.3-2.2-0.1-3.8-2-5.4c-1.7-1.4-3.7-1.7-4.5-4c-1.2-3.2,0.4-5.5,1.8-8.3c0.8-1.7,0.9-3-0.4-4.4
	c-0.6-0.6-2.3-1.5-2.3-2.5c0-1.3,0.9-0.5,1.5,0c1.3,1.3,2.5,2.6,3.7,4c2,2.1,6,5,7.9,7.1c1.3,1.5-0.4,2.5,1.4,4.1s2.6,0.3,3.8,1.1
	c1.6,1,3.8,2.8,5.7,3.2c1.3,0.3,3.6-0.3,4.6,0.7C81.7,194.4,79.7,197.9,78.9,199.2z M67.7,181.4c0.2,0.2,0.3,0.5,0.1,0.7
	c-0.1,0.1-0.3,0.2-0.4,0.2s-0.2,0-0.3-0.1c-11.5-8.2-10.8-12.9-10.7-13.1c0-0.3,0.2-0.5,0.5-0.5s0.5,0.2,0.5,0.5c0,0.1,0,0.1,0,0.2
	C57.3,169.4,56.9,173.7,67.7,181.4z M68.3,184l0.2,0.1c1.4,0.2,1.3,3.4-0.6,2.8c-0.8-0.2-1.3-1.1-1.1-1.9c0-0.4,0.2-0.8,0.5-1
	C67.7,183.9,68,184.1,68.3,184L68.3,184z M80.3,189.8c-5-0.3-4.9-1.6-4.9-1.6s4.7-3.4,12.3-0.6C87.7,187.6,85.2,190.2,80.3,189.8
	L80.3,189.8z M89,186.8c-11.4-3.4-14.9,1.4-15.9,1.9s-2.3-0.9-2.3-0.9c2.5-2.8-0.4-5.2-0.4-5.2c5.3-10.4,17.6-7.2,17.6-7.2
	c0.2,0.9,0.4,1.7,0.8,2.5C92.8,181.6,89,186.8,89,186.8z M99.7,161.8c-1.2,0.2-2.4,0.3-3.6,0.2c-1-0.1-4.9-0.3-4.5-0.8
	c0.8-1.2,0.3-3.5,0.3-3.5c1,1.1,1.2,0,2.1-0.1c3-0.2,3.7,0.8,4.6,1.1C101,159.5,103.4,161.3,99.7,161.8L99.7,161.8z M99.7,154.5
	c0.3,0.2,0.6,0.4,0.9,0.6c1.5,0.9,2.6,2.3,3.1,4c-4.9-2.5-7.9-3.1-9.6-3.1c-0.8,0-1.5,0.1-2.2,0.5c-0.7-0.6-1.1-1.5-0.9-2.4
	c0-1-0.3-1.9-0.8-2.7C93.4,151.9,96.7,152.9,99.7,154.5L99.7,154.5z M60.6,152c0.5-1.8,5.8-2.3,7.6-2.8c2.8-0.8,5.8-0.9,8.7-0.5
	c2.6,0.6,5.2,1.4,7.7,2.2c1.1,0.3,2.9,0.4,3.8,1.3s0.7,2.7,1.4,3.9c0.8,1.3,1.9,1.4,1.4,3.2c-0.2,0.6-0.6,1-0.8,1.7s0.2,1.4,0.1,2.1
	c-0.2,2.5-0.5,6.3-1.5,8.2s-3.8,0.9-7.3,0.6c-2.8-0.2-4.8,1.2-7.3,2.6c-1.3,0.7-2.5,1.6-3.5,2.6c-0.9,0.9-1.7,2.1-3.1,1.8
	c-1.1-0.3-2.2-1.8-3.1-2.5c-1-0.7-2-1.5-2.9-2.3c-1-0.8-1.7-1.9-2.1-3.1c-0.3-1,0-5.6-0.9-5.7c-2.2-0.2-1.9,0.7-3.3,1
	c-1.1,0.3-2.8-0.5-3.8-1c-3.8-1.7-0.5-4.4,1.5-5.1c1.3-0.6,2.9-0.7,4.2-0.1c1,0.3,2.5,1.3,3.3,0.5c0.5-0.6-0.7-1.8-0.7-1.8
	c0.4-1.1,2.4-0.8,3.2-1.6C65.6,155.2,59.9,154.9,60.6,152z M45.4,160.6c1.8-3.9,6.1-8.3,10.8-9.3c0.2,0,0.3-0.1,0.5-0.1
	c2.6,0,3.4,4.3,3.6,5.5c-9,0.1-14.4,7.6-15.6,9.5C44.1,164.8,44.4,162.8,45.4,160.6L45.4,160.6z"/>
<path class="st0" d="M78.9,180.4c-0.7-0.3-1.5-0.1-2,0.5c-0.2,0.3-0.2,0.7,0.1,0.9c0.2,0.2,0.6,0.2,0.8,0c0.2-0.2,0.4-0.3,0.6-0.2
	s0.3,0.3,0.3,0.4c0,0.2-0.1,0.3-0.2,0.4c-0.1-0.1-0.3-0.2-0.5-0.2c-0.4,0-0.6,0.3-0.6,0.6l0,0c0,0.4,0.2,0.8,0.5,1
	c0.1,0.1,0.3,0.1,0.4,0.1c0.2,0,0.4-0.1,0.6-0.2c0.6-0.4,1-1.1,1.1-1.8C80,181.3,79.5,180.6,78.9,180.4z"/>
<path class="st0" d="M72.6,194.2c-1-0.1-2,0.4-2.8-0.7c-0.6-0.9-0.7-1.7-2-1.1s-1.9,0.2-2.7-0.7c-0.7-0.7-1.3-1.5-1.8-2.4
	c-0.2-0.4-1.3-2.7-1.9-1.5l0.3-0.2c-1.5,1.1-1.2,3.4-0.6,4.9c0.3,1,0.7,1.9,1.2,2.8c0.3,0.4,0.7,0.8,0.9,1.2s0.3,1.1,0.6,1.6
	c0.5,0.8,0.6,0,1.3,0.3c0.4,0.1,0.5,0.9,1,1.1c0.7,0.2,0.7-0.5,1.3-0.4s0.9,0.8,1.2,1.2c0.5,0.8,0.5,2.1,1.5,2.4
	c0.7,0.3,0.8-0.3,1.2-0.4s0.6,0.8,1.2,0.8c1.1-0.1,1.1-2,1.2-2.8c0.2-1.2,0.2-2.3,0.1-3.5C73.9,195.8,73.8,194.3,72.6,194.2z"/>
<path class="st0" d="M86.7,180.5c-0.7,0.3-1.1,0.9-1.1,1.7c0,0.7,0.4,1.4,1,1.9c0.1,0.1,0.3,0.1,0.5,0.1c0.1,0,0.3,0,0.4-0.1
	c0.3-0.2,0.5-0.6,0.5-1s-0.3-0.7-0.6-0.7c-0.1,0-0.2,0-0.3,0.1c-0.1-0.1-0.1-0.2-0.1-0.3c0-0.3,0.1-0.4,0.2-0.5s0.2,0.1,0.3,0.2
	c0.2,0.3,0.6,0.3,0.9,0.1s0.3-0.6,0.1-0.9l0,0C88,180.5,87.3,180.3,86.7,180.5z"/>
<path class="st0" d="M293.5,49.7c0.5-0.2,1-0.3,1.5-0.3V36.8h-9.1v2.3l6,0.2v8.4c-0.9,0.4-1.7,0.6-2.6,0.8c-1.4,0.3-2.8,0.4-4.1,0.4
	c-1.9,0.1-3.8-0.5-5.4-1.6c-1.5-1.1-2.7-2.7-3.3-4.4c-0.8-2.1-1.2-4.2-1.1-6.5c-0.1-2.3,0.4-4.6,1.3-6.7c0.8-1.7,2-3.1,3.6-4.1
	c1.5-0.9,3.2-1.4,5-1.4c1.7,0,3.3,0.1,5,0.5c1.1,0.3,2.1,0.6,3.1,1l0.1-2.9c-0.8-0.1-1.5-0.3-2.2-0.5c-0.8-0.2-1.6-0.4-2.4-0.5
	c-1.1-0.2-2.3-0.2-3.4-0.2c-1.8,0-3.6,0.3-5.2,1c-1.6,0.6-3.1,1.6-4.3,2.8c-1.3,1.3-2.3,2.9-2.9,4.7c-0.7,2.1-1.1,4.3-1,6.5
	c0,2.6,0.5,5.1,1.6,7.5c1,2.1,2.5,3.9,4.5,5.2c2.1,1.3,4.6,2,7.1,1.9c1.3,0,2.5-0.1,3.8-0.3c0.9-0.2,1.8-0.4,2.7-0.7
	C292.4,50.2,293,49.9,293.5,49.7z"/>
<path class="st0" d="M319.7,49.7c2-1.2,3.6-2.9,4.6-5c1.2-2.5,1.8-5.3,1.8-8.1c0.1-2.7-0.4-5.3-1.4-7.8c-0.9-2.1-2.4-3.9-4.3-5.2
	c-2-1.3-4.3-1.9-6.6-1.8c-2.3,0-4.6,0.6-6.6,1.7s-3.7,2.8-4.8,4.9c-1.3,2.5-1.9,5.3-1.9,8.1c-0.1,2.7,0.4,5.3,1.5,7.8
	c0.9,2.2,2.5,4,4.4,5.3c2,1.3,4.5,2,6.9,1.8C315.5,51.4,317.7,50.8,319.7,49.7z M304.7,42.8c-0.7-2-1.1-4-1-6.1
	c-0.1-2.4,0.4-4.7,1.3-6.9c0.8-1.7,2-3.1,3.6-4.1c1.5-0.9,3.2-1.4,5-1.4c1.8-0.1,3.6,0.5,5.1,1.6c1.4,1.2,2.5,2.7,3.1,4.4
	c0.7,2,1,4,1,6.1c0,4.1-0.9,7.2-2.7,9.3c-1.7,2.1-4.3,3.3-7,3.2c-1.9,0.1-3.8-0.5-5.3-1.7C306.4,46.1,305.3,44.5,304.7,42.8
	L304.7,42.8z"/>
<path class="st0" d="M338.1,51.3c1.2,0.1,2.3,0.1,3.4,0.1c2.3,0.1,4.6-0.3,6.8-1.1c1.5-0.6,2.8-1.7,3.6-3.1c0.8-1.5,1.1-3.1,1.1-4.8
	c0-1.2-0.3-2.4-0.9-3.4s-1.4-1.9-2.4-2.5s-2.1-1-3.3-1c1-0.2,2-0.8,2.7-1.5s1.2-1.6,1.5-2.6c0.3-0.9,0.4-1.9,0.5-2.8
	c0-1.3-0.3-2.5-1.1-3.6c-0.8-1.1-1.9-1.9-3.1-2.3c-1.7-0.6-3.5-0.9-5.3-0.8c-0.9,0-1.7,0-2.3,0.1l-2,0.1c-0.6,0-1.4,0.1-2.2,0.1
	h-1.8v29h1.7C335.8,51.2,336.9,51.2,338.1,51.3z M336.4,24.4c0.3,0,0.8-0.1,1.3-0.1l1.7-0.1h1.4c1.8-0.1,3.5,0.3,5,1.1
	c1.3,0.8,2.1,2.3,1.9,3.9c0.1,1.5-0.4,3-1.3,4.2c-0.9,1-2.2,1.7-3.5,1.7h-3.4c-0.7,0-1.3,0-1.9,0c-0.4,0-0.9,0-1.3-0.1L336.4,24.4z
	 M336.4,37.4c0.2,0,0.6,0,1.2-0.1c0.5,0,1.1,0,1.8,0h3.3c1.8-0.1,3.6,0.4,5.1,1.3c1.3,1,2,2.6,1.9,4.2c0,2.3-0.7,3.9-2,4.8
	c-1.8,1-3.8,1.5-5.8,1.4H340c-0.6,0-1.3-0.1-1.9-0.1s-1.2-0.1-1.7-0.2V37.4z"/>
<rect x="360.4" y="22.1" class="st0" width="3.2" height="29"/>
<polygon class="st0" points="375.9,37.4 385.5,37.4 385.5,34.9 375.9,34.9 375.9,24.6 389,24.6 389,22.1 372.7,22.1 372.7,51.1 
	390.4,51.1 390.4,48.6 375.9,48.6 "/>
<path class="st0" d="M399.7,38.5h3.4c0.9,0,1.7,0,2.5,0c0.8,0.2,1.6,0.6,2.1,1.3c0.8,0.9,1.4,1.8,1.9,2.9c0.6,1.1,1.1,2.3,1.6,3.5
	s0.9,2.2,1.4,3.1l0.6,1.2c0.1,0.3,0.3,0.5,0.4,0.7h3.7c-0.2-0.3-0.3-0.6-0.5-0.9s-0.4-0.7-0.6-1c-0.5-0.9-1.1-2-1.6-3.2
	s-1.1-2.4-1.7-3.6c-0.6-1.1-1.2-2.1-2-3.1c-0.5-0.6-1-1.1-1.7-1.4c0.9-0.2,1.7-0.6,2.5-1c1.1-0.7,2-1.7,2.6-2.8c0.7-1.3,1-2.8,1-4.3
	c0-1.3-0.2-2.6-0.7-3.7c-0.5-1-1.2-1.8-2-2.5c-1-0.7-2-1.1-3.2-1.4c-1.3-0.3-2.7-0.4-4-0.4c-1.2,0-2.5,0-3.7,0.1s-2.3,0.1-3.2,0.1
	h-0.6h-1.3v29h3.2L399.7,38.5z M399.7,24.5c0.8-0.1,1.5-0.2,2.3-0.2c1,0,1.9-0.1,2.7-0.1c1.4,0,2.8,0.2,4.1,0.6c1,0.3,1.8,1,2.4,1.9
	c0.5,1,0.8,2.2,0.8,3.3c0.1,1.8-0.6,3.5-1.9,4.7c-1.4,1.1-3.1,1.7-4.9,1.6h-1.7c-0.7,0-1.5,0-2.2,0s-1.2,0-1.6-0.1L399.7,24.5z"/>
<polygon class="st0" points="426.3,32.6 426.1,26.3 429.1,31.4 442.2,51.1 445.1,51.1 445.1,22.1 442.2,22.1 442.2,41.1 442.4,47 
	439.7,42.3 426.3,22.1 423.3,22.1 423.3,51.1 426.3,51.1 "/>
<path class="st0" d="M476.2,28.8c-0.9-2.1-2.4-3.9-4.3-5.2c-2-1.3-4.3-1.9-6.6-1.8c-2.3,0-4.6,0.6-6.7,1.7c-2,1.1-3.7,2.8-4.8,4.9
	c-1.3,2.5-1.9,5.3-1.9,8.1c-0.1,2.7,0.4,5.3,1.5,7.8c0.9,2.2,2.5,4,4.4,5.3c2,1.3,4.5,2,6.9,1.8c2.3,0,4.6-0.6,6.6-1.8
	s3.6-2.9,4.6-5c1.2-2.5,1.8-5.3,1.8-8.1C477.8,33.9,477.3,31.2,476.2,28.8z M471.7,45.7c-1.7,2.1-4.3,3.3-7,3.2
	c-1.9,0.1-3.8-0.5-5.3-1.7s-2.6-2.7-3.2-4.5c-0.7-2-1.1-4-1.1-6.1c-0.1-2.4,0.4-4.7,1.4-6.9c0.8-1.7,2-3.1,3.6-4.1
	c1.5-0.9,3.2-1.4,5-1.4c1.8-0.1,3.7,0.5,5.1,1.6c1.4,1.2,2.5,2.7,3.1,4.4c0.7,2,1.1,4,1,6.1C474.4,40.5,473.5,43.5,471.7,45.7z"/>
<path class="st0" d="M277.3,69.6c-0.5,0-0.9,0-1.4,0l-1.3,0.1h-1.2c-0.1,0-0.3,0-0.4,0h-1v17.7h0.9h0.4c0.6,0,1.2,0,1.9,0.1
	s1.3,0.1,1.8,0.1c1.6,0.1,3.2-0.3,4.7-1.1c1.3-0.8,2.3-1.9,2.9-3.3c0.7-1.6,1-3.3,1-5c0.1-2.3-0.6-4.5-2.1-6.2
	C282.2,70.3,280.1,69.6,277.3,69.6z M282.8,82.7c-0.5,1.1-1.2,1.9-2.2,2.5s-2.1,0.9-3.2,0.8c-0.5,0-1.1,0-1.7,0s-1.2-0.1-1.6-0.2
	V71.2c0.4-0.1,0.9-0.1,1.3-0.1s1,0,1.6,0c1.3,0,2.6,0.2,3.8,0.8c1,0.5,1.8,1.3,2.3,2.4c0.6,1.3,0.8,2.8,0.8,4.2
	C283.6,79.9,283.3,81.3,282.8,82.7z"/>
<polygon class="st0" points="290.9,79 296.7,79 296.7,77.5 290.9,77.5 290.9,71.3 298.9,71.3 298.9,69.8 288.9,69.8 288.9,87.4 
	299.7,87.4 299.7,85.8 290.9,85.8 "/>
<path class="st0" d="M324.6,73.7c-0.8-0.7-1.6-1.4-2.5-1.9c-1.1-0.6-2.2-1.2-3.4-1.7c-1-0.4-1.9-0.9-2.9-1.5
	c-0.6-0.3-1.2-0.8-1.6-1.3c-0.3-0.4-0.5-1-0.5-1.6c0-0.5,0.1-0.9,0.4-1.3s0.8-0.7,1.3-0.8c0.7-0.2,1.5-0.3,2.2-0.3
	c1.3,0,2.5,0.2,3.7,0.6c1,0.3,1.9,0.7,2.7,1.3l1.1-5.4c-0.9-0.5-1.9-0.8-2.9-1.1c-1.7-0.4-3.5-0.6-5.4-0.6c-1.4,0-2.8,0.1-4.2,0.5
	c-1.2,0.3-2.3,0.8-3.3,1.5c-0.9,0.6-1.6,1.5-2.1,2.5c-0.5,1.1-0.8,2.3-0.8,3.5c0,1.4,0.3,2.8,0.9,4c0.6,1.1,1.5,2.1,2.5,2.9
	s2.2,1.5,3.4,2.1c1.5,0.7,2.6,1.3,3.5,1.7c0.7,0.3,1.3,0.8,1.9,1.3c0.4,0.4,0.6,1,0.6,1.6c0.1,0.7-0.3,1.5-0.9,1.9
	c-0.9,0.5-2,0.7-3,0.6c-1,0-2-0.1-3-0.3c-0.9-0.2-1.8-0.4-2.7-0.7c-0.7-0.2-1.3-0.5-2-0.8l-0.9,5.7c0.6,0.3,1.3,0.6,2,0.8
	c1.1,0.3,2.2,0.6,3.3,0.7c1.3,0.2,2.7,0.3,4,0.3c2,0.1,4-0.3,5.8-1.1c1.5-0.6,2.7-1.7,3.6-3c0.8-1.4,1.3-2.9,1.2-4.5
	c0-1-0.2-2-0.5-3C325.8,75.2,325.3,74.4,324.6,73.7z"/>
<path class="st0" d="M350.9,59.7c-2.1-1.3-4.6-1.8-7.1-1.7c-2.5,0-4.9,0.6-7.1,1.6c-2.1,1-3.8,2.7-4.9,4.7c-1.3,2.6-2,5.5-1.9,8.3
	c-0.1,2.7,0.4,5.5,1.5,8c1,2.2,2.6,4,4.6,5.2c2.2,1.3,4.8,1.9,7.3,1.8c2.4,0,4.8-0.6,7-1.6c2-1.1,3.7-2.7,4.8-4.8
	c1.3-2.6,1.9-5.5,1.8-8.4c0.1-2.7-0.4-5.5-1.5-8C354.4,62.7,352.8,60.9,350.9,59.7z M347.8,80.2c-1,1.5-2.7,2.3-4.4,2.3
	c-1.2,0-2.4-0.4-3.4-1.2c-1-0.9-1.6-2.1-2-3.4c-0.5-1.6-0.7-3.3-0.7-4.9c-0.1-1.9,0.2-3.9,0.9-5.7c0.4-1.2,1.3-2.2,2.3-2.9
	c1-0.6,2.1-0.9,3.2-0.9c1.2,0,2.3,0.4,3.2,1.1c0.9,0.9,1.6,2,1.9,3.2c0.4,1.6,0.6,3.2,0.6,4.8C349.4,76.1,348.9,78.7,347.8,80.2
	L347.8,80.2z"/>
<polygon class="st0" points="379.5,71.1 380.3,78.5 378.3,74.3 368.4,58.3 361.6,58.3 361.6,87.4 368.2,87.4 368.2,74.8 367.3,67.4 
	369.4,71.8 378.8,87.4 386.1,87.4 386.1,58.3 379.5,58.3 "/>
<path class="st0" d="M411.9,59.7c-2.1-1.3-4.6-1.8-7.1-1.7c-2.5,0-4.9,0.6-7.1,1.6c-2.1,1-3.8,2.7-4.9,4.7c-1.3,2.6-2,5.5-1.9,8.3
	c-0.1,2.7,0.4,5.5,1.5,8c1,2.2,2.6,4,4.6,5.2c2.2,1.3,4.8,1.9,7.3,1.8c2.4,0,4.8-0.6,7-1.6c2.1-1.1,3.7-2.8,4.8-4.8
	c1.3-2.6,1.9-5.5,1.8-8.4c0.1-2.7-0.4-5.5-1.5-8C415.5,62.7,413.9,60.9,411.9,59.7z M408.9,80.2c-1,1.5-2.7,2.3-4.4,2.3
	c-1.3,0-2.5-0.4-3.4-1.2c-1-0.9-1.6-2.1-2-3.4c-0.5-1.6-0.7-3.3-0.7-4.9c-0.1-1.9,0.2-3.9,0.9-5.7c0.4-1.2,1.3-2.2,2.3-2.9
	c1-0.6,2.1-0.9,3.2-0.9c1.2-0.1,2.3,0.4,3.2,1.1c0.9,0.9,1.6,2,1.9,3.2c0.4,1.6,0.6,3.2,0.6,4.8C410.5,76.1,409.9,78.7,408.9,80.2z"
	/>
<path class="st0" d="M445.5,85.3c-0.6-1-1.1-2-1.5-3c-0.4-1.1-0.9-2.1-1.3-3s-0.9-1.8-1.5-2.6c-0.3-0.4-0.7-0.8-1.1-1.1
	c0.3-0.1,0.7-0.3,1-0.4c1.2-0.7,2.1-1.8,2.7-3c0.7-1.5,1.1-3.2,1-4.9c0.1-1.6-0.3-3.1-1-4.5c-0.6-1.1-1.5-2.1-2.5-2.8
	c-1.1-0.7-2.3-1.2-3.5-1.4c-1.3-0.3-2.5-0.4-3.8-0.4c-2.1,0-3.8,0-5.1,0.2s-2.6,0.2-3.6,0.2h-2.5v29h7.3V77.1c1.3,0,2.3,0,3.1-0.1
	c0.6,0,1.2,0.3,1.5,0.8c0.5,0.6,0.8,1.3,1.1,2c0.3,0.8,0.6,1.7,1,2.7c0.3,0.9,0.7,1.9,1.1,2.8c0.3,0.6,0.5,1.1,0.6,1.3
	c0.1,0.3,0.3,0.5,0.4,0.7h8c-0.2-0.4-0.4-0.7-0.6-1.1S445.7,85.6,445.5,85.3z M431,72.2c-0.5,0-0.8-0.1-1.1-0.1v-8.6
	c0.5-0.1,1-0.2,1.5-0.3s1.1-0.1,1.6-0.1c1-0.1,2,0.2,2.9,0.6c0.6,0.3,1.1,0.9,1.4,1.6c0.3,0.6,0.4,1.3,0.4,2c0,1.2-0.3,2.4-1,3.4
	c-0.8,1-2,1.5-3.2,1.4h-1.2C431.9,72.2,431.4,72.2,431,72.2z"/>
<path class="st0" d="M457.2,58.2l-10.1,29.2h7.6l1.5-5.4h10.1l1.6,5.4h7.7l-10.2-29.2H457.2z M457.7,76.9l2.5-9.1l1-3.8l0.9,3.8
	l2.7,9.1H457.7z"/>
<rect x="267.7" y="100.6" class="st0" width="275" height="3.7"/>
<path class="st0" d="M270.3,137.1L270.3,137.1c0,0.6,0.1,1,0.4,1.4s0.6,0.8,1.1,1.1s1.1,0.6,1.7,0.7c0.7,0.2,1.5,0.3,2.3,0.2
	c1.3,0.1,2.6-0.2,3.7-0.9c0.8-0.5,1.3-1.4,1.3-2.3c0-0.5-0.1-1-0.4-1.4s-0.7-0.7-1.2-1s-1.1-0.6-1.7-0.8s-1.3-0.5-2.1-0.7
	s-1.4-0.5-2.1-0.7c-0.7-0.3-1.4-0.6-2-1s-1.1-0.8-1.5-1.4c-0.4-0.6-0.6-1.3-0.6-2c0-0.6,0.1-1.3,0.4-1.8c0.3-0.6,0.7-1.1,1.2-1.4
	c0.6-0.4,1.2-0.7,1.9-0.9c1.7-0.4,3.5-0.4,5.1,0c0.7,0.2,1.4,0.5,2,0.9c0.5,0.4,1,0.8,1.3,1.4c0.3,0.5,0.5,1.2,0.5,1.8v0.2h-1.3
	v-0.1c0-0.5-0.1-0.9-0.4-1.3c-0.2-0.4-0.6-0.8-1-1.1c-0.5-0.3-1.1-0.5-1.6-0.7c-0.7-0.2-1.4-0.3-2.2-0.3c-1.2-0.1-2.5,0.2-3.5,0.9
	c-0.8,0.5-1.2,1.4-1.2,2.3c0,0.5,0.1,1,0.4,1.4s0.7,0.7,1.1,1c0.5,0.3,1.1,0.6,1.6,0.8c0.6,0.2,1.3,0.4,2,0.7s1.4,0.4,2.2,0.7
	c0.7,0.2,1.4,0.6,2.1,1c0.6,0.4,1.1,0.9,1.5,1.4c0.4,0.6,0.6,1.3,0.6,2c0,0.6-0.1,1.3-0.5,1.9c-0.3,0.6-0.8,1-1.3,1.4
	c-0.6,0.4-1.3,0.7-2,0.9c-0.8,0.2-1.7,0.3-2.6,0.3s-1.8-0.1-2.7-0.3c-0.8-0.2-1.5-0.5-2.1-0.9s-1-0.9-1.4-1.4
	c-0.3-0.5-0.5-1.2-0.5-1.8v-0.2L270.3,137.1z"/>
<path class="st0" d="M286.8,124.2h11.9v1.3h-10.6v6.9h9v1.2h-9v6.6h10.6v1.3h-11.9V124.2z"/>
<path class="st0" d="M319.1,137.3c-0.8,1.3-1.9,2.5-3.2,3.3c-0.7,0.4-1.4,0.7-2.2,0.9c-2,0.5-4,0.4-5.9-0.4
	c-2.2-0.9-3.9-2.6-4.8-4.8c-0.5-1.1-0.7-2.3-0.7-3.5s0.2-2.4,0.7-3.5c0.9-2.2,2.6-3.9,4.8-4.8c1.1-0.5,2.3-0.7,3.5-0.7
	c0.8,0,1.6,0.1,2.4,0.3c0.8,0.2,1.5,0.5,2.1,0.9c0.7,0.4,1.3,0.9,1.8,1.4c0.5,0.6,1,1.2,1.4,1.8l-1.2,0.6c-0.3-0.6-0.7-1.1-1.2-1.5
	c-0.5-0.5-1-0.9-1.5-1.2c-0.6-0.3-1.2-0.6-1.8-0.8c-0.7-0.2-1.3-0.3-2-0.3c-1,0-2.1,0.2-3,0.6s-1.7,1-2.4,1.7
	c-0.7,0.7-1.3,1.5-1.6,2.4c-0.8,1.9-0.8,4.1,0,6c0.4,0.9,1,1.7,1.6,2.4c0.7,0.7,1.5,1.3,2.4,1.6c0.9,0.4,2,0.6,3,0.6
	c1.4,0,2.7-0.3,3.9-1c1.1-0.7,2.1-1.6,2.8-2.8L319.1,137.3z"/>
<path class="st0" d="M331.3,124.2c0.9,0,1.7,0.1,2.5,0.4c1.4,0.5,2.5,1.6,3,3c0.3,0.7,0.4,1.4,0.4,2.1c0,0.6-0.1,1.2-0.3,1.8
	c-0.2,0.6-0.4,1.1-0.8,1.6c-0.3,0.5-0.8,0.9-1.2,1.2c-0.5,0.4-1.1,0.6-1.7,0.8l4.5,6.4h-1.6l-4.4-6.1h-0.3H325v6.1h-1.3v-17.3H331.3
	z M325,125.4v8.7h6.3c0.7,0,1.4-0.1,2-0.4c0.6-0.2,1.1-0.6,1.5-1s0.7-0.9,0.9-1.4c0.2-0.5,0.3-1.1,0.3-1.6c0-0.6-0.1-1.1-0.3-1.6
	c-0.2-0.5-0.5-1-0.9-1.4s-0.9-0.8-1.5-1s-1.3-0.4-2-0.3H325z"/>
<path class="st0" d="M342.3,124.2h11.9v1.3h-10.6v6.9h9v1.2h-9v6.6h10.6v1.3h-11.9V124.2z"/>
<path class="st0" d="M357.2,124.2H371v1.3h-6.2v16h-1.3v-16h-6.2L357.2,124.2z"/>
<path class="st0" d="M380,124.2l7.9,17.3h-1.4l-1.8-3.9h-10.9l-1.8,3.9h-1.5l7.9-17.3H380z M374.4,136.3h9.7l-4.9-10.7L374.4,136.3z
	"/>
<path class="st0" d="M399.3,124.2c0.9,0,1.7,0.1,2.5,0.4c1.4,0.5,2.5,1.6,3,3c0.5,1.2,0.5,2.6,0.1,3.9c-0.2,0.6-0.4,1.1-0.8,1.6
	c-0.3,0.5-0.7,0.9-1.2,1.2c-0.5,0.4-1.1,0.6-1.7,0.8l4.5,6.4h-1.6l-4.4-6.1h-0.3H393v6.1h-1.3v-17.3H399.3z M393,125.4v8.7h6.3
	c0.7,0,1.4-0.1,2-0.4c0.6-0.2,1-0.6,1.5-1c0.4-0.4,0.7-0.9,0.9-1.4c0.2-0.5,0.3-1.1,0.3-1.6c0-0.6-0.1-1.1-0.3-1.6
	c-0.2-0.5-0.5-1-0.9-1.4s-0.9-0.8-1.5-1s-1.3-0.4-2-0.3H393z"/>
<path class="st0" d="M407.9,121.9l5.5-3.3l0.6,1.1l-5.6,3.1L407.9,121.9z M411.6,124.2v17.3h-1.3v-17.3H411.6z"/>
<path class="st0" d="M424.8,124.2l7.9,17.3h-1.4l-1.8-3.9h-10.8l-1.8,3.9h-1.5l7.9-17.3H424.8z M419.2,136.3h9.7l-4.9-10.7
	L419.2,136.3z"/>
<path class="st0" d="M444.2,124.2h6.8c1.2,0,2.4,0.2,3.5,0.7c1,0.4,1.8,1,2.5,1.8s1.2,1.7,1.5,2.7c0.7,2.2,0.7,4.6,0,6.8
	c-0.3,1-0.8,1.9-1.5,2.8c-0.7,0.8-1.5,1.4-2.5,1.8c-1.1,0.5-2.3,0.7-3.5,0.7h-6.8V124.2z M445.5,125.5v14.7h5.4c1,0,2-0.2,2.9-0.6
	c0.8-0.4,1.5-0.9,2.1-1.6c0.6-0.7,1-1.5,1.3-2.3c0.6-1.9,0.6-3.9,0-5.8c-0.3-0.9-0.7-1.6-1.3-2.3c-0.6-0.7-1.3-1.2-2.1-1.6
	c-0.9-0.4-1.9-0.6-2.9-0.6L445.5,125.5z"/>
<path class="st0" d="M463.9,124.2h11.9v1.3h-10.6v6.9h9v1.2h-9v6.6h10.6v1.3h-11.9V124.2z"/>
<path class="st0" d="M270,157.4h22.8v7.4h-15.2v4.2H290v6.9h-12.4v3.8h15.2v7.3H270V157.4z"/>
<path class="st0" d="M298.8,157.4h13.8c2.1,0,4.2,0.4,6.1,1.2c1.7,0.7,3.2,1.8,4.4,3.2c1.2,1.4,2.1,3,2.6,4.7
	c1.2,3.7,1.2,7.7,0,11.4c-0.6,1.7-1.5,3.3-2.6,4.7c-1.2,1.4-2.7,2.5-4.4,3.2c-1.9,0.8-4,1.2-6.1,1.2h-13.8V157.4z M306.4,164.8v14.9
	h5.6c1,0,2-0.2,3-0.6c0.8-0.3,1.6-0.9,2.2-1.5c0.6-0.7,1-1.5,1.3-2.4c0.3-1,0.4-2,0.4-3c0.1-2-0.5-3.9-1.8-5.4
	c-1.3-1.4-3.2-2.2-5.2-2.1L306.4,164.8z"/>
<path class="st0" d="M359.1,157.4v16.7c0,1.8-0.3,3.6-0.9,5.3c-0.6,1.6-1.5,3.1-2.6,4.3c-1.2,1.2-2.7,2.2-4.3,2.9
	c-3.8,1.4-7.9,1.4-11.7,0c-1.6-0.6-3.1-1.6-4.3-2.9c-1.2-1.2-2-2.7-2.6-4.3c-0.6-1.7-0.9-3.5-0.9-5.3v-16.7h7.6v16.2
	c-0.1,1.8,0.4,3.5,1.5,4.9c1.2,1.2,2.8,1.8,4.5,1.7c1.7,0.1,3.4-0.5,4.5-1.7c1.1-1.4,1.7-3.2,1.5-4.9v-16.2H359.1z"/>
<path class="st0" d="M394,179.1c-1.3,2.5-3.3,4.7-5.7,6.1c-1.2,0.8-2.6,1.3-4,1.7s-2.9,0.6-4.4,0.6c-2.1,0-4.1-0.4-6.1-1.2
	c-1.9-0.8-3.6-1.9-5-3.3c-1.4-1.4-2.6-3.1-3.4-4.9c-1.7-3.8-1.7-8.2,0-12c0.8-1.8,2-3.5,3.4-4.9s3.1-2.5,5-3.3
	c3.3-1.4,7-1.6,10.5-0.6c1.4,0.4,2.7,1,3.9,1.7c1.2,0.7,2.3,1.6,3.3,2.7c1,1,1.8,2.2,2.4,3.4l-6.9,3.1c-0.7-1.3-1.6-2.3-2.9-3.1
	s-2.7-1.2-4.2-1.2c-1.1,0-2.1,0.2-3.1,0.6c-1,0.4-1.8,1-2.6,1.7c-0.7,0.7-1.3,1.6-1.7,2.6c-0.8,2-0.8,4.3,0,6.3c0.4,1,1,1.8,1.7,2.6
	c0.7,0.7,1.6,1.3,2.6,1.7c2.4,1,5.1,0.8,7.4-0.5c1.2-0.7,2.2-1.8,2.9-3.1L394,179.1z"/>
<path class="st0" d="M415,157.4l12,29.6h-8.3l-1.6-4.3h-11.7l-1.6,4.3h-8.3l12-29.6H415z M411.2,167.1l-3.3,8.7h6.5L411.2,167.1z"/>
<path class="st0" d="M458.1,179.1c-1.3,2.5-3.3,4.6-5.7,6.1c-1.2,0.8-2.6,1.3-4,1.7c-3.4,1-7.1,0.8-10.4-0.6c-1.9-0.8-3.6-1.9-5-3.3
	c-1.4-1.4-2.6-3.1-3.4-4.9c-1.7-3.8-1.7-8.2,0-12c0.8-1.8,2-3.5,3.4-4.9s3.1-2.5,5-3.3s4-1.2,6.1-1.2c1.5,0,3,0.2,4.4,0.6
	c1.4,0.4,2.7,1,3.9,1.7c1.2,0.7,2.3,1.6,3.3,2.7c1,1,1.8,2.2,2.4,3.4l-6.9,3.1c-0.7-1.3-1.7-2.3-2.9-3.1c-2.2-1.3-5-1.5-7.4-0.5
	c-1,0.4-1.8,1-2.6,1.7c-0.7,0.7-1.3,1.6-1.7,2.6c-0.8,2-0.8,4.3,0,6.3c0.4,1,1,1.8,1.7,2.6c0.7,0.7,1.6,1.3,2.6,1.7
	c2.4,1,5.1,0.8,7.4-0.5c1.2-0.7,2.2-1.8,2.9-3.1L458.1,179.1z"/>
<path class="st0" d="M470.8,157.4V187h-7.6v-29.6H470.8z"/>
<path class="st0" d="M476.4,172.2c0-2.1,0.4-4.1,1.2-6c0.8-1.8,2-3.5,3.4-4.9s3.1-2.5,5-3.3s4-1.2,6.1-1.2s4.2,0.4,6.1,1.2
	s3.6,1.9,5,3.3c1.4,1.4,2.6,3.1,3.4,4.9c1.6,3.8,1.6,8.2,0,12c-0.8,1.8-2,3.5-3.4,4.9s-3.1,2.5-5,3.3s-4,1.2-6.1,1.2
	s-4.1-0.4-6.1-1.2c-1.9-0.8-3.6-1.9-5-3.3c-1.4-1.4-2.6-3.1-3.4-4.9C476.8,176.3,476.3,174.3,476.4,172.2z M484,172.2
	c0,1.1,0.2,2.2,0.6,3.1c0.4,1,1,1.8,1.7,2.6c0.7,0.7,1.6,1.3,2.6,1.7c2,0.8,4.3,0.8,6.3,0c1.9-0.8,3.5-2.3,4.3-4.3s0.8-4.3,0-6.3
	c-0.8-1.9-2.3-3.5-4.3-4.3s-4.3-0.8-6.3,0c-1,0.4-1.8,1-2.6,1.7c-0.7,0.7-1.3,1.6-1.7,2.6C484.2,170.1,484,171.1,484,172.2
	L484,172.2z M485.4,151.6l9.9-7l3.7,6.4l-11,5.1L485.4,151.6z"/>
<path class="st0" d="M513.4,187.1v-29.6h6.5L533,174v-16.6h7.6V187h-6.4L521,170.5V187h-7.6V187.1z"/>
<path class="st0" d="M283.2,213.8l6.6-10.8h9L287,221.8v10.9h-7.6v-10.9L267.7,203h8.9L283.2,213.8z"/>
<path class="st0" d="M342.5,224.7c-1.3,2.5-3.3,4.7-5.7,6.1c-1.2,0.8-2.6,1.3-4,1.7s-2.9,0.6-4.4,0.6c-2.1,0-4.1-0.4-6.1-1.2
	c-1.9-0.8-3.6-1.9-5-3.3c-1.4-1.4-2.6-3.1-3.4-4.9c-1.7-3.8-1.7-8.2,0-12c0.8-1.8,2-3.5,3.4-4.9s3.1-2.5,5-3.3
	c3.3-1.4,7-1.6,10.5-0.6c1.4,0.4,2.7,1,3.9,1.7c1.2,0.7,2.3,1.6,3.3,2.7c1,1,1.8,2.2,2.4,3.4l-6.9,3.1c-0.7-1.3-1.6-2.3-2.9-3.1
	s-2.7-1.2-4.2-1.2c-1.1,0-2.1,0.2-3.1,0.6c-1,0.4-1.8,1-2.6,1.7c-0.7,0.7-1.3,1.6-1.7,2.6c-0.8,2-0.8,4.3,0,6.3c0.4,1,1,1.8,1.7,2.6
	c0.7,0.7,1.6,1.3,2.6,1.7c2.4,1,5.1,0.8,7.4-0.5c1.2-0.7,2.2-1.8,2.9-3.1L342.5,224.7z"/>
<path class="st0" d="M374.4,203v16.7c0,1.8-0.3,3.6-0.9,5.3c-1.1,3.3-3.7,5.9-6.9,7.2c-3.8,1.4-7.9,1.4-11.7,0
	c-3.2-1.3-5.7-3.9-6.8-7.2c-0.6-1.7-0.9-3.5-0.9-5.3V203h7.6v16.2c-0.1,1.8,0.4,3.5,1.5,4.9c1.2,1.2,2.8,1.8,4.5,1.7
	c1.7,0.1,3.3-0.5,4.5-1.7c1.1-1.4,1.7-3.2,1.5-4.9V203H374.4z"/>
<path class="st0" d="M381,203h7.6v22.3h14.2v7.3H381V203z"/>
<path class="st0" d="M400.6,203h26.1v7.4h-9.2v22.3h-7.6v-22.3h-9.2L400.6,203L400.6,203z"/>
<path class="st0" d="M458.6,203v16.7c0,1.8-0.3,3.6-0.9,5.3c-0.6,1.6-1.5,3.1-2.6,4.3c-1.2,1.2-2.7,2.2-4.3,2.9
	c-3.8,1.4-7.9,1.4-11.7,0c-3.2-1.3-5.7-3.9-6.8-7.2c-0.6-1.7-0.9-3.5-0.9-5.3V203h7.6v16.2c-0.1,1.8,0.4,3.5,1.5,4.9
	c1.2,1.2,2.8,1.8,4.5,1.7c1.7,0.1,3.3-0.5,4.5-1.7c1.1-1.4,1.7-3.2,1.5-4.9V203H458.6z"/>
<path class="st0" d="M479.6,203c1.7,0,3.4,0.3,4.9,0.9c2.6,1,4.6,3.1,5.5,5.8c0.8,2.3,0.9,4.8,0.3,7.2c-0.2,1-0.6,1.9-1.1,2.8
	c-0.5,0.9-1.1,1.6-1.8,2.3c-0.8,0.7-1.6,1.3-2.6,1.7l6.4,9h-9.1l-5.6-7.9h-3.9v7.9H465V203H479.6z M472.7,209.9v7.9h6.5
	c0.7,0,1.3-0.1,1.9-0.3c0.5-0.2,0.9-0.5,1.3-0.9c0.3-0.4,0.6-0.8,0.7-1.2c0.1-0.5,0.2-1,0.2-1.5c0-1-0.3-2.1-1-2.9
	c-0.9-0.8-2-1.3-3.2-1.1H472.7z"/>
<path class="st0" d="M513.9,203l12,29.6h-8.3l-1.6-4.3h-11.7l-1.6,4.3h-8.3l12-29.6H513.9z M510.2,212.7l-3.3,8.7h6.5L510.2,212.7z"
	/>
</svg>
