<?xml version="1.0" encoding="iso-8859-1"?>
<!-- Generator: Adobe Illustrator 19.0.0, SVG Export Plug-In . SVG Version: 6.00 Build 0)  -->
<svg version="1.1" id="Layer_1" xmlns="http://www.w3.org/2000/svg" xmlns:xlink="http://www.w3.org/1999/xlink" x="0px" y="0px"
	 viewBox="0 0 512 512" style="enable-background:new 0 0 512 512;" xml:space="preserve">
<g>
	<g>
		<path d="M469.731,139.705c6.453-14.712,6.792-31.057,0.952-46.024c-1.724-4.42-6.704-6.608-11.128-4.882
			c-14.967,5.839-26.763,17.158-33.218,31.87c-1.19,2.712-2.169,5.481-2.942,8.285c-10.543-17.036-23.331-32.683-38.071-46.464
			c8.15-11.362,12.059-25.08,11.061-39.205c-1.132-16.026-8.436-30.651-20.569-41.183c-3.585-3.112-9.012-2.728-12.121,0.856
			c-13.05,15.033-17.288,34.755-13.182,52.823c-9.34-5.818-19.177-11.005-29.475-15.471c-4.352-1.886-9.413,0.111-11.302,4.465
			c-1.888,4.353,0.111,9.414,4.465,11.302c21.793,9.451,41.372,22.362,58.243,37.896c-1.812-0.298-3.645-0.523-5.499-0.659
			c-16.025-1.165-31.54,3.983-43.693,14.491c-3.589,3.104-3.983,8.53-0.88,12.12c11.879,13.737,28.661,20.78,45.538,20.78
			c12.313,0,24.675-3.758,35.214-11.394c14.503,21.045,25.143,44.692,31.222,69.767c-7.448,0.115-20.975-1.651-33.073-13.749
			c-0.183-0.183-0.376-0.359-0.575-0.525c-0.826-0.687-20.524-16.787-46.117-10.961c-19.562,4.452-36.526,20.162-50.524,46.752
			c-14.769-10.801-46.333-30.527-79.866-30.527c-13.021,0-28.414,2.958-44.711,6.088c-38.549,7.405-86.525,16.623-128.004-8.955
			c-2.458-1.517-5.514-1.696-8.132-0.478c-2.619,1.218-4.451,3.668-4.877,6.524c-0.449,3.012-10.494,74.438,33.323,132.21
			c25.671,33.848,64.259,55.615,114.848,64.829c-13.324,13.753-39,35.959-70.916,42.473c-2.352,0.48-4.396,1.922-5.637,3.978
			s-1.565,4.536-0.895,6.841c0.213,0.732,5.391,18.129,20.786,35.188c13.805,15.299,38.677,33.234,79.404,33.233
			c1.195,0,2.409-0.016,3.63-0.047c4.365-0.112,7.951-3.48,8.338-7.828c0.037-0.419,4.113-41.462,42.907-69.899h6.07
			c42.031,0,81.964-18.182,109.562-49.885c27.596-31.703,40.101-73.762,34.306-115.392c-2.826-20.309,6.811-40.042,23.893-50.47
			c2.046,14.2,2.653,28.743,1.684,43.436c-0.312,4.735,3.273,8.827,8.008,9.14c0.192,0.013,0.384,0.019,0.574,0.019
			c4.487,0,8.266-3.485,8.566-8.027c2.161-32.775-2.888-64.872-14.007-94.421C454.837,162.307,464.23,152.246,469.731,139.705z
			 M366.262,45.416c-0.576-8.156,1.136-16.124,4.888-23.166c4.704,6.444,7.519,14.092,8.094,22.248
			c0.576,8.156-1.135,16.123-4.888,23.165C369.652,61.219,366.837,53.571,366.262,45.416z M342.542,115.294
			c7.046-3.734,15.015-5.425,23.164-4.837c8.15,0.592,15.789,3.419,22.222,8.132C373.469,126.221,355.746,124.936,342.542,115.294z
			 M397.177,271.318c5.108,36.705-5.917,73.788-30.248,101.74c-24.332,27.952-59.541,43.984-96.6,43.984h-8.638
			c-1.39-0.066-13.789-0.766-25.56-4.894c-4.478-1.573-9.382,0.786-10.951,5.264c-1.571,4.478,0.787,9.38,5.264,10.952
			c3.563,1.25,7.148,2.233,10.549,3.01c-24.379,23.426-32.734,50.335-35.483,63.381c-48.34-1.566-69.102-32.379-76.444-47.635
			c40.254-11.942,69.227-43.273,78.294-54.087c1.772,0.076,3.98,0.136,6.558,0.136c17.06,0,49.922-2.636,74.451-20.731
			c3.818-2.817,4.631-8.197,1.814-12.015c-2.817-3.818-8.196-4.631-12.015-1.814c-27.876,20.565-71.419,17.226-73.758,17.028
			c-0.802-0.101-1.592-0.214-2.388-0.322c1.055-0.892,2.066-1.809,2.998-2.742c3.356-3.356,3.356-8.796,0-12.151
			c-3.356-3.356-8.796-3.356-12.151,0c-3.899,3.899-10.759,8.095-15.038,10.475c-9.528-2.235-18.536-4.98-27.011-8.241
			c3.524-1.688,7.111-3.77,10.497-6.344c3.778-2.871,4.513-8.261,1.642-12.039c-2.87-3.777-8.26-4.513-12.039-1.642
			c-8.027,6.101-18.076,8.56-22.688,9.419c-8.852-5.008-16.95-10.724-24.271-17.149c7.691-1.259,16.614-3.65,25.101-8.152
			c4.192-2.224,5.787-7.425,3.563-11.618c-2.225-4.192-7.427-5.788-11.618-3.563c-12.07,6.404-25.847,7.398-32.384,7.471
			c-1.031-1.258-2.047-2.528-3.034-3.825c-5.155-6.779-9.464-13.814-13.085-20.923c4.046,0.387,8.62,0.662,13.461,0.662
			c9.182,0,19.313-0.989,28.571-4.075c4.502-1.501,6.935-6.367,5.435-10.869c-1.502-4.502-6.367-6.936-10.869-5.435
			c-15.661,5.219-35.659,2.823-44.461,1.348c-3.101-8.774-5.304-17.42-6.844-25.606c10.769,3.425,27.226,6.951,49.378,6.951
			c4.745,0,8.592-3.847,8.592-8.592c0-4.745-3.847-8.592-8.592-8.592c-27.464,0-44.834-5.954-51.996-9.042
			c-0.757-8.908-0.817-16.674-0.631-22.625c43.766,20.836,90.22,11.911,128.177,4.619c15.469-2.972,30.082-5.78,41.467-5.78
			c38.684,0,76.89,32.795,77.266,33.121c0.032,0.028,0.068,0.049,0.099,0.077c0.041,0.036,0.078,0.073,0.119,0.108l27.983,22.8
			c1.595,1.299,3.514,1.932,5.422,1.932c2.494,0,4.967-1.08,6.666-3.165c2.997-3.679,2.445-9.091-1.234-12.089l-22.736-18.526
			c11.715-23.321,25.616-37.41,40.431-40.869c16.078-3.755,29.462,5.823,31.279,7.201c8.903,8.774,18.417,13.5,26.954,15.953
			C401.715,228.558,394.169,249.698,397.177,271.318z M438.891,151.033c-1.166-7.893-0.1-15.972,3.185-23.46
			c3.285-7.487,8.506-13.744,15.104-18.232c1.166,7.893,0.1,15.972-3.185,23.46C450.709,140.29,445.488,146.546,438.891,151.033z"/>
	</g>
</g>
<g>
	<g>
		<circle cx="367.222" cy="221.463" r="8.592"/>
	</g>
</g>
<g>
</g>
<g>
</g>
<g>
</g>
<g>
</g>
<g>
</g>
<g>
</g>
<g>
</g>
<g>
</g>
<g>
</g>
<g>
</g>
<g>
</g>
<g>
</g>
<g>
</g>
<g>
</g>
<g>
</g>
</svg>
