<?xml version="1.0" encoding="utf-8"?>
<!-- Generator: Adobe Illustrator 27.5.0, SVG Export Plug-In . SVG Version: 6.00 Build 0)  -->
<svg version="1.1" id="Capa_2_00000104666490793208814520000011992298953447981236_"
	 xmlns="http://www.w3.org/2000/svg" xmlns:xlink="http://www.w3.org/1999/xlink" x="0px" y="0px" viewBox="0 0 56.2 56.2"
	 style="enable-background:new 0 0 56.2 56.2;" xml:space="preserve">
<g id="Capa_1-2">
	<path d="M29.5,43.9c-0.1-0.2-0.3-0.3-0.4-0.5c-4.4-4.4-8.9-8.9-13.3-13.3c-1.6-1.6-1.8-4-0.4-5.6c1.5-1.9,4.2-2,6-0.3
		c1.6,1.6,3.2,3.2,4.8,4.8c0.1,0.1,0.3,0.3,0.5,0.5c0.8-1.8,2.1-2.7,4-2.8c0.7-3.6,2.5-4.7,6-3.8c0.4-0.6,0.7-1.2,1.1-1.6
		c1.6-1.7,4.1-1.7,5.8-0.1c1.9,1.9,3.8,3.8,5.6,5.6c0.1,0.1,0.3,0.3,0.5,0.4V10.1H2.2v0.6c0,9.5,0,18.9,0,28.4
		c0,1.4,0.5,1.9,1.9,1.9c3.9,0,7.8,0,11.7,0c0.2,0,0.4,0,0.6,0c0.6,0.1,1,0.5,1,1.1c0,0.6-0.5,1-1.1,1c-1,0-2.1,0-3.1,0
		c-3.1,0-6.2,0-9.2,0c-2.4,0-4-1.6-4-4C0,27.5,0,15.7,0,4c0-2.4,1.6-4,4-4c14.6,0,29.2,0,43.8,0c2.4,0,4,1.6,4,4c0,8.3,0,16.6,0,25
		c0,0.5,0.1,0.8,0.4,1.1c3.9,4.6,5,9.8,3.1,15.5c-1.9,5.6-5.9,9-11.7,10.3c-2.8,0.6-5.6,0.3-8.3-0.6c-3.6-1.2-7.2-2.5-10.8-3.8
		c-3.1-1.1-3.9-4.9-1.6-7.1c1-1,2.3-1.3,3.7-1C27.5,43.6,28.4,43.8,29.5,43.9L29.5,43.9L29.5,43.9z M54,39.9c0-3-1.2-6.2-3.8-8.8
		c-2.7-2.8-5.4-5.5-8.2-8.2c-0.3-0.3-0.7-0.5-1-0.6c-0.8-0.2-1.6,0.2-2,0.9c-0.4,0.7-0.3,1.6,0.3,2.2c1.3,1.4,2.7,2.7,4.1,4.1
		c0.2,0.1,0.3,0.3,0.4,0.5c0.3,0.4,0.2,1-0.2,1.3s-0.9,0.4-1.3,0.2c-0.2-0.1-0.3-0.3-0.5-0.4c-1.9-1.9-3.8-3.8-5.7-5.7
		c-0.5-0.5-1-0.7-1.7-0.6c-0.7,0.1-1.2,0.5-1.4,1.2c-0.2,0.8-0.1,1.4,0.5,2c1.9,1.9,3.8,3.8,5.6,5.6c0.1,0.1,0.3,0.2,0.4,0.4
		c0.4,0.5,0.3,1.1-0.1,1.5c-0.4,0.4-1,0.4-1.4,0c-0.1-0.1-0.3-0.2-0.4-0.4c-1.8-1.8-3.7-3.7-5.5-5.5c-0.5-0.5-1.1-0.8-1.9-0.6
		c-1.5,0.4-1.9,2.1-0.8,3.2c1.8,1.8,3.5,3.5,5.3,5.3c0.2,0.2,0.3,0.3,0.4,0.5c0.3,0.4,0.3,1-0.1,1.4c-0.4,0.4-0.9,0.5-1.4,0.1
		c-0.2-0.1-0.3-0.3-0.5-0.5c-4.3-4.3-8.6-8.6-12.9-13c-0.2-0.2-0.4-0.4-0.6-0.5c-0.8-0.5-1.8-0.4-2.4,0.3c-0.6,0.7-0.6,1.7-0.1,2.4
		c0.1,0.2,0.3,0.3,0.4,0.5c5.4,5.4,10.9,10.9,16.3,16.3c0.5,0.5,0.7,1,0.4,1.5c-0.3,0.5-0.7,0.6-1.5,0.5c-2.1-0.5-4.1-1-6.2-1.5
		c-0.8-0.2-1.5-0.1-2.1,0.5c-1,1.1-0.6,2.8,0.9,3.3c3.2,1.2,6.5,2.2,9.8,3.4c1.6,0.6,3.2,1,4.9,1.1C47.5,54.3,53.9,48.2,54,39.9
		L54,39.9z M2.2,7.8h47.4c0-1.4,0-2.8,0-4.2c0-0.3-0.2-0.7-0.4-0.9c-0.4-0.5-1-0.5-1.5-0.5c-14.5,0-29,0-43.5,0c-0.2,0-0.3,0-0.5,0
		C2.8,2.3,2.2,2.8,2.2,3.7C2.2,5,2.2,6.4,2.2,7.8z"/>
	<path d="M9.1,16.8c0.4,0.2,0.7,0.4,0.9,0.6c1.3,1.3,2.6,2.6,3.9,3.9c0.5,0.5,0.6,1.2,0.1,1.6c-0.5,0.4-1.1,0.4-1.6-0.1
		c-1.3-1.3-2.6-2.6-4-4c-0.3-0.3-0.5-0.8-0.3-1.2C8.4,17.3,8.7,17.1,9.1,16.8L9.1,16.8z"/>
	<path d="M19.2,18.8c0,0.4,0,0.8,0,1.2c0,0.6-0.5,1.1-1.1,1.1c-0.5,0-1.1-0.4-1.1-1c0-0.8,0-1.7,0-2.5c0-0.6,0.5-1,1.1-1
		c0.6,0,1,0.5,1,1.1C19.2,18,19.2,18.4,19.2,18.8L19.2,18.8z"/>
	<path d="M9.9,28c-0.4,0-0.8,0-1.2,0c-0.6,0-1-0.5-1-1c0-0.6,0.3-1.1,0.9-1.1c0.9,0,1.8,0,2.6,0c0.6,0,1,0.5,1,1.1s-0.4,1-1.1,1
		c0,0-0.1,0-0.1,0C10.6,28,10.3,28,9.9,28L9.9,28L9.9,28z"/>
	<path d="M21.6,42.1c0,0.6-0.5,1.1-1.1,1.1c-0.6,0-1.1-0.5-1.1-1.1c0-0.6,0.5-1.1,1.1-1.1C21.2,41,21.6,41.5,21.6,42.1L21.6,42.1z"
		/>
	<path d="M33.9,6.1c-3.6,0-7.3,0-10.9,0c-0.2,0-0.4,0-0.6,0c-0.5-0.1-0.9-0.5-0.9-1c0-0.5,0.4-1,0.9-1.1c0.1,0,0.3,0,0.5,0
		c7.4,0,14.8,0,22.2,0c0.2,0,0.3,0,0.5,0c0.6,0.1,0.9,0.5,0.9,1.1c0,0.5-0.4,1-0.9,1c-0.3,0-0.5,0-0.8,0C41,6.2,37.4,6.2,33.9,6.1
		L33.9,6.1z"/>
	<path d="M11.7,5c0,0.6-0.5,1.1-1.1,1.1C10,6.1,9.5,5.6,9.5,5c0-0.6,0.5-1.1,1.1-1C11.2,4,11.7,4.4,11.7,5z"/>
	<path d="M15.7,5c0,0.6-0.4,1.1-1.1,1.1c-0.6,0-1.1-0.5-1.1-1.1C13.5,4.4,14,4,14.6,4S15.7,4.4,15.7,5L15.7,5z"/>
	<path d="M7.6,5c0,0.6-0.5,1.1-1.1,1.1C5.9,6.1,5.4,5.6,5.5,5c0-0.6,0.5-1.1,1.1-1C7.2,4,7.6,4.4,7.6,5L7.6,5z"/>
</g>
</svg>
