<?xml version="1.0" encoding="UTF-8"?>
<svg xmlns="http://www.w3.org/2000/svg" id="Image" viewBox="0 0 64 64" width="512" height="512"><path d="M62.283,14.162l.707-4.949a1,1,0,0,0-.283-.849L55.636,1.293a1,1,0,0,0-.849-.283l-4.95.707a1.075,1.075,0,0,0-.819.715l-2.249,7.852A20,20,0,0,0,18.1,19.7a1,1,0,0,0,1.012,1.386,21.5,21.5,0,0,1,4.229.038,1,1,0,0,0,.983-.506A14,14,0,1,1,43.382,39.677a1,1,0,0,0-.506.983,21.627,21.627,0,0,1,.039,4.229A1,1,0,0,0,44.3,45.9a19.992,19.992,0,0,0,9.41-28.676l7.857-2.243A1.028,1.028,0,0,0,62.283,14.162Zm-1.7-2.263L59.017,10.33l1.06-1.768.862.863ZM50.473,4.615l1.768,1.768-3.39,5.332c-.112-.088-.225-.172-.338-.256Zm8.146,2.49-1.06,1.768L55.127,6.441,56.9,5.38Zm-2.45,3.206-5.2,3.3c-.1-.1-.491-.486-.591-.581l3.309-5.2ZM52.3,15.141l5.319-3.382,1.767,1.767-6.838,1.951C52.463,15.365,52.386,15.255,52.3,15.141ZM55.437,3.923l-1.768,1.06L52.1,3.414l2.475-.353ZM45,43.355c.012-.713-.01-1.506-.071-2.266A16,16,0,1,0,22.911,19.074c-.726-.058-1.484-.085-2.266-.071A18.005,18.005,0,1,1,45,43.355Z"/><path d="M26.146,23.673a1.017,1.017,0,0,0-1.25.852,12.531,12.531,0,0,0-.271,4.308,1,1,0,0,0,.689.85,13.971,13.971,0,0,1,9,9,1,1,0,0,0,.846.687,13.06,13.06,0,0,0,4.307-.27,1.009,1.009,0,0,0,.856-1.25A20.008,20.008,0,0,0,26.146,23.673ZM36,37.436A15.984,15.984,0,0,0,26.566,28a9.989,9.989,0,0,1,.1-2.086A18.013,18.013,0,0,1,38.085,37.331,10.23,10.23,0,0,1,36,37.436Z"/><path d="M17.224,32.637A20.031,20.031,0,0,0,31.363,46.776a1,1,0,0,0,1.176-.572,9.2,9.2,0,0,0,.473-4.706,1,1,0,0,0-.664-.683,14.032,14.032,0,0,1-9.163-9.173,1,1,0,0,0-.718-.673,8.1,8.1,0,0,0-4.671.492A1,1,0,0,0,17.224,32.637Zm4.25.193a16.055,16.055,0,0,0,9.668,9.69,9.439,9.439,0,0,1-.189,2.05A18.056,18.056,0,0,1,19.421,33.021,6.592,6.592,0,0,1,21.474,32.83Z"/><path d="M38.607,48.838a20.815,20.815,0,0,1-4.217.1,1,1,0,0,0-.977.534A14,14,0,1,1,14.532,30.587a1,1,0,0,0,.534-.976,20.6,20.6,0,0,1,.1-4.219,1,1,0,0,0-1.352-1.056A20,20,0,1,0,39.663,50.189,1,1,0,0,0,38.607,48.838ZM21,61a18,18,0,0,1-7.971-34.139,22.613,22.613,0,0,0,0,2.27A16,16,0,1,0,34.869,50.973c.694.036,1.485.037,2.269,0A18.122,18.122,0,0,1,21,61Z"/><path d="M10.293,15.707a1,1,0,0,0,1.414-1.414l-3-3a1,1,0,1,0-1.414,1.414Z"/><path d="M49.707,52.293a1,1,0,0,0-1.414,1.414l3,3a1,1,0,0,0,1.414-1.414Z"/><path d="M18,13a1,1,0,0,0,1-1V8a1,1,0,0,0-2,0v4A1,1,0,0,0,18,13Z"/><path d="M56,45H52a1,1,0,0,0,0,2h4a1,1,0,0,0,0-2Z"/><path d="M4,23H8a1,1,0,0,0,0-2H4a1,1,0,0,0,0,2Z"/><path d="M42,55a1,1,0,0,0-1,1v4a1,1,0,0,0,2,0V56A1,1,0,0,0,42,55Z"/></svg>
