<?xml version="1.0" encoding="utf-8"?>
<!-- Generator: Adobe Illustrator 27.5.0, SVG Export Plug-In . SVG Version: 6.00 Build 0)  -->
<svg version="1.1" id="Capa_2_00000006686289391973365290000016848672312006004614_"
	 xmlns="http://www.w3.org/2000/svg" xmlns:xlink="http://www.w3.org/1999/xlink" x="0px" y="0px" viewBox="0 0 58.6 58.3"
	 style="enable-background:new 0 0 58.6 58.3;" xml:space="preserve">
<g id="Capa_1-2">
	<path d="M0,57.6c0-1,0-1.9,0-2.9c0.1-0.2,0.2-0.3,0.2-0.5c0.4-0.9,1.1-1.6,2-1.7C2.9,52.4,3,52.1,3,51.6c-0.1-1.1,0.3-2,1.3-2.6
		c0.6-0.3,0.7-0.7,0.7-1.3c-0.1-1.3,0.5-2.2,1.6-2.8c0.2-0.1,0.3-0.3,0.3-0.5c0-4.7,0-9.5,0-14.2c0-0.2-0.2-0.5-0.4-0.6
		c-1-0.6-1.6-1.4-1.6-2.6c0-0.4,0-0.9,0-1.3c0-0.2,0-0.4-0.1-0.6c-0.9-2-1.9-4-3.7-5.4c-0.4-0.3-0.8-0.8-1.1-1.1c0-0.2,0-0.5,0-0.7
		c0.3-0.2,0.5-0.5,0.9-0.7C10,11.5,19.2,5.9,28.3,0.3c0.7-0.4,1.3-0.4,2,0c9.1,5.6,18.3,11.2,27.4,16.8c0.3,0.2,0.6,0.5,0.9,0.8v0.7
		c-0.6,0.6-1.1,1.2-1.8,1.8c-1,0.9-1.7,1.9-2.2,3.1c-0.6,1.2-1,2.3-0.9,3.7c0.1,1.1-0.5,1.9-1.5,2.5c-0.3,0.2-0.4,0.4-0.4,0.8
		c0,4.4,0,8.7,0,13.1c0,0.8,0,1.4,0.9,1.9c1,0.6,1.2,1.7,1.1,2.8c0,0.4,0.1,0.6,0.4,0.8c0.9,0.5,1.5,1.2,1.5,2.2
		c0,0.9,0.2,1.3,1.2,1.5c1,0.2,1.5,1.1,1.8,2.1v2.9c-0.3,0.5-0.8,0.7-1.4,0.7c-18.6,0-37.2,0-55.8,0C0.8,58.2,0.3,58.1,0,57.6
		L0,57.6z M51.2,20.1c-0.2-0.1-0.3-0.2-0.4-0.3c-7-4.3-14-8.6-21-13c-0.3-0.2-0.5-0.1-0.8,0c-7,4.3-14,8.6-20.9,12.9
		c-0.1,0.1-0.3,0.2-0.5,0.3H51.2z M56.6,56.3c0.2-1.5,0-2-1.6-2c-6.4,0-12.8,0-19.2,0c-0.3,0-0.5,0-0.8,0c-0.5-0.1-0.8-0.5-0.7-1
		c0-0.5,0.3-0.8,0.8-0.9c0.2,0,0.5,0,0.7,0c5.7,0,11.5,0,17.2,0c0.2,0,0.5,0,0.8,0c0-0.4,0-0.7,0-1c0-0.6-0.4-0.9-0.9-1
		c-0.2,0-0.4,0-0.6,0c-15.3,0-30.5,0-45.8,0c-0.2,0-0.5-0.1-0.7,0c-0.3,0.2-0.6,0.4-0.7,0.7c-0.1,0.3,0,0.8,0,1.2c0.3,0,0.5,0,0.7,0
		c5.7,0,11.5,0,17.2,0c0.2,0,0.5,0,0.7,0c0.5,0.1,0.8,0.4,0.8,0.9c0,0.5-0.2,0.9-0.7,1c-0.3,0-0.5,0-0.8,0c-6.5,0-12.9,0-19.4,0
		c-0.2,0-0.4,0-0.6,0c-0.5,0-0.8,0.3-0.8,0.8c-0.1,0.4,0,0.7,0,1.1L56.6,56.3L56.6,56.3z M26.4,48.4h5.9c0-0.2,0-0.4,0-0.7
		c0-1.3,0.5-2.3,1.7-2.9c0.2-0.1,0.3-0.4,0.3-0.5c0-4.7,0-9.4,0-14.1c0-0.2-0.2-0.5-0.3-0.6c-1.1-0.6-1.6-1.5-1.6-2.8
		c0-0.3,0-0.5,0-0.8h-5.9c0,0.2,0,0.4,0,0.6c0,1.3-0.5,2.3-1.7,3c-0.1,0.1-0.3,0.4-0.3,0.5c0,4.7,0,9.4,0,14.1
		c0,0.3,0.1,0.5,0.4,0.6c1,0.5,1.6,1.4,1.6,2.6C26.4,47.8,26.4,48.1,26.4,48.4z M2.5,18.4c0.4,0.4,0.8,0.7,1.1,1
		c0.3,0.4,0.6,0.4,1,0.1c7.9-4.9,15.9-9.8,23.9-14.7c0.6-0.4,1.1-0.4,1.7,0c7.9,4.9,15.9,9.8,23.9,14.7c0.2,0.1,0.3,0.2,0.5,0.3
		c0.5-0.5,1-1,1.5-1.5c-0.2-0.1-0.4-0.3-0.6-0.4C46.9,12.8,38.3,7.5,29.8,2.3c-0.4-0.2-0.6-0.2-1,0C22,6.5,15.1,10.7,8.2,14.9
		C6.4,16,4.5,17.2,2.5,18.4L2.5,18.4z M53.1,22.1H5.5C5.8,22.6,6,23,6.2,23.4c0.2,0.5,0.5,0.6,1,0.6c14.8,0,29.6,0,44.3,0
		c0.1,0,0.3,0,0.4,0c0.1,0,0.3-0.1,0.3-0.2C52.5,23.3,52.8,22.7,53.1,22.1L53.1,22.1z M8.8,29.9v14.6h3.8V29.9H8.8z M18.6,29.9v14.6
		h3.8V29.9H18.6z M40,44.5V29.9h-3.8v14.6H40z M46,44.5h3.8V29.9H46V44.5z M15.6,45.2c1-0.2,1.1-0.9,1-1.7c0-4.2,0-8.4,0-12.6
		c0-0.8-0.1-1.4-0.9-1.7c0,0-0.1,0,0,0c-1,0.2-1.1,0.9-1.1,1.7c0,4.1,0,8.2,0,12.2v1.5C15,44.9,15.3,45.1,15.6,45.2L15.6,45.2z
		 M43,29.2c-0.9,0.2-1,0.9-1,1.7c0,4.2,0,8.4,0,12.6c0,0.8,0.1,1.5,1.1,1.7c0,0,0.2-0.1,0.3-0.2c0.6-0.2,0.6-0.6,0.6-1.1
		c0-4.3,0-8.7,0-13C44,30.1,44,29.4,43,29.2L43,29.2z M6.9,26c0,0.3,0,0.6,0,0.9c0,0.6,0.4,1,1,1c2,0,3.9,0,5.9,0
		c0.6,0,0.9-0.4,0.9-0.9c0-0.3,0-0.6,0-1H6.9L6.9,26z M24.4,26h-7.8c0,0.3,0,0.6,0,1c0,0.6,0.4,1,0.9,1c2,0,4,0,5.9,0
		c0.5,0,0.9-0.4,0.9-0.9C24.4,26.7,24.4,26.4,24.4,26L24.4,26z M34.2,26c0,0.4,0,0.7,0,1c0,0.6,0.4,0.9,1,0.9c2,0,3.9,0,5.9,0
		c0.5,0,0.9-0.4,1-0.9c0-0.3,0-0.7,0-1H34.2z M44,26c0,0.3,0,0.6,0,0.9c0,0.6,0.4,1,1,1c2,0,3.9,0,5.9,0c0.6,0,0.9-0.4,0.9-0.9
		c0-0.3,0-0.6,0-1L44,26L44,26z M6.8,48.4h7.8c0-0.2,0-0.3,0-0.5c0-1.1-0.3-1.4-1.4-1.4c-1.7,0-3.5,0-5.2,0c-0.8,0-1.2,0.3-1.2,1.2
		C6.9,47.9,6.9,48.1,6.8,48.4L6.8,48.4z M16.6,48.4h7.8c0-0.3,0-0.6,0-0.8c0-0.7-0.4-1.1-1-1.1c-1.9,0-3.8,0-5.7,0c-0.7,0-1,0.4-1,1
		C16.6,47.8,16.6,48.1,16.6,48.4L16.6,48.4z M42,48.4c0-0.3,0-0.6,0-0.9c0-0.7-0.4-1-1-1.1c-1.9,0-3.8,0-5.8,0c-0.5,0-0.9,0.3-1,0.8
		c0,0.4,0,0.7,0,1.1C34.2,48.4,42,48.4,42,48.4z M44,48.4h7.8c0-0.3,0-0.6,0-0.9c0-0.6-0.4-1-0.9-1c-2,0-3.9,0-5.9,0
		c-0.6,0-0.9,0.4-1,1C44,47.8,44,48.1,44,48.4L44,48.4z"/>
	<path d="M33.2,13.8c0,2.1-1.8,3.9-3.9,3.9c-2.2,0-3.9-1.8-3.9-4c0-2.1,1.8-3.8,3.9-3.8C31.5,9.9,33.2,11.7,33.2,13.8L33.2,13.8z
		 M31.3,13.8c0-1.1-0.9-2-1.9-2c-1.1,0-2,0.9-2,2c0,1.1,0.8,1.9,1.9,1.9C30.4,15.8,31.2,14.9,31.3,13.8z"/>
</g>
</svg>
