<?xml version="1.0" encoding="utf-8"?>
<!-- Generator: Adobe Illustrator 27.5.0, SVG Export Plug-In . SVG Version: 6.00 Build 0)  -->
<svg version="1.1" id="Capa_2_00000108308901285507899110000010477936452439434909_"
	 xmlns="http://www.w3.org/2000/svg" xmlns:xlink="http://www.w3.org/1999/xlink" x="0px" y="0px" viewBox="0 0 64.3 52.9"
	 style="enable-background:new 0 0 64.3 52.9;" xml:space="preserve">
<g id="Capa_1-2">
	<path d="M0,31.1c0.2-1.3,0.4-2.6,0.8-3.9C3,20,7.7,15.3,14.9,13.1c0.1,0,0.3-0.1,0.5-0.2c-0.3-0.4-0.6-0.7-0.9-1
		c-1.5-1.7-2.9-3.3-4.4-5c-0.5-0.6-0.6-1,0-1.6c1.3-1.6,2.6-3.2,3.9-4.8C14.3,0.2,14.7,0,15.2,0c3.4,0,6.8,0,10.2,0
		c0.4,0,0.8,0.2,1.1,0.5c1.4,1.6,2.7,3.2,4,4.8c0.4,0.6,0.4,0.9-0.1,1.5c-1.6,1.9-3.2,3.7-4.8,5.5c-0.1,0.1-0.3,0.3-0.4,0.5
		c2.6,0.7,4.9,1.7,7,3.2c1.2-0.7,2.4-1.4,3.7-2C48,8.6,62.1,16.4,64.1,29.8c0.1,0.5,0.2,0.9,0.2,1.4v3c-0.1,0.7-0.2,1.5-0.3,2.2
		c-2.6,14.4-19.3,21.3-31.3,13c-0.4-0.2-0.6-0.2-0.9,0c-4.4,3-9.2,4.2-14.4,3.3C8.8,51.2,3.3,46.2,0.8,38c-0.4-1.2-0.5-2.5-0.8-3.8
		C0,33.2,0,32.1,0,31.1z M27.8,20.5c-0.1-0.1-0.2-0.1-0.3-0.2c-5-3-11.5-2.5-16.1,1.1c-0.2,0.2-0.4,0.4-0.6,0.5
		c-0.4,0.2-0.8,0.2-1.1-0.2c-0.3-0.4-0.4-0.8,0-1.2c0.1-0.2,0.3-0.3,0.5-0.5c7.9-6.4,19.8-4,24.5,5c1,1.8,1.6,3.7,1.8,5.8
		c0,0.3-0.1,0.8-0.4,1c-0.2,0.2-0.7,0.2-0.9,0.1c-0.3-0.2-0.5-0.6-0.6-1c-0.3-1-0.4-2-0.7-2.9c-0.3-1.1-0.9-2.2-1.6-3.2
		c-3.5,5-2.9,12.1,0,15.7c0.2-0.3,0.3-0.5,0.5-0.8c0.9-1.5,1.4-3.2,1.7-4.9c0.1-0.6,0.6-0.9,1.1-0.8c0.5,0.1,0.8,0.6,0.7,1.2
		c-0.4,2.3-1.2,4.5-2.5,6.4c-0.1,0.2-0.2,0.4-0.3,0.4c0.5,0.6,1,1.1,1.4,1.6c5.3-6.8,5.2-17.8-2.4-24.6c-7.6-6.8-19.2-6.1-26,1.6
		C-0.2,28,0.5,39.7,8.1,46.4c7.5,6.6,17.6,5.2,22.4,1.4c-0.5-0.5-0.9-1-1.4-1.5c-0.2,0.1-0.3,0.2-0.5,0.3c-3.2,1.9-6.7,2.6-10.4,2.1
		C6.4,47.2,0.2,33.9,6.6,23.9c0.1-0.2,0.2-0.4,0.4-0.6c0.3-0.4,0.8-0.4,1.2-0.2c0.4,0.3,0.6,0.7,0.4,1.2c-0.1,0.2-0.2,0.4-0.3,0.5
		c-2.1,3.3-2.8,6.9-2,10.7c1.7,7.8,9.1,12.7,17,11.1c1.6-0.3,3.2-1,4.6-1.9C22.5,36.7,22.5,28.6,27.8,20.5L27.8,20.5z M29.5,21.6
		c-5.5,7.1-5.2,18.2,2.6,25c7.7,6.6,19.3,5.7,25.9-2c6.6-7.8,5.7-19.4-2.2-26c-7.5-6.3-17.4-4.8-22-1.1c0.5,0.5,0.9,1,1.4,1.5
		c0.2-0.1,0.3-0.2,0.5-0.3c3.3-2,6.9-2.7,10.7-2.1c11.2,1.7,17.3,14,11.8,23.9c-0.1,0.3-0.3,0.5-0.5,0.8c-0.3,0.4-0.8,0.5-1.2,0.2
		c-0.4-0.3-0.5-0.7-0.4-1.2c0.1-0.2,0.3-0.5,0.4-0.7c1.5-2.8,2.1-5.9,1.6-9c-1.3-8.1-8.5-13.3-16.6-12c-1.8,0.3-3.5,1-5.1,2
		c5.3,8.1,5.3,16.2,0,24.3c0.1,0,0.2,0.1,0.2,0.2c4.4,2.5,8.9,2.7,13.4,0.6c1.4-0.6,2.5-1.7,3.8-2.5c0.3-0.2,0.7-0.3,1.1-0.2
		c0.2,0.1,0.6,0.5,0.6,0.8c0,0.3-0.2,0.7-0.5,0.9c-4.3,3.9-9.4,5.3-15,3.9c-10.9-2.7-15.7-15.4-9.5-24.8c0.1-0.1,0.2-0.3,0.3-0.4
		C30.4,22.6,30,22.1,29.5,21.6L29.5,21.6z M17.8,7.1c0.6,1.7,1.2,3.4,1.7,5c0.2,0.5,0.5,0.3,0.8,0.3c0.3,0.1,0.5,0,0.6-0.4
		c0.5-1.4,0.9-2.8,1.4-4.2c0.1-0.2,0.2-0.5,0.2-0.8H17.8z M17.8,5.1h4.9c-0.1-0.4-0.2-0.8-0.3-1.1c-0.2-0.7-0.3-1.7-0.8-2
		C21,1.7,20,1.9,19.3,1.9c-0.1,0-0.1,0-0.2,0C19,2,18.8,2,18.8,2.1C18.4,3.1,18.1,4.1,17.8,5.1L17.8,5.1z M27.7,7.1
		c-1,0-1.8,0-2.5,0c-0.4,0-0.5,0.1-0.6,0.5c-0.3,0.9-0.6,1.8-0.9,2.7c-0.2,0.7-0.5,1.4-0.8,2.2c0,0,0.1,0,0.1,0.1
		C24.5,10.7,26,9,27.7,7.1L27.7,7.1z M12.8,7.1c1.6,1.9,3.2,3.6,4.7,5.4c-0.5-1.8-1-3.5-1.6-5.1c0-0.1-0.3-0.2-0.4-0.2
		C14.6,7.1,13.8,7.1,12.8,7.1z M12.7,5.2c1,0,1.9,0,2.7,0c0.1,0,0.3-0.1,0.4-0.2c0.4-1,0.7-2,1.1-3.2c-0.7,0.1-1.3,0-1.6,0.3
		C14.3,3,13.6,4.1,12.7,5.2L12.7,5.2z M27.8,5.2c-0.8-0.9-1.5-1.7-2-2.6c-0.5-0.8-1.2-0.8-2.1-0.7c0.3,1,0.6,2,1,2.9
		c0,0.1,0.3,0.3,0.4,0.3C25.9,5.2,26.7,5.2,27.8,5.2L27.8,5.2z"/>
</g>
</svg>
