<?xml version="1.0" encoding="UTF-8"?><svg id="Capa_2" xmlns="http://www.w3.org/2000/svg" viewBox="0 0 35.08 54.69"><defs><style>.cls-1{fill:#000000;}</style></defs><g id="Capa_1-2"><path class="cls-1" d="m3.86,48.33c-.43-.63-.87-1.24-1.27-1.88-.94-1.48-1.61-3.08-2.05-4.78-.19-.72.04-1.23.61-1.38.57-.15,1,.19,1.23.87.36,1.06.78,2.1,1.18,3.15.04.1.11.18.13.22.41-1.04.75-2.14,1.26-3.15,1.63-3.24,4.21-5.45,7.57-6.8,1.85-.75,3.68-1.55,5.51-2.32.16-.07.3-.15.53-.25-.23-.1-.39-.19-.56-.25-3.33-1.35-6.65-2.73-10-4.04-2.32-.91-4.28-2.25-5.78-4.43-.02.28-.03.44-.03.6-.07,2.82-.13,5.64-.2,8.47,0,.17,0,.35-.04.52-.09.41-.48.72-.89.73-.44.01-.84-.28-.94-.71-.03-.12-.04-.25-.03-.38.13-5.34.12-10.69.42-16.03.37-6.54,3.58-11.49,9.41-14.46,5.87-3,11.78-2.67,17.31.94,5.32,3.47,7.92,8.56,7.84,14.92-.08,6.48-.3,12.97-.43,19.45-.08,4.09-1.33,7.74-3.9,10.93-.2.24-.39.49-.58.74-.6.57-1.19,1.14-1.79,1.71-.57.4-1.11.84-1.71,1.19-6.29,3.72-12.57,3.72-18.82-.09-.78-.47-1.48-1.08-2.21-1.63-.59-.62-1.18-1.24-1.77-1.86ZM15.46,7.72s-.05-.17-.08-.31c-.42-1.71.83-3.38,2.56-3.42.41,0,.75.1.96.49.35.66-.04,1.3-.85,1.41-.53.07-.85.4-.84.85,0,.45.36.78.88.83.08,0,.16,0,.24.01,6.1.36,10.18,6.44,8.17,12.21-.22.64-.54,1.24-.81,1.86,1.87,1.7,2.2,1.8,3.65,4.97.03,0,.07,0,.09-.02.08-.07.17-.15.25-.22,1.53-1.52,2.6-3.32,3.13-5.4,1.58-6.32-1.16-13.52-7.52-17.03C17.56-.3,8.08,2.62,4.04,10.43c-1.24,2.4-1.82,4.99-1.67,7.67.14,2.57,1.42,4.62,3.4,6.24.21.18.45.32.69.49.74-1.32,1.69-2.41,2.88-3.25.35-.25.38-.41.19-.78-2.03-4.1-.73-9.05,3.08-11.6.87-.58,1.86-.98,2.84-1.48Zm17.52,24.08c-.06,0-.11-.01-.17-.02-.04.05-.07.09-.11.14-1.65,2.51-3.89,4.29-6.67,5.44-4.54,1.89-9.07,3.83-13.6,5.77-2.41,1.03-4.26,2.7-5.6,4.95-.18.3-.15.46.12.66.6.44,1.15.95,1.77,1.36,9.8,6.51,22.74.31,23.91-11.24.21-2.11.15-4.25.23-6.37,0-.23.08-.47.12-.7ZM12.76,11.49c-2.91,2.77-3.04,7.39-.28,10.3,2.78,2.93,7.42,3.06,10.34.28,2.93-2.78,3.03-7.43.24-10.34-2.79-2.91-7.39-3.02-10.3-.24Zm-7.41,35.15s.06.01.1.02c.03-.03.07-.06.1-.1,1.54-2.36,3.61-4.1,6.2-5.21,4.64-1.98,9.31-3.9,13.93-5.93,4.15-1.82,6.54-5.05,7.25-9.53.03-.17.03-.35.06-.66-.12.18-.16.23-.2.28-1.52,2.29-3.52,4.03-6.05,5.11-4.61,1.98-9.23,3.92-13.85,5.88-3.68,1.56-6.06,4.27-7.15,8.1-.19.66-.27,1.35-.4,2.02Zm2.82-20.93c.19.08.35.16.51.22,3.61,1.46,7.24,2.87,10.81,4.41,1.16.5,2.12.55,3.24-.03,1.41-.74,2.92-1.3,4.36-1.97.63-.29.65-.35.38-1-.32-.77-.67-1.54-1.12-2.24-.49-.77-1.13-1.42-1.94-1.91-1.93,1.87-4.18,2.85-6.84,2.79-2.67-.06-4.89-1.16-6.72-3.12-1.15.73-2.03,1.67-2.69,2.85Z"/><path class="cls-1" d="m1.63,36.31c.36.38.35.96-.03,1.32-.37.36-.97.35-1.33-.01-.37-.37-.35-1.02.03-1.37.38-.35.97-.32,1.33.06Z"/><path class="cls-1" d="m19.37,18.93c.37.39.34.96-.06,1.36-.84.82-2.39.79-3.19-.07-.36-.39-.39-.92-.07-1.29.35-.41.87-.48,1.31-.13.27.21.48.22.76.02.43-.31.91-.25,1.24.11Z"/></g></svg>