<svg id="Capa_1" data-name="Capa 1" xmlns="http://www.w3.org/2000/svg" viewBox="0 0 694.25 266.66"><defs><style>.cls-1{fill:#fff;}</style></defs><path class="cls-1" d="M110.67,240.4h-5v.6h.11c.44,0,.7.12.77.25a2,2,0,0,1,.14,1v5.78a2.22,2.22,0,0,1-.14,1.06,1.25,1.25,0,0,1-.77.21h-.11v.58h5.1a4.15,4.15,0,0,0,3.24-1.33,5.2,5.2,0,0,0,1.23-3.62,4.65,4.65,0,0,0-1.19-3.38A4.7,4.7,0,0,0,110.67,240.4Zm1.75,7.78a2.67,2.67,0,0,1-2.32,1.09,2,2,0,0,1-1.16-.22,1.39,1.39,0,0,1-.24-1v-7h.72a3.91,3.91,0,0,1,2.91.92,4.23,4.23,0,0,1,.86,3A5.48,5.48,0,0,1,112.42,248.18Z"/><path class="cls-1" d="M122.42,248.27c0,.53-.09.83-.17.89a2.8,2.8,0,0,1-1.07.11h-.79a4.08,4.08,0,0,1-1-.07c-.16,0-.25-.43-.25-1.14v-2.83h1.36a3.48,3.48,0,0,1,.82.05c.11.05.17.25.18.58V246h.67V243.9h-.67V244c0,.36,0,.57-.12.59a4.62,4.62,0,0,1-.88,0h-1.31v-3.62h2a1.54,1.54,0,0,1,.75.11c.12.08.17.23.17.47,0,0,0,.17,0,.39v.11h1v-1.71h-7v.6h.12c.44,0,.69.12.78.25a2.12,2.12,0,0,1,.13,1v5.78a2.42,2.42,0,0,1-.13,1.06,1.31,1.31,0,0,1-.78.21h-.12v.58h7.25v-1.78h-1Z"/><path class="cls-1" d="M32.3,247.4a2.51,2.51,0,0,1-.21,1.2,4.53,4.53,0,0,1-1.45.11H29.58a7.8,7.8,0,0,1-1.36-.05c-.22-.07-.34-.56-.34-1.52v-3.79H29.7a3.75,3.75,0,0,1,1.1.08c.15.07.23.32.23.78l0,.12h.89V241.6h-.89l0,.15c0,.52-.07.77-.16.81a5.69,5.69,0,0,1-1.17.06H27.94v-4.8h2.72a2,2,0,0,1,1,.14c.15.07.23.28.23.62,0,0,0,.2,0,.49v.19h1.27V237H23.92v.79h.17c.57.06.93.15,1,.3a3.31,3.31,0,0,1,.17,1.37v7.71a3.58,3.58,0,0,1-.17,1.39c-.12.15-.47.24-1,.28l-.17,0v.78h9.66v-2.37H32.31Z"/><path class="cls-1" d="M40.62,242.16l-.85-.49a6,6,0,0,1-1.43-1,1.75,1.75,0,0,1-.35-1.11,1.91,1.91,0,0,1,.56-1.44,1.82,1.82,0,0,1,1.37-.59,2.23,2.23,0,0,1,1.61.62,2.84,2.84,0,0,1,.34,1.5v.14h1.28V237.2a12.85,12.85,0,0,0-3.41-.55,4.61,4.61,0,0,0-3.06,1,3.21,3.21,0,0,0-1.13,2.58c0,1.37,1.05,2.66,3.17,3.81l.85.47A4.49,4.49,0,0,1,41,245.56a2,2,0,0,1,.37,1.28,2.18,2.18,0,0,1-.63,1.61,2.21,2.21,0,0,1-1.64.64,2.92,2.92,0,0,1-1.86-.64A2.12,2.12,0,0,1,36.8,247v-.19H35.53v2.64a16,16,0,0,0,3.56.46,5.34,5.34,0,0,0,3.48-1,3.34,3.34,0,0,0,1.3-2.76,3.22,3.22,0,0,0-.68-2.07A9.92,9.92,0,0,0,40.62,242.16Z"/><path class="cls-1" d="M45.51,239.61h1.26l0-.25A2.5,2.5,0,0,1,47,238a1.88,1.88,0,0,1,1-.19H50.1v9.32a2.85,2.85,0,0,1-.19,1.39c-.13.15-.54.23-1.23.28l-.16,0v.78h5.8v-.78l-.16,0a3.45,3.45,0,0,1-1.22-.22,4.4,4.4,0,0,1-.2-1.45v-9.32h2.07a1.92,1.92,0,0,1,1,.19,2.5,2.5,0,0,1,.22,1.35v.25h1.27V237H45.51Z"/><path class="cls-1" d="M70.57,248.59a8.9,8.9,0,0,1-.79-1.45L65,236.85h-.88l-4.7,10.26a9.43,9.43,0,0,1-.76,1.49,1.58,1.58,0,0,1-.87.21l-.15,0v.78h3.38v-.78l-.16,0-.33,0c-.35,0-.53-.07-.53-.28a4.31,4.31,0,0,1,.46-1.37l.64-1.36h5.31l.64,1.34a4.28,4.28,0,0,1,.48,1.38c0,.17-.37.27-1.1.32l-.15,0v.78h5.27v-.78l-.12,0A1.68,1.68,0,0,1,70.57,248.59Zm-9-3.65L63.75,240l2.31,4.92Z"/><path class="cls-1" d="M78.56,236.94H77.9l-1.83,0H72v.79h.16c.58.06.93.15,1,.3a3.13,3.13,0,0,1,.17,1.37v7.71a3.38,3.38,0,0,1-.17,1.39c-.13.15-.46.24-1,.28l-.16,0v.78h6.8a5.51,5.51,0,0,0,4.32-1.79A6.84,6.84,0,0,0,84.7,243a6.05,6.05,0,0,0-1.59-4.51A6.22,6.22,0,0,0,78.56,236.94Zm2.33,10.36a3.52,3.52,0,0,1-3.07,1.41,2.69,2.69,0,0,1-1.53-.26c-.22-.18-.32-.63-.32-1.31v-9.32h1c1.81,0,3.1.38,3.85,1.18s1.14,2.12,1.14,4A7.32,7.32,0,0,1,80.89,247.3Z"/><path class="cls-1" d="M92.58,236.65a6.16,6.16,0,0,0-4.7,1.77,7.74,7.74,0,0,0,0,9.73,7.11,7.11,0,0,0,9.39,0,7.78,7.78,0,0,0,0-9.73A6.15,6.15,0,0,0,92.58,236.65Zm2.72,11a3.26,3.26,0,0,1-5.44,0,10.85,10.85,0,0,1,0-8.7,3.29,3.29,0,0,1,5.44,0,11,11,0,0,1,0,8.7Z"/><path class="cls-1" d="M134.9,242.16l-.86-.49a6.15,6.15,0,0,1-1.42-1,1.7,1.7,0,0,1-.36-1.11,1.94,1.94,0,0,1,.56-1.44,1.86,1.86,0,0,1,1.38-.59,2.19,2.19,0,0,1,1.59.62,2.63,2.63,0,0,1,.35,1.5l0,.14h1.27V237.2a12.91,12.91,0,0,0-3.41-.55,4.51,4.51,0,0,0-3.05,1,3.16,3.16,0,0,0-1.15,2.58c0,1.37,1.06,2.66,3.19,3.81l.83.47a4.26,4.26,0,0,1,1.42,1.06,2,2,0,0,1,.37,1.28,2.1,2.1,0,0,1-.63,1.61,2.21,2.21,0,0,1-1.63.64,2.9,2.9,0,0,1-1.86-.64,2.06,2.06,0,0,1-.44-1.44v-.19h-1.26v2.64a15.94,15.94,0,0,0,3.56.46,5.37,5.37,0,0,0,3.47-1,3.31,3.31,0,0,0,1.3-2.76,3.17,3.17,0,0,0-.68-2.07A9.66,9.66,0,0,0,134.9,242.16Z"/><path class="cls-1" d="M145.77,236.65a6.16,6.16,0,0,0-4.7,1.77,7.74,7.74,0,0,0,0,9.73,7.11,7.11,0,0,0,9.39,0,7.71,7.71,0,0,0,0-9.73A6.12,6.12,0,0,0,145.77,236.65Zm2.73,11a3,3,0,0,1-2.73,1.46,3,3,0,0,1-2.7-1.46,10.85,10.85,0,0,1,0-8.7,3,3,0,0,1,2.7-1.44,3.08,3.08,0,0,1,2.73,1.44,11.08,11.08,0,0,1,0,8.7Z"/><path class="cls-1" d="M162,237.76h.17c.57.06.93.15,1,.3a3.38,3.38,0,0,1,.16,1.37v7.08l-7-9.54h-3.19v.79h.16c.59.06.94.15,1.05.3a3.13,3.13,0,0,1,.17,1.37v7.71a3.15,3.15,0,0,1-.18,1.39c-.11.15-.45.24-1,.28l-.16,0v.78h4v-.78l-.14,0c-.58,0-.94-.13-1-.28a3,3,0,0,1-.18-1.39v-6.92l7,9.58h1.75V239.43a2.92,2.92,0,0,1,.18-1.37c.12-.15.46-.24,1.05-.3H166V237h-4Z"/><path class="cls-1" d="M173.74,236.65a6.16,6.16,0,0,0-4.7,1.77,7.74,7.74,0,0,0,0,9.73,7.11,7.11,0,0,0,9.39,0,7.74,7.74,0,0,0,0-9.73A6.12,6.12,0,0,0,173.74,236.65Zm2.73,11a3,3,0,0,1-2.73,1.46,3,3,0,0,1-2.71-1.46,10.85,10.85,0,0,1,0-8.7,3,3,0,0,1,2.71-1.44,3.08,3.08,0,0,1,2.73,1.44,11,11,0,0,1,0,8.7Z"/><path class="cls-1" d="M206.34,248.59a10.49,10.49,0,0,1-.8-1.45l-4.73-10.29h-.89l-4.71,10.26a8.57,8.57,0,0,1-.76,1.49,1.5,1.5,0,0,1-.85.21l-.16,0-.15,0a2,2,0,0,1-1-.22,12.32,12.32,0,0,1-1.16-1.44l-2.45-3.44a4,4,0,0,0,1.82-1.39,3.89,3.89,0,0,0,.6-2.22c0-2.11-1.3-3.19-3.91-3.19l-.78,0-1.56,0H181.2v.79h.16c.58.06.92.15,1,.3a3.07,3.07,0,0,1,.18,1.37v7.71a3.32,3.32,0,0,1-.18,1.39c-.12.15-.46.24-1,.28l-.16,0v.78h5.06v-.78l-.17,0c-.46,0-.75-.13-.84-.28a3.65,3.65,0,0,1-.16-1.39v-3.07h1.08l3.52,5.54h7.14v-.78l-.17,0-.32,0c-.36,0-.54-.07-.54-.28a4.47,4.47,0,0,1,.45-1.37l.63-1.36h5.34l.62,1.34a4.28,4.28,0,0,1,.48,1.38c0,.17-.37.27-1.09.32l-.15,0v.78h5.26v-.78l-.1,0C206.75,248.77,206.45,248.71,206.34,248.59Zm-18.66-6.15a2.86,2.86,0,0,1-2.11.8h-.48v-5.42H186a2.15,2.15,0,0,1,2.43,2.45A3,3,0,0,1,187.68,242.44Zm9.6,2.5,2.23-4.92,2.31,4.92Z"/><path class="cls-1" d="M146.84,197.42l.07-.12c-1.19.56.31,1.48.88.86S147.36,197,146.84,197.42Z"/><path class="cls-1" d="M128.57,185.15a7.82,7.82,0,0,1,.76.31,2.81,2.81,0,0,1,.61.48,4.62,4.62,0,0,0,.46.41,2.36,2.36,0,0,0,1.27.59l.52.12a6,6,0,0,1,1.27.55,6.44,6.44,0,0,0,1.59.66,1,1,0,0,0,.9.53h.1a1.05,1.05,0,0,0,.8-.56h.22a1.39,1.39,0,0,0,.92-.19l.1,0a.67.67,0,0,0,.33-.86l0-.1c0-.08,0-.14,0-.21a.67.67,0,0,0-.37-.5c-.15-.2-.08-.5.22-1.2a2.8,2.8,0,0,1,.18-.33,2.93,2.93,0,0,0,.34-.72,3.23,3.23,0,0,0,.09-.89,2.68,2.68,0,0,1,0-.42,7.74,7.74,0,0,1,.35-1.24,12.52,12.52,0,0,0,.38-1.31,6.64,6.64,0,0,1,.21-.75,4.19,4.19,0,0,0,.28-2.18,10.51,10.51,0,0,0-1.09-2.65,5,5,0,0,0-.72-.86,1.85,1.85,0,0,1-.63-1,7,7,0,0,1,0-1.24c0-1,.08-2.09-.68-2.59a2.24,2.24,0,0,0-2.07.17c-.28.14-.53.29-.77.43a4.93,4.93,0,0,1-1.05.53c-.19.06-.36.09-.53.13a2.8,2.8,0,0,0-1.66.8c-1,1-1.27,2.68-1.46,4l-.09.57c0,.23-.1.47-.16.73a5.55,5.55,0,0,0-.23,2,2.44,2.44,0,0,0,.34.9,1.62,1.62,0,0,1,.27.78c-.09.86-1.48,2-2.78,2.7a.65.65,0,0,0-.33.75C126.66,184.48,127.72,184.85,128.57,185.15Zm2.2-5a2.63,2.63,0,0,0-.4-1.5,2,2,0,0,1-.21-.47,4.55,4.55,0,0,1,.21-1.52c.07-.28.14-.56.18-.82s.06-.39.09-.6a6.1,6.1,0,0,1,1.1-3.29,1.68,1.68,0,0,1,1-.44,4.71,4.71,0,0,0,.65-.16,5.76,5.76,0,0,0,1.34-.65,7.58,7.58,0,0,1,.67-.38,1.74,1.74,0,0,1,.77-.24h0a4,4,0,0,1,.1,1.46,7.6,7.6,0,0,0,0,1.52,3.11,3.11,0,0,0,1,1.66,3.6,3.6,0,0,1,.54.63,9.59,9.59,0,0,1,.92,2.21,3.17,3.17,0,0,1-.24,1.54,8.5,8.5,0,0,0-.25.9,9.12,9.12,0,0,1-.34,1.14,10.47,10.47,0,0,0-.4,1.44,3.77,3.77,0,0,0,0,.65,2.16,2.16,0,0,1,0,.53,2.51,2.51,0,0,1-.22.43,3.45,3.45,0,0,0-.24.46,2.57,2.57,0,0,0-.2,2.31,2,2,0,0,0-.41.06.94.94,0,0,0-.46.29.89.89,0,0,0-.45-.25,4.86,4.86,0,0,1-1.43-.57,6.7,6.7,0,0,0-1.55-.66l-.6-.14a1.24,1.24,0,0,1-.74-.35l-.35-.31a3.91,3.91,0,0,0-.88-.69,9.38,9.38,0,0,0-.95-.39,5.69,5.69,0,0,1-1-.43C129.17,182.76,130.64,181.51,130.77,180.14Z"/><path class="cls-1" d="M128.11,190.42a.53.53,0,0,0-.15-.54,2,2,0,0,0-1.23-.52,1.26,1.26,0,0,0-.85.31.53.53,0,0,0-.16.23c-.47,1.34-.28,2.29.54,2.6a1.49,1.49,0,0,0,.56.12c1,0,1.16-1.16,1.22-1.77A2.38,2.38,0,0,1,128.11,190.42Zm-1.1.32a2.28,2.28,0,0,1-.18.84s0,0-.2,0-.17-.55,0-1.13a.6.6,0,0,1,.4.08Z"/><path class="cls-1" d="M228.35,0H.78A.78.78,0,0,0,0,.78V236.7c0,21.39,19.36,22,21.56,22h81.36c6.26,0,10.26,6.48,10.31,6.58l.68,1a.78.78,0,0,0,.65.35.77.77,0,0,0,.65-.35l.69-1.06c0-.07,4-6.55,10.3-6.55h81.37a25.25,25.25,0,0,0,11.8-3c4.45-2.52,9.76-7.86,9.76-19V.78A.78.78,0,0,0,228.35,0Zm-.78,236.7c0,8.31-3,14.24-9,17.61a23.55,23.55,0,0,1-11,2.84H126.2c-7.14,0-11.44,7-11.61,7.27l0,.05v0c-.18-.29-4.49-7.29-11.63-7.29H21.56c-3.34,0-20-1-20-20.45V1.55h226Z"/><path class="cls-1" d="M21,211.26c0,17.51,15.92,18,17.73,18h66.34c5,0,8.24,5.19,8.25,5.21l.56,1a.78.78,0,0,0,.68.41.79.79,0,0,0,.69-.41l.53-1s3.24-5.24,8.27-5.24H190.4a20.82,20.82,0,0,0,9.69-2.49c3.66-2.07,8-6.44,8-15.52V21.67a.78.78,0,0,0-.77-.77H21.78a.78.78,0,0,0-.78.77V132.35l-.06.08.06.06Zm169.4,16.46H124.05c-4.26,0-7.29,3-8.71,4.77V133.71h3.76c0,.06,0,.13,0,.2a3,3,0,0,0,.3,1.84,4.35,4.35,0,0,0,.45.69,1.22,1.22,0,0,1,.29,1,4.5,4.5,0,0,1-.3,1.14,4.45,4.45,0,0,0-.32,1.37c0,1.52.65,1.77,1.52,1.92l.49.11c1.65.41,2.46,2.57,3.24,4.66A14.19,14.19,0,0,0,126.3,150c.42.55.85,1.15,1.28,1.76.59.83,1.21,1.7,1.83,2.51.37.48.76.91,1.14,1.33a7.46,7.46,0,0,1,1.93,2.92,4.69,4.69,0,0,1-.45,2.47c-.38,1.11-.79,2.26-.28,3.22.93,1.73,2.55,1.55,3.72,1.42a3,3,0,0,1,1.51.06,4.4,4.4,0,0,1,1.65,2.63,11.56,11.56,0,0,0,.59,1.47,9.73,9.73,0,0,1,.62,1.71c.11.36.21.72.35,1.09a4.51,4.51,0,0,0,.21.49.85.85,0,0,1,0,1.06,1.88,1.88,0,0,0-.3.77,4.71,4.71,0,0,0,.26,1.67,7.28,7.28,0,0,1,.23.92c0,.19,0,.4.07.63a3.45,3.45,0,0,0,.77,2.33,1.86,1.86,0,0,0,.86.36,2.2,2.2,0,0,1,.51.16,2.33,2.33,0,0,1,.39.49c.09.12.17.25.25.34s.33.38.55.62l.48.53a85.38,85.38,0,0,0-7.45,7.23,29.77,29.77,0,0,0-2.58,3.43c-.62.9-1.2,1.76-1.76,2.43a41,41,0,0,0-3.63,4.93c-1,1.64-2.31,3.88,0,5.82a4.88,4.88,0,0,0,3.06.67h1.59a28.61,28.61,0,0,0,3.49-.53l.43-.1a22,22,0,0,0,6.55-2.29l.08,0a6,6,0,0,1,1.15-.18,6.66,6.66,0,0,0,1.52-.27l.8-.27.09,0c.75-.25,1.59-.53,2-.7,1-.39,1.68-.63,2.46-.9.6-.21,1.24-.43,2-.74s1.8-.72,2.79-1.18a1.2,1.2,0,0,1,.28.37,2.1,2.1,0,0,0,1.73,1.12,5.76,5.76,0,0,0,1,0h.28a.54.54,0,0,0,0,.1,1.52,1.52,0,0,0,.48.85,4.65,4.65,0,0,0,2.15.82,6.84,6.84,0,0,1,.88.23,4.91,4.91,0,0,1,1.34.78c.25.18.52.37.84.57a.84.84,0,0,0,.25.09,3.2,3.2,0,0,0,1.2,2.84l.55.56a2.8,2.8,0,0,1,.56.9l.21.42s.05.16.08.26a1.94,1.94,0,0,0,.45.91,1.12,1.12,0,0,0,1,.26h0a1.13,1.13,0,0,1,0,.49,2.26,2.26,0,0,0,.13,1.17,3.25,3.25,0,0,0,.84,1,4.18,4.18,0,0,1,.52.53,1.89,1.89,0,0,1,.24.83,3.15,3.15,0,0,0,.22.88,1.82,1.82,0,0,0,.73.77s.13.1.14.08a.5.5,0,0,1,0,.18.65.65,0,0,0,.81.75c.71-.2.83,0,1.23.84a3.66,3.66,0,0,0,1.07,1.5,4.46,4.46,0,0,0,1.33.59,5.14,5.14,0,0,1,.93.37,3.44,3.44,0,0,1,.41.3,2.79,2.79,0,0,0,1.29.71,1.47,1.47,0,0,0,1.06-.28.66.66,0,0,1,.24-.12,6.62,6.62,0,0,1,.95-.08,9.73,9.73,0,0,0,1.21-.13c0,.2.09.38.13.56a3.31,3.31,0,0,0,1.48,2.39,2.84,2.84,0,0,0,3,.23,1.81,1.81,0,0,0,.7-2,.62.62,0,0,0-.3-.42l-.09-.05.05-.07.26-.32a1,1,0,0,0,.07.15,2.13,2.13,0,0,0,1.81,1.12l.44.08a10,10,0,0,1,1.08.37,5.54,5.54,0,0,0,2.89.66,1.34,1.34,0,0,0,.58.49,2.44,2.44,0,0,0,1,.12,1.44,1.44,0,0,1,.48,0,1.72,1.72,0,0,1,1,.78l.12.17A19.61,19.61,0,0,1,190.4,227.72Zm-29.29-52.11c.73.56,7.66-4.47,7.87-2.67-1.2,0-3.55,1.84-5.18,2.65-1,.48-4.31,2.45-3.86-.11a17.54,17.54,0,0,1,2.39-5,16.7,16.7,0,0,1,3.75-4.38c-.78,1.25-2.65,3.07-3.31,4.6C162.52,171.26,160.5,175.12,161.11,175.61Zm26.34-18.86a6.08,6.08,0,0,0,3.86,3.83c.69-.72-.23-3.2,1.07-2.85v.07c-.14.73.08,1.64-.1,2.43a5,5,0,0,0-.21,1.87c-1.68-1.35-3.79-1.9-5-4.6-1-2.13-1.2-5.64.22-7.67A12.8,12.8,0,0,0,187.45,156.75Zm5.5,10.07c.12,3.92-2.87,6.84-3.77,8.24-2.15,3.36-5.19,5.26-8.18,7.42a6.61,6.61,0,0,1-1.41-.53,3.7,3.7,0,0,1,1.66-2.41c1.37-1.09,2.18-2.16,3.54-3.27,1.67-1.39,4.57-4,5.41-5.91,0,0-8.28,8.43-15,11.59A63,63,0,0,0,164,189c.62,0,2.15.28,2.76.22,1.71-.17,2-.19,3.72-.42a10,10,0,0,0,2.85-.75c-4.72,3.29-9.69,6.48-14.51,9.17a24.92,24.92,0,0,1-2.48,1.22c-1.49.6-2.64.85-4.81,1.75-1.13.45-4.2,2.3-5,1.31-1.07-1.36-1.1-.34-2.65.88-2.52,2-5.1,2.49-8,3-1,.18-6,1.27-5.76-.7l.11-.11a36,36,0,0,1,6.34-4.24c2.43-1.31,5.06-3,7.9-4.31,2.38-1.14,4.68-2.26,6.93-3.38,3.82-1.9,7.48-3.81,11.09-5.86,6.38-3.6,11.47-5.52,15.69-8.25a82,82,0,0,0,8.58-6.2C188.18,171,192.63,166.86,193,166.82Zm-9.31,18.38c-1.11.88-5.52,2-7.51,2s-7.45.77-7.45.77c.55-.55,3.91-1.59,6.9-1.48S184.74,184.33,183.64,185.2ZM162,181.43c1.34-.69,2.69-1.39,4-2.11.79-.43,1.94-1.31,2.86-1.08a4,4,0,0,1-1.26,1.11,115.91,115.91,0,0,1-11.28,7.09c-2.23,1.22-4.64,2.34-7,3.58a34.07,34.07,0,0,0-7.11,4.72c-.11-.43.22-.87.53-1.25a24.33,24.33,0,0,1,5.51-4.82c2.18-1.45,4.52-2.72,6.72-4S159.67,182.6,162,181.43Zm44.62,29.83c0,6.56-2.35,11.27-7,14a3.65,3.65,0,0,1-.24-.31,3,3,0,0,0-1.67-1.26,2.75,2.75,0,0,0-.88-.07,1.93,1.93,0,0,1-.44,0l-.13-.16a1.85,1.85,0,0,0-.6-.58.59.59,0,0,0-.59,0,.55.55,0,0,0-.25.2,10.8,10.8,0,0,1-2-.61,10.48,10.48,0,0,0-1.3-.44l-.49-.08c-.55-.09-.65-.11-.89-.5a2.6,2.6,0,0,1,0-.36,1.5,1.5,0,0,0-.58-1.3,1.37,1.37,0,0,0-1.25.09.65.65,0,0,0-.3.83c.1.24.07.32-.27.74a2.26,2.26,0,0,0-.68,1.62.64.64,0,0,0,.3.53.65.65,0,0,0,.38.09l-.08.06a1.6,1.6,0,0,1-1.54-.19,2.06,2.06,0,0,1-1-1.6,7.4,7.4,0,0,0-.39-1.34.63.63,0,0,0-.35-.35.72.72,0,0,0-.5,0,4.15,4.15,0,0,1-1.44.22,8.33,8.33,0,0,0-1.12.11,1.92,1.92,0,0,0-.7.3c-.14.09-.14.1-.19.09a2.32,2.32,0,0,1-.65-.44,5.56,5.56,0,0,0-.57-.42,6.75,6.75,0,0,0-1.18-.47,3.85,3.85,0,0,1-1-.4,2.7,2.7,0,0,1-.67-1c-.32-.69-.78-1.65-2-1.66a1.53,1.53,0,0,0-.66-.74c-.16-.1-.22-.14-.26-.22a2.09,2.09,0,0,1-.1-.51,3.06,3.06,0,0,0-.44-1.35,4.54,4.54,0,0,0-.74-.79,2.82,2.82,0,0,1-.52-.55,1.1,1.1,0,0,1,0-.54,1.93,1.93,0,0,0-.39-1.53,1.13,1.13,0,0,0-1.07-.34l-.06-.22a2.16,2.16,0,0,0-.18-.5c-.07-.15-.13-.27-.18-.39a4.22,4.22,0,0,0-.79-1.22c-.22-.24-.41-.43-.59-.61a1.93,1.93,0,0,1-.82-1.63,2.58,2.58,0,0,0,.42-.25l.14-.09a.63.63,0,0,0,.34-.41.62.62,0,0,0-.1-.53,1.82,1.82,0,0,0-1.77-.77.69.69,0,0,0-.41.22l-.24-.17a6.08,6.08,0,0,0-1.65-1,8.33,8.33,0,0,0-1.07-.27,4.07,4.07,0,0,1-1.56-.53.39.39,0,0,1-.08-.21,1.38,1.38,0,0,0-.88-1c-.14-.06-.22,0-.71,0-.24,0-.66,0-.77,0-.59-.09-.66-.22-.83-.5a3.31,3.31,0,0,0-.18-.29c.75-.37,1.54-.78,2.4-1.24l.91-.49a75.62,75.62,0,0,0,11.78-7.25l2.78-2,.74,0a21,21,0,0,0,5.76-1.54c1.9-.71,5-2.59,5.07-4.61a.49.49,0,0,0-.14-.38.52.52,0,0,0-.37-.16H187c-.69,0-1.34.05-2,.11.49-.4,1-.74,1.59-1.21l.08,0a12.45,12.45,0,0,0,2.09-2c.47-.61.85-1.06,1.17-1.45a15.22,15.22,0,0,0,1.89-2.67,19.73,19.73,0,0,0,2.78-10.39c0-.21,0-.53,0-.86s0-.91,0-1.2c0-.58-.06-1.16-.08-1.72-.06-2.29-.13-4.66-1.94-6.51a16.28,16.28,0,0,1-3.21-4.15,5.26,5.26,0,0,1-.19-.51,3.76,3.76,0,0,0-1.22-1.95,1.68,1.68,0,0,0-.9-.29c-1.32,0-1.76,1.62-2,2.4a18,18,0,0,0-.12,7.82c.66,2.64,2.49,3.87,4.26,5.07h0a7,7,0,0,0-.76.47l-.32.2a9.77,9.77,0,0,0-2.93,3.15c-.33.49-.64.94-1,1.33a5.94,5.94,0,0,1-3,2.18,14.75,14.75,0,0,1-4.43.69h-6.7a1.12,1.12,0,0,1-.31-.94,11.85,11.85,0,0,0-.13-2.48,9.51,9.51,0,0,1-.1-2.31,1.72,1.72,0,0,0-.33-1.43,1.33,1.33,0,0,0-1-.42c-.3,0-1.22,0-3.5,2-2.65,2.3-4.28,5.3-5.86,8.22l-.76,1.39h0a32.71,32.71,0,0,0-5.09,2.55l-1.61.92a40.9,40.9,0,0,0-5.41,3.69l-.71.56-.53-.58-.49-.56-.19-.27a3.42,3.42,0,0,0-.66-.77,2.62,2.62,0,0,0-1-.4,2.17,2.17,0,0,1-.3-.08,3.09,3.09,0,0,1-.33-1.46c0-.26-.05-.51-.08-.73-.07-.39-.17-.75-.26-1.07a3.38,3.38,0,0,1-.22-1.18,1.53,1.53,0,0,1,.13-.25,2.28,2.28,0,0,0,.36-1,2.49,2.49,0,0,0-.3-1.28,3.17,3.17,0,0,1-.16-.37c-.13-.35-.23-.69-.33-1a10,10,0,0,0-.71-1.92,11.72,11.72,0,0,1-.52-1.32,5.54,5.54,0,0,0-2.22-3.32,3.74,3.74,0,0,0-2.3-.22c-1.22.13-1.94.16-2.44-.76-.24-.45.07-1.33.37-2.17a5.69,5.69,0,0,0,.46-3.26,8.49,8.49,0,0,0-2.21-3.43c-.36-.4-.74-.81-1.07-1.25-.61-.79-1.22-1.64-1.81-2.47-.44-.62-.87-1.22-1.29-1.79a13.29,13.29,0,0,1-1.37-3c-.85-2.29-1.82-4.89-4.13-5.47l-.57-.12-.41-.08a1.31,1.31,0,0,1-.06-.56,3.72,3.72,0,0,1,.26-1,5.59,5.59,0,0,0,.36-1.49,2.38,2.38,0,0,0-.56-1.86,2.64,2.64,0,0,1-.32-.51,1.86,1.86,0,0,1-.16-1.15c0-.09,0-.19,0-.29h86.17Zm0-188.81V130.89L116.22,22.45Zm-1,109.7H23.2L114.56,22.88ZM62.51,46.75l.52.59A.43.43,0,0,1,63,48L49.36,60.06a1,1,0,0,0-.25.2l-.15.16-.13.12L33.37,74.27a.43.43,0,0,1-.3.11.39.39,0,0,1-.3-.13l0,0-.52-.58a.45.45,0,0,1,0-.63l1.09-1L47.59,59.41l14.3-12.7a.46.46,0,0,1,.29-.11A.44.44,0,0,1,62.51,46.75Zm-.12-.64a8.92,8.92,0,0,1,2.51-.92,9.39,9.39,0,0,1-1.24,2.44,1,1,0,0,0-.24-.64l-.52-.58A1,1,0,0,0,62.39,46.11ZM50.12,60.57,64.3,73.46a.44.44,0,0,1,0,.62l-.33.36-.2.22a.39.39,0,0,1-.28.13h0a.43.43,0,0,1-.3-.11l-8.41-7.64L49,61.81a.43.43,0,0,1,0-.62l.25-.29.1-.11.17-.18a.48.48,0,0,1,.17-.12.41.41,0,0,1,.16,0A.48.48,0,0,1,50.12,60.57ZM47.34,58.8l-.19.21-.34.37a.42.42,0,0,1-.32.15.46.46,0,0,1-.3-.11l-5.1-4.64L39.15,53,38,52l-4.21-3.82a.44.44,0,0,1,0-.62l.53-.58a.45.45,0,0,1,.33-.14.41.41,0,0,1,.29.11l4.12,3.74,1.17,1.06,1.49,1.36,4.06,3.68,1.54,1.4A.44.44,0,0,1,47.34,58.8Zm-8.53-5.39,2.06,1.87,5,4.51a1.22,1.22,0,0,0,.32.2L33.6,71.14l-1.69,1.5a1,1,0,0,0-.32.66.94.94,0,0,0,.25.69l.52.59a.76.76,0,0,0,.27.2.83.83,0,0,0,.44.12,1,1,0,0,0,.64-.24l14.64-13a1,1,0,0,0,.3.54l5,4.51,9.22,8.37a.93.93,0,0,0,.64.25,1,1,0,0,0,.65-.26l.06,0,.2-.22.32-.36a1,1,0,0,0-.06-1.36L50.46,60.19a1,1,0,0,0-.27-.17l12.6-11.18c-.77,1.11-.48,1.66.9,3.22.85,1,1.5,1.41,2,1.41a.79.79,0,0,0,.54-.21C73.12,47,70.88,41.52,70.43,40.6a.72.72,0,0,0-.12-.21.6.6,0,0,0-.22-.16,8.25,8.25,0,0,0-4.32-1.15c-2.87,0-5.81,1.29-8.72,3.81a.77.77,0,0,0-.27.49c-.08.53.29,1.23,1.15,2.2s1.52,1.58,2.17,1.58a1.72,1.72,0,0,0,.72-.19L48,58.39a1,1,0,0,0-.3-.59l-2-1.83-3.76-3.41-1.34-1.22A8.24,8.24,0,0,1,41.92,50c.57-.44,1.84-1.5,2.55-1.24a2.86,2.86,0,0,1,1.26,1.63c.35,1.09.14,3.08.83,4,1.17,1.49,1.79-2.48,1.86-3.23.14-1.54,0-3.08.1-4.62a20.93,20.93,0,0,1,.77-4.46,19.05,19.05,0,0,1,1.11-3.82A9.25,9.25,0,0,1,53.17,35a12.9,12.9,0,0,0,2.31-3.47c.6-1,2.09-2,3.28-1.24s-.74,2.41-1.31,3.22a13.47,13.47,0,0,0-1.93,3.82,45.49,45.49,0,0,1-1.69,4.93,17.32,17.32,0,0,0-.91,1.9,2.47,2.47,0,0,0,.48,2.12c.91.63.84-1.15.92-1.7a3.78,3.78,0,0,1,.79-1.84A2.81,2.81,0,0,0,56,41.23c.08-.76-.31-1.31-.15-2.06a5.2,5.2,0,0,1,1-1.65c.49-.78.65-3.58,2-3.47.3,1.39-.48,3.87.93,4.55.77-.85.31-2.85.49-4,.11-.69.5-1,.66-1.65s-.25-1.77.65-1.56A4,4,0,0,0,62,33.15c.18.24.43.15.62.37s.12.77.32.92c.62.46.89-.44,1.21.68a19.2,19.2,0,0,1,.27,2c.06.42,0,1.43.57,1.57s.94-1.19,1.23-1.65a11.9,11.9,0,0,1,1.15-1.33c.45-.54.82-.85,1.19.15.23.6,0,1.22.42,1.82s1,.84,1.4,1.32a7.13,7.13,0,0,1,.87,1.61,3.67,3.67,0,0,1,.68,1.63,10.74,10.74,0,0,1-.33,2.48c-.11.71,0,1.43-.08,2.15-.16,1.56-1.46,2.55-1.74,4a24.88,24.88,0,0,0-.06,6.51,38,38,0,0,1,.14,4.89,12.36,12.36,0,0,0,.34,4.3c.19.52.6.72,1,1.14s.41.68.8,1c.14-1.44.57-2.31-.09-3.63s-.48-2.75-.4-4.24a40.58,40.58,0,0,0-.25-4.44c-.08-1.45.69-2.62.83-4,.09-1-.39-2.71.08-3.56.84-1.5,1.88,1,1.88,1.8,0,2.47-.84,6.61,1.32,8.36.39-.61.12-1.29,0-1.91a20.26,20.26,0,0,1-.14-2.82,19.29,19.29,0,0,0-.17-4.1c-.17-.62-.65-3.83.42-2a18,18,0,0,1,.74,2c.3.75.81,1.43,1,2.23a22.73,22.73,0,0,1,.68,6.64c0,1.89.38,3.24-.41,5l-5.17,6.06c-1,1.21-2.07,2.41-3.09,3.64C69,74.19,68.66,75,68.2,75c-.68,0-.67-1-.68-1.51a8.8,8.8,0,0,1,.09-1.36c.14-1.45.36-2.9.5-4.3.15-1.56-1.31-2.27-1.5-3.63A17.19,17.19,0,0,0,66.37,62,7.45,7.45,0,0,1,66,60.23c0-1.42-.9-2.35-.82-3.88.05-1.05.23-2.9-.93-3.45-.78-.36-1,.08-1.05.89a3,3,0,0,0,.76,1.89,2.69,2.69,0,0,1,.56,2,4,4,0,0,0,.24,2.06,11.24,11.24,0,0,1,.42,4.05,2.34,2.34,0,0,0,.43,1.82c.32.44,1,.9,1.12,1.42.38,1.17-.34,2.76-.4,3.93s0,2.48-.09,3.73c-.07-.06-.3-.11-.41-.21a1.09,1.09,0,0,1-1.17.66c-.08.42-.53,2-2.87,3-2.73,1.24-12.39-.09-12.39-.09s-.66-7.43-4.3-7.68-4.21,7.44-4.21,7.44c-.91,1.07-3.72.74-4.79-.09s-3.4-.75-3.83-1.13a2.84,2.84,0,0,0-.41,0A3.68,3.68,0,0,1,29,75.9c-.89-.91-.45-2.6-.18-3.69A25.14,25.14,0,0,1,32,64.78c.8-1.28,1.57-2.48,2.4-3.72a34.6,34.6,0,0,0,2.1-4.28A15.53,15.53,0,0,1,38.81,53.41Zm-16.25-31H112.9L83.43,57.7a15.34,15.34,0,0,1-1-2.09A11,11,0,0,1,82,54.38a8.2,8.2,0,0,0-.83-2.11c-.22-.35-.45-.68-.68-1a9.94,9.94,0,0,1-1.12-1.84l-.2-.47a7.14,7.14,0,0,0-2-3.15,9,9,0,0,0-1-.69A5.69,5.69,0,0,1,74.6,44a5,5,0,0,1-.77-2.11c-.08-.38-.16-.73-.26-1.06l-.13-.39c-.72-2.24-1.61-5-3.37-6.55a7.32,7.32,0,0,0-1.62-1,9.33,9.33,0,0,1-1-.52,7.83,7.83,0,0,1-1.24-1,11.15,11.15,0,0,0-1.11-.93,12.91,12.91,0,0,0-6.39-2.27,4.17,4.17,0,0,0-1.21.16c-1.75.49-2.88,2.12-3.87,3.55-.28.41-.54.79-.81,1.14a7.79,7.79,0,0,1-1.17,1.12,8.46,8.46,0,0,0-1.25,1.22A10.76,10.76,0,0,0,49,38.3l-.34.9a15.18,15.18,0,0,1-4.05,6,50,50,0,0,0-5.2,5l-4.1-3.72a1,1,0,0,0-.64-.25,1,1,0,0,0-.25,0c1.28-1.38,4.81-4.94,8.06-5.69a.51.51,0,0,0,.39-.42l.06-.36a.45.45,0,0,0,0-.11.52.52,0,0,0-.52-.52h0a16.15,16.15,0,0,0-9.64,4.48A1.25,1.25,0,0,0,31.64,43a1.81,1.81,0,0,0-1.28.72,1.59,1.59,0,0,0-.55,1.58,1.31,1.31,0,0,0,.8.77,16.17,16.17,0,0,0-3.58,10,.57.57,0,0,0,.21.4.5.5,0,0,0,.31.1h.13l.38-.1a.51.51,0,0,0,.39-.43c.42-3.14,3.34-6.76,4.71-8.31a1,1,0,0,0,.3.86L37.7,52.4a103.64,103.64,0,0,0-7.9,12.87,38.09,38.09,0,0,0-3.23,7c-.77,2.53.14,4.24,2.89,5.38a11.75,11.75,0,0,0,3.13.74,8.28,8.28,0,0,1,2.76.9,10.05,10.05,0,0,0,4.26,1,15.79,15.79,0,0,0,3.86-.56l.78-.24a14.24,14.24,0,0,1,3.17-.79.62.62,0,0,1,.26,0,2,2,0,0,1,.18.39,1.21,1.21,0,0,0,.89.92,4.91,4.91,0,0,0,.94.08h.62a7.06,7.06,0,0,1,1.13,0,41.93,41.93,0,0,0,4.49.27h0l1.33,0a31.22,31.22,0,0,0,4.79-.68l1.41-.27a9,9,0,0,1,1.05,0h.81L22.56,130.5Zm0,111.26h91.23v98.77c-1.42-1.76-4.45-4.77-8.72-4.77H38.73c-2.7,0-16.17-.79-16.17-16.46Z"/><path class="cls-1" d="M63.87,69c-.1-.22-.37-.39-.47-.6-.2-.37-.11-.59-.41-.93s-1.11-.69-1.58-1.11a3.41,3.41,0,0,1-1-1.76c-.18-.55-.6-1.09-.77-1.65-.42-1.38.36-2.87.07-4.28s-1.72-1.14-2.13-2.08c-.16-.36.21-1.31-.31-1.51-.25-.1-.88.48-1.08.7a10.63,10.63,0,0,0-.74,1.32c-.25.42-.71.67-.95,1A7.27,7.27,0,0,0,53.74,61c.61.1,1.51-.34,2,0,.75.44.11,1.39.59,1.89s1.08.06,1.57.5a5,5,0,0,1,1,1.89c.27.71.48,1.45.73,2.15.32.86.48.91,1.26,1.26a2.65,2.65,0,0,1,1.48,1.55c.33.7.75.62,1.22,1.17s.14,1.12,1.09,1.14h.09c-.18-.58-.38-1.13-.56-1.74S64.08,69.49,63.87,69Z"/><path class="cls-1" d="M199.48,32.5h-.1a1.48,1.48,0,0,1-.06-.51,3.35,3.35,0,0,0,0-.4,4,4,0,0,0-.25-.74,2.34,2.34,0,0,1-.26-1,.26.26,0,0,0-.21-.26,1,1,0,0,0-.95.47c-.12.14-.24.27-.38.27h0c-.13,0-.35-.61-.43-.85a3.23,3.23,0,0,0-.23-.54c-.37-.62-.72-.91-1.11-.91s-.74.33-1.07.68a4.43,4.43,0,0,1-.55.52A4.55,4.55,0,0,0,191,27.59a1.2,1.2,0,0,0-.57.14,2.74,2.74,0,0,0-.94,1.11c-.44.74-.68,1-1.32.58a3.23,3.23,0,0,1-.47-.44,1.71,1.71,0,0,0-1.41-.72,1.63,1.63,0,0,0-1.14.73,3.57,3.57,0,0,1-.43.44.93.93,0,0,1-.47.26.83.83,0,0,1-.29-.12,2.21,2.21,0,0,0-.76-.26,1.21,1.21,0,0,0-1.2.58,1.53,1.53,0,0,1-.58.49.93.93,0,0,1-.75-.05,2,2,0,0,0-.43-.14l-.43-.06a1.21,1.21,0,0,1-.73-.22.91.91,0,0,1-.26-.35c-.12-.23-.27-.56-1.14-.37a2.12,2.12,0,0,0-1.22,1c-.29.41-.54.77-1,.77h0c-.3,0-.55-.29-.81-.58a1.58,1.58,0,0,0-1.4-.72,1.52,1.52,0,0,0-.94.65,1.47,1.47,0,0,1-.45.42c-.34.15-.72,0-1.14-.27a3.59,3.59,0,0,0-.34-.17c-.15-.08-.32-.19-.5-.3a2.66,2.66,0,0,0-1.37-.56h0a1.38,1.38,0,0,0-1.18.88,2.23,2.23,0,0,1-.32.48,1.13,1.13,0,0,1-.91.39,4.6,4.6,0,0,1-.8-.1,3.94,3.94,0,0,0-.83-.11,1.31,1.31,0,0,0-1.17.6,3,3,0,0,0-.41,1.22c-.1.62-.16.74-.37.74a1.83,1.83,0,0,1-.73-.24,3.19,3.19,0,0,1-.33-.2,1.14,1.14,0,0,0-.66-.28.92.92,0,0,0-.7.39,1.74,1.74,0,0,0-.37.73c-.1.32-.16.51-.51.63a2.27,2.27,0,0,1-1.37-.16c-.5-.17-1-.26-1.26,0a1.81,1.81,0,0,0-.31,1.3,6,6,0,0,0,.07.63,2.42,2.42,0,0,1,0,1.16c-.1.17-.33.25-.74.25h-.38a4.19,4.19,0,0,0-.48,0,.27.27,0,0,0-.25.22,2.35,2.35,0,0,0,.3,1.4,2.41,2.41,0,0,1,.28.9c0,.28-.18.44-.47.67a1.28,1.28,0,0,0-.63,1,1,1,0,0,0,.51.85c.21.14.3.2.1.73a1.35,1.35,0,0,1-.16.29,1,1,0,0,0-.16.9,2.36,2.36,0,0,0,.73.85,2.28,2.28,0,0,1,.68.75.27.27,0,0,0,.08.1c.06,0,5.13,4,7.32,9l-.17,0a1.32,1.32,0,0,0-1.26,1,1.61,1.61,0,0,0-.23,2.28,1,1,0,0,0,.54.42c.07,0,.41.14,1,.3-.39,1.31-.81,2.59-1.28,3.82a14.92,14.92,0,0,1-1.92,3.9,2.61,2.61,0,0,1-.41.38c-.35.3-.76.63-.74,1.07s.38.7.7.94.45.33.5.5a1,1,0,0,1-.16.65,1.26,1.26,0,0,0-.18,1c.11.36.57.65,1,.93.16.1.32.2.41.27a2.93,2.93,0,0,1,.31.29,2.11,2.11,0,0,0,1.23.68,1.68,1.68,0,0,0,.56,0s.07,0,.06,0a1.49,1.49,0,0,1,.28.38c.14.25.26.48.36.68a2.09,2.09,0,0,0,2,1.45,2.53,2.53,0,0,0,0,.28,2.8,2.8,0,0,0,.15,1.33,2.64,2.64,0,0,0,1.38,1.05,3.88,3.88,0,0,1,.54.27,2.91,2.91,0,0,1,.43.33,2.69,2.69,0,0,0,1,.6,2.2,2.2,0,0,0,.73,0,1.18,1.18,0,0,1,.78.08,1.47,1.47,0,0,1,.09.34,1.52,1.52,0,0,0,.16.52c.24.38.38.46.63.51a1.16,1.16,0,0,1,.31.12c.43.25.42.29.32.56A2,2,0,0,0,172,83c0,1,.77,1.22,1.44,1.41l.11,0a1.31,1.31,0,0,0,1.42-.24,2.71,2.71,0,0,1,.42-.3c.54-.31.65-.27,1.07.19.1.12.22.24.36.38a1.28,1.28,0,0,0,.87.43,1.13,1.13,0,0,0,.43-.09.78.78,0,0,1,.46-.07,1.53,1.53,0,0,1,.63.33,1.88,1.88,0,0,0,1.16.46h.08a10.19,10.19,0,0,0,1.45-.15c.29,0,.57-.09.85-.11a15.1,15.1,0,0,0,1.57-.27l.38-.07a.89.89,0,0,1,.81.22,1.65,1.65,0,0,0,.92.38.86.86,0,0,0,.49-.19.67.67,0,0,1,.38-.15,1.44,1.44,0,0,1,.74.28,3.58,3.58,0,0,1,.43.29,2.16,2.16,0,0,0,1.37.53h.2a2.33,2.33,0,0,0,1.93-1.5h.95a3,3,0,0,0,1.05-.13,1,1,0,0,0,.68-1,.91.91,0,0,1,.18-.56,1.42,1.42,0,0,1,.54-.32,2.16,2.16,0,0,0,.89-.61,2.63,2.63,0,0,0,.47-2,1,1,0,0,0-.46-.62c-1-3.12-2.14-6.85-3.19-10.3a1.62,1.62,0,0,0,.39-.9,1.67,1.67,0,0,0-.53-1.32,5.37,5.37,0,0,0-.7-.57c-.64-2.15-1.19-4-1.57-5.46l.88-.22a1,1,0,0,0,.65-.54,2.6,2.6,0,0,0,.27-2.23,1.18,1.18,0,0,0-.48-.51,1.15,1.15,0,0,0-1.14-1.19l-.21,0A40.81,40.81,0,0,1,195,47.49c.79-1.3,1.61-2.66,2.32-4l.18-.32c.78-1.46,1.58-3,2.46-4.4.1-.16.22-.32.34-.49a4.39,4.39,0,0,0,.7-1.22,6.67,6.67,0,0,0-1-4.35A.7.7,0,0,0,199.48,32.5ZM162.31,58.13c-.59-.92.25-.84.34-1.34,0-.25.17-.31.28-.31a.48.48,0,0,1,.22.06l.39.06c1.35.21,2.67.38,4,.53a6.8,6.8,0,0,0,.32.79.53.53,0,0,0,.46.28h.11a.53.53,0,0,0,.41-.48l0-.45a115.51,115.51,0,0,0,11.65.59h1.24a6.23,6.23,0,0,1-.42,1.44c-1,0-2,0-3-.1-1.53-.16-3.09-.29-4.63-.32s-3.11-.06-4.65,0l4.62.37c1.55.13,3.07.27,4.62.44.94.07,1.89.08,2.83.06-.07.13-.15.26-.23.39l-.27.45a.52.52,0,0,0,0,.47,68.32,68.32,0,0,1-17.32-2.65Zm6.59-2a6.48,6.48,0,0,1,12.93.58A86.48,86.48,0,0,1,168.9,56.12Zm24.93,24.14c-.08,1-.87,3.55-2.11,2.19s-.85-4.31-1.14-6a22.19,22.19,0,0,0-1.44-5.28c-.57-1.25-1.08-1.09-.93.16a38.3,38.3,0,0,0,1.54,6.23,21.57,21.57,0,0,1,.66,3.35c.12.78.53,1.82.09,2.59a1.79,1.79,0,0,1-1.68.56c-.46-.24-.58-1.29-.71-1.72A54.72,54.72,0,0,1,187,76.07c-.23-1.42-.3-2.85-.52-4.27-.19-1.21-.37-3.72-1.31-4.52,0,.26-.09.53-.11.78a20,20,0,0,0,.92,5.5c.54,2.35.2,4.9.44,7.31.06.69.35,1.86-.36,2.25-.87.47-1.22-.36-1.32-1-.15-1-.07-2.07-.19-3.08-.22-1.84,0-4-.48-5.79-1,2.25-.36,5.09-.25,7.48,0,.85.5,2.62-.5,3.07-1.15.52-1.47-.7-1.83-1.34-.46.54-.78,1.36-1.6,1s-.4-1.4-.43-2.16c-.05-1.21-.11-2.51-.17-3.75s.33-3.17-.27-4.37c-1.25.63-.24-1.32-1.23-1.2-.08-.29-.2-.32-.41-.47a11.89,11.89,0,0,0-1,3.5,25.64,25.64,0,0,0-1.17,4.64c0,.68.21,1.73-.18,2.32s-1.2.31-1.56-.35c-.19-.35-.1-2.24-.44-2.17-.59.13,0,1.41-1.07,1.08,0-1.29-.08-2.44,0-3.75,0-.76.84-3.46.15-4-1.2-.87-2.61,3.9-2.83,4.59-.47-.45-1.28-.2-1.76-.66a1.87,1.87,0,0,1-.42-1.58,9.61,9.61,0,0,1,.78-2.24c.37-1.11.79-2.2,1.17-3.29.51-1.5.64-2.27,1.15-3.78.09-.25,1.95-3.93.61-3.5-.37.12-.82,1.65-1,2-.52,1-.94,2.15-1.38,3.24s-1.11,2.27-1.57,3.46c-.4,1-.49,2.16-.86,3.16-.74-.34-1.88-.43-1.91-1.5,0-.78.84-1.62,1.2-2.26A19.82,19.82,0,0,0,166.83,67c.36-1.12.66-2.24,1-3.35.23-.74.63-.93.18-1.67-1.08.66-1.23,2.66-1.83,3.75-.81,1.47-1.76,3-2.47,4.46-.23.5-.27,1.52-.82,1.77a1.13,1.13,0,0,1-1.35-.59c-.4-1.14,1.45-1.69,1.25-2.84-.47.26-2.09,1.64-2,.07.06-1,1.45-1.23,1.83-1.93.25-.47.1-.94.24-1.42a8.76,8.76,0,0,1,.76-1.34c.51-1.08,0-4.1,1.18-3.86s2.24.45,3.31.64a88.81,88.81,0,0,0,13.08,1.4h.48l1.81,1.52a1.22,1.22,0,0,0,0,.83c.25.81,1.28,1.22,2.26,1.52a9.16,9.16,0,0,1,2.37,2.16,12.13,12.13,0,0,0,2.27,2.15,2,2,0,0,0,.61.24c.49,1.54,1,3,1.58,4.53S194,78.68,193.83,80.26Zm-1.37-12.9.06.06a1.06,1.06,0,0,1,.32,1.2,1.51,1.51,0,0,1-.49.61s-.31.83-1,.83a1.34,1.34,0,0,1-.51-.12l-.18-.1c-1.34-.78-3.47-4-4.75-4.36-1-.3-2.07-.75-1.93-1.5a.69.69,0,0,1,.09-.25,1.13,1.13,0,0,1,.14-.22s0,0,0,0l.37-.37h0l.29-.46h0a1.53,1.53,0,0,1,.18-.18,1,1,0,0,1,.21-.16.67.67,0,0,1,.33-.08c.59,0,1.17.8,1.63,1.59a8.49,8.49,0,0,0,2.85,2A12.88,12.88,0,0,1,192.46,67.36Zm-6-5.34c1.72-.12,2.61-.28,2.61-.28a19.35,19.35,0,0,0,.82,3.38,7.27,7.27,0,0,1-2.23-1.58A5.32,5.32,0,0,0,186.44,62Zm4.37-4.64c.26,0-.08.92.51,1s-.09,1.42-.09,1.42l-.87.22a36,36,0,0,1-6.45.95l-.6-.6.11-.22c.11-.18.2-.36.3-.55,1.28-.1,2.56-.25,3.82-.47l-2.31.08-1.35,0a8.35,8.35,0,0,0,.49-1.46c2.94-.1,5-.28,5.94-.36ZM199,36.65a5.66,5.66,0,0,1-1,1.87c-1.53,2.42-2.55,5.13-3.9,7.62-1.22,2.27-2.48,4.47-3.66,6.73-.57,1.09-1,3-2.27,3.5,0,0-1.37.13-3.55.23a8.24,8.24,0,0,0,0-.85,8.7,8.7,0,1,0-17.39,0s0,.08,0,.12c-.6-.1-1.18-.21-1.75-.34-1.35-.29-2.17-3.07-2.71-4.35a10.85,10.85,0,0,0-2.74-3.27,40.16,40.16,0,0,1-2.79-3.51c-1-1.3-1-1.82-.3-3.27a14,14,0,0,1,2.93,3.4c.39.58.66,1.63,1.25,2,1,.64.78-.41.56-1.08-.42-1.28-1.11-2.56-1.63-3.77s-1.92-2.42-1.45-3.86a5.33,5.33,0,0,1,.82-1.61c.48-.58.87-1,1.4-.57,1.3,1,1.31,3.29,2,4.7s.58,2.81,1.09,4.19c.59,1.57,1.34,2.93,1.85,4.53.25.77,1.54,4,1.65,1.51.08-1.55-.87-2.63-1.15-4.11A46,46,0,0,0,165,42a23.3,23.3,0,0,0-1.25-4.19c-.59-1.19-1.22-2.06,0-3.08.83-.7,1.79-1,2.45-2,1,.7,1.14,2.2,1.92,3.17,1.47,1.82.28-2,.55-2.53.76-1.49,1,1,2,.63.56-.24.54-1,1.24-1s.6.54,1.16.77c0,.95,1,1.93.41,2.89-.27-.29-.27-.64-.64-.72a27.78,27.78,0,0,0,.3,5.62,23.12,23.12,0,0,0,.84,3.17c.24.71.39,1.9,1,2.42.76-.31.45-3.17.4-3.94-.07-1.49-.39-2.93-.59-4.41a11,11,0,0,1,.09-3c.15-1-.46-1.88-.24-2.83,1-.11,1,.77,1.73-.28.49-.67.6-1.14,1.36-.41.55.53.42,1,1.35.7s1.09-.75,1.17.48c.16,2.61-.28,5.3-.25,7.94a35,35,0,0,0,.35,5.13c.46-.82.32-2.22.4-3.18a30.91,30.91,0,0,0,.15-3.85,24.09,24.09,0,0,1,.1-5.63c.18-.92.39-2.72,1.57-1.82.21.16.36.57.59.68.48.22.22,0,.67-.05s.23-.39.61,0,.12,2.27.09,2.78c-.07,1.33-.28,2.63-.34,3.95a28,28,0,0,0-.16,5.09c.69-.2.64-2,.76-2.57.2-1,.39-1.9.57-2.85a47.91,47.91,0,0,0,.67-5.43c.06-1,.65-3.65,1.74-1.89,1,1.6.36,4.18.2,6-.14,1.53-.47,3-.68,4.51-.13.94-.66,2.23-.49,3.16.61-.12.88-2.85,1.1-3.58.29-.95.56-1.9.75-2.85a38.26,38.26,0,0,1,.79-4.73c.29-.84,1.08-3.23,1.87-3.43,2.4-.56,1.26,3,1,4.13-.42,2.06-.83,4.16-1.45,6.2-.4,1.33-1.29,2.94-1.24,4.34.68-.47,1.29-3.19,1.58-4.05.48-1.4.67-2.84,1.09-4.24s.66-4.73,2.41-5.27c.54.94-.08,2.58-.21,3.59-.23,1.69-1.24,3.44-1,5.2,1-.49,1.14-2.44,1.41-3.42a12,12,0,0,1,.92-2.62c.26-.47,1-1.82,1.62-1.43.34.2.58,1.47,1,1.86s.46,0,.67.58A1.72,1.72,0,0,1,199,36.65Z"/><path class="cls-1" d="M82.68,92a36.12,36.12,0,0,1,.23,6.38,11.06,11.06,0,0,1-.31,1.93c-.09.43-.18.86-.25,1.31-.12.83-.41,2.78.89,3.68A30.76,30.76,0,0,0,88,107.91c0,.47,0,1-.08,1.45a12.73,12.73,0,0,0,.24,4.56l0,0a4.13,4.13,0,0,1,.27,2.36l-.26.37c-.41.57-.93,1.29-.68,2a1.14,1.14,0,0,0,.28.46,1.2,1.2,0,0,0,.24.52,1.38,1.38,0,0,0-.2.47,1.32,1.32,0,0,0,.31,1.21l0,0a2.94,2.94,0,0,1,0,.73,2.67,2.67,0,0,1-.16.53,2.14,2.14,0,0,0,.15,2.1,8.24,8.24,0,0,0,1,1.12l.36.35a9.56,9.56,0,0,0,1.78,1.42l.56.39.3.25a3,3,0,0,0,1,.64,1.9,1.9,0,0,0,.71.14,2,2,0,0,0,.76-.16c.11,0,.2-.07.31-.09l.43-.06a2.85,2.85,0,0,0,1.13-.34,1.13,1.13,0,0,1,.43-.08,3.35,3.35,0,0,0,.87-.19,1.35,1.35,0,0,0,1-1.06c.12-1-.91-1.71-1.82-2.38-.2-.15-.47-.36-.54-.43a2.68,2.68,0,0,1-.26-.51l-.21-.44c-.07-.13-.15-.33-.23-.53a5.64,5.64,0,0,0-.8-1.51.75.75,0,0,0,.07-.18.85.85,0,0,0,0-.38.74.74,0,0,0,.16-.32,4,4,0,0,0,.09-1v0a1.24,1.24,0,0,1,0-.27,3.47,3.47,0,0,0,0-.42,3.08,3.08,0,0,0-.19-1.16,2.38,2.38,0,0,1-.11-.42,1.81,1.81,0,0,1,.17-.81l.09-.26a11.76,11.76,0,0,0,.6-3.67.92.92,0,0,1,0-.19.63.63,0,0,1,.12.26,2.64,2.64,0,0,1,0,1.08,7,7,0,0,0-.08.93c0,.7,0,1.39,0,2.16a2,2,0,0,0,.51,1.35,1.13,1.13,0,0,0,.84.38,1.2,1.2,0,0,0,.83-.35,1.18,1.18,0,0,0,1.08.76,1.31,1.31,0,0,0,1-.51l.08-.09a1.91,1.91,0,0,0,1.54,1.16.92.92,0,0,0,.29,0,1.61,1.61,0,0,0,.42-.18,1.48,1.48,0,0,0,.82.46,2.43,2.43,0,0,0,.51.06,1.47,1.47,0,0,0,.91-.29,1,1,0,0,0,.74.36,1,1,0,0,0,.82-.45,1.31,1.31,0,0,0,.15,1.59,2.51,2.51,0,0,0,.48.44v.09c0,.2-.05.41-.08.61a4.74,4.74,0,0,0,.19,2.76l0,.08a6,6,0,0,0,1.91,2.71c.5.35,1,.74,1.47,1.12l.74.58a2,2,0,0,0,1.26.51,3.47,3.47,0,0,0,.73-.11,1.54,1.54,0,0,0,1.14-.78l.26,0h0a.8.8,0,0,0,.7-.42,3.71,3.71,0,0,0-.15-2.46l0-.16a4.6,4.6,0,0,0-1.12-2,4.65,4.65,0,0,1-.76-1.51l0-.1a7.84,7.84,0,0,1-.33-1.09,1.37,1.37,0,0,0,.46-.67,1.82,1.82,0,0,0-.07-1.13l.09-.17a1.24,1.24,0,0,0-.06-1,1,1,0,0,0,.15-.34,2.18,2.18,0,0,0-.44-1.58,1.69,1.69,0,0,1-.21-.38,2.27,2.27,0,0,1,.39-.62l.27-.37a4.57,4.57,0,0,0,.84-2c0-.15,0-.31,0-.47a4.12,4.12,0,0,1,.06-.52,5.22,5.22,0,0,1,.66.23,4.64,4.64,0,0,0,1.74.42,2.34,2.34,0,0,0,.38,0,5.78,5.78,0,0,0,3.3-1.49,6,6,0,0,0,1.19-6.44,6.64,6.64,0,0,0-2-2.12,4.18,4.18,0,0,0-1.25-.47,2.68,2.68,0,0,1-.8-.27l0,0a2.38,2.38,0,0,0-.16-.42,4.09,4.09,0,0,0-.43-.59,1.42,1.42,0,0,1-.25-.33,3.47,3.47,0,0,1,.11-1,6.17,6.17,0,0,0,.13-1c0-.94.09-1.87.17-2.78.06-.62.12-1.26.15-1.91a5.2,5.2,0,0,0-.18-1.87,6,6,0,0,0-.24-.61,2.28,2.28,0,0,1-.23-.68,9.55,9.55,0,0,1,.18-2.54c0-.17.05-.33.08-.5.06-.41.1-.83.14-1.24a14.69,14.69,0,0,1,.28-1.93A11.21,11.21,0,0,1,117.7,83a10.83,10.83,0,0,0,.59-1.8c.08-.44.14-.86.2-1.27a12.64,12.64,0,0,1,.36-1.89,11.77,11.77,0,0,0,.64-3.58,7.38,7.38,0,0,0-.66-2.61l-.19-.51-.19-.48a3.11,3.11,0,0,1-.37-1.71,12,12,0,0,1,.86-2.28l.16-.37a2.57,2.57,0,0,1,.46-.65,2.5,2.5,0,0,0,.75-2.17,4.92,4.92,0,0,0-.21-.86,2.56,2.56,0,0,1-.17-.69,1.58,1.58,0,0,1,.1-.52,3.33,3.33,0,0,0,.16-.94,5.87,5.87,0,0,0-.62-2.27c-.13-.31-.25-.59-.34-.86l-.11-.41a4.8,4.8,0,0,0-.38-1.1,3.45,3.45,0,0,0-.51-.67,10.4,10.4,0,0,0,.86-2.75l0-.19c0-.2.08-.4.11-.6.14-.8.22-1.2.71-1.49a7.71,7.71,0,0,1,1.54-.7l1-.42.2-.09c.48-.19,1.3-.51,1.45-1.37.21-1.15-.91-1.44-1.28-1.54l-.2,0c-.13-.05-.27-.08-.44-.13a5.22,5.22,0,0,1-.86-.27c.55-.46.81-.7.75-1.15a.81.81,0,0,0-.38-.58,4.14,4.14,0,0,1,.48-.7,4.46,4.46,0,0,0,.39-.57,2.15,2.15,0,0,0,.14-.26,2.17,2.17,0,0,1,.53-.74,3.13,3.13,0,0,1,.36-.22,2.86,2.86,0,0,0,1.08-1,.79.79,0,0,0,0-.85A2.05,2.05,0,0,0,123.3,39c-.37-.08-.5-.12-.57-.24s-.08-.2.14-.68a2.87,2.87,0,0,0,.35-1.38.77.77,0,0,0-.74-.73h-.1a3.48,3.48,0,0,0-1.27.31,2,2,0,0,1-.6.17h-.06a8.12,8.12,0,0,1-.65-.52c-.71-.6-1-.86-1.46-.86a.86.86,0,0,0-.41.1,1.06,1.06,0,0,0-.55.81c-.11.81.69,1.64,1.65,2.55l.22.21.15.19c.55.7.83,1.09.74,1.72a3.15,3.15,0,0,1-.34,1.08l-.13-.13a1.19,1.19,0,0,0-.86-.47c-.33,0-.88.15-1,1.19a2.5,2.5,0,0,0,.34,1.23c.06.13.12.26.15.35a1.16,1.16,0,0,1,0,.75.36.36,0,0,1-.16,0,4,4,0,0,1-.88-.44,4,4,0,0,0-2-.7c-.32,0-.7,0-1.08,0a6.83,6.83,0,0,0-2.44.36,4.4,4.4,0,0,0-.76.36l-.23.12c0-.12.11-.48.18-.74.33-1.26.58-2.24-.1-2.72a1,1,0,0,0-.62-.21,1.24,1.24,0,0,0-.79.33,1.6,1.6,0,0,1-.27-.46c-.31-.8-.1-1.06.74-1.93l.12-.12a4.39,4.39,0,0,0,1.5-2.68,1.52,1.52,0,0,0-.15-.61v0a.37.37,0,0,0-.24-.33l-.1-.11a.73.73,0,0,0-.52-.21h0a.8.8,0,0,0-.54.25l-.27.32c-.31.36-.78.91-1.1.93a4.13,4.13,0,0,1-.43-.21,2.62,2.62,0,0,0-1.22-.44,1.06,1.06,0,0,0-1,.87,1.87,1.87,0,0,0,.34,1.27l.13.27,0,.13a2.49,2.49,0,0,1,.12.63c0,.11-.31.21-.68.32a3.26,3.26,0,0,0-1,.43.76.76,0,0,0-.32.65,1.81,1.81,0,0,0,1.33,1.64,2,2,0,0,1,.45.24,5.46,5.46,0,0,1,.57.78,6.39,6.39,0,0,0,.52.76c.19.24.29.41.36.51a1,1,0,0,0-.25.91,1,1,0,0,0,.22.44,1.37,1.37,0,0,1-.3,0h-.42l-.33,0h-.13A1.59,1.59,0,0,0,105,46a2.48,2.48,0,0,0,.86,2.46,5.54,5.54,0,0,0,2.36,1.31l.57.21c1.09.41,1.06,1.28.73,3.17-.08.5-.17,1-.2,1.5a3.75,3.75,0,0,0,.11,1,2.73,2.73,0,0,1,.09.59c0,.16,0,.16-.14.32a3.27,3.27,0,0,0-.37.54,12.65,12.65,0,0,0-1,3.62.56.56,0,0,1-.07.15,2.31,2.31,0,0,0-.21.42,3.69,3.69,0,0,0,.08,2.29,5,5,0,0,1,.18.94c0,.51,0,.51-.82.71l-.41.11a6.86,6.86,0,0,1-1.53.14,9.43,9.43,0,0,0-1.38.08,17.08,17.08,0,0,0-2.37.6l-.5.16a13.24,13.24,0,0,0-4.45,2.82c-.5.42-1,.81-1.44,1.16-.19.14-.35.3-.52.44a2.88,2.88,0,0,1-.45.39,3.27,3.27,0,0,1-.53.26,4,4,0,0,0-1,.59,7,7,0,0,1-1.58,1l-.38.15a2.49,2.49,0,0,0-1.36,1,3.64,3.64,0,0,0-.2.33l0,.09h0l-.14.07a6.26,6.26,0,0,0-2.57,2.25,2.78,2.78,0,0,0-.34.85,1.28,1.28,0,0,1-.17.45l-.26.3a4.6,4.6,0,0,0-.65.93,12,12,0,0,0-.61,1.7,11.65,11.65,0,0,1-.45,1.3c-.1.22-.2.43-.29.64a12.3,12.3,0,0,0-.92,2.4,17.45,17.45,0,0,0,.1,6.37Zm12.31,20a.12.12,0,0,0-.06.06,5.57,5.57,0,0,0-.36,1.24c0,.14,0,.28-.07.43a5.23,5.23,0,0,1-.15.73,4.12,4.12,0,0,1-.21.62c0,.17-.12.34-.17.52a2.87,2.87,0,0,0-.16,1.28l0,0h0a.11.11,0,0,0,0,.16c0,.08.11.15.17.23a2.64,2.64,0,0,1,.4.71.44.44,0,0,1,0,.34.53.53,0,0,1-.31.15s0,0-.08,0a.31.31,0,0,0-.11.09.32.32,0,0,0-.06.23.36.36,0,0,0,.13.21l.06,0a.68.68,0,0,1,.16.58.52.52,0,0,1-.06.2s0,0,0,0l-.08,0a.4.4,0,0,0-.15,0,.35.35,0,0,0-.27.11.37.37,0,0,0,0,.53.65.65,0,0,0,.12.11c.07.07.12.18,0,.38a.53.53,0,0,1-.25.2l-.07,0,0,0a.36.36,0,0,0-.26-.11H93a.36.36,0,0,0-.28.44.35.35,0,0,1,0,.2s-.06.06-.14.06h-.06a.48.48,0,0,1-.38-.17.31.31,0,0,0-.25-.27h0a.3.3,0,0,0-.3.25.19.19,0,0,1-.11.17l-.14,0a.43.43,0,0,1-.19,0,.48.48,0,0,1-.29-.22.41.41,0,0,1,0-.36s0,0,0-.06a.12.12,0,0,0-.12-.12h-.07l0,0h0a.58.58,0,0,0-.12.28.63.63,0,0,0,0,.36,1,1,0,0,0,.43.49,1,1,0,0,0,.49.14l.19,0a.67.67,0,0,0,.23-.1l.16.12a1.29,1.29,0,0,0,.63.17.88.88,0,0,0,.72-.36.61.61,0,0,0,.09-.16.77.77,0,0,0,.32-.07c.06,0,.1-.06.15-.08a9.19,9.19,0,0,1,.74,1.47l.14.3a6.68,6.68,0,0,0,1.23,2,3.58,3.58,0,0,0,.75.55l.22.14,0,0c.26.17.52.34.56.53a.4.4,0,0,1,0,.24.59.59,0,0,1-.26.13l-.31,0a1.81,1.81,0,0,1-.61-.1h-.12a.28.28,0,0,0-.26.21,1,1,0,0,1-.09.24,1.79,1.79,0,0,0-.15.37,1.77,1.77,0,0,1-.33,0,1.47,1.47,0,0,1-.31,0h0a.14.14,0,0,0-.13.09v.06l0,.05h-.17a.14.14,0,0,0-.1-.08,5,5,0,0,1-2.36-.78,9.44,9.44,0,0,1-1.76-1.81,5.6,5.6,0,0,0-.77-.77l-.22-.19a3.27,3.27,0,0,1-.42-.43,2.14,2.14,0,0,1-.13-.19.7.7,0,0,1-.08-.23,2,2,0,0,1,.22-1l.06-.18a2.1,2.1,0,0,0,.15-.72.73.73,0,0,0,0-.25.91.91,0,0,0,.71-.39,0,0,0,0,0,0,0s0,0,0,0a.13.13,0,0,0-.13-.13h0l-.07,0a1,1,0,0,1-.2.11.56.56,0,0,1-.21,0h-.13l-.11-.07a.64.64,0,0,1-.25-.29c0-.15,0-.26,0-.29a.52.52,0,0,1,.28-.07h.24a.4.4,0,0,0,.37-.28.38.38,0,0,0-.28-.46.89.89,0,0,1-.26-.12.49.49,0,0,1-.18-.18.15.15,0,0,1,0-.12.9.9,0,0,1,.17-.14h0l.13-.08a.39.39,0,0,0,.12-.46.41.41,0,0,0-.19-.18.4.4,0,0,0-.15,0,.37.37,0,0,0-.15,0l-.24.13h-.16a.34.34,0,0,1-.23-.28.5.5,0,0,1,.17-.41c0-.06.1-.11.15-.17a1.35,1.35,0,0,0,.3-.4l.37-.09a.1.1,0,0,0,0,0h0a.14.14,0,0,0,.11-.07,2.64,2.64,0,0,0,.05-1.8c-.06-.26-.14-.52-.21-.77a7,7,0,0,1-.22-.81,7.77,7.77,0,0,1-.14-1.58c0-.16,0-.32,0-.49,0-.39,0-.79,0-1.2a.13.13,0,0,0-.08-.11,0,0,0,0,1,0,0c.16.06.31.12.46.16a4.2,4.2,0,0,1,.5.17c.31.11.62.24.93.37s.76.31,1.15.45a6.47,6.47,0,0,0,2.09.44h.2a3.7,3.7,0,0,0,.58-.1C95,111.88,95,112,95,112.08Zm-.85,9.64a.46.46,0,0,0-.07-.07s0,0,0,0h0l0,0Zm12.06-10.41a4.41,4.41,0,0,1-1.24.85l-.32.14a4.75,4.75,0,0,1-1.17.28,3.85,3.85,0,0,1-.48,0h-.08a3.91,3.91,0,0,1-.49,0,4.63,4.63,0,0,1-2.71-1.31,4.49,4.49,0,0,1-.07-6.31,4.62,4.62,0,0,1,3.16-1.42H103a4.66,4.66,0,0,1,1.91.42l.17.1a4.49,4.49,0,0,1,1.07.7,4.92,4.92,0,0,1,.93,1.23,4.67,4.67,0,0,1,.52,2A4.57,4.57,0,0,1,106.2,111.31ZM110.86,88l.09.44A9.5,9.5,0,0,1,111,91c0,.2,0,.4,0,.61l0,.66a14.29,14.29,0,0,0,0,2.36,8.15,8.15,0,0,0,.73,2.41l.16.4a9.62,9.62,0,0,1,.49,1.9l.12.61c.05.23.09.43.12.63h0a5.55,5.55,0,0,1-1-.85,17.23,17.23,0,0,0-1.35-1.45q-.34-.33-.69-.69c-.6-.63-1.26-1.2-1.89-1.76a18.14,18.14,0,0,1-2.53-2.5,9.14,9.14,0,0,0-.76-.85,3.51,3.51,0,0,1-1.28-3.08c0-.27,0-.53,0-.79s.09-.4.51-.82a4.39,4.39,0,0,0,.9-1.17c.13-.29.29-.57.45-.86a7.31,7.31,0,0,0,.91-2.1c0-.07,0-.16,0-.25a4.68,4.68,0,0,1,.4-1.34,3.1,3.1,0,0,1,1.18-.45,4.45,4.45,0,0,0,.58-.15,7.84,7.84,0,0,0,1.66-.84A6.72,6.72,0,0,1,111,79.9c0,.17.06.33.09.5a3.64,3.64,0,0,1,.11,1.41c-.07.37-.18.71-.29,1.09a8.16,8.16,0,0,0-.42,2.08A10.75,10.75,0,0,0,110.86,88Zm-3.36,8.15c-.11-.12-.24-.24-.36-.36a1.63,1.63,0,0,1,.2.17A1.46,1.46,0,0,1,107.5,96.12ZM105.31,82.3c0,.1-.11.19-.15.28a5.21,5.21,0,0,0-.23.88l0,.16a1.35,1.35,0,0,1-.32.73,4.12,4.12,0,0,0-.64.89,3.42,3.42,0,0,0-.26.76c0,.09-.05.17-.07.25a1.18,1.18,0,0,1-.44.62,2.18,2.18,0,0,1-.34.2c-.12.07-.26.15-.4.25a3.52,3.52,0,0,1,.39-1c.32-.54.61-1.08.82-1.5.54-1.07,1-2.16,1.51-3.26a1.84,1.84,0,0,1,.44,0,.37.37,0,0,1,.18.11A2.86,2.86,0,0,0,105.31,82.3Zm-2.85,6.34a5.67,5.67,0,0,0-.1.75v.08l0,0s0,0,0,.06a3.63,3.63,0,0,0,.39,2,9.8,9.8,0,0,0,1.11,1.72,25.84,25.84,0,0,0,2.61,2.81l.13.13a37.3,37.3,0,0,0,3,2.65l.21.18a5.8,5.8,0,0,1,.52.45c.18.19.34.38.52.59l.13.14.2.23a4.08,4.08,0,0,0,1.36,1.11h.06a.11.11,0,0,0,.08,0h0v0a1.46,1.46,0,0,1,.16.21h0a1.17,1.17,0,0,0,0,.11c.15.36,0,.47.1.83a.25.25,0,0,0,.09.13c.06.07.14.1.19.16a.67.67,0,0,0,.07.11.27.27,0,0,1,0,.09.69.69,0,0,1,0,.13h0c-.06,0-.11,0-.18,0a6.75,6.75,0,0,0-.64.85,5,5,0,0,0-.94,2.94,4.46,4.46,0,0,0,0,.63l-.1.09a1.6,1.6,0,0,0-.92.32,2.9,2.9,0,0,0-.33.2,5.69,5.69,0,0,0-.87.82l-.13.14a4,4,0,0,1-.88.83,2.6,2.6,0,0,1-1.12.35,5,5,0,0,0-.87-6A5.07,5.07,0,0,0,102.8,103h-.08a5.2,5.2,0,0,0-2.53.67c0-.1,0-.19,0-.29a4.82,4.82,0,0,0-.11-.52,1.63,1.63,0,0,0-.18-.43,1.36,1.36,0,0,0-.31-.32l0,0c-.44-.28-.41-.81-.33-1.33a7.72,7.72,0,0,1,.14-.79c.06-.28.12-.57.16-.86.08-.5.18-1.08.3-1.63a13.42,13.42,0,0,1,.43-1.58,10.37,10.37,0,0,1,.38-1l.22-.54a13.17,13.17,0,0,0,.89-3.33c0-.32,0-.64.05-.94s0-.5,0-.74a2.84,2.84,0,0,1,.16-.72,1.45,1.45,0,0,1,.13-.29.36.36,0,0,1,0-.09,1.48,1.48,0,0,0,.15.31l0,0a.13.13,0,0,0,.1.06Zm10.34,11a.14.14,0,0,0,0,.06c.08.24.16.49.23.73v.05a3.58,3.58,0,0,1,.1.63s0,.11,0,.17,0,.21,0,.32h0a2.2,2.2,0,0,1-.15-.26s0,0,0,0l0-.07c-.1-.48,0-1-.12-1.49A.44.44,0,0,1,112.8,99.67ZM111.61,108h0Zm-4.49,2.75h0a0,0,0,0,1,0,0Zm6.62,1.19a.33.33,0,0,1,0-.1.14.14,0,0,0-.09-.13h0a.14.14,0,0,0-.11,0,2.05,2.05,0,0,0-.31.94v.14a2.46,2.46,0,0,1-.25.84l-.23.42a5.22,5.22,0,0,0-.26.47,2.59,2.59,0,0,0-.26.77,2,2,0,0,0,0,.35.13.13,0,0,0,.1.11h0c0,.16-.07.33-.11.49l-.08-.06a.11.11,0,0,0-.07,0h0l0,0-.06,0a.14.14,0,0,0,0,.18c.06.06.11.13.17.2a3,3,0,0,1,.2.29,2.37,2.37,0,0,1,.25.55.38.38,0,0,1,0,.26h-.11l-.22,0-.2,0H112a.28.28,0,0,0-.28.24.3.3,0,0,0,0,.22.32.32,0,0,0,.18.12h0a.61.61,0,0,1,.39.52.42.42,0,0,1,0,.23l0,0h-.19a.44.44,0,0,0-.17.07.34.34,0,0,0-.16.27.38.38,0,0,0,.08.27l.09.07a.31.31,0,0,0,.17,0h.13c.12,0,.14,0,.15.07a.56.56,0,0,1,0,.37.51.51,0,0,1-.26.28h-.1a.46.46,0,0,1-.2-.1.41.41,0,0,0-.24-.08.39.39,0,0,0-.25.1.38.38,0,0,0-.13.26.37.37,0,0,0,.1.28l0,.06a.38.38,0,0,1-.16.06l-.17,0a.5.5,0,0,1-.38-.12.34.34,0,0,0-.33-.24h0a.34.34,0,0,0-.31.37c0,.16,0,.22-.19.24h-.1v-.1a.21.21,0,0,0,0-.14l0,0-.14-.13a.12.12,0,0,0-.08,0h-.07a1.33,1.33,0,0,0-.24.08l-.11.07-.08,0,0,0a.29.29,0,0,0-.08.14.49.49,0,0,1-.18-.47,0,0,0,0,0,0,0,.13.13,0,0,0-.13-.13h0s0,0-.05,0a.08.08,0,0,0,0,0v0a.85.85,0,0,0,0,.44s0,.07,0,.11a.64.64,0,0,0,.24.32.81.81,0,0,0,.46.14h0a1.29,1.29,0,0,0,.7.19h0a.81.81,0,0,0,.6-.26h0l.16.07a1.74,1.74,0,0,0,.45.06l.25,0a1,1,0,0,0,.73-.43s0-.07.05-.1h0s0,.1,0,.14l0,.21a1.52,1.52,0,0,0,0,1,5.36,5.36,0,0,0,.44,1c.14.24.28.48.43.7a9.2,9.2,0,0,1,.58,1c0,.14.1.3.16.45.16.48.34,1,.46,1.45a2.47,2.47,0,0,1,.1.77h0a1.88,1.88,0,0,1-.38-.17.33.33,0,0,0-.18,0,.28.28,0,0,0-.16,0,.27.27,0,0,0-.14.19.29.29,0,0,0,0,.24,1,1,0,0,1,.1.23l-.08,0a1.2,1.2,0,0,0-.35.21l0,0-.15.14a1.46,1.46,0,0,1-.75.08,7.43,7.43,0,0,0-1.89-1.58,5,5,0,0,1-1.59-1.54c-.18-.32-.4-.68-.58-1a3.49,3.49,0,0,1-.41-1,4.4,4.4,0,0,1,0-1.08,5.47,5.47,0,0,0,0-1.28.09.09,0,0,0-.07-.09c0-.14,0-.27,0-.39l0,0a.17.17,0,0,0,.11-.2h0a.61.61,0,0,1,0-.11l0-.08a.09.09,0,0,0,0,0,.13.13,0,0,0-.13-.13h-.07l0,0h0s0,0,0,.06a.62.62,0,0,0-.09.12h0l-.2,0a.89.89,0,0,1-.26-.21l0,0c0-.06,0-.11,0-.14a.5.5,0,0,1,.15-.35.36.36,0,0,1,.12-.08,1,1,0,0,0,.32,0,.39.39,0,0,0,.28-.3.28.28,0,0,0,0-.09v0a.39.39,0,0,0-.38-.33h0l-.23,0h0a.41.41,0,0,1-.05-.09,0,0,0,0,1,0,0,.79.79,0,0,1,.27-.57.36.36,0,0,0,.14-.35.36.36,0,0,0-.35-.32h0c-.07-.06-.15-.13-.16-.19s0,0,0,0l.05-.11c.08-.16.19-.34.32-.55l0,0a3.91,3.91,0,0,1,.36-.47.1.1,0,0,0,0-.1h.07c0-.36.08-.7.12-1,0,.11.09.23.14.35a.13.13,0,0,0,.12.07h0a.12.12,0,0,0,.11-.1,5,5,0,0,0,0-1.92,5.3,5.3,0,0,0-.25-.94,2.87,2.87,0,0,0-.49-.87.12.12,0,0,0-.1,0h0s0,0-.06,0a1.91,1.91,0,0,1,.08-.85h0l0,.32a.7.7,0,0,1,0-.32c.11,0,.21,0,.32,0a1.87,1.87,0,0,0,.77-.16,3.23,3.23,0,0,0,1.15-.89l.32-.37c.18-.22.35-.42.53-.6a2.51,2.51,0,0,1,1-.65,5,5,0,0,0,1.43,2.44,5.41,5.41,0,0,0,.72.54l0,0a.71.71,0,0,1,0,.15A1.84,1.84,0,0,1,113.74,111.89Zm6.05-8.07a4.36,4.36,0,0,1,.79,5.45,6.59,6.59,0,0,1-1.48,1.5,4.48,4.48,0,0,1-2.34.67h-.08a4.49,4.49,0,0,1-3.1-1.31,4.33,4.33,0,0,1-.07-6.1,4.43,4.43,0,0,1,3.06-1.38h.18A4.52,4.52,0,0,1,119.79,103.82Zm-.8-61.9,0,.07a1.25,1.25,0,0,0,.17.35.83.83,0,0,0,.33.29.73.73,0,0,0,.3.06.62.62,0,0,0,.19,0,1.88,1.88,0,0,0,1-1,3.39,3.39,0,0,0,.4-1.25,2.09,2.09,0,0,0-.29-1.35,5,5,0,0,0-1.34-1.41l-.4-.33a2.29,2.29,0,0,1-.62-.8,1.4,1.4,0,0,1-.09-.31,4.93,4.93,0,0,0,.44.5l.09.09a2.58,2.58,0,0,0,1,.72.88.88,0,0,0,.27,0,1.6,1.6,0,0,0,.54-.12h0c.23-.09.43-.2.6-.28l.07-.05.44-.21h0l-.06.19-.2.56c-.07.19-.14.39-.2.61l0,.08a1.36,1.36,0,0,0,0,.73c0,.09.08.21.13.33a1.72,1.72,0,0,0,.22.33,1.63,1.63,0,0,0,.65.44,2.53,2.53,0,0,0,.85.13h.2l-.07.06a3.22,3.22,0,0,1-.46.24l-.21.1a4,4,0,0,0-.75.49,1,1,0,0,0-.32.5l-.11.4a2.39,2.39,0,0,1-.52,1c-.09.11-.17.23-.26.35l-.06.09a1.81,1.81,0,0,0-.36.75.63.63,0,0,0,.22.6l-.07,0a1,1,0,0,0-.52.35.8.8,0,0,0-.15.38,1.38,1.38,0,0,0,0,.22l0,.13a.44.44,0,0,1,0,.41,1.82,1.82,0,0,1-.82.58,2.36,2.36,0,0,1-.92.23h0a.86.86,0,0,1-.09-.3l.2-.21a7.76,7.76,0,0,0,.58-.67,2,2,0,0,0,.31-.59,2.37,2.37,0,0,0,.19-.92,4.14,4.14,0,0,0-.32-1.45l0-.08v0a3.42,3.42,0,0,1-.23-1h0A0,0,0,0,0,119,41.92Zm-11.32-.17-.11-.41a1.06,1.06,0,0,0-.34-.49,4,4,0,0,0-.76-.48l-.21-.09a3.06,3.06,0,0,1-.48-.24l-.07,0h.11a2.65,2.65,0,0,0,.94-.15,1.65,1.65,0,0,0,.64-.45,2.3,2.3,0,0,0,.21-.33,2.62,2.62,0,0,0,.13-.35,1.25,1.25,0,0,0,0-.73l0-.07c-.06-.22-.14-.42-.21-.61l-.22-.56-.06-.18h0a4.09,4.09,0,0,1,.44.2l.08,0c.17.08.37.19.59.27h0a1.49,1.49,0,0,0,.51.1,1.43,1.43,0,0,0,.29,0,2.71,2.71,0,0,0,1-.75l.09-.09c.16-.18.31-.35.43-.51a1.49,1.49,0,0,1-.09.3,2.11,2.11,0,0,1-.59.82l-.4.34a5.26,5.26,0,0,0-1.31,1.45,2,2,0,0,0-.24,1.34,3.15,3.15,0,0,0,.42,1.24,1.86,1.86,0,0,0,1,.93l.18,0a.64.64,0,0,0,.31-.07.78.78,0,0,0,.33-.3,1.55,1.55,0,0,0,.19-.45h0v0a3.22,3.22,0,0,1-.21,1.06l0,0,0,.09a4.11,4.11,0,0,0-.28,1.45,2.65,2.65,0,0,0,.44,1.36l.09.14a7.57,7.57,0,0,0,.6.65l.2.21a.71.71,0,0,1-.08.31h-.07a2.68,2.68,0,0,1-.9-.21,1.8,1.8,0,0,1-.83-.57.34.34,0,0,1,0-.26.59.59,0,0,1,0-.13.88.88,0,0,0,0-.37.83.83,0,0,0-.15-.37,1,1,0,0,0-.53-.34l-.08,0a.63.63,0,0,0,.21-.61,1.92,1.92,0,0,0-.38-.74l-.06-.08c-.08-.12-.17-.23-.26-.35A2.25,2.25,0,0,1,107.67,41.75Zm2.77,2.14a2.17,2.17,0,0,1,0,.26s0-.06,0-.09A1.11,1.11,0,0,1,110.44,43.89Zm-2.06.12s0,0,0,.05a.29.29,0,0,1-.08,0Zm.7,16.25a3.94,3.94,0,0,1,.29-.78c.07-.16.15-.32.21-.49a6.58,6.58,0,0,0,.22-.71c0-.06,0-.12,0-.17a1.55,1.55,0,0,1,.15-.46l0-.06a2.87,2.87,0,0,1,.34-.46c.06-.07.13-.14.19-.22a.27.27,0,0,0,.07.08l.09.12a.12.12,0,0,0,.09,0,.14.14,0,0,0,.09,0,.13.13,0,0,0,0-.17,2.48,2.48,0,0,1-.18-.31.47.47,0,0,0,.06-.09l0,0a.19.19,0,0,0,0-.07.13.13,0,0,0-.13-.13h0l-.06,0,0,0a3.35,3.35,0,0,1-.17-1.26,13.31,13.31,0,0,1,.21-1.74l0-.27a6.77,6.77,0,0,0,.1-2.16,2.39,2.39,0,0,0-.45-1.12,2.56,2.56,0,0,0-1-.75l-.39-.14a9.31,9.31,0,0,1-1.48-.64,3,3,0,0,1-1.35-1.23,1.82,1.82,0,0,1-.26-.81v0s.08-.07.36-.07h.19a2.31,2.31,0,0,1,.37,0c.21,0,.41,0,.62,0h0a1.19,1.19,0,0,0,1-.35l.47-.08a.77.77,0,0,0,.13.42,2.1,2.1,0,0,0,1.06.68,2.9,2.9,0,0,0,.93.18l.25,0h0s.09-.05.1-.09a2.6,2.6,0,0,0,.1-.25.11.11,0,0,0,.08,0,.16.16,0,0,0,.09,0,.14.14,0,0,0,0-.18l-.18-.22v0a.13.13,0,0,0-.1-.1,1.07,1.07,0,0,0-.14-.16,6.44,6.44,0,0,1-.52-.65.41.41,0,0,1-.07-.11A1.7,1.7,0,0,0,111,45L111,45v0a.08.08,0,0,0,0,.06.11.11,0,0,0,.1.06h.06a6.59,6.59,0,0,1,1.77-.59,6,6,0,0,1,1.08-.11,4,4,0,0,1,.71.06,11.41,11.41,0,0,1,1.41.3l.44.1a4.44,4.44,0,0,1,.6.22,3.1,3.1,0,0,0,1.21.32h.08a.12.12,0,0,0,.1-.08s0,0,0,0a.12.12,0,0,0-.09-.14l-.25-.09.51.16.23.08a2,2,0,0,1-.25.53,8,8,0,0,1-.5.65l-.15.17,0,0h0l0,0s0,0,0,0v0l-.17.22a.13.13,0,0,0,0,.18.11.11,0,0,0,.07,0,.13.13,0,0,0,.1,0,.82.82,0,0,0,.1.26.17.17,0,0,0,.1.07,1.14,1.14,0,0,0,.26,0,2.92,2.92,0,0,0,1-.19,2.19,2.19,0,0,0,1-.71.83.83,0,0,0,.13-.43v0l.25.1-.08,0h0a.14.14,0,0,0,0,.17,3.63,3.63,0,0,0,1.26.43l.33.07a5,5,0,0,1,.74.21l.12.07.07.07h0a.24.24,0,0,1,0,.14,2.79,2.79,0,0,1-.51.52,2.71,2.71,0,0,1-.63.35,6.1,6.1,0,0,1-1.1.27l-.44.09-.4.1.3-.11,0,0,.16-.06a4.67,4.67,0,0,0,.63-.26,1.88,1.88,0,0,0,.73-.6.12.12,0,0,0,0-.14.13.13,0,0,0-.11-.06h0l-.6.12a9.29,9.29,0,0,0-1,.26,2.51,2.51,0,0,0-.83.49,1.21,1.21,0,0,0-.41.91.11.11,0,0,0,0,.08l-.1.08a2.94,2.94,0,0,0-.48.78,6.23,6.23,0,0,0-.3.81c-.13.43-.24.88-.34,1.3a12.94,12.94,0,0,1-.52,1.79,6.18,6.18,0,0,1-1.71,2.52c-.21.18-.41.34-.61.48a.91.91,0,0,1-.55.21,1.56,1.56,0,0,1-1-.72,10.88,10.88,0,0,1-1.39-2.82,8.32,8.32,0,0,1-.33-1.35,6.78,6.78,0,0,0-.52-1.79.14.14,0,0,0-.11-.07h-.06a.14.14,0,0,0-.07.17,6.34,6.34,0,0,1,.34,1.7,10.13,10.13,0,0,0,.26,1.49A11.61,11.61,0,0,0,113,57.1l.13.18a2.45,2.45,0,0,0,.48.49,1.65,1.65,0,0,0,1,.37h0a1.71,1.71,0,0,0,.92-.33,7.43,7.43,0,0,0,.67-.51,6.06,6.06,0,0,0,1.24-1.41,1.57,1.57,0,0,1,.51.62,5.74,5.74,0,0,1,.46,1.29c0,.19.08.37.12.57l0,.12a4.37,4.37,0,0,0,.25.72l.07.16a3.5,3.5,0,0,1,.34,1.09.8.8,0,0,1-.11.5.63.63,0,0,1-.35.31,3.27,3.27,0,0,1-.89.17l-.42.05a2.69,2.69,0,0,0-.4.09,3.52,3.52,0,0,0-.39.17l-.42.26-.21.13a1.7,1.7,0,0,1-.51.24h-.25l-.27-.06a3,3,0,0,1-.73-.43l-.39-.27a3.46,3.46,0,0,0-1.48-.56,9.44,9.44,0,0,0-1,0h-.57a5.53,5.53,0,0,1-1.2-.09.72.72,0,0,1-.42-.22A.66.66,0,0,1,109.08,60.26Zm8.63-4.56a.67.67,0,0,0-.14-.09l0-.06Zm-22.5,15a1.15,1.15,0,0,0,.73-.25,2.48,2.48,0,0,0-.19.26,1.67,1.67,0,0,0-.12.16l0,0s0,0,0,0l-.07,0a.11.11,0,0,0-.08,0,5.57,5.57,0,0,1-1.08.66l-.17.09-.34.18A9.88,9.88,0,0,0,95.21,70.71Zm-7.06,5.75a1.37,1.37,0,0,1,.43-.37,1.09,1.09,0,0,1,.47-.16l.14,0a1.12,1.12,0,0,0,.81-.69c0-.09,0-.17.07-.24a.62.62,0,0,1,.11-.3,1,1,0,0,1,.5-.26l.41-.08A2.38,2.38,0,0,0,92.21,74a4.64,4.64,0,0,0,.79-.81l.27-.32a4.2,4.2,0,0,1,1.18-.92,5.81,5.81,0,0,0,1-.69,2.89,2.89,0,0,0-.34,1.23,4.08,4.08,0,0,0,.22,1.47,6.64,6.64,0,0,0,1.43,2.5,7.07,7.07,0,0,0,1.53,1.17c.25.16.5.32.74.49a.11.11,0,0,0,.08,0h0a.2.2,0,0,0,.09,0s0-.09,0-.13,0,0,0,0c-.27-.25-.55-.47-.82-.68a5.76,5.76,0,0,1-1.23-1.12,6.12,6.12,0,0,1-1.19-2.34,4.41,4.41,0,0,1-.14-1.27,2.28,2.28,0,0,1,.4-1.11,8.41,8.41,0,0,1,1.89-1.82,21.67,21.67,0,0,1,2.2-1.61,7.9,7.9,0,0,1,2.42-1,16.39,16.39,0,0,1,2.11-.21l.6,0a8,8,0,0,0,2.76-.6.15.15,0,0,0,.08-.12.13.13,0,0,0-.08-.11l.4-.25s-.06-.08.28-.32a.72.72,0,0,0,.24.27.75.75,0,0,0,.36.1.73.73,0,0,0,.29-.07.61.61,0,0,0,.31-.33,1.55,1.55,0,0,0,.09-.29,4.42,4.42,0,0,0,0-1v-.12a3.89,3.89,0,0,1,.38-1.7,1.38,1.38,0,0,1,.33-.41,10.2,10.2,0,0,1,1.38.07,2.57,2.57,0,0,1,1.16.46l.34.24a3.78,3.78,0,0,0,1,.56,1.82,1.82,0,0,0,.45.08h.3l.15,0a2.2,2.2,0,0,0,.78-.34l.22-.15.36-.23.25-.11.3-.07.39,0,.2,0a1.41,1.41,0,0,1,.2.35c0,.09.06.17.08.25a.27.27,0,0,0-.07-.08.12.12,0,0,0-.09-.05l-.07,0a.12.12,0,0,0,0,.16,2.43,2.43,0,0,1,.24,1.36c0,.2-.07.4-.11.61a8.44,8.44,0,0,0-.15.9v0a.38.38,0,0,0,.12.27,4.83,4.83,0,0,1-.37,1.32,9.78,9.78,0,0,1-.78,1.46,8.9,8.9,0,0,1-1,1.29,2.7,2.7,0,0,1-1.22.84,2.6,2.6,0,0,1-.56.06,1.71,1.71,0,0,1-.82-.19,3.54,3.54,0,0,1-.75-.63c-.15-.15-.3-.3-.47-.44l-.48-.41c-.28-.24-.55-.46-.79-.71a4,4,0,0,1-.87-1.37.13.13,0,0,0-.12-.08h0a.13.13,0,0,0-.09.15,4,4,0,0,0,.73,1.63,10.24,10.24,0,0,0,.78.82l.43.43.31.34a5.08,5.08,0,0,0,1,.91,2.3,2.3,0,0,0,1,.29h.48l.23,0a1.28,1.28,0,0,0,.27-.05,3.53,3.53,0,0,0,1.57-1.07,11.32,11.32,0,0,0,.68-.91l.15-.25a3.33,3.33,0,0,0,.15,1.19.08.08,0,0,0,0,.08h0a2.27,2.27,0,0,0,.28,1l0,.07.18.36c.09.17.17.33.25.5l.12.33c0,.07,0,.14.07.2a4.72,4.72,0,0,1,.18,1.4,7.35,7.35,0,0,1-.32,1.92c-.1.33-.22.65-.35,1s-.23.6-.33.92a7.77,7.77,0,0,0-.26,1c0,.19,0,.38-.07.57s0,.3,0,.44a13,13,0,0,1-.43,1.94c-.08.3-.18.6-.27.9a27.85,27.85,0,0,0-.8,3.05c-.11.62-.2,1.27-.29,2a7.9,7.9,0,0,0,0,2.12,5,5,0,0,0,.29,1,4.67,4.67,0,0,1,.31.91,9.75,9.75,0,0,1,.14,1.94v.18c0,.6,0,1.22-.08,1.83,0,.26,0,.53-.07.79s-.09.82-.11,1.23c0,.17,0,.33,0,.49a4.17,4.17,0,0,1,0,.52v.2a4.09,4.09,0,0,0,0,.86h0a1.31,1.31,0,0,0,.06.27,1.36,1.36,0,0,0,.11.28,2.8,2.8,0,0,0,.33.44,1,1,0,0,1,.38.73h-.27a5,5,0,0,0-2.83.89l-.05,0a.56.56,0,0,1-.13-.38v-.12a3.43,3.43,0,0,1,0-.56v0a2.23,2.23,0,0,1,0-.23c0-.07,0-.15,0-.23s0-.18,0-.28a3.35,3.35,0,0,0,0-.72v-.08a9.82,9.82,0,0,0-.34-1.24l-.07-.22-.43-1.41,0-.08a16.12,16.12,0,0,1-.63-2.75,14.45,14.45,0,0,1,0-2.71l0-.18a13.62,13.62,0,0,0-.09-3c0-.28-.09-.56-.14-.83-.13-.71-.24-1.39-.3-2.07a7.13,7.13,0,0,1,0-1.41c0-.34.13-.68.2-1l.09-.42a12.79,12.79,0,0,0,.23-1.49,2.79,2.79,0,0,0-.21-1.54.14.14,0,0,0-.11-.06,0,0,0,0,0,0,0l0,0a.12.12,0,0,0-.06.06,1.09,1.09,0,0,0-.33-.52l0,0a.58.58,0,0,0-.22-.08.69.69,0,0,0-.3,0c.06-.1.13-.19.18-.28h0l.25-.41a7.87,7.87,0,0,1,.73-1.08.12.12,0,0,0,0-.16.14.14,0,0,0-.1,0l-.06,0a4.85,4.85,0,0,0-1.31,1.24l0,.06a4.62,4.62,0,0,1-1.21,1.14A6.75,6.75,0,0,1,106,81a.15.15,0,0,0-.12.12.13.13,0,0,0,.09.14h0a2.33,2.33,0,0,0,.36.08,3.21,3.21,0,0,1-.55,0h0c-.32,0-.22-.21-.49-.09l.86-2,.24-.58a.14.14,0,0,0-.07-.17h0a.13.13,0,0,0-.12.07c-.33.62-.65,1.26-1,1.87l-.56,1.12h0c-.48,1-1,2-1.54,3-.3.53-.58,1-.85,1.44a4.89,4.89,0,0,0-.49,1.2,1,1,0,0,0,0,.18c0,.08,0,.17-.08.25s0,0,0,0a2.63,2.63,0,0,1-.15.35c-.06.11-.12.23-.18.37a4,4,0,0,0-.21.92c0,.27,0,.54-.05.8a8.29,8.29,0,0,1-.06.87,12.29,12.29,0,0,1-.79,3.15,14.58,14.58,0,0,0-1,3.27c-.09.56-.17,1.13-.23,1.67,0,.28-.07.54-.11.82s-.09.56-.12.85a3.2,3.2,0,0,0,0,.91,1.11,1.11,0,0,0,.2.47,2.54,2.54,0,0,0,.35.32,1.44,1.44,0,0,1,.58,1,3.1,3.1,0,0,0,.1.36s0,0,0,0a5,5,0,0,0-.83.65,4.69,4.69,0,0,0-.91,1.2.09.09,0,0,0-.07,0h0l0,0,0,0a0,0,0,0,1,0,0,.78.78,0,0,1-.11.18.66.66,0,0,1-.17.12.75.75,0,0,1-.31.06.9.9,0,0,0-.12-.24l-.06-.08c0-.06-.08-.11-.1-.15a.18.18,0,0,0-.17-.11.15.15,0,0,0-.09,0,.41.41,0,0,1-.18,0,.2.2,0,0,1-.15-.07,1,1,0,0,1-.16-.48s0-.05,0-.07a.23.23,0,0,0-.2-.12.15.15,0,0,0-.09,0,.5.5,0,0,1-.19,0,.2.2,0,0,1-.11,0,.53.53,0,0,1-.2-.28,3.32,3.32,0,0,1-.19-.92,5.45,5.45,0,0,1,0-1,3.53,3.53,0,0,1,.21-.92c.06-.16.12-.33.19-.5a6,6,0,0,0,.45-1.52c.06-.62.08-1.22.1-1.81l0-.26v-.32a26.65,26.65,0,0,1,1.07-7.69l.24-.75c.18-.57.37-1.15.53-1.74,0-.06,0-.12,0-.18.12-.44.23-.88.31-1.33a16.34,16.34,0,0,0,.18-1.7l0-.37c.06-.82.12-1.45.2-2a19.42,19.42,0,0,1,.36-2c.12-.43.28-.87.44-1.31,0-.06,0-.12.07-.19l.15-.41.73-1.92.06-.15a8.13,8.13,0,0,0,.58-1.83.12.12,0,0,0-.11-.14h0a.14.14,0,0,0-.13.1,8.16,8.16,0,0,1-.6,1.58l-.13.29-.83,1.89-.23.52c0,.11-.08.21-.13.32-.13.34-.27.71-.4,1.09-.2.73-.33,1.41-.44,2s-.18,1.26-.26,2.06l0,.33a.85.85,0,0,1-.23,0,1.12,1.12,0,0,1-.62-.19,4.78,4.78,0,0,1-1-1c-.1-.12-.2-.23-.29-.35a10.44,10.44,0,0,0-.71-.8,2.35,2.35,0,0,0-.71-.48,5,5,0,0,0-.76-.24l-.48-.11a5.86,5.86,0,0,1-.92-.25,5,5,0,0,1-1.17-.74L90,78.79l-.09-.06c-.37-.29-.72-.56-1-.85a2.51,2.51,0,0,1-.77-1A.49.49,0,0,1,88.15,76.46Zm-4.7,8.08a21.48,21.48,0,0,1,1-2.72c.07-.22.12-.78.23-1.15a.14.14,0,0,1,0-.06.55.55,0,0,1,.12-.23.31.31,0,0,1,.37,0v0a1.57,1.57,0,0,0,.73.86,5.72,5.72,0,0,0,1.82.63l.25.06a5.9,5.9,0,0,1,1.17.33l.12.06c0,.15,0,.3,0,.45h0a.13.13,0,0,0-.12.08l-.06.11a3.39,3.39,0,0,1-.37.56,2.88,2.88,0,0,0-.22.27,2,2,0,0,0-.32.62,1.69,1.69,0,0,0,0,.74.38.38,0,0,0,.37.31,1.19,1.19,0,0,0,1-.61,2.29,2.29,0,0,0,.31-.91,3.86,3.86,0,0,0,0-.9,3.25,3.25,0,0,0-.14-.54l.17.09a11.29,11.29,0,0,1,1.14.76l.37.27.09.07a14.06,14.06,0,0,0,1.61,1.07h0l.24.14c.47.24,1,.46,1.42.66l0,0,.22.1c0,.39.06.78.08,1.16v.34a5.56,5.56,0,0,1,0,.58,1.35,1.35,0,0,1-.12.57l0,0h-.09a.89.89,0,0,1,0-.39c0-.2.05-.39.08-.6a3.74,3.74,0,0,0,.09-.95.13.13,0,0,0-.11-.12h0l0,0a.13.13,0,0,0-.09.07c-.06.17-.14.33-.21.5a4.48,4.48,0,0,0-.36,1,1.44,1.44,0,0,0,0,.48.88.88,0,0,0,.26.59.45.45,0,0,0,.17.11.2.2,0,0,0,.08,0l0,0a1.17,1.17,0,0,0,.3,0h0a.75.75,0,0,0,.61-.4,2,2,0,0,0,.2-.93,6.31,6.31,0,0,0-.08-.84,7.27,7.27,0,0,0-.3-1.07,15,15,0,0,1,1.6.82.1.1,0,0,0,.07,0l.06,0s0,0,0,0a.12.12,0,0,0,0-.13s0,0,0,0a11.17,11.17,0,0,0-1.75-1.18L94.9,85c-.41-.22-.83-.45-1.23-.69A13.75,13.75,0,0,1,92,83.15a14.74,14.74,0,0,0-1.77-1.26,6.41,6.41,0,0,0-2.08-.71,7.2,7.2,0,0,1-1.9-.53.87.87,0,0,1-.51-.55,1,1,0,0,1,.27-.73l.26-.34a4.62,4.62,0,0,0,.37-.5,1.4,1.4,0,0,0,.25-1.12.14.14,0,0,0-.09-.08h0a1.16,1.16,0,0,1,0-.18,1.26,1.26,0,0,1,.56-.79,1.59,1.59,0,0,0-.06.3,1.18,1.18,0,0,0,0,.42,3.11,3.11,0,0,0,1,1.37,10.53,10.53,0,0,0,1,.76l.26.19,1.17.93a6,6,0,0,0,1.36.83,7.31,7.31,0,0,0,1.25.3l.26,0a2.34,2.34,0,0,1,1.2.51,8.06,8.06,0,0,1,.71.72l.32.34A5.1,5.1,0,0,0,97,84a1.49,1.49,0,0,0,.72.19h.09l.21,0a11.68,11.68,0,0,1-.17,1.34c-.07.38-.16.75-.26,1.12l-.06.23c-.17.59-.36,1.18-.57,1.79l-.24.75a17.56,17.56,0,0,0-.56,2,16.92,16.92,0,0,0-.3,2.07c-.13,1.38-.17,2.77-.21,4.12l0,.83c0,.41,0,.82,0,1.21a5.79,5.79,0,0,1-.37,1.38c-.06.17-.12.34-.17.51a4.15,4.15,0,0,0-.22,1.08,8.06,8.06,0,0,0,0,1.07,3.66,3.66,0,0,0,.27,1.07,1.06,1.06,0,0,0,.44.49.75.75,0,0,0,.29.06h.16a.88.88,0,0,0,.23.42.58.58,0,0,0,.42.2.62.62,0,0,0,.23,0L97,106,97,106a.39.39,0,0,1,.11.21.18.18,0,0,0,.16.15h0a1.12,1.12,0,0,0,.53-.13l.08-.06a5,5,0,0,0-.36,1.92,5.12,5.12,0,0,0,1,2.92h-.07l-.07,0a4.36,4.36,0,0,0-1-.08l-.61,0h-.34a2.28,2.28,0,0,0-.37,0,3.69,3.69,0,0,0-1,.32,2.65,2.65,0,0,1-.73.12h0a5.59,5.59,0,0,1-2-.48c-.37-.14-.75-.3-1.11-.47l-.94-.4c-.18-.08-.36-.14-.54-.21l-.5-.18-.14-.08,0,0a2.37,2.37,0,0,1,0-.45,17.49,17.49,0,0,0,.22-2.26c0-1.22.1-2.84,0-4.49a29.69,29.69,0,0,0-.53-4.49,20.8,20.8,0,0,0-1.22-4.37c-.06-.15-.13-.29-.2-.45-.23-.54-.46-1-.63-1.59a6.23,6.23,0,0,1-.23-1c0-.24,0-.49-.06-.74l0-.37a11.44,11.44,0,0,1,0-2.19,3.69,3.69,0,0,1,.26-1,1.66,1.66,0,0,0,.08-1.2.13.13,0,0,0-.12-.07h0a.13.13,0,0,0-.07.17,1.39,1.39,0,0,1-.15,1,3.86,3.86,0,0,0-.35,1.1A13.43,13.43,0,0,0,86,89.29v.18c0,.31,0,.63,0,1a7.47,7.47,0,0,0,.22,1.15c.17.57.39,1.13.6,1.66l.18.46A21.56,21.56,0,0,1,88.13,98a29.65,29.65,0,0,1,.48,4.38c.06,1.29.06,2.66,0,4.44,0,.19,0,.36,0,.54s0,.09,0,.13h0a.13.13,0,0,0-.06-.14l-.28-.15a23.43,23.43,0,0,1-2.72-1.76c-.45-.32-.92-.67-1.43-1.06a1.33,1.33,0,0,1-.58-1.28,7.53,7.53,0,0,1,.24-1.08,6.25,6.25,0,0,0,.16-.62,11.83,11.83,0,0,0,.23-1.63l0-.19a28.75,28.75,0,0,0,0-3.63c-.06-1.2-.17-2.41-.26-3.58s-.21-2.38-.27-3.56a14.39,14.39,0,0,1,.2-3.5,6.36,6.36,0,0,1,.54-1.51,5.56,5.56,0,0,0,.6-1.86.12.12,0,0,0-.11-.14h0l0,0a.11.11,0,0,0-.1.09A5.63,5.63,0,0,1,84,83.51a9.11,9.11,0,0,0-.61,1.34C83.42,84.75,83.43,84.65,83.45,84.54Z"/><path class="cls-1" d="M110.87,48.51s0,0,0,0a.18.18,0,0,1,0-.09.2.2,0,0,0-.15-.24h0l-.86-.19c-.36-.08-.71-.15-1-.24a4.82,4.82,0,0,1-1.72-.75.11.11,0,0,0-.08,0,.11.11,0,0,0-.07,0,.11.11,0,0,0,0,.14,2,2,0,0,0,.72.88,3.48,3.48,0,0,0,1,.46,4.44,4.44,0,0,0,1,.19l.37,0a4.58,4.58,0,0,0,.53,0l.09.09.1.06.06,0a.13.13,0,0,0,.1,0h.06a.13.13,0,0,0,.07-.14A.49.49,0,0,0,110.87,48.51Z"/><path class="cls-1" d="M113.88,55.43a1.46,1.46,0,0,0,.65.43l.14,0a.37.37,0,0,0,.25-.09,2.09,2.09,0,0,0,.34-.42,1.78,1.78,0,0,0,.23-.48l0-.06a.27.27,0,0,0-.2-.32l-.09,0a1.68,1.68,0,0,0-.4-.06h-.06l-.28-.11a1.89,1.89,0,0,0-.39,0h-.15a.28.28,0,0,0-.24.2l0,0a1,1,0,0,0,0,.47A1,1,0,0,0,113.88,55.43Zm.56-.6.28,0h0l0,0-.21.21-.17-.13-.07-.08Z"/><path class="cls-1" d="M111.41,49.79h0l.11,0a1,1,0,0,1,.24,0h0l.38.14.11.06h0a.14.14,0,0,0,0,.14.6.6,0,0,0,.39.4.55.55,0,0,0,.18,0,.93.93,0,0,0,.39-.09.3.3,0,0,0,.17-.29v0a.85.85,0,0,0-.4-.67,1.55,1.55,0,0,0-.55-.25,2.21,2.21,0,0,0-.35,0l-.25,0a.74.74,0,0,0-.55.37.14.14,0,0,0,0,.14A.14.14,0,0,0,111.41,49.79Z"/><path class="cls-1" d="M116.48,50.85h.09a.68.68,0,0,0,.67-.44s0,0,0,0a.13.13,0,0,0-.13-.13h-.06a.48.48,0,0,1-.18,0h0l.16,0,.11,0,.1,0a2.4,2.4,0,0,0,.54-.17.12.12,0,0,0,.08-.11.15.15,0,0,0-.07-.12,1.85,1.85,0,0,0-.68-.24h-.25a.91.91,0,0,0-.64.26l0,0a.77.77,0,0,0-.19.52.55.55,0,0,0,.19.4A.56.56,0,0,0,116.48,50.85Z"/><path class="cls-1" d="M115.57,59.74a2,2,0,0,0,.34,0h.18a3,3,0,0,0,.9-.22l.7-.29.09,0,.11,0a.67.67,0,0,1,.19-.06s0,0,.09.13a.12.12,0,0,0,.12.1h0a.11.11,0,0,0,.12-.08.6.6,0,0,0,0-.31.48.48,0,0,0-.26-.33.94.94,0,0,0-.37-.07h-.21a4.9,4.9,0,0,0-.84.22l0,0-.78.31-.1,0a1.47,1.47,0,0,1-.44.1l-.17,0h0a.12.12,0,0,0-.1.05.14.14,0,0,0,0,.15A.78.78,0,0,0,115.57,59.74Z"/><path class="cls-1" d="M110.37,59.06h.2a1.74,1.74,0,0,1,1,.26,5.2,5.2,0,0,1,.71.64l.27.28a4.5,4.5,0,0,0,1.23.92,2.7,2.7,0,0,0,1.16.26,2.43,2.43,0,0,0,.38,0,.13.13,0,0,0,0-.25,4.83,4.83,0,0,1-1.23-.56,7.58,7.58,0,0,1-1-.89l-.19-.18a3.68,3.68,0,0,0-1-.76,1.59,1.59,0,0,0-.72-.17h-.11a1.82,1.82,0,0,0-.77.23.13.13,0,0,0-.06.15.11.11,0,0,0,.12.09Z"/><path class="cls-1" d="M111.1,56.69h.05a.34.34,0,0,0,.21-.07h0l.13.1,0,0a.6.6,0,0,0,.08.08l.09.09a1.77,1.77,0,0,0,.35.27.74.74,0,0,0,.39.11.63.63,0,0,0,.36-.1.14.14,0,0,0,.06-.11.17.17,0,0,0-.06-.11.83.83,0,0,1-.32-.29l0,0a2.13,2.13,0,0,0-.3-.38,1.27,1.27,0,0,0-.32-.21l-.06,0-.12,0-.17,0h-.05a.46.46,0,0,0-.29.09.61.61,0,0,0-.16.21v0a.21.21,0,0,0-.1.06.15.15,0,0,0,0,.13h0A.28.28,0,0,0,111.1,56.69Z"/><path class="cls-1" d="M112.66,64.51l.32.1.11,0-.12.07a.17.17,0,0,0-.06.11.19.19,0,0,0,.07.12.92.92,0,0,0,.42.11h.14a.72.72,0,0,0,.33-.18,1.05,1.05,0,0,0,.19-.28.35.35,0,0,0-.16-.45h0a1.38,1.38,0,0,0-.39-.16,1.41,1.41,0,0,0-.4-.05h0a1.29,1.29,0,0,0-.8.24.15.15,0,0,0,0,.12s0,.09.07.1A2.17,2.17,0,0,0,112.66,64.51Z"/><path class="cls-1" d="M116.59,65.24a.69.69,0,0,0,.39.14h0a.17.17,0,0,0,.1-.06.11.11,0,0,0,0-.11c0-.07,0-.12,0-.17a.07.07,0,0,0,0-.05l0,0,.22,0,.27,0a.11.11,0,0,0,.09-.07.11.11,0,0,0,0-.11.79.79,0,0,0-.56-.44.47.47,0,0,0-.17,0,.85.85,0,0,0-.6.26l0,0a.32.32,0,0,0,0,.43A1.1,1.1,0,0,0,116.59,65.24Z"/><path class="cls-1" d="M115.4,67.88l.12,0h0l0,0s0,0,0,0h.08a.21.21,0,0,0,.2-.15l0-.08a2.61,2.61,0,0,0,.13-1,2.85,2.85,0,0,0-.06-.47l0-.09a2.53,2.53,0,0,0-.1-.42.11.11,0,0,0-.09-.08h0a.11.11,0,0,0-.09,0c-.13.13-.09.22-.09.43a2,2,0,0,0,0,.6c0,.28-.3.55-.22.84a.28.28,0,0,0-.07.11l0,0a.13.13,0,0,0,.1.2Z"/><path class="cls-1" d="M113.94,68.67a.13.13,0,0,0,0,.12.14.14,0,0,0,.1.06,1.06,1.06,0,0,1,.23.08,1.71,1.71,0,0,0,.3.09,2.27,2.27,0,0,0,.3.06.12.12,0,0,0-.08.06.4.4,0,0,1-.15,0,.14.14,0,0,0-.11.06.41.41,0,0,0,0,.44.45.45,0,0,0,.38.18h0a.45.45,0,0,0,.35-.21.44.44,0,0,0,0-.39.11.11,0,0,0-.1-.08l-.26-.07.16,0h.06a2.33,2.33,0,0,0,.56-.06,1,1,0,0,0,.62-.37.24.24,0,0,0,0-.08.13.13,0,0,0-.13-.13h0a1.57,1.57,0,0,1-.33,0l-.21,0a3.43,3.43,0,0,0-.56,0h-.1a2.69,2.69,0,0,0-.48,0l-.31.06-.08,0A.39.39,0,0,0,113.94,68.67Z"/><path class="cls-1" d="M112.24,75a1.59,1.59,0,0,0,1-.39,2.23,2.23,0,0,0,.59-.8c.08-.17.15-.33.21-.49s.09-.2.13-.3a3.45,3.45,0,0,1,.43-.71.12.12,0,0,0,0-.14.11.11,0,0,0-.11-.06h0a1.64,1.64,0,0,0-.87.58,3.42,3.42,0,0,0-.42.7l-.05.1a6.05,6.05,0,0,1-.38.69,3.65,3.65,0,0,1-.58.6.16.16,0,0,0,0,.15.12.12,0,0,0,.12.07Z"/><path class="cls-1" d="M111.39,79.06a.12.12,0,0,0,0,.16.14.14,0,0,0,.12.07h0l.2-.07a5.54,5.54,0,0,0,2.56-2,3.73,3.73,0,0,0,.45-.78c.11-.28.21-.54.29-.79l.06-.15a2.63,2.63,0,0,1,.68-1.18.12.12,0,0,0,0-.16.12.12,0,0,0-.11-.07h0a2.35,2.35,0,0,0-1.22,1.29l-.22.44a5.36,5.36,0,0,1-.54.94A11.68,11.68,0,0,1,111.44,79Z"/><path class="cls-1" d="M103.06,70a4,4,0,0,1,1.43-.3h.09a2.5,2.5,0,0,1,1.32.43,3.14,3.14,0,0,1,.94,1,4.47,4.47,0,0,1,.5,1.35.15.15,0,0,0,.14.1h0a.15.15,0,0,0,.15-.1,2.83,2.83,0,0,0-1.2-3,2.92,2.92,0,0,0-1.59-.49,1.42,1.42,0,0,0-.29,0,2.77,2.77,0,0,0-1.65.75.12.12,0,0,0,0,.16.18.18,0,0,0,.12,0Z"/><path class="cls-1" d="M93.45,79.55a2.39,2.39,0,0,0-.66.09.11.11,0,0,0-.09.13.12.12,0,0,0,.1.12,4.58,4.58,0,0,1,1.34.43,6.22,6.22,0,0,1,1.13.8c.26.22.51.45.78.7a11.29,11.29,0,0,0,1.48,1.24l.07,0a.16.16,0,0,0,.09,0,.15.15,0,0,0,0-.17,10.87,10.87,0,0,0-1.94-2.35,4.08,4.08,0,0,0-1.38-.81A2.74,2.74,0,0,0,93.45,79.55Z"/><path class="cls-1" d="M91.23,77.22A4,4,0,0,0,93,78h0a.14.14,0,0,0,.12-.07.12.12,0,0,0,0-.15,9.42,9.42,0,0,0-1.16-1l-.24-.17c-.26-.19-.47-.36-.65-.52l0,0c-.19-.18-.3-.31-.24-.53a.12.12,0,0,0,0-.13.13.13,0,0,0-.08,0h-.07a.6.6,0,0,0-.25.59,1.32,1.32,0,0,0,.2.54A2.63,2.63,0,0,0,91.23,77.22Z"/><path class="cls-1" d="M93.52,75.86a3.19,3.19,0,0,0,.78.64,1.72,1.72,0,0,0,.8.23l.22,0a.13.13,0,0,0,.11-.11.14.14,0,0,0-.07-.13,4,4,0,0,1-.68-.51,7.55,7.55,0,0,1-.57-.61c-.19-.2-.36-.42-.55-.65a8.59,8.59,0,0,1-.5-.73A.14.14,0,0,0,93,73.9h0a.13.13,0,0,0-.11.1A1.82,1.82,0,0,0,93,75,3.09,3.09,0,0,0,93.52,75.86Z"/><path class="cls-1" d="M85.67,95.44c0,.16,0,.34,0,.58,0,.42,0,.83,0,1.22,0,.77,0,1.59,0,2.43,0,.25,0,.51,0,.77a36,36,0,0,0,.12,4.14.12.12,0,0,0,.13.12h0a.13.13,0,0,0,.12-.11,37.72,37.72,0,0,0,.42-4.91,22.7,22.7,0,0,0-.11-2.48A11.69,11.69,0,0,0,86.21,96c0-.24-.1-.43-.15-.61l0-.09a1.12,1.12,0,0,0-.29-.53l-.08,0a.14.14,0,0,0-.09,0,.13.13,0,0,0,0,.17,2.18,2.18,0,0,1,.12.53Z"/><path class="cls-1" d="M93.37,116.81h0a6.12,6.12,0,0,1-1.46.21h-.1a3.2,3.2,0,0,1-1.29-.26h0l0,0a0,0,0,0,0,0,.06,1,1,0,0,0,.31.38l.07.06a1.51,1.51,0,0,0,.26.18,1.81,1.81,0,0,0,.86.2,2.15,2.15,0,0,0,.83-.2,2.84,2.84,0,0,0,.34-.22,1.32,1.32,0,0,0,.32-.3l0,0a.06.06,0,0,0,0-.06Z"/><path class="cls-1" d="M111.82,115.74h0a5.13,5.13,0,0,1-.89.29,3,3,0,0,1-.67.07H110a6.06,6.06,0,0,1-.92-.11c-.31,0-.63-.09-1-.11h0a.07.07,0,0,0-.06,0,.06.06,0,0,0,0,.07,2.92,2.92,0,0,0,.37.24,2.78,2.78,0,0,0,.52.25,3,3,0,0,0,1,.24h.11a1.8,1.8,0,0,0,.46,0l.17,0,.13,0,.2-.07a1.66,1.66,0,0,0,.53-.36,1.86,1.86,0,0,0,.26-.31.08.08,0,0,0,0-.07S111.84,115.74,111.82,115.74Z"/><path class="cls-1" d="M106,108.17a.55.55,0,0,0-.37-.16h0a.71.71,0,0,0-.41.19l0,0a7,7,0,0,0-.48.54,2.48,2.48,0,0,1-.25.3,2.07,2.07,0,0,1-1.5.9h0a.2.2,0,0,1-.11,0,1.38,1.38,0,0,1-.22-.1l-.46-.24-.12-.07c-.27-.14-.54-.29-.82-.42a5,5,0,0,0-1-.38,2.48,2.48,0,0,0-.27,0,.58.58,0,0,0-.39.14.69.69,0,0,0-.08.64.16.16,0,0,0,.13.11h.06a5.4,5.4,0,0,0,1.12,1.4,3.24,3.24,0,0,0,2,.79h.08a4.43,4.43,0,0,0,2.15-.72,3.32,3.32,0,0,0,.88-.77,1.94,1.94,0,0,0,.43-1.23,2.08,2.08,0,0,0-.13-.64A.61.61,0,0,0,106,108.17Z"/><path class="cls-1" d="M116,108.12c-.26-.14-.53-.29-.81-.42a5.05,5.05,0,0,0-1-.38l-.27,0a.56.56,0,0,0-.39.14.66.66,0,0,0-.08.64.15.15,0,0,0,.13.11s0,0,0,0h0a5.32,5.32,0,0,0,1.13,1.41,3.23,3.23,0,0,0,2,.79h.09a4.63,4.63,0,0,0,2.14-.71,3.42,3.42,0,0,0,.89-.78,1.93,1.93,0,0,0,.3-1.87.61.61,0,0,0-.15-.23.52.52,0,0,0-.38-.17h0a.78.78,0,0,0-.41.18l0,0a4.63,4.63,0,0,0-.49.55,3.36,3.36,0,0,1-.24.29,2.07,2.07,0,0,1-1.5.9h0a.2.2,0,0,1-.11,0l-.22-.09-.46-.24Z"/><path class="cls-1" d="M92.52,88.42a.77.77,0,0,0,.38.14H93a.81.81,0,0,0,.22,0,1.26,1.26,0,0,0,.59-.26,1.1,1.1,0,0,0,.36-.6,1.88,1.88,0,0,0,0-.58,3.36,3.36,0,0,0-.33-.95A7.13,7.13,0,0,0,93.11,85h0l-.31-.39a.12.12,0,0,0-.1,0h-.06a.13.13,0,0,0-.06.15c.09.27.19.52.3.77a1.92,1.92,0,0,0-.55.82,3.29,3.29,0,0,0-.22,1,1.42,1.42,0,0,0,0,.55A1,1,0,0,0,92.52,88.42Zm.29-2A2.71,2.71,0,0,1,93,85.8c.09.21.17.41.24.61a4.36,4.36,0,0,1,.2.79c0,.24,0,.41-.11.48a.56.56,0,0,1-.34.12h0l0,0s-.13-.2-.15-.49A3.4,3.4,0,0,1,92.81,86.46Z"/><path class="cls-1" d="M90.09,86.85a.88.88,0,0,0,.18.28.61.61,0,0,0,.44.2h.06a.85.85,0,0,0,.54-.37.43.43,0,0,1,0-.07,2.11,2.11,0,0,0,.21-.46,3.35,3.35,0,0,0,.16-.89,2.38,2.38,0,0,0-.31-1.48,1.88,1.88,0,0,0-.18-.24.13.13,0,0,0-.09,0,.11.11,0,0,0-.07,0,.1.1,0,0,0,0,.08h0v0a.14.14,0,0,0-.13-.1h0a.14.14,0,0,0-.12.13A2.8,2.8,0,0,1,90.38,85c-.06.13-.13.27-.19.41a2.2,2.2,0,0,0-.24.93,1,1,0,0,0,0,.3A1.17,1.17,0,0,0,90.09,86.85Zm.71-1.23c0-.08,0-.14.07-.21A2.93,2.93,0,0,0,91,84a2.68,2.68,0,0,1,0,1.43,4.06,4.06,0,0,1-.21.71l-.12.26s0,0,0,0,0-.08,0-.13A2,2,0,0,1,90.8,85.62Z"/><path class="cls-1" d="M77.79,164.54c.34.27.67.4,1,.65a2.09,2.09,0,0,1,.31.29,8.66,8.66,0,0,1,.9,1.36,6.72,6.72,0,0,1,.85,2.87l.67-.21h.2c.18,0,.29.1.47.14a4,4,0,0,0,.9.14,1.66,1.66,0,0,0,.56-.1c-.08-.91,1.06-.9,1.31-1.6s-.72-.84-.74-1.54,1.49-1.11,1.27-1.86-1.41-.44-1-1.29c.23-.5,1.07-.64.74-1.23s-1.14-.36-1.3-.82.64-1,.77-1.5-.3-.74-.83-1c-1.83-.94.93-1.4-.33-2.35-.37-.27-1.37-.44-1-.93s1.08-.1,1.13-.72c-1.23-.59-2.92-2.56-4.37-2.48a1.71,1.71,0,0,0-1.34.9,12.31,12.31,0,0,0-.87,1.23,1.62,1.62,0,0,0-.16.45,7.25,7.25,0,0,1-.12,1.39,2.83,2.83,0,0,0-.36,1.3,3.08,3.08,0,0,1-.07,1.2c-.14.45-.61,1.16-.56,1.63s.62,1,.75,1.43C76.82,162.9,76.82,163.77,77.79,164.54Z"/><path class="cls-1" d="M67.15,160.68a5.89,5.89,0,0,1,1.08.38,2.14,2.14,0,0,1,.87,1,1,1,0,0,1-.37,0l-.26,0a2.14,2.14,0,0,0-1.75.27,1.22,1.22,0,0,0-.38,1c0,.75.78,1.29,1.39,1.73l.3.22.3.23c1.68,1.28,2.1,1.86,2.18,2.1h-.19a1.43,1.43,0,0,0-1.14.25,1.31,1.31,0,0,0-.4,1A1.93,1.93,0,0,0,70,170.51a2.35,2.35,0,0,1,.54.41,3.34,3.34,0,0,1,.19.31,1.86,1.86,0,0,1-.17.24,2.82,2.82,0,0,0-.28.36,1.5,1.5,0,0,0,0,1.82,1.47,1.47,0,0,1,.25.63.65.65,0,0,0,.64.56h.09a.65.65,0,0,0,.56-.72,3,3,0,0,0-.41-1.11,1,1,0,0,1-.13-.25.36.36,0,0,1,.09-.18l.22-.29a1.46,1.46,0,0,0,0-2.12,3.06,3.06,0,0,0-.9-.75c-.34-.21-.58-.37-.58-.51v0h.14a1.47,1.47,0,0,0,1.26-.31,1.21,1.21,0,0,0,.36-.94c-.06-.95-1.13-1.95-2.72-3.15l-.26-.2a3.25,3.25,0,0,0-.37-.27,5,5,0,0,1-.85-.71,2.77,2.77,0,0,1,.65.05l.33,0c1.23.11,1.61-.48,1.72-.84.3-.89-.51-2-1.43-2.6a5.79,5.79,0,0,0-1.4-.52c-.69-.2-1.73-.5-1.82-.92a.65.65,0,0,0-1.27.29C64.67,160,66.05,160.37,67.15,160.68Z"/><path class="cls-1" d="M65,165.61a3.37,3.37,0,0,0-3,1.23.65.65,0,0,0,.16.9.64.64,0,0,0,.9-.17,2.17,2.17,0,0,1,1.86-.67,1.86,1.86,0,0,1,1.59.8.77.77,0,0,1,.12.31,1.4,1.4,0,0,1-.73,0,1.6,1.6,0,0,1-1-.56.65.65,0,0,0-.87-.27.64.64,0,0,0-.28.87,3.09,3.09,0,0,0,2.48,1.32h.13a1.39,1.39,0,0,0,1.28-2.25A3.14,3.14,0,0,0,65,165.61Z"/><path class="cls-1" d="M32.76,193.07a40.65,40.65,0,0,0,7,13c1.29,1.5,2.21,2.06,3.39,2.06a8.85,8.85,0,0,0,1.75-.25l1.13-.21a5.1,5.1,0,0,1,.91-.07c3.06,0,7.72,2,10,3.8a16.57,16.57,0,0,1,3,3.69c1.45,2.18,2.94,4.42,5.42,5a6.54,6.54,0,0,0,1.42.17c2.87,0,4.34-2.23,5.63-4.21.28-.41.57-.86.86-1.26l.82-1.12a29.2,29.2,0,0,0,4-6.65l.5-1.24a26.6,26.6,0,0,1,3.26-6.42A11.69,11.69,0,0,0,83.37,196a9.29,9.29,0,0,1,1.52-3.29A4.55,4.55,0,0,1,87,191.54a8.3,8.3,0,0,0,2.61-1.19c1.57-1.16,3.16-4.89,3.39-8a5.85,5.85,0,0,0-1.3-4.71l-.06-.06a3.06,3.06,0,0,1-.82-1.1c0-.14-.09-.8-.13-1.24,0-.6-.09-1-.13-1.17a5.3,5.3,0,0,1,.48-3.07l.12-.32a22.93,22.93,0,0,0,1.53-7.09,21.41,21.41,0,0,0,3.64.28c3.91,0,6.8-.95,8.83-2.89a3.12,3.12,0,0,0,1.25-2.06c0-.77-.58-1.31-1.38-2.07l-.24-.23a28.47,28.47,0,0,0-3.06-2.61,27.56,27.56,0,0,0-15.46-5,16.46,16.46,0,0,1-5.78-1.59,17,17,0,0,0-6.8-1.71,14,14,0,0,0-1.69.11,46,46,0,0,0-8.42,1.85l-1,.37c-1.73.67-2,.83-4.12.06a6.33,6.33,0,0,0-2.14-.37,14.56,14.56,0,0,0-5.93,1.79c-.63.29-1.22.57-1.81.8a14.9,14.9,0,0,1-3.06.75c-2.2.41-4.47.82-6,2.69a15.36,15.36,0,0,0-2.38,5.26A20.39,20.39,0,0,1,36,162.42a30,30,0,0,1-2.48,3.81,22.42,22.42,0,0,0-3.23,5.46c-2.49,6.81-.22,13.42,2,19.82Zm46.18,6.15c-1.09,1.82-1.63,3.77-3,5.55-2.21,2.94-7.89,5-11.23,3-1.94-1.16-1.56-3.36-2.62-5.17-1.16-2-2.74-2.75-3.07-5.18-.3-2.17-.1-3.81-2-5.4-1.68-1.44-3.66-1.73-4.5-4-1.16-3.18.44-5.53,1.81-8.29.85-1.72.93-3-.42-4.36-.6-.62-2.31-1.53-2.3-2.5,0-1.3.91-.48,1.5,0a50.07,50.07,0,0,1,3.68,4c2,2.08,6,5,7.89,7.09,1.29,1.47-.45,2.46,1.36,4.08s2.56.29,3.82,1.1c1.6,1,3.78,2.76,5.69,3.2,1.31.31,3.56-.32,4.63.68C81.67,194.36,79.74,197.88,78.94,199.22ZM67.68,181.36a.53.53,0,0,1,.12.73.52.52,0,0,1-.43.21.5.5,0,0,1-.29-.09C55.57,174,56.31,169.29,56.34,169.1a.52.52,0,1,1,1,.18C57.35,169.37,56.91,173.68,67.68,181.36Zm.61,2.65.21.13c1.36.25,1.3,3.44-.63,2.83a1.58,1.58,0,0,1-1.06-1.87,1.42,1.42,0,0,1,.51-1C67.68,183.87,68,184.09,68.29,184Zm12,5.82c-5-.32-4.92-1.62-4.92-1.62s4.73-3.43,12.3-.64C87.65,187.57,85.25,190.16,80.27,189.83ZM89,186.75c-11.36-3.36-14.86,1.35-15.91,1.94s-2.27-.92-2.27-.92c2.53-2.78-.44-5.22-.44-5.22C75.72,172.11,88,175.39,88,175.39a13,13,0,0,0,.79,2.53C92.85,181.62,89,186.75,89,186.75Zm10.74-24.92a17.47,17.47,0,0,1-3.56.24c-1-.06-4.88-.28-4.53-.84.77-1.23.32-3.49.32-3.49,1,1.1,1.16,0,2.14-.07,3-.25,3.65.81,4.59,1.1C101,159.49,103.43,161.3,99.75,161.83Zm-.06-7.3c.32.2.63.4.94.62a7.24,7.24,0,0,1,3.07,4c-4.89-2.52-7.91-3.06-9.59-3.06a4.45,4.45,0,0,0-2.23.46,2.53,2.53,0,0,1-.95-2.35,4.78,4.78,0,0,0-.84-2.7A26.66,26.66,0,0,1,99.69,154.53ZM60.6,152c.46-1.81,5.83-2.32,7.57-2.75a21,21,0,0,1,8.68-.5A79.43,79.43,0,0,1,84.57,151c1.14.33,2.93.35,3.82,1.3s.66,2.68,1.4,3.87c.85,1.34,1.89,1.39,1.42,3.21-.15.61-.64,1-.77,1.69s.18,1.42.11,2.08c-.25,2.53-.49,6.34-1.52,8.24s-3.8.86-7.3.61c-2.8-.21-4.81,1.23-7.26,2.63A14.55,14.55,0,0,0,71,177.28c-.91.94-1.74,2.15-3.09,1.83-1.09-.26-2.25-1.79-3.13-2.46a33.29,33.29,0,0,1-2.94-2.26,7.26,7.26,0,0,1-2.14-3.06c-.3-1,0-5.61-.86-5.68-2.24-.17-1.89.69-3.27,1-1.08.26-2.8-.51-3.81-1-3.8-1.68-.55-4.39,1.54-5.13a5,5,0,0,1,4.21-.07c1,.32,2.5,1.29,3.3.46.54-.55-.68-1.79-.68-1.79.4-1.08,2.42-.82,3.19-1.62C65.55,155.25,59.86,154.94,60.6,152Zm-15.2,8.57c1.79-3.89,6.08-8.32,10.81-9.26a2.32,2.32,0,0,1,.51-.05c2.59,0,3.44,4.32,3.63,5.49-9,.09-14.43,7.61-15.63,9.47C44.14,164.8,44.37,162.82,45.4,160.59Z"/><path class="cls-1" d="M78.87,180.37a1.87,1.87,0,0,0-2,.46.65.65,0,0,0,.9.93.61.61,0,0,1,.64-.19.44.44,0,0,1,.27.45,1,1,0,0,1-.2.42.66.66,0,0,0-.46-.18.64.64,0,0,0-.63.66,1.06,1.06,0,0,0,.5,1,1,1,0,0,0,.41.1,1.1,1.1,0,0,0,.59-.18A2.48,2.48,0,0,0,80,182,1.77,1.77,0,0,0,78.87,180.37Z"/><path class="cls-1" d="M72.63,194.17c-1-.1-2,.45-2.76-.67-.59-.9-.73-1.71-2-1.1s-1.89.17-2.7-.71a11.28,11.28,0,0,1-1.81-2.44c-.22-.43-1.27-2.73-1.89-1.49l.32-.19c-1.52,1.13-1.2,3.37-.56,4.91a24,24,0,0,0,1.21,2.79c.26.45.66.77.92,1.23s.34,1.09.62,1.55c.5.84.65,0,1.29.27.42.15.51.9,1,1.07.67.23.7-.47,1.34-.38s.93.77,1.17,1.17c.47.78.51,2.06,1.5,2.45.68.26.76-.33,1.23-.36s.6.83,1.22.76c1.09-.12,1.12-2,1.22-2.78a11.41,11.41,0,0,0,.09-3.5C73.92,195.81,73.79,194.29,72.63,194.17Z"/><path class="cls-1" d="M86.71,180.51a1.74,1.74,0,0,0-1.07,1.67,2.51,2.51,0,0,0,1,1.88,1,1,0,0,0,.48.14.85.85,0,0,0,.38-.09,1.06,1.06,0,0,0,.48-1,.66.66,0,0,0-.64-.67.68.68,0,0,0-.31.08.65.65,0,0,1-.09-.32c0-.3.12-.45.19-.48s.18.05.28.17a.65.65,0,0,0,.91.08.64.64,0,0,0,.08-.91A1.54,1.54,0,0,0,86.71,180.51Z"/><path class="cls-1" d="M295.1,64.53a4.73,4.73,0,0,1,1.49-.35V50.86H286.9V53.3l6.38.21v8.85a13.87,13.87,0,0,1-2.81.88,19.47,19.47,0,0,1-4.39.44,9.26,9.26,0,0,1-5.67-1.7,10.56,10.56,0,0,1-3.52-4.7,18.23,18.23,0,0,1-1.2-6.84,15.67,15.67,0,0,1,1.42-7,10.19,10.19,0,0,1,3.79-4.32,9.9,9.9,0,0,1,5.26-1.46,22,22,0,0,1,5.24.51,19.4,19.4,0,0,1,3.32,1.11l.13-3.07q-1.2-.22-2.31-.51a24.7,24.7,0,0,0-2.54-.51,25.75,25.75,0,0,0-3.64-.22,15,15,0,0,0-5.56,1,12.58,12.58,0,0,0-4.53,3,13.85,13.85,0,0,0-3,5,19.86,19.86,0,0,0-1.1,6.94,18.19,18.19,0,0,0,1.66,7.92,13.29,13.29,0,0,0,4.79,5.53,13.59,13.59,0,0,0,7.54,2,22.19,22.19,0,0,0,4-.31,19.38,19.38,0,0,0,2.9-.73C293.84,65,294.53,64.75,295.1,64.53Z"/><path class="cls-1" d="M322.83,64.45a12.67,12.67,0,0,0,4.88-5.29,19.46,19.46,0,0,0,1.9-8.59,18.86,18.86,0,0,0-1.49-8.25,12.09,12.09,0,0,0-11.63-7.4,14.63,14.63,0,0,0-7.05,1.77,12.89,12.89,0,0,0-5.08,5.21,18.24,18.24,0,0,0-2,8.58,19.05,19.05,0,0,0,1.54,8.25,13,13,0,0,0,4.69,5.65,12.35,12.35,0,0,0,7.3,2A14,14,0,0,0,322.83,64.45Zm-15.9-7.28a17.68,17.68,0,0,1-1.12-6.48,17,17,0,0,1,1.43-7.3,9.79,9.79,0,0,1,9.13-5.86,8.3,8.3,0,0,1,5.41,1.73,10.69,10.69,0,0,1,3.29,4.67,18.16,18.16,0,0,1,1.11,6.47q-.07,6.45-2.86,9.85A9.17,9.17,0,0,1,316,63.68a8.65,8.65,0,0,1-5.61-1.76A10.88,10.88,0,0,1,306.93,57.17Z"/><path class="cls-1" d="M342.3,66.18c1.27.07,2.46.11,3.57.11A18.53,18.53,0,0,0,353,65.15a7.38,7.38,0,0,0,3.81-3.25,10.42,10.42,0,0,0,1.15-5,6.91,6.91,0,0,0-1-3.63,7.58,7.58,0,0,0-2.59-2.6A7.23,7.23,0,0,0,351,49.57a5.61,5.61,0,0,0,2.89-1.65,7.21,7.21,0,0,0,1.56-2.74,10.15,10.15,0,0,0,.48-3,6.63,6.63,0,0,0-1.11-3.87,6.94,6.94,0,0,0-3.34-2.48,15.83,15.83,0,0,0-5.61-.86c-.94,0-1.76,0-2.47.08l-2.09.14c-.68,0-1.45.07-2.31.07l-1.86,0V66h1.78Q340.41,66.06,342.3,66.18Zm-1.81-28.53c.36,0,.84-.1,1.43-.13l1.79-.08,1.46,0a10.65,10.65,0,0,1,5.35,1.18,4.29,4.29,0,0,1,2.06,4.07,6.85,6.85,0,0,1-1.35,4.43A5,5,0,0,1,347.49,49H343.9c-.73,0-1.4,0-2,0a13.77,13.77,0,0,1-1.4-.08Zm0,13.83c.27,0,.68,0,1.25-.07l1.88,0h3.5a9.82,9.82,0,0,1,5.44,1.43,5,5,0,0,1,2,4.45c0,2.41-.71,4.1-2.15,5.06a10.94,10.94,0,0,1-6.12,1.44l-1.94,0q-1,0-2-.12c-.66,0-1.27-.13-1.84-.22Z"/><rect class="cls-1" x="365.9" y="35.25" width="3.44" height="30.75"/><polygon class="cls-1" points="382.33 51.44 392.51 51.44 392.51 48.79 382.33 48.79 382.33 37.9 396.28 37.9 396.28 35.25 378.94 35.25 378.94 66 397.73 66 397.73 63.31 382.33 63.31 382.33 51.44"/><path class="cls-1" d="M407.58,52.59l3.58,0c1,0,1.82,0,2.59,0A4.06,4.06,0,0,1,416,54a15.27,15.27,0,0,1,2,3c.61,1.19,1.18,2.41,1.69,3.65s1,2.34,1.46,3.27c.28.6.49,1,.62,1.33a3.47,3.47,0,0,0,.46.74h3.89c-.18-.29-.37-.61-.56-1l-.6-1.11c-.55-1-1.12-2.1-1.7-3.38s-1.19-2.54-1.83-3.79a19.43,19.43,0,0,0-2.07-3.26A5.3,5.3,0,0,0,417.61,52,10.08,10.08,0,0,0,420.22,51,7.77,7.77,0,0,0,423,48a9.53,9.53,0,0,0,1-4.53,9.23,9.23,0,0,0-.77-4,6.48,6.48,0,0,0-2.17-2.62,9.49,9.49,0,0,0-3.34-1.45,18.91,18.91,0,0,0-4.28-.46c-1.32,0-2.62,0-3.9.13s-2.4.12-3.38.12h-.59l-1.4,0V66h3.4Zm0-14.77a17.86,17.86,0,0,1,2.45-.26c1-.05,2-.07,2.89-.07a12.77,12.77,0,0,1,4.31.62,4.65,4.65,0,0,1,2.49,2,6.76,6.76,0,0,1,.81,3.53,6.19,6.19,0,0,1-2,5,8,8,0,0,1-5.2,1.7h-1.78l-2.33,0c-.76,0-1.31-.05-1.64-.08Z"/><polygon class="cls-1" points="435.76 46.39 435.55 39.74 438.7 45.1 452.6 66 455.7 66 455.7 35.25 452.6 35.25 452.6 55.37 452.82 61.66 449.95 56.65 435.8 35.25 432.61 35.25 432.61 66 435.76 66 435.76 46.39"/><path class="cls-1" d="M488.69,42.32a12.09,12.09,0,0,0-11.63-7.4A14.67,14.67,0,0,0,470,36.69a13,13,0,0,0-5.08,5.21,18.36,18.36,0,0,0-2,8.58,18.91,18.91,0,0,0,1.54,8.25,13,13,0,0,0,4.68,5.65,12.41,12.41,0,0,0,7.31,2,14.08,14.08,0,0,0,7-1.88,12.58,12.58,0,0,0,4.87-5.29,19.32,19.32,0,0,0,1.91-8.59A18.86,18.86,0,0,0,488.69,42.32Zm-4.8,17.93a9.17,9.17,0,0,1-7.37,3.43,8.68,8.68,0,0,1-5.62-1.76,10.94,10.94,0,0,1-3.4-4.75,17.68,17.68,0,0,1-1.12-6.48,17,17,0,0,1,1.43-7.3,9.79,9.79,0,0,1,9.13-5.86,8.3,8.3,0,0,1,5.41,1.73,10.69,10.69,0,0,1,3.29,4.67,18.38,18.38,0,0,1,1.1,6.47Q486.68,56.85,483.89,60.25Z"/><path class="cls-1" d="M277.85,85.58c-.48,0-1,0-1.45,0L275,85.7l-1.28,0a2.78,2.78,0,0,1-.41,0h-1.05v18.66h.92l.44,0c.63,0,1.31,0,2.06.08s1.38.08,1.91.1a9.13,9.13,0,0,0,4.94-1.21,8,8,0,0,0,3.11-3.52,12.5,12.5,0,0,0,1.06-5.34,9.37,9.37,0,0,0-2.19-6.61C283,86.37,280.82,85.58,277.85,85.58Zm5.82,13.9a5.79,5.79,0,0,1-2.34,2.68,6.81,6.81,0,0,1-3.45.9c-.54,0-1.14,0-1.83,0s-1.26-.1-1.74-.17V87.27c.43,0,.9-.1,1.42-.13s1.06,0,1.65,0a8.88,8.88,0,0,1,4,.8,5.13,5.13,0,0,1,2.39,2.51,10.31,10.31,0,0,1,.79,4.45A10.84,10.84,0,0,1,283.67,99.48Z"/><polygon class="cls-1" points="292.27 95.58 298.45 95.58 298.45 93.97 292.27 93.97 292.27 87.37 300.73 87.37 300.73 85.76 290.21 85.76 290.21 104.42 301.61 104.42 301.61 102.78 292.27 102.78 292.27 95.58"/><path class="cls-1" d="M328,89.93a13.55,13.55,0,0,0-2.66-2,34.28,34.28,0,0,0-3.55-1.83,29.77,29.77,0,0,1-3-1.54,6.13,6.13,0,0,1-1.72-1.4,2.62,2.62,0,0,1-.55-1.65,2.06,2.06,0,0,1,.46-1.34,2.82,2.82,0,0,1,1.38-.9,7.26,7.26,0,0,1,2.38-.33,13,13,0,0,1,4,.62,9.23,9.23,0,0,1,2.86,1.33l1.2-5.75a14.65,14.65,0,0,0-3-1.14,20.59,20.59,0,0,0-5.67-.64,17.13,17.13,0,0,0-4.45.53,10.29,10.29,0,0,0-3.46,1.58,7.1,7.1,0,0,0-2.26,2.64,8.09,8.09,0,0,0-.8,3.69,8.64,8.64,0,0,0,1,4.25,9.78,9.78,0,0,0,2.63,3.06,19,19,0,0,0,3.58,2.21c1.53.73,2.75,1.34,3.67,1.82a6.72,6.72,0,0,1,2,1.42,2.47,2.47,0,0,1,.6,1.68,2.16,2.16,0,0,1-1,2,6.14,6.14,0,0,1-3.15.62,16.31,16.31,0,0,1-3.2-.32,20.45,20.45,0,0,1-2.89-.78,12.59,12.59,0,0,1-2.07-.89l-.95,6a9.67,9.67,0,0,0,2.07.81,27.31,27.31,0,0,0,7.66,1.09,14.9,14.9,0,0,0,6.12-1.13,8.4,8.4,0,0,0,3.8-3.18,8.79,8.79,0,0,0,1.29-4.8,8.43,8.43,0,0,0-.57-3.21A7.44,7.44,0,0,0,328,89.93Z"/><path class="cls-1" d="M355.82,75.11a13.37,13.37,0,0,0-7.49-1.77,18.41,18.41,0,0,0-7.58,1.73,11.93,11.93,0,0,0-5.22,5,18.61,18.61,0,0,0-2,8.85,19.11,19.11,0,0,0,1.59,8.47A12.26,12.26,0,0,0,340,102.9a14.31,14.31,0,0,0,7.77,1.85,16.79,16.79,0,0,0,7.41-1.74,11.79,11.79,0,0,0,5-5.11A19.7,19.7,0,0,0,362.15,89a19.29,19.29,0,0,0-1.56-8.42A12.18,12.18,0,0,0,355.82,75.11Zm-3.25,21.68a5.46,5.46,0,0,1-4.7,2.41,5.16,5.16,0,0,1-3.61-1.3,7.92,7.92,0,0,1-2.16-3.58,17.31,17.31,0,0,1-.72-5.21,15.74,15.74,0,0,1,.92-6A6.26,6.26,0,0,1,344.77,80a6.54,6.54,0,0,1,3.43-.93,4.92,4.92,0,0,1,3.42,1.22,7.37,7.37,0,0,1,2,3.41,17.39,17.39,0,0,1,.67,5.09C354.29,92.51,353.71,95.19,352.57,96.79Z"/><polygon class="cls-1" points="386.19 87.2 387.03 95.01 384.91 90.55 374.4 73.67 367.2 73.67 367.2 104.42 374.19 104.42 374.19 91.13 373.24 83.27 375.48 87.95 385.45 104.42 393.19 104.42 393.19 73.67 386.19 73.67 386.19 87.2"/><path class="cls-1" d="M420.54,75.11a13.37,13.37,0,0,0-7.49-1.77,18.33,18.33,0,0,0-7.57,1.73,11.9,11.9,0,0,0-5.23,5,18.62,18.62,0,0,0-2,8.85,19.11,19.11,0,0,0,1.58,8.47,12.31,12.31,0,0,0,4.88,5.53,14.35,14.35,0,0,0,7.77,1.85,16.79,16.79,0,0,0,7.41-1.74,11.82,11.82,0,0,0,5.05-5.11A19.71,19.71,0,0,0,426.87,89a19,19,0,0,0-1.56-8.42A12.18,12.18,0,0,0,420.54,75.11Zm-3.25,21.68a5.44,5.44,0,0,1-4.69,2.41A5.19,5.19,0,0,1,409,97.9a8,8,0,0,1-2.16-3.58,17.31,17.31,0,0,1-.72-5.21,15.94,15.94,0,0,1,.92-6A6.31,6.31,0,0,1,409.49,80a6.58,6.58,0,0,1,3.44-.93,4.9,4.9,0,0,1,3.41,1.22,7.3,7.3,0,0,1,2,3.41,17.76,17.76,0,0,1,.66,5.09C419,92.51,418.44,95.19,417.29,96.79Z"/><path class="cls-1" d="M456.09,102.18A26.71,26.71,0,0,1,454.52,99c-.47-1.11-.95-2.18-1.42-3.21a16.21,16.21,0,0,0-1.57-2.72,5.68,5.68,0,0,0-1.18-1.17c.34-.16.7-.29,1-.48a7.58,7.58,0,0,0,2.89-3.14,11.42,11.42,0,0,0,1-5.18,10.24,10.24,0,0,0-1-4.81,8,8,0,0,0-2.69-3,11.28,11.28,0,0,0-3.71-1.53,19.24,19.24,0,0,0-4.05-.44c-2.19,0-4,0-5.45.16s-2.72.17-3.82.17h-2.65v30.75h7.7V93.53c1.37,0,2.42,0,3.27-.07a2.06,2.06,0,0,1,1.59.85,8.37,8.37,0,0,1,1.17,2.16c.34.88.67,1.83,1,2.85a30.11,30.11,0,0,0,1.12,2.9c.29.67.51,1.15.65,1.44a4.14,4.14,0,0,0,.47.76h8.48c-.2-.38-.42-.75-.64-1.12S456.3,102.55,456.09,102.18ZM440.74,88.3c-.47,0-.85-.06-1.12-.1V79.13a11.48,11.48,0,0,1,1.58-.28,16.23,16.23,0,0,1,1.69-.09,6.14,6.14,0,0,1,3.11.64,3.33,3.33,0,0,1,1.49,1.67,5.8,5.8,0,0,1,.4,2.16,6,6,0,0,1-1.07,3.63,3.94,3.94,0,0,1-3.44,1.5h-1.22C441.68,88.34,441.2,88.33,440.74,88.3Z"/><path class="cls-1" d="M468.5,73.46l-10.71,31h8.07l1.61-5.75h10.7l1.71,5.75H488l-10.8-31ZM469,93.28l2.7-9.6,1-4,1,4,2.85,9.6Z"/><rect class="cls-1" x="267.69" y="126.44" width="348.92" height="3.89"/><path class="cls-1" d="M270.76,152.87h8.35a10.34,10.34,0,0,1,4.3.83,8.79,8.79,0,0,1,3.11,2.28,9.71,9.71,0,0,1,1.89,3.38,13.86,13.86,0,0,1,0,8.39,9.8,9.8,0,0,1-1.89,3.4,8.62,8.62,0,0,1-3.11,2.26,10.51,10.51,0,0,1-4.3.82h-8.35Zm1.61,1.58v18.19H279a8.81,8.81,0,0,0,3.59-.69,7.62,7.62,0,0,0,2.63-1.92,8.47,8.47,0,0,0,1.63-2.88,11.85,11.85,0,0,0,0-7.2,8.47,8.47,0,0,0-1.63-2.88,7.62,7.62,0,0,0-2.63-1.92,8.81,8.81,0,0,0-3.59-.7Z"/><path class="cls-1" d="M296.56,152.87v21.36H295V152.87Z"/><path class="cls-1" d="M313.24,152.87a8.25,8.25,0,0,1,3.08.54,6.7,6.7,0,0,1,2.29,1.5A6.54,6.54,0,0,1,320,157.1a7.08,7.08,0,0,1,.49,2.64,7.18,7.18,0,0,1-.33,2.17,6.94,6.94,0,0,1-.94,1.91,6.27,6.27,0,0,1-1.52,1.52,7,7,0,0,1-2.09,1l5.62,7.89h-2l-5.4-7.59a1.84,1.84,0,0,1-.33,0h-8.13v7.56h-1.62V152.87Zm-7.8,1.53v10.74h7.75a6.47,6.47,0,0,0,2.46-.44,5.36,5.36,0,0,0,1.81-1.18,4.86,4.86,0,0,0,1.11-1.71,5.81,5.81,0,0,0,0-4.08,4.86,4.86,0,0,0-1.11-1.71,5.21,5.21,0,0,0-1.81-1.18,6.47,6.47,0,0,0-2.46-.44Z"/><path class="cls-1" d="M326.72,152.87H341.4v1.58H328.34V163h11.12v1.54H328.34v8.13H341.4v1.59H326.72Z"/><path class="cls-1" d="M366.58,169.06a10.76,10.76,0,0,1-1.74,2.28,11.6,11.6,0,0,1-2.26,1.77,11,11,0,0,1-2.67,1.14,11.33,11.33,0,0,1-3,.39,11,11,0,0,1-4.34-.87,11.45,11.45,0,0,1-3.54-2.37,11.19,11.19,0,0,1-2.39-3.52,10.88,10.88,0,0,1-.87-4.33,10.74,10.74,0,0,1,.87-4.31,11.27,11.27,0,0,1,5.93-5.91,11,11,0,0,1,4.34-.87,10.77,10.77,0,0,1,5.62,1.53,11.25,11.25,0,0,1,2.25,1.77,11.67,11.67,0,0,1,1.75,2.26l-1.48.71a9.48,9.48,0,0,0-1.49-1.89,9.72,9.72,0,0,0-1.91-1.47,9.22,9.22,0,0,0-4.74-1.3,9,9,0,0,0-3.69.76,9.61,9.61,0,0,0-5.06,5,9.09,9.09,0,0,0-.75,3.67,9.2,9.2,0,0,0,.75,3.7,9.83,9.83,0,0,0,2,3,9.67,9.67,0,0,0,3,2,9.32,9.32,0,0,0,3.69.74,9,9,0,0,0,4.77-1.29,9.71,9.71,0,0,0,3.4-3.4Z"/><path class="cls-1" d="M391.31,169.06a10.13,10.13,0,0,1-1.74,2.28,11.31,11.31,0,0,1-2.26,1.77,11,11,0,0,1-2.67,1.14,11.31,11.31,0,0,1-3,.39,11,11,0,0,1-4.34-.87,11.5,11.5,0,0,1-3.55-2.37,11.16,11.16,0,0,1-2.38-3.52,10.71,10.71,0,0,1-.88-4.33,10.58,10.58,0,0,1,.88-4.31,11.18,11.18,0,0,1,5.93-5.91,11,11,0,0,1,4.34-.87,10.77,10.77,0,0,1,5.62,1.53,10.92,10.92,0,0,1,2.24,1.77,11.3,11.3,0,0,1,1.75,2.26l-1.47.71a9.18,9.18,0,0,0-1.5-1.89,9.53,9.53,0,0,0-4.15-2.43,9.35,9.35,0,0,0-2.49-.34,9,9,0,0,0-3.7.76,9.65,9.65,0,0,0-3,2,9.54,9.54,0,0,0-2,3,9.1,9.1,0,0,0-.76,3.67,9.21,9.21,0,0,0,.76,3.7,9.57,9.57,0,0,0,5.05,5,9.37,9.37,0,0,0,3.7.74,9.08,9.08,0,0,0,4.77-1.29,9.77,9.77,0,0,0,3.39-3.4Z"/><path class="cls-1" d="M398.41,152.87v21.36h-1.62V152.87Z"/><path class="cls-1" d="M404.13,163.55a10.58,10.58,0,0,1,.88-4.31,11.16,11.16,0,0,1,2.38-3.52,11.33,11.33,0,0,1,3.55-2.39,11.24,11.24,0,0,1,8.67,0,11.3,11.3,0,0,1,5.92,5.91,10.74,10.74,0,0,1,.87,4.31,10.88,10.88,0,0,1-.87,4.33,11.19,11.19,0,0,1-2.39,3.52,11.53,11.53,0,0,1-3.53,2.37,11.24,11.24,0,0,1-8.67,0,11.62,11.62,0,0,1-3.55-2.37,11.16,11.16,0,0,1-2.38-3.52A10.71,10.71,0,0,1,404.13,163.55Zm1.65,0a9.2,9.2,0,0,0,.75,3.7,9.57,9.57,0,0,0,5.05,5,9.37,9.37,0,0,0,3.7.74,9.26,9.26,0,0,0,3.67-.74,9.51,9.51,0,0,0,3-2,9.85,9.85,0,0,0,2.05-3,9.2,9.2,0,0,0,.75-3.7,9.09,9.09,0,0,0-.75-3.67,9.73,9.73,0,0,0-2.05-3,9.54,9.54,0,0,0-3-2,8.94,8.94,0,0,0-3.67-.76,9,9,0,0,0-3.7.76,9.65,9.65,0,0,0-3,2,9.54,9.54,0,0,0-2,3A9.09,9.09,0,0,0,405.78,163.55ZM411.5,150l6.74-4.08.79,1.39-6.9,3.78Z"/><path class="cls-1" d="M432.16,174.23V152.87h1.45l14.79,18.6v-18.6H450v21.36h-1.46l-14.79-18.57v18.57Z"/><path class="cls-1" d="M477.76,163.25h9.34v11h-1.45v-3.67a8.64,8.64,0,0,1-1.54,1.71,9.58,9.58,0,0,1-1.94,1.28,11.4,11.4,0,0,1-2.21.81,10.38,10.38,0,0,1-2.44.28,10.92,10.92,0,0,1-4.34-.87,11.38,11.38,0,0,1-3.55-2.37,11.19,11.19,0,0,1-2.39-3.52,10.88,10.88,0,0,1-.87-4.33,10.74,10.74,0,0,1,.87-4.31,11.25,11.25,0,0,1,5.94-5.91,10.92,10.92,0,0,1,4.34-.87,10.66,10.66,0,0,1,5.06,1.23,11.42,11.42,0,0,1,3.87,3.29l-1.34.93a9.89,9.89,0,0,0-3.29-2.8,9.14,9.14,0,0,0-4.3-1,9,9,0,0,0-3.7.76,9.54,9.54,0,0,0-3,2,9.73,9.73,0,0,0-2.05,3,9.09,9.09,0,0,0-.75,3.67,9.2,9.2,0,0,0,.75,3.7,9.85,9.85,0,0,0,2.05,3,9.51,9.51,0,0,0,3,2,9.33,9.33,0,0,0,3.7.74,9.06,9.06,0,0,0,4.68-1.25,9.51,9.51,0,0,0,3.37-3.33v-3.78h-7.81Z"/><path class="cls-1" d="M493.27,152.87H508v1.58H494.88V163H506v1.54H494.88v8.13H508v1.59H493.27Z"/><path class="cls-1" d="M513.87,174.23V152.87h1.45l14.79,18.6v-18.6h1.62v21.36h-1.45l-14.8-18.57v18.57Z"/><path class="cls-1" d="M539,152.87h14.68v1.58H540.6V163h11.12v1.54H540.6v8.13h13.07v1.59H539Z"/><path class="cls-1" d="M569,152.87a8.25,8.25,0,0,1,3.08.54,6.8,6.8,0,0,1,2.29,1.5,6.51,6.51,0,0,1,1.42,2.19,7.08,7.08,0,0,1,.5,2.64,7.18,7.18,0,0,1-.33,2.17,7,7,0,0,1-1,1.91,6.27,6.27,0,0,1-1.52,1.52,6.92,6.92,0,0,1-2.08,1l5.61,7.89h-2l-5.39-7.59a1.84,1.84,0,0,1-.33,0H561.2v7.56h-1.61V152.87Zm-7.81,1.53v10.74H569a6.48,6.48,0,0,0,2.47-.44,5.56,5.56,0,0,0,1.81-1.18,4.86,4.86,0,0,0,1.11-1.71,5.81,5.81,0,0,0,0-4.08,4.86,4.86,0,0,0-1.11-1.71,5.41,5.41,0,0,0-1.81-1.18,6.48,6.48,0,0,0-2.47-.44Z"/><path class="cls-1" d="M591.36,152.87l9.81,21.36h-1.78l-2.19-4.82H583.77l-2.16,4.82H579.8l9.81-21.36Zm-6.87,15h12l-6-13.26Z"/><path class="cls-1" d="M605.77,152.87h1.62v19.77h12.35v1.59h-14Z"/><path class="cls-1" d="M635.49,152.87h8.36a10.41,10.41,0,0,1,4.3.83,9,9,0,0,1,3.11,2.28,9.71,9.71,0,0,1,1.89,3.38,14.07,14.07,0,0,1,0,8.39,9.8,9.8,0,0,1-1.89,3.4,8.8,8.8,0,0,1-3.11,2.26,10.57,10.57,0,0,1-4.3.82h-8.36Zm1.62,1.58v18.19h6.65a8.81,8.81,0,0,0,3.59-.69A7.62,7.62,0,0,0,650,170a8.31,8.31,0,0,0,1.63-2.88,11.85,11.85,0,0,0,0-7.2,8.31,8.31,0,0,0-1.63-2.88,7.62,7.62,0,0,0-2.63-1.92,8.81,8.81,0,0,0-3.59-.7Z"/><path class="cls-1" d="M659.68,152.87h14.68v1.58H661.29V163h11.13v1.54H661.29v8.13h13.07v1.59H659.68Z"/><path class="cls-1" d="M680.28,152.87h1.61v19.77h12.36v1.59h-14Z"/><path class="cls-1" d="M284.59,190.17a13.24,13.24,0,0,1,5,.86,9.66,9.66,0,0,1,3.48,2.36,9.47,9.47,0,0,1,2.05,3.48,13.09,13.09,0,0,1,.67,4.22,12.94,12.94,0,0,1-.36,3.06,10.73,10.73,0,0,1-1.09,2.78,10.05,10.05,0,0,1-1.84,2.34,9.6,9.6,0,0,1-2.61,1.74l6.48,9h-9.16l-5.67-8h-3.91v8H270V190.17Zm-7,7v8h6.55a5.4,5.4,0,0,0,2-.32,3.53,3.53,0,0,0,1.3-.87,3.24,3.24,0,0,0,.73-1.26,5.05,5.05,0,0,0,.23-1.5,4.35,4.35,0,0,0-1-2.87,4,4,0,0,0-3.26-1.15Z"/><path class="cls-1" d="M302.1,190.17h22.95v7.43H309.76v4.29h12.57v6.94H309.76v3.83h15.29v7.39H302.1Z"/><path class="cls-1" d="M345.12,202.62h14.41v17.43h-6v-2.79a6.79,6.79,0,0,1-3.18,2.53,11.49,11.49,0,0,1-4.37.84,15.43,15.43,0,0,1-6.13-1.23,16.46,16.46,0,0,1-5-3.33,15.85,15.85,0,0,1-3.43-4.92,15,15,0,0,1,0-12.07,15.78,15.78,0,0,1,3.43-4.93,16.46,16.46,0,0,1,5-3.33,15.89,15.89,0,0,1,13.3.48,16.28,16.28,0,0,1,5.48,4.54l-6.25,4.21a8,8,0,0,0-2.77-2.24,8.4,8.4,0,0,0-6.81-.19,7.94,7.94,0,0,0-4.31,4.31,8.21,8.21,0,0,0,1.73,8.95,8,8,0,0,0,2.58,1.72,8.13,8.13,0,0,0,3.18.63,7.34,7.34,0,0,0,3.68-.92,7.82,7.82,0,0,0,2.72-2.49V209h-7.24Z"/><path class="cls-1" d="M373.82,190.17v29.88h-7.66V190.17Z"/><path class="cls-1" d="M387.46,211.09v.19a1.72,1.72,0,0,0,.3.9,3.25,3.25,0,0,0,.92.88,5.69,5.69,0,0,0,1.58.67,8.33,8.33,0,0,0,2.26.27,5.42,5.42,0,0,0,3-.59,1.64,1.64,0,0,0,.82-1.25,2,2,0,0,0-1.19-1.65,23.66,23.66,0,0,0-3.91-1.61c-1.2-.38-2.44-.83-3.73-1.36a17.07,17.07,0,0,1-3.55-1.93,10.13,10.13,0,0,1-2.66-2.8,7.18,7.18,0,0,1-1-3.94,8.33,8.33,0,0,1,.86-3.85,8.56,8.56,0,0,1,2.41-2.92,11.59,11.59,0,0,1,3.7-1.86,16.3,16.3,0,0,1,4.71-.65,17.07,17.07,0,0,1,4.85.67,11.92,11.92,0,0,1,3.87,1.94,9.48,9.48,0,0,1,2.57,3,8.56,8.56,0,0,1,.93,4v.42h-7.47v-.27a2.47,2.47,0,0,0-.28-1.11,3.11,3.11,0,0,0-.87-1,4.49,4.49,0,0,0-1.43-.75,6.45,6.45,0,0,0-2-.29,4.76,4.76,0,0,0-2.8.63,1.79,1.79,0,0,0-.84,1.4,1.76,1.76,0,0,0,1.13,1.5,26.86,26.86,0,0,0,3.81,1.53q1.53.54,3.48,1.32a18,18,0,0,1,3.66,2,11.38,11.38,0,0,1,2.88,2.95,7.37,7.37,0,0,1,1.17,4.2,7.75,7.75,0,0,1-3.39,6.63,11.86,11.86,0,0,1-3.76,1.68,18.08,18.08,0,0,1-4.73.58,19.85,19.85,0,0,1-5-.61,12.76,12.76,0,0,1-4-1.79,8.72,8.72,0,0,1-2.69-2.89,7.79,7.79,0,0,1-1-3.91v-.34Z"/><path class="cls-1" d="M408.88,190.17h26.28v7.43h-9.31v22.45h-7.66V197.6h-9.31Z"/><path class="cls-1" d="M455.27,190.17a13.17,13.17,0,0,1,5,.86,9.37,9.37,0,0,1,5.54,5.84,13.09,13.09,0,0,1,.67,4.22,12.94,12.94,0,0,1-.36,3.06,11.1,11.1,0,0,1-1.09,2.78,10.05,10.05,0,0,1-1.84,2.34,9.75,9.75,0,0,1-2.61,1.74l6.48,9h-9.16l-5.67-8H448.3v8h-7.62V190.17Zm-7,7v8h6.55a5.4,5.4,0,0,0,2-.32,3.62,3.62,0,0,0,1.3-.87,3.37,3.37,0,0,0,.73-1.26,5.05,5.05,0,0,0,.23-1.5,4.35,4.35,0,0,0-1-2.87,4,4,0,0,0-3.26-1.15Z"/><path class="cls-1" d="M471.36,205.11a14.59,14.59,0,0,1,1.27-6,15.78,15.78,0,0,1,3.43-4.93,16.36,16.36,0,0,1,5.06-3.33,15.4,15.4,0,0,1,6.11-1.23,15.56,15.56,0,0,1,6.15,1.23,16.44,16.44,0,0,1,5.05,3.33,15.56,15.56,0,0,1,3.41,4.93,15.19,15.19,0,0,1,0,12.07,15.62,15.62,0,0,1-3.41,4.92,16.44,16.44,0,0,1-5.05,3.33,15.56,15.56,0,0,1-6.15,1.23,15.4,15.4,0,0,1-6.11-1.23,16.36,16.36,0,0,1-5.06-3.33,15.85,15.85,0,0,1-3.43-4.92A14.63,14.63,0,0,1,471.36,205.11Zm7.74,0a8.15,8.15,0,0,0,2.38,5.77,8.2,8.2,0,0,0,2.59,1.72,7.92,7.92,0,0,0,3.16.63A8.15,8.15,0,0,0,493,199.34a8.23,8.23,0,0,0-2.56-1.72,8.08,8.08,0,0,0-3.2-.63,7.92,7.92,0,0,0-3.16.63,8.37,8.37,0,0,0-2.59,1.72,7.87,7.87,0,0,0-1.74,2.59A8,8,0,0,0,479.1,205.11Z"/><path class="cls-1" d="M551.17,212.05a15.72,15.72,0,0,1-2.45,3.48,15.35,15.35,0,0,1-3.3,2.7,16.42,16.42,0,0,1-4,1.77,15.67,15.67,0,0,1-4.44.63,15.49,15.49,0,0,1-6.12-1.23,16.44,16.44,0,0,1-5-3.33,15.85,15.85,0,0,1-3.43-4.92,15,15,0,0,1,0-12.07,15.78,15.78,0,0,1,3.43-4.93,16.44,16.44,0,0,1,5-3.33,15.49,15.49,0,0,1,6.12-1.23,15.15,15.15,0,0,1,4.42.64,17,17,0,0,1,4,1.74,15.15,15.15,0,0,1,3.29,2.68,16.26,16.26,0,0,1,2.45,3.45l-7,3.14a7.77,7.77,0,0,0-2.89-3.08,8.34,8.34,0,0,0-7.44-.54,8.44,8.44,0,0,0-2.58,1.72,7.87,7.87,0,0,0-1.74,2.59,8.22,8.22,0,0,0,0,6.36,7.87,7.87,0,0,0,1.74,2.59,8.27,8.27,0,0,0,2.58,1.72,8.42,8.42,0,0,0,7.46-.53,7.82,7.82,0,0,0,2.87-3.09Z"/><path class="cls-1" d="M564.27,190.17v29.88h-7.66V190.17Z"/><path class="cls-1" d="M581.4,220.05l-12.07-29.88h8.35l7.51,20.07,7.55-20.07h8.35L589,220.05Z"/><path class="cls-1" d="M613.81,190.17v29.88h-7.66V190.17Z"/><path class="cls-1" d="M621.17,190.17h7.62v22.49h14.33v7.39h-22Z"/></svg>