<svg height="512" viewBox="0 0 64 64" width="512" xmlns="http://www.w3.org/2000/svg"><g id="document"><path d="m56 42.08v-13.08a5 5 0 0 0 -5-5h-5a5 5 0 0 0 -5 5v28a3.009 3.009 0 0 1 -3 3h-11a3.009 3.009 0 0 1 -3-3v-3h13a1 1 0 0 0 1-1v-38a1.033 1.033 0 0 0 -.29-.71l-6-6a1.033 1.033 0 0 0 -.71-.29h-1v-5a1 1 0 0 0 -1-1h-26a1 1 0 0 0 -1 1v44a1 1 0 0 0 1 1h5v5a1 1 0 0 0 1 1h13v3a5 5 0 0 0 5 5h11a5 5 0 0 0 5-5v-28a3.009 3.009 0 0 1 3-3h5a3.009 3.009 0 0 1 3 3v13.08a7 7 0 0 0 -6 6.92v6a7 7 0 0 0 14 0v-6a7 7 0 0 0 -6-6.92zm-24-30.67 2.59 2.59h-2.59zm-24-2.41v37h-4v-42h24v4h-19a1 1 0 0 0 -1 1zm2 43v-42h20v5a1 1 0 0 0 1 1h5v36h-5.27a7.982 7.982 0 0 0 -4.43-5.27 5 5 0 1 0 -6.6 0 7.982 7.982 0 0 0 -4.43 5.27zm16-9a3 3 0 1 1 -3-3 3.009 3.009 0 0 1 3 3zm-8.64 9a5.976 5.976 0 0 1 11.28 0zm42.64 3a5 5 0 0 1 -10 0v-6a5 5 0 0 1 10 0z"/><path d="m54 46h2v8h-2z"/><path d="m31 18h-16a3.009 3.009 0 0 0 -3 3v12a3.009 3.009 0 0 0 3 3h16a3.009 3.009 0 0 0 3-3v-12a3.009 3.009 0 0 0 -3-3zm1 15a1 1 0 0 1 -1 1h-16a1 1 0 0 1 -1-1v-12a1 1 0 0 1 1-1h16a1 1 0 0 1 1 1z"/><path d="m16 22h14v2h-14z"/><path d="m16 26h14v2h-14z"/><path d="m16 30h14v2h-14z"/></g></svg>