<?xml version="1.0" encoding="UTF-8" standalone="no"?>
<!-- Created with Inkscape (http://www.inkscape.org/) -->

<svg
   version="1.1"
   id="svg3123"
   xml:space="preserve"
   width="682.66669"
   height="682.66669"
   viewBox="0 0 682.66669 682.66669"
   xmlns="http://www.w3.org/2000/svg"
   xmlns:svg="http://www.w3.org/2000/svg"><defs
     id="defs3127"><clipPath
       clipPathUnits="userSpaceOnUse"
       id="clipPath3145"><path
         d="M 0,512 H 512 V 0 H 0 Z"
         id="path3143" /></clipPath></defs><g
     id="g3129"
     transform="matrix(1.3333333,0,0,-1.3333333,0,682.66667)"><g
       id="g3131"
       transform="translate(76,129.8398)"><path
         d="M 0,0 V 166"
         style="fill:none;stroke:#000000;stroke-width:20;stroke-linecap:round;stroke-linejoin:round;stroke-miterlimit:10;stroke-dasharray:none;stroke-opacity:1"
         id="path3133" /></g><g
       id="g3135"
       transform="translate(436,296)"><path
         d="M 0,0 V -166.37"
         style="fill:none;stroke:#000000;stroke-width:20;stroke-linecap:round;stroke-linejoin:round;stroke-miterlimit:10;stroke-dasharray:none;stroke-opacity:1"
         id="path3137" /></g><g
       id="g3139"><g
         id="g3141"
         clip-path="url(#clipPath3145)"><g
           id="g3147"
           transform="translate(256,261)"><path
             d="M 0,0 C 0,0 9.6,35 40,35 63.68,35 80,14.93 80,-8.84 80,-41.72 47.45,-63.49 0,-105 -47.45,-63.49 -80,-41.72 -80,-8.84 -80,14.93 -63.68,35 -40,35 -9.6,35 0,0 0,0 Z"
             style="fill:none;stroke:#000000;stroke-width:20;stroke-linecap:round;stroke-linejoin:round;stroke-miterlimit:10;stroke-dasharray:none;stroke-opacity:1"
             id="path3149" /></g><g
           id="g3151"
           transform="translate(376,417.6201)"><path
             d="M 0,0 V 84.38 H 60 V -46.08"
             style="fill:none;stroke:#000000;stroke-width:20;stroke-linecap:round;stroke-linejoin:round;stroke-miterlimit:10;stroke-dasharray:none;stroke-opacity:1"
             id="path3153" /></g><g
           id="g3155"
           transform="translate(352,10)"><path
             d="m 0,0 c -16.57,0 -30,13.43 -30,30 0,3.52 0.61,6.88 1.73,10 3.04,8.52 9.87,15.23 18.45,18.22 -0.03,0.6 -0.18,1.17 -0.18,1.78 0,7.28 1.95,14.11 5.35,20 6.92,11.96 19.85,20 34.65,20 3.2,0 6.27,-0.47 9.25,-1.18 C 48.31,111.6 63.14,120 80,120 c 1.35,0 2.68,-0.05 4,-0.16 24.14,-1.92 43.24,-21.08 45.53,-45.13 C 141.69,67.85 150,54.96 150,40 150,17.91 132.09,0 110,0 h -412 c -22.09,0 -40,17.91 -40,40 0,14.96 8.31,27.85 20.47,34.71 2.29,24.05 21.39,43.21 45.53,45.13 1.32,0.11 2.65,0.16 4,0.16 16.86,0 31.69,-8.4 40.75,-21.18 2.98,0.71 6.05,1.18 9.25,1.18 14.8,0 27.73,-8.04 34.65,-20 3.4,-5.89 5.35,-12.72 5.35,-20 0,-0.61 -0.15,-1.18 -0.18,-1.78 8.58,-2.99 15.41,-9.7 18.45,-18.22 1.12,-3.12 1.73,-6.48 1.73,-10 0,-16.57 -13.43,-30 -30,-30"
             style="fill:none;stroke:#000000;stroke-width:20;stroke-linecap:round;stroke-linejoin:round;stroke-miterlimit:10;stroke-dasharray:none;stroke-opacity:1"
             id="path3157" /></g><g
           id="g3159"
           transform="translate(323.7202,50)"><path
             d="M 0,0 H -135.44"
             style="fill:none;stroke:#000000;stroke-width:20;stroke-linecap:round;stroke-linejoin:round;stroke-miterlimit:10;stroke-dasharray:none;stroke-opacity:1"
             id="path3161" /></g><g
           id="g3163"
           transform="translate(347.3501,90)"><path
             d="M 0,0 H -182.7"
             style="fill:none;stroke:#000000;stroke-width:20;stroke-linecap:round;stroke-linejoin:round;stroke-miterlimit:10;stroke-dasharray:none;stroke-opacity:1"
             id="path3165" /></g><g
           id="g3167"
           transform="translate(136,410)"><path
             d="m 0,0 c 0,-5.522 -4.477,-10 -10,-10 -5.523,0 -10,4.478 -10,10 0,5.522 4.477,10 10,10 C -4.477,10 0,5.522 0,0"
             style="fill:#000000;fill-opacity:1;fill-rule:nonzero;stroke:none"
             id="path3169" /></g><g
           id="g3171"
           transform="translate(90.3682,382.5449)"><path
             d="m 0,0 -68.528,-52.665 c -8.88,-6.77 -13.88,-18.37 -11.05,-30.88 2.89,-12.78 11.13,-21.39 26.21,-22.85 7.98,-0.78 15.39,1.57 21.16,5.97 0.02,0.01 6.8,5.23 17.84,13.72 48.63,37.4 179.9,138.37 180,138.44 l 197.84,-152.16 c 5.04,-3.84 11.33,-6.12 18.16,-6.12 16.57,0 30,13.43 30,30 0,9.74 -4.64,18.4 -11.84,23.88 l -216,166 c -5.04,3.84 -11.33,6.12 -18.16,6.12 -6.83,0 -13.12,-2.28 -18.16,-6.12 L 71.333,54.82"
             style="fill:none;stroke:#000000;stroke-width:20;stroke-linecap:round;stroke-linejoin:round;stroke-miterlimit:10;stroke-dasharray:none;stroke-opacity:1"
             id="path3173" /></g></g></g></g></svg>
