<?xml version="1.0" encoding="UTF-8"?>
<svg xmlns="http://www.w3.org/2000/svg" xmlns:xlink="http://www.w3.org/1999/xlink" version="1.1" id="Capa_1" x="0px" y="0px" viewBox="0 0 512 512" style="enable-background:new 0 0 512 512;" xml:space="preserve" width="512" height="512">
<g>
	<path style="fill-rule:evenodd;clip-rule:evenodd;fill:none;stroke:#000000;stroke-width:15.0001;stroke-miterlimit:22.9256;" d="&#10;&#9;&#9;M452,413.5h-15 M422,413.5H22.5c-8.248,0-15-6.75-15-15v-285c0-8.25,6.75-15,15-15h467c8.25,0,15,6.752,15,15v285&#10;&#9;&#9;c0,8.248-6.752,15-15,15H467 M37.5,128.5h437v254.999h-437V128.5z"/>
	
		<polyline style="fill-rule:evenodd;clip-rule:evenodd;fill:none;stroke:#000000;stroke-width:15.0001;stroke-miterlimit:22.9256;" points="&#10;&#9;&#9;68.501,293.5 68.501,226 113.501,226 &#9;"/>
	
		<line style="fill-rule:evenodd;clip-rule:evenodd;fill:none;stroke:#000000;stroke-width:15.0001;stroke-miterlimit:22.9256;" x1="68.501" y1="255.999" x2="106.001" y2="255.999"/>
	
		<line style="fill-rule:evenodd;clip-rule:evenodd;fill:none;stroke:#000000;stroke-width:15.0001;stroke-miterlimit:22.9256;" x1="128.501" y1="255.999" x2="166.001" y2="255.999"/>
	<path style="fill-rule:evenodd;clip-rule:evenodd;fill:none;stroke:#000000;stroke-width:15.0001;stroke-miterlimit:22.9256;" d="&#10;&#9;&#9;M211,222.25c12.375,0,22.5,10.125,22.5,22.499v22.502c0,12.375-10.125,22.499-22.5,22.499c-12.375,0-22.5-10.125-22.5-22.499&#10;&#9;&#9;v-22.502C188.5,232.374,198.625,222.25,211,222.25z"/>
	<path style="fill-rule:evenodd;clip-rule:evenodd;fill:none;stroke:#000000;stroke-width:15.0001;stroke-miterlimit:22.9256;" d="&#10;&#9;&#9;M315.999,222.25c12.375,0,22.5,10.125,22.5,22.499v22.502c0,12.375-10.125,22.499-22.5,22.499s-22.5-10.125-22.5-22.499v-22.502&#10;&#9;&#9;C293.499,232.374,303.624,222.25,315.999,222.25z"/>
	
		<line style="fill-rule:evenodd;clip-rule:evenodd;fill:none;stroke:#000000;stroke-width:15.0001;stroke-miterlimit:22.9256;" x1="263.499" y1="218.5" x2="263.499" y2="293.5"/>
	<path style="fill-rule:evenodd;clip-rule:evenodd;fill:none;stroke:#000000;stroke-width:15.0001;stroke-miterlimit:22.9256;" d="&#10;&#9;&#9;M420.998,222.25c12.375,0,22.5,10.125,22.5,22.499v22.502c0,12.375-10.125,22.499-22.5,22.499c-12.375,0-22.5-10.125-22.5-22.499&#10;&#9;&#9;v-22.502C398.498,232.374,408.623,222.25,420.998,222.25z"/>
	
		<line style="fill-rule:evenodd;clip-rule:evenodd;fill:none;stroke:#000000;stroke-width:15.0001;stroke-miterlimit:22.9256;" x1="368.499" y1="218.5" x2="368.498" y2="293.5"/>
	<path style="fill-rule:evenodd;clip-rule:evenodd;fill:none;stroke:#000000;stroke-width:15.0001;stroke-miterlimit:22.9256;" d="&#10;&#9;&#9;M37.5,188.499H75 M90,188.499h384.5"/>
	
		<line style="fill-rule:evenodd;clip-rule:evenodd;fill:none;stroke:#000000;stroke-width:15.0001;stroke-miterlimit:22.9256;" x1="37.5" y1="323.5" x2="474.5" y2="323.5"/>
	<path style="fill-rule:evenodd;clip-rule:evenodd;fill:none;stroke:#000000;stroke-width:15.0001;stroke-miterlimit:22.9256;" d="&#10;&#9;&#9;M437,158.5h15 M407,158.5h15"/>
	<path style="fill-rule:evenodd;clip-rule:evenodd;fill:none;stroke:#000000;stroke-width:15.0001;stroke-miterlimit:22.9256;" d="&#10;&#9;&#9;M151.001,353.5h37.5 M323.499,353.5h37.5"/>
</g>















</svg>
