<?xml version="1.0" encoding="UTF-8" standalone="no"?>
<!-- Created with Inkscape (http://www.inkscape.org/) -->

<svg
   version="1.1"
   id="svg2991"
   xml:space="preserve"
   width="682.66669"
   height="682.66669"
   viewBox="0 0 682.66669 682.66669"
   xmlns="http://www.w3.org/2000/svg"
   xmlns:svg="http://www.w3.org/2000/svg"><defs
     id="defs2995"><clipPath
       clipPathUnits="userSpaceOnUse"
       id="clipPath3005"><path
         d="M 0,512 H 512 V 0 H 0 Z"
         id="path3003" /></clipPath></defs><g
     id="g2997"
     transform="matrix(1.3333333,0,0,-1.3333333,0,682.66667)"><g
       id="g2999"><g
         id="g3001"
         clip-path="url(#clipPath3005)"><g
           id="g3007"
           transform="translate(256,345.6514)"><path
             d="m 0,0 c 0,0 -12.411,107.349 -144.263,158.849 v -41.01"
             style="fill:none;stroke:#060606;stroke-width:15;stroke-linecap:round;stroke-linejoin:round;stroke-miterlimit:10;stroke-dasharray:none;stroke-opacity:1"
             id="path3009" /></g><g
           id="g3011"
           transform="translate(256,345.6514)"><path
             d="M 0,0 C 0,0 12.411,107.349 144.263,158.849 V 117.838"
             style="fill:none;stroke:#060606;stroke-width:15;stroke-linecap:round;stroke-linejoin:round;stroke-miterlimit:10;stroke-dasharray:none;stroke-opacity:1"
             id="path3013" /></g><g
           id="g3015"
           transform="translate(146.1387,447.4219)"><path
             d="M 0,0 C -45.127,23.786 -84.056,32.707 -84.056,32.707 L -111.451,4.869"
             style="fill:none;stroke:#060606;stroke-width:15;stroke-linecap:round;stroke-linejoin:round;stroke-miterlimit:10;stroke-dasharray:none;stroke-opacity:1"
             id="path3017" /></g><g
           id="g3019"
           transform="translate(257.5894,345.6514)"><path
             d="M 0,0 C -17.951,32.074 -43.714,57.22 -70.673,76.641"
             style="fill:none;stroke:#060606;stroke-width:15;stroke-linecap:round;stroke-linejoin:round;stroke-miterlimit:10;stroke-dasharray:none;stroke-opacity:1"
             id="path3021" /></g><g
           id="g3023"
           transform="translate(254.4106,345.6514)"><path
             d="M 0,0 C 57.572,102.868 195.506,134.478 195.506,134.478 L 222.902,106.64"
             style="fill:none;stroke:#060606;stroke-width:15;stroke-linecap:round;stroke-linejoin:round;stroke-miterlimit:10;stroke-dasharray:none;stroke-opacity:1"
             id="path3025" /></g><g
           id="g3027"
           transform="translate(279.6665,7.5)"><path
             d="m 0,0 h -47.333 c -5.523,0 -10,4.478 -10,10 v 318.151 c 0,5.523 4.477,10 10,10 H 0 c 5.523,0 10,-4.477 10,-10 V 10 C 10,4.478 5.523,0 0,0 Z"
             style="fill:none;stroke:#060606;stroke-width:15;stroke-linecap:round;stroke-linejoin:round;stroke-miterlimit:10;stroke-dasharray:none;stroke-opacity:1"
             id="path3029" /></g><path
           d="m 289.667,277.435 h -67.333 v 33.333 h 67.333 z"
           style="fill:none;stroke:#060606;stroke-width:15;stroke-linecap:round;stroke-linejoin:round;stroke-miterlimit:10;stroke-dasharray:none;stroke-opacity:1"
           id="path3031" /><path
           d="m 289.667,42.383 h -67.333 v 33.334 h 67.333 z"
           style="fill:none;stroke:#060606;stroke-width:15;stroke-linecap:round;stroke-linejoin:round;stroke-miterlimit:10;stroke-dasharray:none;stroke-opacity:1"
           id="path3033" /><g
           id="g3035"
           transform="translate(256,221.5752)"><path
             d="M 0,0 V -90"
             style="fill:none;stroke:#060606;stroke-width:15;stroke-linecap:round;stroke-linejoin:round;stroke-miterlimit:10;stroke-dasharray:none;stroke-opacity:1"
             id="path3037" /></g><g
           id="g3039"
           transform="translate(503,173.5752)"><path
             d="m 0,0 v -40.227 c 0,-3.613 -1.949,-6.944 -5.097,-8.715 l -193.334,-108.75 c -6.666,-3.75 -14.902,1.067 -14.902,8.715 v 315.205 c 0,3.612 1.948,6.944 5.097,8.715 l 193.333,108.75 C -8.236,287.442 0,282.626 0,274.978 V 48"
             style="fill:none;stroke:#060606;stroke-width:15;stroke-linecap:round;stroke-linejoin:round;stroke-miterlimit:10;stroke-dasharray:none;stroke-opacity:1"
             id="path3041" /></g><g
           id="g3043"
           transform="translate(207.4307,15.8828)"><path
             d="m 0,0 -193.333,108.75 c -3.149,1.771 -5.098,5.103 -5.098,8.716 V 432.67 c 0,7.648 8.237,12.465 14.903,8.716 L 9.805,332.636 c 3.149,-1.772 5.098,-5.104 5.098,-8.716 V 8.716 C 14.903,1.067 6.666,-3.75 0,0 Z"
             style="fill:none;stroke:#060606;stroke-width:15;stroke-linecap:round;stroke-linejoin:round;stroke-miterlimit:10;stroke-dasharray:none;stroke-opacity:1"
             id="path3045" /></g><g
           id="g3047"
           transform="translate(466.3359,326.1689)"><path
             d="m 0,0 -140.005,-80 v 48.351 L 0,48.351 Z"
             style="fill:none;stroke:#060606;stroke-width:15;stroke-linecap:round;stroke-linejoin:round;stroke-miterlimit:10;stroke-dasharray:none;stroke-opacity:1"
             id="path3049" /></g></g></g></g></svg>
