<?xml version="1.0" encoding="UTF-8" standalone="no"?>
<!-- Created with Inkscape (http://www.inkscape.org/) -->

<svg
   version="1.1"
   id="svg2811"
   xml:space="preserve"
   width="682.66669"
   height="682.66669"
   viewBox="0 0 682.66669 682.66669"
   xmlns="http://www.w3.org/2000/svg"
   xmlns:svg="http://www.w3.org/2000/svg"><defs
     id="defs2815"><clipPath
       clipPathUnits="userSpaceOnUse"
       id="clipPath2825"><path
         d="M 0,512 H 512 V 0 H 0 Z"
         id="path2823" /></clipPath></defs><g
     id="g2817"
     transform="matrix(1.3333333,0,0,-1.3333333,0,682.66667)"><g
       id="g2819"><g
         id="g2821"
         clip-path="url(#clipPath2825)"><g
           id="g2827"
           transform="translate(360.7109,397.5215)"><path
             d="m 0,0 c 0,-57.702 -46.777,-104.479 -104.479,-104.479 -57.702,0 -104.479,46.777 -104.479,104.479 0,57.702 46.777,104.479 104.479,104.479 C -46.777,104.479 0,57.702 0,0 Z"
             style="fill:none;stroke:#000000;stroke-width:20;stroke-linecap:round;stroke-linejoin:round;stroke-miterlimit:10;stroke-dasharray:none;stroke-opacity:1"
             id="path2829" /></g><g
           id="g2831"
           transform="translate(493.7988,229.0996)"><path
             d="m 0,0 -94.29,-38.55 c -3.601,14.95 -14,27.66 -28.49,33.981 L -136.46,1.41 C -200.51,29.37 -273.3,29.4 -337.37,1.471 L -351.3,-4.6 c -14.61,-6.37 -25.07,-19.23 -28.6,-34.33 l -95.69,38.941 c -8.37,3.409 -8.37,15.26 0,18.679 l 170.86,69.701 c 18.16,-15.26 41.59,-24.451 67.16,-24.451 25.49,0 48.85,9.14 66.99,24.31 L 0,18.67 C 8.359,15.25 8.359,3.42 0,0 Z"
             style="fill:none;stroke:#000000;stroke-width:20;stroke-linecap:round;stroke-linejoin:round;stroke-miterlimit:10;stroke-dasharray:none;stroke-opacity:1"
             id="path2833" /></g><g
           id="g2835"
           transform="translate(400.9014,299.4434)"><path
             d="M 0,0 V -176.944"
             style="fill:none;stroke:#000000;stroke-width:20;stroke-linecap:round;stroke-linejoin:round;stroke-miterlimit:10;stroke-dasharray:none;stroke-opacity:1"
             id="path2837" /></g><g
           id="g2839"
           transform="translate(400.9014,53.0186)"><path
             d="m 0,0 v 0 c -13.91,0 -25.187,11.276 -25.187,25.187 v 19.107 c 0,13.91 11.277,25.186 25.187,25.186 13.91,0 25.187,-11.276 25.187,-25.186 V 25.187 C 25.187,11.276 13.91,0 0,0 Z"
             style="fill:none;stroke:#000000;stroke-width:20;stroke-linecap:round;stroke-linejoin:round;stroke-miterlimit:10;stroke-dasharray:none;stroke-opacity:1"
             id="path2841" /></g><g
           id="g2843"
           transform="translate(425.6758,10)"><path
             d="m 0,0 h -49.55 c 0,0 -0.34,22.03 13.611,45.63 3.359,-1.67 7.16,-2.61 11.169,-2.61 4.01,0 7.8,0.94 11.17,2.61 C 0.341,22.03 0,0 0,0 Z"
             style="fill:none;stroke:#000000;stroke-width:20;stroke-linecap:round;stroke-linejoin:round;stroke-miterlimit:10;stroke-dasharray:none;stroke-opacity:1"
             id="path2845" /></g><g
           id="g2847"
           transform="translate(301.002,104.7266)"><path
             d="m 0,0 c 10.279,-1.839 20.473,-4.314 30.517,-7.446 14.843,-5.096 29.5,-10.72 44.2,-16.21 v 16.24 c 0,13.909 11.269,25.189 25.179,25.189 v 56.361 c 0,19.819 -11.729,37.75 -29.879,45.67 l -13.68,5.979 c -64.05,27.96 -136.84,27.99 -200.91,0.061 l -13.93,-6.071 c -18.16,-7.919 -29.91,-25.86 -29.91,-45.679 V -33.217 c 23.078,8.735 46.073,18.124 69.53,25.79 10.191,3.174 20.535,5.673 30.966,7.517"
             style="fill:none;stroke:#000000;stroke-width:20;stroke-linecap:round;stroke-linejoin:round;stroke-miterlimit:10;stroke-dasharray:none;stroke-opacity:1"
             id="path2849" /></g><g
           id="g2851"
           transform="translate(213.085,104.8164)"><path
             d="m 0,0 c -10.431,-1.844 -20.775,-4.343 -30.966,-7.517 -23.454,-7.675 -46.456,-17.044 -69.53,-25.79 l 66.43,-28.699 c 50.33,-21.74 107.42,-21.57 157.61,0.47 l 44.37,19.489 c -3.31,4.261 -5.28,9.62 -5.28,15.441 v 2.86 c -14.699,5.49 -29.348,11.143 -44.2,16.21 -10.044,3.132 -20.238,5.607 -30.517,7.446"
             style="fill:none;stroke:#000000;stroke-width:20;stroke-linecap:round;stroke-linejoin:round;stroke-miterlimit:10;stroke-dasharray:none;stroke-opacity:1"
             id="path2853" /></g><g
           id="g2855"
           transform="translate(280.2793,447.5781)"><path
             d="m 0,0 c 0,0 -12.708,11.722 -32.297,5.82 -17.986,-5.418 -23.434,-29.007 -10.23,-39.614 6.954,-5.586 17.579,-10.031 31.81,-15.061 31.854,-11.26 20.078,-56.181 -12.323,-56.398 -12.645,-0.084 -18.556,0.719 -29.664,7.985"
             style="fill:none;stroke:#000000;stroke-width:20;stroke-linecap:round;stroke-linejoin:round;stroke-miterlimit:10;stroke-dasharray:none;stroke-opacity:1"
             id="path2857" /></g><g
           id="g2859"
           transform="translate(257.2393,465.7773)"><path
             d="M 0,0 V -136.144"
             style="fill:none;stroke:#000000;stroke-width:20;stroke-linecap:round;stroke-linejoin:round;stroke-miterlimit:10;stroke-dasharray:none;stroke-opacity:1"
             id="path2861" /></g><g
           id="g2863"
           transform="translate(257.9307,108.6504)"><path
             d="M 0,0 V 0"
             style="fill:none;stroke:#000000;stroke-width:20;stroke-linecap:round;stroke-linejoin:round;stroke-miterlimit:10;stroke-dasharray:none;stroke-opacity:1"
             id="path2865" /></g></g></g></g></svg>
