<?xml version="1.0" encoding="UTF-8"?><svg id="Capa_1" xmlns="http://www.w3.org/2000/svg" viewBox="0 0 350 350"><path d="m264.78,122.49h-82.42v24.63h-25.34v-24.63h-13.5v33.64h-25.36v-33.64h-16.24c-.03-13.33,10.75-24.16,24.08-24.19.02,0,.04,0,.06,0h138.72c5.66-25.7,28.43-44.01,54.75-44.01v-29.29H126.27c-15.21.02-30.2,3.67-43.72,10.63-3.41,1.73-6.72,3.66-9.9,5.79-2.65,1.8-5.2,3.73-7.66,5.79-2.25,1.85-4.3,3.78-6.35,5.8-1.85,1.85-3.57,3.81-5.26,5.8s-3.08,3.81-4.49,5.79-2.66,3.81-3.88,5.79-2.34,3.81-3.39,5.8-1.92,3.83-2.79,5.79-1.57,3.84-2.29,5.79-1.4,3.83-1.97,5.8-1.03,3.84-1.49,5.79-.78,3.84-1.11,5.79-.68,3.84-.88,5.8-.21,3.85-.29,5.79c-.05,1.32-.21,2.63-.21,3.97v59.27h0c26.44,0,49.31,18.41,54.97,44.24h89.51v-24.74h25.34v24.71h13.5v-33.71h25.34v33.75h15.83c0,13.33-10.81,24.14-24.14,24.14H85.55c-5.66,25.83-28.53,44.23-54.97,44.24h0v32.42h193.28c19.55.08,38.64-5.93,54.61-17.19,2.59-1.78,5.08-3.7,7.47-5.74,2.16-1.85,4.25-3.77,6.23-5.79s3.59-3.79,5.26-5.8,2.97-3.81,4.41-5.86,2.58-3.82,3.78-5.79,2.27-3.82,3.28-5.79,1.94-3.83,2.79-5.8,1.51-3.84,2.21-5.79,1.33-3.83,1.9-5.79,1.03-3.84,1.49-5.8.72-3.85,1.03-5.79.63-3.84.81-5.79.23-3.86.29-5.8c0-1.03.16-2.13.16-3.22v-62.83c-26.32.02-49.11-18.27-54.8-43.96Z"/><circle cx="30.57" cy="236.27" r="27.35"/><circle cx="319.53" cy="110.37" r="27.25"/></svg>