<svg id="Capa_1" data-name="Capa 1" xmlns="http://www.w3.org/2000/svg" viewBox="0 0 908.87 292.34"><defs><style>.cls-1{fill:#fff;}</style></defs><path class="cls-1" d="M403.21,240.31v.46a4.06,4.06,0,0,0,.74,2.17,7.34,7.34,0,0,0,2.22,2.13,13.63,13.63,0,0,0,3.78,1.61,20.35,20.35,0,0,0,5.44.64q5.17,0,7.15-1.42c1.33-1,2-2,2-3,0-1.54-1-2.86-2.86-4a56.45,56.45,0,0,0-9.42-3.88q-4.33-1.38-9-3.27a41.74,41.74,0,0,1-8.54-4.66,24.33,24.33,0,0,1-6.41-6.74,17.26,17.26,0,0,1-2.54-9.5,20.14,20.14,0,0,1,2.08-9.27,20.53,20.53,0,0,1,5.81-7,27.07,27.07,0,0,1,8.9-4.47,38.83,38.83,0,0,1,11.35-1.57,40.81,40.81,0,0,1,11.68,1.61,28.31,28.31,0,0,1,9.32,4.66,22.56,22.56,0,0,1,6.18,7.34,20.31,20.31,0,0,1,2.26,9.64v1h-18v-.65a6,6,0,0,0-.69-2.68,7.69,7.69,0,0,0-2.08-2.49,11.06,11.06,0,0,0-3.46-1.8,15.42,15.42,0,0,0-4.85-.69c-3.13,0-5.38.51-6.73,1.52a4.25,4.25,0,0,0-2,3.37q0,2.13,2.72,3.6a65.94,65.94,0,0,0,9.18,3.69c2.46.86,5.26,1.93,8.4,3.18a43.44,43.44,0,0,1,8.81,4.8,27.21,27.21,0,0,1,6.92,7.11,17.67,17.67,0,0,1,2.81,10.1,18.66,18.66,0,0,1-8.16,16,28.59,28.59,0,0,1-9,4.06,44.52,44.52,0,0,1-11.4,1.38,46.67,46.67,0,0,1-12-1.48,30.88,30.88,0,0,1-9.69-4.29,20.82,20.82,0,0,1-6.46-7,18.76,18.76,0,0,1-2.35-9.42v-.83Z"/><path class="cls-1" d="M464.39,225.92a35.12,35.12,0,0,1,3-14.54,38.11,38.11,0,0,1,8.26-11.85,39.12,39.12,0,0,1,12.18-8,38.42,38.42,0,0,1,29.53,0,39.23,39.23,0,0,1,12.18,8,37.64,37.64,0,0,1,8.21,11.85,36.71,36.71,0,0,1,0,29.07,37.68,37.68,0,0,1-8.21,11.86,39.41,39.41,0,0,1-12.18,8,38.42,38.42,0,0,1-29.53,0,39.29,39.29,0,0,1-12.18-8,38.16,38.16,0,0,1-8.26-11.86A35,35,0,0,1,464.39,225.92Zm18.64,0a19.36,19.36,0,0,0,1.52,7.66,18.77,18.77,0,0,0,4.2,6.22A20,20,0,0,0,495,244a19.15,19.15,0,0,0,7.61,1.52,19.56,19.56,0,1,0,0-39.12,19,19,0,0,0-7.61,1.52,20,20,0,0,0-6.23,4.15,18.82,18.82,0,0,0-4.2,6.23A19.36,19.36,0,0,0,483,225.92Z"/><path class="cls-1" d="M563.67,261.91v-72h15.69l32.11,40.23V189.93h18.36v72H614.24l-32.11-40.14v40.14Z"/><path class="cls-1" d="M652.72,225.92a35.12,35.12,0,0,1,3-14.54A38.11,38.11,0,0,1,664,199.53a39.23,39.23,0,0,1,12.18-8,38.42,38.42,0,0,1,29.53,0,39.23,39.23,0,0,1,12.18,8,37.48,37.48,0,0,1,8.21,11.85,36.71,36.71,0,0,1,0,29.07,37.52,37.52,0,0,1-8.21,11.86,39.41,39.41,0,0,1-12.18,8,38.42,38.42,0,0,1-29.53,0,39.41,39.41,0,0,1-12.18-8,38.16,38.16,0,0,1-8.26-11.86A35,35,0,0,1,652.72,225.92Zm18.64,0a19.54,19.54,0,0,0,1.52,7.66,18.93,18.93,0,0,0,4.2,6.22,20,20,0,0,0,6.23,4.16,19.15,19.15,0,0,0,7.61,1.52,19.56,19.56,0,1,0,0-39.12,19,19,0,0,0-7.61,1.52,20,20,0,0,0-6.23,4.15,19,19,0,0,0-4.2,6.23A19.54,19.54,0,0,0,671.36,225.92Z"/><path class="cls-1" d="M787.16,189.93a31.52,31.52,0,0,1,12,2.08,22.52,22.52,0,0,1,13.33,14.07,32.35,32.35,0,0,1,.74,17.53,26.05,26.05,0,0,1-2.63,6.69,24.29,24.29,0,0,1-4.43,5.63,23.42,23.42,0,0,1-6.27,4.2l15.59,21.78H793.43l-13.65-19.29h-9.41v19.29H752v-72Zm-16.79,16.8v19.19h15.78a12.39,12.39,0,0,0,4.7-.79,8.6,8.6,0,0,0,3.14-2.07,7.92,7.92,0,0,0,1.75-3.05,11.83,11.83,0,0,0,.56-3.6,10.46,10.46,0,0,0-2.31-6.92q-2.31-2.76-7.84-2.76Z"/><path class="cls-1" d="M879.8,189.93l29.07,72H888.75l-4-10.52H856.46l-4,10.52H832.37l29.16-72Zm-9.13,23.62-7.94,21.13h15.78Z"/><path class="cls-1" d="M388,50.22h7.8V145.6h59.58v7.67H388Z"/><path class="cls-1" d="M487.7,50.22h7.8V145.6h59.58v7.67H487.7Z"/><path class="cls-1" d="M637.07,50.22l47.29,103.05h-8.59L665.21,130H600.47L590,153.27h-8.72l47.29-103Zm-33.16,72.4h57.86L632.84,58.68Z"/><path class="cls-1" d="M737.92,153.27l-47.43-103h8.72L742,144.94,785,50.22h8.59l-47.3,103.05Z"/><path class="cls-1" d="M824.56,50.22h70.81v7.67h-63V99H886v7.4H832.36V145.6h63v7.67H824.56Z"/><path class="cls-1" d="M254.88,95H174.56v24H149.87V95H136.71v32.78H112V95H96.17A23.52,23.52,0,0,1,119.7,71.43H254.88a54.64,54.64,0,0,1,53.35-42.89V0H119.9A93.3,93.3,0,0,0,77.3,10.36,93.62,93.62,0,0,0,67.65,16a92.9,92.9,0,0,0-7.46,5.64C58,23.44,56,25.32,54,27.29c-1.8,1.8-3.48,3.71-5.13,5.65s-3,3.71-4.38,5.64-2.59,3.71-3.78,5.64-2.28,3.71-3.3,5.65-1.87,3.73-2.72,5.64-1.53,3.74-2.23,5.64-1.36,3.73-1.92,5.65-1,3.74-1.45,5.64-.76,3.74-1.08,5.64-.66,3.74-.86,5.65-.2,3.75-.28,5.64c-.05,1.29-.2,2.56-.2,3.87V151h0a54.86,54.86,0,0,1,53.57,43.11h87.22V170h24.69v24.08h13.16V161.23H230v32.89h15.43a23.52,23.52,0,0,1-23.53,23.52H80.22a54.86,54.86,0,0,1-53.57,43.11h0v31.59H215a91.69,91.69,0,0,0,53.22-16.75A90.76,90.76,0,0,0,275.5,270c2.1-1.8,4.14-3.67,6.07-5.64s3.5-3.69,5.13-5.65S289.59,255,291,253s2.51-3.72,3.68-5.64,2.21-3.72,3.2-5.64,1.89-3.73,2.72-5.65,1.47-3.74,2.15-5.64,1.3-3.73,1.85-5.64,1-3.74,1.45-5.65.7-3.75,1-5.64.61-3.74.79-5.64.22-3.76.28-5.65c0-1,.16-2.08.16-3.14V137.84A54.65,54.65,0,0,1,254.88,95Z"/><circle class="cls-1" cx="26.65" cy="205.88" r="26.65"/><circle class="cls-1" cx="308.23" cy="83.19" r="26.55"/></svg>