<svg id="Capa_1" data-name="Capa 1" xmlns="http://www.w3.org/2000/svg" xmlns:xlink="http://www.w3.org/1999/xlink" viewBox="0 0 523.65 573.61"><defs><style>.cls-1{fill:#410324;}.cls-2{fill:url(#Degradado_sin_nombre_5);}</style><linearGradient id="Degradado_sin_nombre_5" x1="243.66" x2="243.66" y2="292.34" gradientUnits="userSpaceOnUse"><stop offset="0" stop-color="#960e53"/><stop offset="1" stop-color="#410324"/></linearGradient></defs><path class="cls-1" d="M18,550.64v.46a4.09,4.09,0,0,0,.74,2.17A7.32,7.32,0,0,0,21,555.39,13.63,13.63,0,0,0,24.73,557a20.33,20.33,0,0,0,5.44.65q5.17,0,7.15-1.43c1.33-1,2-2,2-3,0-1.54-1-2.86-2.86-4A55.75,55.75,0,0,0,27,545.38Q22.7,544,18,542.1a41.27,41.27,0,0,1-8.54-4.66,24.29,24.29,0,0,1-6.41-6.73A17.31,17.31,0,0,1,.55,521.2a20.2,20.2,0,0,1,2.08-9.27,20.53,20.53,0,0,1,5.81-7,27.41,27.41,0,0,1,8.91-4.47,38.71,38.71,0,0,1,11.34-1.57,40.46,40.46,0,0,1,11.68,1.62,28.11,28.11,0,0,1,9.32,4.65,22.56,22.56,0,0,1,6.18,7.34,20.34,20.34,0,0,1,2.26,9.64v1h-18v-.65a6,6,0,0,0-.69-2.67,7.49,7.49,0,0,0-2.08-2.49,11.06,11.06,0,0,0-3.46-1.8,15.12,15.12,0,0,0-4.85-.7c-3.13,0-5.38.51-6.73,1.53a4.27,4.27,0,0,0-2,3.36q0,2.13,2.72,3.6A65.67,65.67,0,0,0,32.2,527q3.69,1.29,8.4,3.18A43.14,43.14,0,0,1,49.41,535a27.05,27.05,0,0,1,6.92,7.11,17.7,17.7,0,0,1,2.82,10.1,18.66,18.66,0,0,1-8.17,16,28.37,28.37,0,0,1-9,4.06,44.52,44.52,0,0,1-11.4,1.38,47.12,47.12,0,0,1-12-1.47,31.34,31.34,0,0,1-9.69-4.29,20.85,20.85,0,0,1-6.46-7A18.75,18.75,0,0,1,0,551.47v-.83Z"/><path class="cls-1" d="M79.17,536.24a35,35,0,0,1,3-14.53,38.16,38.16,0,0,1,8.26-11.86,39.41,39.41,0,0,1,12.18-8,38.42,38.42,0,0,1,29.53,0,39.41,39.41,0,0,1,12.18,8,37.52,37.52,0,0,1,8.21,11.86,36.69,36.69,0,0,1,0,29.06,37.41,37.41,0,0,1-8.21,11.86,39.23,39.23,0,0,1-12.18,8,38.42,38.42,0,0,1-29.53,0,39.23,39.23,0,0,1-12.18-8,38,38,0,0,1-8.26-11.86A35,35,0,0,1,79.17,536.24Zm18.64,0a19.54,19.54,0,0,0,1.52,7.66,19.07,19.07,0,0,0,4.2,6.23,20,20,0,0,0,6.23,4.15,19,19,0,0,0,7.61,1.52,19.32,19.32,0,0,0,7.71-1.52,19.17,19.17,0,0,0,10.33-10.38,20.06,20.06,0,0,0,0-15.32,19.59,19.59,0,0,0-4.15-6.23,19.81,19.81,0,0,0-6.18-4.15,19.5,19.5,0,0,0-7.71-1.52,19.15,19.15,0,0,0-7.61,1.52,20.16,20.16,0,0,0-6.23,4.15,19.07,19.07,0,0,0-4.2,6.23A19.57,19.57,0,0,0,97.81,536.24Z"/><path class="cls-1" d="M178.45,572.23v-72h15.69l32.11,40.23V500.26h18.36v72H229l-32.11-40.14v40.14Z"/><path class="cls-1" d="M267.5,536.24a35,35,0,0,1,3-14.53,38.33,38.33,0,0,1,8.26-11.86,39.41,39.41,0,0,1,12.18-8,38.42,38.42,0,0,1,29.53,0,39.41,39.41,0,0,1,12.18,8,37.52,37.52,0,0,1,8.21,11.86,36.69,36.69,0,0,1,0,29.06,37.41,37.41,0,0,1-8.21,11.86,39.23,39.23,0,0,1-12.18,8,38.42,38.42,0,0,1-29.53,0,39.23,39.23,0,0,1-12.18-8,38.21,38.21,0,0,1-8.26-11.86A35,35,0,0,1,267.5,536.24Zm18.64,0a19.54,19.54,0,0,0,1.52,7.66,19.07,19.07,0,0,0,4.2,6.23,20,20,0,0,0,6.23,4.15,19,19,0,0,0,7.61,1.52,19.29,19.29,0,0,0,7.71-1.52,19.64,19.64,0,0,0,6.18-4.15,19.79,19.79,0,0,0,0-27.78,19.81,19.81,0,0,0-6.18-4.15,19.46,19.46,0,0,0-7.71-1.52,19.15,19.15,0,0,0-7.61,1.52,20.16,20.16,0,0,0-6.23,4.15,19.07,19.07,0,0,0-4.2,6.23A19.57,19.57,0,0,0,286.14,536.24Z"/><path class="cls-1" d="M401.94,500.26a31.69,31.69,0,0,1,12,2.07,22.58,22.58,0,0,1,13.33,14.07,32.35,32.35,0,0,1,.74,17.53,26.05,26.05,0,0,1-2.63,6.69,24.08,24.08,0,0,1-4.43,5.63,23,23,0,0,1-6.27,4.2l15.59,21.78h-22l-13.66-19.29h-9.41v19.29H366.78v-72Zm-16.79,16.79v19.19h15.78a12.6,12.6,0,0,0,4.7-.78,8.75,8.75,0,0,0,3.14-2.08,7.88,7.88,0,0,0,1.75-3,11.87,11.87,0,0,0,.56-3.6,10.42,10.42,0,0,0-2.31-6.92q-2.31-2.77-7.84-2.77Z"/><path class="cls-1" d="M494.58,500.26l29.07,72H503.53l-4-10.52H471.24l-4,10.52H447.15l29.16-72Zm-9.13,23.62L477.51,545h15.78Z"/><path class="cls-1" d="M2.82,360.54h7.8v95.39H70.2v7.66H2.82Z"/><path class="cls-1" d="M102.49,360.54h7.79v95.39h59.58v7.66H102.49Z"/><path class="cls-1" d="M251.85,360.54l47.29,103h-8.59L280,440.34H215.25l-10.43,23.25H196.1l47.29-103Zm-33.16,72.4h57.86L247.62,369Z"/><path class="cls-1" d="M352.7,463.59l-47.43-103H314l42.81,94.73,42.93-94.73h8.59l-47.3,103Z"/><path class="cls-1" d="M439.35,360.54h70.81v7.67h-63v41.08h53.64v7.4H447.14v39.24h63v7.66H439.35Z"/><path class="cls-2" d="M331.1,95H250.78v24H226.09V95H212.93v32.78H188.24V95H172.39a23.52,23.52,0,0,1,23.52-23.52H331.1a54.63,54.63,0,0,1,53.35-42.89V0H196.11a95.2,95.2,0,0,0-52.24,16,91.16,91.16,0,0,0-7.46,5.64c-2.15,1.79-4.23,3.67-6.21,5.64-1.8,1.8-3.49,3.71-5.13,5.65s-3,3.71-4.38,5.64-2.59,3.71-3.79,5.64-2.27,3.71-3.29,5.65-1.87,3.73-2.72,5.64-1.53,3.74-2.23,5.64-1.36,3.73-1.93,5.65-1,3.74-1.45,5.64-.76,3.74-1.07,5.64-.67,3.74-.86,5.65-.21,3.75-.28,5.64c-.06,1.29-.2,2.56-.2,3.87V151h0a54.86,54.86,0,0,1,53.57,43.11h87.22V170h24.69v24.08h13.16V161.23H306.2v32.89h15.43a23.53,23.53,0,0,1-23.53,23.52H156.44a54.86,54.86,0,0,1-53.57,43.11h0v31.59H291.2a96.75,96.75,0,0,0,44.13-11.1,94.53,94.53,0,0,0,9.1-5.65q3.78-2.64,7.29-5.64c2.1-1.8,4.13-3.67,6.07-5.64,1.78-1.82,3.5-3.69,5.13-5.65s2.89-3.71,4.26-5.64,2.51-3.72,3.68-5.64,2.21-3.72,3.2-5.64,1.89-3.73,2.72-5.65,1.47-3.74,2.15-5.64,1.29-3.73,1.84-5.64,1-3.74,1.45-5.65.7-3.75,1-5.64.6-3.74.78-5.64.22-3.76.29-5.65c0-1,.16-2.08.16-3.14V137.84A54.63,54.63,0,0,1,331.1,95Z"/><circle class="cls-1" cx="102.87" cy="205.88" r="26.65"/><circle class="cls-1" cx="384.45" cy="83.19" r="26.55"/></svg>