<?xml version="1.0" encoding="UTF-8"?><svg id="Capa_1" xmlns="http://www.w3.org/2000/svg" viewBox="0 0 375.39 200"><defs><style>.cls-1{fill:#fff;}</style></defs><g id="Eun3tE"><g><path class="cls-1" d="M186.78,119.73c-16.57,0-33.14-.11-49.71,.06-5.2,.05-10.18-3.97-10.16-10.18,.06-33.14,.03-66.29,.03-99.43,0-5.97,4.06-10.11,10-10.11,33.25-.01,66.5-.01,99.76,0,5.94,0,10.09,4.11,10.1,10.06,.02,33.2,.02,66.39,0,99.59,0,6.67-5.36,10.11-10.13,10.07-16.62-.15-33.25-.06-49.88-.06Zm-7.2-79.96v2.3c0,18.58,0,37.17,0,55.75,0,2.21,0,2.22,2.25,2.23,6.16,0,12.32-.03,18.48,.02,1.25,0,1.71-.36,1.7-1.66-.03-26.11-.03-52.21,0-78.32,0-1.29-.43-1.69-1.69-1.68-4.14,.06-8.28-.03-12.43,.04-1.45,.03-2.94,.2-4.34,.58-4.93,1.32-9.83,2.76-14.74,4.16-2.33,.67-4.66,1.34-7.11,2.05,1.48,5.96,2.91,11.72,4.36,17.57,4.59-1.03,8.92-2.01,13.52-3.04Z"/><path class="cls-1" d="M313.6,119.73c-16.52,0-33.03-.12-49.55,.07-5.81,.07-10.29-4.65-10.27-10.26,.1-33.09,.05-66.17,.05-99.26,0-6.2,4-10.22,10.21-10.22,33.09,0,66.17,.06,99.26-.06,5.59-.02,10.34,4.25,10.32,10.36-.12,33.09-.11,66.17,0,99.26,.02,6.15-4.9,10.23-10.14,10.18-16.62-.17-33.25-.06-49.87-.06Zm-22.24-94.48c1.45,5.89,2.86,11.61,4.33,17.55,4.58-1.02,9.01-2.01,13.64-3.05v60.19c.71,.05,1.25,.11,1.78,.11,6.21,0,12.43-.03,18.64,.03,1.49,.02,1.93-.45,1.93-1.95-.04-25.94-.05-51.88,0-77.82,0-1.58-.56-1.92-1.98-1.9-4.36,.06-8.72,0-13.08,.04-.86,0-1.74,.13-2.57,.36-5.66,1.56-11.3,3.16-16.95,4.76-1.87,.53-3.72,1.09-5.74,1.69Z"/><path class="cls-1" d="M59.95,119.73c-16.57,0-33.14-.11-49.71,.07C5.06,119.85,0,115.96,0,109.49,.04,76.4,.01,43.32,.02,10.23,.02,4.2,4.14,.07,10.17,.06c33.2-.01,66.4-.01,99.59,0,6.05,0,10.12,4.12,10.12,10.18,0,33.14,0,66.29,0,99.43,0,5.95-4.09,10.05-10.05,10.05-16.63,0-33.25,0-49.88,0Zm-31.3-24.87c.36,.33,.55,.52,.76,.68,10.58,8.05,22.53,10.6,35.47,8.34,12.74-2.23,21.21-9.91,25.76-21.83,4.81-12.59,5.12-25.54,1.78-38.5-2.54-9.84-8.74-16.9-18.19-20.65-8.69-3.44-17.73-3.41-26.56-.57-17.87,5.74-23.36,23.09-18.53,37.39,5.73,16.94,28.45,19.86,39.61,12.06,.87-.61,1.73-1.22,2.59-1.83,.18,.09,.35,.18,.53,.27-.94,2.75-1.65,5.61-2.88,8.22-2,4.25-5.59,6.66-10.24,7.16-4.52,.48-8.93-.23-13-2.32-2.21-1.13-4.29-2.53-6.57-3.89-3.48,5.11-6.96,10.23-10.52,15.47Z"/><path class="cls-1" d="M62.28,148.15c-20,0-40,0-60,0q-2.11,0-2.12-2.15c0-2.18,.08-4.36-.03-6.54-.07-1.48,.51-1.99,1.9-1.81,.27,.03,.54,0,.82,0,39.73,0,79.46,0,119.19,0q2.6,0,2.61,2.55c0,2.02-.08,4.04,.03,6.05,.07,1.45-.34,1.94-1.9,1.94-19.51-.06-39.02-.04-58.53-.04-.65,0-1.31,0-1.96,0Z"/><path class="cls-1" d="M311.59,148.14c-20.06,0-40.12-.02-60.18,.04-1.59,0-2.09-.43-2-2.01,.13-2.17,.12-4.36,0-6.54-.09-1.63,.55-2.05,2.08-2,2.89,.1,5.78,.03,8.67,.03,36.96,0,73.92,0,110.88,0,.49,0,.98,.03,1.47,0,1.08-.08,1.42,.45,1.41,1.47-.04,2.4-.08,4.8,.02,7.19,.06,1.4-.35,1.86-1.82,1.85-9.21-.07-18.43-.03-27.64-.03-10.96,0-21.91,0-32.87,0Z"/><path class="cls-1" d="M60.37,179.72c-2.85,4.34-5.7,8.67-8.67,13.19-2.96-4.51-5.78-8.79-8.6-13.08-.13,.04-.26,.07-.38,.11v19.1h-9.2v-34.35c3.19,0,6.33-.05,9.47,.05,.41,.01,.89,.71,1.19,1.19,2.23,3.55,4.42,7.12,6.63,10.69,.28,.45,.59,.88,1.02,1.52,.76-1.17,1.41-2.16,2.03-3.16,1.86-3.01,3.76-6,5.54-9.05,.58-1,1.26-1.3,2.36-1.27,2.71,.07,5.43,.02,8.27,.02v34.35h-9.12v-19.16c-.18-.05-.36-.09-.53-.14Z"/><path class="cls-1" d="M249.61,199.15c-2.62,0-5.12,.09-7.61-.06-.59-.04-1.23-.78-1.68-1.34-4.21-5.35-8.39-10.73-12.58-16.09-.26-.34-.56-.66-1.12-1.31v18.82c-2.14,0-4.07,0-6,0q-3.42,0-3.42-3.44c0-9.64,0-19.29,0-28.93,0-.64,0-1.27,0-2.11,2.86,0,5.52-.07,8.17,.06,.54,.03,1.15,.73,1.55,1.25,3.87,4.92,7.7,9.88,11.55,14.82,.49,.63,1.02,1.24,1.88,2.26v-18.26h9.24v34.35Z"/><path class="cls-1" d="M119.22,199.16c-2.97,0-5.69,.03-8.4-.04-.31,0-.65-.52-.87-.86-.12-.2-.03-.53-.03-.8,0-10.35,.02-20.71-.03-31.06,0-1.34,.36-1.77,1.73-1.75,5.18,.08,10.36-.16,15.53,.12,2.6,.14,5.38,.67,7.67,1.83,7.23,3.65,7.74,14.46,1.08,19.14-.75,.53-1.55,.98-2.52,1.59,2.64,3.89,5.25,7.73,8.04,11.84-3.62,0-6.92,.04-10.21-.05-.44-.01-.98-.59-1.29-1.04-1.85-2.69-3.64-5.42-5.46-8.14-.72-1.07-3.79-1.86-4.79-1.12-.32,.24-.41,.94-.42,1.44-.04,2.88-.02,5.76-.02,8.91Zm0-17.82c2.77,0,5.27,.12,7.76-.03,2.41-.14,3.99-1.87,4.08-4.1,.09-2.25-1.33-3.95-3.86-4.22-2.26-.23-4.56-.21-6.84-.17-.39,0-1.07,.63-1.09,.99-.1,2.43-.05,4.88-.05,7.54Z"/><path class="cls-1" d="M162.67,185.86v-6.61c.41-.06,.77-.16,1.14-.16,4.31-.01,8.61,.03,12.92-.03,1.17-.02,1.5,.4,1.49,1.51-.04,4.36,0,8.72-.04,13.08,0,.53-.24,1.24-.63,1.55-7.27,5.75-19.09,6.54-26.36,.91-5.66-4.37-7.5-10.37-6.47-17.14,1.06-6.92,5.21-11.74,11.87-13.89,6.98-2.25,13.65-1.3,19.62,3.22,.25,.19,.46,.43,.76,.7-1.81,2.18-3.58,4.31-5.15,6.2-2.22-.93-4.19-2-6.3-2.57-3.71-1.01-6.96,.11-9.31,3.14-2.59,3.34-2.87,7.1-1.09,10.91,1.64,3.5,4.54,5.23,8.38,5.11,1.65-.05,3.31-.44,4.91-.89,.99-.28,1.55-4.02,.75-4.64-.3-.23-.82-.21-1.24-.22-1.58-.03-3.16-.02-4.74-.03-.1,0-.21-.06-.52-.16Z"/><path class="cls-1" d="M76.66,198.94v-34.13h27.7v7.75c-.61,.03-1.19,.08-1.77,.08-5.01,0-10.03,.04-15.04-.02-1.29-.02-1.7,.38-1.7,1.67,0,3.81-.06,3.81,3.76,3.81,3.7,0,7.41,0,11.11,0,.53,0,1.06,0,1.82,0,0,2.28,.06,4.38-.06,6.48-.02,.31-.89,.8-1.37,.81-4.41,.06-8.83,.1-13.24,0-1.58-.03-2.09,.47-2.03,2.04,.17,4.49-.71,3.92,4.03,3.95,4.3,.03,8.61,.06,12.91-.02,1.47-.03,1.92,.49,1.83,1.89-.1,1.57,.05,3.17-.08,4.73-.04,.42-.71,1.12-1.09,1.12-8.77,.05-17.54,.03-26.31,0-.1,0-.2-.07-.48-.18Z"/><path class="cls-1" d="M209.86,178.18c0,2.01-.07,3.8,.02,5.59,.06,1.26-.31,1.71-1.64,1.69-4.36-.08-8.72,.03-13.08-.06-1.6-.04-2.07,.5-2.01,2.05,.17,4.44-.69,3.91,3.88,3.94,4.36,.03,8.72,.05,13.08-.02,1.37-.02,1.82,.44,1.74,1.78-.1,1.63,.04,3.27-.07,4.9-.03,.39-.62,1.06-.96,1.06-8.88,.06-17.76,.05-26.78,.05v-34.38c.46-.03,.98-.1,1.5-.1,8.12,0,16.24,.02,24.36-.03,1.27,0,1.77,.34,1.7,1.64-.09,1.63-.07,3.27,0,4.9,.05,1.16-.41,1.48-1.53,1.47-5.07-.05-10.14,.02-15.2-.05-1.28-.02-1.7,.38-1.7,1.67,0,3.81-.06,3.81,3.76,3.81,3.71,0,7.41,0,11.12,0,.53,0,1.06,.04,1.83,.08Z"/><path class="cls-1" d="M27.83,172.64c-5.39,0-10.62,0-15.84,0q-2.57,0-2.57,2.57c0,.91,0,1.81,0,2.86H26.16v7.25c-.54,.03-1.11,.1-1.69,.1-4.41,0-8.83,.04-13.24-.02-1.32-.02-1.86,.38-1.83,1.75,.11,4.99-.57,4.18,4.09,4.22,4.36,.04,8.72,.06,13.08-.02,1.38-.02,1.8,.44,1.73,1.78-.1,1.9-.03,3.8-.03,5.9-.66,.04-1.24,.12-1.81,.12-8.12,0-16.24-.03-24.36,.04-1.41,.01-1.88-.35-1.87-1.82,.06-10.3,.05-20.6,0-30.9,0-1.42,.39-1.85,1.84-1.84,8.07,.07,16.13,.03,24.2,.04,.48,0,.96,.05,1.56,.08v7.89Z"/><path class="cls-1" d="M344.45,199.15c-3.16,0-6.19,.04-9.22-.05-.37,0-.86-.58-1.06-1-.6-1.28-1.12-2.6-1.61-3.92-.33-.89-.85-1.26-1.82-1.25-3.65,.05-7.3,.04-10.95,0-.97-.01-1.56,.32-1.79,1.26-.01,.05-.04,.1-.07,.15-.66,1.54-.93,3.7-2.1,4.46-1.25,.81-3.35,.31-5.08,.35-1.41,.03-2.82,0-4.48,0,.26-.76,.43-1.36,.67-1.92,4.42-10.46,8.88-20.91,13.26-31.39,.47-1.13,1.04-1.58,2.27-1.52,2.12,.1,4.25-.03,6.37,.07,.5,.02,1.24,.48,1.43,.92,4.69,10.94,9.32,21.9,13.96,32.87,.1,.24,.12,.51,.22,.96Zm-18.92-23.17c-.15,.01-.3,.02-.45,.03-1.24,3.14-2.49,6.27-3.82,9.63h8.06c-1.33-3.4-2.56-6.53-3.79-9.67Z"/><path class="cls-1" d="M370.12,174.69c-3.3-1.01-6.28-1.92-9.26-2.82-.15-.05-.32-.06-.48-.07-2.03-.12-3.73,.8-3.97,2.14-.24,1.33,.64,2.35,2.85,3.01,2.23,.67,4.52,1.15,6.77,1.79,1.2,.34,2.38,.78,3.51,1.29,3.29,1.48,5.56,3.77,5.82,7.59,.29,4.4-1.24,7.9-5.12,10.18-6.57,3.86-19.73,1.93-24.8-3.74,1.64-1.96,3.3-3.94,4.79-5.71,2.69,1.15,5.09,2.49,7.66,3.19,1.91,.52,4.08,.4,6.08,.17,.72-.08,1.72-1.29,1.82-2.07,.08-.68-.78-1.89-1.5-2.17-2.21-.87-4.57-1.35-6.84-2.08-1.86-.59-3.72-1.2-5.5-2-6.89-3.09-5.95-12.55-1.61-16.12,2.71-2.22,5.88-3.1,9.23-3.2,4.45-.13,8.77,.67,12.67,3.02,.69,.42,1.33,.91,2.17,1.49-1.56,2.21-3.04,4.32-4.29,6.1Z"/><path class="cls-1" d="M287.75,171.18c-2.34,1.81-4.61,3.57-6.85,5.3-5.38-4.63-10.18-5.1-13.61-1.44-3.51,3.74-3.46,10.38,.12,14,3.66,3.71,8.25,3.17,13.74-1.71,2.25,1.6,4.54,3.23,6.82,4.84-3.56,6.18-12.12,9.25-19.89,7.2-7.75-2.05-12.9-8.76-12.99-16.97-.1-8.48,4.79-15.32,12.6-17.62,7.73-2.28,16.38,.41,20.07,6.4Z"/><path class="cls-1" d="M292.94,164.75h9.05c.04,.59,.11,1.12,.11,1.64,0,10.34-.02,20.68,.03,31.02,0,1.31-.3,1.85-1.71,1.78-2.12-.11-4.24-.05-6.37-.02-.85,.01-1.3-.2-1.3-1.17,.03-10.83,.02-21.66,.03-32.49,0-.21,.08-.41,.15-.76Z"/><path class="cls-1" d="M61.04,38.23c10.07,.29,12.8,9.66,9.79,15.77-1.95,3.96-7,6.22-11.83,5.37-5.1-.9-8.45-3.79-9.24-7.98-1.44-7.64,3.51-13.41,11.28-13.16Z"/></g></g></svg>