<svg id="Capa_1" data-name="Capa 1" xmlns="http://www.w3.org/2000/svg" viewBox="0 0 619.12 300"><defs><style>.cls-1{fill:#dc7f37;}.cls-2{fill:#b11219;}.cls-3{fill:#960e53;}.cls-4{fill:#bf7229;}.cls-5{fill:#b94645;}.cls-6{fill:#5c3f2e;}.cls-7{fill:#9f5029;}</style></defs><polygon class="cls-1" points="267.81 191.31 229.56 141.6 202.78 141.6 202.78 238.39 231.92 238.39 231.92 188.96 270.02 238.39 296.81 238.39 296.81 141.6 267.81 141.6 267.81 191.31"/><path class="cls-1" d="M383.52,146a61.08,61.08,0,0,0-54.68-.06,47.2,47.2,0,0,0-19,17.87,49.59,49.59,0,0,0-6.84,26,50.29,50.29,0,0,0,6.84,26.09,48,48,0,0,0,19,18.16,60.25,60.25,0,0,0,54.68,0,48.16,48.16,0,0,0,19-18.16,50.47,50.47,0,0,0,6.83-26.09A49.5,49.5,0,0,0,402.5,164,48,48,0,0,0,383.52,146Zm-9.67,56.19a21.17,21.17,0,0,1-7.18,8.63A17.45,17.45,0,0,1,356.59,214a18.17,18.17,0,0,1-10.29-3.18,22.65,22.65,0,0,1-7.59-8.62,26.11,26.11,0,0,1-2.83-12.22,25.68,25.68,0,0,1,2.83-12.15,22.25,22.25,0,0,1,7.59-8.49,18.49,18.49,0,0,1,10.29-3.11,17.84,17.84,0,0,1,10.08,3,20.81,20.81,0,0,1,7.18,8.49,28,28,0,0,1,2.63,12.22A28.37,28.37,0,0,1,373.85,202.21Z"/><path class="cls-1" d="M488.3,206.91a30.12,30.12,0,0,0,11.4-12.36,40.27,40.27,0,0,0,3.93-18.29q0-16.57-10.77-25.61t-30.51-9.05H415.54v96.79h32V213.26h12l11.59,25.13h34.48l.7-1.65Zm-17.88-21.06c-1.88,2.08-4.57,3.11-8.07,3.11H447.58V165.9h14.77q5.25,0,8.07,3t2.84,8.36Q473.26,182.75,470.42,185.85Z"/><path class="cls-1" d="M72.52,182.89a143.75,143.75,0,0,0-17.19-5.8,77.62,77.62,0,0,1-12.08-4c-2.54-1.19-3.8-2.9-3.8-5.1q0-4.29,5.94-4.29t15.74,3.45a107.45,107.45,0,0,1,17.53,8l11.6-24.43a73.56,73.56,0,0,0-19.53-8.42,82.79,82.79,0,0,0-22.58-3.18A57.13,57.13,0,0,0,26.33,143a32.24,32.24,0,0,0-14.5,11.12A28.64,28.64,0,0,0,6.73,171q0,9.94,5,15.88a30.45,30.45,0,0,0,11.8,8.77,130.86,130.86,0,0,0,17.06,5.45,70.37,70.37,0,0,1,12.35,3.94c2.63,1.24,3.94,3,3.94,5.17a4.5,4.5,0,0,1-2.07,4.08,10.58,10.58,0,0,1-5.66,1.31q-7.47,0-18.51-4.49a65.33,65.33,0,0,1-18.36-10.84L.38,224.45A74,74,0,0,0,23,236a83.87,83.87,0,0,0,25.89,4.22,58.52,58.52,0,0,0,20.57-3.46,32.16,32.16,0,0,0,14.7-10.56q5.46-7.11,5.46-17.6,0-10.22-5.11-16.5A30.86,30.86,0,0,0,72.52,182.89Z"/><path class="cls-1" d="M170.75,146a57.06,57.06,0,0,0-27.34-6.49A57.45,57.45,0,0,0,116.08,146a47.36,47.36,0,0,0-19,17.87,49.77,49.77,0,0,0-6.83,26,50.47,50.47,0,0,0,6.83,26.09,48.12,48.12,0,0,0,19,18.16,56.6,56.6,0,0,0,27.33,6.56A56.64,56.64,0,0,0,170.75,234a48.12,48.12,0,0,0,19-18.16,50.47,50.47,0,0,0,6.83-26.09A49.5,49.5,0,0,0,189.74,164,48,48,0,0,0,170.75,146Zm-9.66,56.19a21,21,0,0,1-7.18,8.63A17.45,17.45,0,0,1,143.83,214a18.2,18.2,0,0,1-10.29-3.18,22.57,22.57,0,0,1-7.59-8.62,26.11,26.11,0,0,1-2.83-12.22A25.68,25.68,0,0,1,126,177.78a22.17,22.17,0,0,1,7.59-8.49,18.51,18.51,0,0,1,10.29-3.11,17.84,17.84,0,0,1,10.08,3,20.66,20.66,0,0,1,7.18,8.49,27.83,27.83,0,0,1,2.62,12.22A28.22,28.22,0,0,1,161.09,202.21Z"/><path class="cls-1" d="M546.53,141.6l-40.17,95.14,1,1.65h31.17l5-13.67h36.32l4.83,13.67h34.1L579.4,141.6Zm5.26,60.2L562,173.49l9.94,28.31Z"/><rect class="cls-2" x="279.4" y="13.16" width="7.11" height="7.26"/><polygon class="cls-3" points="86.49 14.21 93.75 14.21 93.75 7.11 101.02 7.11 101.02 0 93.75 0 93.75 7.11 86.48 7.11 86.48 14.21 79.22 14.21 79.22 21.32 86.49 21.32 86.49 14.21"/><polygon class="cls-3" points="64.69 35.54 71.95 35.54 71.95 28.44 79.22 28.44 79.22 21.32 71.95 21.32 71.95 28.43 64.68 28.43 64.68 35.54 57.41 35.54 57.41 42.64 64.69 42.64 64.69 35.54"/><rect class="cls-3" x="101.04" y="78.19" width="7.27" height="7.11"/><rect class="cls-3" x="108.3" y="71.08" width="7.27" height="7.11"/><polygon class="cls-3" points="137.37 49.75 130.11 49.75 130.11 56.85 122.84 56.85 122.84 63.97 130.11 63.97 130.11 56.87 137.37 56.87 137.37 49.76 144.64 49.76 144.64 42.65 137.37 42.65 137.37 49.75"/><rect class="cls-3" x="93.77" y="85.3" width="7.27" height="7.11"/><rect class="cls-3" x="79.22" y="56.85" width="7.27" height="7.11"/><polygon class="cls-3" points="71.95 71.08 64.68 71.08 64.68 78.18 71.95 78.18 71.95 71.08 79.22 71.08 79.22 63.97 71.95 63.97 71.95 71.08"/><rect class="cls-3" x="57.41" y="78.18" width="7.28" height="7.11"/><polygon class="cls-3" points="101.02 49.76 101.02 42.64 93.75 42.64 93.75 49.75 86.48 49.75 86.48 56.85 93.75 56.85 93.75 49.76 101.02 49.76"/><polygon class="cls-3" points="108.3 120.83 101.04 120.83 101.04 127.94 108.31 127.94 108.31 120.83 115.57 120.83 115.57 113.73 108.3 113.73 108.3 120.83"/><polygon class="cls-3" points="137.37 92.4 130.11 92.4 130.11 99.51 122.84 99.51 122.84 106.61 115.57 106.61 115.57 113.72 122.84 113.72 122.84 106.61 130.11 106.61 130.11 99.51 137.37 99.51 137.37 92.4 144.64 92.4 144.64 85.3 137.37 85.3 137.37 92.4"/><rect class="cls-3" x="93.77" y="127.93" width="7.27" height="7.12"/><polygon class="cls-3" points="510.82 14.21 518.08 14.21 518.08 7.11 525.35 7.11 525.35 0 518.07 0 518.07 7.11 510.81 7.11 510.81 14.21 503.55 14.21 503.55 21.32 510.82 21.32 510.82 14.21"/><polygon class="cls-3" points="489.01 35.54 496.28 35.54 496.28 28.44 503.55 28.44 503.55 21.32 496.28 21.32 496.28 28.43 489.01 28.43 489.01 35.54 481.74 35.54 481.74 42.64 489.01 42.64 489.01 35.54"/><rect class="cls-3" x="525.36" y="78.19" width="7.27" height="7.11"/><rect class="cls-3" x="532.63" y="71.08" width="7.27" height="7.11"/><polygon class="cls-3" points="561.7 42.65 561.7 49.75 554.43 49.75 554.43 56.85 547.16 56.85 547.16 63.97 554.43 63.97 554.43 56.87 561.7 56.87 561.7 49.76 568.97 49.76 568.97 42.65 561.7 42.65"/><rect class="cls-3" x="518.09" y="85.3" width="7.27" height="7.11"/><rect class="cls-3" x="503.55" y="56.85" width="7.27" height="7.11"/><polygon class="cls-3" points="496.28 71.08 489.01 71.08 489.01 78.18 496.28 78.18 496.28 71.08 503.55 71.08 503.55 63.97 496.28 63.97 496.28 71.08"/><rect class="cls-3" x="481.74" y="78.18" width="7.28" height="7.11"/><polygon class="cls-3" points="525.35 49.76 525.35 42.64 518.07 42.64 518.07 49.75 510.81 49.75 510.81 56.85 518.08 56.85 518.08 49.76 525.35 49.76"/><polygon class="cls-3" points="532.63 120.83 525.36 120.83 525.36 127.94 532.63 127.94 532.63 120.83 539.89 120.83 539.89 113.73 532.63 113.73 532.63 120.83"/><polygon class="cls-3" points="561.7 92.4 554.43 92.4 554.43 99.51 547.16 99.51 547.16 106.61 539.89 106.61 539.89 113.72 547.16 113.72 547.16 106.61 554.43 106.61 554.43 99.51 561.7 99.51 561.7 92.4 568.97 92.4 568.97 85.3 561.7 85.3 561.7 92.4"/><rect class="cls-3" x="518.09" y="127.93" width="7.27" height="7.12"/><rect class="cls-3" x="171.77" y="52.04" width="7.11" height="7.26"/><rect class="cls-3" x="178.88" y="44.77" width="7.11" height="7.26"/><rect class="cls-3" x="193.09" y="30.23" width="7.11" height="7.26"/><rect class="cls-3" x="185.99" y="37.5" width="7.11" height="7.27"/><polygon class="cls-3" points="207.31 22.96 200.19 22.96 200.19 30.23 207.31 30.23 207.31 22.97 214.42 22.97 214.42 15.7 207.31 15.7 207.31 22.96"/><polygon class="cls-3" points="446.36 51.91 439.25 51.91 439.25 59.18 446.35 59.18 446.35 66.44 453.46 66.44 453.46 59.16 446.36 59.16 446.36 51.91"/><polygon class="cls-3" points="432.14 37.37 425.03 37.37 425.03 30.11 417.93 30.11 417.93 22.83 410.82 22.83 410.82 15.57 403.71 15.57 403.71 22.84 410.82 22.84 410.82 30.11 417.91 30.11 417.91 37.38 425.02 37.38 425.02 44.64 432.13 44.64 432.13 51.91 439.25 51.91 439.25 44.64 432.14 44.64 432.14 37.37"/><rect class="cls-3" x="243.86" y="49.51" width="7.11" height="7.26"/><rect class="cls-3" x="265.19" y="27.7" width="7.11" height="7.26"/><polygon class="cls-3" points="258.08 42.23 250.97 42.23 250.97 49.5 258.08 49.5 258.08 42.23 265.19 42.23 265.19 34.97 258.08 34.97 258.08 42.23"/><rect class="cls-3" x="272.29" y="20.43" width="7.11" height="7.26"/><rect class="cls-3" x="314.96" y="64.04" width="7.11" height="7.27"/><rect class="cls-3" x="307.85" y="71.32" width="7.11" height="7.26"/><rect class="cls-3" x="293.63" y="85.85" width="7.11" height="7.27"/><polygon class="cls-3" points="286.52 100.39 286.51 100.39 286.51 100.38 279.4 100.38 279.4 107.65 279.42 107.65 286.51 107.65 286.53 107.65 286.53 100.39 293.64 100.39 293.64 93.12 286.52 93.12 286.52 100.39"/><rect class="cls-3" x="286.5" y="49.51" width="7.11" height="7.26"/><polygon class="cls-3" points="314.95 34.97 314.95 27.7 307.83 27.7 307.83 34.96 300.73 34.96 300.73 34.97 300.73 42.23 293.62 42.23 293.62 49.5 300.73 49.5 300.73 42.23 307.84 42.23 307.84 34.97 307.84 34.97 314.95 34.97"/><rect class="cls-3" x="314.94" y="20.43" width="7.11" height="7.26"/><rect class="cls-3" x="357.6" y="64.04" width="7.11" height="7.27"/><polygon class="cls-3" points="350.49 78.58 343.38 78.58 343.38 85.85 336.28 85.85 336.28 93.12 343.39 93.12 343.39 85.85 350.5 85.85 350.5 78.58 357.61 78.58 357.61 71.32 350.49 71.32 350.49 78.58"/><polygon class="cls-3" points="329.17 100.39 329.16 100.39 329.16 100.38 322.05 100.38 322.05 107.65 322.07 107.65 329.16 107.65 329.18 107.65 329.18 100.39 336.29 100.39 336.29 93.12 329.17 93.12 329.17 100.39"/><polygon class="cls-4" points="108.3 7.09 101.04 7.09 101.04 14.21 108.3 14.21 108.3 21.32 115.57 21.32 115.57 14.21 108.3 14.21 108.3 7.09"/><polygon class="cls-4" points="122.84 21.32 115.58 21.32 115.58 28.43 122.84 28.43 122.84 35.54 130.1 35.54 130.1 28.42 122.84 28.42 122.84 21.32"/><rect class="cls-4" x="130.12" y="35.53" width="7.26" height="7.11"/><rect class="cls-4" x="86.49" y="78.19" width="7.27" height="7.11"/><rect class="cls-4" x="79.22" y="71.08" width="7.26" height="7.11"/><polygon class="cls-4" points="57.41 56.87 64.68 56.87 64.68 63.97 71.95 63.97 71.95 56.86 64.68 56.86 64.68 49.75 57.41 49.75 57.41 42.66 50.15 42.66 50.15 49.77 57.41 49.77 57.41 56.87"/><rect class="cls-4" x="101.04" y="49.74" width="7.26" height="7.11"/><rect class="cls-4" x="108.3" y="56.85" width="7.27" height="7.11"/><polygon class="cls-4" points="122.84 63.96 115.58 63.96 115.58 71.07 122.84 71.07 122.84 78.18 130.1 78.18 130.1 71.06 122.84 71.06 122.84 63.96"/><rect class="cls-4" x="130.12" y="78.17" width="7.26" height="7.11"/><polygon class="cls-4" points="86.48 113.73 79.22 113.73 79.22 120.84 86.48 120.84 86.48 127.95 93.75 127.95 93.75 120.84 86.48 120.84 86.48 113.73"/><polygon class="cls-4" points="71.95 99.51 64.68 99.51 64.68 92.4 57.41 92.4 57.41 85.3 50.15 85.3 50.15 92.41 57.41 92.41 57.41 99.52 64.68 99.52 64.68 106.62 71.95 106.62 71.95 113.73 79.22 113.73 79.22 106.61 71.95 106.61 71.95 99.51"/><polygon class="cls-4" points="532.63 7.09 525.36 7.09 525.36 14.21 532.63 14.21 532.63 21.32 539.89 21.32 539.89 14.21 532.63 14.21 532.63 7.09"/><polygon class="cls-4" points="547.16 21.32 539.9 21.32 539.9 28.43 547.16 28.43 547.16 35.54 554.43 35.54 554.43 28.42 547.16 28.42 547.16 21.32"/><rect class="cls-4" x="554.44" y="35.53" width="7.26" height="7.11"/><rect class="cls-4" x="510.81" y="78.19" width="7.27" height="7.11"/><rect class="cls-4" x="503.55" y="71.08" width="7.26" height="7.11"/><polygon class="cls-4" points="481.74 56.87 489.01 56.87 489.01 63.97 496.28 63.97 496.28 56.86 489.01 56.86 489.01 49.75 481.74 49.75 481.74 42.66 474.48 42.66 474.48 49.77 481.74 49.77 481.74 56.87"/><rect class="cls-4" x="525.36" y="49.74" width="7.26" height="7.11"/><rect class="cls-4" x="532.63" y="56.85" width="7.27" height="7.11"/><polygon class="cls-4" points="547.16 63.96 539.9 63.96 539.9 71.07 547.16 71.07 547.16 78.18 554.43 78.18 554.43 71.06 547.16 71.06 547.16 63.96"/><rect class="cls-4" x="554.44" y="78.17" width="7.26" height="7.11"/><polygon class="cls-4" points="510.81 113.73 503.55 113.73 503.55 120.84 510.81 120.84 510.81 127.95 518.08 127.95 518.08 120.84 510.81 120.84 510.81 113.73"/><polygon class="cls-4" points="496.28 99.51 489.01 99.51 489.01 92.4 481.74 92.4 481.74 85.3 474.48 85.3 474.48 92.41 481.74 92.41 481.74 99.52 489.01 99.52 489.01 106.62 496.28 106.62 496.28 113.73 503.54 113.73 503.54 106.61 496.28 106.61 496.28 99.51"/><polygon class="cls-4" points="207.31 95.66 200.21 95.66 200.21 88.39 193.11 88.39 193.11 81.11 185.99 81.11 185.99 73.85 178.89 73.85 178.89 81.11 185.99 81.11 185.99 88.39 193.1 88.39 193.1 95.66 200.2 95.66 200.2 102.92 207.31 102.92 207.31 110.19 214.42 110.19 214.42 102.91 207.31 102.91 207.31 95.66"/><polygon class="cls-4" points="171.78 59.32 164.66 59.32 164.66 66.59 171.77 66.59 171.77 73.86 178.88 73.86 178.88 66.59 171.78 66.59 171.78 59.32"/><rect class="cls-4" x="439.25" y="66.45" width="7.11" height="7.26"/><rect class="cls-4" x="432.14" y="73.72" width="7.11" height="7.27"/><polygon class="cls-4" points="425.02 88.26 417.92 88.26 417.92 95.52 425.03 95.52 425.03 88.26 432.14 88.26 432.14 80.99 425.02 80.99 425.02 88.26"/><polygon class="cls-4" points="410.82 102.8 403.71 102.8 403.71 110.06 410.82 110.06 410.82 102.8 417.93 102.8 417.93 95.53 410.82 95.53 410.82 102.8"/><rect class="cls-4" x="250.97" y="71.32" width="7.11" height="7.26"/><polygon class="cls-4" points="272.3 85.85 265.21 85.85 265.21 78.58 258.09 78.58 258.09 85.85 265.19 85.85 265.19 93.12 272.3 93.12 272.3 100.39 279.41 100.39 279.41 93.12 272.3 93.12 272.3 85.85"/><polygon class="cls-4" points="243.88 56.77 236.76 56.77 236.76 64.05 243.86 64.05 243.86 71.32 250.97 71.32 250.97 64.05 243.88 64.05 243.88 56.77"/><polygon class="cls-4" points="322.06 49.51 314.95 49.51 314.95 56.77 322.06 56.77 322.06 64.03 329.17 64.03 329.17 56.76 322.06 56.76 322.06 49.51"/><rect class="cls-4" x="307.84" y="42.23" width="7.11" height="7.28"/><polygon class="cls-4" points="293.63 20.43 286.52 20.43 286.52 13.16 279.41 13.16 279.41 20.43 286.52 20.43 286.52 27.7 293.62 27.7 293.62 34.96 300.73 34.96 300.73 27.7 293.63 27.7 293.63 20.43"/><rect class="cls-4" x="293.62" y="71.32" width="7.11" height="7.26"/><polygon class="cls-4" points="307.85 78.58 300.74 78.58 300.74 85.85 307.84 85.85 307.84 93.12 314.95 93.12 314.95 85.85 307.85 85.85 307.85 78.58"/><rect class="cls-4" x="314.95" y="93.12" width="7.11" height="7.28"/><polygon class="cls-4" points="286.51 56.77 279.4 56.77 279.4 64.05 286.51 64.05 286.51 71.32 293.62 71.32 293.62 64.05 286.51 64.05 286.51 56.77"/><polygon class="cls-4" points="364.71 49.51 357.61 49.51 357.61 42.23 350.49 42.23 350.49 49.51 357.6 49.51 357.6 56.77 364.7 56.77 364.7 64.03 371.82 64.03 371.82 56.76 364.71 56.76 364.71 49.51"/><polygon class="cls-4" points="343.38 34.96 343.38 27.7 336.27 27.7 336.27 20.43 329.17 20.43 329.17 13.16 322.06 13.16 322.06 20.43 329.16 20.43 329.16 27.7 336.27 27.7 336.27 34.96 343.38 34.96"/><rect class="cls-4" x="343.36" y="34.96" width="7.12" height="7.27"/><path class="cls-1" d="M0,262.91H18.64v1.71H10.19V286H8.42V264.62H0Z"/><path class="cls-1" d="M30.56,262.91V286H28.79V262.91Z"/><path class="cls-1" d="M43.24,262.91H59.3v1.71H45v9.2H57.17v1.66H45v8.78H59.3V286H43.24Z"/><path class="cls-1" d="M80.81,262.91a8.92,8.92,0,0,1,3.37.59,7.23,7.23,0,0,1,2.5,1.61,7,7,0,0,1,1.56,2.37,7.53,7.53,0,0,1,.54,2.85,7.63,7.63,0,0,1-.36,2.34,7.42,7.42,0,0,1-1,2.07,6.85,6.85,0,0,1-1.67,1.64,8,8,0,0,1-2.27,1.08L89.59,286H87.43l-5.9-8.2a2.19,2.19,0,0,1-.36,0h-8.9V286H70.5V262.91Zm-8.54,1.65v11.6h8.48a7.07,7.07,0,0,0,2.7-.48,5.87,5.87,0,0,0,2-1.27,5.19,5.19,0,0,0,1.22-1.85,6.25,6.25,0,0,0,0-4.4,5.19,5.19,0,0,0-1.22-1.85,5.87,5.87,0,0,0-2-1.27,7.07,7.07,0,0,0-2.7-.48Z"/><path class="cls-1" d="M110.59,262.91a8.92,8.92,0,0,1,3.37.59,7.28,7.28,0,0,1,2.51,1.61,7.11,7.11,0,0,1,1.55,2.37,7.53,7.53,0,0,1,.54,2.85,7.63,7.63,0,0,1-.36,2.34,7.42,7.42,0,0,1-1,2.07,6.81,6.81,0,0,1-1.66,1.64,8,8,0,0,1-2.28,1.08l6.14,8.52h-2.16l-5.9-8.2a2.19,2.19,0,0,1-.36,0h-8.9V286h-1.77V262.91Zm-8.54,1.65v11.6h8.48a7.07,7.07,0,0,0,2.7-.48,5.91,5.91,0,0,0,2-1.27,5.17,5.17,0,0,0,1.21-1.85,6.25,6.25,0,0,0,0-4.4,5.17,5.17,0,0,0-1.21-1.85,5.91,5.91,0,0,0-2-1.27,7.07,7.07,0,0,0-2.7-.48Z"/><path class="cls-1" d="M139.78,262.91,150.5,286h-1.94l-2.4-5.21H131.48L129.11,286h-2l10.73-23.07Zm-7.52,16.2h13.12l-6.56-14.31Z"/><path class="cls-1" d="M175.19,262.91h9.14a11.49,11.49,0,0,1,4.7.9,9.72,9.72,0,0,1,3.41,2.45,10.77,10.77,0,0,1,2.06,3.66,14.09,14.09,0,0,1,.71,4.52,14.25,14.25,0,0,1-.71,4.54,10.72,10.72,0,0,1-2.06,3.67,9.57,9.57,0,0,1-3.41,2.44,11.66,11.66,0,0,1-4.7.89h-9.14Zm1.77,1.71v19.64h7.28a9.7,9.7,0,0,0,3.93-.75,8.49,8.49,0,0,0,2.87-2.07,9.12,9.12,0,0,0,1.79-3.11,12.71,12.71,0,0,0,0-7.78,9,9,0,0,0-1.79-3.1,8.23,8.23,0,0,0-2.87-2.07,9.54,9.54,0,0,0-3.93-.76Z"/><path class="cls-1" d="M206.38,262.91h16.06v1.71H208.15v9.2h12.17v1.66H208.15v8.78h14.29V286H206.38Z"/><path class="cls-1" d="M246.29,274.44a11.14,11.14,0,0,1,1-4.66A12.29,12.29,0,0,1,250,266a12.82,12.82,0,0,1,4-2.57,12.58,12.58,0,0,1,9.59,0,12.89,12.89,0,0,1,3.95,2.57,12.1,12.1,0,0,1,2.67,3.8,11.68,11.68,0,0,1,0,9.32,12,12,0,0,1-2.67,3.8,12.89,12.89,0,0,1-3.95,2.57,12.58,12.58,0,0,1-9.59,0,12.82,12.82,0,0,1-4-2.57,12.18,12.18,0,0,1-2.68-3.8A11.1,11.1,0,0,1,246.29,274.44Zm6.05,0a6.21,6.21,0,0,0,1.86,4.45,6.5,6.5,0,0,0,2,1.33,6.15,6.15,0,0,0,2.47.49,6.38,6.38,0,0,0,4.51-1.82,6.07,6.07,0,0,0,1.34-2,6.28,6.28,0,0,0,0-4.91,6,6,0,0,0-1.34-2,6.38,6.38,0,0,0-4.51-1.82,6.15,6.15,0,0,0-2.47.49,6.5,6.5,0,0,0-2,1.33,6.06,6.06,0,0,0-1.36,2A6.13,6.13,0,0,0,252.34,274.44Z"/><path class="cls-1" d="M280.48,262.91h10.31a10.48,10.48,0,0,1,4.06.72,8.2,8.2,0,0,1,2.86,1.95,7.91,7.91,0,0,1,1.69,2.83,10.09,10.09,0,0,1,.56,3.34,10.63,10.63,0,0,1-.56,3.46,7.82,7.82,0,0,1-1.69,2.85,8.22,8.22,0,0,1-2.86,2,10.48,10.48,0,0,1-4.06.72h-4.32V286h-6Zm6,5.38v7.07h4a3.14,3.14,0,0,0,2.66-1,4.1,4.1,0,0,0,.78-2.56,4.89,4.89,0,0,0-.18-1.32,2.87,2.87,0,0,0-1.67-1.89,4,4,0,0,0-1.59-.28Z"/><path class="cls-1" d="M308.05,274.44a11.29,11.29,0,0,1,1-4.66,12.32,12.32,0,0,1,2.69-3.8,12.66,12.66,0,0,1,3.95-2.57,12.58,12.58,0,0,1,9.59,0,12.66,12.66,0,0,1,3.95,2.57,12.1,12.1,0,0,1,2.67,3.8,11.68,11.68,0,0,1,0,9.32,12,12,0,0,1-2.67,3.8,12.66,12.66,0,0,1-3.95,2.57,12.58,12.58,0,0,1-9.59,0,12.66,12.66,0,0,1-3.95-2.57,12.21,12.21,0,0,1-2.69-3.8A11.25,11.25,0,0,1,308.05,274.44Zm6.05,0a6.1,6.1,0,0,0,1.86,4.45,6.45,6.45,0,0,0,2,1.33,6.19,6.19,0,0,0,2.47.49,6.27,6.27,0,0,0,5.86-3.81A6.29,6.29,0,0,0,325,270a6.38,6.38,0,0,0-4.51-1.82,6.19,6.19,0,0,0-2.47.49,6.45,6.45,0,0,0-2,1.33,6.15,6.15,0,0,0-1.86,4.45Z"/><path class="cls-1" d="M353.65,262.91a10.42,10.42,0,0,1,3.89.66,7.6,7.6,0,0,1,2.73,1.82,7.41,7.41,0,0,1,1.6,2.69,10,10,0,0,1,.53,3.26,9.84,9.84,0,0,1-.29,2.36,8.25,8.25,0,0,1-.85,2.15,7.66,7.66,0,0,1-3.48,3.15l5.07,7h-7.16l-4.44-6.19H348.2V286h-6V262.91Zm-5.45,5.38v6.15h5.12a4.09,4.09,0,0,0,1.53-.25,2.79,2.79,0,0,0,1-.67,2.49,2.49,0,0,0,.57-1,3.78,3.78,0,0,0,.18-1.15,3.31,3.31,0,0,0-.75-2.22,3.19,3.19,0,0,0-2.55-.89Z"/><path class="cls-1" d="M370.64,262.91h20.55v5.73h-7.28V286h-6V268.64h-7.28Z"/><path class="cls-1" d="M421.39,262.91v13a11.92,11.92,0,0,1-.7,4.14,9.41,9.41,0,0,1-2.07,3.34,9.66,9.66,0,0,1-3.37,2.24,12.23,12.23,0,0,1-4.61.81,12.38,12.38,0,0,1-4.65-.81,9.48,9.48,0,0,1-3.35-2.24,9.34,9.34,0,0,1-2-3.34,12.15,12.15,0,0,1-.69-4.14v-13h6v12.63a5.56,5.56,0,0,0,1.2,3.84,4.51,4.51,0,0,0,3.54,1.33,4.59,4.59,0,0,0,3.58-1.33,5.51,5.51,0,0,0,1.21-3.84V262.91Z"/><path class="cls-1" d="M431.55,286V262.91h5.1l10.42,12.89V262.91h6V286H448l-10.43-12.87V286Z"/><path class="cls-1" d="M469.51,262.91V286h-6V262.91Z"/><path class="cls-1" d="M480,262.91h10.85a11.86,11.86,0,0,1,4.81.91,9.94,9.94,0,0,1,3.46,2.5A10.8,10.8,0,0,1,501.2,270a13.75,13.75,0,0,1,.7,4.43,14,14,0,0,1-.7,4.47,10.48,10.48,0,0,1-2.08,3.66,9.79,9.79,0,0,1-3.46,2.49,11.86,11.86,0,0,1-4.81.92H480Zm6,5.73v11.63h4.41a6.19,6.19,0,0,0,2.37-.43,4.85,4.85,0,0,0,1.7-1.2,5,5,0,0,0,1-1.83,7.67,7.67,0,0,0,.34-2.37,6.22,6.22,0,0,0-1.38-4.2,5.09,5.09,0,0,0-4.07-1.6Z"/><path class="cls-1" d="M523.57,262.91,533,286h-6.54l-1.29-3.38H516L514.7,286h-6.53l9.46-23.07Zm-3,7.57L518,277.25h5.13Z"/><path class="cls-1" d="M541.69,262.91h10.85a11.86,11.86,0,0,1,4.81.91,9.85,9.85,0,0,1,3.46,2.5,10.8,10.8,0,0,1,2.08,3.69,13.75,13.75,0,0,1,.71,4.43,14,14,0,0,1-.71,4.47,10.48,10.48,0,0,1-2.08,3.66,9.7,9.7,0,0,1-3.46,2.49,11.86,11.86,0,0,1-4.81.92H541.69Zm6,5.73v11.63h4.4a6.19,6.19,0,0,0,2.37-.43,4.8,4.8,0,0,0,1.71-1.2,5,5,0,0,0,1-1.83,7.67,7.67,0,0,0,.34-2.37,6.26,6.26,0,0,0-1.37-4.2,5.12,5.12,0,0,0-4.08-1.6Z"/><path class="cls-1" d="M573.09,262.91H591v5.73H579.09V272h9.83v5.35h-9.83v3H591V286H573.09Z"/><path class="cls-1" d="M605.75,279.05v.15a1.31,1.31,0,0,0,.24.7,2.49,2.49,0,0,0,.72.68,4.74,4.74,0,0,0,1.23.52,7.07,7.07,0,0,0,1.77.2,4.18,4.18,0,0,0,2.32-.46,1.24,1.24,0,0,0,.65-1,1.52,1.52,0,0,0-.93-1.27,18.63,18.63,0,0,0-3.06-1.24c-.94-.3-1.91-.65-2.92-1.05a13.35,13.35,0,0,1-2.77-1.49,7.91,7.91,0,0,1-2.08-2.16,5.5,5.5,0,0,1-.83-3.05,6.41,6.41,0,0,1,2.56-5.22,8.88,8.88,0,0,1,2.89-1.43,12.66,12.66,0,0,1,3.69-.51A13.51,13.51,0,0,1,613,263a9.33,9.33,0,0,1,3,1.49,7.29,7.29,0,0,1,2,2.36,6.42,6.42,0,0,1,.74,3.09v.32H613V270a1.87,1.87,0,0,0-.23-.85,2.39,2.39,0,0,0-.67-.8,3.64,3.64,0,0,0-1.13-.58,5,5,0,0,0-1.57-.22,3.73,3.73,0,0,0-2.19.49,1.35,1.35,0,0,0-.66,1.08c0,.45.3.84.89,1.15a20.83,20.83,0,0,0,3,1.18q1.2.42,2.73,1A14.59,14.59,0,0,1,616,274a8.67,8.67,0,0,1,2.24,2.28,5.64,5.64,0,0,1,.92,3.24,6.1,6.1,0,0,1-.71,3,6.21,6.21,0,0,1-1.94,2.14,9.2,9.2,0,0,1-2.94,1.31,14.84,14.84,0,0,1-3.7.44,15.69,15.69,0,0,1-3.91-.47,10.3,10.3,0,0,1-3.15-1.38,6.73,6.73,0,0,1-2.09-2.23,6,6,0,0,1-.77-3v-.27Z"/><path class="cls-3" d="M4.48,295.63a2.75,2.75,0,0,1,0,3.64,2.41,2.41,0,0,1-1.8.73,2.36,2.36,0,0,1-1.79-.73,2.51,2.51,0,0,1-.7-1.83,2.48,2.48,0,0,1,.68-1.81,2.46,2.46,0,0,1,1.81-.7,2.51,2.51,0,0,1,1.8.7"/><path class="cls-3" d="M13.38,295.63a2.78,2.78,0,0,1,0,3.64,2.41,2.41,0,0,1-1.8.73,2.36,2.36,0,0,1-1.79-.73,2.51,2.51,0,0,1-.7-1.83,2.54,2.54,0,0,1,4.29-1.81"/><path class="cls-3" d="M22.28,295.63a2.78,2.78,0,0,1,0,3.64,2.42,2.42,0,0,1-1.81.73,2.34,2.34,0,0,1-1.78-.73,2.52,2.52,0,0,1-.71-1.83,2.38,2.38,0,0,1,2.49-2.51,2.51,2.51,0,0,1,1.81.7"/><path class="cls-3" d="M31.18,295.63a2.78,2.78,0,0,1,0,3.64,2.42,2.42,0,0,1-1.81.73,2.36,2.36,0,0,1-1.79-.73,2.55,2.55,0,0,1-.7-1.83,2.37,2.37,0,0,1,2.49-2.51,2.51,2.51,0,0,1,1.81.7"/><path class="cls-3" d="M40.07,295.63a2.75,2.75,0,0,1,0,3.64,2.41,2.41,0,0,1-1.8.73,2.36,2.36,0,0,1-1.79-.73,2.51,2.51,0,0,1-.7-1.83,2.48,2.48,0,0,1,.68-1.81,2.45,2.45,0,0,1,1.81-.7,2.51,2.51,0,0,1,1.8.7"/><path class="cls-3" d="M49,295.63a2.78,2.78,0,0,1,0,3.64,2.43,2.43,0,0,1-1.8.73,2.33,2.33,0,0,1-1.79-.73,2.51,2.51,0,0,1-.7-1.83,2.48,2.48,0,0,1,.68-1.81,2.45,2.45,0,0,1,1.81-.7,2.52,2.52,0,0,1,1.8.7"/><path class="cls-3" d="M57.85,295.63a2.78,2.78,0,0,1,0,3.64A2.43,2.43,0,0,1,56,300a2.32,2.32,0,0,1-1.78-.73A2.51,2.51,0,0,1,56,294.93a2.53,2.53,0,0,1,1.81.7"/><path class="cls-3" d="M66.74,295.63a2.78,2.78,0,0,1,0,3.64,2.4,2.4,0,0,1-1.8.73,2.36,2.36,0,0,1-1.79-.73,2.51,2.51,0,0,1-.7-1.83,2.54,2.54,0,0,1,4.29-1.81"/><path class="cls-3" d="M75.64,295.63a2.78,2.78,0,0,1,0,3.64,2.4,2.4,0,0,1-1.8.73,2.34,2.34,0,0,1-1.79-.73,2.51,2.51,0,0,1-.7-1.83,2.54,2.54,0,0,1,4.29-1.81"/><path class="cls-3" d="M84.54,295.63a2.78,2.78,0,0,1,0,3.64,2.43,2.43,0,0,1-1.8.73,2.33,2.33,0,0,1-1.79-.73,2.56,2.56,0,0,1,3.59-3.64"/><path class="cls-3" d="M93.43,295.63a2.75,2.75,0,0,1,0,3.64,2.4,2.4,0,0,1-1.8.73,2.32,2.32,0,0,1-1.78-.73,2.55,2.55,0,0,1,3.58-3.64"/><path class="cls-3" d="M102.33,295.63a2.78,2.78,0,0,1,0,3.64,2.4,2.4,0,0,1-1.8.73,2.36,2.36,0,0,1-1.79-.73,2.51,2.51,0,0,1-.7-1.83,2.54,2.54,0,0,1,4.29-1.81"/><path class="cls-3" d="M111.23,295.63a2.78,2.78,0,0,1,0,3.64,2.4,2.4,0,0,1-1.8.73,2.34,2.34,0,0,1-1.79-.73,2.52,2.52,0,0,1-.71-1.83,2.49,2.49,0,0,1,.69-1.81,2.46,2.46,0,0,1,1.81-.7,2.49,2.49,0,0,1,1.8.7"/><path class="cls-3" d="M120.13,295.63a2.78,2.78,0,0,1,0,3.64,2.43,2.43,0,0,1-1.8.73,2.33,2.33,0,0,1-1.79-.73,2.73,2.73,0,0,1,0-3.64,2.49,2.49,0,0,1,1.82-.7,2.52,2.52,0,0,1,1.8.7"/><path class="cls-3" d="M129,295.63a2.75,2.75,0,0,1,0,3.64,2.4,2.4,0,0,1-1.8.73,2.32,2.32,0,0,1-1.78-.73,2.55,2.55,0,0,1,3.58-3.64"/><path class="cls-3" d="M137.9,295.63a2.78,2.78,0,0,1,0,3.64,2.41,2.41,0,0,1-1.8.73,2.36,2.36,0,0,1-1.79-.73,2.51,2.51,0,0,1-.7-1.83,2.48,2.48,0,0,1,.68-1.81,2.45,2.45,0,0,1,1.81-.7,2.51,2.51,0,0,1,1.8.7"/><path class="cls-3" d="M146.8,295.63a2.78,2.78,0,0,1,0,3.64A2.42,2.42,0,0,1,145,300a2.34,2.34,0,0,1-1.78-.73,2.47,2.47,0,0,1-.7-1.83,2.37,2.37,0,0,1,2.48-2.51,2.51,2.51,0,0,1,1.81.7"/><path class="cls-3" d="M155.7,295.63a2.78,2.78,0,0,1,0,3.64,2.42,2.42,0,0,1-1.81.73,2.36,2.36,0,0,1-1.79-.73,2.51,2.51,0,0,1-.7-1.83,2.37,2.37,0,0,1,2.49-2.51,2.51,2.51,0,0,1,1.81.7"/><path class="cls-3" d="M164.6,295.63a2.78,2.78,0,0,1,0,3.64,2.43,2.43,0,0,1-1.81.73,2.36,2.36,0,0,1-1.79-.73,2.51,2.51,0,0,1-.7-1.83,2.48,2.48,0,0,1,.68-1.81,2.45,2.45,0,0,1,1.81-.7,2.53,2.53,0,0,1,1.81.7"/><path class="cls-3" d="M173.49,295.63a2.78,2.78,0,0,1,0,3.64,2.41,2.41,0,0,1-1.8.73,2.34,2.34,0,0,1-1.79-.73,2.51,2.51,0,0,1-.7-1.83,2.48,2.48,0,0,1,.68-1.81,2.45,2.45,0,0,1,1.81-.7,2.51,2.51,0,0,1,1.8.7"/><path class="cls-3" d="M182.39,295.63a2.78,2.78,0,0,1,0,3.64,2.42,2.42,0,0,1-1.81.73,2.34,2.34,0,0,1-1.78-.73,2.47,2.47,0,0,1-.7-1.83,2.37,2.37,0,0,1,2.48-2.51,2.51,2.51,0,0,1,1.81.7"/><path class="cls-3" d="M191.29,295.63a2.78,2.78,0,0,1,0,3.64,2.42,2.42,0,0,1-1.81.73,2.36,2.36,0,0,1-1.79-.73,2.51,2.51,0,0,1-.7-1.83,2.37,2.37,0,0,1,2.49-2.51,2.51,2.51,0,0,1,1.81.7"/><path class="cls-3" d="M200.19,295.63a2.81,2.81,0,0,1,0,3.64,2.43,2.43,0,0,1-1.81.73,2.36,2.36,0,0,1-1.79-.73,2.51,2.51,0,0,1-.7-1.83,2.37,2.37,0,0,1,2.49-2.51,2.53,2.53,0,0,1,1.81.7"/><path class="cls-3" d="M209.08,295.63a2.78,2.78,0,0,1,0,3.64,2.41,2.41,0,0,1-1.8.73,2.34,2.34,0,0,1-1.79-.73,2.51,2.51,0,0,1-.7-1.83,2.48,2.48,0,0,1,.68-1.81,2.45,2.45,0,0,1,1.81-.7,2.51,2.51,0,0,1,1.8.7"/><path class="cls-3" d="M218,295.63a2.75,2.75,0,0,1,0,3.64,2.41,2.41,0,0,1-1.8.73,2.32,2.32,0,0,1-1.78-.73,2.51,2.51,0,0,1,1.78-4.34,2.51,2.51,0,0,1,1.8.7"/><path class="cls-3" d="M226.85,295.63a2.78,2.78,0,0,1,0,3.64,2.41,2.41,0,0,1-1.8.73,2.36,2.36,0,0,1-1.79-.73,2.51,2.51,0,0,1-.7-1.83,2.54,2.54,0,0,1,4.29-1.81"/><path class="cls-3" d="M235.75,295.63a2.78,2.78,0,0,1,0,3.64,2.41,2.41,0,0,1-1.8.73,2.36,2.36,0,0,1-1.79-.73,2.52,2.52,0,0,1-.71-1.83,2.38,2.38,0,0,1,2.5-2.51,2.51,2.51,0,0,1,1.8.7"/><path class="cls-3" d="M244.65,295.63a2.78,2.78,0,0,1,0,3.64,2.41,2.41,0,0,1-1.8.73,2.37,2.37,0,0,1-1.8-.73,2.55,2.55,0,0,1-.7-1.83,2.55,2.55,0,0,1,4.3-1.81"/><path class="cls-3" d="M253.54,295.63a2.75,2.75,0,0,1,0,3.64,2.41,2.41,0,0,1-1.8.73,2.36,2.36,0,0,1-1.79-.73,2.51,2.51,0,0,1-.7-1.83,2.54,2.54,0,0,1,4.29-1.81"/><path class="cls-3" d="M262.44,295.63a2.78,2.78,0,0,1,0,3.64,2.41,2.41,0,0,1-1.8.73,2.36,2.36,0,0,1-1.79-.73,2.51,2.51,0,0,1-.7-1.83,2.54,2.54,0,0,1,4.29-1.81"/><path class="cls-3" d="M271.34,295.63a2.78,2.78,0,0,1,0,3.64,2.41,2.41,0,0,1-1.8.73,2.34,2.34,0,0,1-1.79-.73,2.52,2.52,0,0,1-.71-1.83,2.38,2.38,0,0,1,2.5-2.51,2.51,2.51,0,0,1,1.8.7"/><path class="cls-3" d="M280.24,295.63a2.78,2.78,0,0,1,0,3.64,2.41,2.41,0,0,1-1.8.73,2.37,2.37,0,0,1-1.8-.73,2.55,2.55,0,0,1-.7-1.83,2.55,2.55,0,0,1,4.3-1.81"/><path class="cls-3" d="M289.13,295.63a2.75,2.75,0,0,1,0,3.64,2.41,2.41,0,0,1-1.8.73,2.36,2.36,0,0,1-1.79-.73,2.51,2.51,0,0,1-.7-1.83,2.54,2.54,0,0,1,4.29-1.81"/><path class="cls-3" d="M298,295.63a2.78,2.78,0,0,1,0,3.64,2.41,2.41,0,0,1-1.8.73,2.36,2.36,0,0,1-1.79-.73,2.51,2.51,0,0,1-.7-1.83,2.54,2.54,0,0,1,4.29-1.81"/><path class="cls-3" d="M306.91,295.63a2.78,2.78,0,0,1,0,3.64,2.43,2.43,0,0,1-1.81.73,2.34,2.34,0,0,1-1.78-.73,2.47,2.47,0,0,1-.7-1.83,2.37,2.37,0,0,1,2.48-2.51,2.53,2.53,0,0,1,1.81.7"/><path class="cls-3" d="M315.81,295.63a2.81,2.81,0,0,1,0,3.64A2.43,2.43,0,0,1,314,300a2.36,2.36,0,0,1-1.79-.73,2.51,2.51,0,0,1-.7-1.83,2.37,2.37,0,0,1,2.49-2.51,2.53,2.53,0,0,1,1.81.7"/><path class="cls-3" d="M324.71,295.63a2.81,2.81,0,0,1,0,3.64,2.43,2.43,0,0,1-1.81.73,2.36,2.36,0,0,1-1.79-.73,2.51,2.51,0,0,1-.7-1.83,2.37,2.37,0,0,1,2.49-2.51,2.53,2.53,0,0,1,1.81.7"/><path class="cls-3" d="M333.6,295.63a2.78,2.78,0,0,1,0,3.64,2.41,2.41,0,0,1-1.8.73,2.33,2.33,0,0,1-1.79-.73,2.51,2.51,0,0,1-.7-1.83,2.48,2.48,0,0,1,.68-1.81,2.45,2.45,0,0,1,1.81-.7,2.51,2.51,0,0,1,1.8.7"/><path class="cls-3" d="M342.5,295.63a2.78,2.78,0,0,1,0,3.64,2.43,2.43,0,0,1-1.81.73,2.36,2.36,0,0,1-1.79-.73,2.51,2.51,0,0,1-.69-1.83,2.37,2.37,0,0,1,2.48-2.51,2.53,2.53,0,0,1,1.81.7"/><path class="cls-3" d="M351.4,295.63a2.81,2.81,0,0,1,0,3.64,2.43,2.43,0,0,1-1.81.73,2.31,2.31,0,0,1-1.78-.73,2.48,2.48,0,0,1-.71-1.83,2.38,2.38,0,0,1,2.49-2.51,2.53,2.53,0,0,1,1.81.7"/><path class="cls-3" d="M360.3,295.63a2.81,2.81,0,0,1,0,3.64,2.43,2.43,0,0,1-1.81.73,2.36,2.36,0,0,1-1.79-.73,2.51,2.51,0,0,1-.7-1.83,2.48,2.48,0,0,1,.68-1.81,2.45,2.45,0,0,1,1.81-.7,2.53,2.53,0,0,1,1.81.7"/><path class="cls-3" d="M369.19,295.63a2.78,2.78,0,0,1,0,3.64,2.43,2.43,0,0,1-1.8.73,2.33,2.33,0,0,1-1.79-.73,2.47,2.47,0,0,1-.7-1.83,2.37,2.37,0,0,1,2.49-2.51,2.52,2.52,0,0,1,1.8.7"/><path class="cls-3" d="M378.08,295.63a2.75,2.75,0,0,1,0,3.64,2.57,2.57,0,0,1-3.59,0,2.51,2.51,0,0,1,1.79-4.34,2.47,2.47,0,0,1,1.8.7"/><path class="cls-3" d="M387,295.63a2.81,2.81,0,0,1,0,3.64,2.43,2.43,0,0,1-1.81.73,2.32,2.32,0,0,1-1.78-.73,2.51,2.51,0,0,1,1.78-4.34,2.53,2.53,0,0,1,1.81.7"/><path class="cls-3" d="M395.86,295.63a2.78,2.78,0,0,1,0,3.64,2.41,2.41,0,0,1-1.8.73,2.33,2.33,0,0,1-1.79-.73,2.52,2.52,0,0,1-.71-1.83,2.49,2.49,0,0,1,.69-1.81,2.45,2.45,0,0,1,1.81-.7,2.51,2.51,0,0,1,1.8.7"/><path class="cls-3" d="M404.75,295.63a2.75,2.75,0,0,1,0,3.64,2.38,2.38,0,0,1-1.8.73,2.35,2.35,0,0,1-1.78-.73,2.52,2.52,0,0,1-.71-1.83,2.54,2.54,0,0,1,4.29-1.81"/><path class="cls-3" d="M413.66,295.63a2.81,2.81,0,0,1,0,3.64,2.45,2.45,0,0,1-1.81.73,2.36,2.36,0,0,1-1.79-.73,2.51,2.51,0,0,1-.7-1.83,2.48,2.48,0,0,1,.68-1.81,2.45,2.45,0,0,1,1.81-.7,2.55,2.55,0,0,1,1.81.7"/><path class="cls-3" d="M422.55,295.63a2.75,2.75,0,0,1,0,3.64,2.42,2.42,0,0,1-1.81.73,2.35,2.35,0,0,1-1.78-.73,2.51,2.51,0,0,1-.7-1.83,2.48,2.48,0,0,1,.68-1.81,2.44,2.44,0,0,1,1.8-.7,2.51,2.51,0,0,1,1.81.7"/><path class="cls-3" d="M431.45,295.63a2.78,2.78,0,0,1,0,3.64,2.41,2.41,0,0,1-1.8.73,2.36,2.36,0,0,1-1.79-.73,2.52,2.52,0,0,1-.71-1.83,2.38,2.38,0,0,1,2.5-2.51,2.51,2.51,0,0,1,1.8.7"/><path class="cls-3" d="M440.34,295.63a2.75,2.75,0,0,1,0,3.64,2.57,2.57,0,0,1-3.59,0,2.55,2.55,0,0,1-.69-1.83,2.53,2.53,0,0,1,4.28-1.81"/><path class="cls-3" d="M449.25,295.63a2.78,2.78,0,0,1,0,3.64,2.45,2.45,0,0,1-1.81.73,2.36,2.36,0,0,1-1.79-.73,2.51,2.51,0,0,1-.7-1.83,2.38,2.38,0,0,1,2.49-2.51,2.55,2.55,0,0,1,1.81.7"/><path class="cls-3" d="M458.14,295.63a2.75,2.75,0,0,1,0,3.64,2.4,2.4,0,0,1-1.81.73,2.34,2.34,0,0,1-1.78-.73,2.51,2.51,0,0,1-.7-1.83,2.48,2.48,0,0,1,.68-1.81,2.44,2.44,0,0,1,1.8-.7,2.5,2.5,0,0,1,1.81.7"/><path class="cls-3" d="M467,295.63a2.78,2.78,0,0,1,0,3.64,2.41,2.41,0,0,1-1.8.73,2.34,2.34,0,0,1-1.79-.73,2.48,2.48,0,0,1-.71-1.83,2.38,2.38,0,0,1,2.5-2.51,2.51,2.51,0,0,1,1.8.7"/><path class="cls-3" d="M475.91,295.63a2.78,2.78,0,0,1,0,3.64,2.4,2.4,0,0,1-1.8.73,2.34,2.34,0,0,1-1.79-.73,2.51,2.51,0,0,1-.7-1.83,2.54,2.54,0,0,1,4.29-1.81"/><path class="cls-3" d="M484.81,295.63a2.78,2.78,0,0,1,0,3.64,2.41,2.41,0,0,1-1.8.73,2.36,2.36,0,0,1-1.79-.73,2.52,2.52,0,0,1-.71-1.83,2.38,2.38,0,0,1,2.5-2.51,2.51,2.51,0,0,1,1.8.7"/><path class="cls-3" d="M493.71,295.63a2.78,2.78,0,0,1,0,3.64,2.43,2.43,0,0,1-1.8.73,2.33,2.33,0,0,1-1.79-.73,2.52,2.52,0,0,1-.71-1.83,2.37,2.37,0,0,1,2.5-2.51,2.52,2.52,0,0,1,1.8.7"/><path class="cls-3" d="M502.6,295.63a2.75,2.75,0,0,1,0,3.64,2.41,2.41,0,0,1-1.8.73,2.36,2.36,0,0,1-1.79-.73,2.51,2.51,0,0,1-.7-1.83,2.54,2.54,0,0,1,4.29-1.81"/><path class="cls-3" d="M511.5,295.63a2.78,2.78,0,0,1,0,3.64,2.41,2.41,0,0,1-1.8.73,2.32,2.32,0,0,1-1.78-.73,2.51,2.51,0,0,1,1.78-4.34,2.51,2.51,0,0,1,1.8.7"/><path class="cls-3" d="M520.4,295.63a2.78,2.78,0,0,1,0,3.64,2.41,2.41,0,0,1-1.8.73,2.36,2.36,0,0,1-1.79-.73,2.51,2.51,0,0,1-.7-1.83,2.35,2.35,0,0,1,2.49-2.51,2.51,2.51,0,0,1,1.8.7"/><path class="cls-3" d="M529.3,295.63a2.78,2.78,0,0,1,0,3.64,2.43,2.43,0,0,1-1.8.73,2.33,2.33,0,0,1-1.79-.73,2.52,2.52,0,0,1-.71-1.83,2.38,2.38,0,0,1,2.5-2.51,2.52,2.52,0,0,1,1.8.7"/><path class="cls-3" d="M538.19,295.63a2.75,2.75,0,0,1,0,3.64,2.57,2.57,0,0,1-3.59,0,2.51,2.51,0,0,1-.7-1.83,2.54,2.54,0,0,1,4.29-1.81"/><path class="cls-3" d="M547.1,295.63a2.81,2.81,0,0,1,0,3.64,2.45,2.45,0,0,1-1.81.73,2.36,2.36,0,0,1-1.79-.73,2.52,2.52,0,0,1-.71-1.83,2.38,2.38,0,0,1,2.5-2.51,2.55,2.55,0,0,1,1.81.7"/><path class="cls-3" d="M556,295.63a2.78,2.78,0,0,1,0,3.64,2.41,2.41,0,0,1-1.8.73,2.38,2.38,0,0,1-1.8-.73,2.55,2.55,0,0,1-.69-1.83,2.35,2.35,0,0,1,2.49-2.51,2.51,2.51,0,0,1,1.8.7"/><path class="cls-3" d="M564.87,295.63a2.81,2.81,0,0,1,0,3.64,2.42,2.42,0,0,1-1.81.73,2.34,2.34,0,0,1-1.78-.73,2.51,2.51,0,0,1,1.78-4.34,2.51,2.51,0,0,1,1.81.7"/><path class="cls-3" d="M573.77,295.63a2.81,2.81,0,0,1,0,3.64A2.43,2.43,0,0,1,572,300a2.36,2.36,0,0,1-1.79-.73,2.51,2.51,0,0,1-.7-1.83,2.48,2.48,0,0,1,.68-1.81,2.45,2.45,0,0,1,1.81-.7,2.53,2.53,0,0,1,1.81.7"/><path class="cls-3" d="M582.66,295.63a2.78,2.78,0,0,1,0,3.64,2.43,2.43,0,0,1-1.81.73,2.34,2.34,0,0,1-1.78-.73,2.51,2.51,0,0,1,1.78-4.34,2.53,2.53,0,0,1,1.81.7"/><path class="cls-3" d="M591.56,295.63a2.78,2.78,0,0,1,0,3.64,2.43,2.43,0,0,1-1.8.73,2.34,2.34,0,0,1-1.79-.73,2.52,2.52,0,0,1-.71-1.83,2.38,2.38,0,0,1,2.5-2.51,2.52,2.52,0,0,1,1.8.7"/><path class="cls-3" d="M600.46,295.63a2.81,2.81,0,0,1,0,3.64,2.43,2.43,0,0,1-1.81.73,2.36,2.36,0,0,1-1.79-.73,2.51,2.51,0,0,1-.69-1.83,2.35,2.35,0,0,1,2.48-2.51,2.53,2.53,0,0,1,1.81.7"/><path class="cls-3" d="M609.36,295.63a2.81,2.81,0,0,1,0,3.64,2.47,2.47,0,0,1-1.81.73,2.34,2.34,0,0,1-1.79-.73,2.51,2.51,0,0,1-.7-1.83,2.38,2.38,0,0,1,2.49-2.51,2.56,2.56,0,0,1,1.81.7"/><path class="cls-3" d="M618.25,295.63a2.78,2.78,0,0,1,0,3.64,2.4,2.4,0,0,1-1.8.73,2.36,2.36,0,0,1-1.79-.73,2.51,2.51,0,0,1-.7-1.83,2.48,2.48,0,0,1,.68-1.81,2.45,2.45,0,0,1,1.81-.7,2.49,2.49,0,0,1,1.8.7"/><path class="cls-5" d="M267.81,191.31l-30.66-39.86q-17.64-2.77-34.36-4.45v64.6q14.39,2,29.13,4.83V189l25.43,33q7.68,1.85,15.44,3.94,12.19,3.29,24,6.18V163.8q-14.73-3.78-29-6.75Z"/><path class="cls-5" d="M376.48,189.93a28.37,28.37,0,0,1-2.63,12.28,21.17,21.17,0,0,1-7.18,8.63A17.45,17.45,0,0,1,356.59,214a18.17,18.17,0,0,1-10.29-3.18,22.65,22.65,0,0,1-7.59-8.62,26.11,26.11,0,0,1-2.83-12.22,25.68,25.68,0,0,1,2.83-12.15c.26-.5.54-1,.83-1.45q-15.89-5.25-31.33-9.49a53.25,53.25,0,0,0,1.65,49,48,48,0,0,0,19,18.16,60.25,60.25,0,0,0,54.68,0,48.16,48.16,0,0,0,19-18.16,48.83,48.83,0,0,0,6.21-17.78q-15.75-3.65-32.25-9C376.46,189.4,376.48,189.66,376.48,189.93Z"/><path class="cls-5" d="M488.36,207a326.93,326.93,0,0,1-72.82-7.37v38.76h32V213.26h12l11.59,25.13h34.48l.7-1.65Z"/><path class="cls-5" d="M89.57,208.57q0-10.22-5.11-16.5a30.86,30.86,0,0,0-11.94-9.18,143.75,143.75,0,0,0-17.19-5.8,77.62,77.62,0,0,1-12.08-4c-2.54-1.19-3.8-2.9-3.8-5.1q0-4.29,5.94-4.29t15.74,3.45a107.45,107.45,0,0,1,17.53,8l11.6-24.43a63.27,63.27,0,0,0-7.58-4.08A489.81,489.81,0,0,0,9,159.33,30,30,0,0,0,6.73,171q0,9.94,5,15.88a30.45,30.45,0,0,0,11.8,8.77,130.86,130.86,0,0,0,17.06,5.45,70.37,70.37,0,0,1,12.35,3.94c2.63,1.24,3.94,3,3.94,5.17a4.5,4.5,0,0,1-2.07,4.08l-.41.2A349.06,349.06,0,0,1,89.56,209C89.56,208.86,89.57,208.72,89.57,208.57Z"/><path class="cls-5" d="M189.74,164a48,48,0,0,0-19-17.95c-1.08-.58-2.18-1.11-3.29-1.61-16.86-.74-32.78-.74-47.65-.23-1.26.55-2.51,1.13-3.73,1.78a47.36,47.36,0,0,0-19,17.87,49.77,49.77,0,0,0-6.83,26,52.19,52.19,0,0,0,3.35,18.81q17.1-1.62,35.43-1.84a24.25,24.25,0,0,1-3.09-4.61,26.11,26.11,0,0,1-2.83-12.22A25.68,25.68,0,0,1,126,177.78a22.25,22.25,0,0,1,7.59-8.49,18.51,18.51,0,0,1,10.29-3.11,17.84,17.84,0,0,1,10.08,3,20.66,20.66,0,0,1,7.18,8.49,27.83,27.83,0,0,1,2.62,12.22,28.22,28.22,0,0,1-2.62,12.28,23.12,23.12,0,0,1-3.29,5.13q17,.85,34.75,2.94a51.69,51.69,0,0,0,4-20.49A49.5,49.5,0,0,0,189.74,164Z"/><path class="cls-5" d="M571.94,201.8H551.79l1.1-3.07a281.14,281.14,0,0,1-33.06,6.11l-13.47,31.9,1,1.65h31.17l5-13.67h36.32l4.83,13.67h34.1L596.63,184a282.07,282.07,0,0,1-27.38,10.14Z"/><polygon class="cls-6" points="505.66 238.39 507.36 238.39 506.36 236.74 505.66 238.39"/><path class="cls-7" d="M49.37,215.59a10.61,10.61,0,0,0,5-1.09Q51.85,215,49.37,215.59Z"/><path class="cls-3" d="M54.37,214.5a10.61,10.61,0,0,1-5,1.09l-.25,0q-7.47,0-18.51-4.49a65.33,65.33,0,0,1-18.36-10.84L.38,224.45A67.38,67.38,0,0,0,7.14,229c.48.28,1,.54,1.47.81h0c.46.26.95.5,1.42.74s.85.46,1.28.67c.78.4,1.59.77,2.4,1.15L15,233c.88.38,1.77.74,2.67,1.1l1.23.49c1.32.5,2.66,1,4,1.42h0a83.87,83.87,0,0,0,25.89,4.22,58.52,58.52,0,0,0,20.57-3.46,32.16,32.16,0,0,0,14.7-10.56l0,0c.41-.54.8-1.1,1.17-1.67.12-.19.22-.38.34-.57.24-.4.48-.81.7-1.22.12-.23.23-.46.34-.7.2-.39.38-.78.56-1.19l.3-.75c.16-.41.31-.82.45-1.24.09-.26.17-.51.25-.77.13-.45.26-.9.37-1.36l.18-.73c.11-.52.21-1.06.3-1.59,0-.2.07-.39.1-.58.11-.78.21-1.57.27-2.38h0c.06-.79.1-1.58.11-2.4A349.06,349.06,0,0,0,54.37,214.5Z"/><path class="cls-3" d="M202.79,211.6v26.79h29.13V205.93c-9.7-.4-19.43-.64-29.13-.73Z"/><path class="cls-3" d="M257.35,222h0L270,238.39h26.79V211c-16.65-2-33.87-3.43-51.32-4.4Z"/><path class="cls-3" d="M308,212.39c.57,1.18,1.18,2.35,1.86,3.49a48,48,0,0,0,19,18.16,60.25,60.25,0,0,0,54.68,0,49.55,49.55,0,0,0,10.84-7.85c-16.19-1.91-33.36-4.57-51.62-8.13C331.61,215.89,320,214,308,212.39Z"/><path class="cls-3" d="M467.32,230l3.86,8.37h34.48l.7-1.65-5.33-8.8C490.58,229,479.36,229.77,467.32,230Z"/><path class="cls-3" d="M415.54,238.39h32V230q-15.24-.31-32-1.67Z"/><path class="cls-3" d="M159,205.82a20.75,20.75,0,0,1-2.2,2.62l-.39.38c-.27.26-.55.5-.83.75l-.39.32c-.41.33-.83.65-1.26,1h0c-.38.26-.77.5-1.16.73a17,17,0,0,1-3.64,1.6,17.24,17.24,0,0,1-2.58.59,18.46,18.46,0,0,1-2.7.19,18.2,18.2,0,0,1-10.29-3.18h0c-.39-.26-.77-.53-1.13-.81l-.45-.36-.62-.51-.52-.48-.49-.47-.51-.52c-.27-.28-.53-.56-.78-.86q-18.3.21-35.43,1.84c.28.74.58,1.46.9,2.18h0l.12.24c.31.71.64,1.41,1,2.1.07.14.14.28.22.42.4.79.82,1.57,1.27,2.34h0a47.47,47.47,0,0,0,8.17,10.34A49.64,49.64,0,0,0,116.08,234a52.82,52.82,0,0,0,6.26,2.87A54.53,54.53,0,0,0,129,239a61.74,61.74,0,0,0,14.42,1.64h0A56.64,56.64,0,0,0,170.75,234a50.81,50.81,0,0,0,8.37-5.63,47.53,47.53,0,0,0,10.62-12.53v0c.52-.88,1-1.77,1.45-2.67.15-.3.28-.61.43-.91.28-.59.56-1.17.82-1.77,0-.08.07-.15.1-.23h0a50.26,50.26,0,0,0,1.84-5.12C182.48,205.16,170.64,205.38,159,205.82Z"/><path class="cls-3" d="M602.29,197.92c-17.13,10.1-46.59,22.94-91.74,28.9l-4.19,9.92,1,1.65h31.17l5-13.67h36.32l4.83,13.67h34.1Z"/></svg>