<?xml version="1.0" encoding="UTF-8"?><svg id="Capa_2" xmlns="http://www.w3.org/2000/svg" viewBox="0 0 778.34 908.77"><defs><style>.cls-1{fill:#fff;}.cls-2{fill:#ff4f5b;}.cls-3{fill:#dc7f37;}.cls-4{fill:#e1e1e1;}.cls-5{fill:#410324;}.cls-6,.cls-7{fill:#375a64;}.cls-8,.cls-9{fill:#1a2e35;}.cls-10{fill:#960e53;}.cls-11{opacity:.3;}.cls-12{opacity:.6;}.cls-13{opacity:.8;}.cls-9,.cls-7{fill-rule:evenodd;}</style></defs><g id="Capa_1-2"><g><g><g><path class="cls-6" d="m233.5,21.14h17.59c7.7,0,13.95,6.25,13.95,13.95v37.5c0,7.7-6.25,13.95-13.95,13.95h-17.59V21.14h0Z" transform="translate(34.45 191.26) rotate(-44.79)"/><path class="cls-8" d="m261.12,88.23l-.04-.04-46.12-46.45.04-.04,1.94-1.92c5.44-5.41,12.66-8.38,20.33-8.38h.1c7.71.03,14.94,3.05,20.38,8.52l5.49,5.53c5.43,5.47,8.41,12.73,8.38,20.44-.03,7.71-3.05,14.95-8.52,20.38l-1.97,1.96Zm-46.01-46.48l46.01,46.34,1.9-1.89c5.45-5.41,8.47-12.62,8.49-20.3.03-7.68-2.94-14.91-8.35-20.36l-5.49-5.53c-5.41-5.45-12.62-8.47-20.3-8.49h-.1c-7.64,0-14.83,2.96-20.26,8.35l-1.9,1.89Z"/></g><g><path class="cls-6" d="m72.46,178.53h17.59c7.7,0,13.95,6.25,13.95,13.95v37.5c0,7.7-6.25,13.95-13.95,13.95h-17.59v-65.4h0Z" transform="translate(296.33 306.63) rotate(137.3)"/><path class="cls-8" d="m100.48,234.11c-.39,0-.79,0-1.18-.02-7.7-.31-14.82-3.6-20.05-9.26l-5.28-5.73c-5.23-5.66-7.94-13.03-7.63-20.73.31-7.7,3.6-14.82,9.26-20.05l2.05-1.89.04.04,44.39,48.1-.04.04-2.01,1.85c-5.37,4.96-12.27,7.65-19.54,7.65Zm-24.81-55.71c-5.64,5.21-8.92,12.3-9.23,19.98-.31,7.68,2.39,15.01,7.6,20.65l5.28,5.73c5.21,5.64,12.3,8.92,19.98,9.23.39.02.79.02,1.18.02,7.24,0,14.12-2.68,19.47-7.62l1.97-1.82-44.29-47.99-1.97,1.82Z"/></g><rect class="cls-6" x="62.81" y="112.85" width="5.17" height="42.72" transform="translate(-80.13 100.85) rotate(-51.11)"/><path class="cls-5" d="m52.55,110.32c4.53,3.65,5.24,10.28,1.59,14.81-3.65,4.53-10.28,5.24-14.81,1.59-4.53-3.65-5.24-10.28-1.59-14.81,3.65-4.53,10.28-5.24,14.81-1.59Z"/><rect class="cls-3" x="82.01" y="74.44" width="204.81" height="154.54" rx="16.5" ry="16.5" transform="translate(-53.34 173.99) rotate(-44.8)"/><polygon class="cls-6" points="181.15 46.06 176.59 28.64 164.72 30.6 161.29 18.03 165.17 17.13 167.89 26.29 179.73 24.68 184.69 42.54 181.15 46.06"/><path class="cls-5" d="m94.54,104.1h147.86c7.71,0,13.96,6.26,13.96,13.96v35.21c0,7.71-6.26,13.96-13.96,13.96H94.54c-7.71,0-13.96-6.26-13.96-13.96v-35.21c0-7.71,6.26-13.96,13.96-13.96Z" transform="translate(-46.66 158.1) rotate(-44.8)"/><path class="cls-5" d="m237.24,124.06s.25-.33.78-.94c.49-.64,1.4-1.43,2.27-2.73,1.92-2.44,4.43-6.43,6.06-12.13.78-2.85,1.31-6.11,1.37-9.71-.03-3.59-.54-7.5-1.85-11.48-1.3-3.98-3.41-8.01-6.44-11.67-.8-.88-1.61-1.77-2.43-2.67-.87-.87-1.75-1.76-2.65-2.65-1.79-1.8-3.61-3.62-5.71-5.21-4.18-3.19-9.28-5.6-14.91-6.74-5.63-1.02-11.78-.86-17.67,1.02-2.95.92-5.81,2.28-8.51,3.96-2.68,1.75-5.13,3.84-7.46,6.24-4.72,4.7-9.58,9.54-14.57,14.5-19.95,19.83-41.88,41.63-64.9,64.5-5.6,5.69-9.39,13.1-10.26,20.87-.48,3.86-.34,7.77.37,11.54.73,3.77,2.14,7.35,3.97,10.64.89,1.67,2.01,3.17,3.13,4.68,1.23,1.41,2.43,2.81,3.78,4.13,2.68,2.65,5.16,5.42,8.14,7.48,5.85,4.3,12.93,6.56,19.85,6.77,6.93.22,13.74-1.58,19.37-4.98,1.46-.77,2.72-1.82,4.04-2.75,1.23-1.06,2.44-2.1,3.59-3.24,2.3-2.27,4.56-4.51,6.78-6.71,8.89-8.79,17.17-16.99,24.74-24.47,15.13-14.92,27.37-27,35.87-35.38,4.23-4.14,7.52-7.36,9.79-9.58,1.11-1.07,1.96-1.89,2.57-2.47.58-.55.9-.82.9-.82,0,0-.27.32-.82.89-.59.6-1.42,1.45-2.49,2.55-2.24,2.25-5.48,5.52-9.65,9.72-8.44,8.44-20.61,20.6-35.63,35.62-7.54,7.51-15.79,15.74-24.64,24.56-2.22,2.21-4.47,4.45-6.76,6.73-1.15,1.14-2.4,2.23-3.66,3.31-1.35.96-2.65,2.04-4.14,2.83-5.77,3.5-12.76,5.36-19.88,5.15-7.11-.2-14.39-2.51-20.42-6.93-3.09-2.13-5.63-4.95-8.28-7.58-1.34-1.3-2.61-2.76-3.86-4.21-1.15-1.54-2.3-3.09-3.22-4.81-1.89-3.38-3.34-7.07-4.1-10.95-.74-3.88-.88-7.9-.39-11.88.9-8,4.8-15.64,10.57-21.49,23.04-22.86,44.99-44.63,64.96-64.44,4.99-4.95,9.87-9.77,14.6-14.46,2.32-2.38,4.89-4.57,7.63-6.34,2.78-1.72,5.71-3.11,8.74-4.04,6.05-1.91,12.34-2.05,18.1-.98,5.76,1.18,10.97,3.67,15.22,6.95,2.14,1.63,3.99,3.51,5.76,5.3.89.9,1.77,1.79,2.63,2.66.83.92,1.65,1.83,2.46,2.73,3.07,3.74,5.19,7.87,6.49,11.92,1.3,4.06,1.79,8.03,1.79,11.67-.08,3.65-.66,6.95-1.48,9.82-1.71,5.75-4.3,9.73-6.29,12.14-.91,1.29-1.84,2.06-2.36,2.67-.55.58-.86.86-.86.86Z"/><g><path class="cls-1" d="m130.07,189.06c-.3,0-.66-8.31-.8-18.58-.15-10.27-.02-18.59.28-18.59.3,0,.66,8.31.8,18.58.14,10.26.02,18.59-.28,18.59Z"/><path class="cls-1" d="m148.06,169.01c.01.3-8.3.91-18.56,1.38-10.27.46-18.6.6-18.62.3-.01-.3,8.3-.91,18.57-1.38,10.27-.46,18.6-.6,18.61-.3Z"/></g><g><path class="cls-1" d="m203.67,114.05c-.3,0-.66-8.31-.8-18.58-.14-10.27-.02-18.59.28-18.59.3,0,.66,8.31.8,18.58.14,10.26.02,18.59-.28,18.59Z"/><path class="cls-1" d="m221.65,94c.01.3-8.3.91-18.56,1.38-10.27.46-18.6.6-18.61.3-.01-.3,8.3-.91,18.57-1.38,10.27-.46,18.6-.6,18.61-.3Z"/></g><path class="cls-5" d="m168.28,3.11c4.1,4.13,4.07,10.79-.05,14.89-4.13,4.1-10.79,4.07-14.89-.05-4.1-4.13-4.07-10.79.05-14.89,4.13-4.1,10.79-4.07,14.89.05Z"/><path class="cls-8" d="m193.57,251.51c-.05.05-.7-.48-1.82-1.5-1.12-1.02-2.72-2.51-4.68-4.37-3.92-3.73-9.27-8.94-15.13-14.74-5.86-5.81-11.11-11.12-14.85-15.03-3.74-3.88-5.99-6.43-5.81-6.56.08.01.62.53,1.74,1.58,1.25,1.21,2.79,2.69,4.61,4.44,4.04,3.96,9.28,9.11,15.07,14.8,5.86,5.81,11.13,11.1,14.9,14.97,1.75,1.82,3.23,3.36,4.44,4.62,1.03,1.11,1.58,1.74,1.53,1.8Z"/><path class="cls-8" d="m283.02,161.42c-.05.05-.7-.48-1.82-1.5-1.12-1.02-2.72-2.51-4.68-4.37-3.92-3.73-9.27-8.94-15.13-14.74-5.86-5.81-11.11-11.12-14.85-15.03-3.74-3.88-5.99-6.43-5.81-6.56.08.01.62.53,1.74,1.58,1.25,1.21,2.79,2.69,4.61,4.44,4.04,3.96,9.28,9.11,15.07,14.8,5.86,5.81,11.13,11.1,14.9,14.97,1.75,1.82,3.23,3.36,4.44,4.62,1.03,1.11,1.58,1.74,1.52,1.8Z"/><rect class="cls-8" x="152.86" y="168.72" width="107.7" height="11.82" transform="translate(-62.74 199.48) rotate(-45.46)"/><path class="cls-8" d="m154.52,222.9c-.05,1.25-1.1,2.22-2.35,2.17-1.25-.05-2.22-1.1-2.17-2.35.05-1.25,1.1-2.22,2.35-2.17s2.22,1.1,2.17,2.35Z"/><path class="cls-8" d="m171.75,241.09c-.05,1.25-1.1,2.22-2.35,2.17-1.25-.05-2.22-1.1-2.17-2.35.05-1.25,1.1-2.22,2.35-2.17s2.22,1.1,2.17,2.35Z"/><path class="cls-8" d="m255.75,119.83c-.05,1.25-1.1,2.22-2.35,2.17-1.25-.05-2.22-1.1-2.17-2.35.05-1.25,1.1-2.22,2.35-2.17s2.22,1.1,2.17,2.35Z"/><path class="cls-8" d="m272.98,138.02c-.05,1.25-1.1,2.22-2.35,2.17-1.25-.05-2.22-1.1-2.17-2.35.05-1.25,1.1-2.22,2.35-2.17s2.22,1.1,2.17,2.35Z"/><path class="cls-1" d="m88.14,225.27c-.14.1-1.6-1.87-4.77-4.23-1.55-1.21-3.51-2.55-5.51-4.31-2.02-1.74-3.91-4.11-5.26-6.91-2.73-5.64-2.62-11.57-1.62-15.44.46-1.97,1.18-3.45,1.68-4.45.58-.97.92-1.48.99-1.44.2.1-1.18,2.2-1.93,6.05-.78,3.78-.75,9.44,1.85,14.81,2.49,5.48,7.29,8.5,10.28,11.09,3.1,2.56,4.41,4.76,4.29,4.82Z"/><path class="cls-1" d="m177.91,59.16c.21.21-21.5,21.64-48.48,47.85-26.99,26.22-49.03,47.3-49.24,47.09-.21-.21,21.5-21.64,48.49-47.86,26.98-26.21,49.02-47.29,49.23-47.08Z"/><path class="cls-1" d="m43.68,125.94c-.03.12-1.08,0-2.47-.92-1.37-.89-3.03-2.73-3.58-5.29-.54-2.56.23-4.92,1.12-6.29.9-1.41,1.81-1.94,1.88-1.85.12.12-.56.84-1.22,2.21-.66,1.35-1.2,3.47-.73,5.7.48,2.23,1.84,3.94,2.99,4.91,1.16.99,2.07,1.37,2.01,1.53Z"/><path class="cls-1" d="m158.36,18.2c-.03.12-1.16-.02-2.64-1.07-1.45-1-3.16-3.09-3.53-5.89-.35-2.81.78-5.26,1.92-6.6,1.16-1.38,2.23-1.8,2.28-1.7.1.14-.76.78-1.67,2.15-.9,1.34-1.78,3.56-1.47,6.01.32,2.44,1.73,4.37,2.94,5.44,1.22,1.1,2.22,1.49,2.16,1.66Z"/><path class="cls-1" d="m236.54,34.76c0,.33-4.02.12-8.48,1.93-4.49,1.74-7.27,4.65-7.5,4.41-.24-.13,2.34-3.55,7.1-5.41,4.74-1.91,8.96-1.18,8.88-.93Z"/><path class="cls-1" d="m150.82,255.2c-.21.21-7.11-6.59-15.41-15.18-8.3-8.59-14.85-15.72-14.64-15.93.21-.21,7.11,6.59,15.41,15.18,8.3,8.59,14.85,15.72,14.64,15.92Z"/></g><g><g><rect class="cls-3" x="300.81" y="751.13" width="88.36" height="125.24"/><path class="cls-8" d="m295.41,874.22h99.16c3.15,0,5.7,2.56,5.7,5.7v7.19h-110.57v-7.19c0-3.15,2.56-5.7,5.7-5.7Z"/><rect class="cls-3" x="279.63" y="887.11" width="134.2" height="20.4"/><g><path class="cls-8" d="m388.74,862.6c0,.3-19.59.54-43.75.54s-43.75-.24-43.75-.54,19.58-.54,43.75-.54,43.75.24,43.75.54Z"/><path class="cls-8" d="m388.74,847.71c0,.3-19.59.54-43.75.54s-43.75-.24-43.75-.54,19.58-.54,43.75-.54,43.75.24,43.75.54Z"/><path class="cls-8" d="m388.74,833.08c0,.3-19.59.54-43.75.54s-43.75-.24-43.75-.54,19.58-.54,43.75-.54,43.75.24,43.75.54Z"/><path class="cls-8" d="m388.74,818.19c0,.3-19.59.54-43.75.54s-43.75-.24-43.75-.54,19.58-.54,43.75-.54,43.75.24,43.75.54Z"/><path class="cls-8" d="m388.74,803.56c0,.3-19.59.54-43.75.54s-43.75-.24-43.75-.54,19.58-.54,43.75-.54,43.75.24,43.75.54Z"/><path class="cls-8" d="m388.74,788.67c0,.3-19.59.54-43.75.54s-43.75-.24-43.75-.54,19.58-.54,43.75-.54,43.75.24,43.75.54Z"/><path class="cls-8" d="m388.74,774.04c0,.3-19.59.54-43.75.54s-43.75-.24-43.75-.54,19.58-.54,43.75-.54,43.75.24,43.75.54Z"/><path class="cls-8" d="m388.74,759.15c0,.3-19.59.54-43.75.54s-43.75-.24-43.75-.54,19.58-.54,43.75-.54,43.75.24,43.75.54Z"/></g><g class="cls-11"><polygon points="300.81 768.58 388.74 766.14 388.74 753.37 300.01 753.37 300.81 768.58"/></g></g><g><rect class="cls-3" x="439.21" y="751.13" width="88.36" height="125.24"/><path class="cls-8" d="m433.81,874.22h99.16c3.15,0,5.7,2.56,5.7,5.7v7.19h-110.57v-7.19c0-3.15,2.56-5.7,5.7-5.7Z"/><rect class="cls-3" x="418.03" y="887.11" width="134.2" height="20.4"/><g><path class="cls-8" d="m527.14,862.6c0,.3-19.59.54-43.75.54s-43.75-.24-43.75-.54,19.58-.54,43.75-.54,43.75.24,43.75.54Z"/><path class="cls-8" d="m527.14,847.71c0,.3-19.59.54-43.75.54s-43.75-.24-43.75-.54,19.58-.54,43.75-.54,43.75.24,43.75.54Z"/><path class="cls-8" d="m527.14,833.08c0,.3-19.59.54-43.75.54s-43.75-.24-43.75-.54,19.58-.54,43.75-.54,43.75.24,43.75.54Z"/><path class="cls-8" d="m527.14,818.19c0,.3-19.59.54-43.75.54s-43.75-.24-43.75-.54,19.58-.54,43.75-.54,43.75.24,43.75.54Z"/><path class="cls-8" d="m527.14,803.56c0,.3-19.59.54-43.75.54s-43.75-.24-43.75-.54,19.58-.54,43.75-.54,43.75.24,43.75.54Z"/><path class="cls-8" d="m527.14,788.67c0,.3-19.59.54-43.75.54s-43.75-.24-43.75-.54,19.58-.54,43.75-.54,43.75.24,43.75.54Z"/><path class="cls-8" d="m527.14,774.04c0,.3-19.59.54-43.75.54s-43.75-.24-43.75-.54,19.58-.54,43.75-.54,43.75.24,43.75.54Z"/><path class="cls-8" d="m527.14,759.15c0,.3-19.59.54-43.75.54s-43.75-.24-43.75-.54,19.58-.54,43.75-.54,43.75.24,43.75.54Z"/></g><g class="cls-11"><polygon points="439.21 768.58 527.14 766.14 527.14 753.37 438.41 753.37 439.21 768.58"/></g></g><g><g><g><path class="cls-10" d="m546.1,389.82h12.83c1.01,0,1.83.82,1.83,1.83v38.45h-16.49v-38.45c0-1.01.82-1.83,1.83-1.83Z" transform="translate(19.77 845.31) rotate(-75.83)"/><path class="cls-3" d="m535.82,418.82h18.73c1.68,0,3.04,1.36,3.04,3.04v37.24h-24.82v-37.24c0-1.68,1.36-3.04,3.04-3.04Z" transform="translate(-13.87 860.11) rotate(-75.83)"/><rect class="cls-3" x="540.14" y="417.41" width="42.11" height="15.9" transform="translate(11.4 865.36) rotate(-75.83)"/></g><path class="cls-3" d="m584.21,568.99s65.97-2.68,60.51-65.9c-4.18-48.43-76.21-48.87-76.21-48.87l18.42-40.24s84.18,7.33,100.79,68.62c18.77,69.25-24.64,125.74-103.51,124.41v-38.02Z"/><rect class="cls-8" x="560.75" y="404.87" width="25.69" height="57.17" transform="translate(107.06 -113.57) rotate(12.46)"/><path class="cls-6" d="m581.06,458.21c-.06.48-5.69-.49-12.49-2.04-6.81-1.56-12.26-3.1-12.2-3.38.07-.29,5.63.78,12.44,2.34,3.4.78,6.47,1.52,8.69,2.09.89.24,1.76.47,2.62.69.63.17.91.28.95.31Z"/><path class="cls-6" d="m583.28,448.17c-.06.48-5.69-.49-12.49-2.04-6.81-1.56-12.26-3.1-12.2-3.38.07-.29,5.63.78,12.44,2.34,3.4.78,6.47,1.52,8.69,2.09.89.24,1.76.47,2.62.69.63.17.91.28.95.31Z"/><path class="cls-6" d="m585.94,438.12c-.06.48-5.69-.49-12.49-2.04-6.81-1.56-12.26-3.1-12.2-3.38.07-.29,5.63.78,12.44,2.34,3.4.78,6.47,1.52,8.69,2.09.89.24,1.76.47,2.62.69.63.17.91.28.95.31Z"/><path class="cls-6" d="m587.72,428.07c-.06.48-5.69-.49-12.49-2.04-6.81-1.56-12.26-3.1-12.2-3.38.07-.29,5.63.78,12.44,2.34,3.4.78,6.47,1.52,8.69,2.09.89.24,1.76.47,2.62.69.63.17.91.28.95.31Z"/><path class="cls-6" d="m590.31,418.67c-.06.48-5.69-.49-12.49-2.04-6.81-1.56-12.26-3.1-12.2-3.38.07-.29,5.63.78,12.44,2.34,3.4.78,6.47,1.52,8.69,2.09.89.24,1.76.47,2.62.69.63.17.91.28.95.31Z"/></g><path class="cls-8" d="m598.63,606.58c-.14.03-.67-2.1-1.34-5.57-.67-3.47-1.45-8.29-2.05-13.66-.6-5.36-.92-10.24-1.05-13.77-.12-3.53-.08-5.72.07-5.73.15,0,.38,2.17.69,5.68.32,3.51.75,8.36,1.36,13.7.6,5.34,1.26,10.16,1.73,13.65.47,3.49.74,5.66.59,5.69Z"/><path class="cls-8" d="m619.12,603.39c-.29.08-2.98-8.74-6.01-19.7-3.03-10.96-5.26-19.91-4.97-19.99.29-.08,2.98,8.74,6.01,19.71,3.03,10.96,5.26,19.91,4.97,19.99Z"/><path class="cls-8" d="m646.69,593.52c-.13.07-1.45-2.03-3.52-5.47-2.23-3.72-4.99-8.34-8.04-13.46-3.07-5.1-5.85-9.72-8.09-13.43-2.06-3.44-3.3-5.6-3.17-5.68.12-.08,1.59,1.93,3.82,5.28,2.23,3.34,5.21,8.03,8.36,13.29,3.15,5.26,5.88,10.09,7.78,13.63,1.9,3.54,2.99,5.78,2.86,5.85Z"/><path class="cls-8" d="m669.88,574.93c-.19.23-8.4-6.27-18.34-14.52-9.94-8.25-17.84-15.12-17.65-15.35.19-.23,8.4,6.27,18.34,14.52,9.94,8.25,17.84,15.12,17.65,15.35Z"/><path class="cls-8" d="m684.81,549.44c-.11.27-9.83-3.51-21.69-8.45-11.87-4.94-21.39-9.17-21.28-9.44.11-.27,9.82,3.51,21.69,8.45,11.86,4.94,21.39,9.17,21.28,9.44Z"/><path class="cls-8" d="m692.12,521.92c-.02.15-2.68-.13-6.95-.65-4.58-.57-10.33-1.28-16.69-2.06-6.37-.77-12.12-1.46-16.7-2.01-4.27-.52-6.91-.89-6.9-1.04.01-.14,2.68-.05,6.98.29,4.3.33,10.22.9,16.75,1.7,6.53.8,12.42,1.67,16.67,2.38,4.25.71,6.86,1.26,6.84,1.4Z"/><path class="cls-8" d="m688.71,493.39c.04.14-2.33.98-6.24,2.12-3.9,1.14-9.34,2.55-15.41,3.83-6.07,1.28-11.62,2.18-15.65,2.71-4.03.53-6.54.72-6.56.58-.02-.15,2.45-.61,6.44-1.33,3.99-.72,9.5-1.74,15.55-3.01,6.05-1.28,11.5-2.56,15.44-3.51,3.94-.95,6.39-1.53,6.43-1.38Z"/><path class="cls-8" d="m680.41,466.02c.13.27-8.72,5-19.76,10.56-11.05,5.57-20.12,9.87-20.25,9.6-.13-.27,8.71-4.99,19.77-10.56,11.05-5.57,20.11-9.87,20.25-9.6Z"/><path class="cls-8" d="m663.4,443.82c.19.23-7.16,6.88-16.43,14.86-9.27,7.98-16.94,14.27-17.13,14.05-.19-.22,7.16-6.88,16.43-14.86,9.27-7.98,16.94-14.27,17.13-14.04Z"/><path class="cls-8" d="m634.7,427.32c.25.15-4.39,8.32-10.38,18.25-5.99,9.93-11.05,17.85-11.3,17.69-.25-.15,4.39-8.32,10.38-18.25,5.98-9.92,11.04-17.84,11.3-17.69Z"/><path class="cls-8" d="m608.99,417c.28.09-2.47,9.21-6.15,20.36-3.68,11.16-6.89,20.12-7.17,20.03-.28-.09,2.47-9.21,6.15-20.36,3.68-11.15,6.89-20.12,7.17-20.03Z"/><g class="cls-11"><path d="m639.97,535.45c-5.93,13.11-15.77,20.35-23.93,24.54-9.28,4.76-16.19,6.31-16.19,6.31,12.62,6.73,29.09,2.7,40.13-6.39,11.04-9.09,16.85-23.57,17.24-37.87.19-6.77-.77-13.66-3.57-19.83-2.81-6.17-7.44-12.63-13.59-15.49,0,0,2.46,4.13,3.84,10.84,1.95,9.48,2.37,23.96-3.93,37.89Z"/></g></g><g><path class="cls-8" d="m155,646.85c.06-.05.78.77,2.05,2.28,1.28,1.5,3.02,3.77,5.07,6.64,4.11,5.73,9.24,14.08,13.68,23.9,4.42,9.84,7.28,19.21,8.86,26.08.8,3.44,1.34,6.24,1.62,8.19.3,1.95.43,3.03.35,3.04-.07.01-.34-1.05-.76-2.97-.4-1.92-1.06-4.69-1.95-8.09-1.76-6.79-4.71-16.06-9.1-25.82-4.41-9.76-9.4-18.1-13.33-23.91-1.96-2.91-3.6-5.23-4.77-6.81-1.16-1.59-1.78-2.49-1.72-2.54Z"/><path class="cls-8" d="m146.23,639.52c.2-.22,1.17.32,2.18,1.22,1.01.89,1.66,1.8,1.46,2.02-.2.22-1.17-.32-2.18-1.22-1.01-.89-1.66-1.8-1.46-2.02Z"/><path class="cls-8" d="m148.24,633.46c.25-.15,1.28,1.08,2.28,2.76,1.01,1.68,1.61,3.16,1.36,3.31-.25.15-1.28-1.08-2.28-2.76-1.01-1.68-1.61-3.16-1.36-3.31Z"/><path class="cls-6" d="m186.45,718.29s.07-.58.32-1.66c.28-1.17.64-2.74,1.11-4.7.96-4.08,2.36-9.99,3.94-17.32,3.18-14.66,7.04-35.03,9.87-57.74,1.52-11.32,2.06-22.3,4.71-31.98,1.3-4.83,3.17-9.26,5.54-13.05,2.42-3.76,5.27-6.85,8.23-9.21,5.92-4.79,11.88-6.86,15.96-7.78,2.06-.45,3.69-.65,4.8-.72,1.11-.07,1.69-.08,1.69-.04,0,.04-.57.13-1.67.26-1.09.14-2.7.41-4.72.91-4.01,1.04-9.83,3.19-15.57,7.96-2.88,2.35-5.63,5.41-7.96,9.1-2.29,3.72-4.08,8.07-5.34,12.83-2.56,9.54-3.08,20.5-4.6,31.86-2.84,22.75-6.83,43.14-10.2,57.77-1.68,7.32-3.19,13.2-4.28,17.26-.54,1.95-.98,3.5-1.3,4.66-.31,1.06-.49,1.61-.53,1.6Z"/><path class="cls-8" d="m188.9,554.53c.23-.13,1.25,3.51,5.26,7.69,3.92,4.18,11.13,8.41,19.86,9.66,8.76,1.22,16.81-.04,22.53-.95,2.7-.47,4.98-.87,6.8-1.19,1.61-.28,2.51-.4,2.52-.33.02.07-.85.33-2.43.74-1.58.4-3.88.95-6.75,1.53-5.7,1.11-13.85,2.52-22.82,1.27-8.99-1.29-16.37-5.76-20.26-10.2-1.97-2.21-3.22-4.29-3.87-5.8-.67-1.51-.89-2.39-.84-2.41Z"/><path class="cls-8" d="m181.05,548.01c.21-.21,1.2.44,2.2,1.44,1.01,1.01,1.65,1.99,1.44,2.2s-1.2-.44-2.2-1.44c-1.01-1.01-1.65-1.99-1.44-2.2Z"/><path class="cls-8" d="m183.4,544.41c.25-.16,1.19.89,2.09,2.34.9,1.45,1.43,2.75,1.17,2.91-.25.16-1.19-.89-2.09-2.34-.9-1.45-1.43-2.75-1.17-2.91Z"/><path class="cls-8" d="m189.86,543.94c.29.05.34,1.26.11,2.71-.23,1.45-.66,2.59-.95,2.55s-.34-1.26-.11-2.71c.23-1.45.66-2.59.95-2.55Z"/><path class="cls-6" d="m209.31,624.59c.07,0,0,1.32-.18,3.68-.18,2.36-.52,5.77-1.02,9.97-.98,8.41-2.7,19.99-5.28,32.65-2.59,12.66-5.54,23.99-7.93,32.11-1.19,4.06-2.21,7.33-2.97,9.57-.75,2.24-1.2,3.47-1.27,3.45-.07-.02.24-1.29.87-3.57.67-2.45,1.56-5.71,2.64-9.66,2.2-8.16,5.03-19.49,7.61-32.12,2.57-12.63,4.4-24.16,5.58-32.53.55-4.06,1.01-7.4,1.35-9.92.31-2.34.52-3.64.6-3.63Z"/><path class="cls-6" d="m245.92,576.78c.01.2-2.96.22-7.52,1.42-4.53,1.17-10.67,3.83-15.94,8.7-5.28,4.88-8.41,10.78-9.94,15.2-1.57,4.45-1.82,7.41-2.02,7.38-.07,0-.07-.75.09-2.08.15-1.33.5-3.25,1.21-5.54,1.37-4.58,4.49-10.72,9.93-15.75,5.44-5.03,11.82-7.64,16.49-8.65,2.35-.52,4.28-.72,5.62-.77,1.34-.05,2.08.01,2.08.08Z"/><path class="cls-6" d="m196.24,717.86s0-.54.09-1.55c.1-1.01.25-2.51.52-4.43.59-3.78,1.35-9.54,4.89-15.64,1.75-3.02,4.13-6.01,6.08-9.52.94-1.76,1.78-3.67,2.15-5.74.39-2.07.37-4.27.18-6.52-.33-4.48-1.64-9.31-.64-14.42.47-2.55,1.78-4.92,3.31-7,1.52-2.11,3.26-4.06,4.64-6.24,1.41-2.16,2.3-4.56,2.32-7.05.07-2.49-.46-4.95-.99-7.37-1.19-4.85-1.63-9.79-1.19-14.39.81-9.26,4.64-17.08,9.07-22.43,4.44-5.41,9.26-8.59,12.69-10.37,1.72-.9,3.12-1.47,4.08-1.83.96-.34,1.47-.5,1.49-.46.01.03-.47.26-1.41.67-.92.42-2.29,1.05-3.96,2-3.33,1.88-8.01,5.11-12.3,10.48-4.28,5.31-7.94,12.99-8.68,22.04-.4,4.52.04,9.26,1.23,14.08.53,2.43,1.09,4.96,1.03,7.63,0,2.68-1.01,5.36-2.48,7.6-1.45,2.28-3.2,4.23-4.68,6.29-1.5,2.04-2.69,4.22-3.14,6.59-.97,4.76.26,9.54.59,14.12.19,2.3.2,4.6-.24,6.79-.41,2.2-1.31,4.19-2.29,5.99-2.04,3.59-4.45,6.53-6.2,9.48-3.54,5.9-4.42,11.57-5.13,15.32-.3,1.83-.54,3.29-.72,4.39-.16,1.01-.27,1.53-.3,1.53Z"/><path class="cls-4" d="m248.36,598.17c0,.15-1.9-.24-5.07.72-3.14.91-7.45,3.56-10.67,8.52-3.3,4.93-4.77,12.02-5.56,19.82-.77,7.85-1.96,16.5-3.78,25.44-3.65,17.91-8.63,33.7-12.3,45.06-1.85,5.68-3.42,10.25-4.52,13.41-.53,1.49-.96,2.69-1.3,3.62-.31.82-.49,1.25-.52,1.24-.04-.01.07-.46.32-1.31.28-.95.65-2.17,1.1-3.68,1.03-3.32,2.45-7.9,4.19-13.51,3.49-11.41,8.34-27.2,11.97-45.04,1.81-8.92,3.02-17.49,3.85-25.34.84-7.83,2.41-15.07,5.91-20.13,3.41-5.07,7.93-7.69,11.19-8.51,1.64-.46,2.97-.47,3.85-.48.89.07,1.34.12,1.34.16Z"/><g><g><g><path class="cls-3" d="m172.46,710.46h40.01s-24.25,192.64-158.2,191.98l1.72-37.55s91.12-5.65,116.48-154.43Z"/><g><g><path class="cls-10" d="m14.42,841.82h12.83c1.01,0,1.83.82,1.83,1.83v38.45H12.58v-38.45c0-1.01.82-1.83,1.83-1.83Z" transform="translate(-841.37 867.64) rotate(-88.99)"/><path class="cls-3" d="m10.94,871.73h18.73c1.68,0,3.04,1.36,3.04,3.04v37.24H7.9v-37.24c0-1.68,1.36-3.04,3.04-3.04Z" transform="translate(-871.78 896.49) rotate(-88.99)"/><rect class="cls-3" x="11.74" y="867.03" width="42.11" height="15.9" transform="translate(-842.63 892.39) rotate(-88.99)"/></g><rect class="cls-8" x="33.86" y="851.45" width="25.69" height="57.17" transform="translate(-10.74 .64) rotate(-.7)"/><path class="cls-6" d="m59.62,902.45c.05.48-5.65.82-12.62.86-6.99.04-12.65-.22-12.65-.52,0-.3,5.66-.52,12.64-.56,3.49-.02,6.65,0,8.93.05.92.03,1.82.05,2.7.08.66.03.95.06.99.09Z"/><path class="cls-6" d="m59.49,892.16c.05.48-5.65.82-12.62.86-6.99.04-12.65-.22-12.65-.52,0-.3,5.66-.52,12.64-.56,3.49-.02,6.65,0,8.93.05.92.03,1.82.05,2.7.08.66.03.95.06.99.09Z"/><path class="cls-6" d="m59.79,881.77c.05.48-5.65.82-12.62.86-6.99.04-12.65-.22-12.65-.52,0-.3,5.66-.52,12.64-.56,3.49-.02,6.65,0,8.93.05.92.03,1.82.05,2.7.08.66.03.95.06.99.09Z"/><path class="cls-6" d="m59.24,871.57c.05.48-5.65.82-12.62.86-6.99.04-12.65-.22-12.65-.52,0-.3,5.66-.52,12.64-.56,3.49-.02,6.65,0,8.93.05.92.03,1.82.05,2.7.08.66.03.95.06.99.09Z"/><path class="cls-6" d="m59.61,861.83c.05.48-5.65.82-12.62.86-6.99.04-12.65-.22-12.65-.52,0-.3,5.66-.52,12.64-.56,3.49-.02,6.65,0,8.93.05.93.03,1.82.05,2.7.08.66.03.95.06.99.09Z"/></g></g><path class="cls-8" d="m73.66,900.55c.06,0,.1.33.12,1.03l.04,1.2-.36-1.17c-.74-2.4-2.5-9.91-3.93-18.91-.89-5.55-1.5-10.6-1.83-14.27-.34-3.67-.42-5.95-.28-5.96.15-.02.5,2.23,1.03,5.87.53,3.64,1.25,8.66,2.14,14.19,1.43,8.96,2.87,16.51,3.19,19.01l-.32.03c.08-.7.14-1.02.2-1.02Z"/><path class="cls-8" d="m92.66,896.9c-.28.09-3.27-8.62-6.66-19.45-3.4-10.84-5.92-19.69-5.63-19.78.28-.09,3.26,8.62,6.66,19.46,3.39,10.83,5.92,19.69,5.63,19.78Z"/><path class="cls-8" d="m115.09,887.42c-.27.13-4.68-8.25-9.85-18.72-5.18-10.47-9.16-19.07-8.89-19.2.27-.13,4.68,8.25,9.85,18.72,5.18,10.47,9.16,19.07,8.89,19.2Z"/><path class="cls-8" d="m134.98,872.55c-.24.18-5.95-7.14-12.76-16.35-6.81-9.21-12.14-16.81-11.9-16.99.24-.18,5.95,7.14,12.76,16.35,6.81,9.2,12.14,16.81,11.9,16.99Z"/><path class="cls-8" d="m152.35,856.07c-.21.21-6.86-6.13-14.85-14.15-7.99-8.03-14.3-14.7-14.09-14.91.21-.21,6.86,6.13,14.85,14.15,7.99,8.02,14.3,14.7,14.09,14.91Z"/><path class="cls-8" d="m166.66,836.29c-.08.13-2.05-.96-5.18-2.77-3.43-2.01-7.6-4.45-12.21-7.14-4.62-2.69-8.79-5.13-12.22-7.13-3.12-1.84-5.03-3.02-4.96-3.15.07-.13,2.11.81,5.33,2.48,3.22,1.67,7.62,4.08,12.4,6.87,4.78,2.79,9.03,5.44,12.07,7.42,3.04,1.99,4.86,3.3,4.78,3.42Z"/><path class="cls-8" d="m176.34,816.26c-.07.13-1.97-.77-5.01-2.25-3.04-1.48-7.24-3.53-11.92-5.7-4.68-2.16-8.96-4.04-12.06-5.39-3.1-1.36-5.01-2.21-4.96-2.36.05-.13,2.06.47,5.25,1.65,3.18,1.18,7.53,2.95,12.23,5.12,4.7,2.17,8.86,4.34,11.82,6,2.96,1.66,4.73,2.8,4.66,2.93Z"/><path class="cls-8" d="m187.91,796.88c-.03.14-2.22-.2-5.73-.96-3.5-.75-8.32-1.94-13.57-3.46-5.25-1.53-9.95-3.11-13.31-4.35-3.36-1.24-5.4-2.13-5.35-2.26.05-.14,2.18.49,5.59,1.54,3.42,1.06,8.13,2.51,13.37,4.04,5.24,1.52,10,2.82,13.45,3.76,3.45.94,5.58,1.55,5.55,1.7Z"/><path class="cls-8" d="m194.1,777.34c-.04.29-8.59-.55-19.1-1.89-10.51-1.34-19-2.66-18.96-2.96.04-.29,8.59.55,19.1,1.89,10.51,1.34,19,2.66,18.96,2.96Z"/><path class="cls-8" d="m200.65,758.26c-.01.15-2.13.07-5.56-.18-3.42-.25-8.15-.66-13.36-1.18-5.21-.52-9.92-1.06-13.33-1.5-3.4-.44-5.5-.78-5.48-.93.02-.15,2.14-.07,5.57.18,3.42.25,8.14.66,13.35,1.18,5.2.52,9.91,1.06,13.31,1.49,3.4.44,5.5.79,5.49.93Z"/><path class="cls-8" d="m205.72,739.74c0,.3-8.9.82-19.91,1.16-11.01.34-19.93.38-19.94.09,0-.3,8.9-.82,19.91-1.16,11-.34,19.93-.38,19.94-.09Z"/><path class="cls-8" d="m207.79,724.62c.01.14-2.06.5-5.44.85-3.38.35-8.08.65-13.27.67-5.19.02-9.89-.23-13.28-.54-3.39-.31-5.46-.66-5.45-.8.01-.16,2.11-.08,5.5.04,3.39.12,8.06.25,13.22.23,5.16-.03,9.83-.2,13.22-.36,3.38-.15,5.48-.25,5.5-.09Z"/></g><path class="cls-1" d="m174.21,716.18s.03.18.04.52c0,.41,0,.91,0,1.53-.03,1.34.03,3.33-.13,5.87-.2,5.1-.87,12.47-2.54,21.45-1.65,8.98-4.48,19.53-8.98,30.75-4.48,11.22-10.75,23.03-18.87,34.38-8.2,11.29-17.43,20.97-26.66,28.77-9.22,7.81-18.34,13.84-26.34,18.24-7.99,4.41-14.78,7.38-19.55,9.18-2.36.96-4.27,1.53-5.53,1.98-.59.19-1.06.35-1.45.47-.33.1-.5.14-.51.13,0-.02.15-.1.47-.23.38-.15.84-.34,1.41-.57,1.24-.52,3.11-1.14,5.44-2.17,4.71-1.91,11.42-4.98,19.33-9.46,7.91-4.46,16.94-10.52,26.07-18.33,9.14-7.79,18.28-17.43,26.43-28.64,8.06-11.27,14.32-22.99,18.82-34.12,4.52-11.13,7.42-21.6,9.15-30.52,1.75-8.92,2.54-16.25,2.86-21.33.23-2.53.23-4.51.34-5.85.04-.62.07-1.12.1-1.52.03-.34.05-.52.07-.52Z"/></g></g><g><path class="cls-2" d="m359.62,491.67s-22.15-29.96-73.38-25.52c0,0,52.14-40.05,21.46-81.21,0,0,65.85,19.46,66.6-62.86,0,0,11.97,76.33,74.09,54.63,0,0,4.41,60.65,47.4,49.42-20.8,20.48-41.05,38.51-36.92,64.66"/><g class="cls-13"><path class="cls-1" d="m359.62,491.67s-22.15-29.96-73.38-25.52c0,0,52.14-40.05,21.46-81.21,0,0,65.85,19.46,66.6-62.86,0,0,11.97,76.33,74.09,54.63,0,0,4.41,60.65,47.4,49.42-20.8,20.48-41.05,38.51-36.92,64.66"/></g><path class="cls-2" d="m359.62,491.67s-.53-34.94-41.67-31.37c0,0,38.27-22.07,13.63-55.13,0,0,52.9,15.63,53.5-50.49,0,0,9.62,61.31,59.51,43.88,0,0-5.95,44.48,28.58,35.47-16.71,16.45-23.48,35.17-20.17,56.17"/><g class="cls-12"><path class="cls-1" d="m359.62,491.67s-.53-34.94-41.67-31.37c0,0,38.27-22.07,13.63-55.13,0,0,52.9,15.63,53.5-50.49,0,0,9.62,61.31,59.51,43.88,0,0-5.95,44.48,28.58,35.47-16.71,16.45-23.48,35.17-20.17,56.17"/></g><g><path class="cls-10" d="m427.2,259.93s-.14.47-.5,1.3c-.41.93-.95,2.14-1.62,3.64-.73,1.57-1.6,3.5-2.52,5.78-.93,2.27-2.08,4.82-3.13,7.73-1.11,2.88-2.32,6.04-3.46,9.5-1.23,3.42-2.32,7.14-3.52,11.05-2.25,7.85-4.39,16.58-6.09,25.85-1.64,9.29-2.67,18.21-3.3,26.36-.24,4.08-.52,7.95-.55,11.58-.14,3.63-.11,7.02-.07,10.11-.02,3.09.16,5.88.24,8.34.07,2.46.21,4.57.34,6.29.1,1.64.18,2.96.25,3.98.04.91.05,1.39.01,1.4-.04,0-.11-.47-.23-1.37-.11-1.02-.26-2.33-.45-3.96-.2-1.72-.4-3.83-.53-6.29-.14-2.46-.38-5.25-.4-8.35-.09-3.1-.16-6.49-.06-10.14,0-3.65.24-7.54.45-11.63.58-8.18,1.59-17.15,3.23-26.48,1.71-9.31,3.89-18.07,6.2-25.94,1.23-3.91,2.36-7.64,3.63-11.06,1.18-3.45,2.43-6.61,3.59-9.48,1.11-2.9,2.3-5.44,3.29-7.69.97-2.26,1.9-4.17,2.69-5.71.74-1.47,1.34-2.65,1.8-3.56.42-.81.66-1.22.69-1.21Z"/><path class="cls-10" d="m279.4,245.76c-.25.26-4.79-5.25-12.39-9.28-7.56-4.11-14.66-4.85-14.58-5.2.01-.12,1.79-.11,4.6.44,2.8.55,6.62,1.74,10.49,3.81,3.86,2.08,6.97,4.6,8.97,6.64,2.01,2.04,3.01,3.51,2.91,3.59Z"/><path class="cls-10" d="m295.26,335.65s.32.25.86.81c.61.65,1.37,1.47,2.3,2.46,2,2.14,4.76,5.35,8.07,9.41,3.32,4.05,7.08,9.03,11.07,14.69,3.94,5.69,8.09,12.09,12.11,19,3.99,6.93,7.47,13.71,10.44,19.97,2.92,6.28,5.36,12.02,7.22,16.92,1.88,4.89,3.28,8.89,4.14,11.68.4,1.31.73,2.37.99,3.22.22.74.31,1.13.28,1.15s-.2-.36-.48-1.08c-.31-.83-.7-1.88-1.18-3.15-.98-2.75-2.49-6.7-4.45-11.54-1.95-4.85-4.45-10.54-7.41-16.77-3.01-6.21-6.51-12.95-10.48-19.85-4.01-6.88-8.11-13.27-11.99-18.97-3.93-5.67-7.62-10.68-10.85-14.78-3.22-4.11-5.89-7.39-7.79-9.61-.87-1.05-1.58-1.91-2.15-2.6-.48-.6-.72-.93-.69-.95Z"/><path class="cls-10" d="m437.24,346.2s-.12.34-.43.94c-.38.7-.84,1.56-1.4,2.59-.63,1.11-1.38,2.48-2.18,4.11-.81,1.62-1.8,3.43-2.73,5.52-1.98,4.11-4.07,9.12-6.13,14.78-1.99,5.68-3.91,12.03-5.46,18.8-1.5,6.79-2.49,13.35-3.12,19.34-.56,6-.82,11.42-.79,15.98-.06,2.28.06,4.34.1,6.15.03,1.81.12,3.37.21,4.64.06,1.17.11,2.14.15,2.94.02.67.02,1.03-.02,1.03-.04,0-.1-.34-.2-1.01-.1-.79-.21-1.76-.35-2.93-.15-1.27-.31-2.83-.39-4.65-.1-1.82-.27-3.88-.26-6.18-.12-4.58.05-10.04.57-16.08.58-6.03,1.55-12.64,3.06-19.48,1.56-6.82,3.53-13.2,5.58-18.91,2.12-5.68,4.3-10.69,6.38-14.78.97-2.07,2.02-3.87,2.88-5.47.85-1.61,1.66-2.95,2.35-4.03.63-.99,1.15-1.82,1.57-2.49.37-.56.58-.85.61-.83Z"/><path class="cls-10" d="m477.8,354.2c.1.14-1.73,1.49-4.47,3.87-2.75,2.38-6.36,5.89-9.82,10.23-3.45,4.34-6.06,8.65-7.77,11.86-1.71,3.21-2.61,5.29-2.77,5.23-.12-.04.54-2.23,2.09-5.57,1.55-3.34,4.1-7.78,7.61-12.19,3.51-4.4,7.27-7.88,10.18-10.14,2.9-2.26,4.89-3.39,4.96-3.29Z"/><path class="cls-10" d="m305.36,406.88c.07-.11,2.07.98,5.05,3.15,2.98,2.16,6.88,5.47,10.65,9.65,3.77,4.19,6.66,8.41,8.51,11.59,1.85,3.19,2.73,5.29,2.62,5.35-.15.08-1.27-1.89-3.26-4.95-1.99-3.05-4.94-7.14-8.66-11.27-3.73-4.12-7.49-7.48-10.32-9.77-2.83-2.3-4.68-3.61-4.59-3.75Z"/><path class="cls-10" d="m294.9,387.67c-.16.29-4.37-2.07-10.07-3.51-5.68-1.49-10.51-1.47-10.51-1.8-.04-.26,4.91-.78,10.78.76,5.87,1.49,9.96,4.34,9.8,4.55Z"/></g><path class="cls-9" d="m252.42,323.02c.3-1.21.76-2.36,1.35-3.42l-1.87-2.85,3.92-4.05,2.91,1.77c1.04-.63,2.18-1.12,3.37-1.46l.7-3.34,5.64-.09.81,3.31c1.21.3,2.36.76,3.42,1.35l2.85-1.87,4.05,3.92-1.77,2.91c.63,1.04,1.12,2.18,1.46,3.37l3.34.7.09,5.64-3.31.81c-.3,1.21-.76,2.36-1.35,3.42l1.87,2.85-3.92,4.05-2.91-1.77c-1.04.63-2.17,1.12-3.37,1.46l-.7,3.34-5.64.09-.81-3.31c-1.21-.3-2.36-.76-3.42-1.35l-2.85,1.87-4.05-3.92,1.77-2.91c-.63-1.04-1.12-2.18-1.46-3.37l-3.34-.7-.09-5.64,3.31-.81h0Zm7.44,3.2c.05,3.34,2.81,6.01,6.15,5.95,3.34-.05,6.01-2.81,5.95-6.15-.05-3.34-2.81-6.01-6.15-5.95-3.34.05-6.01,2.81-5.95,6.15Z"/><path class="cls-7" d="m488.99,475.61c.22-.89.56-1.74,1-2.52l-1.38-2.11,2.9-2.99,2.15,1.31c.77-.46,1.61-.83,2.49-1.08l.52-2.46,4.16-.07.6,2.44c.89.22,1.74.56,2.52,1l2.11-1.38,2.99,2.9-1.31,2.15c.46.77.83,1.61,1.08,2.49l2.46.52.07,4.16-2.44.6c-.22.89-.56,1.74-1,2.52l1.38,2.11-2.9,2.99-2.15-1.31c-.77.46-1.6.83-2.49,1.08l-.52,2.46-4.16.07-.6-2.44c-.89-.22-1.74-.56-2.52-1l-2.11,1.38-2.99-2.9,1.31-2.15c-.46-.77-.83-1.61-1.08-2.49l-2.46-.52-.07-4.16,2.44-.6h0Zm5.49,2.36c.04,2.47,2.07,4.43,4.54,4.39s4.43-2.07,4.39-4.54c-.04-2.47-2.07-4.43-4.54-4.39-2.47.04-4.43,2.07-4.39,4.54Z"/><g><g><rect class="cls-4" x="436.57" y="304.02" width="21.53" height="9.74" transform="translate(-23.62 580.4) rotate(-64.59)"/><path class="cls-8" d="m438.32,316.52c.07-.03.98.35,2.54,1.01,1.56.66,3.76,1.61,6.42,2.82l-.52.18c2.31-5.07,5.52-11.96,9.11-19.51-.23-.64.31.87.25.71h0s0,0,0,0h0s-.02-.01-.02-.01l-.04-.02-.07-.03-.14-.07-.29-.14-.58-.27-1.14-.54c-.76-.36-1.5-.72-2.24-1.07-1.47-.7-2.89-1.39-4.25-2.04l.68-.24c-2.67,5.55-5.05,10.29-6.78,13.71-.81,1.57-1.49,2.91-2.07,4.03-.5.95-.79,1.48-.85,1.5-.06.02.13-.47.52-1.4.49-1.12,1.07-2.46,1.76-4.04,1.54-3.48,3.79-8.46,6.49-14.23l.22-.46.47.22c1.37.64,2.8,1.32,4.27,2.01.74.35,1.48.7,2.24,1.06l1.14.54.58.27.29.14.14.07.07.03.04.02h.02s0,.01,0,.01h0s0,0,0,0c-.05-.16.48,1.36.26.72-3.59,7.56-6.9,14.39-9.37,19.39l-.18.35-.34-.17c-2.78-1.37-4.98-2.52-6.45-3.3-1.48-.78-2.25-1.21-2.18-1.23Z"/></g><g><path class="cls-4" d="m455.51,290.9c-4.48-2.13-9.84-.22-11.97,4.26l16.23,7.71c2.13-4.48.22-9.84-4.26-11.97Z"/><path class="cls-8" d="m455.51,290.9s.37.06.99.37c.6.33,1.46.89,2.32,1.86.84.96,1.69,2.34,2.05,4.11.4,1.74.25,3.86-.66,5.85l-.2.45-.46-.21c-2.53-1.19-5.27-2.47-8.13-3.82-2.86-1.37-5.58-2.68-8.1-3.9l-.46-.22.22-.44c.98-1.96,2.52-3.42,4.12-4.21,1.59-.83,3.2-1.05,4.48-1,1.29.05,2.27.36,2.9.62.63.29.93.49.91.54-.05.16-1.39-.61-3.82-.56-1.2.04-2.66.32-4.09,1.13-1.43.78-2.78,2.13-3.62,3.9l-.23-.66c2.53,1.19,5.27,2.47,8.14,3.82,2.86,1.37,5.58,2.68,8.1,3.89l-.66.23c.84-1.77,1.04-3.67.74-5.27-.27-1.62-.98-2.93-1.7-3.88-1.5-1.91-2.94-2.46-2.85-2.61Z"/></g><g><path class="cls-4" d="m455.71,296.03c.59-2.05-.14-4.41-1.78-5.78"/><path class="cls-8" d="m453.93,290.26c.14-.26,1.66.56,2.24,2.47.59,1.9-.2,3.44-.46,3.3-.29-.09-.07-1.45-.57-2.99-.45-1.55-1.4-2.55-1.21-2.79Z"/></g><path class="cls-8" d="m445.78,299.81c.17-.26,2.18.81,4.72,1.95,2.54,1.15,4.67,1.95,4.59,2.24-.07.28-2.4-.07-5.03-1.26-2.63-1.18-4.45-2.69-4.28-2.93Z"/><path class="cls-8" d="m444.7,302.09c.17-.26,2.18.81,4.72,1.95,2.54,1.15,4.67,1.95,4.59,2.24-.07.28-2.4-.07-5.03-1.26-2.63-1.18-4.45-2.69-4.28-2.93Z"/><path class="cls-8" d="m443.61,304.38c.17-.26,2.18.81,4.72,1.95,2.54,1.15,4.67,1.95,4.59,2.24-.07.28-2.4-.07-5.03-1.26-2.63-1.18-4.45-2.69-4.28-2.93Z"/><path class="cls-8" d="m442.53,306.66c.17-.26,2.18.81,4.72,1.95,2.54,1.15,4.67,1.95,4.59,2.24-.07.28-2.4-.07-5.03-1.26-2.63-1.18-4.45-2.69-4.28-2.93Z"/><path class="cls-8" d="m441.44,308.94c.17-.26,2.18.81,4.72,1.95,2.54,1.15,4.67,1.95,4.59,2.24-.07.28-2.4-.07-5.03-1.26-2.63-1.18-4.45-2.69-4.28-2.93Z"/><path class="cls-8" d="m440.36,311.23c.17-.26,2.18.81,4.72,1.95,2.54,1.15,4.67,1.95,4.59,2.24-.07.28-2.4-.07-5.03-1.26-2.63-1.18-4.45-2.69-4.28-2.93Z"/><path class="cls-8" d="m439.27,313.51c.17-.26,2.18.81,4.72,1.95,2.54,1.15,4.67,1.95,4.59,2.24-.07.28-2.4-.07-5.03-1.26-2.63-1.18-4.45-2.69-4.28-2.93Z"/></g><g><g><rect class="cls-4" x="225.22" y="468.8" width="21.53" height="9.74" transform="translate(-174.59 139.79) rotate(-24.4)"/><path class="cls-8" d="m247.81,473.65c-.07-.03-.53-.9-1.29-2.41-.77-1.52-1.83-3.66-3.09-6.29l.52.19c-5.03,2.38-11.93,5.57-19.55,9.03-.24.64.32-.87.27-.71h0s0,0,0,0h0s0,.03,0,.03l.02.04.03.07.07.15.13.29.26.58.52,1.15c.34.76.68,1.52,1.02,2.26.67,1.48,1.31,2.92,1.93,4.31l-.68-.25c5.62-2.51,10.5-4.6,14.03-6.1,1.63-.68,3.02-1.26,4.18-1.74.99-.4,1.56-.61,1.62-.59s-.4.27-1.3.73c-1.1.54-2.41,1.19-3.95,1.95-3.42,1.66-8.35,4.02-14.14,6.68l-.46.21-.21-.47c-.63-1.38-1.29-2.81-1.97-4.29-.34-.74-.68-1.49-1.03-2.26l-.52-1.15-.26-.58-.13-.29-.07-.15-.03-.07-.02-.04v-.02s-.01,0-.01,0h0s0,0,0,0c-.06.15.51-1.35.27-.71,7.62-3.46,14.56-6.54,19.67-8.76l.36-.16.15.35c1.23,2.84,2.18,5.13,2.8,6.68.62,1.55.94,2.37.87,2.35Z"/></g><g><path class="cls-4" d="m218.14,482.14c2.05,4.52,7.38,6.52,11.9,4.47l-7.42-16.37c-4.52,2.05-6.52,7.38-4.47,11.9Z"/><path class="cls-8" d="m218.14,482.14s-.24-.29-.52-.92c-.25-.64-.54-1.62-.57-2.92-.02-1.28.22-2.88,1.08-4.46.82-1.59,2.3-3.11,4.28-4.05l.45-.21.21.46c1.17,2.54,2.43,5.29,3.75,8.17,1.3,2.89,2.53,5.65,3.67,8.2l.21.46-.45.2c-2.01.87-4.13.98-5.87.55-1.76-.39-3.12-1.27-4.07-2.12-.95-.87-1.5-1.74-1.82-2.35-.29-.62-.4-.98-.35-1,.14-.09.67,1.36,2.56,2.89.94.74,2.24,1.48,3.85,1.77,1.6.33,3.49.17,5.28-.64l-.25.66c-1.17-2.54-2.43-5.29-3.75-8.17-1.3-2.89-2.53-5.65-3.67-8.2l.66.25c-1.79.81-3.16,2.13-3.96,3.55-.84,1.41-1.14,2.87-1.21,4.06-.09,2.43.66,3.78.49,3.83Z"/></g><g><path class="cls-4" d="m221.3,478.09c-1.77,1.19-2.74,3.46-2.37,5.56"/><path class="cls-8" d="m218.93,483.65c-.27.11-.9-1.5-.11-3.33.77-1.84,2.38-2.5,2.48-2.23.16.26-.88,1.16-1.49,2.65-.65,1.47-.57,2.85-.88,2.91Z"/></g><path class="cls-8" d="m231.32,481.61c-.29.09-1.14-2.03-2.35-4.54-1.2-2.51-2.31-4.5-2.06-4.68.23-.17,1.79,1.61,3.03,4.21,1.25,2.6,1.66,4.93,1.38,5Z"/><path class="cls-8" d="m233.62,480.56c-.29.09-1.14-2.03-2.35-4.54-1.2-2.51-2.31-4.5-2.06-4.68.23-.17,1.79,1.61,3.03,4.21,1.25,2.6,1.66,4.93,1.38,5Z"/><path class="cls-8" d="m235.92,479.52c-.29.09-1.14-2.03-2.35-4.54-1.2-2.51-2.31-4.5-2.06-4.68.23-.17,1.79,1.61,3.03,4.21,1.25,2.6,1.66,4.93,1.38,5Z"/><path class="cls-8" d="m238.22,478.47c-.29.09-1.14-2.03-2.35-4.54-1.2-2.51-2.31-4.5-2.06-4.68.23-.17,1.79,1.61,3.03,4.21,1.25,2.6,1.66,4.93,1.38,5Z"/><path class="cls-8" d="m240.53,477.43c-.29.09-1.14-2.03-2.35-4.54-1.2-2.51-2.31-4.5-2.06-4.68.23-.17,1.79,1.61,3.03,4.21,1.25,2.6,1.66,4.93,1.38,5Z"/><path class="cls-8" d="m242.83,476.38c-.29.09-1.14-2.03-2.35-4.54-1.2-2.51-2.31-4.5-2.06-4.68.23-.17,1.79,1.61,3.03,4.21,1.25,2.6,1.66,4.93,1.38,5Z"/><path class="cls-8" d="m245.13,475.34c-.29.09-1.14-2.03-2.35-4.54-1.2-2.51-2.31-4.5-2.06-4.68.23-.17,1.79,1.61,3.03,4.21,1.25,2.6,1.66,4.93,1.38,5Z"/></g><path class="cls-10" d="m286.53,221.99s25.01,24.71,31.23,40.12c5.92,14.68,9.85,28.35,9.85,28.35,0,0,6.44-11.28,13.69,0,7.25,11.28,41.51,148.21,47.15,199.76h21.83s-10.18-86.18-15.01-95.85c-4.83-9.67-8.86-12.89-8.86-12.89,0,0-5.64-36.25-9.67-41.89-4.03-5.64-8.86-8.06-8.86-8.06,0,0-7.25-39.47-17.72-47.53-10.47-8.06-18.53-4.03-18.53-4.03,0,0-6.67-42.2-45.11-58Z"/><path class="cls-6" d="m491.26,404.9c.07.34-6.81,1.37-14.5,4.91-7.72,3.47-13.03,7.97-13.24,7.69-.09-.1,1.13-1.35,3.36-3.06,2.23-1.71,5.52-3.82,9.43-5.61,3.92-1.77,7.67-2.86,10.43-3.41,2.76-.55,4.5-.64,4.52-.51Z"/><path class="cls-6" d="m490.41,400.58c.1.33-6.88,2.17-14.56,6.47-7.72,4.24-12.98,9.18-13.2,8.92-.09-.1,1.1-1.45,3.31-3.37,2.2-1.91,5.46-4.33,9.37-6.5,3.91-2.16,7.68-3.65,10.47-4.5,2.79-.86,4.58-1.15,4.61-1.02Z"/><path class="cls-6" d="m486.19,411.12c0,.33-4.56.4-9.89,1.94-5.35,1.49-9.27,3.83-9.44,3.55-.17-.21,3.61-3.03,9.15-4.58,5.52-1.59,10.22-1.17,10.19-.9Z"/><path class="cls-8" d="m438,489.99c-3.64-28.93,5.85-62.8,28.97-79.05l5.51,4.49s-28.73,17.09-26.63,74.78"/><g><path class="cls-6" d="m319.32,448.36c.09.33-5.38,1.38-11.08,4.94-5.75,3.49-9.15,7.89-9.41,7.66-.23-.11,2.89-4.96,8.84-8.58,5.91-3.68,11.65-4.28,11.64-4.02Z"/><path class="cls-6" d="m318.76,445.79c.09.29-5.02,2.02-11.24,4.35-6.23,2.32-11.22,4.36-11.35,4.08-.12-.26,4.7-2.75,10.97-5.09,6.26-2.34,11.54-3.62,11.62-3.34Z"/><path class="cls-8" d="m382.38,497.13l-9.99-2.61c1.52-5.84.52-12.39-2.68-17.51-1.3-2.07-2.96-3.92-4.87-5.47-1.03,6.54-5.15,12.3-10.96,14.71-4.28,1.77-9.41,1.46-13.73-.85-3.97-2.13-6.7-5.68-7.5-9.76-1.23-6.24,2.06-13.05,8-16.57,2.24-1.32,4.8-2.19,7.56-2.58-.24-.2-.49-.4-.75-.59-8.7-6.65-22.09-7.01-31.14-.84l-5.82-8.53c12.77-8.71,30.95-8.22,43.23,1.17,3.95,3.02,7.03,6.75,8.98,10.78,6.43,2.58,12.09,7.21,15.75,13.06,4.68,7.48,6.15,17.05,3.92,25.59Zm-30.77-30.55c-2.2,0-4.16.47-5.7,1.38-2.13,1.26-3.51,3.76-3.13,5.69.29,1.46,1.67,2.34,2.25,2.65,1.56.84,3.49,1,4.89.42,3.13-1.3,5.23-5.45,4.78-9.46-.02-.14-.03-.27-.05-.41-1.05-.18-2.06-.27-3.04-.27Z"/></g><path class="cls-2" d="m298.54,305.37c.04-.06,1.02.46,2.77,1.47,1.76.99,4.22,2.56,7.19,4.62,2.97,2.05,6.37,4.69,10,7.8,3.59,3.15,7.39,6.78,11.1,10.86,3.69,4.1,6.93,8.25,9.7,12.14,2.73,3.92,5.01,7.57,6.76,10.73,1.76,3.15,3.07,5.76,3.88,7.61.83,1.84,1.25,2.87,1.18,2.9-.07.03-.62-.94-1.56-2.72-.92-1.79-2.33-4.33-4.16-7.42-1.82-3.1-4.15-6.68-6.9-10.54-2.8-3.83-6.03-7.92-9.69-11.99-3.68-4.04-7.43-7.67-10.96-10.84-3.56-3.13-6.89-5.81-9.79-7.92-2.89-2.13-5.28-3.79-6.96-4.88-1.68-1.11-2.59-1.76-2.55-1.82Z"/></g><g><path class="cls-5" d="m254.06,535.45h11.3v104.31h-11.3c-4.95,0-8.96-4.02-8.96-8.96v-86.38c0-4.95,4.02-8.96,8.96-8.96Z"/><path class="cls-5" d="m563.95,535.45h11.39c4.9,0,8.88,3.98,8.88,8.88v86.55c0,4.9-3.98,8.88-8.88,8.88h-11.39v-104.31h0Z"/><rect class="cls-3" x="260.02" y="515.09" width="308.5" height="227.13" rx="14.12" ry="14.12"/><path class="cls-1" d="m453.52,539.22c-39.05,0-70.7,31.65-70.7,70.7h141.4c0-39.05-31.65-70.7-70.7-70.7Z"/><g><path class="cls-4" d="m510.47,606.48c2.97-.03,5.66-.03,7.61.01,1.95.04,3.15.11,3.15.2,0,.09-1.2.17-3.15.23-1.95.06-4.63.09-7.61.09-2.97-.03-5.66-.05-7.6-.07-.97-.03-1.76-.05-2.31-.06-.54-.02-.85-.05-.85-.08,0-.03.3-.06.84-.09.54-.02,1.33-.05,2.3-.09,1.95-.04,4.63-.09,7.6-.14Z"/><path class="cls-4" d="m505.53,585.12c5.36-2.56,9.83-4.37,9.98-4.04.15.33-4.12,2.56-9.54,4.99-5.42,2.43-9.89,4.24-9.98,4.04-.09-.2,4.18-2.43,9.54-4.99Z"/><path class="cls-4" d="m492.27,567.64c3.92-4.46,7.31-7.89,7.58-7.65.26.24-2.78,3.98-6.79,8.35-4.01,4.37-7.41,7.8-7.57,7.65-.17-.15,2.88-3.89,6.79-8.35Z"/><path class="cls-4" d="m473.36,556.48c2.02-5.59,3.92-10.02,4.25-9.9.33.12-1.13,4.72-3.26,10.26-2.13,5.54-4.03,9.97-4.25,9.89-.21-.08,1.25-4.68,3.26-10.26Z"/><path class="cls-4" d="m451.69,552.8c-.06-5.94.18-10.76.53-10.76.35,0,.58,4.82.53,10.76-.06,5.94-.29,10.75-.53,10.75-.23,0-.47-4.81-.53-10.75Z"/><path class="cls-4" d="m430.09,556.84c-2.13-5.55-3.59-10.14-3.26-10.26s2.23,4.31,4.25,9.9c2.01,5.58,3.47,10.18,3.26,10.26-.21.08-2.12-4.35-4.24-9.89Z"/><path class="cls-4" d="m411.37,568.35c-4.02-4.38-7.06-8.12-6.79-8.35.27-.24,3.66,3.19,7.58,7.65,3.92,4.46,6.96,8.2,6.79,8.35-.17.15-3.56-3.27-7.58-7.65Z"/><path class="cls-4" d="m398.45,586.08c-5.42-2.43-9.69-4.66-9.54-4.99s4.62,1.48,9.98,4.04c5.36,2.56,9.63,4.79,9.54,4.99-.09.2-4.56-1.61-9.98-4.03Z"/><path class="cls-4" d="m393.95,607c-2.97,0-5.66-.03-7.61-.09-1.95-.06-3.15-.14-3.15-.23,0-.09,1.2-.16,3.15-.2,1.95-.04,4.64-.04,7.61-.01,2.97.06,5.66.11,7.6.14.97.04,1.76.07,2.3.09.54.03.84.06.84.09,0,.03-.3.05-.85.08-.54.02-1.33.04-2.31.06-1.95.02-4.63.04-7.6.07Z"/></g><path class="cls-1" d="m335.64,551.61c0,5.18-4.2,9.38-9.38,9.38s-9.38-4.2-9.38-9.38,4.2-9.38,9.38-9.38,9.38,4.2,9.38,9.38Z"/><path class="cls-5" d="m335.64,579.9c0,5.18-4.2,9.38-9.38,9.38s-9.38-4.2-9.38-9.38,4.2-9.38,9.38-9.38,9.38,4.2,9.38,9.38Z"/><path class="cls-8" d="m513.48,722.63s-.03-.61-.04-1.76c-.01-1.18-.02-2.87-.04-5.07-.02-4.47-.06-10.99-.1-19.37-.05-16.78-.12-40.98-.21-70.82l.4.4c-50.53.04-118.21.08-192.4.14h-.01l.54-.54c-.01,34.21-.02,67.03-.03,97.01l-.51-.51c56.1.1,104.13.18,138.18.24,17.03.06,30.56.11,39.86.14,4.63.03,8.2.05,10.66.06,1.19.01,2.11.02,2.76.03.62.01.96.03.96.03,0,0-.29.02-.9.03-.64,0-1.54.02-2.7.03-2.43.01-5.97.04-10.55.06-9.28.03-22.77.08-39.75.14-34.13.06-82.28.14-138.52.24h-.51s0-.51,0-.51c0-29.98-.02-62.8-.03-97.01v-.54s.54,0,.54,0h.01c74.19.05,141.87.1,192.4.14h.4s0,.4,0,.4c-.09,29.94-.16,54.23-.21,71.06-.04,8.34-.08,14.84-.1,19.28-.02,2.17-.03,3.83-.04,4.99-.01,1.12-.04,1.67-.04,1.67Z"/><path class="cls-8" d="m291.85,741.78h244.83v7.86c0,3.44-2.79,6.23-6.23,6.23h-232.37c-3.44,0-6.23-2.79-6.23-6.23v-7.86h0Z"/><g><g class="cls-11"><path d="m492.91,639.23c-.38,2.64,1.46,5.37,4,6.15,2.54.78,5.51-.36,7-2.57,1.49-2.21,1.47-5.28.1-7.56.04,1.74-.48,3.52-1.62,4.84-1.14,1.31-2.93,2.09-4.65,1.83-1.72-.26-3.26-1.66-3.5-3.39"/></g><g><g><path class="cls-4" d="m503.94,636.93c0,3.15-2.55,5.71-5.71,5.71s-5.71-2.55-5.71-5.71,2.55-5.71,5.71-5.71,5.71,2.55,5.71,5.71Z"/><path class="cls-8" d="m503.94,636.93c-.09,0-.12-.51-.38-1.34-.26-.82-.86-2-2.1-2.89-1.2-.89-3.14-1.37-5-.66-1.84.65-3.41,2.61-3.39,4.89-.02,2.28,1.55,4.24,3.39,4.89,1.85.71,3.79.23,5-.66,1.24-.89,1.84-2.07,2.1-2.89.27-.83.29-1.34.38-1.34.06,0,.18.51.02,1.44-.15.91-.69,2.29-2.05,3.39-1.31,1.1-3.56,1.78-5.8.99-2.21-.72-4.16-3.07-4.13-5.83-.03-2.76,1.92-5.11,4.13-5.82,2.23-.79,4.49-.12,5.8.99,1.36,1.1,1.89,2.48,2.05,3.39.16.93.03,1.45-.02,1.44Z"/></g><path class="cls-8" d="m500.87,634.49c.1.29-1.25.99-2.5,2.31-1.27,1.29-1.93,2.67-2.22,2.58-.28-.05-.02-1.82,1.45-3.32,1.46-1.52,3.21-1.84,3.27-1.56Z"/><path class="cls-8" d="m500.87,638.71c-.26.17-1.21-.87-2.61-1.81-1.39-.95-2.71-1.45-2.65-1.75.04-.28,1.66-.23,3.25.86,1.6,1.08,2.26,2.56,2.01,2.7Z"/></g></g><g><g class="cls-11"><path d="m495.58,709.84c-.38,2.64,1.46,5.37,4,6.15,2.54.78,5.51-.36,7-2.57,1.49-2.21,1.47-5.28.1-7.56.04,1.74-.48,3.52-1.62,4.84-1.14,1.31-2.93,2.09-4.65,1.83-1.72-.26-3.26-1.66-3.5-3.39"/></g><g><g><circle class="cls-4" cx="500.92" cy="707.54" r="5.71"/><path class="cls-8" d="m506.62,707.54c-.09,0-.12-.51-.38-1.34-.26-.82-.86-2-2.1-2.89-1.2-.89-3.14-1.37-5-.66-1.84.65-3.41,2.61-3.39,4.89-.02,2.28,1.55,4.24,3.39,4.89,1.85.71,3.79.23,5-.66,1.24-.89,1.84-2.07,2.1-2.89.27-.83.29-1.34.38-1.34.06,0,.18.51.02,1.44-.15.91-.69,2.29-2.05,3.39-1.31,1.1-3.56,1.78-5.8.99-2.21-.72-4.16-3.07-4.13-5.83-.03-2.76,1.92-5.11,4.13-5.82,2.23-.79,4.49-.12,5.8.99,1.36,1.1,1.89,2.48,2.05,3.39.16.93.03,1.45-.02,1.44Z"/></g><path class="cls-8" d="m503.55,705.1c.1.29-1.25.99-2.5,2.31-1.27,1.29-1.93,2.67-2.22,2.58-.28-.05-.02-1.82,1.45-3.32,1.46-1.52,3.21-1.84,3.27-1.56Z"/><path class="cls-8" d="m503.55,709.32c-.26.17-1.21-.87-2.61-1.81-1.39-.95-2.71-1.45-2.65-1.75.04-.28,1.66-.23,3.25.86,1.6,1.08,2.26,2.56,2.01,2.7Z"/></g></g><g><g class="cls-11"><path d="m329.6,639.14c-.38,2.64,1.46,5.37,4,6.15,2.54.78,5.51-.36,7-2.57s1.47-5.28.1-7.56c.04,1.74-.48,3.52-1.62,4.84-1.14,1.31-2.93,2.09-4.65,1.83-1.72-.26-3.26-1.66-3.5-3.39"/></g><g><g><circle class="cls-4" cx="334.93" cy="636.85" r="5.71"/><path class="cls-8" d="m340.64,636.85c-.09,0-.12-.51-.38-1.34-.26-.82-.86-2-2.1-2.89-1.2-.89-3.14-1.37-5-.66-1.84.65-3.41,2.61-3.39,4.89-.02,2.28,1.55,4.24,3.39,4.89,1.85.71,3.79.23,5-.66,1.24-.89,1.84-2.07,2.1-2.89.27-.83.29-1.34.38-1.34.06,0,.18.51.02,1.44-.15.91-.69,2.29-2.05,3.39-1.31,1.1-3.56,1.78-5.8.99-2.21-.72-4.16-3.07-4.13-5.83-.03-2.76,1.92-5.11,4.13-5.82,2.23-.79,4.49-.12,5.8.99,1.36,1.1,1.89,2.48,2.05,3.39.16.93.03,1.45-.02,1.44Z"/></g><path class="cls-8" d="m337.56,634.4c.1.29-1.25.99-2.5,2.31-1.27,1.29-1.93,2.67-2.22,2.58-.28-.05-.02-1.81,1.45-3.32,1.46-1.52,3.21-1.84,3.27-1.56Z"/><path class="cls-8" d="m337.56,638.62c-.26.17-1.21-.87-2.61-1.81-1.39-.95-2.71-1.45-2.65-1.75.04-.28,1.66-.23,3.25.86,1.6,1.08,2.26,2.56,2.01,2.7Z"/></g></g><g><g class="cls-11"><path d="m328.39,709.14c-.38,2.64,1.46,5.37,4,6.15,2.54.78,5.51-.36,7-2.57,1.49-2.21,1.47-5.28.1-7.56.04,1.74-.48,3.52-1.62,4.84-1.14,1.31-2.93,2.09-4.65,1.83-1.72-.26-3.26-1.66-3.5-3.39"/></g><g><g><circle class="cls-4" cx="333.72" cy="706.84" r="5.71"/><path class="cls-8" d="m339.43,706.84c-.09,0-.12-.51-.38-1.34-.26-.82-.86-2-2.1-2.89-1.2-.89-3.14-1.37-5-.66-1.84.65-3.41,2.61-3.39,4.89-.02,2.28,1.55,4.24,3.39,4.89,1.85.71,3.79.23,5-.66,1.24-.89,1.84-2.07,2.1-2.89.27-.83.29-1.34.38-1.34.06,0,.18.51.02,1.44-.15.91-.69,2.29-2.05,3.39-1.31,1.1-3.56,1.78-5.8.99-2.21-.72-4.16-3.07-4.13-5.83-.03-2.76,1.92-5.11,4.13-5.82,2.23-.79,4.49-.12,5.8.99,1.36,1.1,1.89,2.48,2.05,3.39.16.93.03,1.45-.02,1.44Z"/></g><path class="cls-8" d="m336.35,704.4c.1.29-1.25.99-2.5,2.31-1.27,1.29-1.93,2.67-2.22,2.58-.28-.05-.02-1.81,1.45-3.32,1.46-1.52,3.21-1.84,3.27-1.56Z"/><path class="cls-8" d="m336.35,708.62c-.26.17-1.21-.87-2.61-1.81-1.39-.95-2.71-1.45-2.65-1.75.04-.28,1.66-.23,3.25.86,1.6,1.08,2.26,2.56,2.01,2.7Z"/></g></g><g class="cls-11"><path d="m321.07,723.15c22.35,4.85,48.44,5.04,72.58,3.87,11.61-.56,24.35-1.29,33.63,5.7,2.04,1.54,4.42,3.53,6.81,2.64,3.48-1.29,3.61-7.65,7.32-7.78,1.86-.06,3.27,1.71,3.87,3.47.6,1.76.75,3.7,1.7,5.29.95,1.6,3.21,2.68,4.68,1.55,2.35-1.8-.36-5.66.53-8.49.92-2.93,5.09-3.17,7.94-2.01,2.85,1.16,5.63,3.17,8.67,2.72,2.18-.32,3.95-1.86,5.84-3,5.43-3.31,12.14-3.51,18.5-3.62,6.71-.12,13.63-.75,20.35-.87l-192.42.52Z"/></g><path class="cls-8" d="m474.94,650.29s-.36.16-1.05.37c-.7.2-1.73.46-2.99,1-2.57.96-6.08,2.84-10.07,5.71-4.03,2.81-8.48,6.69-14.11,10.12-2.83,1.68-6.01,3.19-9.56,3.97-3.54.88-7.31.71-11.03.82-7.53-.08-14.13,3.07-19.83,6.12-5.75,3.07-10.91,5.87-14.98,8.62-4.09,2.72-7.07,5.37-8.98,7.35-1.9,1.98-2.81,3.21-2.89,3.15-.03-.02.17-.34.59-.94.41-.61,1.08-1.45,1.99-2.49,1.83-2.08,4.77-4.86,8.85-7.69,4.06-2.86,9.21-5.74,14.94-8.86,2.88-1.55,5.95-3.14,9.34-4.35,3.36-1.25,7.14-1.93,10.93-1.97,3.78-.11,7.45.06,10.84-.78,3.4-.74,6.5-2.17,9.28-3.79,5.55-3.32,10.06-7.14,14.18-9.89,4.08-2.82,7.72-4.63,10.36-5.48,1.31-.48,2.37-.68,3.09-.82.72-.14,1.09-.2,1.1-.16Z"/><path class="cls-8" d="m426,666.65c-.02.13-2.33-.12-5.99-.92-3.66-.8-8.66-2.21-13.98-4.34-5.32-2.14-9.91-4.57-13.11-6.53-3.2-1.95-5.04-3.37-4.97-3.48.09-.14,2.07,1.05,5.34,2.82,3.27,1.77,7.87,4.07,13.13,6.19,5.26,2.11,10.17,3.62,13.76,4.6,3.59.98,5.84,1.5,5.81,1.66Z"/><path class="cls-10" d="m457.05,599.23c1.57-.84,47.98-15.76,47.98-15.76l-44.35,24.87-3.63-9.1Z"/><path class="cls-8" d="m452.21,594.23c-8.66,0-15.69,7.02-15.69,15.69h31.38c0-8.66-7.02-15.69-15.69-15.69Z"/><path class="cls-8" d="m294.42,741.78c-.3,0-.54-50.43-.54-112.63s.24-112.64.54-112.64.54,50.42.54,112.64-.24,112.63-.54,112.63Z"/><path class="cls-8" d="m539.84,741.78c-.3,0-.54-50.43-.54-112.63s.24-112.64.54-112.64.54,50.42.54,112.64-.24,112.63-.54,112.63Z"/><circle class="cls-8" cx="284.12" cy="544.63" r="2.41"/><circle class="cls-8" cx="284.12" cy="589.83" r="2.41"/><circle class="cls-8" cx="284.12" cy="635.03" r="2.41"/><circle class="cls-8" cx="284.12" cy="680.23" r="2.41"/><circle class="cls-8" cx="284.12" cy="725.42" r="2.41"/><circle class="cls-8" cx="552.46" cy="544.63" r="2.41"/><circle class="cls-8" cx="552.46" cy="589.83" r="2.41"/><circle class="cls-8" cx="552.46" cy="635.03" r="2.41"/><circle class="cls-8" cx="552.46" cy="680.23" r="2.41"/><circle class="cls-8" cx="552.46" cy="725.42" r="2.41"/><g><rect class="cls-6" x="354.21" y="490.22" width="105.52" height="24.87"/><path class="cls-8" d="m361.82,515.09c-.3,0-.54-5.37-.54-12s.24-12,.54-12,.54,5.37.54,12-.24,12-.54,12Z"/><path class="cls-8" d="m372.66,515.09c-.3,0-.54-5.37-.54-12s.24-12,.54-12,.54,5.37.54,12-.24,12-.54,12Z"/><path class="cls-8" d="m383.49,515.09c-.3,0-.54-5.37-.54-12s.24-12,.54-12,.54,5.37.54,12-.24,12-.54,12Z"/><path class="cls-8" d="m394.33,515.09c-.3,0-.54-5.37-.54-12s.24-12,.54-12,.54,5.37.54,12-.24,12-.54,12Z"/><path class="cls-8" d="m405.16,515.09c-.3,0-.54-5.37-.54-12s.24-12,.54-12,.54,5.37.54,12-.24,12-.54,12Z"/><path class="cls-8" d="m415.99,515.09c-.3,0-.54-5.37-.54-12s.24-12,.54-12,.54,5.37.54,12-.24,12-.54,12Z"/><path class="cls-8" d="m426.83,515.09c-.3,0-.54-5.37-.54-12s.24-12,.54-12,.54,5.37.54,12-.24,12-.54,12Z"/><path class="cls-8" d="m437.66,515.09c-.3,0-.54-5.37-.54-12s.24-12,.54-12,.54,5.37.54,12-.24,12-.54,12Z"/><path class="cls-8" d="m448.5,515.09c-.3,0-.54-5.37-.54-12s.24-12,.54-12,.54,5.37.54,12-.24,12-.54,12Z"/></g><g class="cls-11"><path d="m584.21,568.99c2.55,12.93,4.92,25.11,7.48,38.04-2.53.31-7.48-.02-7.48-.02-.06-12.39.06-25.63,0-38.02"/></g><path class="cls-1" d="m267.16,539.32c.3,0-.02,38.57-.7,86.12-.69,47.57-1.48,86.12-1.78,86.11-.3,0,.02-38.56.7-86.13.69-47.55,1.48-86.11,1.78-86.1Z"/><path class="cls-1" d="m312.06,716.86c-.3,0-.54-19.2-.54-42.89s.24-42.89.54-42.89.54,19.2.54,42.89-.24,42.89-.54,42.89Z"/><path class="cls-1" d="m514.86,522.04c0,.3-47.34.54-105.72.54s-105.73-.24-105.73-.54,47.33-.54,105.73-.54,105.72.24,105.72.54Z"/></g></g><g><g><path class="cls-1" d="m512.19,164.3v33.92c-8.85,7.55-40.79,35.6-40.79,35.6h40.79v26.69c0,9.45,8.75,17.13,19.6,17.22l226.13,1.86c11,.09,19.97-7.65,19.97-17.22v-98.07c0-9.51-8.86-17.22-19.79-17.22h-226.13c-10.93,0-19.79,7.71-19.79,17.22Z"/><path class="cls-8" d="m512.19,164.3s-.01-.65.09-1.93c.18-1.26.53-3.17,1.74-5.44.56-1.15,1.45-2.33,2.53-3.55,1.14-1.18,2.52-2.38,4.25-3.43,1.74-1.02,3.81-1.89,6.15-2.43,2.34-.58,4.96-.63,7.66-.6,21.71-.03,53.1-.07,91.88-.12,19.4-.01,40.64-.03,63.45-.05,11.4,0,23.2-.01,35.35-.02,6.07,0,12.24,0,18.48,0,3.12,0,6.27,0,9.43,0,1.58,0,3.17,0,4.76,0,.8.03,1.63.05,2.43.12.8.13,1.63.16,2.41.38,6.38,1.28,12,5.5,14.26,11.02.62,1.36.92,2.81,1.15,4.26.12,1.48.11,2.91.11,4.36,0,2.89,0,5.79,0,8.72,0,11.68,0,23.61.01,35.75,0,12.14,0,24.5,0,37.04,0,3.14,0,6.28,0,9.44,0,1.58,0,3.16-.01,4.75-.05,1.62-.29,3.24-.83,4.8-1.07,3.11-3.12,5.99-5.95,8.15-1.39,1.1-2.97,2.02-4.68,2.72-1.68.74-3.52,1.21-5.38,1.49-1.77.29-3.61.26-5.34.25l-5.27-.04c-3.51-.03-7-.06-10.49-.09-6.97-.06-13.9-.12-20.77-.17-13.76-.11-27.32-.23-40.66-.34-26.68-.23-52.46-.45-77.07-.65-24.62-.21-48.07-.42-70.1-.61-5.63-.03-11.05-2.23-14.68-5.74-3.7-3.47-5.48-8.22-5.27-12.73,0-8.94.02-17.54.03-25.77l.33.28c-14.83-.01-28.35-.03-40.79-.04h-.68s.48-.42.48-.42c16.54-14.39,30.2-26.27,40.86-35.54l-.06.11c.04-11.01.07-19.48.09-25.22.02-2.85.04-5.02.05-6.49.02-1.46.05-2.2.05-2.2,0,0,.03.74.05,2.2.01,1.47.03,3.64.05,6.49.02,5.74.05,14.22.09,25.22v.07s-.06.05-.06.05c-10.63,9.31-24.24,21.22-40.72,35.66l-.2-.42c12.44-.01,25.95-.03,40.79-.04h.33s0,.28,0,.28c0,8.23.02,16.83.03,25.77-.19,4.42,1.53,8.94,5.11,12.3,3.5,3.37,8.72,5.49,14.15,5.51,22.03.17,45.49.35,70.1.54,24.62.2,50.4.4,77.07.61,13.34.11,26.9.22,40.66.33,6.88.06,13.8.11,20.77.17,3.48.03,6.98.06,10.49.09l5.27.04c1.77,0,3.49.04,5.19-.24,7.18-1,13.33-5.81,15.3-11.81.51-1.49.74-3.04.79-4.59,0-1.58,0-3.16.01-4.74,0-3.16,0-6.3,0-9.44,0-12.54,0-24.9,0-37.04,0-12.14,0-24.07.01-35.75,0-2.92,0-5.83,0-8.72,0-1.45.01-2.89-.1-4.28-.22-1.39-.51-2.78-1.1-4.08-2.16-5.29-7.55-9.35-13.66-10.58-3.04-.7-6.25-.42-9.42-.48-3.16,0-6.31,0-9.43,0-6.25,0-12.41,0-18.48,0-12.15,0-23.94-.01-35.35-.02-22.81-.02-44.05-.03-63.45-.05-38.78-.05-70.17-.09-91.88-.12-2.72-.04-5.27,0-7.58.55-2.31.52-4.35,1.37-6.08,2.36-1.72,1.02-3.09,2.2-4.23,3.36-1.07,1.2-1.97,2.36-2.54,3.5-2.37,4.55-1.8,7.35-1.98,7.3Z"/></g><g><path class="cls-5" d="m573.1,209.16c0-10.75,8.38-18.72,19.8-18.72s19.8,7.91,19.8,18.72-8.43,18.72-19.8,18.72-19.8-7.96-19.8-18.72Zm31.13,0c0-6.88-4.86-11.58-11.32-11.58s-11.32,4.71-11.32,11.58,4.86,11.58,11.32,11.58,11.32-4.71,11.32-11.58Z"/><path class="cls-5" d="m616.36,213.35c0-8.38,6.46-14.32,15.31-14.32s15.25,5.95,15.25,14.32-6.41,14.32-15.25,14.32-15.31-5.95-15.31-14.32Zm22.39,0c0-4.81-3.05-7.7-7.08-7.7s-7.14,2.9-7.14,7.7,3.1,7.7,7.14,7.7,7.08-2.9,7.08-7.7Z"/><path class="cls-5" d="m682.59,213.35c0,8.74-6.05,14.32-13.86,14.32-3.46,0-6.31-1.09-8.38-3.36v12.98h-8.07v-37.85h7.7v3.21c2.02-2.43,5.02-3.62,8.74-3.62,7.81,0,13.86,5.58,13.86,14.32Zm-8.17,0c0-4.81-3.05-7.7-7.08-7.7s-7.08,2.9-7.08,7.7,3.05,7.7,7.08,7.7,7.08-2.9,7.08-7.7Z"/><path class="cls-5" d="m685.27,224.67l2.69-5.79c2.48,1.6,6.26,2.69,9.67,2.69,3.72,0,5.12-.98,5.12-2.53,0-4.55-16.8.1-16.8-11.01,0-5.27,4.76-9,12.88-9,3.83,0,8.07.88,10.7,2.43l-2.69,5.74c-2.74-1.55-5.48-2.07-8.01-2.07-3.62,0-5.17,1.14-5.17,2.59,0,4.76,16.81.16,16.81,11.12,0,5.17-4.81,8.84-13.13,8.84-4.7,0-9.46-1.29-12.05-3Z"/><path class="cls-5" d="m714.22,222.97c0-2.64,2.07-4.6,4.96-4.6s4.96,1.96,4.96,4.6-2.07,4.7-4.96,4.7-4.96-2.12-4.96-4.7Zm.16-31.9h9.62l-1.6,23.63h-6.41l-1.6-23.63Z"/></g></g></g></g></svg>