<svg id="Capa_1" data-name="Capa 1" xmlns="http://www.w3.org/2000/svg" viewBox="0 0 489 240.26"><defs><style>.cls-1{fill:#fff;}</style></defs><path class="cls-1" d="M99.71,216.6H95.25v.54h.11c.39,0,.62.11.69.22a1.84,1.84,0,0,1,.12.92v5.2a2,2,0,0,1-.12,1,1.12,1.12,0,0,1-.69.18l-.11,0v.52h4.6a3.77,3.77,0,0,0,2.92-1.2,4.68,4.68,0,0,0,1.11-3.26,3.76,3.76,0,0,0-4.17-4.12Zm1.58,7a2.4,2.4,0,0,1-2.09,1,1.84,1.84,0,0,1-1-.19,1.25,1.25,0,0,1-.22-.9v-6.31h.65a3.57,3.57,0,0,1,2.62.82,3.85,3.85,0,0,1,.77,2.71A5,5,0,0,1,101.29,223.61Z"/><path class="cls-1" d="M110.3,223.69c0,.48-.08.75-.15.8a2.41,2.41,0,0,1-1,.1h-.72a3.41,3.41,0,0,1-.92-.06c-.15,0-.23-.39-.23-1V221h1.22a2.79,2.79,0,0,1,.74.05c.1.05.16.22.17.52v.11h.6v-1.87h-.6v.12c0,.32,0,.51-.11.53a3.83,3.83,0,0,1-.8,0h-1.18v-3.26h1.84a1.45,1.45,0,0,1,.68.09c.11.07.15.21.15.43,0,0,0,.16,0,.35v.1h.86v-1.54h-6.28v.54h.11c.4,0,.62.11.7.22a2,2,0,0,1,.12.92v5.2a2.2,2.2,0,0,1-.12,1,1.13,1.13,0,0,1-.7.18l-.11,0v.52h6.54v-1.61h-.87Z"/><path class="cls-1" d="M29.1,222.91a2.33,2.33,0,0,1-.19,1.08,4.12,4.12,0,0,1-1.3.1h-1a6.22,6.22,0,0,1-1.22-.05c-.2-.06-.31-.5-.31-1.37v-3.41h1.64a3.5,3.5,0,0,1,1,.07c.13.06.21.29.21.7v.11h.81v-2.45H28v.12c0,.47-.07.7-.14.74a5.06,5.06,0,0,1-1.06,0H25.17v-4.32h2.45a1.92,1.92,0,0,1,.92.12c.13.07.21.25.21.56,0,0,0,.18,0,.44v.17h1.14v-2.06H21.56v.71h.14c.52.06.84.13.94.27a2.8,2.8,0,0,1,.16,1.24v6.94a2.92,2.92,0,0,1-.16,1.25c-.11.14-.42.22-.94.26l-.14,0v.7h8.7v-2.13H29.11Z"/><path class="cls-1" d="M36.59,218.18l-.76-.44a4.81,4.81,0,0,1-1.28-.94,1.51,1.51,0,0,1-.32-1,1.73,1.73,0,0,1,.5-1.3A1.66,1.66,0,0,1,36,214a2,2,0,0,1,1.44.55,2.55,2.55,0,0,1,.32,1.35V216h1.15v-2.3a11.66,11.66,0,0,0-3.08-.48,4.16,4.16,0,0,0-2.75.88,2.93,2.93,0,0,0-1,2.33c0,1.24.95,2.39,2.86,3.43l.77.43a4,4,0,0,1,1.27.95,1.88,1.88,0,0,1,.33,1.16,2,2,0,0,1-.56,1.45,2,2,0,0,1-1.48.57,2.64,2.64,0,0,1-1.67-.57c-.23-.18-.35-.61-.4-1.3v-.17H32v2.38a14.83,14.83,0,0,0,3.2.41,4.83,4.83,0,0,0,3.14-.92,3,3,0,0,0,1.16-2.49,2.92,2.92,0,0,0-.6-1.86A8.83,8.83,0,0,0,36.59,218.18Z"/><path class="cls-1" d="M41,215.88h1.13l0-.22a2.16,2.16,0,0,1,.2-1.21,1.64,1.64,0,0,1,.92-.17h1.86v8.39a2.65,2.65,0,0,1-.17,1.25c-.12.14-.49.21-1.11.26l-.15,0v.7h5.23v-.7l-.14,0a3,3,0,0,1-1.1-.2,3.92,3.92,0,0,1-.18-1.31v-8.39h1.86a1.71,1.71,0,0,1,.93.17,2.16,2.16,0,0,1,.2,1.21v.22h1.15v-2.37H41Z"/><path class="cls-1" d="M63.58,224a9,9,0,0,1-.71-1.31l-4.28-9.27H57.8l-4.23,9.25a9.37,9.37,0,0,1-.69,1.34,1.36,1.36,0,0,1-.78.19l-.14,0v.7h3v-.7l-.15,0-.29,0c-.32,0-.48-.07-.48-.26a3.86,3.86,0,0,1,.41-1.24l.58-1.22h4.78l.58,1.21a4.06,4.06,0,0,1,.44,1.24c0,.15-.34.24-1,.29l-.14,0v.7h4.75v-.7l-.1,0A1.55,1.55,0,0,1,63.58,224Zm-8.15-3.29,2-4.43,2.08,4.43Z"/><path class="cls-1" d="M70.79,213.48h-.6l-1.65,0h-3.7v.71H65c.53.06.84.13.94.27a2.86,2.86,0,0,1,.15,1.24v6.94a2.76,2.76,0,0,1-.16,1.25c-.11.14-.4.22-.93.26l-.14,0v.7H71a5,5,0,0,0,3.9-1.61A6.19,6.19,0,0,0,76.31,219a5.49,5.49,0,0,0-1.42-4.07A5.63,5.63,0,0,0,70.79,213.48Zm2.09,9.34a3.16,3.16,0,0,1-2.76,1.27,2.44,2.44,0,0,1-1.38-.23c-.2-.17-.29-.57-.29-1.19v-8.39h.86a4.68,4.68,0,0,1,3.48,1.06,5.2,5.2,0,0,1,1,3.63A6.54,6.54,0,0,1,72.88,222.82Z"/><path class="cls-1" d="M83.41,213.23a5.53,5.53,0,0,0-4.23,1.59,7,7,0,0,0,0,8.77,6.42,6.42,0,0,0,8.46,0,7,7,0,0,0,0-8.77A5.51,5.51,0,0,0,83.41,213.23Zm2.45,9.89a2.95,2.95,0,0,1-4.9,0,9.8,9.8,0,0,1,0-7.85,3,3,0,0,1,4.9,0,9.8,9.8,0,0,1,0,7.85Z"/><path class="cls-1" d="M121.54,218.18l-.77-.44a5,5,0,0,1-1.28-.94,1.46,1.46,0,0,1-.32-1,1.76,1.76,0,0,1,.5-1.3,1.68,1.68,0,0,1,1.24-.53,2,2,0,0,1,1.44.55,2.55,2.55,0,0,1,.32,1.35V216h1.14v-2.3a11.65,11.65,0,0,0-3.07-.48,4.11,4.11,0,0,0-2.75.88,2.9,2.9,0,0,0-1,2.33c0,1.24,1,2.39,2.87,3.43l.75.43a3.81,3.81,0,0,1,1.28.95,1.88,1.88,0,0,1,.33,1.16,1.94,1.94,0,0,1-.56,1.45,2,2,0,0,1-1.48.57,2.64,2.64,0,0,1-1.67-.57,1.87,1.87,0,0,1-.4-1.3v-.17H117v2.38a14.83,14.83,0,0,0,3.2.41,4.87,4.87,0,0,0,3.14-.92,3,3,0,0,0,1.17-2.49,2.88,2.88,0,0,0-.62-1.86A8.5,8.5,0,0,0,121.54,218.18Z"/><path class="cls-1" d="M131.34,213.23a5.55,5.55,0,0,0-4.24,1.59,7,7,0,0,0,0,8.77,5.66,5.66,0,0,0,4.24,1.59,5.59,5.59,0,0,0,4.22-1.59,6.94,6.94,0,0,0,0-8.77A5.48,5.48,0,0,0,131.34,213.23Zm2.46,9.89a2.74,2.74,0,0,1-2.46,1.31,2.7,2.7,0,0,1-2.44-1.31,9.8,9.8,0,0,1,0-7.85,2.75,2.75,0,0,1,2.44-1.29,2.78,2.78,0,0,1,2.46,1.29,10,10,0,0,1,0,7.85Z"/><path class="cls-1" d="M146,214.22h.15c.52.06.84.13.95.27a3.42,3.42,0,0,1,.13,1.24v6.37l-6.27-8.59h-2.87v.71h.15c.53.06.84.13.94.27a2.86,2.86,0,0,1,.15,1.24v6.94a2.76,2.76,0,0,1-.16,1.25c-.1.14-.4.22-.93.26l-.15,0v.7h3.59v-.7l-.12,0c-.53,0-.85-.12-.94-.26a2.76,2.76,0,0,1-.16-1.25v-6.23l6.32,8.63h1.58v-9.34a2.86,2.86,0,0,1,.15-1.24c.11-.14.42-.21.95-.27h.12v-.71H146Z"/><path class="cls-1" d="M156.54,213.23a5.5,5.5,0,0,0-4.23,1.59,6.94,6.94,0,0,0,0,8.77,6.42,6.42,0,0,0,8.46,0,7,7,0,0,0,0-8.77A5.5,5.5,0,0,0,156.54,213.23Zm2.46,9.89a2.74,2.74,0,0,1-2.46,1.31,2.69,2.69,0,0,1-2.44-1.31,9.8,9.8,0,0,1,0-7.85,2.74,2.74,0,0,1,2.44-1.29,2.78,2.78,0,0,1,2.46,1.29,9.91,9.91,0,0,1,0,7.85Z"/><path class="cls-1" d="M185.91,224a11.05,11.05,0,0,1-.72-1.31l-4.26-9.27h-.8l-4.24,9.25a8.34,8.34,0,0,1-.69,1.34,1.31,1.31,0,0,1-.77.19l-.14,0-.14,0a1.67,1.67,0,0,1-.86-.2,9.56,9.56,0,0,1-1-1.29l-2.22-3.1a3.74,3.74,0,0,0,1.65-1.25,3.57,3.57,0,0,0,.54-2c0-1.9-1.17-2.88-3.53-2.88l-.69,0-1.42,0h-3.32v.71h.15c.52.06.82.13.93.27a2.8,2.8,0,0,1,.16,1.24v6.94a2.92,2.92,0,0,1-.16,1.25c-.11.14-.41.22-.93.26l-.15,0v.7h4.56v-.7l-.15,0c-.42,0-.68-.12-.76-.26a3.25,3.25,0,0,1-.14-1.25v-2.76h1l3.17,5h6.43v-.7l-.15,0-.29,0c-.32,0-.49-.07-.49-.26a4.15,4.15,0,0,1,.41-1.24l.57-1.22h4.81l.56,1.21a3.66,3.66,0,0,1,.43,1.24c0,.15-.33.24-1,.29l-.14,0v.7h4.75v-.7l-.1,0C186.28,224.14,186,224.09,185.91,224Zm-16.81-5.54a2.56,2.56,0,0,1-1.9.72h-.43v-4.88h.86a1.94,1.94,0,0,1,2.18,2.2A2.67,2.67,0,0,1,169.1,218.44Zm8.65,2.25,2-4.43,2.08,4.43Z"/><path class="cls-1" d="M132.3,177.88l.07-.11c-1.08.51.27,1.33.79.77S132.77,177.47,132.3,177.88Z"/><path class="cls-1" d="M115.84,166.82c.26.1.51.19.69.28a2.82,2.82,0,0,1,.55.43,4.89,4.89,0,0,0,.41.37,2.2,2.2,0,0,0,1.15.54l.46.1a4.94,4.94,0,0,1,1.15.5,6.09,6.09,0,0,0,1.43.59.88.88,0,0,0,.81.48h.09a1,1,0,0,0,.72-.5h.2a1.25,1.25,0,0,0,.83-.18l.09,0a.58.58,0,0,0,.3-.77.36.36,0,0,1,0-.09,1.11,1.11,0,0,0,0-.19.58.58,0,0,0-.33-.44c-.13-.19-.07-.45.2-1.09a2.88,2.88,0,0,1,.16-.29,3.27,3.27,0,0,0,.31-.66,2.89,2.89,0,0,0,.08-.8,1.47,1.47,0,0,1,0-.37,8.37,8.37,0,0,1,.32-1.13,8.37,8.37,0,0,0,.34-1.17c0-.21.12-.44.19-.68a3.82,3.82,0,0,0,.26-2,9.58,9.58,0,0,0-1-2.39,4.45,4.45,0,0,0-.64-.78,1.61,1.61,0,0,1-.57-.88,5.62,5.62,0,0,1,0-1.11c0-.93.07-1.89-.61-2.34a2,2,0,0,0-1.86.15,6.47,6.47,0,0,0-.7.4,4.41,4.41,0,0,1-1,.47c-.17,0-.33.08-.48.11a2.63,2.63,0,0,0-1.49.72,6.34,6.34,0,0,0-1.32,3.62c0,.18,0,.35-.08.51s-.09.43-.14.66a4.92,4.92,0,0,0-.21,1.79,2.45,2.45,0,0,0,.31.82,1.36,1.36,0,0,1,.24.7c-.08.77-1.33,1.85-2.5,2.43a.58.58,0,0,0-.3.68C114.12,166.21,115.07,166.55,115.84,166.82Zm2-4.51a2.37,2.37,0,0,0-.37-1.36,2.33,2.33,0,0,1-.19-.42,4.17,4.17,0,0,1,.19-1.37,7,7,0,0,0,.16-.74c0-.17.06-.35.08-.53a5.49,5.49,0,0,1,1-3,1.5,1.5,0,0,1,.9-.4,3.47,3.47,0,0,0,.58-.14,4.87,4.87,0,0,0,1.21-.59c.21-.12.4-.24.61-.34a1.49,1.49,0,0,1,.69-.22h0a3.34,3.34,0,0,1,.1,1.31,6.17,6.17,0,0,0,0,1.37,2.61,2.61,0,0,0,.89,1.49,4.26,4.26,0,0,1,.48.57,8.82,8.82,0,0,1,.83,2,2.85,2.85,0,0,1-.21,1.38,6.89,6.89,0,0,0-.23.81,8.49,8.49,0,0,1-.3,1,8.75,8.75,0,0,0-.37,1.29,3.13,3.13,0,0,0,0,.6,2.23,2.23,0,0,1,0,.47,2.42,2.42,0,0,1-.2.39,3.41,3.41,0,0,0-.22.41,2.33,2.33,0,0,0-.17,2.09,1.33,1.33,0,0,0-.38.05.91.91,0,0,0-.41.26.68.68,0,0,0-.41-.22,4.85,4.85,0,0,1-1.29-.52,5.93,5.93,0,0,0-1.39-.59c-.24-.07-.41-.1-.54-.13a1.11,1.11,0,0,1-.67-.32l-.31-.28a4,4,0,0,0-.8-.62,8.77,8.77,0,0,0-.85-.35,5.19,5.19,0,0,1-.93-.39C116.38,164.67,117.71,163.54,117.83,162.31Z"/><path class="cls-1" d="M115.42,171.57a.45.45,0,0,0-.13-.49,1.8,1.8,0,0,0-1.11-.46,1.16,1.16,0,0,0-.76.27.51.51,0,0,0-.15.21c-.42,1.21-.25,2.06.49,2.35a1.64,1.64,0,0,0,.5.1c.94,0,1-1,1.11-1.6A2.53,2.53,0,0,1,115.42,171.57Zm-1,.29a2,2,0,0,1-.16.75s0,0-.19,0-.15-.49,0-1a.57.57,0,0,1,.37.07A1.6,1.6,0,0,0,114.44,171.86Z"/><path class="cls-1" d="M205.74,0H.7A.7.7,0,0,0,0,.7V213.26c0,19.28,17.44,19.83,19.43,19.83h73.3c5.64,0,9.25,5.84,9.29,5.92l.62.93a.67.67,0,0,0,.58.32.7.7,0,0,0,.59-.32l.62-.95c0-.06,3.63-5.9,9.28-5.9H187a22.68,22.68,0,0,0,10.63-2.74c4-2.27,8.79-7.08,8.79-17.09V.7A.7.7,0,0,0,205.74,0ZM205,213.26c0,7.49-2.72,12.83-8.08,15.87a21.22,21.22,0,0,1-9.94,2.56H113.71c-6.43,0-10.31,6.31-10.46,6.55l0,0h0c-.16-.27-4-6.58-10.48-6.58H19.43c-3,0-18-.88-18-18.43V1.4H205Z"/><path class="cls-1" d="M18.92,190.35c0,15.77,14.34,16.22,16,16.22H94.67c4.52,0,7.43,4.68,7.43,4.69l.5.94a.73.73,0,0,0,.62.37.72.72,0,0,0,.62-.37l.48-.91s2.92-4.72,7.45-4.72h59.78a18.76,18.76,0,0,0,8.73-2.24c3.3-1.86,7.24-5.8,7.24-14V19.53a.7.7,0,0,0-.7-.7H19.62a.7.7,0,0,0-.7.7v99.72l-.05.07.05.05Zm152.63,14.82H111.77c-3.84,0-6.57,2.7-7.85,4.29v-89h3.39c0,.06,0,.12,0,.18a2.82,2.82,0,0,0,.27,1.66,4,4,0,0,0,.4.62,1,1,0,0,1,.26.92,3.73,3.73,0,0,1-.26,1,4,4,0,0,0-.29,1.24c0,1.37.58,1.59,1.37,1.74l.44.09c1.49.37,2.22,2.32,2.92,4.2a12.35,12.35,0,0,0,1.39,3c.37.5.76,1.05,1.15,1.59.53.75,1.09,1.53,1.65,2.26a13.72,13.72,0,0,0,1,1.2,6.64,6.64,0,0,1,1.73,2.63A4.19,4.19,0,0,1,119,145c-.35,1-.71,2-.25,2.91.83,1.55,2.29,1.39,3.35,1.28a2.68,2.68,0,0,1,1.36.05,4,4,0,0,1,1.49,2.37,10.19,10.19,0,0,0,.52,1.33,8.37,8.37,0,0,1,.57,1.54c.09.32.19.64.31,1a3.63,3.63,0,0,0,.19.44,1.12,1.12,0,0,1,.16.59,1.27,1.27,0,0,1-.17.36,1.74,1.74,0,0,0-.27.7,4,4,0,0,0,.24,1.5,7.72,7.72,0,0,1,.2.83c0,.17,0,.37.07.57a3.13,3.13,0,0,0,.69,2.1,1.62,1.62,0,0,0,.77.32,2,2,0,0,1,.47.15,2.5,2.5,0,0,1,.35.44l.22.31.49.55.44.48a78.49,78.49,0,0,0-6.71,6.52,26.76,26.76,0,0,0-2.33,3.09c-.55.81-1.08,1.58-1.58,2.19a37.43,37.43,0,0,0-3.28,4.44c-.88,1.47-2.08,3.49,0,5.24a4.4,4.4,0,0,0,2.76.61h1.43a26.46,26.46,0,0,0,3.14-.47l.39-.09a19.62,19.62,0,0,0,5.9-2.07h.08a5.64,5.64,0,0,1,1-.17,6.63,6.63,0,0,0,1.37-.23l.72-.25.09,0c.67-.23,1.43-.48,1.81-.64.87-.35,1.52-.57,2.22-.81l1.84-.66c.79-.3,1.62-.66,2.51-1.07a1.06,1.06,0,0,1,.25.33,1.91,1.91,0,0,0,1.56,1,6.34,6.34,0,0,0,.91,0h.25a.94.94,0,0,1,0,.09,1.39,1.39,0,0,0,.43.76,4.22,4.22,0,0,0,1.94.75,7.15,7.15,0,0,1,.8.2,4.56,4.56,0,0,1,1.2.7c.23.17.47.34.76.52a.63.63,0,0,0,.23.08,2.9,2.9,0,0,0,1.07,2.56c.15.14.31.31.5.51a2.7,2.7,0,0,1,.51.8l.18.38a1.67,1.67,0,0,1,.08.24,1.73,1.73,0,0,0,.4.82,1,1,0,0,0,.88.23h0a1,1,0,0,1,0,.45,2.12,2.12,0,0,0,.12,1.05,2.87,2.87,0,0,0,.75.88,3.44,3.44,0,0,1,.47.47,1.55,1.55,0,0,1,.22.75,2.55,2.55,0,0,0,.2.79,1.59,1.59,0,0,0,.65.7c.05,0,.12.08.13.07a.47.47,0,0,1,0,.16.57.57,0,0,0,.17.54.59.59,0,0,0,.55.14c.64-.18.75,0,1.11.76a3.34,3.34,0,0,0,1,1.35,4.13,4.13,0,0,0,1.19.52,5.26,5.26,0,0,1,.84.33,3.28,3.28,0,0,1,.37.28,2.46,2.46,0,0,0,1.16.64,1.33,1.33,0,0,0,1-.25.53.53,0,0,1,.21-.11,5.47,5.47,0,0,1,.86-.08,7.89,7.89,0,0,0,1.09-.11,5.2,5.2,0,0,1,.11.51,3.05,3.05,0,0,0,1.34,2.15,2.57,2.57,0,0,0,2.71.21,1.66,1.66,0,0,0,.64-1.84.62.62,0,0,0-.27-.38l-.09,0,0-.06.23-.29a.83.83,0,0,0,.07.13,1.9,1.9,0,0,0,1.62,1l.4.07c.19,0,.59.19,1,.33a4.86,4.86,0,0,0,2.59.59,1.29,1.29,0,0,0,.53.45,2.3,2.3,0,0,0,.9.11,1.42,1.42,0,0,1,.43,0,1.5,1.5,0,0,1,.9.71l.11.15A17.7,17.7,0,0,1,171.55,205.17Zm-26.39-46.95c.66.51,6.9-4,7.09-2.4-1.08,0-3.2,1.66-4.66,2.39-.88.43-3.89,2.21-3.49-.1a16,16,0,0,1,2.16-4.53,15.15,15.15,0,0,1,3.38-4c-.7,1.12-2.39,2.77-3,4.15C146.43,154.31,144.61,157.78,145.16,158.22Zm23.73-17a5.52,5.52,0,0,0,3.48,3.46c.62-.65-.21-2.89,1-2.58,0,0,0,0,0,.07-.13.66.06,1.48-.09,2.19a4.65,4.65,0,0,0-.2,1.68c-1.51-1.21-3.41-1.71-4.55-4.14-.89-1.93-1.07-5.09.2-6.91A11.53,11.53,0,0,0,168.89,141.23Zm5,9.07c.1,3.54-2.59,6.17-3.39,7.43-2,3-4.68,4.74-7.38,6.68a6,6,0,0,1-1.27-.47,3.37,3.37,0,0,1,1.49-2.18c1.24-1,2-1.94,3.19-2.94,1.51-1.26,4.12-3.58,4.88-5.33,0,0-7.46,7.6-13.54,10.45a57.17,57.17,0,0,0-10.05,6.32c.56,0,1.94.25,2.49.2,1.54-.15,1.8-.17,3.35-.38a8.82,8.82,0,0,0,2.57-.67c-4.26,3-8.73,5.84-13.08,8.26a20.94,20.94,0,0,1-2.23,1.09c-1.35.55-2.38.77-4.34,1.58-1,.41-3.78,2.08-4.47,1.19-1-1.23-1-.32-2.39.79-2.27,1.78-4.59,2.24-7.24,2.7-.93.16-5.44,1.14-5.2-.63l.1-.1a32.4,32.4,0,0,1,5.72-3.82c2.19-1.18,4.56-2.66,7.12-3.89,2.14-1,4.21-2,6.24-3,3.44-1.71,6.74-3.43,10-5.27,5.74-3.25,10.33-5,14.13-7.44a72.34,72.34,0,0,0,7.73-5.59C169.55,154.11,173.56,150.34,173.85,150.3Zm-8.39,16.57c-1,.79-5,1.82-6.77,1.82s-6.71.7-6.71.7c.5-.5,3.53-1.44,6.21-1.33S166.45,166.08,165.46,166.87Zm-19.54-3.4c1.21-.62,2.42-1.25,3.63-1.9.71-.39,1.74-1.19,2.58-1a3.73,3.73,0,0,1-1.14,1,105.19,105.19,0,0,1-10.17,6.4c-2,1.09-4.18,2.1-6.28,3.21a30.81,30.81,0,0,0-6.41,4.26c-.1-.38.2-.78.48-1.13a22.27,22.27,0,0,1,5-4.34c2-1.31,4.07-2.45,6.05-3.56S143.86,164.52,145.92,163.47Zm40.2,26.88c0,5.9-2.12,10.15-6.28,12.61a3,3,0,0,1-.22-.28,2.67,2.67,0,0,0-1.5-1.13,2.49,2.49,0,0,0-.79-.07,1.24,1.24,0,0,1-.4,0,1.74,1.74,0,0,1-.12-.14,1.59,1.59,0,0,0-.54-.52.53.53,0,0,0-.53,0,.49.49,0,0,0-.22.18,10.41,10.41,0,0,1-1.77-.55,8.53,8.53,0,0,0-1.16-.4l-.44-.07c-.5-.08-.59-.09-.8-.45a1.34,1.34,0,0,1,0-.33,1.32,1.32,0,0,0-.53-1.16,1.21,1.21,0,0,0-1.12.07.6.6,0,0,0-.27.76c.09.21.06.28-.25.66a2.07,2.07,0,0,0-.61,1.46.58.58,0,0,0,.62.56l-.07.06a1.49,1.49,0,0,1-1.39-.18,1.84,1.84,0,0,1-.88-1.44,6.51,6.51,0,0,0-.35-1.21.57.57,0,0,0-.32-.31.58.58,0,0,0-.45,0,4.11,4.11,0,0,1-1.29.2,6.65,6.65,0,0,0-1,.09,1.62,1.62,0,0,0-.63.28c-.13.08-.13.08-.17.07a2.13,2.13,0,0,1-.59-.39,6.28,6.28,0,0,0-.52-.38,6.05,6.05,0,0,0-1-.42,3.68,3.68,0,0,1-.87-.36,2.41,2.41,0,0,1-.6-.91c-.29-.61-.7-1.48-1.78-1.49a1.34,1.34,0,0,0-.59-.66c-.15-.09-.2-.13-.24-.21a1.7,1.7,0,0,1-.09-.45,2.82,2.82,0,0,0-.4-1.23,4.35,4.35,0,0,0-.66-.71,2.57,2.57,0,0,1-.47-.48,1,1,0,0,1,0-.49,1.7,1.7,0,0,0-.35-1.38,1,1,0,0,0-1-.31l-.06-.2a2.22,2.22,0,0,0-.16-.45c-.06-.13-.12-.25-.16-.35a3.88,3.88,0,0,0-.71-1.1l-.53-.54a1.72,1.72,0,0,1-.74-1.48,2,2,0,0,0,.37-.22l.13-.08a.56.56,0,0,0,.3-.37.54.54,0,0,0-.08-.48,1.62,1.62,0,0,0-1.6-.69.62.62,0,0,0-.37.2l-.21-.16a5.78,5.78,0,0,0-1.49-.85,7.43,7.43,0,0,0-1-.25,3.64,3.64,0,0,1-1.41-.48s0-.05-.08-.18a1.19,1.19,0,0,0-.78-.92,1.56,1.56,0,0,0-.65,0c-.21,0-.59,0-.69,0-.53-.08-.59-.19-.74-.45a2.85,2.85,0,0,0-.17-.26c.68-.34,1.39-.71,2.16-1.12l.83-.44a68.65,68.65,0,0,0,10.6-6.53l2.52-1.82.66,0a19.06,19.06,0,0,0,5.19-1.38c1.71-.64,4.47-2.34,4.57-4.16a.48.48,0,0,0-.46-.49h-.14c-.63,0-1.22.05-1.79.1.44-.36.87-.67,1.43-1.08l.07-.06a10.73,10.73,0,0,0,1.88-1.79c.43-.56.77-1,1.06-1.31a13.88,13.88,0,0,0,1.7-2.4,17.77,17.77,0,0,0,2.51-9.37c0-.18,0-.47,0-.78s0-.81,0-1.08c0-.51,0-1-.07-1.54-.06-2.07-.12-4.2-1.75-5.87a14.44,14.44,0,0,1-2.89-3.74c-.06-.12-.11-.27-.18-.46a3.34,3.34,0,0,0-1.09-1.76,1.52,1.52,0,0,0-.82-.26c-1.18,0-1.58,1.46-1.77,2.16a16.3,16.3,0,0,0-.11,7.05c.6,2.38,2.24,3.49,3.84,4.57h0a7.41,7.41,0,0,0-.69.42l-.29.18a8.79,8.79,0,0,0-2.63,2.84c-.3.44-.58.85-.87,1.2a5.34,5.34,0,0,1-2.66,2,13.19,13.19,0,0,1-4,.63h-6a1,1,0,0,1-.29-.85,10.17,10.17,0,0,0-.11-2.23,8.2,8.2,0,0,1-.09-2.09,1.57,1.57,0,0,0-.3-1.29,1.21,1.21,0,0,0-.9-.38c-.27,0-1.09,0-3.15,1.79-2.38,2.07-3.85,4.78-5.27,7.4l-.69,1.26h0a28.86,28.86,0,0,0-4.58,2.3l-1.45.82a37.11,37.11,0,0,0-4.88,3.33c-.22.16-.43.34-.64.5l-.48-.52-.44-.5-.17-.24a2.86,2.86,0,0,0-.6-.7,2.23,2.23,0,0,0-.91-.36l-.28-.07a2.84,2.84,0,0,1-.29-1.32c0-.23,0-.46-.08-.66s-.15-.67-.23-1a3.4,3.4,0,0,1-.2-1.06s.08-.15.12-.23a2,2,0,0,0,.32-.88,2.21,2.21,0,0,0-.27-1.16,2.52,2.52,0,0,1-.14-.33c-.11-.32-.21-.62-.3-.92a9.41,9.41,0,0,0-.63-1.74,9.52,9.52,0,0,1-.47-1.19,5,5,0,0,0-2-3,3.37,3.37,0,0,0-2.07-.2c-1.1.12-1.75.15-2.19-.68-.22-.4.05-1.2.32-2a4.91,4.91,0,0,0,.42-2.93,7.72,7.72,0,0,0-2-3.1c-.33-.35-.66-.72-1-1.12-.54-.71-1.09-1.48-1.62-2.22l-1.17-1.62a11.55,11.55,0,0,1-1.23-2.67c-.77-2.06-1.64-4.4-3.72-4.92l-.52-.11-.36-.07s-.06-.11-.06-.51a3.65,3.65,0,0,1,.23-.87,4.94,4.94,0,0,0,.33-1.35,2.14,2.14,0,0,0-.5-1.67,3.67,3.67,0,0,1-.3-.46,1.65,1.65,0,0,1-.13-1,2.35,2.35,0,0,1,0-.26h77.64Zm0-170.12v97.7l-81.41-97.7Zm-.87,98.84H20.9l82.32-98.45ZM56.32,42.12l.47.53a.4.4,0,0,1,0,.56L44.48,54.12a.76.76,0,0,0-.23.17l-.14.15-.12.11L30.06,66.92a.37.37,0,0,1-.26.1.39.39,0,0,1-.28-.12s0,0,0,0L29,66.36a.42.42,0,0,1,0-.57l1-.87L42.88,53.53,55.76,42.09A.39.39,0,0,1,56,42,.37.37,0,0,1,56.32,42.12Zm-.11-.58a8.51,8.51,0,0,1,2.27-.83,8.42,8.42,0,0,1-1.12,2.21.86.86,0,0,0-.22-.58l-.47-.53A.9.9,0,0,0,56.21,41.54Zm-11.06,13,12.79,11.6a.4.4,0,0,1,0,.56l-.29.33-.18.2a.42.42,0,0,1-.26.12h0a.42.42,0,0,1-.26-.1l-7.58-6.88-5.2-4.73a.39.39,0,0,1,0-.56l.23-.26.09-.1.15-.16a.53.53,0,0,1,.15-.11l.15,0A.38.38,0,0,1,45.15,54.58ZM42.65,53l-.17.19-.3.33a.39.39,0,0,1-.29.13.38.38,0,0,1-.27-.1L37,49.35l-1.74-1.58-1-.93L30.47,43.4a.39.39,0,0,1,0-.56l.47-.52a.43.43,0,0,1,.3-.13.37.37,0,0,1,.26.1l3.71,3.37,1.06,1,1.34,1.22,3.66,3.32,1.39,1.26A.4.4,0,0,1,42.65,53ZM35,48.12l1.86,1.69,4.47,4.07a1.22,1.22,0,0,0,.29.17l-11.32,10-1.51,1.34a.84.84,0,0,0-.29.6.86.86,0,0,0,.21.63l.47.52a.92.92,0,0,0,.25.19.79.79,0,0,0,.4.1.86.86,0,0,0,.57-.21l13.2-11.72a.85.85,0,0,0,.26.48l4.48,4.07,8.31,7.54a.8.8,0,0,0,.57.22.86.86,0,0,0,.59-.23l0,0,.18-.19.3-.33a.87.87,0,0,0-.06-1.22L45.47,54.23a1,1,0,0,0-.25-.15L56.57,44c-.69,1-.43,1.5.82,2.91.76.86,1.34,1.27,1.82,1.27A.7.7,0,0,0,59.7,48c6.18-5.62,4.16-10.58,3.75-11.41a.4.4,0,0,0-.1-.18.43.43,0,0,0-.2-.15,7.32,7.32,0,0,0-3.89-1c-2.59,0-5.23,1.16-7.86,3.43a.76.76,0,0,0-.24.44c-.07.48.26,1.11,1,2s1.36,1.42,1.95,1.42a1.53,1.53,0,0,0,.65-.17L43.21,52.61a.8.8,0,0,0-.27-.53l-1.81-1.65-3.39-3.07-1.21-1.1a7.85,7.85,0,0,1,1.24-1.2c.51-.4,1.66-1.35,2.3-1.12a2.63,2.63,0,0,1,1.14,1.47c.31,1,.12,2.77.74,3.57,1,1.35,1.62-2.22,1.68-2.9.13-1.39,0-2.77.09-4.17a18.7,18.7,0,0,1,.69-4,17.53,17.53,0,0,1,1-3.45,8.4,8.4,0,0,1,2.5-2.88A12,12,0,0,0,50,28.44c.54-.9,1.88-1.81,2.95-1.11s-.67,2.17-1.18,2.9A12.09,12.09,0,0,0,50,33.67a42.51,42.51,0,0,1-1.53,4.45,14.85,14.85,0,0,0-.82,1.71,2.22,2.22,0,0,0,.43,1.9c.82.58.76-1,.84-1.53a3.2,3.2,0,0,1,.71-1.65,2.59,2.59,0,0,0,.76-1.4c.07-.68-.28-1.18-.13-1.86a4.59,4.59,0,0,1,.88-1.49c.43-.69.58-3.22,1.77-3.12.26,1.25-.43,3.49.83,4.1.7-.77.28-2.57.44-3.58.11-.63.46-.92.6-1.49s-.23-1.59.58-1.41a3.54,3.54,0,0,0,.45,1.57c.15.21.39.13.55.33s.12.7.3.83c.55.41.8-.4,1.08.61A15.72,15.72,0,0,1,58,33.43c0,.37,0,1.29.51,1.42s.85-1.08,1.1-1.5a12.84,12.84,0,0,1,1-1.19c.41-.49.74-.77,1.08.14.2.53,0,1.09.37,1.63s.87.76,1.27,1.19a7.48,7.48,0,0,1,.78,1.45A3.23,3.23,0,0,1,64.78,38a9.15,9.15,0,0,1-.3,2.23c-.09.64,0,1.29-.07,1.94-.14,1.41-1.32,2.3-1.56,3.65a22.1,22.1,0,0,0-.06,5.86,34.31,34.31,0,0,1,.13,4.41,10.87,10.87,0,0,0,.3,3.87c.17.47.54.65.91,1s.38.6.73.9c.12-1.3.51-2.08-.09-3.28a7.21,7.21,0,0,1-.36-3.81,37.56,37.56,0,0,0-.22-4c-.07-1.31.62-2.37.74-3.58.09-.88-.34-2.44.08-3.2.76-1.35,1.69.87,1.69,1.62,0,2.23-.76,6,1.19,7.53.35-.55.11-1.16,0-1.72A19.38,19.38,0,0,1,67.76,49a17.53,17.53,0,0,0-.15-3.7c-.15-.55-.58-3.45.38-1.78a15.54,15.54,0,0,1,.66,1.84,20.51,20.51,0,0,1,.95,2,20.32,20.32,0,0,1,.62,6c0,1.7.34,2.91-.37,4.45q-2.34,2.73-4.66,5.47c-.93,1.09-1.87,2.17-2.79,3.27-.28.34-.54,1.07-.95,1.06-.61,0-.6-.93-.61-1.36A8.24,8.24,0,0,1,60.91,65c.13-1.3.33-2.62.45-3.87.14-1.41-1.17-2-1.34-3.28a15.78,15.78,0,0,0-.22-1.94,7,7,0,0,1-.38-1.63c0-1.28-.81-2.12-.74-3.5,0-.94.21-2.61-.84-3.1-.7-.33-.92.06-1,.79a2.84,2.84,0,0,0,.69,1.71A2.42,2.42,0,0,1,58.09,52a3.51,3.51,0,0,0,.22,1.86,10.12,10.12,0,0,1,.37,3.65,2.16,2.16,0,0,0,.39,1.64c.29.4.86.8,1,1.28.34,1-.3,2.49-.36,3.54s0,2.23-.09,3.36c-.06-.06-.26-.1-.36-.19a1,1,0,0,1-1.05.6,4.12,4.12,0,0,1-2.59,2.72c-2.46,1.12-11.16-.08-11.16-.08s-.6-6.7-3.88-6.92-3.79,6.7-3.79,6.7c-.82,1-3.35.67-4.32-.07s-3.06-.68-3.45-1l-.37,0a3.25,3.25,0,0,1-2.56-.62c-.81-.82-.41-2.35-.17-3.33a22.74,22.74,0,0,1,2.92-6.69c.72-1.15,1.42-2.24,2.16-3.36a30.57,30.57,0,0,0,1.9-3.85A13.68,13.68,0,0,1,35,48.12ZM20.32,20.23h81.41L75.17,52a15.31,15.31,0,0,1-.92-1.87c-.14-.36-.25-.75-.35-1.11a7.37,7.37,0,0,0-.75-1.91c-.19-.31-.4-.6-.61-.89a9.44,9.44,0,0,1-1-1.66l-.18-.43a6.6,6.6,0,0,0-1.83-2.84,10.18,10.18,0,0,0-.94-.62,5.13,5.13,0,0,1-1.37-1,4.79,4.79,0,0,1-.69-1.9c-.07-.34-.14-.66-.23-1l-.12-.35c-.65-2-1.45-4.54-3-5.9a6.06,6.06,0,0,0-1.46-.87c-.3-.15-.6-.3-.89-.47a8,8,0,0,1-1.12-.92,11.81,11.81,0,0,0-1-.84,11.69,11.69,0,0,0-5.76-2,4.2,4.2,0,0,0-1.1.13c-1.57.45-2.58,1.92-3.48,3.21-.25.36-.49.71-.73,1a6.72,6.72,0,0,1-1.05,1,7.81,7.81,0,0,0-1.13,1.1,9.65,9.65,0,0,0-1.3,2.66c-.1.27-.2.54-.31.81a13.59,13.59,0,0,1-3.64,5.45,44.17,44.17,0,0,0-4.69,4.54L31.79,42a.85.85,0,0,0-.58-.23,1.46,1.46,0,0,0-.22,0c1.15-1.24,4.33-4.45,7.26-5.12a.47.47,0,0,0,.35-.39l0-.32a.31.31,0,0,0,0-.1.47.47,0,0,0-.46-.47h0a14.41,14.41,0,0,0-8.68,4,1.1,1.1,0,0,0-1-.68,1.64,1.64,0,0,0-1.16.64,1.45,1.45,0,0,0-.49,1.43,1.15,1.15,0,0,0,.72.69,14.5,14.5,0,0,0-3.22,9,.47.47,0,0,0,.18.36.48.48,0,0,0,.28.1l.12,0,.34-.09a.45.45,0,0,0,.35-.39c.38-2.82,3-6.08,4.25-7.48a.87.87,0,0,0,.27.77L34,47.22A93.9,93.9,0,0,0,26.85,58.8a34.76,34.76,0,0,0-2.91,6.34c-.7,2.28.13,3.82,2.6,4.85a10.59,10.59,0,0,0,2.82.67,7.8,7.8,0,0,1,2.49.8,8.89,8.89,0,0,0,3.84.87,14.45,14.45,0,0,0,3.48-.5l.7-.22a12.82,12.82,0,0,1,2.86-.71c.18,0,.23,0,.23,0a2.21,2.21,0,0,1,.16.35,1.07,1.07,0,0,0,.8.82,3.45,3.45,0,0,0,.85.08h.56a6.9,6.9,0,0,1,1,0,38.22,38.22,0,0,0,4,.24h0c.39,0,.79,0,1.19,0a27.74,27.74,0,0,0,4.32-.61l1.27-.24a7.56,7.56,0,0,1,.94,0h.74L20.32,117.58Zm0,100.24h82.2v89c-1.27-1.58-4-4.29-7.85-4.29H34.89c-2.43,0-14.57-.71-14.57-14.82Z"/><path class="cls-1" d="M57.55,62.18c-.09-.2-.33-.36-.43-.54-.17-.34-.1-.54-.36-.84s-1-.63-1.43-1a3.11,3.11,0,0,1-.95-1.59c-.16-.49-.54-1-.69-1.48-.37-1.25.32-2.59.06-3.86s-1.54-1-1.92-1.88c-.14-.32.19-1.17-.28-1.35-.22-.09-.79.43-1,.63a7.73,7.73,0,0,0-.67,1.19c-.23.38-.64.6-.86.94a6.59,6.59,0,0,0-.64,2.6c.55.09,1.36-.31,1.83,0,.68.39.11,1.25.54,1.7s1,.05,1.41.45a4.41,4.41,0,0,1,.9,1.7c.24.64.42,1.31.65,1.94s.44.82,1.14,1.13a2.44,2.44,0,0,1,1.34,1.39c.29.64.67.56,1.1,1.06s.12,1,1,1h.07c-.16-.53-.34-1-.5-1.57S57.73,62.61,57.55,62.18Z"/><path class="cls-1" d="M179.74,29.28s-.1,0-.1,0a1.77,1.77,0,0,1-.06-.46,1.79,1.79,0,0,0,0-.36,3,3,0,0,0-.22-.66,2.24,2.24,0,0,1-.24-.86.24.24,0,0,0-.19-.24.92.92,0,0,0-.86.43c-.11.13-.21.25-.33.25h0c-.12-.05-.31-.56-.38-.77a4.2,4.2,0,0,0-.21-.49c-.34-.56-.65-.82-1-.82s-.67.3-1,.62c-.17.16-.33.33-.5.46a4.11,4.11,0,0,0-2.56-1.52,1.07,1.07,0,0,0-.51.12,2.56,2.56,0,0,0-.85,1c-.4.67-.62.91-1.18.53a2,2,0,0,1-.43-.4,1.51,1.51,0,0,0-1.27-.64,1.42,1.42,0,0,0-1,.65,3.68,3.68,0,0,1-.39.4.84.84,0,0,1-.42.23.66.66,0,0,1-.26-.1,1.93,1.93,0,0,0-.69-.25,1.11,1.11,0,0,0-1.08.53,1.38,1.38,0,0,1-.52.44.82.82,0,0,1-.67-.05,3,3,0,0,0-.39-.12,3,3,0,0,0-.39-.05,1.06,1.06,0,0,1-.66-.21.64.64,0,0,1-.23-.3c-.11-.22-.25-.51-1-.34a1.92,1.92,0,0,0-1.1.93c-.26.37-.49.69-.9.69h0a1.26,1.26,0,0,1-.73-.52,1.43,1.43,0,0,0-1.26-.65,1.37,1.37,0,0,0-.85.59,1.25,1.25,0,0,1-.4.37c-.31.14-.65,0-1-.23l-.3-.16c-.14-.07-.29-.17-.46-.27a2.42,2.42,0,0,0-1.24-.51h0a1.24,1.24,0,0,0-1.06.8,2.49,2.49,0,0,1-.29.43,1,1,0,0,1-.82.35,4.57,4.57,0,0,1-.72-.09,4,4,0,0,0-.75-.1,1.19,1.19,0,0,0-1.05.54,2.66,2.66,0,0,0-.37,1.1c-.1.56-.15.67-.34.67a1.77,1.77,0,0,1-.66-.22l-.3-.18a1.07,1.07,0,0,0-.59-.25.85.85,0,0,0-.63.35,1.61,1.61,0,0,0-.34.66c-.08.29-.14.46-.45.56a2,2,0,0,1-1.23-.14c-.46-.15-.89-.23-1.14,0a1.63,1.63,0,0,0-.28,1.17,3.5,3.5,0,0,0,.07.57,2.21,2.21,0,0,1,0,1c-.09.15-.3.22-.66.22h-.35a3.22,3.22,0,0,0-.43,0,.23.23,0,0,0-.23.19,2.05,2.05,0,0,0,.28,1.26,2.09,2.09,0,0,1,.24.81c0,.25-.16.4-.42.61a1.12,1.12,0,0,0-.56.9.88.88,0,0,0,.45.77c.19.13.28.18.09.66a1.59,1.59,0,0,1-.14.26.88.88,0,0,0-.14.81,1.91,1.91,0,0,0,.66.76,2.32,2.32,0,0,1,.61.69.27.27,0,0,0,.07.08c0,.05,4.62,3.61,6.6,8.14l-.16,0a1.19,1.19,0,0,0-1.13.87,1.46,1.46,0,0,0-.22,2.06.9.9,0,0,0,.5.38l.87.27c-.35,1.18-.73,2.34-1.15,3.44a13.6,13.6,0,0,1-1.74,3.52,4.18,4.18,0,0,1-.36.34c-.32.26-.69.57-.67,1s.34.63.63.85a1.2,1.2,0,0,1,.45.45.82.82,0,0,1-.15.58,1.13,1.13,0,0,0-.15.87c.1.33.51.59.91.84l.37.24.29.26a1.84,1.84,0,0,0,1.1.61,1.39,1.39,0,0,0,.51,0s.06,0,0,0a1.56,1.56,0,0,1,.25.35q.19.33.33.6a1.87,1.87,0,0,0,1.76,1.31,2.09,2.09,0,0,0,0,.25,1.78,1.78,0,0,0,1.38,2.15c.18.08.35.16.49.24a2.93,2.93,0,0,1,.39.3,2.37,2.37,0,0,0,.87.54,2,2,0,0,0,.65,0,1,1,0,0,1,.71.07,1.37,1.37,0,0,1,.08.31A1.46,1.46,0,0,0,154,73c.21.35.33.42.56.47a1.06,1.06,0,0,1,.28.1c.39.23.38.26.29.5a1.81,1.81,0,0,0-.15.72c0,.9.69,1.1,1.29,1.27l.11,0a1.19,1.19,0,0,0,1.27-.22,2.71,2.71,0,0,1,.38-.27c.48-.28.58-.24,1,.17.1.11.2.22.33.34a1.13,1.13,0,0,0,.78.4,1.12,1.12,0,0,0,.39-.09.73.73,0,0,1,.42-.06,1.37,1.37,0,0,1,.56.29,1.67,1.67,0,0,0,1,.42h.07a8.2,8.2,0,0,0,1.3-.14c.26,0,.52-.08.77-.1a10.78,10.78,0,0,0,1.42-.23l.34-.07a.8.8,0,0,1,.73.2,1.43,1.43,0,0,0,.83.34.79.79,0,0,0,.44-.17.69.69,0,0,1,.34-.14,1.38,1.38,0,0,1,.67.25l.39.26a1.89,1.89,0,0,0,1.23.48h.18a2.06,2.06,0,0,0,1.74-1.35h.85a2.73,2.73,0,0,0,.95-.12.91.91,0,0,0,.62-.93.87.87,0,0,1,.15-.5,1.41,1.41,0,0,1,.49-.29,2,2,0,0,0,.81-.54,2.42,2.42,0,0,0,.42-1.79.89.89,0,0,0-.42-.56c-.88-2.81-1.93-6.17-2.87-9.28a1.41,1.41,0,0,0-.13-2,4.47,4.47,0,0,0-.63-.52c-.57-1.93-1.07-3.64-1.42-4.91l.8-.2a1,1,0,0,0,.59-.48,2.42,2.42,0,0,0,.24-2,1.1,1.1,0,0,0-.43-.45,1,1,0,0,0-1-1.08l-.19,0a37.06,37.06,0,0,1,4-8c.71-1.18,1.44-2.39,2.09-3.6l.15-.3c.71-1.31,1.43-2.67,2.23-4a3.91,3.91,0,0,1,.3-.45,4.12,4.12,0,0,0,.63-1.09,6.1,6.1,0,0,0-.91-3.93A.64.64,0,0,0,179.74,29.28Zm-33.5,23.1c-.53-.83.23-.76.3-1.21,0-.23.16-.28.26-.28a.52.52,0,0,1,.2,0l.35.05c1.21.19,2.41.35,3.58.49a4.22,4.22,0,0,0,.29.7.44.44,0,0,0,.41.26h.09a.48.48,0,0,0,.38-.43l0-.4a103.25,103.25,0,0,0,10.5.53h1.12a5.39,5.39,0,0,1-.38,1.3c-.91,0-1.81,0-2.71-.09-1.38-.14-2.78-.26-4.18-.29s-2.79,0-4.18,0l4.16.34c1.4.11,2.76.24,4.16.39.85.06,1.7.07,2.55.05-.06.12-.13.24-.2.36l-.25.4a.45.45,0,0,0,0,.42,61.51,61.51,0,0,1-15.61-2.38Zm5.94-1.82a5.84,5.84,0,0,1,11.65.52A76.91,76.91,0,0,1,152.18,50.56Zm22.46,21.76c-.07.91-.78,3.19-1.9,2s-.76-3.89-1-5.45a19.44,19.44,0,0,0-1.3-4.75c-.5-1.13-1-1-.83.15a34.68,34.68,0,0,0,1.38,5.6,19.57,19.57,0,0,1,.6,3c.11.7.47,1.64.08,2.32a1.59,1.59,0,0,1-1.51.51c-.42-.21-.53-1.16-.64-1.55a50.9,50.9,0,0,1-1-5.61c-.2-1.28-.26-2.57-.46-3.85-.17-1.09-.34-3.35-1.18-4.07,0,.23-.09.48-.1.7a17.64,17.64,0,0,0,.82,5c.49,2.12.18,4.41.4,6.59.06.62.32,1.67-.32,2s-1.11-.32-1.19-.91c-.14-.91-.06-1.86-.17-2.77-.2-1.66,0-3.63-.44-5.22-.85,2-.32,4.58-.22,6.73,0,.78.45,2.37-.46,2.77s-1.32-.62-1.65-1.2c-.4.48-.69,1.23-1.43.88s-.37-1.26-.39-2c0-1.09-.1-2.26-.16-3.38s.3-2.85-.23-3.93c-1.13.56-.23-1.19-1.11-1.08-.07-.27-.18-.29-.37-.43a10.67,10.67,0,0,0-.93,3.16,24.28,24.28,0,0,0-1.06,4.17c0,.62.2,1.57-.16,2.1s-1.08.27-1.4-.32c-.18-.32-.09-2-.4-2-.53.11,0,1.27-1,1,0-1.17-.07-2.2,0-3.38,0-.68.75-3.11.14-3.56-1.09-.78-2.36,3.52-2.56,4.14-.42-.4-1.15-.18-1.58-.6a1.69,1.69,0,0,1-.38-1.42,8.64,8.64,0,0,1,.7-2c.34-1,.71-2,1.05-3,.47-1.35.59-2,1-3.39.08-.23,1.76-3.54.55-3.16-.34.11-.74,1.48-.9,1.81-.47,1-.86,1.94-1.25,2.93s-1,2.05-1.42,3.11-.44,2-.77,2.85c-.67-.3-1.69-.39-1.72-1.35,0-.71.75-1.46,1.08-2a17.83,17.83,0,0,0,1.41-3.11c.32-1,.59-2,.9-3,.21-.67.57-.84.16-1.51-1,.6-1.1,2.4-1.64,3.38-.74,1.33-1.59,2.66-2.23,4-.21.45-.24,1.37-.74,1.6a1,1,0,0,1-1.21-.54c-.37-1,1.3-1.52,1.12-2.56-.42.24-1.88,1.48-1.78.07.06-.86,1.31-1.11,1.64-1.74.23-.42.1-.84.23-1.28a7.52,7.52,0,0,1,.68-1.21c.46-1,0-3.69,1.06-3.48s2,.41,3,.58A82.1,82.1,0,0,0,163.28,56h.43l1.63,1.37a1.1,1.1,0,0,0,0,.75c.23.73,1.16,1.1,2,1.37a8.09,8.09,0,0,1,2.14,1.94,10.44,10.44,0,0,0,2,1.94,2,2,0,0,0,.56.22c.43,1.39.92,2.73,1.42,4.08A12.88,12.88,0,0,1,174.64,72.32Zm-1.23-11.63s0,0,.05.06a.94.94,0,0,1,.29,1.08,1.38,1.38,0,0,1-.44.54s-.28.75-.94.75a1.06,1.06,0,0,1-.46-.11l-.16-.08c-1.21-.71-3.12-3.58-4.28-3.93-.91-.28-1.86-.68-1.74-1.35a.7.7,0,0,1,.08-.23,1.51,1.51,0,0,1,.12-.2l0,0,.33-.33h0l.26-.41h0a1.17,1.17,0,0,1,.15-.16.58.58,0,0,1,.19-.14.56.56,0,0,1,.3-.08c.53,0,1.05.72,1.47,1.43a7.59,7.59,0,0,0,2.56,1.81A11.6,11.6,0,0,1,173.41,60.69ZM168,55.88a22.35,22.35,0,0,0,2.36-.25,16.73,16.73,0,0,0,.74,3,6.78,6.78,0,0,1-2-1.43A4.72,4.72,0,0,0,168,55.88Zm3.94-4.18c.23,0-.07.83.46.91s-.08,1.28-.08,1.28l-.79.2a33.39,33.39,0,0,1-5.8.85l-.54-.54.09-.2a4.67,4.67,0,0,0,.27-.49c1.15-.09,2.31-.23,3.45-.43l-2.09.07-1.21,0a7.47,7.47,0,0,0,.44-1.31c2.64-.09,4.53-.25,5.35-.33ZM179.27,33a5.16,5.16,0,0,1-.91,1.67c-1.37,2.19-2.3,4.63-3.51,6.88-1.1,2-2.24,4-3.3,6.06-.51,1-.91,2.69-2,3.15,0,0-1.24.11-3.2.21,0-.26,0-.52,0-.77a7.83,7.83,0,1,0-15.66,0v.11c-.54-.09-1.06-.19-1.58-.31-1.21-.26-2-2.76-2.43-3.92a9.84,9.84,0,0,0-2.48-3A36.87,36.87,0,0,1,141.69,40c-.94-1.17-.94-1.65-.27-2.95a12.59,12.59,0,0,1,2.64,3.06c.36.52.6,1.47,1.13,1.82.87.57.7-.37.5-1-.38-1.16-1-2.3-1.47-3.4s-1.73-2.18-1.3-3.47a4.68,4.68,0,0,1,.74-1.46c.42-.52.78-.89,1.26-.51,1.16.93,1.18,3,1.79,4.24s.52,2.52,1,3.77c.52,1.41,1.2,2.64,1.66,4.08.22.7,1.39,3.6,1.49,1.36.07-1.4-.79-2.37-1-3.7s-.76-2.74-1.15-4.08A21.1,21.1,0,0,0,147.53,34c-.53-1.08-1.1-1.87,0-2.79.75-.62,1.62-.92,2.21-1.81.93.63,1,2,1.73,2.86,1.32,1.63.25-1.81.5-2.29.68-1.34.92.93,1.77.57.5-.22.49-.89,1.11-.93s.54.49,1.05.69c0,.87.94,1.75.37,2.61-.24-.26-.25-.57-.58-.64a24.52,24.52,0,0,0,.28,5.06,19,19,0,0,0,.75,2.85c.22.64.35,1.71.87,2.19.68-.29.4-2.87.36-3.56-.07-1.34-.36-2.64-.53-4a9.31,9.31,0,0,1,.08-2.74c.13-.92-.42-1.69-.22-2.55.93-.1.88.69,1.56-.25.44-.61.54-1,1.23-.37.49.48.37.87,1.21.63s1-.68,1.05.43c.15,2.35-.25,4.78-.22,7.15a32.35,32.35,0,0,0,.31,4.63,7.74,7.74,0,0,0,.36-2.87,26.78,26.78,0,0,0,.14-3.47,22,22,0,0,1,.09-5.07c.16-.83.35-2.45,1.42-1.64.18.15.32.51.53.61.43.21.2,0,.6,0s.2-.35.55,0,.1,2,.08,2.51c-.06,1.19-.25,2.36-.31,3.55a25.14,25.14,0,0,0-.14,4.58c.62-.17.58-1.77.69-2.31.17-.86.35-1.71.5-2.57a40.57,40.57,0,0,0,.61-4.89c.06-.92.59-3.29,1.57-1.7.89,1.44.32,3.77.18,5.39-.13,1.38-.42,2.72-.61,4.07a10.38,10.38,0,0,0-.45,2.84c.55-.11.8-2.56,1-3.22A23.76,23.76,0,0,0,169.9,35a34.44,34.44,0,0,1,.72-4.26c.25-.76,1-2.91,1.68-3.09,2.16-.5,1.13,2.7.92,3.73-.38,1.85-.74,3.74-1.3,5.57-.36,1.21-1.16,2.66-1.12,3.92.61-.43,1.16-2.88,1.43-3.65.43-1.27.6-2.56,1-3.82s.59-4.27,2.17-4.75c.49.85-.07,2.32-.19,3.24-.21,1.52-1.12,3.1-.91,4.68.92-.44,1-2.2,1.27-3.08a10.84,10.84,0,0,1,.83-2.36c.24-.43.85-1.64,1.46-1.29.31.18.52,1.32.88,1.67s.41,0,.61.53A1.62,1.62,0,0,1,179.27,33Z"/><path class="cls-1" d="M74.49,82.93a31.67,31.67,0,0,1,.21,5.75,10,10,0,0,1-.28,1.74c-.08.38-.16.77-.22,1.17-.11.76-.37,2.51.8,3.32a27.28,27.28,0,0,0,4.31,2.32c0,.42,0,.85-.08,1.3a11.38,11.38,0,0,0,.22,4.11l0,0a3.72,3.72,0,0,1,.24,2.12s-.15.22-.23.34a2.12,2.12,0,0,0-.62,1.83,1.12,1.12,0,0,0,.26.41,1,1,0,0,0,.21.47,1.3,1.3,0,0,0,.1,1.52l0,0a2.4,2.4,0,0,1,0,.66,2.79,2.79,0,0,1-.14.47,1.93,1.93,0,0,0,.13,1.9,7.82,7.82,0,0,0,.9,1l.32.32A8.86,8.86,0,0,0,82.27,115l.51.35.27.23a2.52,2.52,0,0,0,.86.57,1.74,1.74,0,0,0,.64.13,1.93,1.93,0,0,0,.68-.14l.28-.09.39,0a2.5,2.5,0,0,0,1-.3,1,1,0,0,1,.39-.08,2.9,2.9,0,0,0,.78-.17,1.2,1.2,0,0,0,.85-1c.11-.86-.81-1.54-1.63-2.14-.18-.14-.43-.32-.49-.39a3.06,3.06,0,0,1-.24-.45c0-.13-.11-.26-.18-.4a3.79,3.79,0,0,1-.21-.48,5.09,5.09,0,0,0-.72-1.36l.06-.16a.72.72,0,0,0,0-.35.61.61,0,0,0,.14-.29,3.67,3.67,0,0,0,.09-.85v0a1,1,0,0,1,0-.24,1.84,1.84,0,0,0,0-.38,2.54,2.54,0,0,0-.17-1,3.61,3.61,0,0,1-.1-.38,1.73,1.73,0,0,1,.16-.73,2.25,2.25,0,0,1,.08-.24,10.61,10.61,0,0,0,.54-3.3.65.65,0,0,1,0-.17.54.54,0,0,1,.11.23,2.51,2.51,0,0,1,0,1,5.43,5.43,0,0,0-.08.83c0,.63,0,1.26,0,2a1.85,1.85,0,0,0,.46,1.22,1,1,0,0,0,1.5,0,1.08,1.08,0,0,0,1,.68,1.19,1.19,0,0,0,.89-.45l.07-.09a1.71,1.71,0,0,0,1.39,1,1.09,1.09,0,0,0,.26,0,1.33,1.33,0,0,0,.38-.17,1.22,1.22,0,0,0,.73.41,2.09,2.09,0,0,0,.47.06,1.29,1.29,0,0,0,.82-.26.83.83,0,0,0,.67.32.93.93,0,0,0,.73-.4,1.19,1.19,0,0,0,.13,1.43,2.38,2.38,0,0,0,.44.4v.08c0,.18-.05.36-.07.55a4.24,4.24,0,0,0,.17,2.49l0,.07A5.35,5.35,0,0,0,98.14,115c.44.31.89.67,1.32,1l.67.52a1.8,1.8,0,0,0,1.13.46,2.84,2.84,0,0,0,.66-.1,1.4,1.4,0,0,0,1-.7l.23,0h0a.71.71,0,0,0,.63-.39,3.29,3.29,0,0,0-.13-2.21l0-.15a4.08,4.08,0,0,0-1-1.8,4.18,4.18,0,0,1-.68-1.37l0-.08a6.59,6.59,0,0,1-.3-1,1.11,1.11,0,0,0,.41-.6,1.62,1.62,0,0,0-.06-1,.53.53,0,0,0,.08-.15,1.11,1.11,0,0,0,0-.9.74.74,0,0,0,.13-.3,1.89,1.89,0,0,0-.4-1.42,1.45,1.45,0,0,1-.18-.35,2.31,2.31,0,0,1,.35-.55l.24-.34a4.06,4.06,0,0,0,.76-1.79c0-.14,0-.28,0-.42a3.23,3.23,0,0,1,0-.47,4.32,4.32,0,0,1,.6.21,4.31,4.31,0,0,0,1.56.37l.35,0a5.32,5.32,0,0,0,3-1.34,5.39,5.39,0,0,0,1.07-5.81,6,6,0,0,0-1.83-1.91,3.81,3.81,0,0,0-1.13-.42,3,3,0,0,1-.72-.24l0,0a2.24,2.24,0,0,0-.15-.38,3.29,3.29,0,0,0-.38-.53,1.11,1.11,0,0,1-.22-.3,3,3,0,0,1,.09-.88,5.16,5.16,0,0,0,.12-.93c0-.85.08-1.69.15-2.5.06-.56.11-1.14.14-1.72a5.09,5.09,0,0,0-.16-1.69c-.07-.21-.15-.39-.22-.55a2.07,2.07,0,0,1-.21-.62,8.55,8.55,0,0,1,.17-2.29l.06-.44c.06-.38.1-.75.13-1.12a11.75,11.75,0,0,1,.25-1.74c.11-.4.26-.79.42-1.21a10.59,10.59,0,0,0,.53-1.62c.07-.39.13-.78.18-1.15a11.61,11.61,0,0,1,.32-1.7,10.21,10.21,0,0,0,.58-3.22,6.61,6.61,0,0,0-.59-2.35l-.18-.46c0-.15-.11-.29-.17-.44a2.83,2.83,0,0,1-.33-1.54,11.22,11.22,0,0,1,.77-2.05l.15-.34a2.46,2.46,0,0,1,.41-.58,2.26,2.26,0,0,0,.68-2,5.1,5.1,0,0,0-.19-.77,3,3,0,0,1-.16-.62,1.83,1.83,0,0,1,.09-.47,2.75,2.75,0,0,0,.15-.84,5.31,5.31,0,0,0-.55-2c-.12-.28-.23-.54-.31-.78s-.07-.24-.1-.37a4.78,4.78,0,0,0-.34-1,3.22,3.22,0,0,0-.46-.61,9.45,9.45,0,0,0,.77-2.48l0-.17c0-.18.07-.36.1-.54.12-.72.19-1.08.63-1.35a8.78,8.78,0,0,1,1.39-.63c.31-.11.62-.24.94-.38l.18-.07c.44-.17,1.17-.46,1.31-1.24.19-1-.83-1.3-1.16-1.39l-.18,0-.39-.1a6.9,6.9,0,0,1-.78-.25c.5-.42.73-.63.68-1a.73.73,0,0,0-.35-.52,4,4,0,0,1,.44-.63,5.88,5.88,0,0,0,.35-.51l.13-.24a1.82,1.82,0,0,1,.48-.66,2,2,0,0,1,.32-.21,2.53,2.53,0,0,0,1-.86.7.7,0,0,0,0-.77,1.89,1.89,0,0,0-1.28-.71c-.33-.07-.45-.11-.51-.21s-.07-.18.13-.62A2.55,2.55,0,0,0,111,33a.7.7,0,0,0-.66-.66h-.1a2.89,2.89,0,0,0-1.14.28,2.25,2.25,0,0,1-.54.15h0c-.12-.08-.4-.31-.59-.47-.64-.54-.94-.78-1.31-.78a.66.66,0,0,0-.37.1.93.93,0,0,0-.5.72c-.1.74.62,1.48,1.49,2.3l.19.19.14.17c.49.63.74,1,.66,1.55a2.69,2.69,0,0,1-.3,1,1.36,1.36,0,0,0-.12-.12A1.06,1.06,0,0,0,107,37c-.29,0-.78.14-.84,1.08a2.21,2.21,0,0,0,.29,1.1,2,2,0,0,1,.14.32,1,1,0,0,1,0,.68l-.14,0a3.68,3.68,0,0,1-.8-.39,3.48,3.48,0,0,0-1.75-.64c-.29,0-.63,0-1,0a6.34,6.34,0,0,0-2.21.32,4.66,4.66,0,0,0-.68.32l-.2.11c0-.1.09-.43.15-.67.3-1.13.53-2-.08-2.45a1,1,0,0,0-.56-.18,1.14,1.14,0,0,0-.72.29,1.77,1.77,0,0,1-.24-.41c-.27-.72-.09-1,.67-1.74l.11-.11a4,4,0,0,0,1.35-2.41,1.49,1.49,0,0,0-.14-.56h0a.33.33,0,0,0-.21-.3l-.09-.09a.66.66,0,0,0-.47-.19h0a.72.72,0,0,0-.49.22l-.25.29c-.28.32-.7.82-1,.84-.08,0-.26-.13-.39-.2a2.39,2.39,0,0,0-1.1-.39,1,1,0,0,0-.94.78,1.76,1.76,0,0,0,.3,1.15,2.63,2.63,0,0,1,.12.24l0,.12a2,2,0,0,1,.11.56c-.05.11-.28.19-.61.29a2.91,2.91,0,0,0-.89.39.72.72,0,0,0-.29.58,1.63,1.63,0,0,0,1.2,1.48,1.89,1.89,0,0,1,.41.22,4.52,4.52,0,0,1,.51.71,5.15,5.15,0,0,0,.47.68,4.59,4.59,0,0,1,.32.46.91.91,0,0,0-.22.81.8.8,0,0,0,.2.4,1.19,1.19,0,0,1-.28,0h-.37l-.3,0h-.12a1.41,1.41,0,0,0-1.46.8,2.23,2.23,0,0,0,.77,2.22,5.14,5.14,0,0,0,2.12,1.18L98,45c1,.38,1,1.16.66,2.86a10.89,10.89,0,0,0-.18,1.35,3.07,3.07,0,0,0,.1.89,2.15,2.15,0,0,1,.07.53c0,.15,0,.15-.12.3a3,3,0,0,0-.33.48,11,11,0,0,0-.93,3.26.9.9,0,0,1-.06.14,2.21,2.21,0,0,0-.19.38,3.34,3.34,0,0,0,.07,2.06,4.57,4.57,0,0,1,.16.84c0,.47,0,.47-.74.65l-.37.09a5.55,5.55,0,0,1-1.37.13,7.71,7.71,0,0,0-1.25.08,13.26,13.26,0,0,0-2.13.54l-.46.14a12,12,0,0,0-4,2.54c-.45.37-.86.73-1.29,1a6.08,6.08,0,0,0-.47.39,2.4,2.4,0,0,1-.41.35,3.06,3.06,0,0,1-.48.24,3.35,3.35,0,0,0-.94.53,6.12,6.12,0,0,1-1.42.92,3.07,3.07,0,0,1-.34.14,2.18,2.18,0,0,0-1.23.88c-.08.11-.13.21-.18.29l0,.08h0l-.13.07a5.78,5.78,0,0,0-2.32,2,2.46,2.46,0,0,0-.3.77,1.07,1.07,0,0,1-.16.4,3.11,3.11,0,0,1-.23.28,3.74,3.74,0,0,0-.58.84A9.69,9.69,0,0,0,75.86,73a8.9,8.9,0,0,1-.4,1.17c-.09.2-.18.4-.27.58A11.2,11.2,0,0,0,74.37,77a15.52,15.52,0,0,0,.09,5.73ZM85.59,101a.09.09,0,0,0-.06,0,5.32,5.32,0,0,0-.32,1.12c0,.13,0,.26-.07.39a4.28,4.28,0,0,1-.13.66,4.63,4.63,0,0,1-.19.56l-.15.46a2.5,2.5,0,0,0-.14,1.16l0,0h0a.11.11,0,0,0,0,.15l.15.2a2.59,2.59,0,0,1,.37.64c.05.17,0,.27,0,.3s-.08.1-.28.14a.09.09,0,0,0-.07,0l-.1.07a.34.34,0,0,0,0,.22.27.27,0,0,0,.11.18l.06,0a.63.63,0,0,1,.14.53.58.58,0,0,1,0,.17l0,0-.08,0a.35.35,0,0,0-.14,0,.33.33,0,0,0-.24.1.34.34,0,0,0,0,.48.52.52,0,0,0,.11.1c.06.07.1.16,0,.34a.56.56,0,0,1-.22.19l-.07,0,0,0a.32.32,0,0,0-.23-.09h-.07a.34.34,0,0,0-.26.4.33.33,0,0,1,0,.18.22.22,0,0,1-.13.06h0a.44.44,0,0,1-.35-.15.26.26,0,0,0-.22-.24h0a.27.27,0,0,0-.26.23c0,.11-.07.14-.11.15l-.12,0a.57.57,0,0,1-.18,0,.54.54,0,0,1-.26-.21.34.34,0,0,1,0-.31s0,0,0-.06a.11.11,0,0,0-.12-.11h-.06l0,0h0a.57.57,0,0,0-.11.25.58.58,0,0,0,0,.32.79.79,0,0,0,.39.44.8.8,0,0,0,.44.13l.17,0a.48.48,0,0,0,.21-.09l.14.11a1.16,1.16,0,0,0,.57.15A.77.77,0,0,0,84,110a.64.64,0,0,0,.08-.14.82.82,0,0,0,.29-.07.54.54,0,0,0,.13-.07,8.6,8.6,0,0,1,.67,1.32l.12.27a5.86,5.86,0,0,0,1.12,1.79,3,3,0,0,0,.67.5l.2.12,0,0c.24.16.47.31.5.49a.25.25,0,0,1,0,.21.39.39,0,0,1-.23.11,1.12,1.12,0,0,1-.27,0,1.73,1.73,0,0,1-.56-.09h-.1a.26.26,0,0,0-.24.18,1.19,1.19,0,0,1-.08.22,2.18,2.18,0,0,0-.14.34l-.3,0-.28,0h0a.12.12,0,0,0-.12.08.43.43,0,0,0,0,0s0,0,0,0h-.15a.11.11,0,0,0-.09-.07,4.37,4.37,0,0,1-2.13-.71A8.15,8.15,0,0,1,81.59,113a5,5,0,0,0-.7-.69l-.2-.18a1.84,1.84,0,0,1-.37-.38.88.88,0,0,1-.12-.17.74.74,0,0,1-.07-.21,1.82,1.82,0,0,1,.19-.86l.06-.15a2,2,0,0,0,.13-.65.91.91,0,0,0,0-.23.84.84,0,0,0,.64-.35,0,0,0,0,0,0,0s0,0,0,0a.11.11,0,0,0-.12-.11h0L81,109l-.17.09a.54.54,0,0,1-.19,0l-.09,0h0l-.1-.07a.47.47,0,0,1-.22-.26c0-.13,0-.23,0-.26a.42.42,0,0,1,.25-.06h.22a.33.33,0,0,0,.33-.25.35.35,0,0,0-.25-.42.7.7,0,0,1-.23-.1c-.09-.06-.16-.12-.16-.16s0,0,0-.11a.59.59,0,0,1,.16-.12h0a.41.41,0,0,0,.11-.07.32.32,0,0,0,.11-.41.27.27,0,0,0-.17-.16.28.28,0,0,0-.13,0,.35.35,0,0,0-.14,0l-.21.11H80a.3.3,0,0,1-.2-.25c0-.09,0-.22.15-.37L80,106a.92.92,0,0,0,.26-.37,2.29,2.29,0,0,1,.34-.07l0,0a0,0,0,0,1,0,0h0a.11.11,0,0,0,.1-.06,2.43,2.43,0,0,0,0-1.62c-.06-.24-.13-.47-.2-.7a5.25,5.25,0,0,1-.19-.73,6.36,6.36,0,0,1-.13-1.42v-.44c0-.35,0-.72,0-1.09a.14.14,0,0,0-.08-.09v0a3.45,3.45,0,0,0,.42.14l.44.16q.42.15.84.33c.34.13.69.28,1,.4a5.57,5.57,0,0,0,1.88.4h.18a2.82,2.82,0,0,0,.52-.1Zm-.77,8.68-.07-.07h0s0,0,0,0A.14.14,0,0,0,84.82,109.67Zm10.87-9.38a4.3,4.3,0,0,1-1.12.77,2.52,2.52,0,0,0-.29.12,4.23,4.23,0,0,1-1,.25,3.25,3.25,0,0,1-.44,0h-.07l-.44,0a4.08,4.08,0,0,1,.34-8.14h.17a4.17,4.17,0,0,1,1.71.37l.16.09a3.89,3.89,0,0,1,1,.63,4.17,4.17,0,0,1,1.31,2.95A4.1,4.1,0,0,1,95.69,100.29Zm4.19-21,.09.4a8.82,8.82,0,0,1,.08,2.3c0,.18,0,.37,0,.55s0,.4,0,.6a13.75,13.75,0,0,0,0,2.13,7.62,7.62,0,0,0,.66,2.17l.15.35a9.22,9.22,0,0,1,.44,1.72c0,.19.07.37.11.55s.08.39.1.57h0a4.73,4.73,0,0,1-.87-.77,17.2,17.2,0,0,0-1.22-1.3c-.21-.21-.42-.41-.63-.63-.54-.56-1.13-1.08-1.7-1.58a15.65,15.65,0,0,1-2.27-2.26,10.25,10.25,0,0,0-.69-.76,4.84,4.84,0,0,1-.83-1,4.3,4.3,0,0,1-.32-1.77c0-.24,0-.47,0-.71s.08-.36.46-.73A4.26,4.26,0,0,0,94.11,78c.12-.26.26-.51.41-.78a6.62,6.62,0,0,0,.81-1.89c0-.06,0-.14,0-.22a4.42,4.42,0,0,1,.36-1.21,2.66,2.66,0,0,1,1.07-.4l.52-.14a7,7,0,0,0,1.49-.76A6.49,6.49,0,0,1,100,72c0,.15.06.3.08.45a3.29,3.29,0,0,1,.1,1.27,9.5,9.5,0,0,1-.26,1,7.65,7.65,0,0,0-.38,1.87A9.8,9.8,0,0,0,99.88,79.26Zm-3,7.34c-.11-.11-.22-.21-.32-.32a1.82,1.82,0,0,1,.32.32Zm-2-12.44c0,.08-.1.16-.14.24a4.31,4.31,0,0,0-.21.8l0,.14a1.28,1.28,0,0,1-.29.66,2.95,2.95,0,0,0-.82,1.49l-.06.22a1,1,0,0,1-.4.56,1.4,1.4,0,0,1-.3.18,3.9,3.9,0,0,0-.36.22,2.94,2.94,0,0,1,.35-.87c.29-.48.55-1,.74-1.35.49-1,.93-2,1.36-2.93a1.46,1.46,0,0,1,.39,0,.32.32,0,0,1,.17.1A2.1,2.1,0,0,0,94.89,74.16Zm-2.57,5.71a6.73,6.73,0,0,0-.1.67s0,0,0,.07l0,0,0,.06a3.29,3.29,0,0,0,.36,1.83,9.16,9.16,0,0,0,1,1.56,24.56,24.56,0,0,0,2.35,2.52l.13.12a31.24,31.24,0,0,0,2.7,2.39l.19.16a3.63,3.63,0,0,1,.46.41c.16.16.31.34.47.52l.12.14.18.2a3.7,3.7,0,0,0,1.22,1h.06l.07,0s0,0,0,0v0a.62.62,0,0,1,.14.19h0a.93.93,0,0,0,.05.1c.13.32,0,.42.09.75a.5.5,0,0,0,.08.12c.05.05.12.08.17.13l.06.11s0,0,0,.08,0,.07,0,.12h0s-.1,0-.15,0a4.94,4.94,0,0,0-.58.76,4.43,4.43,0,0,0-.85,2.65,3.43,3.43,0,0,0,0,.56l-.1.09a1.41,1.41,0,0,0-.82.29,1.83,1.83,0,0,0-.3.18,4.23,4.23,0,0,0-.78.74l-.12.12a3.59,3.59,0,0,1-.79.74,2.36,2.36,0,0,1-1,.33,4.52,4.52,0,0,0-.78-5.39,4.55,4.55,0,0,0-3.2-1.35h-.07a4.76,4.76,0,0,0-2.28.6c0-.08,0-.17,0-.26s-.06-.31-.1-.46a1.55,1.55,0,0,0-.17-.4,1.8,1.8,0,0,0-.27-.28l0,0c-.4-.25-.37-.73-.3-1.2,0-.23.08-.46.13-.71s.11-.51.14-.77c.07-.45.16-1,.27-1.47a13.47,13.47,0,0,1,.39-1.43c.09-.3.21-.59.34-.91l.2-.48a12.13,12.13,0,0,0,.8-3,8.19,8.19,0,0,0,0-.85c0-.24,0-.45,0-.67a2.14,2.14,0,0,1,.14-.65,1.65,1.65,0,0,1,.11-.26l0-.08a.87.87,0,0,0,.14.29l0,0a.12.12,0,0,0,.09,0Zm9.31,9.93,0,0a5.67,5.67,0,0,1,.2.67v0a1.92,1.92,0,0,1,.09.56v.16c0,.09,0,.19,0,.29h0a1.36,1.36,0,0,1-.13-.24,0,0,0,0,1,0,0l0-.07c-.09-.43,0-.92-.11-1.34C101.64,89.86,101.64,89.83,101.63,89.8Zm-1.07,7.46h0Zm-4,2.48h0a0,0,0,0,0,0,0Zm6,1.07a.27.27,0,0,1,0-.09.13.13,0,0,0-.08-.12h0a.1.1,0,0,0-.09,0,1.71,1.71,0,0,0-.28.84l0,.13a2.08,2.08,0,0,1-.22.76l-.21.38q-.12.19-.24.42a2.34,2.34,0,0,0-.22.7.81.81,0,0,0,0,.31.11.11,0,0,0,.08.1h0c0,.15-.07.3-.1.45l-.08-.07h-.1l-.06,0a.12.12,0,0,0,0,.16,1.43,1.43,0,0,1,.15.18,2.48,2.48,0,0,1,.19.26,2.24,2.24,0,0,1,.21.5.34.34,0,0,1,0,.23h-.1l-.2,0-.18,0h-.06a.26.26,0,0,0-.21.42.23.23,0,0,0,.16.11h0a.57.57,0,0,1,.34.47.29.29,0,0,1,0,.21l0,0H101a.24.24,0,0,0-.15.06.29.29,0,0,0-.14.24.31.31,0,0,0,.08.24l.08.06a.24.24,0,0,0,.14,0h.13c.1,0,.12.05.12.06a.42.42,0,0,1,0,.34.47.47,0,0,1-.23.25h-.09a.5.5,0,0,1-.18-.09.33.33,0,0,0-.21-.07.41.41,0,0,0-.24.08.44.44,0,0,0-.11.24.3.3,0,0,0,.09.25.61.61,0,0,1,0,.06.38.38,0,0,1-.14,0l-.15,0c-.2,0-.33-.07-.34-.11a.33.33,0,0,0-.3-.22h0a.31.31,0,0,0-.28.34c0,.15,0,.19-.17.22h-.09v-.09a.18.18,0,0,0,0-.13l0,0-.12-.12a.11.11,0,0,0-.08,0h0a.61.61,0,0,0-.22.07l-.11.06-.06,0,0,0a.24.24,0,0,0-.07.13.42.42,0,0,1-.16-.42v0a.11.11,0,0,0-.11-.12h0l0,0,0,0v0a.94.94,0,0,0,0,.4s0,.06,0,.1a.58.58,0,0,0,.21.28.68.68,0,0,0,.42.13h0a1.13,1.13,0,0,0,.63.18h0a.84.84,0,0,0,.55-.24h0l.15.06a1.4,1.4,0,0,0,.41.06l.22,0a.89.89,0,0,0,.66-.39l0-.09h0s0,.09,0,.13,0,.13,0,.19a1.42,1.42,0,0,0,0,.86,4.68,4.68,0,0,0,.4.89c.12.22.25.43.38.64a7.5,7.5,0,0,1,.53.93c0,.13.09.27.14.41.15.43.31.88.42,1.3a2.69,2.69,0,0,1,.09.7h0a1.39,1.39,0,0,1-.35-.14.26.26,0,0,0-.15,0,.24.24,0,0,0-.15,0,.27.27,0,0,0-.13.18.26.26,0,0,0,0,.21.69.69,0,0,1,.09.21l-.08,0a1.08,1.08,0,0,0-.3.18l0,0a.49.49,0,0,1-.13.12,1.21,1.21,0,0,1-.68.08,6.78,6.78,0,0,0-1.7-1.43,4.51,4.51,0,0,1-1.43-1.38c-.16-.29-.36-.62-.53-.93a4,4,0,0,1-.37-.91,4.69,4.69,0,0,1,0-1,4.91,4.91,0,0,0,0-1.15.11.11,0,0,0-.07-.08l0-.35,0,0a.14.14,0,0,0,.09-.17h0a.93.93,0,0,1,0-.1l0-.07s0,0,0,0a.12.12,0,0,0-.12-.12h0s0,0,0,0,0,0,0,0h0a.11.11,0,0,1,0,0l-.08.11h0a.58.58,0,0,1-.19,0,1,1,0,0,1-.23-.18l0,0c0-.05,0-.1,0-.12a.5.5,0,0,1,.13-.32l.11-.07a1.19,1.19,0,0,0,.29,0,.37.37,0,0,0,.26-.28v-.09a.34.34,0,0,0-.34-.3h0a.76.76,0,0,0-.21,0h0l0-.07v0a.7.7,0,0,1,.24-.51.34.34,0,0,0,.13-.31.33.33,0,0,0-.32-.29h0a.44.44,0,0,1-.15-.16v0a.3.3,0,0,1,0-.1,5.06,5.06,0,0,1,.3-.5l0,0a2.59,2.59,0,0,1,.32-.42.1.1,0,0,0,0-.1h.06c0-.32.08-.63.11-.95a3.05,3.05,0,0,0,.13.32.12.12,0,0,0,.11.07h0a.12.12,0,0,0,.1-.09,4.61,4.61,0,0,0,0-1.74,5.14,5.14,0,0,0-.23-.84,2.71,2.71,0,0,0-.44-.78.11.11,0,0,0-.09,0h0a.07.07,0,0,0,0,0,1.74,1.74,0,0,1,.07-.78h0l0,.29a.54.54,0,0,1,0-.28l.29,0a1.61,1.61,0,0,0,.69-.14,2.9,2.9,0,0,0,1-.8l.29-.34c.16-.19.31-.37.48-.54a2.25,2.25,0,0,1,.91-.58,4.52,4.52,0,0,0,1.93,2.69h0a.66.66,0,0,1,0,.14A1.71,1.71,0,0,1,102.48,100.81Zm5.45-7.27a4,4,0,0,1,1.27,2.85,3.91,3.91,0,0,1-.56,2.06,5.88,5.88,0,0,1-1.33,1.35,4,4,0,0,1-2.11.6h-.07a4,4,0,0,1-2.79-1.17,3.92,3.92,0,0,1-.07-5.5A4,4,0,0,1,105,92.48h.16A4.1,4.1,0,0,1,107.93,93.54Zm-.72-55.77a.14.14,0,0,1,0,.06,1.15,1.15,0,0,0,.16.31.64.64,0,0,0,.3.27.6.6,0,0,0,.27.06l.17,0a1.77,1.77,0,0,0,.92-.86,2.93,2.93,0,0,0,.36-1.13,1.93,1.93,0,0,0-.26-1.21A4.6,4.6,0,0,0,107.94,34l-.36-.3A2,2,0,0,1,107,33a1.31,1.31,0,0,1-.09-.28,5.21,5.21,0,0,0,.39.45l.09.08a2.29,2.29,0,0,0,.94.65l.25,0a1.7,1.7,0,0,0,.49-.1h0a4.58,4.58,0,0,0,.54-.26l.07,0,.39-.19h0a1.09,1.09,0,0,1-.05.17l-.18.51c-.07.17-.13.35-.19.55l0,.07a1.17,1.17,0,0,0,0,.65,1.77,1.77,0,0,0,.12.31,1.24,1.24,0,0,0,.2.29,1.35,1.35,0,0,0,.59.4,2.23,2.23,0,0,0,.75.12h.19s0,0-.06.06-.26.14-.42.22l-.19.08a5,5,0,0,0-.68.45,1,1,0,0,0-.29.45l-.09.36a2.15,2.15,0,0,1-.47.86l-.24.32,0,.08a1.65,1.65,0,0,0-.32.68.53.53,0,0,0,.2.53l-.07,0a.93.93,0,0,0-.47.32.73.73,0,0,0-.13.34.44.44,0,0,0,0,.2.5.5,0,0,0,0,.12.4.4,0,0,1,0,.37,1.62,1.62,0,0,1-.74.52,2.21,2.21,0,0,1-.83.21h0a.6.6,0,0,1-.08-.28l.18-.19a6.23,6.23,0,0,0,.52-.6,1.8,1.8,0,0,0,.29-.53,2.31,2.31,0,0,0,.16-.83,3.84,3.84,0,0,0-.28-1.31l0-.07v0a3,3,0,0,1-.21-.9h0ZM97,37.61l-.1-.37a.89.89,0,0,0-.31-.43,3.25,3.25,0,0,0-.68-.43l-.19-.09a2.46,2.46,0,0,1-.43-.21l-.06,0h.1a2.39,2.39,0,0,0,.84-.13,1.45,1.45,0,0,0,.58-.41,2.2,2.2,0,0,0,.19-.3,1.67,1.67,0,0,0,.11-.31,1.1,1.1,0,0,0,0-.66l0-.06a3.93,3.93,0,0,0-.19-.55l-.2-.51a1,1,0,0,1-.05-.16h0l.39.18.07,0a4.56,4.56,0,0,0,.54.25h0a1.57,1.57,0,0,0,.47.09l.26,0a2.32,2.32,0,0,0,.93-.68l.08-.08c.15-.16.28-.31.4-.46a1.31,1.31,0,0,1-.09.28,2,2,0,0,1-.53.74l-.36.3a5,5,0,0,0-1.18,1.3,1.9,1.9,0,0,0-.22,1.22,2.88,2.88,0,0,0,.38,1.11,1.68,1.68,0,0,0,.94.84l.16,0a.64.64,0,0,0,.28-.06.88.88,0,0,0,.3-.28,1.5,1.5,0,0,0,.17-.4h0v0a3,3,0,0,1-.19,1l0,0,0,.08a3.77,3.77,0,0,0-.25,1.31,2.3,2.3,0,0,0,.4,1.22l.08.13a7.72,7.72,0,0,0,.54.59l.18.18a.72.72,0,0,1-.07.28h-.07a2.44,2.44,0,0,1-.81-.19,1.71,1.71,0,0,1-.75-.51.33.33,0,0,1,0-.24.41.41,0,0,1,0-.11.72.72,0,0,0,0-.33.74.74,0,0,0-.14-.34.9.9,0,0,0-.47-.31l-.07,0a.56.56,0,0,0,.19-.55,1.85,1.85,0,0,0-.35-.67l-.05-.07a3.65,3.65,0,0,0-.24-.31A2.38,2.38,0,0,1,97,37.61Zm2.5,1.94a1.69,1.69,0,0,1,0,.23.22.22,0,0,1,0-.08A.77.77,0,0,1,99.51,39.55Zm-1.86.1s0,0,0,.05l-.07,0Zm.64,14.65a3,3,0,0,1,.25-.71,3.43,3.43,0,0,0,.19-.44,5.35,5.35,0,0,0,.2-.64.83.83,0,0,0,0-.15,1.41,1.41,0,0,1,.14-.41s0,0,0-.07a2.78,2.78,0,0,1,.3-.4l.17-.2.07.07a.76.76,0,0,0,.08.11.13.13,0,0,0,.08,0,.11.11,0,0,0,.08,0,.12.12,0,0,0,0-.15,1.12,1.12,0,0,1-.16-.28.22.22,0,0,0,0-.08s0,0,0,0a.14.14,0,0,0,0-.06.12.12,0,0,0-.12-.12H99.7s0,0,0,0a2.92,2.92,0,0,1-.15-1.14,10.51,10.51,0,0,1,.18-1.56l0-.25a6,6,0,0,0,.09-1.94,2.29,2.29,0,0,0-.4-1,2.32,2.32,0,0,0-.86-.67l-.36-.14a8.73,8.73,0,0,1-1.33-.57,2.7,2.7,0,0,1-1.21-1.11,1.7,1.7,0,0,1-.24-.72v0s.07-.06.32-.06h.17l.33,0,.56,0h0a1.06,1.06,0,0,0,.87-.31l.42-.07a.74.74,0,0,0,.12.38,1.9,1.9,0,0,0,1,.61,2.55,2.55,0,0,0,.83.16l.23,0h0a.19.19,0,0,0,.1-.08,1.55,1.55,0,0,0,.08-.23.12.12,0,0,0,.08,0,.13.13,0,0,0,.08,0,.12.12,0,0,0,0-.16l-.16-.2v0a.12.12,0,0,0-.09-.09l-.13-.15a6.61,6.61,0,0,1-.47-.58.53.53,0,0,1-.06-.1,2,2,0,0,0,.21-.2l0,0v0a.07.07,0,0,0,0,.05.12.12,0,0,0,.1,0h0a5.9,5.9,0,0,1,1.6-.53,5.47,5.47,0,0,1,1-.09,3.32,3.32,0,0,1,.64,0c.42.06.85.16,1.27.26l.4.1a3.16,3.16,0,0,1,.53.2,2.94,2.94,0,0,0,1.09.29h.08a.11.11,0,0,0,.09-.06s0,0,0,0a.11.11,0,0,0-.09-.12l-.22-.08.46.14.21.08a1.87,1.87,0,0,1-.23.47c-.14.21-.3.4-.45.59l-.13.15,0,0h0l0,0s0,0,0,0h0l-.16.21a.11.11,0,0,0,0,.16.11.11,0,0,0,.07,0,.15.15,0,0,0,.09,0,.92.92,0,0,0,.09.23.2.2,0,0,0,.09.07l.24,0a2.75,2.75,0,0,0,.86-.18,1.94,1.94,0,0,0,.94-.64.65.65,0,0,0,.11-.38v0l.23.09a.12.12,0,0,0-.07,0h0a.11.11,0,0,0,0,.15,3.11,3.11,0,0,0,1.13.39l.3.07a3.18,3.18,0,0,1,.66.19l.11.06.06.07h0s0,0,0,.13a2.5,2.5,0,0,1-.46.46,2.23,2.23,0,0,1-.57.32,7.16,7.16,0,0,1-1,.25l-.4.08-.35.09.26-.11h0l.14,0a4.62,4.62,0,0,0,.57-.24,1.67,1.67,0,0,0,.66-.54.11.11,0,0,0,0-.13.12.12,0,0,0-.1,0h0l-.55.11a7.53,7.53,0,0,0-.94.23,2.16,2.16,0,0,0-.74.44,1.1,1.1,0,0,0-.37.82.14.14,0,0,0,0,.07s-.06,0-.08.08a2.25,2.25,0,0,0-.43.7,6.75,6.75,0,0,0-.28.73c-.12.39-.22.79-.31,1.17a9.74,9.74,0,0,1-.47,1.61,5.52,5.52,0,0,1-1.53,2.27,4.89,4.89,0,0,1-.55.43.8.8,0,0,1-.5.2,1.42,1.42,0,0,1-.94-.65A10.34,10.34,0,0,1,101,48.56a7.77,7.77,0,0,1-.3-1.22,5.8,5.8,0,0,0-.46-1.61.12.12,0,0,0-.11-.07l0,0a.11.11,0,0,0-.06.14,6,6,0,0,1,.31,1.54,8.18,8.18,0,0,0,.23,1.34,10.16,10.16,0,0,0,1.22,2.75l.12.16a2.21,2.21,0,0,0,.43.44,1.38,1.38,0,0,0,.86.33h0a1.49,1.49,0,0,0,.83-.3,4.88,4.88,0,0,0,.61-.46,5.28,5.28,0,0,0,1.11-1.27,1.42,1.42,0,0,1,.47.56,5.24,5.24,0,0,1,.41,1.17c0,.17.08.33.11.51l0,.11a3.83,3.83,0,0,0,.22.65l.07.14a3.32,3.32,0,0,1,.3,1,.81.81,0,0,1-.09.46.62.62,0,0,1-.32.27,2.77,2.77,0,0,1-.81.16l-.37,0-.36.08a2.29,2.29,0,0,0-.35.16l-.38.23-.19.12a1.65,1.65,0,0,1-.47.21h-.22l-.24,0a2.91,2.91,0,0,1-.66-.39l-.35-.24a3,3,0,0,0-1.33-.51c-.33,0-.66,0-.93,0H99.8a5.21,5.21,0,0,1-1.09-.08.64.64,0,0,1-.37-.2A.49.49,0,0,1,98.29,54.3Zm7.77-4.11-.13-.09,0-.05ZM85.79,63.71a1,1,0,0,0,.66-.23,2.15,2.15,0,0,0-.18.24.83.83,0,0,0-.11.15v0l0,0-.06,0a.11.11,0,0,0-.07,0,5.23,5.23,0,0,1-1,.59l-.16.09-.3.15A9.17,9.17,0,0,0,85.79,63.71Zm-6.37,5.18a1.21,1.21,0,0,1,.39-.33,1.11,1.11,0,0,1,.42-.15l.13,0a1,1,0,0,0,.73-.61,1.12,1.12,0,0,0,.06-.23.6.6,0,0,1,.1-.26.84.84,0,0,1,.45-.23,2.12,2.12,0,0,1,.38-.08,2.1,2.1,0,0,0,1-.34,4.5,4.5,0,0,0,.72-.73,3.25,3.25,0,0,1,.23-.29,3.88,3.88,0,0,1,1.07-.83,5.2,5.2,0,0,0,.88-.62,2.78,2.78,0,0,0-.31,1.11,4.3,4.3,0,0,0,.2,1.33,6.1,6.1,0,0,0,1.29,2.25,6.54,6.54,0,0,0,1.38,1.05l.67.44a.09.09,0,0,0,.07,0h0a.09.09,0,0,0,.08,0s0-.07,0-.11,0,0,0,0c-.24-.22-.5-.42-.74-.61a5.69,5.69,0,0,1-1.11-1,5.78,5.78,0,0,1-1.07-2.11,3.85,3.85,0,0,1-.12-1.14,2,2,0,0,1,.35-1,7.63,7.63,0,0,1,1.71-1.64,19.49,19.49,0,0,1,2-1.46,7.18,7.18,0,0,1,2.18-.93,13.29,13.29,0,0,1,1.91-.19l.54,0a7.11,7.11,0,0,0,2.48-.54.12.12,0,0,0,.07-.11.09.09,0,0,0-.07-.09l.36-.23s0-.07.25-.29a.67.67,0,0,0,.22.24.62.62,0,0,0,.32.09.58.58,0,0,0,.26-.06.5.5,0,0,0,.28-.3,1.15,1.15,0,0,0,.09-.26,4.1,4.1,0,0,0,0-.85v-.11A3.41,3.41,0,0,1,99.62,56a1.16,1.16,0,0,1,.29-.38,12.39,12.39,0,0,1,1.25.07,2.33,2.33,0,0,1,1,.42l.31.21a3.18,3.18,0,0,0,.85.5,2.13,2.13,0,0,0,.41.08H104l.14,0a1.92,1.92,0,0,0,.7-.31l.2-.13.32-.2.23-.11a1.37,1.37,0,0,1,.27-.06l.35,0,.18,0a1.44,1.44,0,0,1,.17.33.83.83,0,0,1,.08.22l-.06-.08a.15.15,0,0,0-.09,0l-.06,0a.11.11,0,0,0,0,.15,2.16,2.16,0,0,1,.21,1.22c0,.18-.06.36-.09.55a5.27,5.27,0,0,0-.14.81v0a.32.32,0,0,0,.11.24,4,4,0,0,1-.34,1.19,9.31,9.31,0,0,1-.7,1.32,7.82,7.82,0,0,1-.91,1.16,2.48,2.48,0,0,1-1.1.76,2.74,2.74,0,0,1-.5,0,1.48,1.48,0,0,1-.74-.16,3.23,3.23,0,0,1-.68-.58l-.42-.39-.44-.37c-.25-.21-.49-.41-.71-.63a3.66,3.66,0,0,1-.78-1.24.12.12,0,0,0-.11-.07h0a.11.11,0,0,0-.08.13,3.52,3.52,0,0,0,.66,1.47,8.24,8.24,0,0,0,.7.74l.38.39.28.3a4.42,4.42,0,0,0,.89.82,2.08,2.08,0,0,0,.88.27h.43l.21,0,.24,0a3.13,3.13,0,0,0,1.41-1,6.7,6.7,0,0,0,.61-.82l.14-.22A3.13,3.13,0,0,0,106,63.6a.08.08,0,0,0,0,.07v0a2,2,0,0,0,.26.86l0,.06.17.33c.08.15.15.3.22.45s.08.2.11.29l.06.19a3.77,3.77,0,0,1,.16,1.25,6.32,6.32,0,0,1-.28,1.73c-.09.3-.2.59-.32.89s-.21.55-.3.83a7.85,7.85,0,0,0-.23.93,4.88,4.88,0,0,0-.06.52c0,.13,0,.27,0,.4a11.37,11.37,0,0,1-.39,1.74c-.07.27-.16.54-.24.81a24.64,24.64,0,0,0-.72,2.75c-.1.56-.18,1.14-.26,1.83a7.25,7.25,0,0,0,0,1.92,4.37,4.37,0,0,0,.26.94,4.69,4.69,0,0,1,.28.82,8.6,8.6,0,0,1,.13,1.75v.16c0,.55,0,1.11-.07,1.65,0,.24,0,.48-.07.72s-.08.74-.1,1.11c0,.14,0,.29,0,.44s0,.32,0,.47l0,.17a4.06,4.06,0,0,0,0,.78h0a2,2,0,0,0,0,.24,1.45,1.45,0,0,0,.1.25,2.77,2.77,0,0,0,.3.4.86.86,0,0,1,.34.66H105a4.51,4.51,0,0,0-2.55.8l-.05,0a.61.61,0,0,1-.12-.34s0-.07,0-.1a3,3,0,0,1,0-.52v0l0-.2a1.52,1.52,0,0,0,0-.21,2.06,2.06,0,0,0,0-.26,2.65,2.65,0,0,0,0-.64v-.07a9.68,9.68,0,0,0-.31-1.12l-.06-.2-.39-1.28,0-.06a15.08,15.08,0,0,1-.56-2.48,11.72,11.72,0,0,1,0-2.44v-.17a12,12,0,0,0-.08-2.73c0-.25-.08-.51-.13-.75-.11-.65-.21-1.25-.26-1.87a5.81,5.81,0,0,1,0-1.27c0-.3.11-.61.17-.92,0-.12.06-.25.08-.38a9.84,9.84,0,0,0,.21-1.34,2.41,2.41,0,0,0-.19-1.38.1.1,0,0,0-.09-.06,0,0,0,0,1,0,0l0,0a.09.09,0,0,0-.06.06,1,1,0,0,0-.29-.48h0a.44.44,0,0,0-.2-.08.73.73,0,0,0-.27,0l.17-.25h0l.22-.37a6.62,6.62,0,0,1,.66-1,.12.12,0,0,0,0-.15.11.11,0,0,0-.09,0h-.06a4.51,4.51,0,0,0-1.18,1.12l0,0a4.19,4.19,0,0,1-1.09,1,6.07,6.07,0,0,1-2.91,1,.12.12,0,0,0-.11.11.1.1,0,0,0,.08.12h0l.33.07a3.87,3.87,0,0,1-.49,0h0c-.29,0-.2-.19-.44-.08.26-.62.52-1.22.77-1.83l.22-.52a.12.12,0,0,0-.06-.15l0,0a.1.1,0,0,0-.1.07c-.3.55-.59,1.13-.87,1.69l-.51,1h0c-.43.87-.9,1.79-1.39,2.66-.27.48-.52.9-.76,1.29a3.88,3.88,0,0,0-.45,1.09,1.42,1.42,0,0,1-.05.16c0,.07,0,.15-.07.23s0,0,0,0a2.15,2.15,0,0,1-.13.32,2.75,2.75,0,0,0-.16.34,3.19,3.19,0,0,0-.19.82c0,.25,0,.49,0,.72a6.49,6.49,0,0,1-.06.78,11.27,11.27,0,0,1-.72,2.84,13.42,13.42,0,0,0-.89,3c-.09.51-.15,1-.21,1.51,0,.24-.06.48-.11.73s-.08.51-.1.77a2.91,2.91,0,0,0,0,.82,1,1,0,0,0,.19.42,1.67,1.67,0,0,0,.31.29,1.28,1.28,0,0,1,.52.91l.09.32,0,0a4.69,4.69,0,0,0-.75.58,4.63,4.63,0,0,0-.83,1.09.09.09,0,0,0,0,0h0a0,0,0,0,0,0,0h-.05s0,0,0,0h0a.71.71,0,0,1-.11.17.49.49,0,0,1-.15.1.61.61,0,0,1-.28.06.71.71,0,0,0-.11-.21.35.35,0,0,0,0-.08.55.55,0,0,1-.09-.14.17.17,0,0,0-.15-.1l-.08,0a.33.33,0,0,1-.16,0A.15.15,0,0,1,87,95a.75.75,0,0,1-.15-.43s0,0,0-.06a.23.23,0,0,0-.18-.11l-.08,0a.45.45,0,0,1-.18,0l-.09,0a.52.52,0,0,1-.19-.25,3.22,3.22,0,0,1-.16-.84,5.22,5.22,0,0,1,0-.88,3.62,3.62,0,0,1,.19-.83l.17-.45a5.41,5.41,0,0,0,.41-1.38c.05-.55.07-1.09.09-1.62V88l0-.29a23.8,23.8,0,0,1,1-6.92c.07-.23.14-.45.22-.68.16-.51.33-1,.47-1.57a.75.75,0,0,0,0-.16c.11-.39.2-.79.28-1.2s.13-1,.17-1.53l0-.33c0-.74.1-1.31.18-1.83a16.9,16.9,0,0,1,.32-1.78c.11-.4.26-.8.4-1.19l.06-.17.14-.37.66-1.72,0-.14a7.73,7.73,0,0,0,.52-1.65.11.11,0,0,0-.09-.13h0a.11.11,0,0,0-.11.09,7.25,7.25,0,0,1-.54,1.43l-.12.26-.75,1.7-.2.47-.12.29c-.12.3-.24.64-.36,1a18.83,18.83,0,0,0-.4,1.85c-.09.54-.16,1.13-.23,1.85l0,.3a.71.71,0,0,1-.21,0,1,1,0,0,1-.56-.18,4.5,4.5,0,0,1-.92-.88l-.27-.32c-.2-.23-.4-.48-.64-.71a2,2,0,0,0-.64-.43,5,5,0,0,0-.68-.23L84,72.74a5.32,5.32,0,0,1-.83-.23,4.51,4.51,0,0,1-1.06-.66l-1-.86L81,70.93c-.33-.25-.65-.5-1-.76a2.32,2.32,0,0,1-.69-.91A.43.43,0,0,1,79.42,68.89Zm-4.23,7.28a20.25,20.25,0,0,1,.94-2.45c.06-.2.11-.71.21-1,0,0,0,0,0-.06a.46.46,0,0,1,.11-.2.26.26,0,0,1,.33-.05,0,0,0,0,0,0,0,1.43,1.43,0,0,0,.65.77,5.17,5.17,0,0,0,1.64.57l.23,0a5.27,5.27,0,0,1,1,.3l.12.05c0,.14,0,.27,0,.41h0a.12.12,0,0,0-.11.07l-.06.1a3.32,3.32,0,0,1-.33.5l-.2.25a1.89,1.89,0,0,0-.28.55,1.4,1.4,0,0,0,0,.67.33.33,0,0,0,.33.28,1.09,1.09,0,0,0,.9-.55,2.09,2.09,0,0,0,.27-.81,3.2,3.2,0,0,0,0-.82,2.8,2.8,0,0,0-.12-.48l.15.08a9.14,9.14,0,0,1,1,.68l.34.25.08,0a11.32,11.32,0,0,0,1.44,1h0a1.55,1.55,0,0,0,.22.12c.42.22.86.42,1.28.61l0,0,.2.08c0,.36.06.71.07,1v.31a4.47,4.47,0,0,1,0,.52,1.52,1.52,0,0,1-.1.52l0,0s0,0,0,0h-.06a1,1,0,0,1,0-.36c0-.17,0-.35.07-.54a4,4,0,0,0,.09-.85.13.13,0,0,0-.1-.11h0a.1.1,0,0,0-.08.06c-.06.16-.12.3-.19.46a4.09,4.09,0,0,0-.33.89,1.4,1.4,0,0,0,0,.43.79.79,0,0,0,.23.53.65.65,0,0,0,.15.1l.08,0h0a.85.85,0,0,0,.26.05h0a.67.67,0,0,0,.56-.37,1.78,1.78,0,0,0,.18-.83,4.79,4.79,0,0,0-.08-.75,5.45,5.45,0,0,0-.27-1,12.31,12.31,0,0,1,1.45.74l.06,0s0,0,0,0a0,0,0,0,0,0,0,.09.09,0,0,0,0-.11l0,0A10.23,10.23,0,0,0,86,76.86l-.52-.28L84.4,76a13.09,13.09,0,0,1-1.47-1,12.69,12.69,0,0,0-1.6-1.13,5.7,5.7,0,0,0-1.87-.65,6.74,6.74,0,0,1-1.71-.47.81.81,0,0,1-.46-.5.85.85,0,0,1,.24-.65l.24-.31a5.22,5.22,0,0,0,.33-.45,1.2,1.2,0,0,0,.22-1,.1.1,0,0,0-.08-.07h0a1,1,0,0,0,0-.17,1.19,1.19,0,0,1,.51-.71,1.28,1.28,0,0,0,0,.27,1.2,1.2,0,0,0,0,.38,2.86,2.86,0,0,0,.87,1.24,10.54,10.54,0,0,0,.85.68l.24.17,1,.84a4.85,4.85,0,0,0,1.23.74,5.88,5.88,0,0,0,1.12.27l.24.05a2,2,0,0,1,1.08.46,7.73,7.73,0,0,1,.64.64l.29.31a4.52,4.52,0,0,0,1.09.88,1.47,1.47,0,0,0,.65.17h.09l.18,0a9.6,9.6,0,0,1-.15,1.2c-.06.34-.15.68-.24,1,0,.07,0,.14,0,.21-.15.53-.33,1.06-.51,1.61-.07.23-.15.45-.22.68a17.17,17.17,0,0,0-.5,1.81,13.79,13.79,0,0,0-.27,1.87c-.12,1.25-.16,2.5-.19,3.72l0,.75c0,.36,0,.73,0,1.08a5.2,5.2,0,0,1-.34,1.25c0,.15-.11.3-.16.46a4.14,4.14,0,0,0-.19,1,6.48,6.48,0,0,0,0,1,3.28,3.28,0,0,0,.24,1,1,1,0,0,0,.4.44.58.58,0,0,0,.26.06l.14,0a.89.89,0,0,0,.21.39.53.53,0,0,0,.37.17.46.46,0,0,0,.21,0l.06.07,0,.06a.46.46,0,0,1,.09.19.14.14,0,0,0,.14.13h0a1,1,0,0,0,.48-.12l.07-.06a4.56,4.56,0,0,0,.56,4.37h-.06l-.06,0a3.71,3.71,0,0,0-.9-.07l-.54,0H87a1.93,1.93,0,0,0-.34,0,3.41,3.41,0,0,0-.92.29,3,3,0,0,1-.65.11h0a5.16,5.16,0,0,1-1.8-.43c-.34-.13-.67-.28-1-.43l-.85-.37-.49-.18a3.68,3.68,0,0,1-.44-.17l-.13-.07,0,0a1.84,1.84,0,0,1,0-.4,18.08,18.08,0,0,0,.2-2c0-1.1.09-2.57,0-4a26.74,26.74,0,0,0-.48-4A17.88,17.88,0,0,0,79,84.19c0-.13-.11-.27-.17-.4a12.29,12.29,0,0,1-.57-1.44,5.84,5.84,0,0,1-.21-.93c0-.22,0-.44-.06-.66s0-.22,0-.33a10.08,10.08,0,0,1,0-2,3.22,3.22,0,0,1,.23-.93,1.44,1.44,0,0,0,.07-1.08.12.12,0,0,0-.11-.07h0a.12.12,0,0,0-.07.15,1.17,1.17,0,0,1-.13.88,4.18,4.18,0,0,0-.31,1,11.72,11.72,0,0,0-.1,2v.17c0,.27,0,.56,0,.85a5.77,5.77,0,0,0,.19,1c.15.52.35,1,.54,1.5l.17.42a20.2,20.2,0,0,1,1,3.83,28.26,28.26,0,0,1,.43,4c0,1.16,0,2.39,0,4,0,.17,0,.33,0,.49a.49.49,0,0,1,0,.12h0c0-.06,0-.11,0-.13l-.25-.14A20.93,20.93,0,0,1,77,95c-.41-.29-.83-.61-1.29-1a1.16,1.16,0,0,1-.52-1.15,5.27,5.27,0,0,1,.22-1c0-.18.1-.36.14-.55a9.55,9.55,0,0,0,.2-1.48l0-.16a26.87,26.87,0,0,0,0-3.27c-.06-1.08-.15-2.18-.24-3.23S75.39,81,75.33,80a12.59,12.59,0,0,1,.19-3.15A5.15,5.15,0,0,1,76,75.45a5.17,5.17,0,0,0,.54-1.68.12.12,0,0,0-.1-.13h0s-.09,0-.09.09a5.32,5.32,0,0,1-.63,1.5,7.8,7.8,0,0,0-.54,1.21C75.16,76.36,75.17,76.27,75.19,76.17Z"/><path class="cls-1" d="M99.9,43.71s0,0,0-.05a.14.14,0,0,1,0-.07.19.19,0,0,0-.13-.22h0l-.78-.18c-.33-.07-.64-.13-1-.22a4.16,4.16,0,0,1-1.54-.67l-.07,0-.07,0a.11.11,0,0,0,0,.13,1.73,1.73,0,0,0,.64.79,2.93,2.93,0,0,0,.89.42,4.2,4.2,0,0,0,1,.17h.34l.48,0a.6.6,0,0,0,.08.08l.08.06a.15.15,0,0,1,.06,0,.15.15,0,0,0,.09,0h.05a.15.15,0,0,0,.07-.13A1.26,1.26,0,0,0,99.9,43.71Z"/><path class="cls-1" d="M102.61,49.94a1.3,1.3,0,0,0,.58.39l.13,0a.35.35,0,0,0,.23-.09,2.44,2.44,0,0,0,.3-.37,1.79,1.79,0,0,0,.21-.44l0,0a.26.26,0,0,0-.18-.3l-.08,0a2.07,2.07,0,0,0-.37-.05h0l-.26-.1a1.39,1.39,0,0,0-.35,0h-.13a.28.28,0,0,0-.22.19v0a.81.81,0,0,0,0,.42A.78.78,0,0,0,102.61,49.94Zm.5-.54.25,0h0l0,0-.18.18a.74.74,0,0,1-.16-.12.2.2,0,0,1-.06-.07Z"/><path class="cls-1" d="M100.38,44.86h.13a.76.76,0,0,1,.21,0h0a2.37,2.37,0,0,1,.34.13l.1,0,0,0a.1.1,0,0,0,0,.12.53.53,0,0,0,.34.36.51.51,0,0,0,.17,0,.9.9,0,0,0,.35-.09.26.26,0,0,0,.15-.26v0a.76.76,0,0,0-.36-.6,1.42,1.42,0,0,0-.49-.23,1.73,1.73,0,0,0-.32,0l-.22,0a.67.67,0,0,0-.5.33.13.13,0,0,0,0,.12A.12.12,0,0,0,100.38,44.86Z"/><path class="cls-1" d="M105,45.81H105a.63.63,0,0,0,.61-.4.43.43,0,0,0,0-.05.13.13,0,0,0-.12-.12h0l0,0a.41.41,0,0,1-.16,0h-.07l0,0,.15,0,.1,0,.09,0a2.09,2.09,0,0,0,.49-.15.11.11,0,0,0,.06-.1.14.14,0,0,0-.06-.11,1.85,1.85,0,0,0-.61-.21h-.23a.78.78,0,0,0-.57.23l0,0a.7.7,0,0,0-.17.47.54.54,0,0,0,.16.36A.53.53,0,0,0,105,45.81Z"/><path class="cls-1" d="M104.13,53.82a1.55,1.55,0,0,0,.31,0h.16a3.56,3.56,0,0,0,.81-.2c.22-.08.43-.18.62-.26l.09,0,.1,0a.51.51,0,0,1,.17,0s0,0,.08.12a.1.1,0,0,0,.11.08h0a.11.11,0,0,0,.11-.07.48.48,0,0,0,0-.28.38.38,0,0,0-.24-.29.72.72,0,0,0-.33-.07l-.19,0a3.58,3.58,0,0,0-.75.19l0,0-.71.28-.09,0a1.49,1.49,0,0,1-.4.08.39.39,0,0,1-.15,0h0a.14.14,0,0,0-.1,0,.1.1,0,0,0,0,.13A.66.66,0,0,0,104.13,53.82Z"/><path class="cls-1" d="M99.44,53.22h.18a1.57,1.57,0,0,1,.92.24,3.43,3.43,0,0,1,.64.58l.25.25a3.81,3.81,0,0,0,1.11.82,2.3,2.3,0,0,0,1,.24,2,2,0,0,0,.34,0s.09-.05.1-.11a.11.11,0,0,0-.08-.11,4.57,4.57,0,0,1-1.11-.5,6.86,6.86,0,0,1-.91-.81l-.17-.16a3.13,3.13,0,0,0-.93-.69,1.41,1.41,0,0,0-.65-.15h-.1a1.64,1.64,0,0,0-.69.21.11.11,0,0,0-.06.13.13.13,0,0,0,.12.09Z"/><path class="cls-1" d="M100.1,51.08h.05a.35.35,0,0,0,.18,0h0l.12.08,0,0,.07.06.09.08a1.23,1.23,0,0,0,.32.25.68.68,0,0,0,.35.1.57.57,0,0,0,.32-.09.12.12,0,0,0,0-.2.83.83,0,0,1-.29-.26l0,0a1.72,1.72,0,0,0-.27-.34,1.12,1.12,0,0,0-.29-.19l0,0-.11,0-.15,0h0a.54.54,0,0,0-.26.09.59.59,0,0,0-.14.19s0,0,0,0a.14.14,0,0,0-.09,0,.16.16,0,0,0,0,.12h0A.27.27,0,0,0,100.1,51.08Z"/><path class="cls-1" d="M101.51,58.12a1.52,1.52,0,0,0,.28.09l.1,0-.1.07a.09.09,0,0,0-.05.1.11.11,0,0,0,.06.1.82.82,0,0,0,.37.1h.13a.6.6,0,0,0,.29-.16.74.74,0,0,0,.17-.25.31.31,0,0,0-.14-.41h0a1.34,1.34,0,0,0-.34-.14,1.63,1.63,0,0,0-.36-.05h0a1.19,1.19,0,0,0-.72.22.15.15,0,0,0,0,.11.11.11,0,0,0,.07.09A2.21,2.21,0,0,0,101.51,58.12Z"/><path class="cls-1" d="M105.05,58.78a.61.61,0,0,0,.35.13h0a.16.16,0,0,0,.08,0,.12.12,0,0,0,0-.1c0-.06,0-.12,0-.16s0,0,0-.05h0l.21,0,.24,0a.16.16,0,0,0,.08-.06.09.09,0,0,0,0-.1.68.68,0,0,0-.51-.4.34.34,0,0,0-.15,0,.78.78,0,0,0-.54.23l0,0a.3.3,0,0,0,0,.39A1.34,1.34,0,0,0,105.05,58.78Z"/><path class="cls-1" d="M104,61.16h.14l0,0s0,0,0,0h.06a.2.2,0,0,0,.19-.13l0-.08a2.23,2.23,0,0,0,.12-.9,4.28,4.28,0,0,0,0-.43l0-.08a2,2,0,0,0-.09-.37.11.11,0,0,0-.08-.08h0a.12.12,0,0,0-.09,0c-.11.12-.07.2-.07.39a2.41,2.41,0,0,0,0,.54c0,.25-.26.49-.2.75a.41.41,0,0,0-.06.11v0a.1.1,0,0,0,0,.12.12.12,0,0,0,.1.06Z"/><path class="cls-1" d="M102.66,61.87a.14.14,0,0,0,0,.11.13.13,0,0,0,.09.05l.21.07a1.43,1.43,0,0,0,.27.09l.26.05a.15.15,0,0,0-.06,0l-.14,0a.13.13,0,0,0-.1.06.35.35,0,0,0,0,.39.41.41,0,0,0,.34.17h0a.42.42,0,0,0,.32-.19.44.44,0,0,0,0-.36.13.13,0,0,0-.09-.07l-.24-.06.15,0h.06a2.35,2.35,0,0,0,.5-.05.88.88,0,0,0,.55-.34.1.1,0,0,0,0-.07.12.12,0,0,0-.11-.12h0a2.33,2.33,0,0,1-.3,0l-.19,0a4,4,0,0,0-.5,0h-.09a2.27,2.27,0,0,0-.44,0l-.27.06-.08,0A.39.39,0,0,0,102.66,61.87Z"/><path class="cls-1" d="M101.13,67.59a1.49,1.49,0,0,0,.88-.36,2.19,2.19,0,0,0,.54-.72c.07-.15.13-.3.19-.44s.07-.18.11-.27a3.48,3.48,0,0,1,.38-.64.11.11,0,0,0,0-.13.12.12,0,0,0-.1,0h0a1.43,1.43,0,0,0-.78.52,3,3,0,0,0-.38.63l0,.09a4.35,4.35,0,0,1-.34.63,3.32,3.32,0,0,1-.52.54.12.12,0,0,0,0,.13.14.14,0,0,0,.11.07Z"/><path class="cls-1" d="M100.37,71.23a.1.1,0,0,0,0,.14.1.1,0,0,0,.1.07h0l.18-.06A5,5,0,0,0,103,69.59a3.71,3.71,0,0,0,.4-.7c.1-.25.19-.48.27-.71l0-.13a2.48,2.48,0,0,1,.62-1.07.12.12,0,0,0,0-.15.11.11,0,0,0-.1-.06h0a2.13,2.13,0,0,0-1.1,1.16c-.07.14-.13.27-.2.4a4.67,4.67,0,0,1-.48.85,10.47,10.47,0,0,1-2,2Z"/><path class="cls-1" d="M92.86,63.05a3.82,3.82,0,0,1,1.29-.27h.08a2.16,2.16,0,0,1,1.18.39,2.8,2.8,0,0,1,.85.92,4.37,4.37,0,0,1,.46,1.22.12.12,0,0,0,.12.1h0a.12.12,0,0,0,.13-.09,2.53,2.53,0,0,0-1.08-2.7,2.59,2.59,0,0,0-1.43-.44H94.2a2.57,2.57,0,0,0-1.49.68.1.1,0,0,0,0,.14.14.14,0,0,0,.11.05Z"/><path class="cls-1" d="M84.2,71.68a2.35,2.35,0,0,0-.6.07.12.12,0,0,0-.08.12.11.11,0,0,0,.1.11,3.85,3.85,0,0,1,1.2.39,5.64,5.64,0,0,1,1,.72c.24.2.46.41.7.63a12.28,12.28,0,0,0,1.33,1.12h.07a.09.09,0,0,0,.08,0,.11.11,0,0,0,0-.14,9.87,9.87,0,0,0-1.75-2.12,3.91,3.91,0,0,0-1.24-.74A2.8,2.8,0,0,0,84.2,71.68Z"/><path class="cls-1" d="M82.19,69.58a3.57,3.57,0,0,0,1.58.68h0a.11.11,0,0,0,.1-.06.11.11,0,0,0,0-.14,8.37,8.37,0,0,0-1-.88L82.62,69a5.52,5.52,0,0,1-.59-.47l0,0c-.17-.16-.27-.28-.22-.47a.11.11,0,0,0,0-.13l-.07,0-.06,0a.52.52,0,0,0-.22.53,1.18,1.18,0,0,0,.18.48A2.58,2.58,0,0,0,82.19,69.58Z"/><path class="cls-1" d="M84.26,68.35a2.7,2.7,0,0,0,.7.57,1.56,1.56,0,0,0,.73.22l.2,0A.12.12,0,0,0,86,69a.11.11,0,0,0-.06-.12,2.87,2.87,0,0,1-.61-.46,6.38,6.38,0,0,1-.52-.55c-.17-.18-.32-.38-.49-.58a7.13,7.13,0,0,1-.45-.67.12.12,0,0,0-.1,0h0a.13.13,0,0,0-.1.1,1.74,1.74,0,0,0,.15.91A2.86,2.86,0,0,0,84.26,68.35Z"/><path class="cls-1" d="M77.19,86a3.79,3.79,0,0,1,0,.53c0,.37,0,.74,0,1.09q0,1,0,2.19c0,.23,0,.46,0,.7a31.14,31.14,0,0,0,.1,3.73.11.11,0,0,0,.11.1h0a.12.12,0,0,0,.11-.1A35.2,35.2,0,0,0,78,89.81a20.72,20.72,0,0,0-.1-2.24c0-.35-.1-.72-.17-1.11-.05-.22-.09-.39-.14-.55l0-.08a.88.88,0,0,0-.26-.47.11.11,0,0,0-.07,0,.11.11,0,0,0-.08,0,.12.12,0,0,0,0,.16.62.62,0,0,1,.09.34A.51.51,0,0,1,77.19,86Z"/><path class="cls-1" d="M84.12,105.25h0a4.93,4.93,0,0,1-1.31.19H82.7a3.38,3.38,0,0,1-.53,0,2.78,2.78,0,0,1-.64-.19h0a.05.05,0,0,0,0,0,0,0,0,0,0,0,0,.81.81,0,0,0,.28.34l.06.06a1.25,1.25,0,0,0,.24.16,1.56,1.56,0,0,0,.77.18,1.92,1.92,0,0,0,.75-.18,1.65,1.65,0,0,0,.31-.2,1.2,1.2,0,0,0,.28-.27l0,0a.06.06,0,0,0,0-.06Z"/><path class="cls-1" d="M100.75,104.29h0a4.14,4.14,0,0,1-.8.26,3.05,3.05,0,0,1-.6.06h-.17a6.05,6.05,0,0,1-.83-.1,8.16,8.16,0,0,0-.88-.1h0a.06.06,0,0,0-.06,0s0,0,0,.06l.33.22a3.38,3.38,0,0,0,.47.22,2.63,2.63,0,0,0,.92.21h.09a2,2,0,0,0,.42,0l.16,0,.11,0a1.89,1.89,0,0,1,.18-.06,1.7,1.7,0,0,0,.48-.33,2.09,2.09,0,0,0,.24-.28.06.06,0,0,0,0-.07Z"/><path class="cls-1" d="M95.46,97.46a.48.48,0,0,0-.34-.14h0a.76.76,0,0,0-.37.16l0,0a4.59,4.59,0,0,0-.44.48,2,2,0,0,1-.22.27,1.88,1.88,0,0,1-1.35.82h0a.18.18,0,0,1-.1,0l-.2-.09L92,98.75l-.11-.06-.74-.38a4.4,4.4,0,0,0-.93-.34l-.25,0a.48.48,0,0,0-.35.13.6.6,0,0,0-.07.57.12.12,0,0,0,.12.1h0a4.79,4.79,0,0,0,1,1.26,2.91,2.91,0,0,0,1.84.72h.08a4.1,4.1,0,0,0,1.93-.65,3.05,3.05,0,0,0,.8-.7,1.73,1.73,0,0,0,.27-1.69A.7.7,0,0,0,95.46,97.46Z"/><path class="cls-1" d="M104.53,97.42c-.23-.13-.47-.26-.73-.38a4,4,0,0,0-.93-.34,1.05,1.05,0,0,0-.24,0,.5.5,0,0,0-.36.13.58.58,0,0,0-.07.57.14.14,0,0,0,.12.1h.05a4.75,4.75,0,0,0,1,1.26,2.93,2.93,0,0,0,1.84.72h.08a4.1,4.1,0,0,0,1.93-.65,2.88,2.88,0,0,0,.8-.7,1.69,1.69,0,0,0,.38-1.1,1.72,1.72,0,0,0-.11-.58.5.5,0,0,0-.13-.21.49.49,0,0,0-.34-.15h0a.67.67,0,0,0-.37.16l0,0a3.8,3.8,0,0,0-.44.49l-.21.26a1.91,1.91,0,0,1-1.36.82h0l-.1,0-.19-.09-.42-.22Z"/><path class="cls-1" d="M83.36,79.67a.73.73,0,0,0,.34.12h.1l.19,0a1.27,1.27,0,0,0,.54-.24,1,1,0,0,0,.31-.54,1.34,1.34,0,0,0,0-.53,3.45,3.45,0,0,0-.3-.85,5.74,5.74,0,0,0-.66-1h0c-.08-.12-.18-.24-.27-.35a.12.12,0,0,0-.09,0l-.06,0a.1.1,0,0,0,0,.13c.08.24.17.47.26.7a1.78,1.78,0,0,0-.49.73,3.08,3.08,0,0,0-.2.87,1.59,1.59,0,0,0,0,.5A.85.85,0,0,0,83.36,79.67Zm.26-1.77a2.62,2.62,0,0,1,.17-.59c.07.18.15.36.21.54a3.61,3.61,0,0,1,.18.72c0,.21,0,.37-.09.43a.51.51,0,0,1-.31.11h0l0,0s-.12-.18-.13-.44A3.2,3.2,0,0,1,83.62,77.9Z"/><path class="cls-1" d="M81.17,78.26a.84.84,0,0,0,.16.24.53.53,0,0,0,.4.19h.06a.71.71,0,0,0,.48-.33l0-.06a1.93,1.93,0,0,0,.2-.41,3.53,3.53,0,0,0,.14-.81,2.18,2.18,0,0,0-.28-1.33,1.66,1.66,0,0,0-.16-.21.09.09,0,0,0-.08,0l-.07,0a.12.12,0,0,0,0,.08h0v0a.14.14,0,0,0-.12-.08h0a.12.12,0,0,0-.1.11,2.57,2.57,0,0,1-.34,1l-.17.36a2,2,0,0,0-.21.85.84.84,0,0,0,0,.27C81.11,78.11,81.14,78.18,81.17,78.26Zm.65-1.12c0-.07,0-.13.05-.18A2.54,2.54,0,0,0,82,75.71a2.46,2.46,0,0,1,0,1.29,3.11,3.11,0,0,1-.19.64,1,1,0,0,1-.11.23.08.08,0,0,0,0,0s0-.07,0-.11A1.72,1.72,0,0,1,81.82,77.14Z"/><path class="cls-1" d="M70.09,148.25c.31.25.61.36.88.59a1.69,1.69,0,0,1,.28.26,7.68,7.68,0,0,1,.81,1.23,5.8,5.8,0,0,1,.76,2.58l.61-.19h.18a3.38,3.38,0,0,1,.42.13,3.39,3.39,0,0,0,.82.12,1.33,1.33,0,0,0,.5-.09c-.07-.82,1-.81,1.18-1.44s-.65-.76-.66-1.39,1.33-1,1.14-1.67-1.27-.4-.92-1.17c.2-.44,1-.57.67-1.11s-1-.32-1.17-.73.58-.91.69-1.35-.27-.67-.75-.92c-1.65-.85.84-1.26-.3-2.12-.33-.25-1.23-.4-.91-.83s1-.1,1-.66c-1.11-.53-2.63-2.3-3.94-2.23a1.58,1.58,0,0,0-1.21.81,12.91,12.91,0,0,0-.78,1.11,1.28,1.28,0,0,0-.14.4,7.66,7.66,0,0,1-.11,1.26,2.48,2.48,0,0,0-.32,1.17,2.67,2.67,0,0,1-.07,1.08c-.12.4-.55,1-.5,1.47s.56.9.67,1.28C69.22,146.77,69.21,147.55,70.09,148.25Z"/><path class="cls-1" d="M60.5,144.78a4.59,4.59,0,0,1,1,.34,1.87,1.87,0,0,1,.79.93.8.8,0,0,1-.33,0l-.24,0a1.9,1.9,0,0,0-1.58.24,1.12,1.12,0,0,0-.34.9c0,.67.71,1.16,1.26,1.56l.27.2.26.21c1.52,1.15,1.89,1.67,2,1.88h-.17a1.32,1.32,0,0,0-1,.23,1.21,1.21,0,0,0-.36.91A1.74,1.74,0,0,0,63,153.63a1.89,1.89,0,0,1,.49.37,2.07,2.07,0,0,1,.17.28,1.67,1.67,0,0,1-.16.21c-.07.1-.16.2-.25.33a1.35,1.35,0,0,0,0,1.64,1.24,1.24,0,0,1,.22.57.6.6,0,0,0,.58.5h.08a.58.58,0,0,0,.5-.65,2.53,2.53,0,0,0-.37-1,1.45,1.45,0,0,1-.11-.23.33.33,0,0,1,.08-.16l.2-.27a1.32,1.32,0,0,0,0-1.91,2.84,2.84,0,0,0-.81-.67c-.31-.19-.52-.34-.52-.46v0h.11a1.34,1.34,0,0,0,1.14-.28,1.07,1.07,0,0,0,.32-.85c0-.85-1-1.75-2.44-2.84L62,148c-.08-.07-.2-.15-.33-.24a3.64,3.64,0,0,1-.76-.64,2.83,2.83,0,0,1,.58,0l.3,0c1.1.1,1.45-.42,1.55-.75.27-.8-.46-1.84-1.29-2.35a5,5,0,0,0-1.26-.46c-.62-.18-1.56-.45-1.64-.83a.59.59,0,0,0-.7-.44.58.58,0,0,0-.44.69C58.27,144.13,59.51,144.49,60.5,144.78Z"/><path class="cls-1" d="M58.58,149.21a3,3,0,0,0-2.71,1.11.58.58,0,0,0,1,.66,2,2,0,0,1,1.68-.6,1.69,1.69,0,0,1,1.43.72.87.87,0,0,1,.11.28,1.38,1.38,0,0,1-.66,0,1.45,1.45,0,0,1-.89-.5.58.58,0,1,0-1,.54,2.77,2.77,0,0,0,2.23,1.18h.11a1.38,1.38,0,0,0,1.24-.57,1.41,1.41,0,0,0-.08-1.46A2.82,2.82,0,0,0,58.58,149.21Z"/><path class="cls-1" d="M29.51,174a36.66,36.66,0,0,0,6.34,11.68c1.16,1.36,2,1.86,3.06,1.86a7.63,7.63,0,0,0,1.57-.23l1-.19a5.17,5.17,0,0,1,.82-.06c2.75,0,7,1.81,9,3.43a14.54,14.54,0,0,1,2.7,3.32c1.3,2,2.64,4,4.88,4.48a5.28,5.28,0,0,0,1.28.16c2.58,0,3.91-2,5.07-3.79.25-.38.51-.77.78-1.14l.74-1a26.63,26.63,0,0,0,3.63-6q.24-.57.45-1.11a23.93,23.93,0,0,1,2.94-5.79,10.82,10.82,0,0,0,1.32-3,8.26,8.26,0,0,1,1.36-3,4,4,0,0,1,1.94-1,7.45,7.45,0,0,0,2.34-1.08c1.42-1,2.85-4.4,3.06-7.19a5.21,5.21,0,0,0-1.18-4.23l0-.06a2.72,2.72,0,0,1-.73-1c0-.13-.08-.72-.12-1.12s-.08-.88-.11-1.06a4.64,4.64,0,0,1,.43-2.76l.1-.29a20.23,20.23,0,0,0,1.38-6.39,18.76,18.76,0,0,0,3.28.25c3.53,0,6.13-.85,8-2.6a2.81,2.81,0,0,0,1.12-1.85c0-.7-.52-1.19-1.24-1.87l-.22-.2a23.2,23.2,0,0,0-2.76-2.36,24.86,24.86,0,0,0-13.93-4.49,14.85,14.85,0,0,1-5.2-1.43,15.25,15.25,0,0,0-6.13-1.54,11.19,11.19,0,0,0-1.52.1,41.89,41.89,0,0,0-7.58,1.66l-.9.34c-1.56.6-1.79.75-3.71.05a5.92,5.92,0,0,0-1.93-.32,13.05,13.05,0,0,0-5.35,1.61c-.56.26-1.1.5-1.62.71a13.59,13.59,0,0,1-2.76.68c-2,.37-4,.74-5.39,2.43a13.78,13.78,0,0,0-2.14,4.73,18.89,18.89,0,0,1-1.12,3,25.94,25.94,0,0,1-2.24,3.43,20.54,20.54,0,0,0-2.91,4.92c-2.24,6.14-.19,12.1,1.78,17.86C29.19,173,29.36,173.49,29.51,174Zm41.62,5.54c-1,1.65-1.47,3.4-2.68,5-2,2.64-7.11,4.48-10.12,2.69-1.75-1.05-1.41-3-2.36-4.67-1-1.78-2.46-2.47-2.77-4.66-.27-2-.09-3.43-1.77-4.87-1.51-1.29-3.29-1.56-4.06-3.64-1-2.86.4-5,1.64-7.47.76-1.54.83-2.67-.39-3.93-.53-.55-2.08-1.38-2.06-2.25,0-1.17.81-.43,1.35,0a44,44,0,0,1,3.31,3.64c1.81,1.86,5.42,4.46,7.11,6.38,1.17,1.32-.41,2.22,1.23,3.68,1.49,1.33,2.3.26,3.44,1,1.44.92,3.4,2.48,5.13,2.88,1.17.28,3.21-.29,4.16.62C73.59,175.12,71.84,178.29,71.13,179.49ZM61,163.41a.46.46,0,0,1,.1.65.45.45,0,0,1-.38.19.4.4,0,0,1-.26-.08c-10.37-7.4-9.71-11.64-9.68-11.81a.48.48,0,0,1,.55-.38.46.46,0,0,1,.37.54C51.67,152.6,51.28,156.48,61,163.41Zm.55,2.38.19.12c1.22.23,1.17,3.1-.57,2.55a1.41,1.41,0,0,1-.95-1.69,1.31,1.31,0,0,1,.45-.9C61,165.67,61.29,165.87,61.53,165.79ZM72.32,171c-4.48-.29-4.43-1.46-4.43-1.46S72.15,166.49,79,169C79,169,76.81,171.33,72.32,171Zm7.87-2.77c-10.23-3-13.38,1.21-14.33,1.74s-2-.83-2-.83c2.28-2.51-.39-4.71-.39-4.71,4.8-9.4,15.9-6.44,15.9-6.44A11.65,11.65,0,0,0,80,160.3C83.66,163.64,80.19,168.27,80.19,168.27Zm9.69-22.46a16.25,16.25,0,0,1-3.21.22c-.88-.06-4.4-.26-4.09-.76a5.34,5.34,0,0,0,.3-3.15c.87,1,1,0,1.92-.06,2.74-.23,3.29.73,4.14,1C91,143.7,93.19,145.33,89.88,145.81Zm-.06-6.58c.29.18.57.36.85.56a6.49,6.49,0,0,1,2.76,3.6c-4.4-2.27-7.12-2.75-8.64-2.75a4.08,4.08,0,0,0-2,.41,2.29,2.29,0,0,1-.86-2.11,4.26,4.26,0,0,0-.75-2.44A24.27,24.27,0,0,1,89.82,139.23ZM54.6,137c.42-1.63,5.26-2.09,6.82-2.48a19.14,19.14,0,0,1,7.83-.45c2.44.45,4.67,1.32,7,2,1,.3,2.64.32,3.44,1.17s.6,2.43,1.26,3.49c.76,1.21,1.7,1.26,1.28,2.89-.14.56-.57.9-.69,1.53a16.12,16.12,0,0,0,.1,1.87c-.23,2.28-.45,5.71-1.38,7.42s-3.41.78-6.57.55c-2.53-.18-4.34,1.11-6.54,2.37A13.16,13.16,0,0,0,64,159.73c-.82.85-1.56,1.94-2.78,1.65-1-.24-2-1.62-2.82-2.22a30.14,30.14,0,0,1-2.65-2,6.45,6.45,0,0,1-1.93-2.75c-.27-.85,0-5.06-.77-5.11-2-.16-1.71.61-2.95.92-1,.23-2.52-.46-3.44-.87-3.41-1.51-.49-3.95,1.4-4.62a4.49,4.49,0,0,1,3.79-.06c.85.29,2.25,1.16,3,.42.49-.5-.61-1.62-.61-1.62.35-1,2.17-.74,2.87-1.46C59.06,139.88,53.93,139.61,54.6,137Zm-13.7,7.72c1.62-3.5,5.49-7.49,9.75-8.35a3.57,3.57,0,0,1,.46,0c2.33,0,3.1,3.9,3.26,4.95-8.09.08-13,6.86-14.08,8.53C39.77,148.48,40,146.7,40.9,144.69Z"/><path class="cls-1" d="M71.06,162.51a1.67,1.67,0,0,0-1.82.42.57.57,0,0,0,0,.82.59.59,0,0,0,.83,0,.54.54,0,0,1,.57-.17.43.43,0,0,1,.25.41.9.9,0,0,1-.18.38.59.59,0,0,0-1,.43.94.94,0,0,0,.45.89.82.82,0,0,0,.37.1,1,1,0,0,0,.53-.17A2.2,2.2,0,0,0,72,164,1.59,1.59,0,0,0,71.06,162.51Z"/><path class="cls-1" d="M65.44,175c-.89-.09-1.83.4-2.49-.6-.52-.82-.66-1.55-1.76-1a1.82,1.82,0,0,1-2.43-.63,10.39,10.39,0,0,1-1.64-2.21c-.19-.38-1.14-2.46-1.7-1.34l.29-.17c-1.37,1-1.09,3-.51,4.43a25.68,25.68,0,0,0,1.09,2.51c.24.41.6.69.83,1.1s.31,1,.56,1.4c.45.76.59,0,1.17.25.38.13.45.81.89,1,.6.21.63-.42,1.22-.34s.83.69,1,1.05c.42.7.45,1.85,1.35,2.21.61.24.69-.3,1.11-.33s.54.76,1.09.69c1-.11,1-1.84,1.11-2.5a10.47,10.47,0,0,0,.07-3.16C66.61,176.42,66.49,175.05,65.44,175Z"/><path class="cls-1" d="M78.13,162.64a1.58,1.58,0,0,0-1,1.51,2.29,2.29,0,0,0,.9,1.69.89.89,0,0,0,.43.13.73.73,0,0,0,.35-.09.94.94,0,0,0,.43-.89.6.6,0,0,0-.57-.6.69.69,0,0,0-.29.07.8.8,0,0,1-.08-.29c0-.27.11-.41.18-.43s.15,0,.24.15a.59.59,0,1,0,.9-.75A1.39,1.39,0,0,0,78.13,162.64Z"/><path class="cls-1" d="M264.49,68.55a3.84,3.84,0,0,1,1.27-.3V56.92h-8.23V59l5.41.19V66.7a11,11,0,0,1-2.38.75,16.88,16.88,0,0,1-3.74.38A7.88,7.88,0,0,1,252,66.37a8.91,8.91,0,0,1-3-4,15.48,15.48,0,0,1-1-5.81,13.42,13.42,0,0,1,1.2-6,8.69,8.69,0,0,1,3.23-3.67,8.36,8.36,0,0,1,4.47-1.24,18.7,18.7,0,0,1,4.46.43,16.66,16.66,0,0,1,2.83.94l.1-2.6c-.68-.13-1.33-.28-2-.44a21.5,21.5,0,0,0-2.16-.44,22,22,0,0,0-3.09-.18,12.91,12.91,0,0,0-4.73.86,10.91,10.91,0,0,0-3.86,2.56A11.78,11.78,0,0,0,245.9,51a16.87,16.87,0,0,0-.94,5.9,15.57,15.57,0,0,0,1.42,6.74,11.2,11.2,0,0,0,4.07,4.69,11.52,11.52,0,0,0,6.41,1.73,18.81,18.81,0,0,0,3.42-.27,16,16,0,0,0,2.46-.62C263.43,69,264,68.74,264.49,68.55Z"/><path class="cls-1" d="M288.08,68.48a10.78,10.78,0,0,0,4.14-4.5,16.55,16.55,0,0,0,1.62-7.31,15.91,15.91,0,0,0-1.27-7,10.27,10.27,0,0,0-9.89-6.29,12.29,12.29,0,0,0-6,1.5,11,11,0,0,0-4.32,4.43,15.52,15.52,0,0,0-1.72,7.3,16.14,16.14,0,0,0,1.31,7,11.08,11.08,0,0,0,4,4.81,10.63,10.63,0,0,0,6.21,1.66A12.06,12.06,0,0,0,288.08,68.48Zm-13.52-6.2a14.65,14.65,0,0,1-.95-5.5,14.34,14.34,0,0,1,1.21-6.21,8.29,8.29,0,0,1,7.76-5,7,7,0,0,1,4.6,1.47,9.05,9.05,0,0,1,2.8,4,15.64,15.64,0,0,1,.94,5.5q-.06,5.49-2.43,8.38a7.83,7.83,0,0,1-6.26,2.92,7.37,7.37,0,0,1-4.78-1.51A9.2,9.2,0,0,1,274.56,62.28Z"/><path class="cls-1" d="M304.63,70c1.08.06,2.09.09,3,.09a15.83,15.83,0,0,0,6.09-1A6.34,6.34,0,0,0,317,66.3,8.87,8.87,0,0,0,318,62a5.83,5.83,0,0,0-.84-3.09,6.46,6.46,0,0,0-2.2-2.21,6,6,0,0,0-2.94-.89,4.83,4.83,0,0,0,2.45-1.41,6.1,6.1,0,0,0,1.33-2.33,8.68,8.68,0,0,0,.4-2.56,5.64,5.64,0,0,0-.94-3.29,5.79,5.79,0,0,0-2.84-2.1,13.37,13.37,0,0,0-4.77-.73c-.79,0-1.5,0-2.1.06l-1.78.12c-.58,0-1.23.06-2,.06l-1.58,0V69.8h1.51Q303,69.85,304.63,70Zm-1.54-24.26c.31,0,.71-.08,1.22-.11l1.52-.07,1.24,0a9.18,9.18,0,0,1,4.55,1A3.66,3.66,0,0,1,313.37,50a5.86,5.86,0,0,1-1.14,3.77A4.35,4.35,0,0,1,309,55.3H306l-1.71,0c-.52,0-.92,0-1.19-.07Zm0,11.76c.23,0,.58-.05,1.06-.06h4.57a8.19,8.19,0,0,1,4.63,1.21A4.25,4.25,0,0,1,315,62.37c0,2.05-.61,3.49-1.83,4.3A9.27,9.27,0,0,1,308,67.9l-1.65,0c-.57,0-1.13-.05-1.69-.1s-1.08-.11-1.56-.19Z"/><rect class="cls-1" x="324.7" y="43.65" width="2.92" height="26.15"/><polygon class="cls-1" points="338.67 57.41 347.33 57.41 347.33 55.16 338.67 55.16 338.67 45.9 350.53 45.9 350.53 43.65 335.78 43.65 335.78 69.8 351.76 69.8 351.76 67.51 338.67 67.51 338.67 57.41"/><path class="cls-1" d="M360.13,58.4l3.05,0c.83,0,1.55,0,2.2,0a3.48,3.48,0,0,1,1.92,1.17A12.55,12.55,0,0,1,369,62.15c.52,1,1,2.05,1.44,3.11s.85,2,1.24,2.78c.24.5.41.88.53,1.12a3.5,3.5,0,0,0,.39.64h3.3c-.15-.25-.31-.52-.47-.82s-.34-.61-.51-.94c-.47-.84-.95-1.79-1.44-2.88s-1-2.16-1.56-3.22a16.92,16.92,0,0,0-1.76-2.77,4.54,4.54,0,0,0-1.52-1.25,8,8,0,0,0,2.21-.91,6.52,6.52,0,0,0,2.37-2.54,8.08,8.08,0,0,0,.85-3.85,7.76,7.76,0,0,0-.65-3.37A5.66,5.66,0,0,0,371.61,45a8.21,8.21,0,0,0-2.85-1.23,15.68,15.68,0,0,0-3.63-.38c-1.13,0-2.23,0-3.32.1s-2,.11-2.87.11h-.5l-1.19,0V69.8h2.88Zm0-12.57a15.44,15.44,0,0,1,2.09-.22c.86,0,1.68-.06,2.45-.06a10.8,10.8,0,0,1,3.67.53,4,4,0,0,1,2.12,1.67,5.78,5.78,0,0,1,.69,3,5.29,5.29,0,0,1-1.7,4.26A6.78,6.78,0,0,1,365,56.46h-1.52c-.67,0-1.33,0-2,0s-1.11,0-1.4-.07Z"/><polygon class="cls-1" points="384.1 53.12 383.92 47.47 386.6 52.03 398.42 69.8 401.06 69.8 401.06 43.65 398.42 43.65 398.42 60.75 398.6 66.1 396.17 61.84 384.13 43.65 381.42 43.65 381.42 69.8 384.1 69.8 384.1 53.12"/><path class="cls-1" d="M429.1,49.66a10.27,10.27,0,0,0-9.88-6.29,12.31,12.31,0,0,0-6,1.5,11,11,0,0,0-4.32,4.43,15.52,15.52,0,0,0-1.72,7.3,16.14,16.14,0,0,0,1.31,7,11.08,11.08,0,0,0,4,4.81,10.63,10.63,0,0,0,6.21,1.66,12.06,12.06,0,0,0,5.92-1.6,10.78,10.78,0,0,0,4.14-4.5,16.55,16.55,0,0,0,1.62-7.31A15.91,15.91,0,0,0,429.1,49.66ZM425,64.91a7.83,7.83,0,0,1-6.26,2.92A7.39,7.39,0,0,1,414,66.32a9.2,9.2,0,0,1-2.89-4,14.65,14.65,0,0,1-.95-5.5,14.34,14.34,0,0,1,1.21-6.21,8.29,8.29,0,0,1,7.76-5,7,7,0,0,1,4.6,1.47,9.05,9.05,0,0,1,2.8,4,15.41,15.41,0,0,1,.94,5.5Q427.39,62,425,64.91Z"/><path class="cls-1" d="M249.83,86.45l-1.24,0-1.2.06-1.08,0a2,2,0,0,1-.35,0h-.89v15.86h1.15c.54,0,1.12,0,1.75.07s1.18.07,1.63.08a7.79,7.79,0,0,0,4.2-1,6.77,6.77,0,0,0,2.64-3,10.51,10.51,0,0,0,.91-4.54,7.92,7.92,0,0,0-1.87-5.62C254.23,87.11,252.35,86.45,249.83,86.45Zm4.95,11.81a4.93,4.93,0,0,1-2,2.28,5.9,5.9,0,0,1-2.94.77c-.45,0-1,0-1.55,0s-1.07-.08-1.48-.14V87.88c.36,0,.76-.08,1.2-.11s.91,0,1.41,0a7.39,7.39,0,0,1,3.37.68,4.41,4.41,0,0,1,2,2.13,8.89,8.89,0,0,1,.67,3.78A9.42,9.42,0,0,1,254.78,98.26Z"/><polygon class="cls-1" points="262.09 94.94 267.34 94.94 267.34 93.58 262.09 93.58 262.09 87.96 269.29 87.96 269.29 86.59 260.34 86.59 260.34 102.46 270.03 102.46 270.03 101.07 262.09 101.07 262.09 94.94"/><path class="cls-1" d="M292.44,90.14a11.46,11.46,0,0,0-2.26-1.72,29.07,29.07,0,0,0-3-1.55,28.34,28.34,0,0,1-2.57-1.31,4.87,4.87,0,0,1-1.46-1.2,2.22,2.22,0,0,1-.47-1.39,1.8,1.8,0,0,1,.39-1.15,2.4,2.4,0,0,1,1.18-.76,6.29,6.29,0,0,1,2-.28,11.34,11.34,0,0,1,3.37.52,8,8,0,0,1,2.43,1.14l1-4.89a12.27,12.27,0,0,0-2.57-1,17.75,17.75,0,0,0-4.82-.55,14.87,14.87,0,0,0-3.79.45A8.74,8.74,0,0,0,279,77.83,6.09,6.09,0,0,0,277,80.07a7,7,0,0,0-.68,3.14,7.39,7.39,0,0,0,.84,3.62,8.58,8.58,0,0,0,2.24,2.6,17,17,0,0,0,3,1.88c1.31.62,2.35,1.13,3.13,1.54a5.87,5.87,0,0,1,1.68,1.21,2.11,2.11,0,0,1,.51,1.43,1.84,1.84,0,0,1-.84,1.69,5.21,5.21,0,0,1-2.68.53,13.79,13.79,0,0,1-2.72-.27,18,18,0,0,1-2.45-.66,10.66,10.66,0,0,1-1.76-.76l-.81,5.1a7.84,7.84,0,0,0,1.76.7,23.21,23.21,0,0,0,6.51.92,12.61,12.61,0,0,0,5.2-1,7.17,7.17,0,0,0,3.23-2.7,7.42,7.42,0,0,0,1.1-4.08,7.32,7.32,0,0,0-.48-2.74A6.48,6.48,0,0,0,292.44,90.14Z"/><path class="cls-1" d="M316.12,77.54A11.35,11.35,0,0,0,309.75,76a15.68,15.68,0,0,0-6.44,1.47,10.19,10.19,0,0,0-4.44,4.24,15.92,15.92,0,0,0-1.71,7.52,16.36,16.36,0,0,0,1.34,7.21,10.53,10.53,0,0,0,4.16,4.7,12.15,12.15,0,0,0,6.6,1.57,14.07,14.07,0,0,0,6.3-1.48,9.94,9.94,0,0,0,4.29-4.34,16.71,16.71,0,0,0,1.66-7.58,16.44,16.44,0,0,0-1.33-7.17A10.33,10.33,0,0,0,316.12,77.54ZM313.36,96a4.65,4.65,0,0,1-4,2,4.39,4.39,0,0,1-3.07-1.11,6.7,6.7,0,0,1-1.84-3,14.58,14.58,0,0,1-.62-4.43,13.29,13.29,0,0,1,.79-5.1,5.41,5.41,0,0,1,2.1-2.66,5.54,5.54,0,0,1,2.92-.79,4.16,4.16,0,0,1,2.9,1,6.32,6.32,0,0,1,1.71,2.9,15.22,15.22,0,0,1,.56,4.33C314.82,92.34,314.34,94.61,313.36,96Z"/><polygon class="cls-1" points="341.95 87.82 342.66 94.46 340.86 90.67 331.92 76.31 325.8 76.31 325.8 102.46 331.75 102.46 331.75 91.17 330.94 84.48 332.84 88.46 341.32 102.46 347.9 102.46 347.9 76.31 341.95 76.31 341.95 87.82"/><path class="cls-1" d="M371.16,77.54A11.37,11.37,0,0,0,364.79,76a15.64,15.64,0,0,0-6.44,1.47,10.09,10.09,0,0,0-4.44,4.24,15.8,15.8,0,0,0-1.72,7.52,16.22,16.22,0,0,0,1.35,7.21,10.51,10.51,0,0,0,4.15,4.7,12.18,12.18,0,0,0,6.61,1.57,14,14,0,0,0,6.29-1.48,10,10,0,0,0,4.3-4.34,16.85,16.85,0,0,0,1.65-7.58,16.15,16.15,0,0,0-1.33-7.17A10.31,10.31,0,0,0,371.16,77.54ZM368.4,96a4.68,4.68,0,0,1-4,2,4.41,4.41,0,0,1-3.07-1.11,6.79,6.79,0,0,1-1.84-3,14.6,14.6,0,0,1-.61-4.43,13.51,13.51,0,0,1,.78-5.1,5.41,5.41,0,0,1,2.1-2.66,5.56,5.56,0,0,1,2.92-.79,4.18,4.18,0,0,1,2.91,1,6.22,6.22,0,0,1,1.7,2.9,14.85,14.85,0,0,1,.57,4.33Q369.86,93.93,368.4,96Z"/><path class="cls-1" d="M401.38,100.56a26,26,0,0,1-1.33-2.7c-.4-.94-.8-1.85-1.21-2.73a13.36,13.36,0,0,0-1.34-2.31,4.26,4.26,0,0,0-1-1c.29-.14.6-.25.87-.41a6.56,6.56,0,0,0,2.46-2.67,9.69,9.69,0,0,0,.89-4.41,8.56,8.56,0,0,0-.87-4.08,6.72,6.72,0,0,0-2.28-2.55,9.75,9.75,0,0,0-3.15-1.3A16.21,16.21,0,0,0,391,76c-1.87,0-3.41,0-4.64.15s-2.31.14-3.24.14h-2.26v26.14h6.55V93.21c1.16,0,2.06,0,2.78-.07a1.76,1.76,0,0,1,1.35.73,6.8,6.8,0,0,1,1,1.83c.28.75.57,1.56.85,2.42a25,25,0,0,0,.95,2.48c.25.56.43,1,.56,1.22a3.5,3.5,0,0,0,.39.64h7.21c-.17-.32-.35-.63-.54-.95ZM388.33,88.75c-.4,0-.72,0-.95-.08V81a10,10,0,0,1,1.34-.24,14.21,14.21,0,0,1,1.44-.08,5.31,5.31,0,0,1,2.65.55,2.87,2.87,0,0,1,1.26,1.42,4.92,4.92,0,0,1,.35,1.83,5.16,5.16,0,0,1-.92,3.09,3.35,3.35,0,0,1-2.92,1.28h-1C389.13,88.79,388.73,88.78,388.33,88.75Z"/><path class="cls-1" d="M411.94,76.14l-9.11,26.32h6.86l1.37-4.89h9.1l1.46,4.89h6.93l-9.18-26.32ZM412.35,93l2.3-8.16.88-3.41.84,3.41L418.8,93Z"/><rect class="cls-1" x="241.19" y="114.38" width="247.81" height="3.31"/><path class="cls-1" d="M243.52,147.3v.08a2.33,2.33,0,0,0,.34,1.21,3.08,3.08,0,0,0,1,.95,5.57,5.57,0,0,0,1.54.62,7.82,7.82,0,0,0,2,.23,5.65,5.65,0,0,0,3.31-.81,2.48,2.48,0,0,0,1.14-2.08,2.17,2.17,0,0,0-.39-1.3,3.41,3.41,0,0,0-1.05-.93,7.5,7.5,0,0,0-1.53-.71c-.59-.21-1.21-.41-1.86-.61s-1.28-.42-1.93-.65a8.26,8.26,0,0,1-1.79-.87,4.52,4.52,0,0,1-1.32-1.25,3,3,0,0,1-.51-1.78,3.57,3.57,0,0,1,.39-1.67,3.67,3.67,0,0,1,1.11-1.28,5.17,5.17,0,0,1,1.75-.83,8.46,8.46,0,0,1,2.28-.29,8.81,8.81,0,0,1,2.36.3,5.89,5.89,0,0,1,1.84.84,4.13,4.13,0,0,1,1.2,1.27,3.14,3.14,0,0,1,.43,1.62v.18h-1.16v-.1a2.31,2.31,0,0,0-.32-1.21,2.9,2.9,0,0,0-.93-.95,5,5,0,0,0-1.47-.62,7.35,7.35,0,0,0-2-.23,5.33,5.33,0,0,0-3.19.81,2.51,2.51,0,0,0-1.1,2.08,2.2,2.2,0,0,0,.37,1.28,3.45,3.45,0,0,0,1,.91,7.26,7.26,0,0,0,1.48.7c.55.2,1.15.4,1.79.6s1.28.4,2,.63a8.77,8.77,0,0,1,1.85.88,5,5,0,0,1,1.39,1.28,3,3,0,0,1,.55,1.84,3.47,3.47,0,0,1-.41,1.67,3.69,3.69,0,0,1-1.16,1.27,5.57,5.57,0,0,1-1.79.82,9,9,0,0,1-2.35.29,9.32,9.32,0,0,1-2.44-.3,6.31,6.31,0,0,1-1.91-.84,4.19,4.19,0,0,1-1.25-1.27,3.13,3.13,0,0,1-.44-1.62v-.16Z"/><path class="cls-1" d="M258.41,135.63H269.1v1.15h-9.51V143h8.1v1.12h-8.1V150h9.51v1.16H258.41Z"/><path class="cls-1" d="M287.54,147.42a7.6,7.6,0,0,1-1.27,1.67,8.14,8.14,0,0,1-1.64,1.28,7.69,7.69,0,0,1-1.95.83,8.21,8.21,0,0,1-2.16.29,7.91,7.91,0,0,1-3.17-.64,8.05,8.05,0,0,1-4.32-4.29,7.91,7.91,0,0,1-.63-3.15,7.83,7.83,0,0,1,.63-3.14,8.34,8.34,0,0,1,1.74-2.57,8.07,8.07,0,0,1,2.58-1.73,7.91,7.91,0,0,1,3.17-.64,8.08,8.08,0,0,1,2.15.29,8,8,0,0,1,3.57,2.11,8.49,8.49,0,0,1,1.28,1.65l-1.08.52a6.59,6.59,0,0,0-1.08-1.38,7.25,7.25,0,0,0-1.39-1.07,6.62,6.62,0,0,0-1.64-.69,6.43,6.43,0,0,0-1.81-.25,6.78,6.78,0,0,0-2.7.54,7.26,7.26,0,0,0-2.19,1.49,7.13,7.13,0,0,0-1.49,2.2,6.8,6.8,0,0,0,0,5.36,7.13,7.13,0,0,0,1.49,2.2,7.06,7.06,0,0,0,2.19,1.48,7,7,0,0,0,2.7.53,6.66,6.66,0,0,0,3.47-.93,7.07,7.07,0,0,0,2.47-2.48Z"/><path class="cls-1" d="M298.5,135.63a5.88,5.88,0,0,1,2.24.4,5,5,0,0,1,1.67,1.08,4.68,4.68,0,0,1,1,1.6,5.21,5.21,0,0,1,.36,1.93,5.15,5.15,0,0,1-.24,1.57,5,5,0,0,1-.68,1.4,4.68,4.68,0,0,1-1.11,1.11,5.49,5.49,0,0,1-1.52.73l4.09,5.74h-1.43L299,145.66a1,1,0,0,1-.24,0h-5.93v5.51h-1.18V135.63Zm-5.69,1.12v7.82h5.65a4.76,4.76,0,0,0,1.79-.32,3.92,3.92,0,0,0,1.32-.86,3.46,3.46,0,0,0,.81-1.25,4.09,4.09,0,0,0,.27-1.48,4.14,4.14,0,0,0-.27-1.49,3.55,3.55,0,0,0-.81-1.25,4.08,4.08,0,0,0-1.32-.86,4.76,4.76,0,0,0-1.79-.31Z"/><path class="cls-1" d="M308.41,135.63h10.7v1.15h-9.52V143h8.1v1.12h-8.1V150h9.52v1.16h-10.7Z"/><path class="cls-1" d="M321.82,135.63h12.41v1.15h-5.62v14.41h-1.18V136.78h-5.61Z"/><path class="cls-1" d="M342.34,135.63l7.14,15.56h-1.3l-1.59-3.51h-9.78l-1.58,3.51h-1.32l7.15-15.56Zm-5,10.93h8.74l-4.37-9.65Z"/><path class="cls-1" d="M359.8,135.63a5.88,5.88,0,0,1,2.24.4,5,5,0,0,1,1.67,1.08,4.68,4.68,0,0,1,1,1.6,5.21,5.21,0,0,1,.36,1.93,5.15,5.15,0,0,1-.24,1.57,5,5,0,0,1-.68,1.4,4.68,4.68,0,0,1-1.11,1.11,5.49,5.49,0,0,1-1.52.73l4.09,5.74h-1.43l-3.94-5.53a.9.9,0,0,1-.23,0h-5.93v5.51h-1.18V135.63Zm-5.69,1.12v7.82h5.65a4.76,4.76,0,0,0,1.79-.32,3.92,3.92,0,0,0,1.32-.86,3.46,3.46,0,0,0,.81-1.25,4.09,4.09,0,0,0,.27-1.48,4.14,4.14,0,0,0-.27-1.49,3.55,3.55,0,0,0-.81-1.25,4.08,4.08,0,0,0-1.32-.86,4.76,4.76,0,0,0-1.79-.31Z"/><path class="cls-1" d="M367.56,133.55l4.91-3,.58,1-5,2.75Zm3.33,2.08v15.56h-1.18V135.63Z"/><path class="cls-1" d="M382.74,135.63l7.15,15.56h-1.3l-1.6-3.51h-9.77l-1.58,3.51h-1.32l7.15-15.56Zm-5,10.93h8.74l-4.37-9.65Z"/><path class="cls-1" d="M400.22,135.63h6.09a7.5,7.5,0,0,1,3.13.61,6.34,6.34,0,0,1,2.27,1.65,7.16,7.16,0,0,1,1.37,2.47,9.42,9.42,0,0,1,.47,3,9.52,9.52,0,0,1-.47,3.06,7.21,7.21,0,0,1-1.37,2.48,6.32,6.32,0,0,1-2.27,1.64,7.67,7.67,0,0,1-3.13.6h-6.09Zm1.18,1.15V150h4.85a6.3,6.3,0,0,0,2.61-.5,5.54,5.54,0,0,0,1.92-1.4A6.18,6.18,0,0,0,412,146a8.58,8.58,0,0,0,0-5.24,6.18,6.18,0,0,0-1.19-2.1,5.54,5.54,0,0,0-1.92-1.4,6.3,6.3,0,0,0-2.61-.51Z"/><path class="cls-1" d="M417.94,135.63h10.7v1.15h-9.52V143h8.1v1.12h-8.1V150h9.52v1.16h-10.7Z"/><path class="cls-1" d="M267.79,165.57v26.71h-6.85v-9.93H250.06v9.93h-6.82V165.57h6.82V176h10.88V165.57Z"/><path class="cls-1" d="M289.6,165.57l10.79,26.71h-7.47l-1.47-3.91H280.94l-1.47,3.91H272l10.82-26.71Zm-3.39,8.77-2.94,7.84h5.85Z"/><path class="cls-1" d="M328.46,185.12a14,14,0,0,1-5.13,5.53,14.7,14.7,0,0,1-3.57,1.58,14.16,14.16,0,0,1-4,.56,13.86,13.86,0,0,1-5.46-1.09,14.69,14.69,0,0,1-4.52-3,14.26,14.26,0,0,1-3.06-4.4,13.44,13.44,0,0,1,0-10.79,14.14,14.14,0,0,1,3.06-4.4,14.69,14.69,0,0,1,4.52-3,13.86,13.86,0,0,1,5.46-1.09,14.09,14.09,0,0,1,4,.56,15.42,15.42,0,0,1,3.54,1.56,13.37,13.37,0,0,1,2.95,2.4,14.85,14.85,0,0,1,2.19,3.08l-6.23,2.81a7.32,7.32,0,0,0-9.23-3.24,7.48,7.48,0,0,0-2.31,1.54,7,7,0,0,0-1.56,2.31,7.39,7.39,0,0,0,0,5.69,7,7,0,0,0,1.56,2.31,7.48,7.48,0,0,0,2.31,1.54,7.2,7.2,0,0,0,2.82.56,7.05,7.05,0,0,0,6.41-3.8Z"/><path class="cls-1" d="M339.86,165.57v26.71H333V165.57Z"/><path class="cls-1" d="M346.13,165.57h20.5v6.64H353v3.84H364.2v6.2H353v3.42h13.66v6.61h-20.5Z"/><path class="cls-1" d="M372.11,192.28V165.57h5.82l11.92,14.93V165.57h6.81v26.71h-5.79L379,177.38v14.9Z"/><path class="cls-1" d="M402.93,165.57h12.39a13.44,13.44,0,0,1,5.49,1.06,11.13,11.13,0,0,1,4,2.9,12.51,12.51,0,0,1,2.38,4.26,17,17,0,0,1,0,10.3,12.28,12.28,0,0,1-2.38,4.25,11.2,11.2,0,0,1-4,2.88,13.44,13.44,0,0,1-5.49,1.06H402.93Zm6.84,6.64v13.46h5a6.88,6.88,0,0,0,2.7-.5,5.31,5.31,0,0,0,1.95-1.38,5.75,5.75,0,0,0,1.18-2.13,8.72,8.72,0,0,0,.4-2.74,7.27,7.27,0,0,0-1.58-4.86,5.78,5.78,0,0,0-4.65-1.85Z"/><path class="cls-1" d="M447,165.57l10.79,26.71h-7.47l-1.47-3.91H438.33l-1.47,3.91h-7.47l10.82-26.71Zm-3.39,8.77-2.94,7.84h5.85Z"/></svg>