<?xml version="1.0" encoding="UTF-8"?><svg id="Capa_2" xmlns="http://www.w3.org/2000/svg" viewBox="0 0 64.3 52.63"><defs><style>.cls-1{fill:#fff;}.cls-2{fill:#dc7f37;}.cls-3{fill:#410324;}.cls-4{fill:#960e53;}</style></defs><g id="Capa_2-2"><path class="cls-4" d="m22.14,20.74h1.16l.26-1.47h1.5l-.26,1.47h.93l.26-1.47h1.5l-.26,1.47h.9v1.56h-1.17l-.17,1.03h.9v1.55h-1.17l-.25,1.47h-1.5l.25-1.47h-.93l-.25,1.47h-1.5l.25-1.47h-.89v-1.55h1.16l.17-1.03h-.89v-1.56Zm2.21,2.59h.93l.17-1.03h-.93l-.17,1.03Z"/><path class="cls-4" d="m29.48,22.81c0-.47.06-.93.19-1.37.12-.44.31-.83.56-1.18.25-.34.56-.62.93-.82.37-.21.8-.31,1.29-.31s.92.1,1.3.31c.38.21.69.48.94.82.25.34.44.73.57,1.18.13.44.19.9.19,1.37s-.06.93-.19,1.37c-.13.44-.32.84-.57,1.18-.25.34-.57.61-.94.82-.38.21-.81.31-1.3.31s-.92-.1-1.29-.31c-.37-.21-.68-.48-.93-.82-.25-.34-.44-.73-.56-1.18-.12-.44-.19-.9-.19-1.37Zm1.81,0c0,.61.11,1.08.33,1.42.22.34.5.51.84.51.17,0,.33-.04.47-.13.15-.09.27-.21.38-.38.11-.17.19-.37.25-.6.06-.24.09-.51.09-.81,0-.6-.11-1.08-.34-1.41s-.51-.5-.85-.5-.62.17-.84.5c-.22.34-.33.81-.33,1.41Z"/><path class="cls-4" d="m36.75,22.81c0-.47.06-.93.19-1.37.12-.44.31-.83.56-1.18.25-.34.56-.62.93-.82.37-.21.8-.31,1.29-.31s.92.1,1.3.31c.38.21.69.48.94.82.25.34.44.73.57,1.18.13.44.19.9.19,1.37s-.06.93-.19,1.37c-.13.44-.32.84-.57,1.18-.25.34-.57.61-.94.82-.38.21-.81.31-1.3.31s-.92-.1-1.29-.31c-.37-.21-.68-.48-.93-.82-.25-.34-.44-.73-.56-1.18-.12-.44-.19-.9-.19-1.37Zm1.81,0c0,.61.11,1.08.33,1.42.22.34.5.51.84.51.17,0,.33-.04.47-.13.15-.09.27-.21.38-.38.11-.17.19-.37.25-.6.06-.24.09-.51.09-.81,0-.6-.11-1.08-.34-1.41s-.51-.5-.85-.5-.62.17-.84.5c-.22.34-.33.81-.33,1.41Z"/><path class="cls-4" d="m44.02,22.81c0-.47.06-.93.19-1.37.12-.44.31-.83.56-1.18.25-.34.56-.62.93-.82s.8-.31,1.29-.31.92.1,1.3.31.69.48.94.82c.25.34.44.73.57,1.18.13.44.19.9.19,1.37s-.06.93-.19,1.37-.32.84-.57,1.18c-.25.34-.57.61-.94.82s-.81.31-1.3.31-.92-.1-1.29-.31-.68-.48-.93-.82c-.25-.34-.44-.73-.56-1.18-.12-.44-.19-.9-.19-1.37Zm1.81,0c0,.61.11,1.08.33,1.42.22.34.5.51.84.51.17,0,.33-.04.47-.13.15-.09.27-.21.38-.38s.19-.37.25-.6c.06-.24.09-.51.09-.81,0-.6-.11-1.08-.34-1.41-.23-.34-.51-.5-.85-.5s-.62.17-.84.5c-.22.34-.33.81-.33,1.41Z"/><path class="cls-4" d="m51.29,22.81c0-.47.06-.93.19-1.37.12-.44.31-.83.56-1.18.25-.34.56-.62.93-.82s.8-.31,1.29-.31.92.1,1.3.31.69.48.94.82c.25.34.44.73.57,1.18.13.44.19.9.19,1.37s-.06.93-.19,1.37-.32.84-.57,1.18c-.25.34-.57.61-.94.82s-.81.31-1.3.31-.92-.1-1.29-.31-.68-.48-.93-.82c-.25-.34-.44-.73-.56-1.18-.12-.44-.19-.9-.19-1.37Zm1.81,0c0,.61.11,1.08.33,1.42.22.34.5.51.84.51.17,0,.33-.04.47-.13.15-.09.27-.21.38-.38s.19-.37.25-.6c.06-.24.09-.51.09-.81,0-.6-.11-1.08-.34-1.41-.23-.34-.51-.5-.85-.5s-.62.17-.84.5c-.22.34-.33.81-.33,1.41Z"/><path class="cls-3" d="m59.65,44.3h-9.8c-.5,0-.9-.4-.9-.9s.4-.9.9-.9h9.8c1.57,0,2.85-.98,2.85-2.19V11.88c0-1.21-1.28-2.19-2.85-2.19H4.65c-1.57,0-2.85.98-2.85,2.19v28.43c0,1.21,1.28,2.19,2.85,2.19h37.03c.5,0,.9.4.9.9s-.4.9-.9.9H4.65c-2.57,0-4.65-1.79-4.65-3.99V11.88c0-2.2,2.09-3.99,4.65-3.99h54.99c2.57,0,4.65,1.79,4.65,3.99v28.43c0,2.2-2.09,3.99-4.65,3.99Z"/><path class="cls-2" d="m11.9,24.78c-2.14,0-3.88-1.74-3.88-3.88s1.74-3.88,3.88-3.88,3.88,1.74,3.88,3.88-1.74,3.88-3.88,3.88Zm0-5.97c-1.15,0-2.09.94-2.09,2.09s.94,2.09,2.09,2.09,2.09-.94,2.09-2.09-.94-2.09-2.09-2.09Z"/><path class="cls-2" d="m16.37,30.06H7.42c-.4,0-.78-.17-1.04-.47-.26-.29-.39-.69-.35-1.08.33-2.99,2.85-5.25,5.87-5.25s5.54,2.26,5.87,5.25c.04.39-.08.79-.35,1.08-.27.3-.65.47-1.04.47Zm-.39-1.35h0,0Zm-8.09-.44h8.02c-.41-1.86-2.06-3.21-4.01-3.21s-3.6,1.35-4.01,3.21Z"/><rect class="cls-1" x="18.33" y="1.09" width="7.03" height="11.28" rx="3.52" ry="3.52"/><path class="cls-3" d="m22.31,13.23h-.93c-2.16,0-3.91-1.75-3.91-3.91v-5.18c0-2.16,1.75-3.91,3.91-3.91h.93c2.16,0,3.91,1.75,3.91,3.91v5.18c0,2.16-1.75,3.91-3.91,3.91Zm-.93-11.28c-1.21,0-2.19.98-2.19,2.19v5.18c0,1.21.98,2.19,2.19,2.19h.93c1.21,0,2.19-.98,2.19-2.19v-5.18c0-1.21-.98-2.19-2.19-2.19h-.93Z"/><rect class="cls-1" x="25.44" y=".86" width="7.03" height="11.28" rx="3.52" ry="3.52"/><path class="cls-3" d="m29.42,13h-.93c-2.16,0-3.91-1.75-3.91-3.91V3.91c0-2.16,1.75-3.91,3.91-3.91h.93c2.16,0,3.91,1.75,3.91,3.91v5.18c0,2.16-1.75,3.91-3.91,3.91Zm-.93-11.28c-1.21,0-2.19.98-2.19,2.19v5.18c0,1.21.98,2.19,2.19,2.19h.93c1.21,0,2.19-.98,2.19-2.19V3.91c0-1.21-.98-2.19-2.19-2.19h-.93Z"/><rect class="cls-1" x="32.47" y="1.09" width="7.03" height="11.28" rx="3.52" ry="3.52"/><path class="cls-3" d="m36.45,13.23h-.93c-2.16,0-3.91-1.75-3.91-3.91v-5.18c0-2.16,1.75-3.91,3.91-3.91h.93c2.16,0,3.91,1.75,3.91,3.91v5.18c0,2.16-1.75,3.91-3.91,3.91Zm-.93-11.28c-1.21,0-2.19.98-2.19,2.19v5.18c0,1.21.98,2.19,2.19,2.19h.93c1.21,0,2.19-.98,2.19-2.19v-5.18c0-1.21-.98-2.19-2.19-2.19h-.93Z"/><rect class="cls-1" x="39.5" y=".86" width="7.03" height="11.28" rx="3.52" ry="3.52"/><path class="cls-3" d="m43.48,13h-.93c-2.16,0-3.91-1.75-3.91-3.91V3.91c0-2.16,1.75-3.91,3.91-3.91h.93c2.16,0,3.91,1.75,3.91,3.91v5.18c0,2.16-1.75,3.91-3.91,3.91Zm-.93-11.28c-1.21,0-2.19.98-2.19,2.19v5.18c0,1.21.98,2.19,2.19,2.19h.93c1.21,0,2.19-.98,2.19-2.19V3.91c0-1.21-.98-2.19-2.19-2.19h-.93Z"/><path class="cls-1" d="m49.05,43.36v-3.9c0-1.18-.96-2.14-2.14-2.14h-11.46c0,3.34,2.71,6.04,6.04,6.04h.18"/><path class="cls-3" d="m49.05,44.26c-.49,0-.9-.4-.9-.9v-3.9c0-.68-.56-1.24-1.24-1.24h-10.48c.43,2.41,2.54,4.25,5.07,4.25h.18c.49,0,.9.4.9.9s-.4.9-.9.9h-.18c-3.83,0-6.94-3.11-6.94-6.94,0-.49.4-.9.9-.9h11.46c1.67,0,3.03,1.36,3.03,3.03v3.9c0,.49-.4.9-.9.9Z"/><path class="cls-3" d="m49.05,52.63h-29.6c-.49,0-.9-.4-.9-.9v-8.15c0-.49.4-.9.9-.9s.9.4.9.9v7.25h27.81v-10.17c0-.49.4-.9.9-.9s.9.4.9.9v11.06c0,.49-.4.9-.9.9Z"/><path class="cls-2" d="m16.76,34.47H6.97c-.49,0-.9-.4-.9-.9s.4-.9.9-.9h9.79c.49,0,.9.4.9.9s-.4.9-.9.9Z"/><path class="cls-4" d="m56.94,30.74H22.84c-.49,0-.9-.4-.9-.9s.4-.9.9-.9h34.1c.49,0,.9.4.9.9s-.4.9-.9.9Z"/></g></svg>