<?xml version="1.0" encoding="UTF-8"?><svg id="Capa_2" xmlns="http://www.w3.org/2000/svg" viewBox="0 0 58.01 52.53"><defs><style>.cls-1{fill:#fff;}.cls-2{fill:#dc7f37;}.cls-3{fill:#410324;}.cls-4{fill:#960e53;}</style></defs><g id="Capa_2-2"><path class="cls-3" d="m53.77,44.16h-6.81c-.47,0-.85-.38-.85-.85s.38-.85.85-.85h6.81c1.39,0,2.53-1,2.53-2.23V11.84c0-1.23-1.13-2.23-2.53-2.23H4.24c-1.39,0-2.53,1-2.53,2.23v28.38c0,1.23,1.13,2.23,2.53,2.23h34.03c.47,0,.85.38.85.85s-.38.85-.85.85H4.24c-2.34,0-4.24-1.77-4.24-3.94V11.84c0-2.17,1.9-3.94,4.24-3.94h49.54c2.34,0,4.24,1.77,4.24,3.94v28.38c0,2.17-1.9,3.94-4.24,3.94Z"/><path class="cls-2" d="m13.46,24.62c-2.14,0-3.87-1.74-3.87-3.87s1.74-3.87,3.87-3.87,3.87,1.74,3.87,3.87-1.74,3.87-3.87,3.87Zm0-5.96c-1.15,0-2.08.94-2.08,2.08s.94,2.08,2.08,2.08,2.08-.94,2.08-2.08-.94-2.08-2.08-2.08Z"/><path class="cls-2" d="m17.93,29.89h-8.93c-.4,0-.78-.17-1.04-.46-.26-.29-.39-.69-.35-1.08.33-2.99,2.84-5.24,5.85-5.24s5.53,2.25,5.85,5.24c.04.39-.08.78-.35,1.08-.26.3-.64.46-1.04.46Zm-.39-1.35h0,0Zm-8.08-.44h8.01c-.41-1.86-2.06-3.21-4-3.21s-3.59,1.35-4,3.21Z"/><rect class="cls-1" x="15.74" y="1.09" width="7.02" height="11.26" rx="3.51" ry="3.51"/><path class="cls-3" d="m19.72,13.21h-.93c-2.15,0-3.9-1.75-3.9-3.9v-5.17c0-2.15,1.75-3.9,3.9-3.9h.93c2.15,0,3.9,1.75,3.9,3.9v5.17c0,2.15-1.75,3.9-3.9,3.9Zm-.93-11.26c-1.2,0-2.18.98-2.18,2.18v5.17c0,1.2.98,2.18,2.18,2.18h.93c1.2,0,2.18-.98,2.18-2.18v-5.17c0-1.2-.98-2.18-2.18-2.18h-.93Z"/><rect class="cls-1" x="22.84" y=".86" width="7.02" height="11.26" rx="3.51" ry="3.51"/><path class="cls-3" d="m26.81,12.98h-.93c-2.15,0-3.9-1.75-3.9-3.9V3.9c0-2.15,1.75-3.9,3.9-3.9h.93c2.15,0,3.9,1.75,3.9,3.9v5.17c0,2.15-1.75,3.9-3.9,3.9Zm-.93-11.26c-1.2,0-2.18.98-2.18,2.18v5.17c0,1.2.98,2.18,2.18,2.18h.93c1.2,0,2.18-.98,2.18-2.18V3.9c0-1.2-.98-2.18-2.18-2.18h-.93Z"/><rect class="cls-1" x="29.86" y="1.09" width="7.02" height="11.26" rx="3.51" ry="3.51"/><path class="cls-3" d="m33.83,13.21h-.93c-2.15,0-3.9-1.75-3.9-3.9v-5.17c0-2.15,1.75-3.9,3.9-3.9h.93c2.15,0,3.9,1.75,3.9,3.9v5.17c0,2.15-1.75,3.9-3.9,3.9Zm-.93-11.26c-1.2,0-2.18.98-2.18,2.18v5.17c0,1.2.98,2.18,2.18,2.18h.93c1.2,0,2.18-.98,2.18-2.18v-5.17c0-1.2-.98-2.18-2.18-2.18h-.93Z"/><rect class="cls-1" x="36.87" y=".86" width="7.02" height="11.26" rx="3.51" ry="3.51"/><path class="cls-3" d="m40.85,12.98h-.93c-2.15,0-3.9-1.75-3.9-3.9V3.9c0-2.15,1.75-3.9,3.9-3.9h.93c2.15,0,3.9,1.75,3.9,3.9v5.17c0,2.15-1.75,3.9-3.9,3.9Zm-.93-11.26c-1.2,0-2.18.98-2.18,2.18v5.17c0,1.2.98,2.18,2.18,2.18h.93c1.2,0,2.18-.98,2.18-2.18V3.9c0-1.2-.98-2.18-2.18-2.18h-.93Z"/><path class="cls-3" d="m46.4,52.53h-29.54c-.49,0-.89-.4-.89-.89v-8.13c0-.49.4-.89.89-.89s.89.4.89.89v7.24h27.75v-10.15c0-.49.4-.89.89-.89s.89.4.89.89v11.04c0,.49-.4.89-.89.89Z"/><path class="cls-2" d="m18.31,34.29h-9.77c-.49,0-.89-.4-.89-.89s.4-.89.89-.89h9.77c.49,0,.89.4.89.89s-.4.89-.89.89Z"/><path class="cls-4" d="m35.39,18.67h-6.07c-.41,0-.74.33-.74.74v6.07c0,.41.33.74.74.74h6.07c.41,0,.74-.33.74-.74v-6.07c0-.41-.33-.74-.74-.74Zm-.74,6.07h-4.59v-4.59h4.59v4.59Z"/><rect class="cls-4" x="31.17" y="21.27" width="2.36" height="2.36" rx=".37" ry=".37"/><path class="cls-4" d="m35.39,27.9h-6.07c-.41,0-.74.33-.74.74v6.07c0,.41.33.74.74.74h6.07c.41,0,.74-.33.74-.74v-6.07c0-.41-.33-.74-.74-.74Zm-.74,6.07h-4.59v-4.59h4.59v4.59Z"/><rect class="cls-4" x="31.17" y="30.49" width="2.36" height="2.36" rx=".37" ry=".37"/><rect class="cls-4" x="38.53" y="28.23" width="2.36" height="2.36" rx=".37" ry=".37"/><rect class="cls-4" x="40.66" y="30.35" width="2.36" height="2.36" rx=".37" ry=".37"/><rect class="cls-4" x="42.81" y="28.23" width="2.36" height="2.36" rx=".37" ry=".37"/><rect class="cls-4" x="42.81" y="32.47" width="2.36" height="2.36" rx=".37" ry=".37"/><rect class="cls-4" x="38.53" y="32.47" width="2.36" height="2.36" rx=".37" ry=".37"/><path class="cls-4" d="m45,18.67h-6.07c-.41,0-.74.33-.74.74v6.07c0,.41.33.74.74.74h6.07c.41,0,.74-.33.74-.74v-6.07c0-.41-.33-.74-.74-.74Zm-.74,6.07h-4.59v-4.59h4.59v4.59Z"/><rect class="cls-4" x="40.79" y="21.27" width="2.36" height="2.36" rx=".37" ry=".37"/><path class="cls-4" d="m46.9,39.32h-19.67c-1.37,0-2.48-1.11-2.48-2.48v-19.67c0-1.37,1.11-2.48,2.48-2.48h19.67c1.37,0,2.48,1.11,2.48,2.48v19.67c0,1.37-1.11,2.48-2.48,2.48Zm-19.67-22.85c-.38,0-.69.31-.69.69v19.67c0,.38.31.69.69.69h19.67c.38,0,.69-.31.69-.69v-19.67c0-.38-.31-.69-.69-.69h-19.67Z"/><path class="cls-1" d="m46.4,43.28v-3.9c0-1.18-.96-2.13-2.13-2.13h-11.43c0,3.33,2.7,6.03,6.03,6.03h.18"/><path class="cls-3" d="m46.4,44.17c-.49,0-.89-.4-.89-.89v-3.9c0-.68-.56-1.24-1.24-1.24h-10.46c.42,2.41,2.53,4.24,5.06,4.24h.18c.49,0,.89.4.89.89s-.4.89-.89.89h-.18c-3.82,0-6.93-3.11-6.93-6.93,0-.49.4-.89.89-.89h11.43c1.67,0,3.03,1.36,3.03,3.03v3.9c0,.49-.4.89-.89.89Z"/></g></svg>