<?xml version="1.0" encoding="UTF-8"?><svg id="Capa_2" xmlns="http://www.w3.org/2000/svg" viewBox="0 0 58.01 59.27"><defs><style>.cls-1{fill:#fff;}.cls-2{fill:#dc7f37;}.cls-3{fill:#410324;}.cls-4{fill:#960e53;}</style></defs><g id="Capa_2-2"><path class="cls-2" d="m19.97,14.3c-1.71,0-3.11-1.39-3.11-3.11s1.39-3.11,3.11-3.11,3.11,1.39,3.11,3.11-1.39,3.11-3.11,3.11Zm0-4.78c-.92,0-1.67.75-1.67,1.67s.75,1.67,1.67,1.67,1.67-.75,1.67-1.67-.75-1.67-1.67-1.67Z"/><path class="cls-2" d="m23.56,18.53h-7.17c-.32,0-.62-.14-.83-.37-.21-.24-.31-.55-.28-.86.26-2.4,2.28-4.21,4.7-4.21s4.43,1.81,4.7,4.21c.03.31-.07.63-.28.86-.21.24-.52.37-.83.37Zm-.31-1.08h0,0Zm-6.48-.35h6.42c-.33-1.49-1.65-2.57-3.21-2.57s-2.88,1.08-3.21,2.57Z"/><path class="cls-2" d="m36.7,12.35h-9.38c-.47,0-.86-.38-.86-.86s.38-.86.86-.86h9.38c.47,0,.86.38.86.86s-.38.86-.86.86Z"/><path class="cls-2" d="m35.02,16.96h-7.55c-.47,0-.86-.38-.86-.86s.38-.86.86-.86h7.55c.47,0,.86.38.86.86s-.38.86-.86.86Z"/><path class="cls-4" d="m24.88,25.85h-5.83c-.39,0-.71.32-.71.71v5.83c0,.39.32.71.71.71h5.83c.39,0,.71-.32.71-.71v-5.83c0-.39-.32-.71-.71-.71Zm-.71,5.83h-4.41v-4.41h4.41v4.41Z"/><rect class="cls-4" x="20.83" y="28.35" width="2.26" height="2.26" rx=".35" ry=".35"/><path class="cls-4" d="m24.88,34.71h-5.83c-.39,0-.71.32-.71.71v5.83c0,.39.32.71.71.71h5.83c.39,0,.71-.32.71-.71v-5.83c0-.39-.32-.71-.71-.71Zm-.71,5.83h-4.41v-4.41h4.41v4.41Z"/><rect class="cls-4" x="20.83" y="37.21" width="2.26" height="2.26" rx=".35" ry=".35"/><rect class="cls-4" x="27.89" y="35.04" width="2.26" height="2.26" rx=".35" ry=".35"/><rect class="cls-4" x="29.94" y="37.06" width="2.26" height="2.26" rx=".35" ry=".35"/><rect class="cls-4" x="32.01" y="35.04" width="2.26" height="2.26" rx=".35" ry=".35"/><rect class="cls-4" x="32.01" y="39.11" width="2.26" height="2.26" rx=".35" ry=".35"/><rect class="cls-4" x="27.89" y="39.11" width="2.26" height="2.26" rx=".35" ry=".35"/><path class="cls-4" d="m34.11,25.85h-5.83c-.39,0-.71.32-.71.71v5.83c0,.39.32.71.71.71h5.83c.39,0,.71-.32.71-.71v-5.83c0-.39-.32-.71-.71-.71Zm-.71,5.83h-4.41v-4.41h4.41v4.41Z"/><rect class="cls-4" x="30.06" y="28.35" width="2.26" height="2.26" rx=".35" ry=".35"/><path class="cls-4" d="m35.93,45.68h-18.89c-1.32,0-2.39-1.07-2.39-2.39v-18.89c0-1.32,1.07-2.39,2.39-2.39h18.89c1.32,0,2.39,1.07,2.39,2.39v18.89c0,1.32-1.07,2.39-2.39,2.39Zm-18.89-21.94c-.37,0-.67.3-.67.67v18.89c0,.37.3.67.67.67h18.89c.37,0,.67-.3.67-.67v-18.89c0-.37-.3-.67-.67-.67h-18.89Z"/><path class="cls-3" d="m57.19,59.27h-19.72c-.28,0-.54-.14-.69-.37l-2.44-3.74c-.25-.38-.14-.89.24-1.14.38-.25.89-.14,1.14.24l2.2,3.37h18.46v-4.39l-3.37-3.46c-.17-.18-.26-.42-.23-.67,0-.02.19-1.68.05-3.95-.24-3.83-2.19-9.51-2.21-9.57-.03-.09-.05-.18-.05-.27v-15.75h-.15c-2.74,0-4.97,2.66-4.97,5.94v.2c0,.45-.37.82-.82.82s-.82-.37-.82-.82v-.2c0-4.18,2.97-7.58,6.61-7.58h.97c.45,0,.82.37.82.82v16.44c.31.91,2.02,6.11,2.25,9.87.11,1.78.03,3.19-.02,3.85l3.34,3.42c.15.15.23.36.23.57v5.54c0,.45-.37.82-.82.82Z"/><path class="cls-3" d="m38.66,55.26H14.33c-3.75,0-6.8-3.05-6.8-6.8V6.8c0-3.75,3.05-6.8,6.8-6.8h24.33c1.79,0,3.53,1.13,4.91,3.19,1.16,1.74,1.89,3.95,1.89,5.75v39.52c0,3.75-3.05,6.8-6.8,6.8ZM14.33,1.64c-2.84,0-5.16,2.31-5.16,5.16v41.66c0,2.84,2.31,5.16,5.16,5.16h24.33c2.84,0,5.16-2.31,5.16-5.16V8.94c0-2.82-2.36-7.3-5.16-7.3H14.33Z"/><path class="cls-3" d="m43.99,50.4H9.1c-.45,0-.82-.37-.82-.82s.37-.82.82-.82h34.88c.45,0,.82.37.82.82s-.37.82-.82.82Z"/><path class="cls-3" d="m30.29,5.12h-7.6c-2.04,0-3.7-1.66-3.7-3.7V.11h15v1.32c0,2.04-1.66,3.7-3.7,3.7Zm-9.63-3.37c.16.98,1.01,1.73,2.03,1.73h7.6c1.02,0,1.88-.75,2.03-1.73h-11.67Z"/><rect class="cls-1" x="1.92" y="36.77" width="6.74" height="8.61" rx="3.37" ry="3.37" transform="translate(-35.16 32.18) rotate(-70.26)"/><path class="cls-3" d="m6.44,45.63c-.42,0-.83-.07-1.24-.22l-2.61-.94c-.92-.33-1.66-1-2.07-1.88-.42-.88-.46-1.88-.13-2.8l.3-.84c.33-.92,1-1.66,1.88-2.07.88-.42,1.88-.47,2.8-.13l2.61.94c.92.33,1.66,1,2.07,1.88.42.88.46,1.88.13,2.8l-.3.84c-.33.92-1,1.66-1.88,2.07-.5.23-1.03.35-1.56.35Zm-2.31-7.62c-.32,0-.63.07-.93.21-.53.25-.93.69-1.12,1.24l-.3.84c-.2.55-.17,1.14.08,1.67.25.53.69.93,1.24,1.12l2.61.94c.55.2,1.14.17,1.67-.08.53-.25.93-.69,1.12-1.24l.3-.84c.2-.55.17-1.14-.08-1.67-.25-.53-.69-.93-1.24-1.12l-2.61-.94c-.24-.09-.49-.13-.74-.13Z"/><rect class="cls-1" x="1.75" y="29.96" width="6.74" height="8.61" rx="3.37" ry="3.37" transform="translate(-28.86 27.5) rotate(-70.26)"/><path class="cls-3" d="m6.26,38.81c-.41,0-.83-.07-1.23-.22l-2.61-.94c-.92-.33-1.66-1-2.07-1.88-.42-.88-.46-1.88-.13-2.8l.3-.84c.33-.92,1-1.66,1.88-2.07.88-.42,1.88-.47,2.8-.13l2.61.94c.92.33,1.66,1,2.07,1.88.42.88.46,1.88.13,2.8h0s-.3.84-.3.84c-.54,1.49-1.95,2.42-3.45,2.42Zm-2.3-7.62c-.32,0-.63.07-.93.21-.53.25-.93.69-1.12,1.24l-.3.84c-.2.55-.17,1.14.08,1.67.25.53.69.93,1.24,1.12l2.61.94c1.13.41,2.39-.18,2.79-1.32l.3-.84c.2-.55.17-1.14-.08-1.67-.25-.53-.69-.93-1.24-1.12l-2.61-.94c-.24-.09-.49-.13-.74-.13Zm5.36,4.11h0,0Z"/><rect class="cls-1" x="1.92" y="23.22" width="6.74" height="8.61" rx="3.37" ry="3.37" transform="translate(-22.41 23.21) rotate(-70.26)"/><path class="cls-3" d="m6.44,32.08c-.42,0-.83-.07-1.24-.22l-2.61-.94c-.92-.33-1.66-1-2.07-1.88-.42-.88-.46-1.88-.13-2.8l.3-.84c.33-.92,1-1.66,1.88-2.07s1.88-.47,2.8-.13l2.61.94c.92.33,1.66,1,2.07,1.88.42.88.46,1.88.13,2.8l-.3.84c-.33.92-1,1.66-1.88,2.07-.5.23-1.03.35-1.56.35Zm-2.31-7.62c-.32,0-.63.07-.93.21-.53.25-.93.69-1.12,1.24l-.3.84c-.2.55-.17,1.14.08,1.67.25.53.69.93,1.24,1.12l2.61.94c.55.2,1.14.17,1.67-.08.53-.25.93-.69,1.12-1.24l.3-.84c.2-.55.17-1.14-.08-1.67-.25-.53-.69-.93-1.24-1.12l-2.61-.94c-.24-.09-.49-.13-.74-.13Z"/><rect class="cls-1" x="1.75" y="16.48" width="6.74" height="8.61" rx="3.37" ry="3.37" transform="translate(-16.18 18.58) rotate(-70.26)"/><path class="cls-3" d="m6.27,25.34c-.42,0-.83-.07-1.24-.22l-2.61-.94c-.92-.33-1.66-1-2.07-1.88-.42-.88-.46-1.88-.13-2.8l.3-.84c.33-.92,1-1.66,1.88-2.07.88-.42,1.88-.46,2.8-.13l2.61.94c.92.33,1.66,1,2.07,1.88.42.88.46,1.88.13,2.8h0s-.3.84-.3.84c-.33.92-1,1.66-1.88,2.07-.5.23-1.03.35-1.56.35Zm-2.31-7.62c-.32,0-.63.07-.93.21-.53.25-.93.69-1.12,1.24l-.3.84c-.2.55-.17,1.14.08,1.67.25.53.69.93,1.24,1.12l2.61.94c1.13.41,2.39-.18,2.79-1.32l.3-.84c.2-.55.17-1.14-.08-1.67-.25-.53-.69-.93-1.24-1.12l-2.61-.94c-.24-.09-.49-.13-.74-.13Zm5.36,4.11h0,0Z"/></g></svg>